<svg width="86" height="83" viewBox="0 0 86 83" fill="none" xmlns="http://www.w3.org/2000/svg">
<path d="M4.48554 57.8708L5.49215 60.8088L5.51794 60.884L5.59182 60.9136L8.35254 62.0168L5.59182 63.1201L5.51794 63.1497L5.49215 63.2249L4.48554 66.1629L3.47893 63.2249L3.45314 63.1497L3.37926 63.1201L0.618538 62.0168L3.37926 60.9136L3.45314 60.884L3.47893 60.8088L4.48554 57.8708Z" stroke="#6666F2" stroke-width="0.346734"/>
<path d="M55.3509 68.873H22.8398V60.0117H55.3509V68.873Z" fill="#F3A73D"/>
<path d="M27.0156 67.4082H18.6636V13.8672H27.0156V67.4082Z" fill="#EAEAEA"/>
<path d="M27.0156 68.873H18.6636V60.0117H27.0156V68.873Z" fill="#F3A73D"/>
<path d="M57.045 68.873H49.4941V60.0117H57.045V68.873Z" fill="#F3A73D"/>
<path d="M57.3681 49.6245V68.8721H19.0068V57.6935V51.2303V13.8672H57.3681V23.2359" stroke="#BDBDBD" stroke-width="1.77438" stroke-miterlimit="10" stroke-linecap="round" stroke-linejoin="round"/>
<path d="M25.2612 26.3086H50.9676" stroke="#BDBDBD" stroke-width="1.77438" stroke-miterlimit="10" stroke-linecap="round" stroke-linejoin="round"/>
<path d="M42.8044 33.1055H25.2603" stroke="#BDBDBD" stroke-width="1.77438" stroke-miterlimit="10" stroke-linecap="round" stroke-linejoin="round"/>
<path d="M25.2612 38.7969H42.8054" stroke="#BDBDBD" stroke-width="1.77438" stroke-miterlimit="10" stroke-linecap="round" stroke-linejoin="round"/>
<path d="M42.8044 45.2227H25.2603" stroke="#BDBDBD" stroke-width="1.77438" stroke-miterlimit="10" stroke-linecap="round" stroke-linejoin="round"/>
<path d="M25.2612 51.6484H50.9676" stroke="#BDBDBD" stroke-width="1.77438" stroke-miterlimit="10" stroke-linecap="round" stroke-linejoin="round"/>
<path fill-rule="evenodd" clip-rule="evenodd" d="M59.8183 27.1582L47.9619 39.0643L52.413 43.5721L64.1301 31.8044L64.2995 31.6394L70.6633 25.2756L66.2123 20.7695L59.8813 27.0996L59.8183 27.1582Z" fill="#656AEA" stroke="#656AEA" stroke-width="1.77438" stroke-miterlimit="10" stroke-linecap="round" stroke-linejoin="round"/>
<path fill-rule="evenodd" clip-rule="evenodd" d="M46.332 45.2256L47.9609 39.0703L52.4137 43.5764L46.332 45.2256Z" stroke="#656AEA" stroke-width="1.77438" stroke-miterlimit="10" stroke-linecap="round" stroke-linejoin="round"/>
<path d="M67.5606 28.2499L63.1548 23.8281" stroke="white" stroke-width="1.77438" stroke-miterlimit="10" stroke-linecap="round" stroke-linejoin="round"/>
</svg>
