<svg width="46" height="42" viewBox="0 0 46 42" fill="none" xmlns="http://www.w3.org/2000/svg">
<path d="M18.2505 6.21889L3.28092 32.1448C1.28462 35.6033 3.77869 39.9226 7.77129 39.9226H37.7106C41.7031 39.9226 44.1972 35.6033 42.2009 32.1448L27.2313 6.21889C25.235 2.76037 20.2468 2.76037 18.2505 6.21889Z" fill="#EAEAEA"/>
<path d="M15.5129 5.84316L3.11991 31.9961C1.46722 35.4849 3.53201 39.8419 6.83738 39.8419H31.6234C34.9288 39.8419 36.9936 35.4849 35.3409 31.9961L22.9479 5.84316C21.2952 2.35436 17.1656 2.35436 15.5129 5.84316Z" fill="white"/>
<path d="M37.7092 41.4847H7.76999C5.33295 41.4847 3.14999 40.2247 1.93147 38.1143C0.712949 36.0039 0.712949 33.4839 1.93147 31.3735L4.32184 27.2358C4.75221 26.4943 5.7011 26.235 6.44776 26.6654C7.18925 27.0958 7.4485 28.0447 7.01813 28.7913L4.62776 32.9291C3.96924 34.0647 3.96924 35.4232 4.62776 36.5587C5.28628 37.6943 6.45813 38.3735 7.76999 38.3735H37.7092C39.0211 38.3735 40.1981 37.6943 40.8515 36.5587C41.51 35.4232 41.51 34.0647 40.8515 32.9291L25.8818 7.00318C25.5448 6.41725 25.0833 5.95577 24.5078 5.63947C23.7559 5.22466 23.4863 4.27577 23.9011 3.52392C24.3159 2.77207 25.2648 2.50244 26.0167 2.91725C27.0744 3.50318 27.9559 4.37947 28.5729 5.44244L43.5426 31.3684C44.7611 33.4787 44.7611 35.9987 43.5426 38.1091C42.3292 40.2247 40.1463 41.4847 37.7092 41.4847Z" fill="#2C426B"/>
<path d="M22.7421 34.2292C21.8813 34.2292 21.1865 33.5344 21.1865 32.6736V31.1181C21.1865 30.2573 21.8813 29.5625 22.7421 29.5625C23.6028 29.5625 24.2976 30.2573 24.2976 31.1181V32.6736C24.2976 33.5344 23.6028 34.2292 22.7421 34.2292Z" fill="#6666F2"/>
<path d="M22.7421 26.4424C21.8813 26.4424 21.1865 25.7476 21.1865 24.8869V14.5165C21.1865 13.6558 21.8813 12.9609 22.7421 12.9609C23.6028 12.9609 24.2976 13.6558 24.2976 14.5165V24.8869C24.2976 25.7476 23.6028 26.4424 22.7421 26.4424Z" fill="#6666F2"/>
</svg>
