<svg width="83" height="82" viewBox="0 0 83 82" fill="none" xmlns="http://www.w3.org/2000/svg">
<circle cx="41.5" cy="41" r="41" fill="#F8F8F8"/>
<g clip-path="url(#clip0_4436_573)">
<path d="M26.7402 26.3866H59.4234C61.2599 26.3866 62.8583 27.2368 63.8786 28.5292V26.5736C63.8786 23.6488 61.515 21.2852 58.6071 21.2852H27.7095C24.8017 21.2852 22.438 23.6488 22.438 26.5736V28.3421C23.4583 27.1518 24.9887 26.3866 26.7402 26.3866Z" fill="#EAEAEA"/>
<path d="M22.438 49.6151V26.5736C22.438 23.6488 24.8017 21.2852 27.7095 21.2852H58.6071C61.515 21.2852 63.8786 23.6488 63.8786 26.5736V40.2625" stroke="#2C426B" stroke-width="1.7855" stroke-miterlimit="10" stroke-linecap="round" stroke-linejoin="round"/>
<path d="M34.7326 50.125H16.9116V55.0904C16.9116 57.318 18.7141 59.1205 20.9418 59.1205H65.0181" stroke="#2C426B" stroke-width="1.7855" stroke-miterlimit="10" stroke-linecap="round" stroke-linejoin="round"/>
<path d="M48.4388 53.2879H37.8788C36.1443 53.2879 34.7329 51.8765 34.7329 50.125" stroke="#2C426B" stroke-width="1.7855" stroke-miterlimit="10" stroke-linecap="round" stroke-linejoin="round"/>
<path d="M40.8716 28.375H44.9697" stroke="#2C426B" stroke-width="1.7855" stroke-miterlimit="10" stroke-linecap="round" stroke-linejoin="round"/>
<path fill-rule="evenodd" clip-rule="evenodd" d="M62.8584 47.9128C62.8584 51.0587 60.2906 53.6264 57.1448 53.6264C53.9819 53.6264 51.4312 51.0587 51.4312 47.9128C51.4312 44.7499 53.9819 42.1992 57.1448 42.1992C60.2906 42.1992 62.8584 44.7499 62.8584 47.9128Z" fill="#F8F8F8" stroke="#6666F2" stroke-width="1.7855" stroke-miterlimit="10" stroke-linecap="round" stroke-linejoin="round"/>
<path d="M60.4268 52.5898L66.0893 59.7148" stroke="#6666F2" stroke-width="1.7855" stroke-miterlimit="10" stroke-linecap="round" stroke-linejoin="round"/>
<path d="M33.9297 51.1875H17.4531C17.75 52.2266 18.2547 54.5719 17.8984 55.6406C17.5422 56.7094 19.5312 57.8672 20.5703 58.3125H63.7656L60.2031 54.3047C57.5312 55.1953 56.8966 55.0695 54.4141 54.3047H49.0703H36.6016C35.8891 54.3047 34.5234 52.2266 33.9297 51.1875Z" fill="#F3A73D" stroke="#F3A73D" stroke-width="0.890625"/>
</g>
<defs>
<clipPath id="clip0_4436_573">
<rect width="57" height="57" fill="white" transform="translate(13 12)"/>
</clipPath>
</defs>
</svg>
