<svg width="273" height="183" viewBox="0 0 273 183" fill="none" xmlns="http://www.w3.org/2000/svg">
<path d="M233.439 131.912L237.871 133.01L238.972 128.57L240.74 129.009L239.64 133.449L244.072 134.547L243.633 136.319L239.201 135.22L238.1 139.66L236.332 139.222L237.432 134.782L233 133.684L233.439 131.912Z" fill="#6D6DBF"/>
<path d="M253.261 165.737C256.868 169.771 263.063 170.116 267.096 166.509C271.13 162.901 271.476 156.707 267.868 152.673C264.26 148.639 258.066 148.294 254.032 151.901C249.998 155.509 249.653 161.703 253.261 165.737ZM255.89 163.386C253.581 160.804 253.802 156.84 256.384 154.531C258.965 152.222 262.93 152.443 265.239 155.024C267.548 157.606 267.327 161.57 264.745 163.879C262.163 166.188 258.199 165.967 255.89 163.386Z" fill="#E4E7FF"/>
<path d="M10.6391 34.1786C11.7985 31.8204 10.8267 28.9688 8.46849 27.8094C6.11027 26.65 3.25868 27.6218 2.09928 29.9801C0.93988 32.3383 1.91171 35.1899 4.26993 36.3493C6.62815 37.5087 9.47975 36.5368 10.6391 34.1786Z" fill="#4E2DA3"/>
<path d="M267.985 112.244C264.768 111.437 261.505 113.391 260.698 116.609C259.89 119.827 261.844 123.09 265.062 123.897C268.28 124.704 271.543 122.75 272.35 119.532C273.157 116.314 271.203 113.052 267.985 112.244ZM267.459 114.342C269.518 114.858 270.769 116.947 270.253 119.006C269.736 121.065 267.648 122.316 265.588 121.799C263.529 121.283 262.278 119.195 262.795 117.135C263.312 115.076 265.4 113.825 267.459 114.342Z" fill="#CECDFF"/>
<path d="M69.0212 21.9559C52.5543 24.9874 50.0968 27.4449 47.0653 43.9119C44.0338 27.4449 41.5763 24.9874 25.1094 21.9559C41.5763 18.9245 44.0338 16.4669 47.0653 0C50.0968 16.4669 52.5543 18.9245 69.0212 21.9559Z" fill="#CECDFF"/>
<path d="M39.718 53.3746C28.7612 55.3917 27.1261 57.0269 25.109 67.9836C23.0919 57.0269 21.4567 55.3917 10.5 53.3746C21.4567 51.3576 23.0919 49.7224 25.109 38.7656C27.1261 49.7224 28.7612 51.3576 39.718 53.3746Z" fill="#E4E7FF"/>
<path d="M75.4942 85.9809H165.055V85.9829H176.121C170.009 85.9829 164.761 81.0284 164.399 74.9161L162.624 44.9219H62L63.7754 74.9168C64.1368 81.029 69.3819 85.9809 75.4942 85.9809Z" fill="#937DFF"/>
<path opacity="0.6" d="M75.4942 85.9809H165.055V85.9829H176.121C170.009 85.9829 164.761 81.0284 164.399 74.9161L162.624 44.9219H62L63.7754 74.9168C64.1368 81.029 69.3819 85.9809 75.4942 85.9809Z" fill="white"/>
<path d="M183.566 24.9922V24.9942H94.0052C87.893 24.9942 83.2338 29.9461 83.5958 36.0583L85.8958 74.9185C86.2572 81.0301 81.596 85.9853 75.4844 85.9853H86.5505V85.9833H176.111C182.223 85.9833 186.883 81.0314 186.52 74.9192L186.769 79.1253L184.221 36.059C183.859 29.9474 188.52 24.9922 194.632 24.9922H183.566Z" fill="#937DFF"/>
<path d="M194.635 24.9942H105.074V24.9922H94.0078C100.119 24.9922 105.367 29.9467 105.729 36.059L114.375 182.144H215L206.353 36.059C205.992 29.946 200.747 24.9942 194.635 24.9942Z" fill="#937DFF"/>
<path opacity="0.8" d="M194.635 24.9942H105.074V24.9922H94.0078C100.119 24.9922 105.367 29.9467 105.729 36.059L114.375 182.144H215L206.353 36.059C205.992 29.946 200.747 24.9942 194.635 24.9942Z" fill="white"/>
<path d="M139.627 66.5578H120.957L119.852 47.8906H138.522L139.627 66.5578ZM123.025 64.363H137.299L136.453 50.086H122.18L123.025 64.363Z" fill="white"/>
<path d="M142.221 110.456H123.55L122.445 91.7891H141.116L142.221 110.456ZM125.619 108.261H139.893L139.047 93.9838H124.774L125.619 108.261Z" fill="white"/>
<path d="M144.815 154.362H126.144L125.039 135.695H143.71L144.815 154.362ZM128.213 152.168H142.486L141.641 137.891H127.367L128.213 152.168Z" fill="white"/>
<path d="M191.66 47.8906H148.734V50.0854H191.66V47.8906Z" fill="white"/>
<path d="M187.103 56.125H149.219V58.3198H187.103V56.125Z" fill="white"/>
<path d="M192.629 64.3594H149.703V66.5541H192.629V64.3594Z" fill="white"/>
<path d="M194.262 91.7891H151.336V93.9838H194.262V91.7891Z" fill="white"/>
<path d="M177.008 100.031H151.812V102.226H177.008V100.031Z" fill="white"/>
<path d="M165.321 108.266H152.312V110.46H165.321V108.266Z" fill="white"/>
<path d="M195.229 108.266H173.766V110.46H195.229V108.266Z" fill="white"/>
<path d="M196.856 135.695H153.93V137.89H196.856V135.695Z" fill="white"/>
<path d="M197.341 143.93H154.414V146.124H197.341V143.93Z" fill="white"/>
<path d="M178.646 152.172H154.906V154.367H178.646V152.172Z" fill="white"/>
<path d="M131.509 62.1589C131.043 62.1589 130.593 61.9809 130.253 61.6599L125.667 57.3304C124.932 56.6366 124.899 55.4789 125.593 54.7446C126.287 54.009 127.445 53.9773 128.179 54.6704L131.432 57.7417L138.748 49.9667C139.438 49.2311 140.596 49.1947 141.333 49.8878C142.069 50.5803 142.105 51.738 141.412 52.4737L132.841 61.5831C132.509 61.937 132.049 62.1434 131.563 62.1582C131.545 62.1589 131.526 62.1589 131.509 62.1589Z" fill="#937DFF"/>
<path d="M134.102 106.065C133.636 106.065 133.187 105.887 132.847 105.566L128.261 101.237C127.526 100.543 127.493 99.3851 128.187 98.6509C128.88 97.9152 130.039 97.8842 130.773 98.5767L134.026 101.648L141.341 93.873C142.032 93.1374 143.19 93.1009 143.927 93.7941C144.663 94.4866 144.698 95.6443 144.005 96.3799L135.435 105.489C135.102 105.843 134.642 106.05 134.157 106.064C134.139 106.064 134.121 106.065 134.102 106.065Z" fill="#937DFF"/>
<path d="M136.712 149.963C136.246 149.963 135.796 149.785 135.456 149.464L130.871 145.135C130.136 144.441 130.103 143.284 130.796 142.549C131.489 141.814 132.648 141.782 133.382 142.475L136.636 145.546L143.951 137.771C144.641 137.036 145.8 136.999 146.536 137.693C147.272 138.385 147.308 139.543 146.615 140.278L138.044 149.388C137.712 149.742 137.252 149.948 136.766 149.963C136.747 149.963 136.729 149.963 136.712 149.963Z" fill="#937DFF"/>
</svg>
