<svg width="368" height="277" viewBox="0 0 368 277" fill="none" xmlns="http://www.w3.org/2000/svg">
<g filter="url(#filter0_d_2707_594)">
<rect x="27" y="19" width="314.692" height="224.061" rx="13.8631" fill="white"/>
</g>
<rect x="32.2109" y="23.9062" width="306.938" height="213.577" rx="6.39454" fill="white"/>
<path d="M36.0547 30.7318C36.0547 28.3774 37.9633 26.4688 40.3177 26.4688H98.0817V237.488H40.3177C37.9633 237.488 36.0547 235.58 36.0547 233.225V30.7318Z" fill="#F9F9F9"/>
<rect x="53.3125" y="37.7695" width="33.0384" height="3.19727" rx="1.59863" fill="#ECECEC"/>
<path d="M49.2133 37.4429L47.6982 36.5667C47.4081 36.3996 46.9539 36.3996 46.6637 36.5667L45.134 37.4488C44.5274 37.8591 44.4922 37.9206 44.4922 38.5741V40.1654C44.4922 40.8189 44.5274 40.8834 45.1457 41.2996L46.6608 42.1758C46.8073 42.2608 46.9949 42.3018 47.1795 42.3018C47.3641 42.3018 47.5517 42.2608 47.6953 42.1758L49.2251 41.2937C49.8317 40.8834 49.8669 40.8219 49.8669 40.1684V38.5741C49.8669 37.9206 49.8317 37.8591 49.2133 37.4429Z" fill="#A1A1A1"/>
<path d="M47.179 40.3228C47.705 40.3228 48.1314 39.8964 48.1314 39.3704C48.1314 38.8444 47.705 38.418 47.179 38.418C46.653 38.418 46.2266 38.8444 46.2266 39.3704C46.2266 39.8964 46.653 40.3228 47.179 40.3228Z" fill="white"/>
<rect x="43.7344" y="58.5742" width="33.0384" height="3.19727" rx="1.59863" fill="#ECECEC"/>
<rect x="43.7344" y="77.8438" width="33.0384" height="3.19727" rx="1.59863" fill="#ECECEC"/>
<rect x="43.7344" y="123.238" width="33.0384" height="3.19727" rx="1.59863" fill="#ECECEC"/>
<rect x="43.7344" y="87.2148" width="24.0861" height="3.19727" rx="1.59863" fill="#ECECEC"/>
<rect x="43.7344" y="132.621" width="24.0861" height="3.19727" rx="1.59863" fill="#ECECEC"/>
<g clip-path="url(#clip0_2707_594)">
<path d="M48.0402 106.264V105.715C48.0402 105.424 47.9245 105.145 47.7186 104.939C47.5127 104.733 47.2334 104.617 46.9422 104.617H44.7464C44.4552 104.617 44.1759 104.733 43.97 104.939C43.7641 105.145 43.6484 105.424 43.6484 105.715V106.264" stroke="black" stroke-width="0.548965" stroke-linecap="round" stroke-linejoin="round"/>
<path d="M45.8401 103.54C46.4465 103.54 46.938 103.048 46.938 102.442C46.938 101.835 46.4465 101.344 45.8401 101.344C45.2337 101.344 44.7422 101.835 44.7422 102.442C44.7422 103.048 45.2337 103.54 45.8401 103.54Z" stroke="black" stroke-width="0.548965" stroke-linecap="round" stroke-linejoin="round"/>
<path d="M49.6984 106.271V105.722C49.6983 105.479 49.6173 105.243 49.4683 105.051C49.3192 104.858 49.1105 104.721 48.875 104.66" stroke="black" stroke-width="0.548965" stroke-linecap="round" stroke-linejoin="round"/>
<path d="M47.7578 101.375C47.994 101.435 48.2033 101.573 48.3528 101.765C48.5023 101.958 48.5834 102.195 48.5834 102.439C48.5834 102.682 48.5023 102.919 48.3528 103.112C48.2033 103.304 47.994 103.442 47.7578 103.502" stroke="black" stroke-width="0.548965" stroke-linecap="round" stroke-linejoin="round"/>
</g>
<path d="M54.7052 105.312V101.755H57.0026V102.314H55.3006V103.19H56.7062V103.749H55.3006V104.754H57.0026V105.312H54.7052ZM60.7994 105.312V103.692C60.7994 103.509 60.7541 103.367 60.6635 103.265C60.5729 103.161 60.4502 103.109 60.2954 103.109C60.1999 103.109 60.1143 103.131 60.0385 103.176C59.9627 103.218 59.9026 103.283 59.8582 103.368C59.8137 103.452 59.7915 103.553 59.7915 103.67L59.5271 103.514C59.5255 103.33 59.5667 103.167 59.6507 103.027C59.7363 102.886 59.8516 102.775 59.9965 102.696C60.1414 102.617 60.3028 102.578 60.4807 102.578C60.7755 102.578 61.0011 102.667 61.1576 102.845C61.3157 103.021 61.3947 103.253 61.3947 103.541V105.312H60.7994ZM57.5904 105.312V102.645H58.1166V103.472H58.1907V105.312H57.5904ZM59.1986 105.312V103.699C59.1986 103.513 59.1533 103.368 59.0627 103.265C58.9721 103.161 58.8486 103.109 58.6922 103.109C58.5407 103.109 58.4188 103.161 58.3266 103.265C58.236 103.368 58.1907 103.503 58.1907 103.67L57.9239 103.492C57.9239 103.319 57.9667 103.163 58.0523 103.025C58.138 102.887 58.2533 102.778 58.3982 102.699C58.5448 102.618 58.7086 102.578 58.8898 102.578C59.0891 102.578 59.2554 102.621 59.3888 102.706C59.5238 102.79 59.6243 102.906 59.6902 103.052C59.7577 103.197 59.7915 103.361 59.7915 103.544V105.312H59.1986ZM63.3212 105.387C63.061 105.387 62.8427 105.325 62.6665 105.201C62.4903 105.078 62.3577 104.91 62.2688 104.697C62.1799 104.483 62.1354 104.244 62.1354 103.979C62.1354 103.71 62.1799 103.47 62.2688 103.257C62.3577 103.045 62.4878 102.878 62.6591 102.756C62.832 102.632 63.0453 102.57 63.2989 102.57C63.5509 102.57 63.7691 102.632 63.9536 102.756C64.1397 102.878 64.2838 103.045 64.3859 103.257C64.488 103.468 64.539 103.708 64.539 103.979C64.539 104.245 64.4888 104.485 64.3884 104.697C64.2879 104.91 64.1463 105.078 63.9635 105.201C63.7806 105.325 63.5666 105.387 63.3212 105.387ZM62.0341 106.498V102.645H62.5603V104.517H62.6344V106.498H62.0341ZM63.2298 104.853C63.3846 104.853 63.5122 104.814 63.6127 104.737C63.7131 104.66 63.7872 104.555 63.835 104.423C63.8844 104.29 63.9091 104.142 63.9091 103.979C63.9091 103.817 63.8844 103.671 63.835 103.539C63.7856 103.405 63.709 103.3 63.6053 103.223C63.5015 103.144 63.3697 103.104 63.21 103.104C63.0585 103.104 62.935 103.141 62.8394 103.215C62.7439 103.288 62.6731 103.39 62.627 103.522C62.5825 103.652 62.5603 103.804 62.5603 103.979C62.5603 104.151 62.5825 104.304 62.627 104.436C62.6731 104.567 62.7448 104.67 62.8419 104.744C62.9407 104.817 63.07 104.853 63.2298 104.853ZM65.133 105.312V101.681H65.7283V105.312H65.133ZM67.6467 105.387C67.3799 105.387 67.1468 105.326 66.9476 105.206C66.7483 105.086 66.5935 104.921 66.4831 104.71C66.3744 104.497 66.3201 104.254 66.3201 103.979C66.3201 103.699 66.3761 103.453 66.4881 103.242C66.6001 103.032 66.7557 102.867 66.955 102.748C67.1542 102.63 67.3848 102.57 67.6467 102.57C67.9151 102.57 68.149 102.631 68.3482 102.751C68.5475 102.871 68.7023 103.037 68.8127 103.25C68.923 103.461 68.9782 103.703 68.9782 103.979C68.9782 104.255 68.9222 104.5 68.8102 104.712C68.6998 104.923 68.545 105.089 68.3458 105.209C68.1465 105.327 67.9135 105.387 67.6467 105.387ZM67.6467 104.828C67.8838 104.828 68.06 104.749 68.1753 104.591C68.2906 104.433 68.3482 104.229 68.3482 103.979C68.3482 103.72 68.2898 103.514 68.1728 103.361C68.0559 103.206 67.8805 103.129 67.6467 103.129C67.4869 103.129 67.3552 103.165 67.2514 103.237C67.1493 103.308 67.0735 103.408 67.0241 103.536C66.9747 103.663 66.95 103.811 66.95 103.979C66.95 104.237 67.0085 104.444 67.1254 104.599C67.244 104.752 67.4177 104.828 67.6467 104.828ZM69.7768 106.498L70.2906 105.088L70.3005 105.503L69.1369 102.645H69.757L70.5821 104.759H70.424L71.2268 102.645H71.8222L70.3351 106.498H69.7768ZM73.3071 105.387C73.037 105.387 72.7998 105.328 72.5956 105.211C72.3914 105.094 72.2316 104.932 72.1164 104.725C72.0027 104.517 71.9459 104.278 71.9459 104.008C71.9459 103.717 72.0019 103.464 72.1139 103.25C72.2259 103.034 72.3815 102.867 72.5808 102.748C72.7801 102.63 73.0106 102.57 73.2725 102.57C73.5492 102.57 73.7838 102.635 73.9765 102.766C74.1709 102.894 74.315 103.076 74.4088 103.312C74.5027 103.547 74.5381 103.825 74.5151 104.144H73.9247V103.927C73.923 103.637 73.872 103.425 73.7715 103.292C73.671 103.158 73.5129 103.092 73.2972 103.092C73.0534 103.092 72.8723 103.167 72.7537 103.319C72.6351 103.469 72.5758 103.689 72.5758 103.979C72.5758 104.249 72.6351 104.458 72.7537 104.606C72.8723 104.754 73.0452 104.828 73.2725 104.828C73.4191 104.828 73.545 104.796 73.6504 104.732C73.7575 104.666 73.8398 104.571 73.8975 104.448L74.4854 104.626C74.3833 104.866 74.2252 105.053 74.0111 105.187C73.7987 105.32 73.564 105.387 73.3071 105.387ZM72.3881 104.144V103.694H74.2236V104.144H72.3881ZM76.2792 105.387C76.0091 105.387 75.772 105.328 75.5677 105.211C75.3635 105.094 75.2038 104.932 75.0885 104.725C74.9749 104.517 74.918 104.278 74.918 104.008C74.918 103.717 74.974 103.464 75.086 103.25C75.198 103.034 75.3536 102.867 75.5529 102.748C75.7522 102.63 75.9828 102.57 76.2446 102.57C76.5213 102.57 76.756 102.635 76.9487 102.766C77.143 102.894 77.2871 103.076 77.381 103.312C77.4748 103.547 77.5103 103.825 77.4872 104.144H76.8968V103.927C76.8951 103.637 76.8441 103.425 76.7436 103.292C76.6432 103.158 76.4851 103.092 76.2693 103.092C76.0256 103.092 75.8444 103.167 75.7258 103.319C75.6073 103.469 75.548 103.689 75.548 103.979C75.548 104.249 75.6073 104.458 75.7258 104.606C75.8444 104.754 76.0173 104.828 76.2446 104.828C76.3912 104.828 76.5172 104.796 76.6226 104.732C76.7296 104.666 76.812 104.571 76.8696 104.448L77.4576 104.626C77.3554 104.866 77.1973 105.053 76.9832 105.187C76.7708 105.32 76.5361 105.387 76.2792 105.387ZM75.3602 104.144V103.694H77.1957V104.144H75.3602ZM79.0685 105.387C78.7391 105.387 78.4715 105.312 78.2657 105.164C78.0598 105.016 77.9346 104.808 77.8902 104.539L78.4979 104.445C78.5292 104.577 78.5983 104.681 78.7054 104.757C78.8124 104.832 78.9475 104.87 79.1105 104.87C79.2538 104.87 79.3641 104.842 79.4415 104.786C79.5206 104.729 79.5601 104.65 79.5601 104.552C79.5601 104.491 79.5453 104.442 79.5157 104.406C79.4877 104.368 79.4251 104.332 79.3279 104.297C79.2307 104.263 79.0817 104.219 78.8808 104.166C78.6568 104.107 78.4789 104.044 78.3472 103.976C78.2154 103.907 78.1207 103.825 78.0631 103.731C78.0055 103.638 77.9766 103.524 77.9766 103.391C77.9766 103.224 78.0203 103.079 78.1076 102.956C78.1948 102.832 78.3167 102.738 78.4732 102.672C78.6296 102.604 78.8141 102.57 79.0265 102.57C79.234 102.57 79.4177 102.603 79.5774 102.667C79.7388 102.731 79.8689 102.822 79.9677 102.941C80.0665 103.06 80.1275 103.199 80.1505 103.358L79.5428 103.467C79.528 103.354 79.4761 103.264 79.3872 103.198C79.2999 103.132 79.183 103.095 79.0364 103.087C78.8964 103.078 78.7836 103.1 78.698 103.151C78.6123 103.2 78.5695 103.27 78.5695 103.361C78.5695 103.412 78.5868 103.456 78.6214 103.492C78.656 103.528 78.7251 103.564 78.8289 103.601C78.9343 103.637 79.0908 103.681 79.2983 103.734C79.5107 103.788 79.6803 103.851 79.8072 103.922C79.9356 103.991 80.0278 104.074 80.0838 104.171C80.1415 104.268 80.1703 104.386 80.1703 104.524C80.1703 104.793 80.0723 105.004 79.8763 105.157C79.682 105.31 79.4127 105.387 79.0685 105.387Z" fill="black"/>
<rect x="43.7344" y="142" width="28.3491" height="3.19727" rx="1.59863" fill="#ECECEC"/>
<g clip-path="url(#clip1_2707_594)">
<path d="M305.884 38.4077C305.884 38.0685 305.75 37.7433 305.51 37.5035C305.27 37.2636 304.945 37.1289 304.606 37.1289C304.267 37.1289 303.941 37.2636 303.701 37.5035C303.462 37.7433 303.327 38.0685 303.327 38.4077C303.327 39.8996 302.688 40.3259 302.688 40.3259H306.524C306.524 40.3259 305.884 39.8996 305.884 38.4077Z" stroke="black" stroke-width="0.426302" stroke-linecap="round" stroke-linejoin="round"/>
<path d="M304.987 41.1797C304.95 41.2443 304.896 41.2979 304.831 41.3352C304.767 41.3724 304.693 41.3921 304.619 41.3921C304.544 41.3921 304.471 41.3724 304.406 41.3352C304.341 41.2979 304.287 41.2443 304.25 41.1797" stroke="black" stroke-width="0.426302" stroke-linecap="round" stroke-linejoin="round"/>
</g>
<circle cx="321.031" cy="39.2502" r="5.32831" fill="#CCCCCC" fill-opacity="0.2"/>
<g clip-path="url(#clip2_2707_594)">
<path d="M331.928 39.8971L331.023 38.9928L331.325 38.6914L331.928 39.2944L332.53 38.6914L332.832 38.9928L331.928 39.8971Z" fill="#23262F"/>
</g>
<path d="M43.7344 114.289H90.2013" stroke="#C4C4C4" stroke-width="0.213151"/>
<rect x="107.098" y="58.6254" width="214.481" height="117.675" rx="2.75347" fill="white" stroke="#E6E8EC" stroke-width="0.289839"/>
<rect x="113.914" y="68.9141" width="44.925" height="4.34758" rx="2.17379" fill="#ECECEC"/>
<path d="M115.272 85.4432V87.9727H114.966V85.7643H114.951L114.334 86.1743V85.8631L114.966 85.4432H115.272ZM116 87.9727V87.7503L116.835 86.8364C116.933 86.7293 117.013 86.6363 117.077 86.5572C117.14 86.4774 117.187 86.4024 117.218 86.3324C117.249 86.2616 117.264 86.1875 117.264 86.1101C117.264 86.0212 117.243 85.9442 117.2 85.8791C117.158 85.8141 117.101 85.7639 117.027 85.7285C116.954 85.6931 116.872 85.6754 116.78 85.6754C116.683 85.6754 116.598 85.6955 116.526 85.7359C116.454 85.7754 116.399 85.831 116.359 85.9026C116.32 85.9743 116.301 86.0582 116.301 86.1546H116.01C116.01 86.0064 116.044 85.8763 116.112 85.7643C116.18 85.6523 116.274 85.565 116.391 85.5024C116.51 85.4399 116.643 85.4086 116.79 85.4086C116.938 85.4086 117.07 85.4399 117.184 85.5024C117.299 85.565 117.388 85.6494 117.453 85.7556C117.519 85.8619 117.551 85.98 117.551 86.1101C117.551 86.2032 117.534 86.2941 117.5 86.3831C117.467 86.4712 117.41 86.5696 117.327 86.6783C117.246 86.7861 117.133 86.9179 116.988 87.0735L116.42 87.6812V87.7009H117.595V87.9727H116Z" fill="#6B7280"/>
<path d="M115.204 97.8182V100.348H114.898V98.1393H114.883L114.266 98.5493V98.2381L114.898 97.8182H115.204ZM116.757 100.382C116.571 100.382 116.412 100.332 116.281 100.23C116.15 100.128 116.05 99.9804 115.981 99.7869C115.912 99.5926 115.877 99.3579 115.877 99.0829C115.877 98.8095 115.912 98.5761 115.981 98.3826C116.051 98.1883 116.152 98.0401 116.283 97.938C116.414 97.835 116.572 97.7836 116.757 97.7836C116.941 97.7836 117.099 97.835 117.23 97.938C117.362 98.0401 117.462 98.1883 117.531 98.3826C117.601 98.5761 117.636 98.8095 117.636 99.0829C117.636 99.3579 117.602 99.5926 117.533 99.7869C117.463 99.9804 117.363 100.128 117.232 100.23C117.101 100.332 116.943 100.382 116.757 100.382ZM116.757 100.111C116.941 100.111 117.085 100.022 117.187 99.8437C117.289 99.6659 117.34 99.4123 117.34 99.0829C117.34 98.8639 117.316 98.6774 117.269 98.5234C117.223 98.3694 117.157 98.2521 117.069 98.1714C116.983 98.0907 116.879 98.0504 116.757 98.0504C116.574 98.0504 116.431 98.1405 116.328 98.3208C116.225 98.5003 116.174 98.7544 116.174 99.0829C116.174 99.3019 116.197 99.488 116.243 99.6412C116.289 99.7943 116.355 99.9108 116.442 99.9907C116.529 100.071 116.634 100.111 116.757 100.111Z" fill="#6B7280"/>
<path d="M116.773 112.761C116.603 112.761 116.453 112.731 116.323 112.671C116.194 112.61 116.093 112.526 116.02 112.42C115.948 112.313 115.912 112.191 115.913 112.055C115.912 111.948 115.933 111.849 115.976 111.758C116.019 111.667 116.077 111.591 116.151 111.53C116.226 111.468 116.31 111.429 116.402 111.412V111.398C116.281 111.366 116.185 111.298 116.113 111.194C116.041 111.088 116.006 110.969 116.007 110.834C116.006 110.706 116.039 110.591 116.104 110.49C116.17 110.389 116.261 110.309 116.376 110.25C116.492 110.192 116.624 110.162 116.773 110.162C116.919 110.162 117.05 110.192 117.165 110.25C117.281 110.309 117.371 110.389 117.437 110.49C117.504 110.591 117.538 110.706 117.538 110.834C117.538 110.969 117.501 111.088 117.428 111.194C117.357 111.298 117.262 111.366 117.143 111.398V111.412C117.235 111.429 117.317 111.468 117.39 111.53C117.463 111.591 117.522 111.667 117.566 111.758C117.609 111.849 117.631 111.948 117.632 112.055C117.631 112.191 117.594 112.313 117.521 112.42C117.449 112.526 117.348 112.61 117.218 112.671C117.09 112.731 116.941 112.761 116.773 112.761ZM116.773 112.489C116.887 112.489 116.986 112.471 117.069 112.434C117.152 112.397 117.216 112.345 117.262 112.277C117.307 112.209 117.33 112.13 117.331 112.04C117.33 111.944 117.305 111.86 117.257 111.787C117.208 111.713 117.142 111.656 117.058 111.614C116.975 111.572 116.88 111.551 116.773 111.551C116.665 111.551 116.568 111.572 116.484 111.614C116.4 111.656 116.333 111.713 116.285 111.787C116.237 111.86 116.214 111.944 116.214 112.04C116.214 112.13 116.235 112.209 116.28 112.277C116.325 112.345 116.39 112.397 116.474 112.434C116.558 112.471 116.657 112.489 116.773 112.489ZM116.773 111.289C116.863 111.289 116.943 111.271 117.013 111.235C117.084 111.198 117.14 111.148 117.18 111.083C117.221 111.018 117.241 110.941 117.242 110.854C117.241 110.769 117.221 110.694 117.181 110.631C117.142 110.566 117.087 110.517 117.017 110.482C116.947 110.447 116.866 110.429 116.773 110.429C116.678 110.429 116.595 110.447 116.524 110.482C116.454 110.517 116.399 110.566 116.36 110.631C116.321 110.694 116.302 110.769 116.303 110.854C116.302 110.941 116.322 111.018 116.361 111.083C116.402 111.148 116.457 111.198 116.528 111.235C116.599 111.271 116.68 111.289 116.773 111.289Z" fill="#6B7280"/>
<path d="M116.775 125.136C116.671 125.134 116.568 125.115 116.464 125.077C116.36 125.039 116.265 124.975 116.18 124.885C116.094 124.795 116.025 124.673 115.973 124.519C115.922 124.364 115.896 124.169 115.896 123.936C115.896 123.712 115.917 123.513 115.959 123.34C116.001 123.167 116.062 123.02 116.141 122.902C116.221 122.782 116.318 122.692 116.43 122.63C116.544 122.568 116.672 122.537 116.815 122.537C116.956 122.537 117.082 122.566 117.193 122.623C117.304 122.679 117.394 122.757 117.464 122.857C117.534 122.958 117.58 123.074 117.6 123.204H117.299C117.271 123.091 117.216 122.997 117.136 122.922C117.055 122.847 116.948 122.809 116.815 122.809C116.619 122.809 116.464 122.894 116.351 123.065C116.239 123.235 116.183 123.475 116.182 123.782H116.202C116.248 123.712 116.303 123.653 116.366 123.603C116.43 123.553 116.501 123.514 116.579 123.487C116.656 123.46 116.738 123.447 116.824 123.447C116.969 123.447 117.102 123.483 117.222 123.555C117.342 123.627 117.439 123.726 117.511 123.853C117.584 123.979 117.62 124.123 117.62 124.286C117.62 124.443 117.585 124.586 117.515 124.716C117.445 124.845 117.347 124.948 117.22 125.025C117.094 125.101 116.946 125.138 116.775 125.136ZM116.775 124.864C116.879 124.864 116.972 124.838 117.054 124.787C117.137 124.735 117.203 124.665 117.251 124.578C117.299 124.491 117.323 124.393 117.323 124.286C117.323 124.182 117.3 124.087 117.253 124.001C117.207 123.915 117.143 123.846 117.062 123.795C116.981 123.744 116.889 123.718 116.785 123.718C116.707 123.718 116.634 123.734 116.566 123.765C116.499 123.796 116.44 123.838 116.388 123.891C116.338 123.945 116.299 124.006 116.27 124.075C116.241 124.144 116.227 124.216 116.227 124.291C116.227 124.392 116.25 124.486 116.297 124.573C116.345 124.66 116.41 124.731 116.492 124.784C116.575 124.838 116.67 124.864 116.775 124.864Z" fill="#6B7280"/>
<path d="M115.815 136.958V136.706L116.926 134.947H117.109V135.337H116.986L116.146 136.666V136.686H117.643V136.958H115.815ZM117.005 137.477V136.881V136.764V134.947H117.297V137.477H117.005Z" fill="#6B7280"/>
<path d="M116 149.855V149.633L116.835 148.719C116.933 148.612 117.013 148.519 117.077 148.44C117.14 148.36 117.187 148.285 117.218 148.215C117.249 148.144 117.264 148.07 117.264 147.993C117.264 147.904 117.243 147.827 117.2 147.762C117.158 147.697 117.101 147.647 117.027 147.611C116.954 147.576 116.872 147.558 116.78 147.558C116.683 147.558 116.598 147.578 116.526 147.619C116.454 147.658 116.399 147.714 116.359 147.785C116.32 147.857 116.301 147.941 116.301 148.037H116.01C116.01 147.889 116.044 147.759 116.112 147.647C116.18 147.535 116.274 147.448 116.391 147.385C116.51 147.323 116.643 147.291 116.79 147.291C116.938 147.291 117.07 147.323 117.184 147.385C117.299 147.448 117.388 147.532 117.453 147.638C117.519 147.745 117.551 147.863 117.551 147.993C117.551 148.086 117.534 148.177 117.5 148.266C117.467 148.354 117.41 148.452 117.327 148.561C117.246 148.669 117.133 148.801 116.988 148.956L116.42 149.564V149.584H117.595V149.855H116Z" fill="#6B7280"/>
<path d="M116.757 162.265C116.571 162.265 116.412 162.214 116.281 162.113C116.15 162.011 116.05 161.863 115.981 161.67C115.912 161.475 115.877 161.241 115.877 160.966C115.877 160.692 115.912 160.459 115.981 160.265C116.051 160.071 116.152 159.923 116.283 159.821C116.414 159.718 116.572 159.666 116.757 159.666C116.941 159.666 117.099 159.718 117.23 159.821C117.362 159.923 117.462 160.071 117.531 160.265C117.601 160.459 117.636 160.692 117.636 160.966C117.636 161.241 117.602 161.475 117.533 161.67C117.463 161.863 117.363 162.011 117.232 162.113C117.101 162.214 116.943 162.265 116.757 162.265ZM116.757 161.993C116.941 161.993 117.085 161.904 117.187 161.727C117.289 161.549 117.34 161.295 117.34 160.966C117.34 160.747 117.316 160.56 117.269 160.406C117.223 160.252 117.157 160.135 117.069 160.054C116.983 159.974 116.879 159.933 116.757 159.933C116.574 159.933 116.431 160.023 116.328 160.204C116.225 160.383 116.174 160.637 116.174 160.966C116.174 161.185 116.197 161.371 116.243 161.524C116.289 161.677 116.355 161.794 116.442 161.874C116.529 161.953 116.634 161.993 116.757 161.993Z" fill="#6B7280"/>
<line x1="123.797" y1="87.316" x2="310.743" y2="87.316" stroke="#F3F4F6" stroke-width="0.289839"/>
<line x1="123.797" y1="99.4762" x2="310.743" y2="99.4762" stroke="#F3F4F6" stroke-width="0.289839"/>
<line x1="123.797" y1="111.656" x2="310.743" y2="111.656" stroke="#F3F4F6" stroke-width="0.289839"/>
<line x1="123.797" y1="123.847" x2="310.743" y2="123.847" stroke="#F3F4F6" stroke-width="0.289839"/>
<line x1="123.797" y1="136.007" x2="310.743" y2="136.007" stroke="#F3F4F6" stroke-width="0.289839"/>
<line x1="123.797" y1="148.175" x2="310.743" y2="148.175" stroke="#F3F4F6" stroke-width="0.289839"/>
<line x1="123.797" y1="160.359" x2="310.743" y2="160.359" stroke="#F3F4F6" stroke-width="0.289839"/>
<path d="M238.008 117.023V159.63" stroke="#E2E4E9" stroke-width="0.289839" stroke-dasharray="1.16 1.16"/>
<path d="M126.237 166.431C126.237 166.697 126.189 166.928 126.093 167.122C125.997 167.317 125.864 167.466 125.696 167.572C125.528 167.677 125.337 167.73 125.121 167.73C124.905 167.73 124.713 167.677 124.545 167.572C124.377 167.466 124.245 167.317 124.149 167.122C124.053 166.928 124.004 166.697 124.004 166.431C124.004 166.164 124.053 165.933 124.149 165.739C124.245 165.545 124.377 165.395 124.545 165.289C124.713 165.184 124.905 165.131 125.121 165.131C125.337 165.131 125.528 165.184 125.696 165.289C125.864 165.395 125.997 165.545 126.093 165.739C126.189 165.933 126.237 166.164 126.237 166.431ZM125.941 166.431C125.941 166.212 125.904 166.027 125.831 165.876C125.759 165.725 125.66 165.611 125.536 165.534C125.412 165.456 125.274 165.418 125.121 165.418C124.968 165.418 124.829 165.456 124.705 165.534C124.581 165.611 124.483 165.725 124.409 165.876C124.337 166.027 124.301 166.212 124.301 166.431C124.301 166.65 124.337 166.834 124.409 166.985C124.483 167.136 124.581 167.25 124.705 167.327C124.829 167.405 124.968 167.443 125.121 167.443C125.274 167.443 125.412 167.405 125.536 167.327C125.66 167.25 125.759 167.136 125.831 166.985C125.904 166.834 125.941 166.65 125.941 166.431ZM127.484 167.735C127.306 167.735 127.153 167.693 127.024 167.609C126.896 167.525 126.797 167.409 126.728 167.262C126.659 167.114 126.624 166.946 126.624 166.757C126.624 166.564 126.659 166.394 126.73 166.247C126.802 166.098 126.902 165.983 127.029 165.899C127.158 165.815 127.307 165.773 127.479 165.773C127.612 165.773 127.732 165.798 127.839 165.848C127.946 165.897 128.034 165.966 128.102 166.055C128.171 166.144 128.213 166.248 128.23 166.366H127.938C127.916 166.28 127.867 166.203 127.79 166.137C127.714 166.069 127.612 166.035 127.484 166.035C127.37 166.035 127.27 166.065 127.185 166.124C127.1 166.183 127.034 166.265 126.986 166.373C126.939 166.479 126.916 166.603 126.916 166.747C126.916 166.893 126.939 167.021 126.985 167.13C127.032 167.238 127.097 167.323 127.182 167.383C127.268 167.443 127.368 167.473 127.484 167.473C127.559 167.473 127.628 167.46 127.69 167.433C127.752 167.407 127.804 167.369 127.847 167.32C127.89 167.27 127.92 167.211 127.938 167.142H128.23C128.213 167.254 128.172 167.355 128.107 167.445C128.043 167.534 127.958 167.604 127.852 167.657C127.746 167.709 127.624 167.735 127.484 167.735ZM129.481 165.798V166.045H128.498V165.798H129.481ZM128.784 165.344H129.076V167.152C129.076 167.234 129.088 167.296 129.112 167.337C129.136 167.377 129.168 167.405 129.205 167.419C129.244 167.432 129.285 167.438 129.328 167.438C129.36 167.438 129.386 167.437 129.407 167.433C129.427 167.429 129.444 167.426 129.456 167.424L129.515 167.685C129.496 167.693 129.468 167.7 129.433 167.708C129.397 167.716 129.352 167.72 129.298 167.72C129.216 167.72 129.135 167.702 129.056 167.667C128.978 167.631 128.913 167.578 128.861 167.505C128.81 167.433 128.784 167.341 128.784 167.231V165.344ZM130.893 167.695V167.473L131.728 166.559C131.825 166.452 131.906 166.359 131.97 166.28C132.033 166.2 132.08 166.125 132.11 166.055C132.142 165.984 132.157 165.91 132.157 165.833C132.157 165.744 132.136 165.667 132.093 165.602C132.051 165.537 131.993 165.487 131.92 165.451C131.847 165.416 131.765 165.398 131.673 165.398C131.576 165.398 131.491 165.418 131.419 165.459C131.347 165.498 131.292 165.554 131.252 165.625C131.213 165.697 131.194 165.781 131.194 165.877H130.902C130.902 165.729 130.937 165.599 131.005 165.487C131.073 165.375 131.166 165.288 131.284 165.225C131.403 165.163 131.536 165.131 131.683 165.131C131.831 165.131 131.963 165.163 132.077 165.225C132.191 165.288 132.281 165.372 132.346 165.478C132.411 165.585 132.444 165.703 132.444 165.833C132.444 165.926 132.427 166.017 132.393 166.106C132.36 166.194 132.303 166.292 132.22 166.401C132.139 166.509 132.026 166.641 131.881 166.796L131.313 167.404V167.424H132.488V167.695H130.893ZM133.823 167.73C133.637 167.73 133.479 167.679 133.348 167.578C133.217 167.476 133.117 167.328 133.048 167.135C132.979 166.94 132.944 166.706 132.944 166.431C132.944 166.157 132.979 165.924 133.048 165.73C133.118 165.536 133.218 165.388 133.349 165.286C133.481 165.183 133.639 165.131 133.823 165.131C134.008 165.131 134.166 165.183 134.297 165.286C134.428 165.388 134.529 165.536 134.598 165.73C134.668 165.924 134.703 166.157 134.703 166.431C134.703 166.706 134.668 166.94 134.599 167.135C134.53 167.328 134.43 167.476 134.299 167.578C134.168 167.679 134.01 167.73 133.823 167.73ZM133.823 167.458C134.008 167.458 134.151 167.369 134.253 167.191C134.355 167.014 134.406 166.76 134.406 166.431C134.406 166.212 134.383 166.025 134.336 165.871C134.29 165.717 134.223 165.6 134.136 165.519C134.05 165.438 133.945 165.398 133.823 165.398C133.641 165.398 133.498 165.488 133.395 165.668C133.292 165.848 133.241 166.102 133.241 166.431C133.241 166.65 133.264 166.836 133.31 166.989C133.356 167.142 133.422 167.258 133.509 167.338C133.596 167.418 133.701 167.458 133.823 167.458ZM135.172 167.695V167.473L136.007 166.559C136.105 166.452 136.186 166.359 136.249 166.28C136.313 166.2 136.36 166.125 136.39 166.055C136.421 165.984 136.437 165.91 136.437 165.833C136.437 165.744 136.416 165.667 136.373 165.602C136.331 165.537 136.273 165.487 136.2 165.451C136.127 165.416 136.044 165.398 135.953 165.398C135.856 165.398 135.771 165.418 135.698 165.459C135.627 165.498 135.571 165.554 135.532 165.625C135.493 165.697 135.474 165.781 135.474 165.877H135.182C135.182 165.729 135.216 165.599 135.285 165.487C135.353 165.375 135.446 165.288 135.564 165.225C135.682 165.163 135.815 165.131 135.963 165.131C136.111 165.131 136.242 165.163 136.357 165.225C136.471 165.288 136.561 165.372 136.626 165.478C136.691 165.585 136.724 165.703 136.724 165.833C136.724 165.926 136.707 166.017 136.673 166.106C136.64 166.194 136.582 166.292 136.5 166.401C136.418 166.509 136.305 166.641 136.16 166.796L135.592 167.404V167.424H136.768V167.695H135.172ZM138.167 165.166V167.695H137.861V165.487H137.846L137.229 165.897V165.586L137.861 165.166H138.167Z" fill="#6B7280"/>
<path d="M160.242 165.166V167.695H159.945L158.567 165.709H158.542V167.695H158.236V165.166H158.532L159.916 167.157H159.94V165.166H160.242ZM161.586 167.735C161.415 167.735 161.264 167.694 161.135 167.613C161.007 167.531 160.906 167.417 160.834 167.27C160.762 167.124 160.726 166.953 160.726 166.757C160.726 166.559 160.762 166.387 160.834 166.239C160.906 166.092 161.007 165.977 161.135 165.896C161.264 165.814 161.415 165.773 161.586 165.773C161.757 165.773 161.907 165.814 162.035 165.896C162.165 165.977 162.265 166.092 162.337 166.239C162.409 166.387 162.446 166.559 162.446 166.757C162.446 166.953 162.409 167.124 162.337 167.27C162.265 167.417 162.165 167.531 162.035 167.613C161.907 167.694 161.757 167.735 161.586 167.735ZM161.586 167.473C161.716 167.473 161.823 167.44 161.907 167.373C161.991 167.306 162.053 167.219 162.094 167.11C162.134 167.001 162.154 166.883 162.154 166.757C162.154 166.63 162.134 166.512 162.094 166.402C162.053 166.293 161.991 166.204 161.907 166.137C161.823 166.069 161.716 166.035 161.586 166.035C161.456 166.035 161.349 166.069 161.265 166.137C161.181 166.204 161.119 166.293 161.078 166.402C161.038 166.512 161.018 166.63 161.018 166.757C161.018 166.883 161.038 167.001 161.078 167.11C161.119 167.219 161.181 167.306 161.265 167.373C161.349 167.44 161.456 167.473 161.586 167.473ZM164.374 165.798L163.672 167.695H163.376L162.674 165.798H162.991L163.514 167.31H163.534L164.058 165.798H164.374ZM165.732 167.695V167.473L166.567 166.559C166.665 166.452 166.745 166.359 166.809 166.28C166.872 166.2 166.919 166.125 166.95 166.055C166.981 165.984 166.997 165.91 166.997 165.833C166.997 165.744 166.975 165.667 166.932 165.602C166.89 165.537 166.833 165.487 166.759 165.451C166.686 165.416 166.604 165.398 166.512 165.398C166.415 165.398 166.33 165.418 166.258 165.459C166.186 165.498 166.131 165.554 166.091 165.625C166.053 165.697 166.033 165.781 166.033 165.877H165.742C165.742 165.729 165.776 165.599 165.844 165.487C165.913 165.375 166.006 165.288 166.123 165.225C166.242 165.163 166.375 165.131 166.522 165.131C166.671 165.131 166.802 165.163 166.916 165.225C167.031 165.288 167.121 165.372 167.186 165.478C167.251 165.585 167.283 165.703 167.283 165.833C167.283 165.926 167.266 166.017 167.233 166.106C167.2 166.194 167.142 166.292 167.06 166.401C166.978 166.509 166.865 166.641 166.72 166.796L166.152 167.404V167.424H167.328V167.695H165.732ZM168.663 167.73C168.477 167.73 168.318 167.679 168.187 167.578C168.056 167.476 167.956 167.328 167.887 167.135C167.818 166.94 167.783 166.706 167.783 166.431C167.783 166.157 167.818 165.924 167.887 165.73C167.957 165.536 168.058 165.388 168.189 165.286C168.32 165.183 168.478 165.131 168.663 165.131C168.847 165.131 169.005 165.183 169.136 165.286C169.268 165.388 169.368 165.536 169.437 165.73C169.507 165.924 169.542 166.157 169.542 166.431C169.542 166.706 169.508 166.94 169.438 167.135C169.369 167.328 169.269 167.476 169.138 167.578C169.007 167.679 168.849 167.73 168.663 167.73ZM168.663 167.458C168.847 167.458 168.99 167.369 169.093 167.191C169.195 167.014 169.246 166.76 169.246 166.431C169.246 166.212 169.222 166.025 169.175 165.871C169.129 165.717 169.063 165.6 168.975 165.519C168.889 165.438 168.785 165.398 168.663 165.398C168.48 165.398 168.337 165.488 168.234 165.668C168.131 165.848 168.08 166.102 168.08 166.431C168.08 166.65 168.103 166.836 168.149 166.989C168.195 167.142 168.261 167.258 168.348 167.338C168.435 167.418 168.54 167.458 168.663 167.458ZM170.012 167.695V167.473L170.846 166.559C170.944 166.452 171.025 166.359 171.089 166.28C171.152 166.2 171.199 166.125 171.229 166.055C171.261 165.984 171.276 165.91 171.276 165.833C171.276 165.744 171.255 165.667 171.212 165.602C171.17 165.537 171.112 165.487 171.039 165.451C170.966 165.416 170.884 165.398 170.792 165.398C170.695 165.398 170.61 165.418 170.538 165.459C170.466 165.498 170.41 165.554 170.371 165.625C170.332 165.697 170.313 165.781 170.313 165.877H170.021C170.021 165.729 170.056 165.599 170.124 165.487C170.192 165.375 170.285 165.288 170.403 165.225C170.522 165.163 170.655 165.131 170.802 165.131C170.95 165.131 171.082 165.163 171.196 165.225C171.31 165.288 171.4 165.372 171.465 165.478C171.53 165.585 171.563 165.703 171.563 165.833C171.563 165.926 171.546 166.017 171.512 166.106C171.479 166.194 171.422 166.292 171.339 166.401C171.258 166.509 171.145 166.641 171 166.796L170.431 167.404V167.424H171.607V167.695H170.012ZM173.007 165.166V167.695H172.7V165.487H172.686L172.068 165.897V165.586L172.7 165.166H173.007Z" fill="#6B7280"/>
<path d="M194.142 167.695H193.361V165.166H194.176C194.422 165.166 194.632 165.216 194.806 165.318C194.981 165.418 195.114 165.563 195.207 165.751C195.301 165.939 195.347 166.164 195.347 166.426C195.347 166.689 195.3 166.916 195.206 167.106C195.112 167.296 194.976 167.441 194.796 167.543C194.617 167.645 194.398 167.695 194.142 167.695ZM193.667 167.424H194.122C194.331 167.424 194.504 167.383 194.642 167.303C194.779 167.222 194.882 167.107 194.949 166.958C195.017 166.809 195.051 166.631 195.051 166.426C195.051 166.221 195.017 166.046 194.951 165.898C194.884 165.75 194.784 165.636 194.652 165.557C194.519 165.477 194.354 165.438 194.156 165.438H193.667V167.424ZM196.617 167.735C196.434 167.735 196.276 167.694 196.144 167.614C196.012 167.532 195.91 167.419 195.839 167.273C195.768 167.126 195.732 166.956 195.732 166.762C195.732 166.567 195.768 166.396 195.839 166.248C195.91 166.099 196.01 165.983 196.138 165.899C196.266 165.815 196.416 165.773 196.587 165.773C196.686 165.773 196.783 165.79 196.88 165.823C196.976 165.856 197.064 165.909 197.143 165.983C197.222 166.057 197.285 166.154 197.332 166.275C197.379 166.396 197.402 166.545 197.402 166.722V166.846H195.94V166.594H197.106C197.106 166.487 197.084 166.391 197.042 166.307C197 166.223 196.94 166.157 196.861 166.108C196.784 166.06 196.692 166.035 196.587 166.035C196.471 166.035 196.371 166.064 196.286 166.122C196.202 166.179 196.137 166.253 196.092 166.344C196.047 166.436 196.024 166.533 196.024 166.638V166.806C196.024 166.949 196.049 167.071 196.098 167.17C196.148 167.269 196.218 167.345 196.307 167.396C196.396 167.447 196.499 167.473 196.617 167.473C196.693 167.473 196.762 167.462 196.824 167.441C196.887 167.419 196.941 167.386 196.986 167.342C197.031 167.298 197.066 167.242 197.091 167.177L197.373 167.256C197.343 167.351 197.293 167.435 197.223 167.508C197.153 167.579 197.067 167.635 196.964 167.676C196.861 167.715 196.745 167.735 196.617 167.735ZM198.616 167.735C198.439 167.735 198.285 167.693 198.157 167.609C198.028 167.525 197.93 167.409 197.86 167.262C197.791 167.114 197.757 166.946 197.757 166.757C197.757 166.564 197.792 166.394 197.863 166.247C197.935 166.098 198.034 165.983 198.162 165.899C198.29 165.815 198.44 165.773 198.611 165.773C198.745 165.773 198.865 165.798 198.972 165.848C199.079 165.897 199.167 165.966 199.235 166.055C199.304 166.144 199.346 166.248 199.362 166.366H199.071C199.049 166.28 198.999 166.203 198.923 166.137C198.847 166.069 198.745 166.035 198.616 166.035C198.503 166.035 198.403 166.065 198.317 166.124C198.233 166.183 198.166 166.265 198.119 166.373C198.072 166.479 198.048 166.603 198.048 166.747C198.048 166.893 198.071 167.021 198.117 167.13C198.164 167.238 198.23 167.323 198.315 167.383C198.401 167.443 198.501 167.473 198.616 167.473C198.692 167.473 198.761 167.46 198.823 167.433C198.884 167.407 198.937 167.369 198.98 167.32C199.022 167.27 199.053 167.211 199.071 167.142H199.362C199.346 167.254 199.305 167.355 199.24 167.445C199.176 167.534 199.091 167.604 198.984 167.657C198.879 167.709 198.756 167.735 198.616 167.735ZM200.762 167.695V167.473L201.597 166.559C201.695 166.452 201.775 166.359 201.839 166.28C201.902 166.2 201.949 166.125 201.98 166.055C202.011 165.984 202.027 165.91 202.027 165.833C202.027 165.744 202.005 165.667 201.962 165.602C201.92 165.537 201.863 165.487 201.789 165.451C201.716 165.416 201.634 165.398 201.542 165.398C201.445 165.398 201.36 165.418 201.288 165.459C201.216 165.498 201.161 165.554 201.121 165.625C201.082 165.697 201.063 165.781 201.063 165.877H200.772C200.772 165.729 200.806 165.599 200.874 165.487C200.943 165.375 201.036 165.288 201.153 165.225C201.272 165.163 201.405 165.131 201.552 165.131C201.7 165.131 201.832 165.163 201.946 165.225C202.061 165.288 202.15 165.372 202.215 165.478C202.281 165.585 202.313 165.703 202.313 165.833C202.313 165.926 202.296 166.017 202.262 166.106C202.229 166.194 202.172 166.292 202.09 166.401C202.008 166.509 201.895 166.641 201.75 166.796L201.182 167.404V167.424H202.358V167.695H200.762ZM203.693 167.73C203.507 167.73 203.348 167.679 203.217 167.578C203.086 167.476 202.986 167.328 202.917 167.135C202.848 166.94 202.813 166.706 202.813 166.431C202.813 166.157 202.848 165.924 202.917 165.73C202.987 165.536 203.087 165.388 203.218 165.286C203.35 165.183 203.508 165.131 203.693 165.131C203.877 165.131 204.035 165.183 204.166 165.286C204.297 165.388 204.398 165.536 204.467 165.73C204.537 165.924 204.572 166.157 204.572 166.431C204.572 166.706 204.537 166.94 204.468 167.135C204.399 167.328 204.299 167.476 204.168 167.578C204.037 167.679 203.879 167.73 203.693 167.73ZM203.693 167.458C203.877 167.458 204.02 167.369 204.122 167.191C204.225 167.014 204.276 166.76 204.276 166.431C204.276 166.212 204.252 166.025 204.205 165.871C204.159 165.717 204.092 165.6 204.005 165.519C203.919 165.438 203.815 165.398 203.693 165.398C203.51 165.398 203.367 165.488 203.264 165.668C203.161 165.848 203.11 166.102 203.11 166.431C203.11 166.65 203.133 166.836 203.179 166.989C203.225 167.142 203.291 167.258 203.378 167.338C203.465 167.418 203.57 167.458 203.693 167.458ZM205.041 167.695V167.473L205.876 166.559C205.974 166.452 206.055 166.359 206.118 166.28C206.182 166.2 206.229 166.125 206.259 166.055C206.291 165.984 206.306 165.91 206.306 165.833C206.306 165.744 206.285 165.667 206.242 165.602C206.2 165.537 206.142 165.487 206.069 165.451C205.996 165.416 205.913 165.398 205.822 165.398C205.725 165.398 205.64 165.418 205.568 165.459C205.496 165.498 205.44 165.554 205.401 165.625C205.362 165.697 205.343 165.781 205.343 165.877H205.051C205.051 165.729 205.085 165.599 205.154 165.487C205.222 165.375 205.315 165.288 205.433 165.225C205.552 165.163 205.684 165.131 205.832 165.131C205.98 165.131 206.111 165.163 206.226 165.225C206.34 165.288 206.43 165.372 206.495 165.478C206.56 165.585 206.593 165.703 206.593 165.833C206.593 165.926 206.576 166.017 206.542 166.106C206.509 166.194 206.452 166.292 206.369 166.401C206.288 166.509 206.174 166.641 206.03 166.796L205.461 167.404V167.424H206.637V167.695H205.041ZM208.037 165.166V167.695H207.73V165.487H207.715L207.098 165.897V165.586L207.73 165.166H208.037Z" fill="#6B7280"/>
<path d="M229.462 165.166H229.768V166.974C229.768 167.135 229.739 167.272 229.68 167.385C229.62 167.498 229.537 167.584 229.429 167.642C229.321 167.701 229.194 167.73 229.047 167.73C228.909 167.73 228.786 167.705 228.678 167.655C228.57 167.604 228.485 167.531 228.423 167.437C228.362 167.343 228.331 167.232 228.331 167.102H228.632C228.632 167.174 228.65 167.237 228.685 167.29C228.721 167.343 228.771 167.384 228.833 167.414C228.896 167.443 228.967 167.458 229.047 167.458C229.135 167.458 229.21 167.44 229.272 167.403C229.334 167.366 229.381 167.311 229.413 167.24C229.446 167.167 229.462 167.079 229.462 166.974V165.166ZM230.901 167.74C230.781 167.74 230.672 167.717 230.574 167.672C230.476 167.626 230.398 167.559 230.34 167.473C230.283 167.386 230.254 167.28 230.254 167.157C230.254 167.048 230.275 166.96 230.318 166.892C230.361 166.824 230.418 166.771 230.49 166.732C230.561 166.693 230.64 166.664 230.727 166.645C230.814 166.626 230.902 166.61 230.99 166.599C231.105 166.584 231.199 166.573 231.27 166.565C231.343 166.557 231.395 166.543 231.428 166.524C231.462 166.505 231.479 166.473 231.479 166.426V166.416C231.479 166.294 231.446 166.199 231.379 166.132C231.313 166.064 231.213 166.03 231.079 166.03C230.94 166.03 230.831 166.061 230.752 166.122C230.673 166.183 230.617 166.248 230.585 166.317L230.308 166.218C230.358 166.103 230.423 166.013 230.506 165.949C230.589 165.884 230.68 165.839 230.778 165.813C230.876 165.787 230.973 165.773 231.069 165.773C231.13 165.773 231.2 165.781 231.279 165.796C231.359 165.81 231.436 165.839 231.51 165.883C231.585 165.928 231.647 165.995 231.696 166.085C231.746 166.174 231.771 166.295 231.771 166.445V167.695H231.479V167.438H231.464C231.444 167.48 231.412 167.524 231.365 167.571C231.319 167.618 231.258 167.657 231.181 167.69C231.105 167.723 231.011 167.74 230.901 167.74ZM230.945 167.478C231.061 167.478 231.158 167.455 231.237 167.41C231.317 167.365 231.377 167.306 231.417 167.235C231.458 167.163 231.479 167.088 231.479 167.009V166.742C231.467 166.757 231.44 166.77 231.398 166.783C231.356 166.794 231.309 166.804 231.254 166.813C231.201 166.822 231.148 166.829 231.097 166.836C231.047 166.841 231.006 166.846 230.975 166.85C230.899 166.86 230.829 166.876 230.763 166.899C230.698 166.92 230.645 166.953 230.605 166.996C230.565 167.039 230.545 167.098 230.545 167.172C230.545 167.273 230.583 167.349 230.658 167.401C230.733 167.452 230.829 167.478 230.945 167.478ZM232.594 166.554V167.695H232.303V165.798H232.584V166.095H232.609C232.653 165.998 232.721 165.921 232.811 165.862C232.902 165.803 233.019 165.773 233.162 165.773C233.291 165.773 233.403 165.8 233.499 165.853C233.596 165.904 233.671 165.983 233.724 166.09C233.778 166.195 233.804 166.328 233.804 166.49V167.695H233.513V166.51C233.513 166.361 233.474 166.244 233.397 166.161C233.319 166.077 233.213 166.035 233.078 166.035C232.985 166.035 232.902 166.055 232.829 166.096C232.756 166.136 232.699 166.195 232.657 166.272C232.615 166.35 232.594 166.444 232.594 166.554ZM235.31 167.695V167.473L236.145 166.559C236.243 166.452 236.324 166.359 236.387 166.28C236.451 166.2 236.498 166.125 236.528 166.055C236.559 165.984 236.575 165.91 236.575 165.833C236.575 165.744 236.554 165.667 236.511 165.602C236.469 165.537 236.411 165.487 236.338 165.451C236.265 165.416 236.182 165.398 236.091 165.398C235.994 165.398 235.909 165.418 235.837 165.459C235.765 165.498 235.709 165.554 235.67 165.625C235.631 165.697 235.612 165.781 235.612 165.877H235.32C235.32 165.729 235.354 165.599 235.423 165.487C235.491 165.375 235.584 165.288 235.702 165.225C235.82 165.163 235.953 165.131 236.101 165.131C236.249 165.131 236.38 165.163 236.495 165.225C236.609 165.288 236.699 165.372 236.764 165.478C236.829 165.585 236.862 165.703 236.862 165.833C236.862 165.926 236.845 166.017 236.811 166.106C236.778 166.194 236.72 166.292 236.638 166.401C236.557 166.509 236.443 166.641 236.298 166.796L235.73 167.404V167.424H236.906V167.695H235.31ZM238.241 167.73C238.055 167.73 237.897 167.679 237.766 167.578C237.635 167.476 237.535 167.328 237.466 167.135C237.396 166.94 237.362 166.706 237.362 166.431C237.362 166.157 237.396 165.924 237.466 165.73C237.536 165.536 237.636 165.388 237.767 165.286C237.899 165.183 238.057 165.131 238.241 165.131C238.426 165.131 238.583 165.183 238.714 165.286C238.846 165.388 238.947 165.536 239.016 165.73C239.086 165.924 239.121 166.157 239.121 166.431C239.121 166.706 239.086 166.94 239.017 167.135C238.948 167.328 238.848 167.476 238.717 167.578C238.586 167.679 238.427 167.73 238.241 167.73ZM238.241 167.458C238.426 167.458 238.569 167.369 238.671 167.191C238.773 167.014 238.824 166.76 238.824 166.431C238.824 166.212 238.801 166.025 238.754 165.871C238.708 165.717 238.641 165.6 238.554 165.519C238.467 165.438 238.363 165.398 238.241 165.398C238.058 165.398 237.916 165.488 237.813 165.668C237.71 165.848 237.658 166.102 237.658 166.431C237.658 166.65 237.681 166.836 237.727 166.989C237.774 167.142 237.84 167.258 237.926 167.338C238.014 167.418 238.119 167.458 238.241 167.458ZM239.59 167.695V167.473L240.425 166.559C240.523 166.452 240.604 166.359 240.667 166.28C240.73 166.2 240.777 166.125 240.808 166.055C240.839 165.984 240.855 165.91 240.855 165.833C240.855 165.744 240.833 165.667 240.791 165.602C240.749 165.537 240.691 165.487 240.618 165.451C240.544 165.416 240.462 165.398 240.371 165.398C240.273 165.398 240.189 165.418 240.116 165.459C240.045 165.498 239.989 165.554 239.949 165.625C239.911 165.697 239.891 165.781 239.891 165.877H239.6C239.6 165.729 239.634 165.599 239.702 165.487C239.771 165.375 239.864 165.288 239.982 165.225C240.1 165.163 240.233 165.131 240.38 165.131C240.529 165.131 240.66 165.163 240.774 165.225C240.889 165.288 240.979 165.372 241.044 165.478C241.109 165.585 241.141 165.703 241.141 165.833C241.141 165.926 241.124 166.017 241.091 166.106C241.058 166.194 241 166.292 240.918 166.401C240.836 166.509 240.723 166.641 240.578 166.796L240.01 167.404V167.424H241.186V167.695H239.59ZM241.696 167.695V167.473L242.531 166.559C242.629 166.452 242.709 166.359 242.773 166.28C242.836 166.2 242.883 166.125 242.914 166.055C242.945 165.984 242.961 165.91 242.961 165.833C242.961 165.744 242.939 165.667 242.896 165.602C242.854 165.537 242.797 165.487 242.723 165.451C242.65 165.416 242.568 165.398 242.476 165.398C242.379 165.398 242.295 165.418 242.222 165.459C242.15 165.498 242.095 165.554 242.055 165.625C242.017 165.697 241.997 165.781 241.997 165.877H241.706C241.706 165.729 241.74 165.599 241.808 165.487C241.877 165.375 241.97 165.288 242.087 165.225C242.206 165.163 242.339 165.131 242.486 165.131C242.635 165.131 242.766 165.163 242.88 165.225C242.995 165.288 243.085 165.372 243.15 165.478C243.215 165.585 243.247 165.703 243.247 165.833C243.247 165.926 243.23 166.017 243.197 166.106C243.164 166.194 243.106 166.292 243.024 166.401C242.942 166.509 242.829 166.641 242.684 166.796L242.116 167.404V167.424H243.292V167.695H241.696Z" fill="#6B7280"/>
<path d="M263.619 167.695V165.166H265.136V165.438H263.925V166.292H265.022V166.564H263.925V167.695H263.619ZM266.277 167.735C266.094 167.735 265.936 167.694 265.804 167.614C265.672 167.532 265.57 167.419 265.499 167.273C265.428 167.126 265.392 166.956 265.392 166.762C265.392 166.567 265.428 166.396 265.499 166.248C265.57 166.099 265.67 165.983 265.798 165.899C265.926 165.815 266.076 165.773 266.247 165.773C266.346 165.773 266.444 165.79 266.54 165.823C266.636 165.856 266.724 165.909 266.803 165.983C266.882 166.057 266.945 166.154 266.992 166.275C267.039 166.396 267.062 166.545 267.062 166.722V166.846H265.6V166.594H266.766C266.766 166.487 266.744 166.391 266.702 166.307C266.66 166.223 266.6 166.157 266.521 166.108C266.444 166.06 266.353 166.035 266.247 166.035C266.131 166.035 266.031 166.064 265.946 166.122C265.862 166.179 265.797 166.253 265.752 166.344C265.707 166.436 265.684 166.533 265.684 166.638V166.806C265.684 166.949 265.709 167.071 265.758 167.17C265.808 167.269 265.878 167.345 265.967 167.396C266.056 167.447 266.159 167.473 266.277 167.473C266.353 167.473 266.423 167.462 266.484 167.441C266.547 167.419 266.601 167.386 266.646 167.342C266.691 167.298 266.726 167.242 266.751 167.177L267.033 167.256C267.003 167.351 266.953 167.435 266.883 167.508C266.813 167.579 266.727 167.635 266.624 167.676C266.521 167.715 266.405 167.735 266.277 167.735ZM267.545 167.695V165.166H267.837V166.1H267.861C267.883 166.067 267.912 166.025 267.95 165.974C267.989 165.922 268.044 165.876 268.116 165.835C268.188 165.794 268.286 165.773 268.41 165.773C268.57 165.773 268.71 165.813 268.832 165.893C268.954 165.973 269.049 166.086 269.118 166.233C269.186 166.38 269.22 166.552 269.22 166.752C269.22 166.953 269.186 167.127 269.118 167.274C269.049 167.421 268.954 167.534 268.833 167.615C268.712 167.695 268.573 167.735 268.415 167.735C268.293 167.735 268.195 167.715 268.122 167.674C268.049 167.633 267.992 167.587 267.953 167.535C267.913 167.482 267.883 167.438 267.861 167.404H267.827V167.695H267.545ZM267.832 166.747C267.832 166.89 267.853 167.016 267.895 167.126C267.937 167.235 267.998 167.32 268.079 167.382C268.159 167.443 268.258 167.473 268.375 167.473C268.497 167.473 268.599 167.441 268.68 167.377C268.763 167.312 268.824 167.224 268.866 167.115C268.908 167.004 268.929 166.882 268.929 166.747C268.929 166.613 268.908 166.493 268.867 166.386C268.826 166.278 268.765 166.193 268.683 166.13C268.601 166.067 268.499 166.035 268.375 166.035C268.257 166.035 268.157 166.065 268.076 166.125C267.996 166.185 267.935 166.268 267.894 166.375C267.852 166.481 267.832 166.605 267.832 166.747ZM270.639 167.695V167.473L271.474 166.559C271.572 166.452 271.653 166.359 271.716 166.28C271.78 166.2 271.827 166.125 271.857 166.055C271.888 165.984 271.904 165.91 271.904 165.833C271.904 165.744 271.883 165.667 271.84 165.602C271.798 165.537 271.74 165.487 271.667 165.451C271.593 165.416 271.511 165.398 271.42 165.398C271.323 165.398 271.238 165.418 271.165 165.459C271.094 165.498 271.038 165.554 270.999 165.625C270.96 165.697 270.941 165.781 270.941 165.877H270.649C270.649 165.729 270.683 165.599 270.752 165.487C270.82 165.375 270.913 165.288 271.031 165.225C271.149 165.163 271.282 165.131 271.43 165.131C271.578 165.131 271.709 165.163 271.824 165.225C271.938 165.288 272.028 165.372 272.093 165.478C272.158 165.585 272.19 165.703 272.19 165.833C272.19 165.926 272.174 166.017 272.14 166.106C272.107 166.194 272.049 166.292 271.967 166.401C271.885 166.509 271.772 166.641 271.627 166.796L271.059 167.404V167.424H272.235V167.695H270.639ZM273.57 167.73C273.384 167.73 273.225 167.679 273.095 167.578C272.964 167.476 272.864 167.328 272.794 167.135C272.725 166.94 272.691 166.706 272.691 166.431C272.691 166.157 272.725 165.924 272.794 165.73C272.864 165.536 272.965 165.388 273.096 165.286C273.228 165.183 273.386 165.131 273.57 165.131C273.755 165.131 273.912 165.183 274.043 165.286C274.175 165.388 274.275 165.536 274.344 165.73C274.414 165.924 274.449 166.157 274.449 166.431C274.449 166.706 274.415 166.94 274.346 167.135C274.277 167.328 274.177 167.476 274.046 167.578C273.915 167.679 273.756 167.73 273.57 167.73ZM273.57 167.458C273.755 167.458 273.898 167.369 274 167.191C274.102 167.014 274.153 166.76 274.153 166.431C274.153 166.212 274.13 166.025 274.083 165.871C274.037 165.717 273.97 165.6 273.883 165.519C273.796 165.438 273.692 165.398 273.57 165.398C273.387 165.398 273.244 165.488 273.141 165.668C273.039 165.848 272.987 166.102 272.987 166.431C272.987 166.65 273.01 166.836 273.056 166.989C273.102 167.142 273.169 167.258 273.255 167.338C273.342 167.418 273.447 167.458 273.57 167.458ZM274.919 167.695V167.473L275.754 166.559C275.852 166.452 275.932 166.359 275.996 166.28C276.059 166.2 276.106 166.125 276.137 166.055C276.168 165.984 276.184 165.91 276.184 165.833C276.184 165.744 276.162 165.667 276.119 165.602C276.077 165.537 276.02 165.487 275.946 165.451C275.873 165.416 275.791 165.398 275.699 165.398C275.602 165.398 275.517 165.418 275.445 165.459C275.373 165.498 275.318 165.554 275.278 165.625C275.24 165.697 275.22 165.781 275.22 165.877H274.929C274.929 165.729 274.963 165.599 275.031 165.487C275.1 165.375 275.193 165.288 275.31 165.225C275.429 165.163 275.562 165.131 275.709 165.131C275.858 165.131 275.989 165.163 276.103 165.225C276.218 165.288 276.307 165.372 276.373 165.478C276.438 165.585 276.47 165.703 276.47 165.833C276.47 165.926 276.453 166.017 276.419 166.106C276.387 166.194 276.329 166.292 276.247 166.401C276.165 166.509 276.052 166.641 275.907 166.796L275.339 167.404V167.424H276.515V167.695H274.919ZM277.025 167.695V167.473L277.86 166.559C277.958 166.452 278.038 166.359 278.102 166.28C278.165 166.2 278.212 166.125 278.242 166.055C278.274 165.984 278.289 165.91 278.289 165.833C278.289 165.744 278.268 165.667 278.225 165.602C278.183 165.537 278.126 165.487 278.052 165.451C277.979 165.416 277.897 165.398 277.805 165.398C277.708 165.398 277.623 165.418 277.551 165.459C277.479 165.498 277.424 165.554 277.384 165.625C277.345 165.697 277.326 165.781 277.326 165.877H277.035C277.035 165.729 277.069 165.599 277.137 165.487C277.205 165.375 277.298 165.288 277.416 165.225C277.535 165.163 277.668 165.131 277.815 165.131C277.963 165.131 278.095 165.163 278.209 165.225C278.324 165.288 278.413 165.372 278.478 165.478C278.543 165.585 278.576 165.703 278.576 165.833C278.576 165.926 278.559 166.017 278.525 166.106C278.492 166.194 278.435 166.292 278.352 166.401C278.271 166.509 278.158 166.641 278.013 166.796L277.445 167.404V167.424H278.62V167.695H277.025Z" fill="#6B7280"/>
<path d="M298.752 165.166H299.117L299.977 167.265H300.006L300.866 165.166H301.232V167.695H300.945V165.773H300.92L300.13 167.695H299.853L299.063 165.773H299.038V167.695H298.752V165.166ZM302.365 167.74C302.244 167.74 302.135 167.717 302.037 167.672C301.939 167.626 301.862 167.559 301.804 167.473C301.746 167.386 301.717 167.28 301.717 167.157C301.717 167.048 301.739 166.96 301.782 166.892C301.824 166.824 301.882 166.771 301.953 166.732C302.025 166.693 302.104 166.664 302.19 166.645C302.278 166.626 302.365 166.61 302.454 166.599C302.569 166.584 302.662 166.573 302.734 166.565C302.806 166.557 302.859 166.543 302.892 166.524C302.926 166.505 302.943 166.473 302.943 166.426V166.416C302.943 166.294 302.909 166.199 302.843 166.132C302.777 166.064 302.677 166.03 302.542 166.03C302.403 166.03 302.294 166.061 302.215 166.122C302.136 166.183 302.081 166.248 302.048 166.317L301.772 166.218C301.821 166.103 301.887 166.013 301.969 165.949C302.053 165.884 302.143 165.839 302.241 165.813C302.34 165.787 302.437 165.773 302.533 165.773C302.594 165.773 302.664 165.781 302.743 165.796C302.822 165.81 302.899 165.839 302.974 165.883C303.048 165.928 303.111 165.995 303.16 166.085C303.209 166.174 303.234 166.295 303.234 166.445V167.695H302.943V167.438H302.928C302.908 167.48 302.875 167.524 302.829 167.571C302.783 167.618 302.722 167.657 302.645 167.69C302.568 167.723 302.475 167.74 302.365 167.74ZM302.409 167.478C302.524 167.478 302.622 167.455 302.701 167.41C302.78 167.365 302.841 167.306 302.881 167.235C302.922 167.163 302.943 167.088 302.943 167.009V166.742C302.93 166.757 302.903 166.77 302.861 166.783C302.82 166.794 302.772 166.804 302.718 166.813C302.664 166.822 302.612 166.829 302.561 166.836C302.511 166.841 302.47 166.846 302.439 166.85C302.363 166.86 302.292 166.876 302.226 166.899C302.161 166.92 302.109 166.953 302.068 166.996C302.029 167.039 302.009 167.098 302.009 167.172C302.009 167.273 302.046 167.349 302.121 167.401C302.197 167.452 302.293 167.478 302.409 167.478ZM303.766 167.695V165.798H304.048V166.085H304.068C304.102 165.991 304.165 165.915 304.255 165.856C304.346 165.798 304.448 165.769 304.562 165.769C304.583 165.769 304.61 165.769 304.642 165.77C304.674 165.771 304.698 165.772 304.715 165.773V166.07C304.705 166.067 304.682 166.064 304.647 166.059C304.612 166.053 304.576 166.05 304.537 166.05C304.445 166.05 304.362 166.069 304.29 166.108C304.218 166.146 304.161 166.199 304.119 166.266C304.078 166.333 304.058 166.409 304.058 166.495V167.695H303.766ZM306.034 167.695V167.473L306.868 166.559C306.966 166.452 307.047 166.359 307.111 166.28C307.174 166.2 307.221 166.125 307.251 166.055C307.283 165.984 307.298 165.91 307.298 165.833C307.298 165.744 307.277 165.667 307.234 165.602C307.192 165.537 307.134 165.487 307.061 165.451C306.988 165.416 306.905 165.398 306.814 165.398C306.717 165.398 306.632 165.418 306.56 165.459C306.488 165.498 306.432 165.554 306.393 165.625C306.354 165.697 306.335 165.781 306.335 165.877H306.043C306.043 165.729 306.078 165.599 306.146 165.487C306.214 165.375 306.307 165.288 306.425 165.225C306.544 165.163 306.677 165.131 306.824 165.131C306.972 165.131 307.104 165.163 307.218 165.225C307.332 165.288 307.422 165.372 307.487 165.478C307.552 165.585 307.585 165.703 307.585 165.833C307.585 165.926 307.568 166.017 307.534 166.106C307.501 166.194 307.444 166.292 307.361 166.401C307.28 166.509 307.167 166.641 307.022 166.796L306.453 167.404V167.424H307.629V167.695H306.034ZM308.964 167.73C308.778 167.73 308.62 167.679 308.489 167.578C308.358 167.476 308.258 167.328 308.189 167.135C308.12 166.94 308.085 166.706 308.085 166.431C308.085 166.157 308.12 165.924 308.189 165.73C308.259 165.536 308.359 165.388 308.49 165.286C308.622 165.183 308.78 165.131 308.964 165.131C309.149 165.131 309.307 165.183 309.437 165.286C309.569 165.388 309.67 165.536 309.739 165.73C309.809 165.924 309.844 166.157 309.844 166.431C309.844 166.706 309.809 166.94 309.74 167.135C309.671 167.328 309.571 167.476 309.44 167.578C309.309 167.679 309.151 167.73 308.964 167.73ZM308.964 167.458C309.149 167.458 309.292 167.369 309.394 167.191C309.496 167.014 309.547 166.76 309.547 166.431C309.547 166.212 309.524 166.025 309.477 165.871C309.431 165.717 309.364 165.6 309.277 165.519C309.19 165.438 309.086 165.398 308.964 165.398C308.782 165.398 308.639 165.488 308.536 165.668C308.433 165.848 308.381 166.102 308.381 166.431C308.381 166.65 308.405 166.836 308.451 166.989C308.497 167.142 308.563 167.258 308.649 167.338C308.737 167.418 308.842 167.458 308.964 167.458ZM310.313 167.695V167.473L311.148 166.559C311.246 166.452 311.327 166.359 311.39 166.28C311.454 166.2 311.501 166.125 311.531 166.055C311.562 165.984 311.578 165.91 311.578 165.833C311.578 165.744 311.557 165.667 311.514 165.602C311.472 165.537 311.414 165.487 311.341 165.451C311.267 165.416 311.185 165.398 311.094 165.398C310.997 165.398 310.912 165.418 310.839 165.459C310.768 165.498 310.712 165.554 310.673 165.625C310.634 165.697 310.615 165.781 310.615 165.877H310.323C310.323 165.729 310.357 165.599 310.426 165.487C310.494 165.375 310.587 165.288 310.705 165.225C310.823 165.163 310.956 165.131 311.104 165.131C311.252 165.131 311.383 165.163 311.498 165.225C311.612 165.288 311.702 165.372 311.767 165.478C311.832 165.585 311.864 165.703 311.864 165.833C311.864 165.926 311.848 166.017 311.814 166.106C311.781 166.194 311.723 166.292 311.641 166.401C311.559 166.509 311.446 166.641 311.301 166.796L310.733 167.404V167.424H311.909V167.695H310.313ZM312.419 167.695V167.473L313.254 166.559C313.352 166.452 313.433 166.359 313.496 166.28C313.559 166.2 313.606 166.125 313.637 166.055C313.668 165.984 313.684 165.91 313.684 165.833C313.684 165.744 313.662 165.667 313.62 165.602C313.578 165.537 313.52 165.487 313.447 165.451C313.373 165.416 313.291 165.398 313.2 165.398C313.102 165.398 313.018 165.418 312.945 165.459C312.874 165.498 312.818 165.554 312.778 165.625C312.74 165.697 312.72 165.781 312.72 165.877H312.429C312.429 165.729 312.463 165.599 312.531 165.487C312.6 165.375 312.693 165.288 312.811 165.225C312.929 165.163 313.062 165.131 313.209 165.131C313.358 165.131 313.489 165.163 313.603 165.225C313.718 165.288 313.808 165.372 313.873 165.478C313.938 165.585 313.97 165.703 313.97 165.833C313.97 165.926 313.953 166.017 313.92 166.106C313.887 166.194 313.829 166.292 313.747 166.401C313.665 166.509 313.552 166.641 313.407 166.796L312.839 167.404V167.424H314.015V167.695H312.419Z" fill="#6B7280"/>
<path d="M127.82 125.805C130.779 125.08 137.707 123.051 141.746 120.732C146.793 117.833 148.012 114.21 164.722 117.833C181.432 121.457 178.821 119.718 184.392 120.732C188.848 121.544 197.62 126.674 201.45 129.138C204.409 131.409 211.65 134.066 216.942 126.529C223.556 117.109 233.652 112.036 239.222 114.935C244.792 117.833 255.758 125.225 259.414 125.515C263.069 125.805 264.462 125.515 278.561 118.848C289.84 113.514 307.398 119.428 314.766 123.051" stroke="#E0E0E0" stroke-width="0.579678" stroke-linecap="round"/>
<path d="M127.82 137.402C130.779 136.678 136.68 141.95 140.718 139.631C145.766 136.732 149.224 122.24 165.934 125.864C182.644 129.487 181.232 126.008 186.803 127.023C191.259 127.835 197.62 138.272 201.45 140.736C204.409 143.006 210.495 142.095 215.786 134.559C222.401 125.138 237.379 127.023 243.321 127.023C249.6 127.023 258.07 119.922 261.726 120.212C265.381 120.502 277.19 135.284 291.289 128.617C302.569 123.284 307.398 131.025 314.766 134.649" stroke="#ECECEC" stroke-width="0.579678" stroke-linecap="round"/>
<g filter="url(#filter1_d_2707_594)">
<rect x="235.93" y="112.109" width="4.05739" height="4.05739" rx="2.02869" fill="#BFBFBF"/>
<rect x="236.22" y="112.399" width="3.47771" height="3.47771" rx="1.73886" stroke="white" stroke-width="0.579678"/>
</g>
<path d="M158.278 154.908L158.843 156.616H158.865L159.429 154.908H159.861L159.096 157.078H158.611L157.847 154.908H158.278ZM160.13 157.078V155.45H160.514V157.078H160.13ZM160.323 155.219C160.262 155.219 160.21 155.199 160.166 155.159C160.122 155.118 160.1 155.069 160.1 155.012C160.1 154.954 160.122 154.905 160.166 154.864C160.21 154.823 160.262 154.803 160.323 154.803C160.384 154.803 160.437 154.823 160.48 154.864C160.523 154.905 160.545 154.954 160.545 155.012C160.545 155.069 160.523 155.118 160.48 155.159C160.437 155.199 160.384 155.219 160.323 155.219ZM161.629 157.11C161.465 157.11 161.324 157.076 161.206 157.008C161.088 156.94 160.997 156.843 160.933 156.718C160.87 156.592 160.838 156.444 160.838 156.274C160.838 156.106 160.87 155.959 160.933 155.833C160.998 155.706 161.087 155.607 161.203 155.536C161.318 155.465 161.453 155.429 161.608 155.429C161.709 155.429 161.803 155.445 161.892 155.478C161.982 155.51 162.061 155.559 162.13 155.626C162.199 155.693 162.253 155.779 162.293 155.883C162.333 155.986 162.352 156.109 162.352 156.252V156.369H161.018V156.111H161.985C161.984 156.037 161.968 155.972 161.937 155.915C161.906 155.857 161.862 155.811 161.807 155.778C161.752 155.745 161.687 155.728 161.614 155.728C161.535 155.728 161.466 155.747 161.407 155.785C161.348 155.823 161.302 155.872 161.268 155.934C161.236 155.994 161.219 156.061 161.219 156.134V156.36C161.219 156.454 161.236 156.536 161.27 156.603C161.305 156.67 161.353 156.722 161.416 156.758C161.478 156.793 161.551 156.811 161.634 156.811C161.69 156.811 161.74 156.803 161.785 156.788C161.831 156.772 161.87 156.748 161.903 156.717C161.936 156.686 161.961 156.647 161.978 156.601L162.337 156.642C162.314 156.736 162.271 156.819 162.207 156.889C162.144 156.959 162.064 157.014 161.966 157.053C161.867 157.091 161.755 157.11 161.629 157.11ZM163.004 157.078L162.544 155.45H162.935L163.221 156.595H163.236L163.529 155.45H163.915L164.208 156.589H164.224L164.506 155.45H164.898L164.437 157.078H164.037L163.732 155.978H163.71L163.405 157.078H163.004ZM166.202 157.078H165.782L166.546 154.908H167.031L167.796 157.078H167.377L166.797 155.353H166.78L166.202 157.078ZM166.215 156.227H167.36V156.543H166.215V156.227ZM168.449 154.908V157.078H168.065V154.908H168.449ZM169.227 154.908V157.078H168.843V154.908H169.227Z" fill="#A1A1A1"/>
<g clip-path="url(#clip3_2707_594)">
<path d="M290.76 40.7539C291.701 40.7539 292.465 39.9905 292.465 39.0488C292.465 38.1071 291.701 37.3438 290.76 37.3438C289.818 37.3438 289.055 38.1071 289.055 39.0488C289.055 39.9905 289.818 40.7539 290.76 40.7539Z" stroke="black" stroke-width="0.426302" stroke-linecap="round" stroke-linejoin="round"/>
<path d="M292.88 41.181L291.953 40.2539" stroke="black" stroke-width="0.426302" stroke-linecap="round" stroke-linejoin="round"/>
</g>
<path d="M107.107 42.3672L108.856 36.8197H110.216L111.965 42.3672H111.01L109.423 37.3899H109.631L108.063 42.3672H107.107ZM108.082 41.1652V40.2985H110.994V41.1652H108.082ZM115.1 42.3672C114.825 42.4186 114.556 42.4404 114.291 42.4327C114.029 42.4275 113.794 42.38 113.586 42.2901C113.378 42.1977 113.22 42.0526 113.112 41.8548C113.017 41.675 112.967 41.4914 112.962 41.3039C112.957 41.1164 112.954 40.9046 112.954 40.6683V37.0509H113.879V40.6144C113.879 40.7813 113.88 40.9277 113.883 41.0535C113.888 41.1794 113.915 41.2821 113.964 41.3617C114.056 41.5158 114.204 41.6018 114.407 41.6198C114.61 41.6378 114.841 41.6275 115.1 41.589V42.3672ZM112.199 38.9347V38.2066H115.1V38.9347H112.199ZM117.974 42.3672C117.699 42.4186 117.43 42.4404 117.165 42.4327C116.903 42.4275 116.668 42.38 116.46 42.2901C116.252 42.1977 116.094 42.0526 115.986 41.8548C115.891 41.675 115.841 41.4914 115.836 41.3039C115.831 41.1164 115.828 40.9046 115.828 40.6683V37.0509H116.753V40.6144C116.753 40.7813 116.754 40.9277 116.757 41.0535C116.762 41.1794 116.789 41.2821 116.838 41.3617C116.93 41.5158 117.078 41.6018 117.281 41.6198C117.483 41.6378 117.715 41.6275 117.974 41.589V42.3672ZM115.073 38.9347V38.2066H117.974V38.9347H115.073ZM120.768 42.4828C120.347 42.4828 119.977 42.3916 119.659 42.2092C119.34 42.0269 119.091 41.7739 118.911 41.4503C118.734 41.1267 118.645 40.7543 118.645 40.3331C118.645 39.8785 118.733 39.4843 118.907 39.1504C119.082 38.814 119.325 38.5533 119.635 38.3684C119.946 38.1835 120.306 38.091 120.714 38.091C121.146 38.091 121.512 38.1925 121.812 38.3954C122.115 38.5957 122.34 38.8795 122.486 39.2468C122.633 39.614 122.688 40.0468 122.652 40.545H121.731V40.206C121.729 39.754 121.649 39.424 121.492 39.2159C121.336 39.0079 121.089 38.9039 120.753 38.9039C120.373 38.9039 120.09 39.022 119.905 39.2583C119.72 39.492 119.628 39.8349 119.628 40.2869C119.628 40.7081 119.72 41.0343 119.905 41.2654C120.09 41.4965 120.36 41.6121 120.714 41.6121C120.943 41.6121 121.139 41.562 121.304 41.4619C121.471 41.3591 121.599 41.2115 121.689 41.0189L122.606 41.2962C122.446 41.6712 122.2 41.9627 121.866 42.1707C121.535 42.3787 121.169 42.4828 120.768 42.4828ZM119.335 40.545V39.8439H122.197V40.545H119.335ZM126.276 42.3672V40.3639C126.276 40.233 126.267 40.0879 126.249 39.9286C126.231 39.7694 126.189 39.6166 126.122 39.4702C126.058 39.3212 125.96 39.1992 125.829 39.1042C125.701 39.0092 125.526 38.9617 125.306 38.9617C125.187 38.9617 125.071 38.9809 124.955 39.0195C124.839 39.058 124.734 39.1248 124.639 39.2198C124.547 39.3122 124.472 39.4407 124.416 39.605C124.359 39.7668 124.331 39.9749 124.331 40.2291L123.78 39.9941C123.78 39.6397 123.848 39.3187 123.984 39.031C124.123 38.7434 124.326 38.5148 124.593 38.3453C124.86 38.1732 125.189 38.0872 125.579 38.0872C125.887 38.0872 126.142 38.1385 126.342 38.2413C126.542 38.344 126.701 38.475 126.82 38.6342C126.938 38.7935 127.025 38.963 127.081 39.1427C127.138 39.3225 127.174 39.4933 127.189 39.6551C127.207 39.8143 127.216 39.944 127.216 40.0442V42.3672H126.276ZM123.391 42.3672V38.2066H124.219V39.4972H124.331V42.3672H123.391ZM129.822 42.4828C129.439 42.4828 129.105 42.3864 128.82 42.1938C128.535 42.0012 128.314 41.7392 128.158 41.4079C128.001 41.0766 127.923 40.703 127.923 40.2869C127.923 39.8657 128.001 39.4907 128.158 39.162C128.317 38.8307 128.542 38.57 128.832 38.38C129.122 38.1873 129.464 38.091 129.857 38.091C130.252 38.091 130.583 38.1873 130.851 38.38C131.12 38.57 131.324 38.8307 131.463 39.162C131.602 39.4933 131.671 39.8683 131.671 40.2869C131.671 40.7004 131.602 41.0741 131.463 41.4079C131.324 41.7392 131.118 42.0012 130.843 42.1938C130.568 42.3864 130.228 42.4828 129.822 42.4828ZM129.965 41.6506C130.214 41.6506 130.414 41.5941 130.565 41.4811C130.72 41.3656 130.831 41.2051 130.901 40.9996C130.973 40.7941 131.009 40.5566 131.009 40.2869C131.009 40.0147 130.973 39.7771 130.901 39.5742C130.831 39.3687 130.722 39.2095 130.573 39.0965C130.424 38.9809 130.232 38.9232 129.995 38.9232C129.746 38.9232 129.541 38.9848 129.379 39.1081C129.217 39.2288 129.098 39.3931 129.021 39.6012C128.944 39.8066 128.905 40.0352 128.905 40.2869C128.905 40.5412 128.942 40.7723 129.017 40.9803C129.094 41.1858 129.211 41.3489 129.367 41.4696C129.524 41.5903 129.723 41.6506 129.965 41.6506ZM131.009 42.3672V39.4471H130.893V36.8197H131.829V42.3672H131.009ZM134.073 42.4828C133.772 42.4828 133.518 42.4263 133.31 42.3133C133.102 42.1977 132.944 42.0449 132.836 41.8548C132.731 41.6648 132.678 41.4555 132.678 41.2269C132.678 41.0266 132.711 40.8468 132.778 40.6875C132.845 40.5257 132.948 40.3871 133.086 40.2715C133.225 40.1533 133.405 40.057 133.626 39.9826C133.793 39.9286 133.988 39.8798 134.211 39.8362C134.437 39.7925 134.681 39.7527 134.943 39.7167C135.208 39.6782 135.484 39.6371 135.772 39.5935L135.44 39.7822C135.443 39.4946 135.379 39.2827 135.248 39.1466C135.117 39.0105 134.896 38.9424 134.585 38.9424C134.397 38.9424 134.216 38.9861 134.042 39.0734C133.867 39.1607 133.745 39.311 133.676 39.5241L132.828 39.2583C132.931 38.9065 133.126 38.624 133.414 38.4108C133.704 38.1976 134.094 38.091 134.585 38.091C134.955 38.091 135.28 38.1514 135.56 38.2721C135.842 38.3928 136.051 38.5906 136.188 38.8654C136.262 39.0118 136.307 39.162 136.322 39.3161C136.338 39.4676 136.346 39.6333 136.346 39.8131V42.3672H135.533V41.4657L135.668 41.6121C135.48 41.9126 135.26 42.1335 135.009 42.2747C134.76 42.4134 134.448 42.4828 134.073 42.4828ZM134.258 41.7431C134.468 41.7431 134.648 41.7059 134.797 41.6314C134.946 41.5569 135.064 41.4657 135.151 41.3579C135.241 41.25 135.302 41.1485 135.332 41.0535C135.381 40.9354 135.408 40.8005 135.413 40.649C135.421 40.4949 135.425 40.3704 135.425 40.2753L135.71 40.3601C135.43 40.4038 135.19 40.4423 134.989 40.4757C134.789 40.5091 134.617 40.5412 134.473 40.572C134.329 40.6002 134.202 40.6323 134.092 40.6683C133.984 40.7068 133.893 40.7518 133.818 40.8031C133.744 40.8545 133.686 40.9136 133.645 40.9803C133.606 41.0471 133.587 41.1254 133.587 41.2153C133.587 41.3181 133.613 41.4092 133.664 41.4888C133.716 41.5659 133.79 41.6275 133.888 41.6738C133.988 41.72 134.111 41.7431 134.258 41.7431ZM140.226 42.3672V40.3639C140.226 40.233 140.217 40.0879 140.199 39.9286C140.181 39.7694 140.139 39.6166 140.072 39.4702C140.008 39.3212 139.91 39.1992 139.779 39.1042C139.651 39.0092 139.476 38.9617 139.255 38.9617C139.137 38.9617 139.02 38.9809 138.905 39.0195C138.789 39.058 138.684 39.1248 138.589 39.2198C138.496 39.3122 138.422 39.4407 138.365 39.605C138.309 39.7668 138.281 39.9749 138.281 40.2291L137.73 39.9941C137.73 39.6397 137.798 39.3187 137.934 39.031C138.073 38.7434 138.276 38.5148 138.543 38.3453C138.81 38.1732 139.139 38.0872 139.529 38.0872C139.837 38.0872 140.091 38.1385 140.292 38.2413C140.492 38.344 140.651 38.475 140.769 38.6342C140.888 38.7935 140.975 38.963 141.031 39.1427C141.088 39.3225 141.124 39.4933 141.139 39.6551C141.157 39.8143 141.166 39.944 141.166 40.0442V42.3672H140.226ZM137.341 42.3672V38.2066H138.169V39.4972H138.281V42.3672H137.341ZM143.911 42.4828C143.482 42.4828 143.116 42.3877 142.813 42.1977C142.51 42.0051 142.277 41.7431 142.115 41.4118C141.956 41.0805 141.875 40.7055 141.873 40.2869C141.875 39.8606 141.959 39.483 142.123 39.1543C142.29 38.823 142.526 38.5636 142.832 38.3761C143.137 38.1861 143.501 38.091 143.922 38.091C144.395 38.091 144.794 38.2105 145.12 38.4493C145.449 38.6856 145.663 39.0092 145.764 39.4201L144.839 39.6705C144.767 39.4471 144.648 39.2737 144.481 39.1504C144.314 39.0246 144.124 38.9617 143.911 38.9617C143.669 38.9617 143.47 39.0195 143.313 39.135C143.157 39.248 143.041 39.4047 142.967 39.605C142.892 39.8053 142.855 40.0326 142.855 40.2869C142.855 40.6824 142.944 41.0022 143.121 41.2461C143.298 41.4901 143.561 41.6121 143.911 41.6121C144.157 41.6121 144.351 41.5556 144.492 41.4426C144.636 41.3296 144.744 41.1665 144.816 40.9534L145.764 41.1652C145.635 41.589 145.41 41.9152 145.089 42.1437C144.768 42.3698 144.375 42.4828 143.911 42.4828ZM148.314 42.4828C147.893 42.4828 147.523 42.3916 147.205 42.2092C146.886 42.0269 146.637 41.7739 146.457 41.4503C146.28 41.1267 146.192 40.7543 146.192 40.3331C146.192 39.8785 146.279 39.4843 146.453 39.1504C146.628 38.814 146.871 38.5533 147.182 38.3684C147.492 38.1835 147.852 38.091 148.26 38.091C148.692 38.091 149.058 38.1925 149.358 38.3954C149.661 38.5957 149.886 38.8795 150.032 39.2468C150.179 39.614 150.234 40.0468 150.198 40.545H149.277V40.206C149.275 39.754 149.195 39.424 149.038 39.2159C148.882 39.0079 148.635 38.9039 148.299 38.9039C147.919 38.9039 147.636 39.022 147.451 39.2583C147.266 39.492 147.174 39.8349 147.174 40.2869C147.174 40.7081 147.266 41.0343 147.451 41.2654C147.636 41.4965 147.906 41.6121 148.26 41.6121C148.489 41.6121 148.685 41.562 148.85 41.4619C149.017 41.3591 149.145 41.2115 149.235 41.0189L150.152 41.2962C149.993 41.6712 149.746 41.9627 149.412 42.1707C149.081 42.3787 148.715 42.4828 148.314 42.4828ZM146.881 40.545V39.8439H149.743V40.545H146.881ZM152.6 42.3672V36.8197H153.436L155.354 40.7492L157.273 36.8197H158.109V42.3672H157.242V38.8114L155.539 42.3672H155.17L153.471 38.8114V42.3672H152.6ZM160.355 42.4828C160.054 42.4828 159.8 42.4263 159.592 42.3133C159.384 42.1977 159.226 42.0449 159.118 41.8548C159.013 41.6648 158.96 41.4555 158.96 41.2269C158.96 41.0266 158.993 40.8468 159.06 40.6875C159.127 40.5257 159.23 40.3871 159.368 40.2715C159.507 40.1533 159.687 40.057 159.908 39.9826C160.075 39.9286 160.27 39.8798 160.493 39.8362C160.719 39.7925 160.963 39.7527 161.225 39.7167C161.49 39.6782 161.766 39.6371 162.054 39.5935L161.722 39.7822C161.725 39.4946 161.661 39.2827 161.53 39.1466C161.399 39.0105 161.178 38.9424 160.867 38.9424C160.68 38.9424 160.498 38.9861 160.324 39.0734C160.149 39.1607 160.027 39.311 159.958 39.5241L159.11 39.2583C159.213 38.9065 159.408 38.624 159.696 38.4108C159.986 38.1976 160.376 38.091 160.867 38.091C161.237 38.091 161.562 38.1514 161.842 38.2721C162.124 38.3928 162.333 38.5906 162.47 38.8654C162.544 39.0118 162.589 39.162 162.604 39.3161C162.62 39.4676 162.628 39.6333 162.628 39.8131V42.3672H161.815V41.4657L161.95 41.6121C161.762 41.9126 161.542 42.1335 161.291 42.2747C161.042 42.4134 160.73 42.4828 160.355 42.4828ZM160.54 41.7431C160.75 41.7431 160.93 41.7059 161.079 41.6314C161.228 41.5569 161.346 41.4657 161.433 41.3579C161.523 41.25 161.584 41.1485 161.614 41.0535C161.663 40.9354 161.69 40.8005 161.695 40.649C161.703 40.4949 161.707 40.3704 161.707 40.2753L161.992 40.3601C161.712 40.4038 161.472 40.4423 161.271 40.4757C161.071 40.5091 160.899 40.5412 160.755 40.572C160.611 40.6002 160.484 40.6323 160.374 40.6683C160.266 40.7068 160.175 40.7518 160.1 40.8031C160.026 40.8545 159.968 40.9136 159.927 40.9803C159.888 41.0471 159.869 41.1254 159.869 41.2153C159.869 41.3181 159.895 41.4092 159.946 41.4888C159.998 41.5659 160.072 41.6275 160.17 41.6738C160.27 41.72 160.393 41.7431 160.54 41.7431ZM166.508 42.3672V40.3639C166.508 40.233 166.499 40.0879 166.481 39.9286C166.463 39.7694 166.421 39.6166 166.354 39.4702C166.29 39.3212 166.192 39.1992 166.061 39.1042C165.933 39.0092 165.758 38.9617 165.537 38.9617C165.419 38.9617 165.302 38.9809 165.187 39.0195C165.071 39.058 164.966 39.1248 164.871 39.2198C164.778 39.3122 164.704 39.4407 164.648 39.605C164.591 39.7668 164.563 39.9749 164.563 40.2291L164.012 39.9941C164.012 39.6397 164.08 39.3187 164.216 39.031C164.355 38.7434 164.558 38.5148 164.825 38.3453C165.092 38.1732 165.421 38.0872 165.811 38.0872C166.119 38.0872 166.373 38.1385 166.574 38.2413C166.774 38.344 166.933 38.475 167.051 38.6342C167.17 38.7935 167.257 38.963 167.313 39.1427C167.37 39.3225 167.406 39.4933 167.421 39.6551C167.439 39.8143 167.448 39.944 167.448 40.0442V42.3672H166.508ZM163.623 42.3672V38.2066H164.451V39.4972H164.563V42.3672H163.623ZM169.617 42.4828C169.316 42.4828 169.062 42.4263 168.854 42.3133C168.646 42.1977 168.488 42.0449 168.38 41.8548C168.275 41.6648 168.222 41.4555 168.222 41.2269C168.222 41.0266 168.256 40.8468 168.323 40.6875C168.389 40.5257 168.492 40.3871 168.631 40.2715C168.769 40.1533 168.949 40.057 169.17 39.9826C169.337 39.9286 169.532 39.8798 169.756 39.8362C169.982 39.7925 170.226 39.7527 170.488 39.7167C170.752 39.6782 171.028 39.6371 171.316 39.5935L170.985 39.7822C170.987 39.4946 170.923 39.2827 170.792 39.1466C170.661 39.0105 170.44 38.9424 170.129 38.9424C169.942 38.9424 169.761 38.9861 169.586 39.0734C169.411 39.1607 169.289 39.311 169.22 39.5241L168.373 39.2583C168.475 38.9065 168.671 38.624 168.958 38.4108C169.248 38.1976 169.639 38.091 170.129 38.091C170.499 38.091 170.824 38.1514 171.104 38.2721C171.386 38.3928 171.596 38.5906 171.732 38.8654C171.806 39.0118 171.851 39.162 171.867 39.3161C171.882 39.4676 171.89 39.6333 171.89 39.8131V42.3672H171.077V41.4657L171.212 41.6121C171.024 41.9126 170.805 42.1335 170.553 42.2747C170.304 42.4134 169.992 42.4828 169.617 42.4828ZM169.802 41.7431C170.012 41.7431 170.192 41.7059 170.341 41.6314C170.49 41.5569 170.608 41.4657 170.696 41.3579C170.785 41.25 170.846 41.1485 170.877 41.0535C170.925 40.9354 170.952 40.8005 170.958 40.649C170.965 40.4949 170.969 40.3704 170.969 40.2753L171.254 40.3601C170.974 40.4038 170.734 40.4423 170.534 40.4757C170.333 40.5091 170.161 40.5412 170.018 40.572C169.874 40.6002 169.747 40.6323 169.636 40.6683C169.528 40.7068 169.437 40.7518 169.363 40.8031C169.288 40.8545 169.23 40.9136 169.189 40.9803C169.151 41.0471 169.132 41.1254 169.132 41.2153C169.132 41.3181 169.157 41.4092 169.209 41.4888C169.26 41.5659 169.334 41.6275 169.432 41.6738C169.532 41.72 169.655 41.7431 169.802 41.7431ZM174.642 44.3319C174.411 44.3319 174.188 44.2959 173.975 44.224C173.765 44.1521 173.575 44.0481 173.405 43.912C173.236 43.7784 173.097 43.6166 172.989 43.4266L173.844 43.0028C173.924 43.1544 174.036 43.2661 174.179 43.338C174.326 43.4125 174.481 43.4497 174.646 43.4497C174.838 43.4497 175.01 43.415 175.162 43.3457C175.313 43.2789 175.43 43.1788 175.512 43.0452C175.597 42.9142 175.637 42.7499 175.632 42.5521V41.3694H175.747V38.2066H176.56V42.5675C176.56 42.6728 176.555 42.773 176.545 42.868C176.537 42.9656 176.523 43.0606 176.502 43.1531C176.441 43.4227 176.323 43.6436 176.148 43.8157C175.973 43.9903 175.756 44.12 175.497 44.2048C175.24 44.2895 174.955 44.3319 174.642 44.3319ZM174.561 42.4828C174.178 42.4828 173.844 42.3864 173.559 42.1938C173.274 42.0012 173.053 41.7392 172.897 41.4079C172.74 41.0766 172.662 40.703 172.662 40.2869C172.662 39.8657 172.74 39.4907 172.897 39.162C173.056 38.8307 173.281 38.57 173.571 38.38C173.861 38.1873 174.203 38.091 174.596 38.091C174.991 38.091 175.322 38.1873 175.589 38.38C175.859 38.57 176.063 38.8307 176.202 39.162C176.341 39.4933 176.41 39.8683 176.41 40.2869C176.41 40.7004 176.341 41.0741 176.202 41.4079C176.063 41.7392 175.857 42.0012 175.582 42.1938C175.307 42.3864 174.967 42.4828 174.561 42.4828ZM174.703 41.6506C174.953 41.6506 175.153 41.5941 175.304 41.4811C175.458 41.3656 175.57 41.2051 175.64 40.9996C175.711 40.7941 175.747 40.5566 175.747 40.2869C175.747 40.0147 175.711 39.7771 175.64 39.5742C175.57 39.3687 175.461 39.2095 175.312 39.0965C175.163 38.9809 174.97 38.9232 174.734 38.9232C174.485 38.9232 174.28 38.9848 174.118 39.1081C173.956 39.2288 173.837 39.3931 173.76 39.6012C173.683 39.8066 173.644 40.0352 173.644 40.2869C173.644 40.5412 173.681 40.7723 173.756 40.9803C173.833 41.1858 173.95 41.3489 174.106 41.4696C174.263 41.5903 174.462 41.6506 174.703 41.6506ZM179.532 42.4828C179.111 42.4828 178.741 42.3916 178.423 42.2092C178.104 42.0269 177.855 41.7739 177.675 41.4503C177.498 41.1267 177.409 40.7543 177.409 40.3331C177.409 39.8785 177.497 39.4843 177.671 39.1504C177.846 38.814 178.089 38.5533 178.399 38.3684C178.71 38.1835 179.07 38.091 179.478 38.091C179.91 38.091 180.276 38.1925 180.576 38.3954C180.879 38.5957 181.104 38.8795 181.25 39.2468C181.397 39.614 181.452 40.0468 181.416 40.545H180.495V40.206C180.493 39.754 180.413 39.424 180.256 39.2159C180.1 39.0079 179.853 38.9039 179.517 38.9039C179.137 38.9039 178.854 39.022 178.669 39.2583C178.484 39.492 178.392 39.8349 178.392 40.2869C178.392 40.7081 178.484 41.0343 178.669 41.2654C178.854 41.4965 179.124 41.6121 179.478 41.6121C179.707 41.6121 179.903 41.562 180.068 41.4619C180.234 41.3591 180.363 41.2115 180.453 41.0189L181.37 41.2962C181.21 41.6712 180.964 41.9627 180.63 42.1707C180.299 42.3787 179.933 42.4828 179.532 42.4828ZM178.099 40.545V39.8439H180.961V40.545H178.099ZM187.159 42.3672V39.84C187.159 39.5549 187.088 39.3328 186.947 39.1736C186.806 39.0118 186.615 38.9309 186.373 38.9309C186.224 38.9309 186.091 38.9655 185.973 39.0349C185.854 39.1016 185.761 39.2018 185.691 39.3354C185.622 39.4663 185.587 39.623 185.587 39.8053L185.175 39.5626C185.173 39.275 185.237 39.022 185.368 38.8037C185.501 38.5829 185.681 38.4108 185.907 38.2875C186.133 38.1642 186.385 38.1026 186.662 38.1026C187.122 38.1026 187.474 38.2413 187.718 38.5187C187.964 38.7935 188.088 39.1556 188.088 39.605V42.3672H187.159ZM182.155 42.3672V38.2066H182.975V39.4972H183.091V42.3672H182.155ZM184.663 42.3672V39.8516C184.663 39.5614 184.592 39.3354 184.451 39.1736C184.31 39.0118 184.117 38.9309 183.873 38.9309C183.637 38.9309 183.447 39.0118 183.303 39.1736C183.162 39.3354 183.091 39.546 183.091 39.8053L182.675 39.528C182.675 39.2583 182.742 39.0156 182.875 38.7999C183.009 38.5841 183.189 38.4146 183.415 38.2914C183.643 38.1655 183.899 38.1026 184.181 38.1026C184.492 38.1026 184.751 38.1694 184.959 38.3029C185.17 38.4339 185.327 38.6137 185.429 38.8423C185.535 39.0683 185.587 39.3238 185.587 39.6089V42.3672H184.663ZM190.916 42.4828C190.495 42.4828 190.125 42.3916 189.807 42.2092C189.488 42.0269 189.239 41.7739 189.059 41.4503C188.882 41.1267 188.793 40.7543 188.793 40.3331C188.793 39.8785 188.881 39.4843 189.055 39.1504C189.23 38.814 189.473 38.5533 189.784 38.3684C190.094 38.1835 190.454 38.091 190.862 38.091C191.294 38.091 191.66 38.1925 191.96 38.3954C192.263 38.5957 192.488 38.8795 192.634 39.2468C192.781 39.614 192.836 40.0468 192.8 40.545H191.879V40.206C191.877 39.754 191.797 39.424 191.64 39.2159C191.484 39.0079 191.237 38.9039 190.901 38.9039C190.521 38.9039 190.238 39.022 190.053 39.2583C189.868 39.492 189.776 39.8349 189.776 40.2869C189.776 40.7081 189.868 41.0343 190.053 41.2654C190.238 41.4965 190.508 41.6121 190.862 41.6121C191.091 41.6121 191.287 41.562 191.452 41.4619C191.619 41.3591 191.747 41.2115 191.837 41.0189L192.754 41.2962C192.595 41.6712 192.348 41.9627 192.014 42.1707C191.683 42.3787 191.317 42.4828 190.916 42.4828ZM189.483 40.545V39.8439H192.345V40.545H189.483ZM196.424 42.3672V40.3639C196.424 40.233 196.415 40.0879 196.397 39.9286C196.379 39.7694 196.337 39.6166 196.27 39.4702C196.206 39.3212 196.109 39.1992 195.978 39.1042C195.849 39.0092 195.674 38.9617 195.454 38.9617C195.335 38.9617 195.219 38.9809 195.103 39.0195C194.987 39.058 194.882 39.1248 194.787 39.2198C194.695 39.3122 194.62 39.4407 194.564 39.605C194.507 39.7668 194.479 39.9749 194.479 40.2291L193.928 39.9941C193.928 39.6397 193.996 39.3187 194.132 39.031C194.271 38.7434 194.474 38.5148 194.741 38.3453C195.008 38.1732 195.337 38.0872 195.727 38.0872C196.035 38.0872 196.29 38.1385 196.49 38.2413C196.69 38.344 196.849 38.475 196.968 38.6342C197.086 38.7935 197.173 38.963 197.23 39.1427C197.286 39.3225 197.322 39.4933 197.337 39.6551C197.355 39.8143 197.364 39.944 197.364 40.0442V42.3672H196.424ZM193.539 42.3672V38.2066H194.367V39.4972H194.479V42.3672H193.539ZM200.808 42.3672C200.533 42.4186 200.264 42.4404 199.999 42.4327C199.737 42.4275 199.502 42.38 199.294 42.2901C199.086 42.1977 198.928 42.0526 198.82 41.8548C198.725 41.675 198.675 41.4914 198.67 41.3039C198.665 41.1164 198.662 40.9046 198.662 40.6683V37.0509H199.587V40.6144C199.587 40.7813 199.588 40.9277 199.591 41.0535C199.596 41.1794 199.623 41.2821 199.672 41.3617C199.764 41.5158 199.912 41.6018 200.115 41.6198C200.318 41.6378 200.549 41.6275 200.808 41.589V42.3672ZM197.907 38.9347V38.2066H200.808V38.9347H197.907Z" fill="#23262F"/>
<rect x="105.977" y="190.836" width="103.798" height="19.5056" rx="3.48315" fill="#F9F9F9"/>
<rect x="109.438" y="194.332" width="12.5382" height="12.5382" rx="1.39326" fill="#C0C0C0" fill-opacity="0.2"/>
<rect x="127.375" y="196.828" width="53.9887" height="2.4382" rx="1.2191" fill="#ECECEC"/>
<rect x="127.562" y="202.371" width="26.7549" height="1.57381" rx="0.786907" fill="#ECECEC"/>
<rect x="105.977" y="215.914" width="103.798" height="19.5056" rx="3.48315" fill="#F9F9F9"/>
<rect x="109.438" y="219.41" width="12.5382" height="12.5382" rx="1.39326" fill="#C0C0C0" fill-opacity="0.2"/>
<rect x="127.375" y="221.914" width="53.9887" height="2.4382" rx="1.2191" fill="#ECECEC"/>
<rect x="127.562" y="227.457" width="26.7549" height="1.57381" rx="0.786907" fill="#ECECEC"/>
<rect x="217.836" y="190.836" width="103.798" height="19.5056" rx="3.48315" fill="#F9F9F9"/>
<rect x="221.297" y="194.332" width="12.5382" height="12.5382" rx="1.39326" fill="#C0C0C0" fill-opacity="0.2"/>
<rect x="239.25" y="196.828" width="53.9887" height="2.4382" rx="1.2191" fill="#ECECEC"/>
<rect x="239.438" y="202.371" width="26.7549" height="1.57381" rx="0.786907" fill="#ECECEC"/>
<rect x="217.836" y="215.914" width="103.798" height="19.5056" rx="3.48315" fill="#F9F9F9"/>
<rect x="221.297" y="219.41" width="12.5382" height="12.5382" rx="1.39326" fill="#C0C0C0" fill-opacity="0.2"/>
<rect x="239.25" y="221.914" width="53.9887" height="2.4382" rx="1.2191" fill="#ECECEC"/>
<rect x="239.438" y="227.457" width="26.7549" height="1.57381" rx="0.786907" fill="#ECECEC"/>
<rect x="315.938" y="100.848" width="42.3763" height="42.3763" rx="4.81549" fill="#6666F2"/>
<mask id="mask0_2707_594" style="mask-type:alpha" maskUnits="userSpaceOnUse" x="325" y="110" width="24" height="24">
<rect x="325.57" y="110.48" width="23.1143" height="23.1143" fill="#D9D9D9"/>
</mask>
<g mask="url(#mask0_2707_594)">
<path d="M326.531 129.745V127.049C326.531 126.503 326.672 126.001 326.953 125.544C327.234 125.087 327.607 124.737 328.072 124.497C329.067 123.999 330.079 123.626 331.106 123.377C332.133 123.128 333.177 123.004 334.236 123.004C335.295 123.004 336.339 123.128 337.366 123.377C338.393 123.626 339.405 123.999 340.4 124.497C340.865 124.737 341.239 125.087 341.519 125.544C341.8 126.001 341.941 126.503 341.941 127.049V129.745H326.531ZM343.867 129.745V126.856C343.867 126.15 343.67 125.472 343.277 124.822C342.884 124.172 342.326 123.614 341.604 123.148C342.422 123.245 343.193 123.409 343.915 123.642C344.637 123.875 345.312 124.16 345.938 124.497C346.516 124.818 346.957 125.175 347.262 125.568C347.567 125.961 347.719 126.391 347.719 126.856V129.745H343.867ZM334.236 122.041C333.177 122.041 332.27 121.664 331.515 120.909C330.761 120.155 330.384 119.248 330.384 118.188C330.384 117.129 330.761 116.222 331.515 115.468C332.27 114.713 333.177 114.336 334.236 114.336C335.295 114.336 336.202 114.713 336.957 115.468C337.711 116.222 338.088 117.129 338.088 118.188C338.088 119.248 337.711 120.155 336.957 120.909C336.202 121.664 335.295 122.041 334.236 122.041ZM343.867 118.188C343.867 119.248 343.49 120.155 342.735 120.909C341.981 121.664 341.074 122.041 340.015 122.041C339.838 122.041 339.613 122.021 339.34 121.981C339.068 121.94 338.843 121.896 338.666 121.848C339.1 121.334 339.433 120.765 339.665 120.139C339.898 119.513 340.015 118.862 340.015 118.188C340.015 117.514 339.898 116.864 339.665 116.238C339.433 115.612 339.1 115.042 338.666 114.529C338.891 114.448 339.116 114.396 339.34 114.372C339.565 114.348 339.79 114.336 340.015 114.336C341.074 114.336 341.981 114.713 342.735 115.468C343.49 116.222 343.867 117.129 343.867 118.188Z" fill="white"/>
</g>
<defs>
<filter id="filter0_d_2707_594" x="0.892223" y="0.351587" width="366.911" height="276.278" filterUnits="userSpaceOnUse" color-interpolation-filters="sRGB">
<feFlood flood-opacity="0" result="BackgroundImageFix"/>
<feColorMatrix in="SourceAlpha" type="matrix" values="0 0 0 0 0 0 0 0 0 0 0 0 0 0 0 0 0 0 127 0" result="hardAlpha"/>
<feMorphology radius="7.45936" operator="dilate" in="SourceAlpha" result="effect1_dropShadow_2707_594"/>
<feOffset dy="7.45936"/>
<feGaussianBlur stdDeviation="9.32421"/>
<feComposite in2="hardAlpha" operator="out"/>
<feColorMatrix type="matrix" values="0 0 0 0 0.958851 0 0 0 0 0.958851 0 0 0 0 0.958851 0 0 0 0.4 0"/>
<feBlend mode="normal" in2="BackgroundImageFix" result="effect1_dropShadow_2707_594"/>
<feBlend mode="normal" in="SourceGraphic" in2="effect1_dropShadow_2707_594" result="shape"/>
</filter>
<filter id="filter1_d_2707_594" x="234.77" y="111.53" width="6.3734" height="6.37731" filterUnits="userSpaceOnUse" color-interpolation-filters="sRGB">
<feFlood flood-opacity="0" result="BackgroundImageFix"/>
<feColorMatrix in="SourceAlpha" type="matrix" values="0 0 0 0 0 0 0 0 0 0 0 0 0 0 0 0 0 0 127 0" result="hardAlpha"/>
<feOffset dy="0.579678"/>
<feGaussianBlur stdDeviation="0.579678"/>
<feColorMatrix type="matrix" values="0 0 0 0 0.268354 0 0 0 0 0.268354 0 0 0 0 0.31049 0 0 0 0.15 0"/>
<feBlend mode="normal" in2="BackgroundImageFix" result="effect1_dropShadow_2707_594"/>
<feBlend mode="normal" in="SourceGraphic" in2="effect1_dropShadow_2707_594" result="shape"/>
</filter>
<clipPath id="clip0_2707_594">
<rect width="6.58758" height="6.58758" fill="white" transform="translate(43.3828 100.52)"/>
</clipPath>
<clipPath id="clip1_2707_594">
<rect width="5.11518" height="5.11518" fill="white" transform="translate(302.047 36.6992)"/>
</clipPath>
<clipPath id="clip2_2707_594">
<rect width="5.11518" height="5.11518" fill="white" transform="translate(329.344 36.6914)"/>
</clipPath>
<clipPath id="clip3_2707_594">
<rect width="5.11518" height="5.11518" fill="white" transform="translate(288.422 36.6992)"/>
</clipPath>
</defs>
</svg>
