<svg width="386" height="241" viewBox="0 0 386 241" fill="none" xmlns="http://www.w3.org/2000/svg">
<path d="M0.450012 185.624C0.450012 161.377 5.22577 137.368 14.5046 114.967C23.7834 92.566 37.3836 72.2119 54.5286 55.0669C71.6736 37.9218 92.0277 24.3217 114.429 15.0428C136.83 5.76403 160.839 0.98828 185.086 0.988281L185.086 185.624H0.450012Z" fill="#F5F6FF"/>
<path d="M385.55 240.362C385.55 216.116 380.774 192.106 371.495 169.705C362.217 147.304 348.616 126.95 331.471 109.805C314.326 92.6601 293.972 79.0599 271.571 69.7811C249.17 60.5023 225.161 55.7266 200.914 55.7266L200.914 240.362H385.55Z" fill="#F5F6FF"/>
<path d="M192.252 12.2857L195.235 12.2734C199.016 12.4092 202.974 12.7403 206.693 13.4318C221.635 16.2102 235.598 23.6353 245.969 34.7788C248.174 33.2741 250.604 32.3606 253.208 31.8033C258.305 30.713 264.199 31.8807 268.551 34.7314C272.642 37.4104 275.021 41.1357 275.996 45.885L277.333 45.8801C280.314 45.9376 283.159 47.2529 285.202 49.4049C286.491 50.7625 287.269 52.6227 287.189 54.5074C287.109 56.4178 286.094 58.3113 284.709 59.5902C282.032 62.0619 278.387 62.8492 274.851 62.2422C274.292 62.146 273.742 62.0036 273.194 61.8589C273.084 61.8296 272.724 61.691 272.623 61.706C272.516 61.7221 272.23 61.9877 272.129 62.0664C271.746 62.3651 271.36 62.645 270.943 62.8954C267.688 64.8518 264.217 65.1061 260.522 64.9559C260.884 66.9155 260.986 68.8862 261.045 70.8734C261.274 78.6967 259.482 86.2776 256.82 93.5895C255.215 97.9972 253.275 102.401 251.061 106.539L247.44 112.962L243.634 119.178C245.604 118.825 247.515 118.708 249.498 119.049C253.437 119.727 256.371 121.604 258.676 124.839C261.601 124.531 265.094 125.444 267.339 127.402C267.705 127.722 268.038 128.082 268.37 128.436C268.413 128.483 268.642 128.767 268.694 128.786C268.966 128.884 269.657 128.791 269.967 128.795C271.531 128.812 273.149 129.378 274.424 130.276C275.67 131.153 276.7 132.497 276.943 134.031C277.17 135.468 276.858 136.832 275.973 137.998C274.627 139.771 272.152 140.974 269.929 141.036L268.376 141.035C268.245 141.034 267.923 140.994 267.811 141.028C267.451 141.137 266.811 141.721 266.446 141.936C264.605 143.021 262.571 143.602 260.435 143.686C259.343 143.728 258.17 143.601 257.1 143.392C256.617 143.297 256.152 143.166 255.682 143.019C255.594 142.992 255.202 142.829 255.128 142.843C254.688 142.92 253.963 143.5 253.535 143.712C251.407 144.761 249.049 145.252 246.678 145.109C244.619 144.984 242.735 144.407 240.891 143.498C240.461 143.287 239.784 142.758 239.357 142.651C239.299 142.636 238.978 142.725 238.915 142.737L237.519 142.972C233.85 143.477 230.681 142.404 227.789 140.195C227.286 140.565 226.856 141.191 226.447 141.673L223.298 145.471L212.556 158.15C212.333 158.429 212.04 158.729 211.979 159.092L208.778 174.738C211.016 173.458 213.32 172.666 215.905 172.541C219.663 172.359 223.397 173.563 226.195 176.096C227.313 176.007 228.597 175.948 229.708 176.094C233.743 176.626 237.66 178.647 240.145 181.922L240.258 182.071C240.556 182.164 240.999 182.031 241.317 181.994C241.77 181.943 242.235 181.935 242.69 181.951C245.348 182.044 248.343 182.994 250.172 185.025C251.357 186.341 251.834 187.944 251.736 189.697C251.645 191.34 250.687 192.936 249.462 193.996C247.346 195.825 244.538 196.547 241.785 196.218C241.408 196.173 240.41 195.88 240.106 195.958C239.588 196.092 238.998 196.651 238.483 196.885C236.269 197.891 234.069 198.267 231.647 198.209C230.668 198.185 229.695 198.085 228.741 197.856C228.076 197.697 227.447 197.421 226.791 197.234C226.716 197.213 226.4 197.097 226.322 197.108C226.195 197.125 225.97 197.28 225.84 197.343L224.441 198.001C222.202 198.956 219.786 199.311 217.366 199.15C214.5 198.895 212.042 198.147 209.639 196.538L209.624 201.457C209.62 203.146 209.782 204.889 209.037 206.452C208.335 207.925 207.174 209.022 205.602 209.509C204.101 209.975 202.004 209.726 200.43 209.723L193.292 209.72L187.048 209.74C185.713 209.744 184.357 209.794 183.026 209.675C182.337 209.613 181.686 209.391 181.072 209.079C179.786 208.426 178.741 207.283 178.304 205.894L178.251 205.717C177.832 204.367 178.03 202.604 178.032 201.186L178.004 193.682C177.663 193.533 177.317 193.383 177.005 193.181C175.779 192.388 175.463 191.365 175.184 190.014C174.236 190.071 173.138 189.96 172.226 189.7C171.775 189.571 171.349 189.375 170.925 189.178C170.838 189.137 170.479 188.926 170.399 188.928C170.315 188.93 170.016 189.132 169.924 189.18C169.444 189.432 168.97 189.683 168.466 189.885C166.629 190.622 164.63 190.8 162.668 190.652C161.358 190.553 159.878 190.154 158.705 189.565C158.316 189.37 157.551 188.813 157.167 188.747C157.024 188.722 156.643 188.854 156.5 188.885C156.057 188.98 155.623 189.04 155.17 189.067C152.399 189.234 149.665 188.615 147.554 186.705C146.351 185.616 145.504 184.018 145.439 182.382C145.3 178.875 148.176 176.418 151.329 175.57C151.808 175.441 152.325 175.415 152.818 175.372C152.93 175.362 153.231 175.372 153.331 175.329C153.438 175.284 153.812 174.465 153.897 174.318C154.419 173.426 155.012 172.584 155.719 171.829C157.697 169.719 160.976 168.476 163.839 168.413C167.601 168.329 171.41 169.799 174.255 172.24C175.076 172.945 175.739 173.804 176.538 174.523C177.073 175.004 177.491 174.988 178.183 174.971L178.278 174.775L175.802 162.121L175.246 159.621C175.152 159.201 175.084 158.627 174.815 158.28L170.135 152.775L160.482 141.352C152.794 131.994 145.943 122.151 139.78 111.733C139.061 111.807 138.291 111.853 137.569 111.809C137.231 111.788 136.606 111.583 136.305 111.632C136.001 111.682 135.363 112.216 135.069 112.383C133.55 113.247 131.839 113.716 130.096 113.803C128.926 113.862 127.757 113.704 126.62 113.432C125.985 113.28 125.004 112.732 124.384 112.79C123.942 112.831 123.208 113.311 122.788 113.501C121.257 114.197 119.706 114.479 118.026 114.46C116.122 114.438 114.002 114.057 112.294 113.185C111.791 112.928 111.1 112.368 110.586 112.228C110.221 112.129 109.387 112.357 108.986 112.389C106.165 112.613 102.977 111.689 100.833 109.811C99.3818 108.539 98.3699 106.859 98.2741 104.902C98.1901 103.182 98.9864 101.429 100.137 100.187C102.133 98.0325 105.088 97.0456 107.963 96.9531C109.182 94.253 111.1 92.1705 113.769 90.8637C118.121 88.7333 123.642 88.9489 127.797 91.4446C128.348 91.776 128.847 92.153 129.333 92.5741C129.761 92.9444 130.211 93.4234 130.756 93.611C128.519 86.8404 126.846 80.1866 126.491 73.0327C125.812 59.3664 131.958 45.0214 141.05 34.9731C151.611 23.3019 165.707 15.9765 181.193 13.3641C184.847 12.7477 188.555 12.4696 192.252 12.2857Z" fill="black"/>
<path d="M205.188 178.262L206.766 178.371L205.197 185.596L203.68 185.597C203.614 185.415 205.074 178.78 205.188 178.262Z" fill="white"/>
<path d="M180.39 178.189L182.282 178.164L184.156 185.639L181.968 185.665L180.39 178.189Z" fill="white"/>
<path d="M209.258 160.19L210.49 160.184C210.546 160.545 210.335 161.107 210.254 161.484L209.608 164.6L206.946 176.955L205.566 176.955L209.258 160.19Z" fill="white"/>
<path d="M176.855 160.038C177.128 160.001 177.431 160.014 177.707 160.004C177.763 160.049 177.839 160.077 177.874 160.14C177.951 160.276 177.989 160.604 178.028 160.763L178.45 162.576L180.25 170.433C180.75 172.568 181.445 174.686 181.778 176.854L180.115 176.883C179.934 176.668 179.906 176.067 179.849 175.774L179.124 172.094L177.435 163.479C177.234 162.427 176.787 161.097 176.855 160.038Z" fill="white"/>
<path d="M190.767 152.727L197.526 152.734L196.266 157.224L196.03 157.965L191.305 157.982L190.715 154.747C190.602 154.178 190.315 153.336 190.409 152.773L190.767 152.727Z" fill="#6666F2"/>
<path d="M199.164 152.725L205.569 152.707L203.211 157.582C203.122 157.754 203.021 157.895 202.908 158.051L197.401 158.038L198.924 152.827L199.164 152.725Z" fill="white"/>
<path d="M181.668 152.691L188.935 152.755C189.357 154.621 189.925 156.643 190.129 158.536L185.351 158.559C184.896 158.287 184.448 157.267 184.159 156.785L181.668 152.691Z" fill="white"/>
<path d="M207.248 152.707L214.391 152.746L210.268 157.586L209.328 158.662L204.386 158.643L207.248 152.707Z" fill="#6666F2"/>
<path d="M172.681 152.574L180.169 152.674L183.699 158.565L176.984 158.589L172.681 152.574Z" fill="#6666F2"/>
<path d="M179.468 186.967L184.169 186.993L195.896 186.975L203.923 186.919C205.343 186.907 206.826 186.812 208.237 186.929C208.746 186.971 209.216 187.168 209.625 187.471C210.316 187.981 210.744 188.675 210.853 189.53C210.935 190.179 210.714 190.913 210.311 191.424C209.718 192.176 208.942 192.343 208.033 192.442C206.313 192.564 204.525 192.465 202.798 192.46L192.814 192.444L183.734 192.44C182.185 192.439 180.55 192.542 179.01 192.4C178.461 192.349 177.948 192.221 177.504 191.875C176.969 191.458 176.623 190.844 176.541 190.17C176.457 189.476 176.518 188.716 176.97 188.156C177.626 187.344 178.474 187.069 179.468 186.967Z" fill="white"/>
<path d="M207.542 193.672L208.243 193.705L208.345 193.879L208.346 199.634L208.344 202.678C208.34 203.884 208.388 205.09 207.778 206.183C207.171 207.272 206.114 208.097 204.9 208.389C204.367 208.518 203.758 208.499 203.211 208.514L199.932 208.54L190.637 208.55L185.821 208.554C184.973 208.554 184.059 208.614 183.217 208.525C182.444 208.444 181.826 208.156 181.179 207.75L180.69 207.332C180.101 206.745 179.609 205.921 179.419 205.104C179.129 203.855 179.284 202.33 179.282 201.047L179.281 193.773L207.542 193.672Z" fill="white"/>
<path d="M163.301 169.681L163.418 169.669C166.944 169.343 170.933 171.03 173.531 173.372C174.296 174.062 174.913 175.035 175.719 175.648C176.607 176.325 177.536 176.18 178.562 176.039L180.653 185.69C179.562 185.686 178.408 185.59 177.394 186.063C176.309 186.568 175.555 187.564 175.146 188.666L175.114 188.756C173.95 188.665 172.774 188.584 171.689 188.111C171.318 187.949 170.911 187.558 170.559 187.443C170.405 187.393 169.481 187.929 169.297 188.028C167.873 188.796 166.47 189.141 164.877 189.348C162.462 189.506 159.553 188.998 157.662 187.374C157.624 187.341 157.596 187.287 157.547 187.274C157.487 187.259 157.199 187.366 157.116 187.387L155.748 187.701C155.264 187.793 154.779 187.829 154.286 187.831C151.95 187.839 149.757 187.134 148.091 185.462C147.16 184.527 146.619 183.322 146.667 181.99C146.712 180.725 147.466 179.311 148.391 178.465C150.029 176.968 152.175 176.553 154.319 176.645C154.61 175.542 155.036 174.603 155.724 173.688C157.592 171.202 160.308 170.108 163.301 169.681Z" fill="white"/>
<path d="M179.159 159.992L207.933 160.175C208.034 160.48 203.801 178.75 203.346 180.849L202.211 185.634L185.478 185.696C185.239 185.338 185.168 184.533 185.059 184.099L183.66 178.482L181.73 170.861L179.159 159.992Z" fill="white"/>
<path d="M119.47 90.6278C120.233 90.475 121.193 90.6099 121.966 90.7009C124.783 91.0332 128.021 92.4959 129.78 94.7822L129.883 94.917L131.273 94.7267C131.527 94.98 131.715 95.7738 131.864 96.1303L133.718 100.327L139.003 110.585L136.862 110.422C136.621 110.397 136.13 110.28 135.916 110.32C135.61 110.377 134.895 111.004 134.593 111.192C132.838 112.288 130.505 112.74 128.46 112.49C127.742 112.403 127.065 112.285 126.371 112.068C125.852 111.907 125.352 111.668 124.848 111.466C124.769 111.434 124.498 111.301 124.433 111.299C124.14 111.289 123.157 112.009 122.823 112.18C122.085 112.555 121.287 112.747 120.489 112.95C117.821 113.393 115.302 113.274 112.84 112.053C112.226 111.748 111.515 111.135 110.888 110.923C110.547 110.807 109.635 111.05 109.218 111.087C106.59 111.318 103.686 110.629 101.644 108.901C100.613 108.029 99.6943 106.515 99.606 105.148C99.5037 103.566 99.9132 102.311 101.003 101.126C103.083 98.8649 105.987 98.1668 108.945 98.0589C109.392 96.7688 109.883 95.7662 110.758 94.7066C112.926 92.0825 116.175 90.9374 119.47 90.6278Z" fill="white"/>
<path d="M255.666 32.8092C260.117 32.4596 264.768 33.6644 268.406 36.2718C270.974 38.1127 273.14 40.7293 274.097 43.7733C274.474 44.9726 274.631 46.1875 274.838 47.4219C276.219 47.2988 277.457 47.1496 278.841 47.3914C281.041 47.7758 283.508 49.1051 284.794 50.9539C285.668 52.2115 286.09 53.6989 285.805 55.2203C285.45 57.1173 284.142 58.5679 282.585 59.6123C280.157 61.242 277.177 61.416 274.394 60.8565C273.898 60.7191 273.393 60.5903 272.911 60.4096C272.835 60.3807 272.406 60.18 272.356 60.1875C272.156 60.218 271.11 61.2297 270.855 61.4199C267.827 63.679 263.956 63.8654 260.347 63.6069C259.777 60.707 259.13 57.8556 258.176 55.0533C256.41 49.864 253.738 44.7954 250.549 40.3415L246.917 35.7226C247.325 35.3335 247.986 35.0467 248.492 34.7959C250.815 33.6439 253.091 33.0662 255.666 32.8092Z" fill="white"/>
<path d="M246.44 120.099C247.592 120 248.896 120.168 250.028 120.407C252.503 120.93 255.032 122.328 256.667 124.278C257.146 124.85 257.524 125.533 257.928 126.159C258.34 126.179 258.74 126.07 259.152 126.05C259.916 126.011 260.745 126.011 261.498 126.144C263.286 126.46 265.276 127.174 266.635 128.419C267.179 128.917 267.6 129.52 268.022 130.12C269.015 130.017 269.933 129.995 270.923 130.16C272.516 130.425 274.147 131.316 275.052 132.674C275.645 133.564 275.88 134.747 275.623 135.791C275 138.319 271.932 139.834 269.48 139.824C268.963 139.822 268.445 139.763 267.932 139.707C267.794 139.692 267.408 139.601 267.285 139.633C267.217 139.651 266.961 139.921 266.898 139.976C266.476 140.345 266.053 140.693 265.571 140.98C262.69 142.694 259.432 142.681 256.278 141.862C256.036 141.784 255.106 141.394 254.897 141.417C254.668 141.443 253.698 142.173 253.434 142.326C252.414 142.916 251.307 143.367 250.145 143.58C246.335 144.276 242.749 143.466 239.56 141.297C238.451 141.622 237.283 141.789 236.129 141.818C233.389 141.888 230.603 141.009 228.598 139.106L242.269 121.01C242.699 120.533 245.753 120.144 246.44 120.099Z" fill="white"/>
<path d="M215.732 173.847C218.618 173.376 222.304 174.615 224.601 176.336C224.97 176.613 225.311 176.92 225.652 177.231C225.686 177.262 225.904 177.489 225.943 177.498C226.407 177.611 227.309 177.372 227.815 177.354C230.436 177.263 232.766 177.841 235.04 179.135C236.092 179.733 237.169 180.518 238.012 181.389C238.47 181.863 238.87 182.399 239.274 182.919C239.365 183.036 239.612 183.435 239.722 183.498C239.945 183.625 241.792 183.207 242.232 183.195C243.571 183.157 245.068 183.422 246.311 183.912C248.008 184.581 249.517 185.728 250.236 187.447C250.668 188.48 250.653 189.853 250.217 190.885C248.816 194.203 245.239 195.198 241.932 194.942C241.432 194.903 240.952 194.775 240.466 194.656C240.359 194.63 240.018 194.509 239.929 194.52C239.76 194.54 239.168 195.036 238.993 195.15C238.321 195.587 237.578 195.896 236.836 196.194C234.262 197.117 231.11 197.228 228.486 196.485C227.971 196.338 227.469 196.167 226.972 195.967C226.785 195.892 226.449 195.699 226.262 195.674C226.158 195.66 224.717 196.524 224.477 196.63C223.161 197.213 221.688 197.66 220.257 197.824C216.492 198.254 212.652 197.341 209.676 194.962C209.659 194.502 209.619 194.034 209.675 193.576L210.376 193.168C211.144 192.686 211.811 191.705 212.004 190.811L212.031 190.675C212.07 190.485 212.098 190.31 212.108 190.116C212.165 188.939 211.933 187.95 211.111 187.068C209.734 185.591 208.307 185.588 206.442 185.535L208.385 176.742L208.411 176.582C209.437 176.009 210.43 175.324 211.507 174.853C212.855 174.264 214.28 174.01 215.732 173.847Z" fill="white"/>
<path d="M203.744 14.957C205.668 15.1296 207.63 15.5714 209.513 15.9959C219.864 18.3296 229.966 23.1859 238.14 29.966C239.672 31.2368 241.238 32.5216 242.652 33.9249C251.574 42.7827 257.764 54.5545 258.896 67.1794C259.374 72.5144 258.734 77.8404 257.637 83.0683C257.07 85.7749 256.468 88.5298 255.616 91.1638C254.356 95.0569 252.667 98.8758 250.888 102.556C243.06 118.752 231.313 132.915 219.828 146.615L215.585 151.536L207.875 151.532L220.047 133.089C225.115 124.658 229.736 115.958 233.454 106.839C239.508 91.9902 243.815 75.6933 241.296 59.5832C240.536 54.7266 239.123 50.0667 237.214 45.5436C234.241 38.4996 229.61 31.9916 224.069 26.746C222.764 25.5111 221.427 24.2805 219.996 23.1934C217.502 21.2998 214.707 19.6601 211.917 18.2496C209.268 16.9103 206.477 16.0649 203.744 14.957Z" fill="white"/>
<path d="M184.635 14.8291L185.226 14.8086C180.628 16.0604 176.099 17.8998 171.985 20.3186C160.21 27.2436 151.665 39.5169 148.301 52.6531C146.483 59.7472 145.756 66.9321 146.189 74.2472C147.41 94.8499 157.009 114.478 167.338 131.963L179.309 151.315L171.248 151.186L167.271 146.542L155.189 131.529C150.724 125.615 146.571 119.43 142.769 113.07C136.05 101.83 130.057 89.6709 128.736 76.465C128.254 71.6503 128.414 66.6829 129.356 61.9295C131.036 53.453 135.295 44.9705 140.764 38.3041C149.789 27.3029 162.23 19.7282 176.03 16.3861C178.872 15.6977 181.72 15.1154 184.635 14.8291Z" fill="white"/>
<path d="M188.147 15.3398L188.317 15.3589C186.998 16.79 185.735 18.047 184.687 19.7209C181.064 25.5093 178.825 32.3472 177.291 38.9617C174.927 49.1564 174.165 59.4053 174.192 69.8488C174.233 86.0997 176.328 102.313 179.807 118.175L184.315 136.317L186.796 145.193L188.493 151.391L180.811 151.299L173.672 139.651C164.786 125.9 156.672 111.119 151.693 95.4698C146.099 77.8873 145.313 58.3452 154.003 41.5925C159.427 31.1371 168.277 22.7985 179.174 18.2758C181.236 17.4204 183.368 16.6541 185.509 16.0238C186.383 15.7669 187.276 15.6147 188.147 15.3398Z" fill="white"/>
<path d="M198.895 15.0898C204.532 16.2318 210.151 18.4424 215.022 21.4949C227.261 29.1641 236.09 41.8949 239.228 55.9893C240.482 61.6217 240.947 67.4099 240.607 73.1729C240.167 80.6325 238.459 88.0197 236.237 95.1324C231.286 110.985 223.364 125.594 214.465 139.544L206.186 151.474L199.331 151.472L201.213 145.07L204.481 133.34C209.431 113.714 213.151 93.7492 213.645 73.4671C213.811 66.6599 213.705 59.844 213.001 53.0662C211.984 43.2878 209.934 33.31 205.619 24.4195C203.878 20.8322 202.036 17.6391 198.895 15.0898Z" fill="white"/>
<path d="M193.023 14.4026C193.891 14.3289 194.807 14.3285 195.648 14.5706C196.776 14.8951 197.759 15.6795 198.598 16.4747C200.457 18.2378 201.891 20.2593 203.149 22.4881C205.332 26.355 206.87 30.5401 208.142 34.783C211.861 47.1947 212.641 60.2962 212.294 73.1867C211.87 89.0013 209.648 104.647 206.262 120.09L201.727 138.353L197.902 151.45L194.974 151.462L190.009 151.452L180.098 112.95C177.02 97.3761 175.251 81.5634 175.576 65.6739C175.784 55.5297 176.837 45.4946 179.529 35.6846C181.003 30.3126 183.006 24.6105 186.142 19.9658C187.819 17.4804 189.942 14.996 193.023 14.4026Z" fill="#F3A73D"/>
</svg>
