<svg width="68" height="67" viewBox="0 0 68 67" fill="none" xmlns="http://www.w3.org/2000/svg">
<g opacity="0.3">
<rect x="1.08586" y="0.835859" width="65.8283" height="65.8283" rx="32.9141" stroke="url(#paint0_linear_5440_83)" stroke-width="0.671717"/>
<circle cx="34.001" cy="33.7513" r="27.5404" stroke="url(#paint1_linear_5440_83)" stroke-width="0.671717"/>
<circle cx="34.0026" cy="33.7526" r="13.6043" stroke="url(#paint2_linear_5440_83)" stroke-width="0.331812"/>
</g>
<g clip-path="url(#clip0_5440_83)">
<path d="M20.7776 15.4079C20.7776 14.2815 21.6855 13.3652 22.7992 13.3652H45.201C46.3148 13.3652 47.2226 14.2815 47.2226 15.4079C47.2226 16.5343 46.3147 17.4506 45.201 17.4506H22.7993C21.6855 17.4506 20.7776 16.5343 20.7776 15.4079Z" fill="#E27A17"/>
<path d="M47.2226 52.0905C47.2226 53.2169 46.3147 54.1332 45.201 54.1332H22.7992C21.6854 54.1332 20.7776 53.2169 20.7776 52.0905C20.7776 50.9641 21.6855 50.0479 22.7992 50.0479H45.201C46.3147 50.0479 47.2226 50.9641 47.2226 52.0905Z" fill="#E27A17"/>
<path d="M38.3418 32.0894C42.2968 29.1809 44.663 24.5702 44.663 19.7536V18.291H23.3372V19.7536C23.3372 24.5702 25.6993 29.1809 29.6584 32.0894C30.1922 32.476 30.5074 33.098 30.5074 33.7495C30.5074 34.401 30.1922 35.0231 29.6625 35.4097C22.4687 40.6868 23.4026 48.9067 23.3372 49.208H44.663C44.5649 48.7561 45.668 40.7869 38.3376 35.4097C37.808 35.0231 37.4928 34.401 37.4928 33.7495C37.4928 33.098 37.808 32.476 38.3418 32.0894ZM38.926 42.6892C42.1922 45.3791 41.6583 48.0793 41.7168 48.3211H26.2835C26.3073 48.2491 25.874 44.5839 29.8938 42.1007C32.0163 40.7852 33.3697 38.524 33.3697 36.0233V31.4715C33.3697 30.7108 32.9031 30.0088 32.1802 29.7735C30.8338 29.3396 29.9494 28.5609 29.0742 27.4787H38.926C38.0765 28.5103 37.2439 29.3146 35.82 29.7735C35.0971 30.0088 34.6306 30.7108 34.6306 31.4715V36.0233C34.6306 40.334 38.1758 42.0721 38.926 42.6892Z" fill="#E27A17"/>
</g>
<defs>
<linearGradient id="paint0_linear_5440_83" x1="34" y1="0.5" x2="34" y2="67" gradientUnits="userSpaceOnUse">
<stop stop-color="white"/>
<stop offset="1" stop-color="#F3A73D"/>
</linearGradient>
<linearGradient id="paint1_linear_5440_83" x1="61.8773" y1="41.476" x2="9.98713" y2="21.6604" gradientUnits="userSpaceOnUse">
<stop stop-color="white"/>
<stop offset="1" stop-color="#F3A73D"/>
</linearGradient>
<linearGradient id="paint2_linear_5440_83" x1="47.7728" y1="37.5685" x2="22.1403" y2="27.78" gradientUnits="userSpaceOnUse">
<stop stop-color="white"/>
<stop offset="1" stop-color="#F3A73D"/>
</linearGradient>
<clipPath id="clip0_5440_83">
<rect width="41.5" height="41.5" fill="white" transform="translate(13.25 13)"/>
</clipPath>
</defs>
</svg>
