<svg width="35" height="34" viewBox="0 0 35 34" fill="none" xmlns="http://www.w3.org/2000/svg">
<path d="M24.4008 8.90994L24.095 9.46908C23.9792 9.68104 23.805 9.85529 23.593 9.97111L23.0352 10.2768C23.0095 10.2909 22.988 10.3116 22.973 10.3368C22.9581 10.362 22.9502 10.3907 22.9502 10.42C22.9502 10.4493 22.9581 10.4781 22.973 10.5033C22.988 10.5285 23.0095 10.5492 23.0352 10.5632L23.593 10.8689C23.805 10.9847 23.9792 11.159 24.095 11.371L24.4008 11.9288C24.4148 11.9545 24.4355 11.9759 24.4607 11.9909C24.4859 12.0059 24.5146 12.0137 24.5439 12.0137C24.5732 12.0137 24.602 12.0059 24.6272 11.9909C24.6524 11.9759 24.6731 11.9545 24.6871 11.9288L24.9928 11.371C25.1089 11.1589 25.2834 10.9846 25.4957 10.8689L26.0535 10.5632C26.0792 10.5492 26.1007 10.5285 26.1156 10.5033C26.1306 10.4781 26.1385 10.4493 26.1385 10.42C26.1385 10.3907 26.1306 10.362 26.1156 10.3368C26.1007 10.3116 26.0792 10.2909 26.0535 10.2768L25.4957 9.97111C25.2837 9.85529 25.1094 9.68104 24.9936 9.46908L24.6879 8.90994C24.6739 8.88402 24.6532 8.86237 24.6279 8.84728C24.6027 8.83219 24.5738 8.82422 24.5443 8.82422C24.5149 8.82422 24.486 8.83219 24.4607 8.84728C24.4354 8.86237 24.4147 8.88402 24.4008 8.90994Z" fill="#46BECE"/>
<path d="M32.046 14.5927L31.8388 14.9712C31.7602 15.1148 31.6421 15.2329 31.4985 15.3115L31.12 15.5184C31.1026 15.5279 31.0881 15.5419 31.078 15.559C31.0678 15.576 31.0625 15.5955 31.0625 15.6153C31.0625 15.6352 31.0678 15.6546 31.078 15.6717C31.0881 15.6888 31.1026 15.7028 31.12 15.7123L31.4985 15.9192C31.6421 15.9978 31.7602 16.1159 31.8388 16.2595L32.046 16.638C32.0554 16.6554 32.0694 16.6699 32.0865 16.6801C32.1035 16.6902 32.123 16.6955 32.1428 16.6955C32.1626 16.6955 32.182 16.6902 32.1991 16.6801C32.2161 16.6699 32.2301 16.6554 32.2396 16.638L32.4468 16.2595C32.5252 16.1159 32.6432 15.9978 32.7868 15.9192L33.1656 15.7123C33.183 15.7028 33.1975 15.6888 33.2076 15.6717C33.2177 15.6546 33.2231 15.6352 33.2231 15.6153C33.2231 15.5955 33.2177 15.576 33.2076 15.559C33.1975 15.5419 33.183 15.5279 33.1656 15.5184L32.7868 15.3115C32.6432 15.2329 32.5252 15.1148 32.4468 14.9712L32.2396 14.5927C32.2301 14.5753 32.2161 14.5607 32.1991 14.5506C32.182 14.5405 32.1626 14.5352 32.1428 14.5352C32.123 14.5352 32.1035 14.5405 32.0865 14.5506C32.0694 14.5607 32.0554 14.5753 32.046 14.5927Z" fill="#FFD07D"/>
<path d="M17.3802 27.4744L17.135 27.9228C17.0421 28.0927 16.9023 28.2325 16.7323 28.3255L16.284 28.5706C16.2633 28.5819 16.2461 28.5985 16.2341 28.6186C16.2221 28.6388 16.2158 28.6619 16.2158 28.6854C16.2158 28.7089 16.2221 28.7319 16.2341 28.7521C16.2461 28.7723 16.2633 28.7889 16.284 28.8001L16.7323 29.0453C16.9023 29.1383 17.0421 29.2782 17.135 29.4483L17.3802 29.8964C17.3914 29.917 17.408 29.9342 17.4282 29.9462C17.4484 29.9582 17.4715 29.9645 17.4949 29.9645C17.5184 29.9645 17.5415 29.9582 17.5617 29.9462C17.5819 29.9342 17.5985 29.917 17.6097 29.8964L17.8549 29.4483C17.9479 29.2782 18.0878 29.1383 18.2578 29.0453L18.7059 28.8001C18.7266 28.7889 18.7438 28.7723 18.7558 28.7521C18.7677 28.7319 18.7741 28.7089 18.7741 28.6854C18.7741 28.6619 18.7677 28.6388 18.7558 28.6186C18.7438 28.5985 18.7266 28.5819 18.7059 28.5706L18.2578 28.3255C18.0878 28.2325 17.9479 28.0928 17.8549 27.9228L17.6097 27.4744C17.5985 27.4538 17.5819 27.4366 17.5617 27.4246C17.5415 27.4126 17.5184 27.4062 17.4949 27.4062C17.4715 27.4062 17.4484 27.4126 17.4282 27.4246C17.408 27.4366 17.3914 27.4538 17.3802 27.4744Z" fill="#FF6E79"/>
<path d="M3.18632 18.1041L2.97939 18.4826C2.90085 18.6263 2.78276 18.7444 2.63913 18.8229L2.26061 19.0298C2.24321 19.0393 2.22869 19.0534 2.21858 19.0704C2.20846 19.0875 2.20312 19.1069 2.20312 19.1268C2.20312 19.1466 2.20846 19.1661 2.21858 19.1831C2.22869 19.2002 2.24321 19.2142 2.26061 19.2237L2.63913 19.4309C2.78274 19.5094 2.90083 19.6274 2.97939 19.7709L3.18632 20.1497C3.19583 20.1671 3.20985 20.1816 3.22691 20.1917C3.24397 20.2018 3.26344 20.2072 3.28327 20.2072C3.3031 20.2072 3.32257 20.2018 3.33963 20.1917C3.35668 20.1816 3.37071 20.1671 3.38022 20.1497L3.58741 19.7709C3.66586 19.6274 3.78387 19.5094 3.92741 19.4309L4.30619 19.2237C4.32359 19.2142 4.33811 19.2002 4.34823 19.1831C4.35834 19.1661 4.36368 19.1466 4.36368 19.1268C4.36368 19.1069 4.35834 19.0875 4.34823 19.0704C4.33811 19.0534 4.32359 19.0393 4.30619 19.0298L3.92714 18.8229C3.78359 18.7443 3.66559 18.6262 3.58714 18.4826L3.37996 18.1041C3.37042 18.0868 3.35641 18.0723 3.33937 18.0623C3.32234 18.0522 3.30292 18.0469 3.28314 18.0469C3.26335 18.0469 3.24393 18.0522 3.2269 18.0623C3.20987 18.0723 3.19585 18.0868 3.18632 18.1041Z" fill="#FFB339"/>
<path d="M10.6623 6.67848L10.4835 7.00546C10.4155 7.12883 10.3137 7.2302 10.19 7.29765L9.86305 7.47642C9.84804 7.48466 9.83552 7.49679 9.8268 7.51154C9.81808 7.52628 9.81348 7.54309 9.81348 7.56022C9.81348 7.57735 9.81808 7.59416 9.8268 7.6089C9.83552 7.62365 9.84804 7.63578 9.86305 7.64402L10.19 7.82279C10.314 7.89062 10.4158 7.99258 10.4835 8.11657L10.6623 8.44329C10.6706 8.4583 10.6827 8.47082 10.6974 8.47954C10.7122 8.48826 10.729 8.49286 10.7461 8.49286C10.7632 8.49286 10.7801 8.48826 10.7948 8.47954C10.8095 8.47082 10.8217 8.4583 10.8299 8.44329L11.0087 8.11657C11.0764 7.99251 11.1784 7.89053 11.3025 7.82279L11.6292 7.64402C11.6442 7.63578 11.6567 7.62365 11.6654 7.6089C11.6742 7.59416 11.6788 7.57735 11.6788 7.56022C11.6788 7.54309 11.6742 7.52628 11.6654 7.51154C11.6567 7.49679 11.6442 7.48466 11.6292 7.47642L11.3025 7.29765C11.1787 7.23029 11.0767 7.1289 11.0087 7.00546L10.8299 6.67848C10.8217 6.66347 10.8095 6.65095 10.7948 6.64223C10.7801 6.63351 10.7632 6.62891 10.7461 6.62891C10.729 6.62891 10.7122 6.63351 10.6974 6.64223C10.6827 6.65095 10.6706 6.66347 10.6623 6.67848Z" fill="#58C4B9"/>
<path d="M17.4951 13.6691C17.3894 13.6691 17.2881 13.6271 17.2134 13.5524C17.1387 13.4777 17.0967 13.3763 17.0967 13.2706V0.636719C17.0967 0.531047 17.1387 0.429702 17.2134 0.354981C17.2881 0.280259 17.3894 0.238281 17.4951 0.238281C17.6008 0.238281 17.7021 0.280259 17.7769 0.354981C17.8516 0.429702 17.8936 0.531047 17.8936 0.636719V13.2706C17.8936 13.3763 17.8516 13.4777 17.7769 13.5524C17.7021 13.6271 17.6008 13.6691 17.4951 13.6691Z" fill="#F9E0D9"/>
<path d="M28.5156 19.5285C28.41 19.5285 28.3086 19.4865 28.2339 19.4118C28.1592 19.3371 28.1172 19.2357 28.1172 19.13V0.664062C28.1172 0.55839 28.1592 0.457046 28.2339 0.382325C28.3086 0.307603 28.41 0.265625 28.5156 0.265625C28.6213 0.265625 28.7226 0.307603 28.7974 0.382325C28.8721 0.457046 28.9141 0.55839 28.9141 0.664062V19.13C28.9141 19.2357 28.8721 19.3371 28.7974 19.4118C28.7226 19.4865 28.6213 19.5285 28.5156 19.5285Z" fill="#F9E0D9"/>
<path d="M7.7832 24.4733C7.67753 24.4733 7.57619 24.4313 7.50146 24.3566C7.42674 24.2819 7.38477 24.1805 7.38477 24.0748V0.667969C7.38477 0.562297 7.42674 0.460952 7.50146 0.386231C7.57619 0.311509 7.67753 0.269531 7.7832 0.269531C7.88888 0.269531 7.99022 0.311509 8.06494 0.386231C8.13966 0.460952 8.18164 0.562297 8.18164 0.667969V24.0748C8.18164 24.1805 8.13966 24.2819 8.06494 24.3566C7.99022 24.4313 7.88888 24.4733 7.7832 24.4733Z" fill="#F9E0D9"/>
<path d="M27.752 19.3586L27.2904 20.2944C27.2292 20.4182 27.139 20.5252 27.0273 20.6063C26.9157 20.6874 26.786 20.7402 26.6494 20.7601L25.6169 20.9099C25.4595 20.9323 25.3115 20.9984 25.1898 21.1007C25.068 21.2031 24.9775 21.3375 24.9283 21.4887C24.8792 21.64 24.8735 21.802 24.9118 21.9563C24.9501 22.1106 25.031 22.2511 25.1452 22.3618L25.8924 23.0901C25.9912 23.1864 26.0652 23.3053 26.1078 23.4365C26.1504 23.5678 26.1605 23.7074 26.137 23.8434L25.9606 24.8719C25.9331 25.0288 25.9502 25.1902 26.0099 25.3378C26.0696 25.4854 26.1696 25.6132 26.2984 25.7068C26.4273 25.8003 26.5798 25.8558 26.7387 25.8669C26.8975 25.878 27.0563 25.8442 27.1969 25.7695L28.1207 25.2837C28.2429 25.2195 28.3788 25.186 28.5168 25.186C28.6547 25.186 28.7906 25.2195 28.9128 25.2837L29.8351 25.7695C29.9756 25.8438 30.1342 25.8773 30.2927 25.866C30.4513 25.8548 30.6036 25.7993 30.7322 25.7058C30.8608 25.6124 30.9607 25.4847 31.0204 25.3373C31.0801 25.19 31.0972 25.0288 31.0699 24.8722L30.8936 23.8437C30.8701 23.7077 30.8802 23.5681 30.9228 23.4368C30.9654 23.3056 31.0393 23.1867 31.1382 23.0904L31.8854 22.362C31.9996 22.2514 32.0805 22.1109 32.1188 21.9566C32.1572 21.8023 32.1515 21.6403 32.1023 21.4891C32.0532 21.3379 31.9627 21.2034 31.841 21.1011C31.7193 20.9988 31.5713 20.9326 31.4139 20.9101L30.3812 20.7603C30.2446 20.7404 30.1149 20.6877 30.0033 20.6066C29.8916 20.5254 29.8013 20.4184 29.7402 20.2947L29.2786 19.3589C29.2086 19.2161 29.1 19.0958 28.9651 19.0116C28.8302 18.9275 28.6744 18.8828 28.5154 18.8828C28.3564 18.8828 28.2005 18.9274 28.0656 19.0115C27.9307 19.0956 27.822 19.2159 27.752 19.3586Z" fill="#FFC95C"/>
<path d="M7.09446 24.1862L6.6777 25.0307C6.62249 25.1422 6.54101 25.2386 6.44028 25.3116C6.33954 25.3846 6.22257 25.4321 6.09943 25.4498L5.16762 25.5853C5.02588 25.6061 4.89276 25.666 4.78331 25.7585C4.67386 25.8509 4.59244 25.9721 4.54823 26.1083C4.50403 26.2446 4.4988 26.3905 4.53315 26.5296C4.5675 26.6686 4.64006 26.7953 4.74262 26.8954L5.41704 27.5525C5.5061 27.6396 5.57273 27.7469 5.61122 27.8653C5.64971 27.9837 5.65891 28.1097 5.63804 28.2325L5.47866 29.1606C5.45434 29.302 5.47009 29.4474 5.52415 29.5803C5.57821 29.7132 5.66841 29.8283 5.78454 29.9126C5.90066 29.9969 6.03806 30.0469 6.18118 30.0571C6.32429 30.0673 6.4674 30.0372 6.59429 29.9702L7.42782 29.532C7.53804 29.474 7.66069 29.4437 7.78522 29.4437C7.90974 29.4437 8.0324 29.474 8.14262 29.532L8.97588 29.9702C9.10277 30.0372 9.24588 30.0673 9.389 30.0571C9.53211 30.0469 9.66951 29.9969 9.78564 29.9126C9.90176 29.8283 9.99196 29.7132 10.046 29.5803C10.1001 29.4474 10.1158 29.302 10.0915 29.1606L9.93213 28.2325C9.91126 28.1097 9.92047 27.9837 9.95896 27.8653C9.99745 27.7469 10.0641 27.6396 10.1531 27.5525L10.8276 26.8954C10.9301 26.7953 11.0027 26.6686 11.037 26.5296C11.0714 26.3905 11.0661 26.2446 11.0219 26.1083C10.9777 25.9721 10.8963 25.8509 10.7869 25.7585C10.6774 25.666 10.5443 25.6061 10.4026 25.5853L9.47074 25.4498C9.3475 25.4319 9.23046 25.3843 9.12971 25.3111C9.02897 25.2379 8.94755 25.1413 8.89248 25.0296L8.47571 24.1852C8.41255 24.0558 8.31427 23.9467 8.1921 23.8704C8.06992 23.7942 7.92877 23.7538 7.78475 23.7539C7.64073 23.754 7.49965 23.7946 7.37759 23.8711C7.25553 23.9475 7.15743 24.0567 7.09446 24.1862Z" fill="#FFC571"/>
<path d="M16.5812 13.3724L16.0285 14.492C15.9556 14.6402 15.8477 14.7685 15.7142 14.8657C15.5806 14.9629 15.4254 15.0261 15.2619 15.0498L14.0265 15.2294C13.8387 15.257 13.6624 15.3365 13.5174 15.459C13.3724 15.5815 13.2646 15.7421 13.206 15.9226C13.1474 16.1031 13.1404 16.2964 13.1859 16.4807C13.2313 16.665 13.3273 16.8329 13.4631 16.9655L14.3572 17.837C14.4753 17.9523 14.5636 18.0946 14.6145 18.2516C14.6654 18.4086 14.6774 18.5756 14.6494 18.7383L14.4379 19.9687C14.4058 20.1559 14.4268 20.3484 14.4984 20.5244C14.57 20.7003 14.6894 20.8528 14.8431 20.9644C14.9968 21.0761 15.1787 21.1425 15.3682 21.1562C15.5576 21.1698 15.7472 21.1302 15.9153 21.0418L17.0203 20.4609C17.1665 20.3841 17.3291 20.3439 17.4942 20.3439C17.6593 20.3439 17.8219 20.3841 17.9681 20.4609L19.0731 21.0418C19.2412 21.1302 19.4308 21.1699 19.6203 21.1562C19.8098 21.1425 19.9917 21.0761 20.1455 20.9644C20.2992 20.8527 20.4186 20.7002 20.4902 20.5242C20.5617 20.3482 20.5826 20.1557 20.5505 19.9684L20.3396 18.738C20.3116 18.5754 20.3236 18.4083 20.3745 18.2513C20.4254 18.0943 20.5137 17.9521 20.6318 17.8368L21.5259 16.9652C21.6619 16.8326 21.7581 16.6645 21.8036 16.4801C21.8491 16.2956 21.8421 16.1021 21.7834 15.9214C21.7247 15.7407 21.6166 15.58 21.4713 15.4575C21.326 15.3351 21.1494 15.2557 20.9614 15.2283L19.726 15.0488C19.5625 15.025 19.4073 14.9618 19.2738 14.8646C19.1402 14.7674 19.0323 14.6392 18.9594 14.4909L18.4069 13.3713C18.3227 13.2011 18.1925 13.0578 18.0312 12.9577C17.8698 12.8576 17.6836 12.8046 17.4937 12.8047C17.3038 12.8048 17.1177 12.858 16.9565 12.9583C16.7952 13.0587 16.6653 13.2021 16.5812 13.3724Z" fill="#FFB339"/>
</svg>
