<svg id="Icon" viewBox="0 0 24 24" xmlns="http://www.w3.org/2000/svg"><path d="m17 12.25c-2.619 0-4.75 2.131-4.75 4.75s2.131 4.75 4.75 4.75 4.75-2.131 4.75-4.75-2.131-4.75-4.75-4.75zm0 1.5c.624 0 1.202.185 1.698.492l-4.456 4.456c-.306-.496-.492-1.074-.492-1.698 0-1.792 1.458-3.25 3.25-3.25zm0 6.5c-.624 0-1.202-.185-1.698-.492l4.456-4.456c.306.496.492 1.074.492 1.698 0 1.792-1.458 3.25-3.25 3.25z" fill="#549bff"/><path d="m12 2.25c-2.619 0-4.75 2.131-4.75 4.75s2.131 4.75 4.75 4.75 4.75-2.131 4.75-4.75-2.131-4.75-4.75-4.75zm0 8c-1.792 0-3.25-1.458-3.25-3.25s1.458-3.25 3.25-3.25 3.25 1.458 3.25 3.25-1.458 3.25-3.25 3.25zm-7.25 8.75c0 .689.561 1.25 1.25 1.25h4.97c.414 0 .75.336.75.75s-.336.75-.75.75h-4.97c-1.517 0-2.75-1.233-2.75-2.75 0-3.171 2.58-5.75 5.75-5.75h2c.414 0 .75.336.75.75s-.336.75-.75.75h-2c-2.343 0-4.25 1.906-4.25 4.25z" fill="#112d55"/></svg>