<svg width="488" height="483" viewBox="0 0 488 483" fill="none" xmlns="http://www.w3.org/2000/svg">
<path d="M0.868164 482.332C0.868164 419.013 13.3398 356.314 37.571 297.814C61.8022 239.315 97.3185 186.161 142.092 141.388C186.865 96.6143 240.019 61.0981 298.518 36.8669C357.018 12.6357 419.717 0.16406 483.036 0.164063L483.036 482.332H0.868164Z" fill="white"/>
<path d="M273.67 460.417C338.754 460.417 391.515 453.416 391.515 444.779C391.515 436.142 338.754 429.141 273.67 429.141C208.586 429.141 155.825 436.142 155.825 444.779C155.825 453.416 208.586 460.417 273.67 460.417Z" fill="#F3A73D"/>
<path d="M269.203 178.39C265.852 164.427 249.655 167.778 242.953 178.948C239.274 185.082 238.485 187.884 230.666 186.767C223.964 185.092 222.288 180.065 214.469 183.975C200.507 191.235 209.443 205.756 216.145 215.251C222.288 223.629 242.395 229.214 234.017 239.267C229.549 245.41 221.73 249.32 216.703 254.348C211.677 259.375 206.65 264.402 202.182 269.428C193.246 279.482 184.868 288.976 179.283 300.705C168.672 321.928 162.528 333.657 159.736 364.375C154.576 421.133 160.19 452.01 326.729 443.683C371.41 441.449 409.541 405.222 393.191 352.087C375.319 294.003 309.415 233.123 310.532 222.512C311.649 209.107 331.756 202.405 333.99 189.001C336.782 172.804 323.937 171.129 313.325 179.507C308.857 163.31 298.245 177.831 290.985 181.182C288.751 169.453 275.346 165.544 269.203 178.39Z" fill="white"/>
<path d="M269.875 178.207C267.473 169.719 260.236 166.673 252.171 169.901C248.422 171.402 245.433 174.276 243.075 177.471C241.416 179.721 240.375 182.324 238.539 184.461C235.399 188.115 229.316 185.844 225.932 184.027C222.631 182.255 219.508 180.998 215.815 182.626C211.234 184.644 207.724 187.625 206.593 192.635C204.735 200.866 211.796 211.615 217.002 217.336C219.991 220.622 224.146 222.946 227.755 225.459C230.07 227.069 232.323 228.795 234.053 231.045C236.955 234.819 233.999 238.403 231.42 241.283C227.033 246.177 220.967 249.338 216.209 253.857C209.702 260.036 203.634 266.702 197.711 273.434C180.97 292.461 168.102 316.355 162.442 341.203C158.992 356.348 157.496 372.814 157.956 388.404C158.225 397.519 159.818 406.732 164.39 414.734C177.266 437.263 209.3 441.421 232.403 443.774C258.93 446.477 285.784 446.016 312.388 445.019C325.324 444.534 337.855 444.038 350.228 439.912C360.14 436.607 369.272 431.177 377.008 424.178C393.65 409.121 399.894 386.927 396.882 365.092C393.312 339.216 378.06 314.892 363.556 293.794C350.508 274.82 335.606 257.296 321.427 239.183C317.887 234.66 312.794 229.271 311.307 223.544C308.922 214.361 325.295 204.204 330.229 198.255C335.011 192.489 337.869 181.656 331.613 175.874C329.546 173.963 326.124 173.542 323.466 174.022C321.392 174.396 319.505 175.063 317.601 175.944C316.367 176.516 315.235 177.29 314.113 178.047C313.62 178.38 312.428 175.248 312.22 174.838C308.172 166.869 299.269 174.602 294.947 177.837C292.937 179.341 291.827 181.144 290.913 178.339C290.348 176.605 289.31 175.127 288.191 173.721C286.069 171.055 282.112 169.242 278.692 169.775C273.836 170.532 270.808 173.846 268.596 178.039C268.176 178.835 269.382 179.541 269.802 178.744C275.425 168.083 287.562 169.639 290.308 181.37C290.416 181.832 290.947 181.984 291.333 181.788C294.58 180.141 297.346 177.701 300.297 175.595C301.944 174.421 303.682 173.427 305.628 172.85C309.917 171.577 311.698 176.641 312.647 179.695C312.768 180.086 313.296 180.394 313.672 180.113C318.176 176.734 324.491 173.44 330.013 176.433C336.896 180.164 333.239 191.601 329.899 196.405C324.027 204.856 313.397 209.615 310.258 219.963C308.874 224.528 311.875 228.421 314.344 232.01C319.116 238.947 324.586 245.429 329.869 251.975C346.203 272.214 362.337 292.68 375.549 315.14C389.221 338.38 401.087 365.756 394.252 393.101C388.26 417.074 367.654 433.752 344.571 440.18C330.482 444.104 315.242 443.597 300.745 444.006C286.636 444.405 272.516 444.466 258.407 444.025C238.658 443.404 218.505 441.93 199.418 436.513C188.194 433.329 176.941 428.28 169.235 419.231C162.91 411.805 160.365 402.171 159.579 392.635C158.412 378.46 160.056 363.47 162.265 349.519C166.505 322.718 179.802 296.318 197.392 275.911C202.765 269.679 208.382 263.698 214.179 257.86C219.479 252.521 225.692 248.477 231.23 243.437C238.24 237.059 237.81 231.445 230.549 225.782C227.308 223.254 223.757 221.155 220.516 218.625C216.645 215.605 214.092 211.235 211.688 207.029C209.082 202.472 206.994 197.172 208.189 191.877C208.967 188.434 211.952 186.216 214.816 184.58C219.108 182.128 222.535 183.788 226.334 185.828C232.923 189.367 238.43 187.85 242.121 181.726C245.267 176.507 248.764 172.386 254.747 170.446C261.403 168.288 266.729 172.238 268.524 178.577C268.775 179.442 270.122 179.075 269.875 178.207Z" fill="#1F1E21"/>
<path d="M230.136 225.323C235.137 221.164 245.779 220.299 251.876 219.831C258.864 219.294 266.125 219.773 273.122 220.057C279.942 220.334 286.679 221.32 293.521 221.216C299.524 221.124 305.206 219.619 311.09 218.707C311.978 218.57 311.6 217.225 310.72 217.361C302.846 218.58 295.468 220.061 287.438 219.736C279.853 219.428 272.337 218.644 264.737 218.483C257.542 218.33 250.606 218.276 243.505 219.562C238.823 220.408 232.912 221.207 229.148 224.337C228.455 224.912 229.449 225.894 230.136 225.323Z" fill="#1F1E21"/>
<path d="M234.481 229.967C240.795 228.458 246.969 226.833 253.479 226.418C260.341 225.979 267.282 227.136 274.135 227.387C281.037 227.64 287.994 227.453 294.892 227.201C300.36 227.001 305.854 226.873 311.089 225.129C311.939 224.845 311.575 223.497 310.718 223.781C304.968 225.698 298.823 225.661 292.823 225.88C285.915 226.133 278.963 226.167 272.055 225.914C265.145 225.661 258.35 224.71 251.422 225.153C245.548 225.528 239.802 227.261 234.108 228.623C233.235 228.83 233.606 230.177 234.481 229.967Z" fill="#1F1E21"/>
<path d="M236.438 236.156C242.873 236.747 248.982 235.462 255.294 234.393C262.628 233.15 269.867 233.697 277.215 234.398C288.189 235.446 303.872 237.604 313.863 231.5C314.63 231.032 313.929 229.824 313.159 230.294C307.691 233.634 299.834 233.767 293.65 233.917C287.482 234.065 281.291 233.392 275.16 232.805C269.125 232.229 263.23 232.01 257.194 232.712C250.196 233.526 243.547 235.412 236.437 234.759C235.542 234.679 235.55 236.075 236.438 236.156Z" fill="#1F1E21"/>
<path d="M233.762 223.147C234.854 224.933 236.151 226.588 237.113 228.451C237.527 229.251 238.731 228.545 238.319 227.748C237.356 225.883 236.059 224.228 234.968 222.441C234.5 221.674 233.291 222.376 233.762 223.147Z" fill="#1F1E21"/>
<path d="M242.35 220.877C243.021 222.678 244.342 224.315 244.489 226.276C244.556 227.169 245.952 227.175 245.885 226.276C245.724 224.118 244.429 222.474 243.696 220.506C243.384 219.669 242.035 220.031 242.35 220.877Z" fill="#1F1E21"/>
<path d="M250.588 219.962C250.897 221.752 251.621 223.456 251.61 225.293C251.604 226.193 253.001 226.192 253.006 225.293C253.018 223.324 252.266 221.507 251.934 219.592C251.781 218.706 250.435 219.082 250.588 219.962Z" fill="#1F1E21"/>
<path d="M235.878 227.506C236.179 227.444 236.484 227.418 236.786 227.367C237.673 227.214 237.296 225.869 236.415 226.02C236.114 226.072 235.808 226.097 235.507 226.159C234.625 226.342 234.999 227.687 235.878 227.506Z" fill="#1F1E21"/>
<path d="M234.273 225.687C234.603 225.609 234.919 225.486 235.25 225.408C236.126 225.2 235.755 223.854 234.879 224.061C234.549 224.139 234.232 224.262 233.902 224.34C233.025 224.548 233.397 225.894 234.273 225.687Z" fill="#1F1E21"/>
<path d="M242.673 225.362C243.208 225.421 243.741 225.432 244.279 225.433C245.18 225.433 245.18 224.037 244.279 224.036C243.742 224.036 243.209 224.026 242.673 223.966C241.78 223.867 241.789 225.263 242.673 225.362Z" fill="#1F1E21"/>
<path d="M242.185 223.279C242.72 223.22 243.253 223.209 243.792 223.209C244.692 223.208 244.692 221.812 243.792 221.812C243.254 221.814 242.72 221.824 242.185 221.883C241.299 221.98 241.291 223.377 242.185 223.279Z" fill="#1F1E21"/>
<path d="M250.213 224.123C250.633 224.113 251.049 224.064 251.469 224.053C252.369 224.03 252.371 222.634 251.469 222.657C251.049 222.667 250.633 222.716 250.213 222.727C249.314 222.75 249.311 224.147 250.213 224.123Z" fill="#1F1E21"/>
<path d="M249.656 222.143C250.213 222.205 250.77 222.214 251.331 222.214C252.231 222.215 252.231 220.817 251.331 220.817C250.77 220.816 250.213 220.808 249.656 220.747C248.761 220.65 248.771 222.046 249.656 222.143Z" fill="#1F1E21"/>
<path d="M259.802 219.546C260.186 221.391 260.065 223.283 260.056 225.155C260.052 226.056 261.449 226.055 261.452 225.155C261.461 223.152 261.559 221.15 261.147 219.175C260.965 218.294 259.619 218.668 259.802 219.546Z" fill="#1F1E21"/>
<path d="M258.964 223.612C259.418 223.699 259.873 223.764 260.336 223.776C261.238 223.799 261.236 222.403 260.336 222.38C259.996 222.371 259.67 222.329 259.336 222.265C258.454 222.096 258.08 223.442 258.964 223.612Z" fill="#1F1E21"/>
<path d="M259.103 221.784C259.453 221.854 259.801 221.923 260.151 221.994C261.03 222.17 261.404 220.824 260.522 220.648C260.172 220.577 259.823 220.508 259.474 220.438C258.595 220.261 258.221 221.607 259.103 221.784Z" fill="#1F1E21"/>
<path d="M267.807 219.864C267.979 221.648 268.556 223.886 267.902 225.614C267.581 226.456 268.931 226.818 269.247 225.984C269.957 224.115 269.388 221.789 269.203 219.864C269.117 218.976 267.721 218.968 267.807 219.864Z" fill="#1F1E21"/>
<path d="M267.062 224.444C267.457 224.511 267.853 224.586 268.249 224.654C269.129 224.805 269.507 223.459 268.62 223.308C268.223 223.24 267.829 223.166 267.433 223.098C266.552 222.947 266.175 224.293 267.062 224.444Z" fill="#1F1E21"/>
<path d="M266.992 222.194C267.448 222.272 267.901 222.348 268.365 222.359C269.266 222.382 269.264 220.986 268.365 220.962C268.025 220.953 267.698 220.904 267.364 220.847C266.483 220.699 266.106 222.045 266.992 222.194Z" fill="#1F1E21"/>
<path d="M275.301 220.376C275.653 222.282 275.488 224.183 275.162 226.078C275.01 226.96 276.356 227.335 276.508 226.449C276.879 224.294 277.046 222.168 276.647 220.004C276.484 219.12 275.138 219.497 275.301 220.376Z" fill="#1F1E21"/>
<path d="M275.066 225.092C275.346 225.092 275.625 225.092 275.904 225.092C276.804 225.092 276.804 223.695 275.904 223.695C275.625 223.695 275.346 223.695 275.066 223.695C274.166 223.694 274.166 225.092 275.066 225.092Z" fill="#1F1E21"/>
<path d="M274.602 223.037C275.06 223.11 275.51 223.13 275.975 223.132C276.875 223.133 276.875 221.738 275.975 221.735C275.642 221.735 275.304 221.744 274.974 221.691C274.093 221.545 273.715 222.891 274.602 223.037Z" fill="#1F1E21"/>
<path d="M282.957 220.769C282.941 222.628 282.751 224.468 282.493 226.308C282.369 227.189 283.715 227.567 283.839 226.679C284.115 224.715 284.336 222.755 284.353 220.769C284.36 219.868 282.964 219.869 282.957 220.769Z" fill="#1F1E21"/>
<path d="M282.212 224.907C282.633 224.985 282.999 224.985 283.42 224.907C284.305 224.742 283.929 223.395 283.05 223.561C282.893 223.598 282.739 223.598 282.583 223.561C281.704 223.396 281.327 224.742 282.212 224.907Z" fill="#1F1E21"/>
<path d="M282.141 223.238C282.49 223.308 282.839 223.377 283.188 223.448C284.067 223.624 284.441 222.278 283.559 222.101C283.209 222.03 282.86 221.961 282.511 221.891C281.633 221.716 281.259 223.061 282.141 223.238Z" fill="#1F1E21"/>
<path d="M290.8 221.017C291.099 222.725 291.048 224.451 290.8 226.161C290.673 227.043 292.018 227.42 292.146 226.532C292.433 224.557 292.492 222.618 292.146 220.645C291.991 219.761 290.645 220.137 290.8 221.017Z" fill="#1F1E21"/>
<path d="M289.588 225.08C290.193 225.14 290.797 225.151 291.404 225.151C292.304 225.151 292.304 223.755 291.404 223.754C290.797 223.754 290.193 223.745 289.588 223.684C288.693 223.593 288.702 224.991 289.588 225.08Z" fill="#1F1E21"/>
<path d="M289.868 223.334C290.333 223.334 290.798 223.334 291.264 223.334C292.164 223.334 292.164 221.938 291.264 221.938C290.798 221.938 290.333 221.938 289.868 221.938C288.967 221.938 288.967 223.334 289.868 223.334Z" fill="#1F1E21"/>
<path d="M298.2 220.953C298.735 222.703 298.644 224.395 298.27 226.167C298.083 227.046 299.429 227.419 299.616 226.538C300.041 224.531 300.153 222.566 299.547 220.582C299.284 219.724 297.936 220.091 298.2 220.953Z" fill="#1F1E21"/>
<path d="M297.757 224.654C298.2 224.645 298.64 224.594 299.084 224.584C299.983 224.565 299.985 223.169 299.084 223.188C298.64 223.197 298.2 223.248 297.757 223.258C296.858 223.277 296.855 224.674 297.757 224.654Z" fill="#1F1E21"/>
<path d="M297.547 222.995C298.018 222.936 298.472 222.936 298.943 222.995C299.836 223.107 299.825 221.709 298.943 221.599C298.472 221.54 298.018 221.54 297.547 221.599C296.666 221.709 296.655 223.107 297.547 222.995Z" fill="#1F1E21"/>
<path d="M304.972 219.79C305.712 221.497 305.687 223.241 305.391 225.046C305.247 225.927 306.592 226.304 306.737 225.417C307.1 223.2 307.083 221.171 306.178 219.084C305.821 218.262 304.619 218.973 304.972 219.79Z" fill="#1F1E21"/>
<path d="M305.087 224.03C305.414 224.016 305.737 223.972 306.064 223.959C306.962 223.929 306.965 222.532 306.064 222.563C305.737 222.574 305.414 222.619 305.087 222.633C304.19 222.671 304.185 224.067 305.087 224.03Z" fill="#1F1E21"/>
<path d="M304.783 221.795C305.163 221.721 305.536 221.646 305.9 221.516C306.742 221.214 306.38 219.865 305.53 220.17C305.165 220.3 304.791 220.374 304.413 220.449C303.529 220.621 303.904 221.967 304.783 221.795Z" fill="#1F1E21"/>
<path d="M240.046 228.735C241.295 230.726 241.342 233.085 241.347 235.364C241.349 236.265 242.746 236.265 242.743 235.364C242.738 232.84 242.632 230.23 241.252 228.031C240.774 227.271 239.565 227.97 240.046 228.735Z" fill="#1F1E21"/>
<path d="M239.812 232.412C240.439 232.349 241.068 232.342 241.698 232.342C242.598 232.34 242.598 230.945 241.698 230.945C241.068 230.946 240.44 230.953 239.812 231.016C238.924 231.104 238.915 232.5 239.812 232.412Z" fill="#1F1E21"/>
<path d="M239.717 230.71C240.167 230.646 240.618 230.583 241.068 230.525C241.445 230.477 241.766 230.245 241.766 229.827C241.766 229.482 241.446 229.081 241.068 229.129C240.494 229.203 239.919 229.282 239.346 229.363C238.969 229.417 238.768 229.891 238.859 230.222C238.969 230.622 239.341 230.763 239.717 230.71Z" fill="#1F1E21"/>
<path d="M247.307 227.025C248.235 229.495 248.251 231.988 248.12 234.589C248.074 235.489 249.47 235.484 249.516 234.589C249.654 231.868 249.623 229.234 248.653 226.653C248.34 225.818 246.989 226.18 247.307 227.025Z" fill="#1F1E21"/>
<path d="M246.513 232.982C247.282 233.045 248.055 232.974 248.793 232.747C249.651 232.484 249.285 231.137 248.422 231.401C247.792 231.595 247.168 231.638 246.513 231.586C245.614 231.513 245.622 232.911 246.513 232.982Z" fill="#1F1E21"/>
<path d="M247.002 230.528C247.586 230.513 248.162 230.403 248.748 230.389C249.647 230.367 249.649 228.971 248.748 228.992C248.162 229.007 247.587 229.116 247.002 229.132C246.103 229.156 246.1 230.552 247.002 230.528Z" fill="#1F1E21"/>
<path d="M255.336 226.117C256.209 228.43 255.766 230.722 255.729 233.121C255.715 234.023 257.112 234.021 257.125 233.121C257.163 230.591 257.601 228.18 256.681 225.746C256.367 224.913 255.016 225.273 255.336 226.117Z" fill="#1F1E21"/>
<path d="M254.473 231.715C254.987 231.714 255.498 231.708 256.009 231.645C256.89 231.535 256.901 230.138 256.009 230.248C255.498 230.311 254.987 230.318 254.473 230.318C253.572 230.32 253.572 231.715 254.473 231.715Z" fill="#1F1E21"/>
<path d="M254.96 229.42C255.332 229.42 255.704 229.42 256.077 229.42C256.977 229.42 256.977 228.023 256.077 228.023C255.704 228.023 255.332 228.023 254.96 228.023C254.06 228.023 254.06 229.42 254.96 229.42Z" fill="#1F1E21"/>
<path d="M264.316 226.765C264.569 228.676 264.591 230.576 264.062 232.444C263.816 233.311 265.163 233.68 265.408 232.814C265.969 230.832 265.979 228.797 265.712 226.765C265.596 225.886 264.199 225.876 264.316 226.765Z" fill="#1F1E21"/>
<path d="M263.199 231.309C263.757 231.379 264.316 231.448 264.874 231.519C265.766 231.63 265.756 230.233 264.874 230.122C264.316 230.052 263.757 229.983 263.199 229.912C262.308 229.802 262.318 231.198 263.199 231.309Z" fill="#1F1E21"/>
<path d="M263.617 229.769C264.089 229.71 264.542 229.71 265.014 229.769C265.905 229.88 265.895 228.482 265.014 228.373C264.542 228.313 264.089 228.313 263.617 228.373C262.736 228.483 262.726 229.88 263.617 229.769Z" fill="#1F1E21"/>
<path d="M271.81 227.424C272.126 229.206 272.125 231.054 271.531 232.777C271.236 233.632 272.586 233.994 272.877 233.148C273.554 231.185 273.516 229.076 273.156 227.052C272.999 226.167 271.654 226.543 271.81 227.424Z" fill="#1F1E21"/>
<path d="M270.901 231.349C271.336 231.42 271.763 231.443 272.204 231.444C273.104 231.445 273.104 230.049 272.204 230.048C271.893 230.047 271.579 230.053 271.272 230.003C270.392 229.859 270.014 231.204 270.901 231.349Z" fill="#1F1E21"/>
<path d="M270.877 229.615C271.249 229.615 271.621 229.615 271.994 229.615C272.895 229.615 272.895 228.219 271.994 228.219C271.621 228.219 271.249 228.219 270.877 228.219C269.977 228.219 269.977 229.615 270.877 229.615Z" fill="#1F1E21"/>
<path d="M280.164 227.244C280.275 229.231 280.112 231.202 279.282 233.034C278.914 233.847 280.117 234.559 280.488 233.739C281.424 231.669 281.685 229.497 281.561 227.242C281.511 226.349 280.114 226.343 280.164 227.244Z" fill="#1F1E21"/>
<path d="M278.999 231.9C279.317 231.961 279.629 231.993 279.953 231.995C280.855 232 280.854 230.604 279.953 230.599C279.753 230.597 279.567 230.592 279.371 230.554C278.491 230.384 278.116 231.729 278.999 231.9Z" fill="#1F1E21"/>
<path d="M279.327 230.185C279.628 230.185 279.932 230.185 280.235 230.185C281.135 230.185 281.135 228.789 280.235 228.789C279.932 228.789 279.629 228.789 279.327 228.789C278.426 228.789 278.426 230.185 279.327 230.185Z" fill="#1F1E21"/>
<path d="M287.309 227.586C287.997 229.791 287.696 231.855 287.17 234.057C286.96 234.933 288.307 235.304 288.516 234.428C289.099 231.985 289.418 229.657 288.655 227.215C288.388 226.357 287.04 226.723 287.309 227.586Z" fill="#1F1E21"/>
<path d="M286.679 232.892C287.232 232.969 287.769 232.999 288.307 232.822C289.159 232.544 288.795 231.195 287.936 231.476C287.645 231.571 287.355 231.587 287.05 231.546C286.674 231.494 286.302 231.631 286.192 232.033C286.102 232.364 286.303 232.84 286.679 232.892Z" fill="#1F1E21"/>
<path d="M286.61 230.505C287.093 230.572 287.565 230.6 288.052 230.6C288.954 230.602 288.952 229.205 288.052 229.204C287.696 229.203 287.335 229.208 286.981 229.159C286.604 229.107 286.233 229.245 286.123 229.647C286.031 229.978 286.233 230.453 286.61 230.505Z" fill="#1F1E21"/>
<path d="M295.477 227.232C296.282 229.304 296.14 231.846 295.267 233.885C294.917 234.703 296.121 235.415 296.473 234.59C297.488 232.217 297.77 229.301 296.822 226.861C296.501 226.03 295.15 226.392 295.477 227.232Z" fill="#1F1E21"/>
<path d="M294.988 232.807C295.657 232.9 296.19 232.789 296.715 232.348C297.405 231.769 296.412 230.787 295.726 231.362C295.626 231.446 295.488 231.479 295.359 231.461C294.982 231.409 294.61 231.546 294.501 231.949C294.409 232.278 294.61 232.756 294.988 232.807Z" fill="#1F1E21"/>
<path d="M294.964 230.605C295.435 230.546 295.889 230.546 296.36 230.605C297.253 230.716 297.242 229.319 296.36 229.208C295.889 229.149 295.435 229.149 294.964 229.208C294.082 229.319 294.071 230.716 294.964 230.605Z" fill="#1F1E21"/>
<path d="M302.668 227.125C303.661 228.618 304.482 231.267 303.646 232.983C303.252 233.788 304.458 234.498 304.852 233.688C305.921 231.496 305.17 228.372 303.875 226.42C303.379 225.674 302.169 226.374 302.668 227.125Z" fill="#1F1E21"/>
<path d="M302.688 229.603C302.839 229.577 303.267 229.4 303.408 229.462C304.222 229.826 304.932 228.623 304.112 228.257C303.484 227.974 302.966 228.142 302.319 228.256C301.432 228.412 301.808 229.758 302.688 229.603Z" fill="#1F1E21"/>
<path d="M303.317 231.489C303.841 231.357 304.354 231.207 304.853 231C305.205 230.855 305.451 230.543 305.34 230.142C305.248 229.808 304.834 229.509 304.482 229.655C303.983 229.862 303.469 230.01 302.946 230.145C302.074 230.365 302.445 231.712 303.317 231.489Z" fill="#1F1E21"/>
<path d="M309.53 227.992C310.126 227.844 310.681 227.581 311.276 227.433C312.15 227.216 311.779 225.869 310.905 226.086C310.31 226.233 309.755 226.497 309.16 226.645C308.286 226.862 308.657 228.208 309.53 227.992Z" fill="#1F1E21"/>
<path d="M310.786 229.735C311.449 229.504 312.08 229.199 312.741 228.967C313.586 228.672 313.223 227.323 312.37 227.621C311.708 227.851 311.077 228.157 310.415 228.388C309.572 228.683 309.935 230.033 310.786 229.735Z" fill="#1F1E21"/>
<path d="M311.091 224.385C314.163 217.473 321.702 213.005 328.684 211.121C332.803 210.004 336.992 209.585 340.831 211.889C343.136 213.146 344.253 215.311 343.973 217.964C343.345 223.48 336.713 226.97 332.035 228.436C327.986 229.692 323.797 230.111 319.538 230.111C317.792 230.111 315.768 229.901 314.161 230.32M313.325 228.017C314.163 227.738 315.14 227.598 316.048 227.388C319.958 226.48 323.798 225.084 327.708 224.106C329.733 223.548 339.367 221.243 336.993 217.683C335.876 216.077 332.734 216.496 331.198 216.775C329.104 217.194 327.149 217.963 325.263 218.94C321.144 220.965 315.769 223.339 312.906 227.038" fill="white"/>
<path d="M311.694 224.742C314.187 219.776 318.165 216.494 323.032 213.973C328.199 211.298 345.503 207.166 343.022 219.118C341.904 224.507 334.316 227.086 329.814 228.326C324.563 229.772 319.26 228.913 313.977 229.651C313.088 229.775 313.468 231.12 314.348 230.997C323.031 229.784 330.784 230.847 338.677 226.155C343.213 223.46 346.214 218.485 343.615 213.458C340.725 207.868 331.584 209.543 326.995 210.896C320.034 212.951 313.765 217.511 310.488 224.038C310.086 224.839 311.29 225.547 311.694 224.742Z" fill="#1F1E21"/>
<path d="M313.51 228.691C319.803 227.088 326.198 225.562 332.346 223.442C334.362 222.748 338.782 221.09 337.974 218.153C335.623 209.605 315.071 223.457 312.411 226.548C311.828 227.227 312.811 228.219 313.4 227.535C316.093 224.402 319.619 222.503 323.266 220.69C325.412 219.623 327.558 218.581 329.837 217.828C330.912 217.504 332.012 217.304 333.133 217.231C335.846 216.961 336.767 219.648 334.503 220.994C332.41 222.236 329.855 222.806 327.521 223.436C322.718 224.729 317.958 226.118 313.14 227.345C312.267 227.569 312.638 228.913 313.51 228.691Z" fill="#1F1E21"/>
<path d="M314.117 220.202C314.682 221.352 315.13 222.556 315.723 223.693C316.14 224.492 317.344 223.785 316.93 222.989C316.338 221.852 315.888 220.648 315.325 219.497C314.927 218.689 313.722 219.398 314.117 220.202Z" fill="#1F1E21"/>
<path d="M322.145 214.031C322.64 215.643 322.926 217.458 323.891 218.876C324.395 219.615 325.604 218.918 325.097 218.171C324.201 216.856 323.952 215.156 323.491 213.661C323.227 212.803 321.879 213.168 322.145 214.031Z" fill="#1F1E21"/>
<path d="M334.922 210.644C334.586 212.329 333.774 213.858 333.571 215.577C333.465 216.471 334.863 216.46 334.967 215.577C335.153 213.998 335.959 212.569 336.268 211.015C336.444 210.136 335.098 209.762 334.922 210.644Z" fill="#1F1E21"/>
<path d="M337.782 219.342C339.484 219.621 341.202 219.712 342.925 219.786C343.826 219.825 343.822 218.428 342.925 218.389C341.329 218.32 339.732 218.254 338.153 217.995C337.273 217.852 336.895 219.197 337.782 219.342Z" fill="#1F1E21"/>
<path d="M334.642 222.439C335.336 223.496 335.913 224.619 336.528 225.721C336.967 226.507 338.174 225.803 337.734 225.016C337.118 223.914 336.543 222.791 335.85 221.734C335.357 220.986 334.148 221.685 334.642 222.439Z" fill="#1F1E21"/>
<path d="M326.195 225.135C326.42 226.414 326.914 227.638 327.078 228.928C327.19 229.809 328.588 229.82 328.474 228.928C328.294 227.508 327.789 226.169 327.541 224.764C327.386 223.877 326.041 224.254 326.195 225.135Z" fill="#1F1E21"/>
<path d="M324.355 217.687C324.976 217.676 325.537 217.568 326.103 217.313C326.923 216.943 326.212 215.741 325.398 216.108C325.067 216.256 324.712 216.285 324.353 216.292C323.455 216.309 323.453 217.705 324.355 217.687Z" fill="#1F1E21"/>
<path d="M324.33 215.494C324.75 215.319 325.152 215.183 325.611 215.17C326.51 215.145 326.512 213.749 325.611 213.774C325.027 213.791 324.497 213.923 323.959 214.148C323.608 214.294 323.36 214.605 323.472 215.007C323.563 215.338 323.979 215.64 324.33 215.494Z" fill="#1F1E21"/>
<path d="M316.958 222.335C317.497 222.065 318.037 221.794 318.564 221.498C319.348 221.055 318.645 219.849 317.859 220.291C317.332 220.587 316.794 220.859 316.253 221.129C315.448 221.532 316.155 222.736 316.958 222.335Z" fill="#1F1E21"/>
<path d="M335.409 214.732C335.923 214.814 336.429 214.939 336.945 215.012C337.321 215.065 337.693 214.926 337.804 214.523C337.895 214.193 337.693 213.718 337.316 213.664C336.8 213.592 336.295 213.467 335.78 213.385C334.9 213.246 334.522 214.59 335.409 214.732Z" fill="#1F1E21"/>
<path d="M336.178 212.85C336.553 212.934 336.919 213.045 337.295 213.129C338.171 213.325 338.544 211.979 337.665 211.783C337.29 211.699 336.924 211.588 336.548 211.504C335.672 211.307 335.298 212.653 336.178 212.85Z" fill="#1F1E21"/>
<path d="M339.18 219.36C338.912 219.818 338.612 220.233 338.242 220.616C337.617 221.264 338.604 222.252 339.23 221.603C339.678 221.137 340.059 220.621 340.386 220.065C340.844 219.288 339.637 218.585 339.18 219.36Z" fill="#1F1E21"/>
<path d="M334.621 224.373C334.905 224.21 335.197 224.076 335.501 223.954C336.325 223.623 335.965 222.272 335.13 222.608C334.714 222.774 334.306 222.945 333.916 223.166C333.134 223.612 333.836 224.819 334.621 224.373Z" fill="#1F1E21"/>
<path d="M324.495 228.021C325.099 227.96 325.703 227.951 326.31 227.951C327.21 227.95 327.21 226.555 326.31 226.555C325.703 226.555 325.099 226.565 324.495 226.625C323.608 226.714 323.599 228.111 324.495 228.021Z" fill="#1F1E21"/>
<path d="M314.792 230.741C315.071 231.858 315.769 232.487 316.607 233.185C317.444 233.883 317.863 234.652 318.492 235.559C320.098 237.584 322.122 239.329 323.868 241.284C327.359 245.124 331.199 248.405 335.249 251.686C342.859 257.762 352.912 259.577 362.406 258.46C363.942 258.32 366.595 258.46 367.573 256.993C368.131 256.155 368.341 253.291 367.363 252.873C366.944 252.663 365.268 253.083 364.779 253.083C363.731 253.222 362.754 253.153 361.707 253.153C359.263 253.083 356.89 253.153 354.516 252.664C350.606 251.966 346.766 251.267 342.996 250.081C338.318 248.615 334.269 245.753 330.499 242.611C328.963 241.284 327.776 239.468 326.171 238.282C324.774 237.234 323.587 236.467 322.47 235.14C321.282 233.744 320.305 231.929 319.188 230.602" fill="white"/>
<path d="M314.187 231.095C316.502 235.668 321.216 239.476 324.697 243.193C328.966 247.752 333.986 252.144 339.411 255.267C344.191 258.019 349.793 259.064 355.224 259.427C357.836 259.601 365.038 260.263 367.297 258.191C368.487 257.099 369.606 254.36 368.304 252.89C367.651 252.153 367.606 252.191 366.611 252.138C363.854 251.995 360.892 252.448 358.082 252.369C342.133 251.925 328.979 242.6 319.791 230.253C319.259 229.539 318.046 230.234 318.584 230.956C323.718 237.854 330.153 244.101 337.626 248.506C345.277 253.014 356.042 254.279 364.776 253.784C366.948 253.66 368.362 256.337 365.585 257.433C363.792 258.139 360.72 257.933 358.821 258.044C352.333 258.42 345.901 256.96 340.116 254.063C335.219 251.61 330.966 247.345 327.041 243.577C323.157 239.852 317.85 235.249 315.393 230.393C314.986 229.587 313.781 230.294 314.187 231.095Z" fill="#1F1E21"/>
<path d="M320.94 237.597C321.579 237.078 322.174 236.511 322.892 236.1C323.673 235.653 322.97 234.447 322.187 234.895C321.368 235.364 320.682 236.016 319.951 236.61C319.253 237.177 320.247 238.159 320.94 237.597Z" fill="#1F1E21"/>
<path d="M327.921 244.648C328.489 244.124 328.947 243.409 329.665 243.08C330.483 242.706 329.773 241.503 328.96 241.875C328.126 242.257 327.591 243.053 326.933 243.659C326.271 244.272 327.261 245.258 327.921 244.648Z" fill="#1F1E21"/>
<path d="M335.042 250.915C335.8 249.981 336.24 248.843 336.996 247.912C337.558 247.221 336.576 246.227 336.008 246.926C335.249 247.859 334.809 248.997 334.053 249.927C333.492 250.62 334.474 251.614 335.042 250.915Z" fill="#1F1E21"/>
<path d="M345.623 256.06C345.969 254.712 346.181 253.29 346.809 252.037C347.21 251.233 346.006 250.526 345.603 251.332C344.916 252.705 344.654 254.214 344.276 255.688C344.053 256.562 345.399 256.931 345.623 256.06Z" fill="#1F1E21"/>
<path d="M356.05 253.783C356.15 255.362 355.786 256.898 355.631 258.462C355.543 259.358 356.939 259.349 357.027 258.462C357.182 256.897 357.547 255.364 357.446 253.783C357.389 252.888 355.993 252.882 356.05 253.783Z" fill="#1F1E21"/>
<path d="M357.586 257.561C358.029 257.573 358.446 257.595 358.888 257.535C359.267 257.484 359.467 257.004 359.375 256.677C359.264 256.274 358.893 256.139 358.517 256.189C358.214 256.229 357.89 256.171 357.586 256.164C356.684 256.139 356.687 257.536 357.586 257.561Z" fill="#1F1E21"/>
<path d="M357.586 255.746C358.24 255.661 358.881 255.487 359.541 255.467C360.44 255.442 360.443 254.045 359.541 254.071C358.874 254.09 358.243 254.264 357.586 254.35C357.209 254.399 356.888 254.629 356.888 255.048C356.888 255.392 357.208 255.796 357.586 255.746Z" fill="#1F1E21"/>
<path d="M345.881 255.782C346.473 255.993 347.083 256.135 347.696 256.271C348.573 256.467 348.946 255.121 348.067 254.924C347.453 254.787 346.844 254.646 346.252 254.435C345.403 254.131 345.04 255.481 345.881 255.782Z" fill="#1F1E21"/>
<path d="M346.23 254.178C346.801 254.329 347.353 254.529 347.906 254.736C348.75 255.053 349.112 253.702 348.277 253.389C347.725 253.182 347.173 252.982 346.601 252.831C345.73 252.602 345.36 253.949 346.23 254.178Z" fill="#1F1E21"/>
<path d="M335.313 250.543C335.805 250.818 336.312 251.061 336.779 251.381C337.524 251.89 338.222 250.681 337.484 250.175C337.017 249.855 336.511 249.612 336.017 249.337C335.229 248.898 334.525 250.104 335.313 250.543Z" fill="#1F1E21"/>
<path d="M328.541 244.256C328.811 244.458 329.081 244.651 329.379 244.814C330.169 245.245 330.873 244.041 330.083 243.608C329.786 243.445 329.516 243.253 329.246 243.049C328.523 242.51 327.828 243.723 328.541 244.256Z" fill="#1F1E21"/>
<path d="M321.488 237.516C321.78 237.859 322.114 238.143 322.465 238.423C323.161 238.982 324.155 238 323.454 237.437C323.104 237.156 322.768 236.873 322.476 236.529C321.891 235.842 320.908 236.834 321.488 237.516Z" fill="#1F1E21"/>
<path d="M319.608 230.953C320.865 232.908 322.68 234.095 324.495 235.491C327.078 237.446 329.661 239.332 332.314 241.216C334.898 243.171 337.83 244.427 340.762 245.684C343.415 246.801 345.788 247.918 348.651 248.406C351.375 248.895 354.097 249.175 356.889 248.895C358.635 248.756 360.149 248.384 362.614 247.849C367.154 246.864 368.061 246.708 367.874 243.544C367.709 240.755 359.822 242.474 358.215 242.683C353.887 243.381 350.117 242.683 345.928 241.495C343.903 240.868 342.158 239.68 340.203 238.842C338.388 238.074 336.433 237.515 334.548 236.888C331.895 236.05 329.451 235.072 327.077 233.676C325.75 232.908 324.564 232.14 323.587 230.953C323.307 230.603 323.028 230.115 322.679 229.906" fill="white"/>
<path d="M319.114 231.443C322.43 235.713 327.611 238.707 331.962 241.815C336.321 244.931 341.679 247.148 346.8 248.713C351.417 250.124 356.452 249.863 361.11 248.887C362.847 248.524 368.055 248.263 368.442 245.594C369.264 239.929 363.181 241.184 359.292 241.802C352.394 242.899 346.73 241.16 340.557 238.235C334.434 235.334 327.872 234.828 323.175 229.409C322.584 228.727 321.601 229.719 322.187 230.396C327.241 236.227 334.642 236.973 341.286 240.121C347.26 242.951 353.043 244.246 359.664 243.148C360.965 242.932 362.27 242.779 363.585 242.682C365.554 242.292 366.088 243.574 365.193 246.527C364.278 246.767 363.358 246.982 362.429 247.171C356.666 248.438 351.321 248.634 345.588 246.882C336.837 244.207 325.759 237.738 320.105 230.456C319.549 229.746 318.569 230.741 319.114 231.443Z" fill="#1F1E21"/>
<path d="M327.681 237.228C328.189 236.56 328.615 235.835 329.077 235.134C329.574 234.38 328.365 233.682 327.871 234.43C327.41 235.131 326.984 235.855 326.475 236.524C325.931 237.241 327.144 237.935 327.681 237.228Z" fill="#1F1E21"/>
<path d="M338.084 243.878C338.91 242.29 339.688 240.668 340.247 238.964C340.53 238.107 339.182 237.742 338.901 238.594C338.377 240.183 337.649 241.691 336.876 243.175C336.463 243.971 337.667 244.678 338.084 243.878Z" fill="#1F1E21"/>
<path d="M349.419 243.308C349.433 244.94 348.753 246.428 348.466 248.01C348.306 248.89 349.651 249.266 349.812 248.38C350.121 246.672 350.829 245.072 350.814 243.308C350.807 242.408 349.411 242.408 349.419 243.308Z" fill="#1F1E21"/>
<path d="M350.256 247.143C350.838 247.201 351.418 247.212 352.002 247.213C352.903 247.213 352.903 245.817 352.002 245.817C351.418 245.816 350.838 245.804 350.256 245.746C349.361 245.656 349.37 247.053 350.256 247.143Z" fill="#1F1E21"/>
<path d="M351.094 245.183C351.589 245.145 352.067 245.295 352.561 245.254C353.451 245.178 353.459 243.78 352.561 243.858C352.068 243.9 351.59 243.75 351.094 243.787C350.202 243.854 350.195 245.252 351.094 245.183Z" fill="#1F1E21"/>
<path d="M338.621 243.222C339.088 243.357 339.551 243.505 340.017 243.641C340.883 243.893 341.252 242.545 340.388 242.294C339.921 242.159 339.459 242.011 338.992 241.875C338.126 241.623 337.759 242.972 338.621 243.222Z" fill="#1F1E21"/>
<path d="M339.362 241.395C339.966 241.697 340.574 241.989 341.204 242.233C342.044 242.561 342.404 241.209 341.574 240.887C341.057 240.685 340.562 240.437 340.065 240.19C339.263 239.788 338.555 240.991 339.362 241.395Z" fill="#1F1E21"/>
<path d="M327.913 237.135C328.514 237.485 329.175 237.669 329.825 237.904C330.674 238.21 331.037 236.86 330.196 236.558C329.66 236.363 329.113 236.218 328.617 235.929C327.837 235.474 327.134 236.682 327.913 237.135Z" fill="#1F1E21"/>
<path d="M357.657 243.664C357.776 245.153 357.667 246.642 357.657 248.132C357.65 249.032 359.046 249.031 359.053 248.132C359.063 246.642 359.172 245.153 359.053 243.664C358.98 242.772 357.583 242.764 357.657 243.664Z" fill="#1F1E21"/>
<path d="M268.25 178.299C270.38 186.851 270.284 195.59 268.941 204.256C268.28 208.52 265.968 214.822 267.506 219.07C267.81 219.91 269.159 219.548 268.852 218.699C267.81 215.818 269.072 210.953 269.596 208.179C270.186 205.061 270.708 201.993 271.035 198.836C271.758 191.848 271.293 184.74 269.596 177.928C269.379 177.055 268.033 177.425 268.25 178.299Z" fill="#1F1E21"/>
<path d="M290.194 180.432C291.136 188.928 285.201 196.386 285.912 205.006C285.985 205.897 287.382 205.904 287.309 205.006C286.597 196.387 292.535 188.964 291.59 180.432C291.492 179.549 290.094 179.538 290.194 180.432Z" fill="#1F1E21"/>
<path d="M312.813 178.862C312.358 187.84 306.09 196.314 301.23 203.617C298.096 208.323 294.408 214.352 296.176 220.191C296.435 221.051 297.784 220.684 297.522 219.82C295.232 212.257 302.852 204.123 306.21 197.899C309.737 191.367 313.817 186.621 314.209 178.863C314.255 177.96 312.859 177.965 312.813 178.862Z" fill="#1F1E21"/>
<path d="M239.022 199.885C239.591 203.834 240.084 207.728 241.459 211.494C242.435 214.166 243.47 217.389 244.957 219.786C245.43 220.55 246.638 219.849 246.162 219.081C244.595 216.552 243.362 212.644 242.349 209.871C241.148 206.584 240.863 202.954 240.368 199.514C240.241 198.626 238.895 199.005 239.022 199.885Z" fill="#1F1E21"/>
<path d="M236.323 258.94C244.009 253.665 247.98 243.89 248.211 234.784C248.234 233.883 246.838 233.886 246.815 234.784C246.597 243.368 242.881 252.75 235.618 257.734C234.88 258.24 235.579 259.451 236.323 258.94Z" fill="#1F1E21"/>
<path d="M260.592 233.665C260.152 241.179 260.418 248.442 259.221 255.915C259.08 256.795 260.425 257.174 260.567 256.286C261.781 248.707 261.541 241.298 261.988 233.665C262.042 232.765 260.644 232.771 260.592 233.665Z" fill="#1F1E21"/>
<path d="M275.766 234.509C276.326 244.234 276.451 254.612 283.696 262C284.327 262.643 285.315 261.655 284.685 261.011C277.707 253.897 277.7 243.839 277.163 234.509C277.11 233.614 275.714 233.609 275.766 234.509Z" fill="#1F1E21"/>
<path d="M292.544 235.808C293.002 239.106 292.653 242.705 294.662 245.562C295.176 246.293 296.388 245.596 295.869 244.858C293.953 242.138 294.328 238.588 293.889 235.437C293.768 234.548 292.423 234.927 292.544 235.808Z" fill="#1F1E21"/>
<path d="M305.67 234.489C307.36 241.873 311.015 248.837 315.995 254.531C316.59 255.21 317.574 254.219 316.984 253.544C312.159 248.03 308.651 241.262 307.016 234.118C306.816 233.241 305.47 233.613 305.67 234.489Z" fill="#1F1E21"/>
<path d="M285.434 324.82C284.138 321.379 282.042 317.266 278.709 313.553C296.14 313.8 314.599 313.905 318.012 313.594C317.916 311.966 317.783 307.912 317.121 304.138C311.602 303.764 276.843 303.435 257.393 303.393C254.972 303.18 252.341 303.183 249.52 303.394C248.503 303.399 247.609 303.404 246.863 303.412C246.68 305.184 246.848 311.193 247.206 312.84C248.852 312.926 251.651 313.017 255.207 313.109C260.991 314.963 268.878 318.52 272.563 324.756C259.276 324.689 247.953 324.62 246.864 324.478C246.681 326.249 246.849 332.26 247.207 333.905C251.281 334.116 262.381 334.369 274.647 334.559C274.335 346.702 267.18 351.551 260.152 353.441C260.152 353.441 255.675 354.356 247.009 354.568L290.337 414.575L302.416 409.042L266.475 361.76C276.392 358.247 286.5 350.732 287.381 334.73C301.842 334.889 315.166 334.92 318.013 334.66C317.917 333.032 317.784 328.977 317.122 325.204C314.066 324.997 300.116 324.898 285.434 324.82Z" fill="#1F1E21"/>
<path d="M180.074 383.746C179.969 389.516 182.387 392.977 187.494 395.519C190.563 397.047 194.634 396.153 197.873 397.065C199.949 397.649 201.871 401.517 203.462 403.045C211.026 410.304 224.429 415.845 232.274 406.208C232.837 405.515 231.856 404.521 231.286 405.219C223.013 415.384 207.682 407.339 201.435 398.683C199.883 396.531 199.701 396.129 196.966 395.36C193.557 394.402 190.342 395.383 186.933 393.684C182.838 391.646 181.388 388.132 181.469 383.746C181.487 382.844 180.09 382.846 180.074 383.746Z" fill="#1F1E21"/>
<path d="M196.552 333.461C197.999 335.651 199.684 337.367 202.305 337.979C204.946 338.596 207.884 337.936 210.559 337.904C211.46 337.893 211.461 336.496 210.559 336.508C208.408 336.533 206.267 336.798 204.114 336.777C201.204 336.749 199.303 335.096 197.757 332.757C197.265 332.01 196.055 332.709 196.552 333.461Z" fill="#1F1E21"/>
<path d="M322.448 417.91C327.264 419.77 331.899 420.705 336.967 419.399C341.596 418.207 344.08 413.29 348.572 411.795C352.251 410.57 356.529 412.494 360.079 410.601C364.536 408.224 367.792 403.912 369.779 399.344C370.133 398.528 368.932 397.816 368.573 398.639C366.594 403.191 363.221 408.005 358.372 409.743C355.358 410.825 351.4 409.966 348.202 410.449C345.542 410.85 343.306 413.303 341.428 414.99C335.914 419.94 329.199 419.027 322.821 416.564C321.978 416.239 321.617 417.589 322.448 417.91Z" fill="#1F1E21"/>
<path d="M335.479 366.912C343.12 369.552 352.376 367.978 354.209 358.976C354.388 358.097 353.043 357.723 352.863 358.605C351.172 366.905 342.749 367.949 335.849 365.564C334.997 365.272 334.634 366.62 335.479 366.912Z" fill="#1F1E21"/>
<path d="M290.633 285.678C293.594 287.446 296.247 288.381 299.606 287.195C303.55 285.804 305.669 282.648 310.288 282.839C316.927 283.112 321.915 285.14 323.306 276.697C323.452 275.817 322.107 275.44 321.96 276.326C320.402 285.78 313.812 280.204 307.843 281.512C301.314 282.944 298.644 288.837 291.336 284.472C290.562 284.009 289.86 285.217 290.633 285.678Z" fill="#1F1E21"/>
<path d="M242.229 271.522C245.857 273.119 249.564 274.487 253.359 272.639C254.169 272.244 253.461 271.041 252.654 271.433C249.378 273.029 246.028 271.679 242.934 270.316C242.117 269.957 241.406 271.16 242.229 271.522Z" fill="#1F1E21"/>
<path d="M401.01 174.16C384.939 177.331 372.546 192.311 375.197 209.11C378.027 227.046 394.597 238.015 412.265 236.185C430.113 234.336 441.335 216.376 439.872 199.408C438.282 180.965 417.38 172.009 401.195 174.136C400.316 174.252 400.304 175.649 401.195 175.532C417.152 173.435 434.744 181.363 438.298 198.254C441.966 215.691 427.907 233.168 410.847 234.936C394.864 236.591 380.003 225.803 376.772 210.187C373.354 193.667 385.577 178.625 401.381 175.506C402.264 175.333 401.889 173.987 401.01 174.16Z" fill="#1F1E21"/>
<path d="M402.118 179.825C388.929 182.5 378.597 194.805 380.93 208.683C383.388 223.306 396.666 232.129 411.117 230.837C425.965 229.509 435.195 214.597 434.065 200.598C432.839 185.396 415.56 178.121 402.302 179.799C401.422 179.911 401.411 181.309 402.302 181.196C414.875 179.604 428.298 185.29 432.184 198.15C436.296 211.754 425.524 226.628 412.366 229.259C398.865 231.961 385.527 222.911 382.52 209.764C379.412 196.169 389.557 183.794 402.487 181.17C403.371 180.992 402.998 179.646 402.118 179.825Z" fill="#1F1E21"/>
<ellipse cx="407.408" cy="205.254" rx="25.6913" ry="24.5743" fill="#6666F2"/>
<path d="M408.862 196.035C408.476 195.01 407.852 193.786 406.859 192.681C412.049 192.754 417.545 192.785 418.56 192.694C418.532 192.209 418.493 191.001 418.295 189.879C416.652 189.767 406.304 189.67 400.513 189.657C399.792 189.593 399.008 189.594 398.168 189.658C397.865 189.659 397.599 189.66 397.377 189.663C397.322 190.191 397.374 191.98 397.48 192.47C397.97 192.496 398.804 192.523 399.861 192.551C401.584 193.103 403.933 194.161 405.03 196.018C401.073 195.998 397.702 195.978 397.377 195.935C397.322 196.463 397.374 198.252 397.48 198.742C398.693 198.805 401.998 198.881 405.65 198.937C405.557 202.551 403.427 203.996 401.335 204.559C401.335 204.559 400.002 204.831 397.422 204.894L410.322 222.76L413.919 221.113L403.218 207.035C406.171 205.99 409.18 203.752 409.442 198.987C413.747 199.034 417.714 199.044 418.561 198.967C418.533 198.482 418.494 197.275 418.297 196.152C417.387 196.087 413.233 196.058 408.862 196.035Z" fill="white"/>
<path d="M271.649 79.8934C252.287 83.2445 241.117 102.978 248.192 121.223C254.521 137.606 275 145.053 291.01 138.351C303.669 132.766 311.117 117.872 309.628 104.468C307.766 89.2026 291.01 76.9144 271.649 79.8934Z" fill="white"/>
<path d="M271.464 79.2227C255.394 82.3939 243 97.3742 245.651 114.173C248.481 132.108 265.051 143.079 282.72 141.247C300.568 139.398 311.789 121.438 310.327 104.471C308.738 86.0276 287.835 77.0713 271.651 79.1981C270.771 79.3143 270.759 80.7117 271.651 80.5944C287.607 78.4978 305.199 86.4252 308.753 103.317C312.422 120.753 298.362 138.23 281.303 139.998C265.319 141.654 250.459 130.866 247.227 115.25C243.809 98.7291 256.032 83.6874 271.836 80.5687C272.718 80.3945 272.344 79.0485 271.464 79.2227Z" fill="#1F1E21"/>
<path d="M280.35 103.388C279.964 102.363 279.341 101.139 278.348 100.034C283.537 100.107 289.033 100.138 290.049 100.047C290.022 99.5618 289.981 98.3543 289.785 97.2306C288.142 97.1189 277.794 97.0217 272.002 97.0083C271.281 96.9446 270.497 96.9457 269.657 97.0083C269.356 97.0094 269.089 97.0105 268.866 97.0139C268.812 97.5411 268.863 99.3305 268.969 99.8209C269.458 99.8466 270.293 99.8734 271.351 99.9013C273.073 100.453 275.422 101.512 276.519 103.369C272.563 103.348 269.191 103.328 268.866 103.286C268.812 103.813 268.863 105.603 268.969 106.093C270.182 106.155 273.487 106.231 277.138 106.287C277.045 109.902 274.915 111.346 272.823 111.909C272.823 111.909 271.49 112.182 268.91 112.244L281.81 130.11L285.407 128.462L274.706 114.385C277.66 113.338 280.668 111.102 280.93 106.336C285.235 106.383 289.202 106.393 290.049 106.316C290.022 105.832 289.981 104.624 289.785 103.5C288.875 103.44 284.722 103.411 280.35 103.388Z" fill="#1F1E21"/>
<path d="M272.608 84.7314C259.42 87.4066 249.087 99.7117 251.421 113.589C253.878 128.211 267.156 137.036 281.608 135.743C296.456 134.415 305.685 119.503 304.556 105.504C303.33 90.3019 286.052 83.0268 272.793 84.7057C271.912 84.8174 271.901 86.2148 272.793 86.102C285.366 84.5102 298.789 90.1958 302.675 103.056C306.787 116.66 296.014 131.534 282.857 134.166C269.356 136.867 256.017 127.818 253.01 114.672C249.903 101.077 260.048 88.7013 272.978 86.0774C273.862 85.8987 273.487 84.5538 272.608 84.7314Z" fill="#1F1E21"/>
<path d="M149.357 175.557C129.995 178.909 118.825 198.642 125.9 216.887C132.229 233.269 152.708 240.717 168.718 234.015C181.377 228.429 188.825 213.536 187.336 200.132C185.473 184.867 168.718 172.578 149.357 175.557Z" fill="white"/>
<path d="M149.172 174.88C133.101 178.051 120.708 193.03 123.358 209.829C126.189 227.764 142.759 238.735 160.428 236.905C178.275 235.055 189.497 217.094 188.035 200.127C186.445 181.684 165.542 172.728 149.358 174.854C148.479 174.971 148.467 176.368 149.358 176.251C165.315 174.154 182.906 182.081 186.461 198.973C190.129 216.41 176.069 233.886 159.01 235.655C143.027 237.31 128.166 226.522 124.935 210.906C121.517 194.385 133.74 179.344 149.544 176.225C150.426 176.052 150.051 174.706 149.172 174.88Z" fill="#1F1E21"/>
<path d="M158.058 199.045C157.672 198.02 157.049 196.796 156.056 195.69C161.245 195.763 166.741 195.794 167.757 195.703C167.73 195.218 167.689 194.01 167.493 192.887C165.85 192.775 155.502 192.678 149.71 192.664C148.989 192.601 148.205 192.602 147.365 192.666C147.063 192.667 146.797 192.668 146.574 192.671C146.52 193.198 146.571 194.988 146.677 195.478C147.166 195.504 148.001 195.531 149.059 195.559C150.781 196.11 153.13 197.169 154.227 199.026C150.271 199.006 146.901 198.986 146.576 198.943C146.521 199.47 146.572 201.26 146.678 201.75C147.891 201.813 151.197 201.889 154.847 201.945C154.754 205.559 152.624 207.003 150.532 207.566C150.532 207.566 149.199 207.839 146.619 207.902L159.519 225.767L163.116 224.121L152.415 210.043C155.369 208.997 158.377 206.76 158.639 201.995C162.944 202.042 166.911 202.052 167.759 201.975C167.731 201.49 167.69 200.282 167.494 199.16C166.583 199.097 162.429 199.068 158.058 199.045Z" fill="#1F1E21"/>
<path d="M150.316 180.379C137.127 183.054 126.795 195.359 129.128 209.238C131.586 223.861 144.864 232.684 159.316 231.392C174.163 230.064 183.393 215.151 182.264 201.153C181.037 185.95 163.759 178.675 150.5 180.354C149.62 180.466 149.609 181.863 150.5 181.75C163.073 180.159 176.496 185.844 180.383 198.704C184.494 212.309 173.722 227.183 160.565 229.814C147.063 232.515 133.725 223.466 130.718 210.32C127.61 196.725 137.755 184.35 150.686 181.726C151.569 181.546 151.195 180.201 150.316 180.379Z" fill="#1F1E21"/>
</svg>
