<svg width="68" height="67" viewBox="0 0 68 67" fill="none" xmlns="http://www.w3.org/2000/svg">
<g opacity="0.3">
<rect x="1.08586" y="0.835859" width="65.8283" height="65.8283" rx="32.9141" stroke="url(#paint0_linear_5429_11954)" stroke-width="0.671717"/>
<circle cx="34.001" cy="33.7513" r="27.5404" stroke="url(#paint1_linear_5429_11954)" stroke-width="0.671717"/>
<circle cx="34.0026" cy="33.7526" r="13.6043" stroke="url(#paint2_linear_5429_11954)" stroke-width="0.331812"/>
</g>
<g clip-path="url(#clip0_5429_11954)">
<path d="M33.2455 40.1704C33.2455 34.8782 37.0086 30.4482 42.0003 29.4162V28.7076C42.0003 28.0933 41.5017 27.5947 40.8874 27.5947H22.8586C22.2442 27.5947 21.7457 28.0933 21.7457 28.7076V31.5269H20.9957C17.6864 31.5269 14.9941 34.2192 14.9941 37.5285V40.8091C14.9941 44.1184 17.6864 46.8107 20.9957 46.8107H21.7457V47.9377C21.7457 50.5893 23.9025 52.7461 26.5541 52.7461H37.1918C38.8144 52.7461 40.2516 51.9389 41.1226 50.7043C36.5738 49.3621 33.2455 45.148 33.2455 40.1704ZM20.9957 44.5848C18.9137 44.5848 17.2199 42.891 17.2199 40.809V37.5285C17.2199 35.4465 18.9137 33.7526 20.9957 33.7526H21.7457V44.5848H20.9957V44.5848Z" fill="#F3A73D"/>
<path d="M25.6755 22.0243C25.2956 22.5102 25.375 23.2212 25.8689 23.5967C26.3655 23.9836 27.0843 23.8794 27.4505 23.3674C28.0671 22.5524 28.8636 20.4993 27.4655 18.5615C27.1672 18.1482 27.0973 17.7536 27.2453 17.3196C27.379 16.9273 27.6326 16.6603 27.6326 16.6603C28.0785 16.23 28.0904 15.5131 27.652 15.0732C27.215 14.6315 26.4985 14.6352 26.0651 15.0801C25.2876 15.8512 24.2026 17.8434 25.6605 19.8639C26.4234 20.9212 25.6755 22.0243 25.6755 22.0243Z" fill="#F3A73D"/>
<path d="M36.2265 22.0243C35.8467 22.5102 35.926 23.2212 36.42 23.5967C36.9165 23.9836 37.6353 23.8794 38.0015 23.3674C38.6181 22.5524 39.4147 20.4993 38.0165 18.5615C37.7183 18.1482 37.6483 17.7536 37.7963 17.3196C37.9301 16.9273 38.1836 16.6603 38.1836 16.6603C38.6295 16.23 38.6414 15.5131 38.203 15.0732C37.766 14.6315 37.0495 14.6352 36.6161 15.0801C35.8387 15.8512 34.7536 17.8434 36.2115 19.8639C36.9744 20.9212 36.2265 22.0243 36.2265 22.0243Z" fill="#F3A73D"/>
<path d="M30.9088 22.0247C30.5289 22.5107 30.6083 23.2214 31.1025 23.5968C31.331 23.7756 31.607 23.8491 31.8741 23.8268C32.1864 23.8016 32.4861 23.6436 32.6835 23.3676C33.3 22.5529 34.0969 20.4993 32.6991 18.5614C32.4008 18.1481 32.3303 17.7542 32.4787 17.3201C32.6123 16.9277 32.866 16.6606 32.866 16.6606C33.3119 16.2302 33.3238 15.5135 32.8853 15.0736C32.6115 14.7968 32.2287 14.6945 31.8741 14.7664C31.6626 14.8087 31.4608 14.9133 31.2983 15.0803C30.5208 15.8511 29.4361 17.8439 30.894 19.8642C31.6567 20.9214 30.9088 22.0247 30.9088 22.0247Z" fill="#F3A73D"/>
<path d="M44.2245 31.415C39.3967 31.415 35.4697 35.3421 35.4697 40.1698C35.4697 44.9975 39.3967 48.9245 44.2245 48.9245C49.0522 48.9245 52.9792 44.9975 52.9792 40.1698C52.9792 35.3421 49.0522 31.415 44.2245 31.415ZM45.3374 40.1698C45.3374 40.7841 44.8388 41.2827 44.2245 41.2827H41.7761C41.1618 41.2827 40.6632 40.7841 40.6632 40.1698C40.6632 39.5555 41.1618 39.0569 41.7761 39.0569H43.1116V36.9795C43.1116 36.3652 43.6101 35.8666 44.2245 35.8666C44.8388 35.8666 45.3374 36.3652 45.3374 36.9795V40.1698Z" fill="#F3A73D"/>
</g>
<defs>
<linearGradient id="paint0_linear_5429_11954" x1="34" y1="0.5" x2="34" y2="67" gradientUnits="userSpaceOnUse">
<stop stop-color="white"/>
<stop offset="1" stop-color="#F3A73D"/>
</linearGradient>
<linearGradient id="paint1_linear_5429_11954" x1="61.8773" y1="41.476" x2="9.98713" y2="21.6604" gradientUnits="userSpaceOnUse">
<stop stop-color="white"/>
<stop offset="1" stop-color="#F3A73D"/>
</linearGradient>
<linearGradient id="paint2_linear_5429_11954" x1="47.7728" y1="37.5685" x2="22.1403" y2="27.78" gradientUnits="userSpaceOnUse">
<stop stop-color="white"/>
<stop offset="1" stop-color="#F3A73D"/>
</linearGradient>
<clipPath id="clip0_5429_11954">
<rect width="38" height="38" fill="white" transform="translate(15 14.75)"/>
</clipPath>
</defs>
</svg>
