<svg width="68" height="67" viewBox="0 0 68 67" fill="none" xmlns="http://www.w3.org/2000/svg">
<g opacity="0.3">
<rect x="1.08586" y="0.835859" width="65.8283" height="65.8283" rx="32.9141" stroke="url(#paint0_linear_5138_561)" stroke-width="0.671717"/>
<circle cx="34.0013" cy="33.7513" r="27.5404" stroke="url(#paint1_linear_5138_561)" stroke-width="0.671717"/>
<circle cx="34.0046" cy="33.7546" r="13.6043" stroke="url(#paint2_linear_5138_561)" stroke-width="0.331812"/>
</g>
<g clip-path="url(#clip0_5138_561)">
<path d="M33.2436 40.1694C33.2436 34.8772 37.0066 30.4472 41.9983 29.4152V28.7066C41.9983 28.0923 41.4997 27.5938 40.8854 27.5938H22.8566C22.2423 27.5938 21.7437 28.0923 21.7437 28.7066V31.526H20.9938C17.6845 31.526 14.9922 34.2183 14.9922 37.5276V40.8081C14.9922 44.1174 17.6845 46.8097 20.9938 46.8097H21.7437V47.9367C21.7437 50.5884 23.9005 52.7451 26.5521 52.7451H37.1899C38.8125 52.7451 40.2496 51.9379 41.1206 50.7034C36.5719 49.3611 33.2436 45.147 33.2436 40.1694ZM20.9938 44.5839C18.9118 44.5839 17.218 42.8901 17.218 40.8081V37.5275C17.218 35.4455 18.9118 33.7517 20.9938 33.7517H21.7437V44.5838H20.9938V44.5839Z" fill="#E27A17"/>
<path d="M25.6753 22.0224C25.2954 22.5082 25.3747 23.2193 25.8687 23.5947C26.3653 23.9817 27.084 23.8774 27.4503 23.3654C28.0669 22.5505 28.8634 20.4974 27.4652 18.5595C27.167 18.1463 27.097 17.7516 27.245 17.3177C27.3788 16.9253 27.6323 16.6583 27.6323 16.6583C28.0782 16.2281 28.0902 15.5112 27.6518 15.0712C27.2148 14.6295 26.4982 14.6332 26.0649 15.0781C25.2874 15.8493 24.2023 17.8415 25.6603 19.862C26.4231 20.9193 25.6753 22.0224 25.6753 22.0224Z" fill="#E27A17"/>
<path d="M36.226 22.0224C35.8462 22.5082 35.9255 23.2193 36.4195 23.5947C36.916 23.9817 37.6348 23.8774 38.001 23.3654C38.6176 22.5505 39.4142 20.4974 38.016 18.5595C37.7178 18.1463 37.6478 17.7516 37.7958 17.3177C37.9296 16.9253 38.1831 16.6583 38.1831 16.6583C38.629 16.2281 38.6409 15.5112 38.2025 15.0712C37.7655 14.6295 37.049 14.6332 36.6156 15.0781C35.8382 15.8493 34.7531 17.8415 36.2111 19.862C36.9739 20.9193 36.226 22.0224 36.226 22.0224Z" fill="#E27A17"/>
<path d="M30.9056 22.0227C30.5258 22.5087 30.6052 23.2195 31.0993 23.5949C31.3278 23.7737 31.6038 23.8471 31.8709 23.8249C32.1832 23.7996 32.483 23.6416 32.6803 23.3656C33.2969 22.551 34.0937 20.4973 32.6959 18.5594C32.3977 18.1462 32.3272 17.7522 32.4756 17.3182C32.6091 16.9257 32.8628 16.6586 32.8628 16.6586C33.3087 16.2283 33.3206 15.5116 32.8821 15.0716C32.6084 14.7949 32.2255 14.6925 31.8709 14.7645C31.6594 14.8068 31.4576 14.9114 31.2951 15.0783C30.5176 15.8492 29.4329 17.842 30.8908 19.8622C31.6535 20.9195 30.9056 22.0227 30.9056 22.0227Z" fill="#E27A17"/>
<path d="M44.2235 31.4141C39.3958 31.4141 35.4688 35.3411 35.4688 40.1688C35.4688 44.9965 39.3958 48.9235 44.2235 48.9235C49.0512 48.9235 52.9782 44.9965 52.9782 40.1688C52.9782 35.3411 49.0512 31.4141 44.2235 31.4141ZM45.3364 40.1688C45.3364 40.7831 44.8378 41.2817 44.2235 41.2817H41.7751C41.1608 41.2817 40.6622 40.7831 40.6622 40.1688C40.6622 39.5545 41.1608 39.0559 41.7751 39.0559H43.1106V36.9785C43.1106 36.3642 43.6092 35.8656 44.2235 35.8656C44.8378 35.8656 45.3364 36.3642 45.3364 36.9785V40.1688Z" fill="#E27A17"/>
</g>
<defs>
<linearGradient id="paint0_linear_5138_561" x1="34" y1="0.5" x2="34" y2="67" gradientUnits="userSpaceOnUse">
<stop stop-color="white"/>
<stop offset="1" stop-color="#F3A73D"/>
</linearGradient>
<linearGradient id="paint1_linear_5138_561" x1="61.8775" y1="41.476" x2="9.98737" y2="21.6604" gradientUnits="userSpaceOnUse">
<stop stop-color="white"/>
<stop offset="1" stop-color="#F3A73D"/>
</linearGradient>
<linearGradient id="paint2_linear_5138_561" x1="47.7748" y1="37.5704" x2="22.1423" y2="27.782" gradientUnits="userSpaceOnUse">
<stop stop-color="white"/>
<stop offset="1" stop-color="#F3A73D"/>
</linearGradient>
<clipPath id="clip0_5138_561">
<rect width="38" height="38" fill="white" transform="translate(15 14.75)"/>
</clipPath>
</defs>
</svg>
