<svg id="Layer_1" enable-background="new 0 0 68 68" height="512" viewBox="0 0 68 68" width="512" xmlns="http://www.w3.org/2000/svg"><g><g><g><path d="m60.8049316 2.0017009c-1.4399414 0-2.7399902.5800781-3.6899414 1.5200195-.9400635.949707-1.5200195 2.25-1.5200195 3.6801758v53.5898438c0 2.8798828-2.3299561 5.2099609-5.210083 5.2099609h-43.1999512c2.8800049 0 5.2099609-2.3300781 5.2099609-5.2099609v-53.5898438c0-2.8701172 2.3300781-5.2001953 5.210083-5.2001953z" fill="#dbdbdb"/></g><g><path d="m23.0310307 7.5019302h-5.640625c-.2763672 0-.5-.2236328-.5-.5s.2236328-.5.5-.5h5.640625c.2763672 0 .5.2236328.5.5s-.2236329.5-.5.5z"/></g><g><path d="m19.8103275 10.2548599h-2.4199219c-.2763672 0-.5-.2236328-.5-.5s.2236328-.5.5-.5h2.4199219c.2763672 0 .5.2236328.5.5s-.2236328.5-.5.5z"/></g><g><path d="m4.414917 45.6618576h7.9799805v14.8999023c0 2.7197266-1.9899902 5.1499023-4.6899414 5.409668-3.1099854.3100586-5.7199707-2.1298828-5.7199707-5.1796875v-12.6899414c0-1.3500976 1.0899658-2.4399414 2.4299316-2.4399414z" fill="#b9b9b9"/></g><g><path d="m66.0150146 7.4518962v12.449707c0 1.3500977-1.0900879 2.4399414-2.4400635 2.4399414h-7.9799805v-15.1396484c0-1.4301758.5799561-2.7304688 1.5200195-3.6801758.9000244-.8999023 2.1199951-1.4702148 3.4799805-1.5200195 2.9799806-.1103516 5.420044 2.4799804 5.420044 5.4501953z" fill="#b9b9b9"/></g><g><g><path d="m26.4852028 61.0017014h-7.5041504v-11.2772408c0-.6440811.5221329-1.166214 1.1662178-1.166214h6.3379326z" fill="#b9b9b9"/></g><g><path d="m33.9893532 61.0017014h-7.5041504v-17.7915307c0-.6440849.5221329-1.1662178 1.1662178-1.1662178h6.3379326z" fill="#304056"/></g><g><path d="m41.4935036 61.0017014h-7.5041504v-25.4971962c0-.6440811.5221329-1.166214 1.1662178-1.166214h5.1717148c.6440849 0 1.1662178.5221329 1.1662178 1.166214z" fill="#488ff7"/></g><g><path d="m48.997654 61.0017014h-7.5041504v-8.3083458h6.3379326c.6440849 0 1.1662178.5221329 1.1662178 1.1662178z" fill="#fff"/></g></g><g><g><path d="m33.9913063 7.0017009c-6.0529785 0-10.9599609 4.9067388-10.9599609 10.9599609 0 4.0683594 2.2219238 7.6108398 5.5131836 9.5019531l5.4467773-9.5019531z" fill="#488ff7"/></g><g><path d="m44.9512672 17.9616623c0-6.0532227-4.9069824-10.9599609-10.9599609-10.9599609v10.9599609z" fill="#304056"/></g><g><path d="m44.9512672 17.9616623h-10.9599609l6.0854492 9.1137695c2.9384766-1.9658203 4.8745117-5.3129883 4.8745117-9.1137695z" fill="#fff"/></g><g><path d="m28.544529 27.4636154c1.6057129.9223633 3.4620361 1.4580078 5.4467773 1.4580078 2.2521973 0 4.3442383-.6811523 6.0854492-1.8461914l-6.0854492-9.1137695z" fill="#b9b9b9"/></g></g></g><g><path d="m50.5905991 61.5019302h-33.2021466c-.2763672 0-.5-.2236328-.5-.5s.2236328-.5.5-.5h33.2021484c.2763672 0 .5.2236328.5.5s-.2236347.5-.5000018.5z"/></g></g></svg>