<svg id="Layer_1" enable-background="new 0 0 68 68" height="512" viewBox="0 0 68 68" width="512" xmlns="http://www.w3.org/2000/svg"><g><g><g><path d="m51.9699707 12.9949951v42c0 1.9799805-1.6201172 3.6000977-3.6000977 3.6000977h-4.8999023v-49.1899414h4.9099121c1.9799805 0 3.5900879 1.6098632 3.5900879 3.5898437z" fill="#304056"/></g><g><g><path d="m66 17.71521v32.5698242c0 1.9399414-1.5700684 3.5200195-3.5200195 3.5200195h-18.8400879v-39.6098633h18.8400879c1.9499511 0 3.5200195 1.5698242 3.5200195 3.5200196z" fill="#488ff7"/></g><g><path d="m52.552 14.196h6v39.525h-6z" fill="#fff"/></g></g><g><path d="m45.4699707 7.3250732v53.3500977c0 2.9099121-2.3500977 5.2597656-5.25 5.2597656h-32.9602051c-2.8999023 0-5.2597656-2.3498535-5.2597656-5.2597656v-53.3500977c0-2.9099121 2.3598633-5.2600098 5.2597656-5.2600098h32.9602051c2.8999023.0000001 5.25 2.3500977 5.25 5.2600098z" fill="#dbdbdb"/></g><g><path d="m40.4699707 9.1351318v13.4899902c0 1.1499023-.920166 2.0700684-2.0700684 2.0700684h-29.3200683c-1.1499024 0-2.079834-.920166-2.079834-2.0700683v-13.4899903c0-1.1401367.9299316-2.0700684 2.079834-2.0700684h29.3200684c1.1499023.0000001 2.0700683.9299317 2.0700683 2.0700684z" fill="#488ff7"/></g><g><g><path d="m13.4150524 56.0950928v3.8100586c0 .5698242-.4599609 1.0297852-1.0300293 1.0297852h-4.3598633c-.5700684 0-1.0302734-.4599609-1.0302734-1.0297852v-3.8100586c0-.5600586.4602051-1.0200195 1.0302734-1.0200195h4.3598633c.5700684-.0000001 1.0300293.4599609 1.0300293 1.0200195z" fill="#fff"/></g><g><path d="m31.4150524 38.9349365v3.8100586c0 .5600586-.4599609 1.0200195-1.0300293 1.0200195h-4.3598633c-.5700684 0-1.0302734-.4599609-1.0302734-1.0200195v-3.8100586c0-.5698242.4602051-1.0297852 1.0302734-1.0297852h4.3598633c.5700684.0000001 1.0300293.459961 1.0300293 1.0297852z" fill="#fff"/></g><g><path d="m22.4150524 56.0950928v3.8100586c0 .5698242-.4599609 1.0297852-1.0300293 1.0297852h-4.3598633c-.5700684 0-1.0302734-.4599609-1.0302734-1.0297852v-3.8100586c0-.5600586.4602051-1.0200195 1.0302734-1.0200195h4.3598633c.5700684-.0000001 1.0300293.4599609 1.0300293 1.0200195z" fill="#fff"/></g><g><path d="m22.4150524 30.3551025v3.8000488c0 .5698242-.4599609 1.0297852-1.0300293 1.0297852h-4.3598633c-.5700684 0-1.0302734-.4599609-1.0302734-1.0297852v-3.8000488c0-.5700684.4602051-1.0300293 1.0302734-1.0300293h4.3598633c.5700684 0 1.0300293.459961 1.0300293 1.0300293z" fill="#488ff7"/></g><g><path d="m13.4150524 47.5150146v3.8100586c0 .5700684-.4599609 1.0200195-1.0300293 1.0200195h-4.3598633c-.5700684 0-1.0302734-.4499512-1.0302734-1.0200195v-3.8100586c0-.5600586.4602051-1.0200195 1.0302734-1.0200195h4.3598633c.5700684 0 1.0300293.459961 1.0300293 1.0200195z" fill="#fff"/></g><g><path d="m40.4150543 30.3551025v3.8000488c0 .5698242-.4599609 1.0297852-1.0300293 1.0297852h-4.3598633c-.5700684 0-1.0302734-.4599609-1.0302734-1.0297852v-3.8000488c0-.5700684.4602051-1.0300293 1.0302734-1.0300293h4.3598633c.5700684 0 1.0300293.459961 1.0300293 1.0300293z" fill="#304056"/></g><g><path d="m40.4150543 56.0950928v3.8100586c0 .5698242-.4599609 1.0297852-1.0300293 1.0297852h-4.3598633c-.5700684 0-1.0302734-.4599609-1.0302734-1.0297852v-3.8100586c0-.5600586.4602051-1.0200195 1.0302734-1.0200195h4.3598633c.5700684-.0000001 1.0300293.4599609 1.0300293 1.0200195z" fill="#fff"/></g><g><path d="m31.4150524 30.3551025v3.8000488c0 .5698242-.4599609 1.0297852-1.0300293 1.0297852h-4.3598633c-.5700684 0-1.0302734-.4599609-1.0302734-1.0297852v-3.8000488c0-.5700684.4602051-1.0300293 1.0302734-1.0300293h4.3598633c.5700684 0 1.0300293.459961 1.0300293 1.0300293z" fill="#b9b9b9"/></g><g><path d="m22.4150524 38.9349365v3.8100586c0 .5600586-.4599609 1.0200195-1.0300293 1.0200195h-4.3598633c-.5700684 0-1.0302734-.4599609-1.0302734-1.0200195v-3.8100586c0-.5698242.4602051-1.0297852 1.0302734-1.0297852h4.3598633c.5700684.0000001 1.0300293.459961 1.0300293 1.0297852z" fill="#fff"/></g><g><path d="m31.4150524 47.5150146v3.8100586c0 .5700684-.4599609 1.0200195-1.0300293 1.0200195h-4.3598633c-.5700684 0-1.0302734-.4499512-1.0302734-1.0200195v-3.8100586c0-.5600586.4602051-1.0200195 1.0302734-1.0200195h4.3598633c.5700684 0 1.0300293.459961 1.0300293 1.0200195z" fill="#fff"/></g><g><path d="m22.4150524 47.5150146v3.8100586c0 .5700684-.4599609 1.0200195-1.0300293 1.0200195h-4.3598633c-.5700684 0-1.0302734-.4499512-1.0302734-1.0200195v-3.8100586c0-.5600586.4602051-1.0200195 1.0302734-1.0200195h4.3598633c.5700684 0 1.0300293.459961 1.0300293 1.0200195z" fill="#fff"/></g><g><path d="m40.4150543 47.5150146v3.8100586c0 .5700684-.4599609 1.0200195-1.0300293 1.0200195h-4.3598633c-.5700684 0-1.0302734-.4499512-1.0302734-1.0200195v-3.8100586c0-.5600586.4602051-1.0200195 1.0302734-1.0200195h4.3598633c.5700684 0 1.0300293.459961 1.0300293 1.0200195z" fill="#fff"/></g><g><path d="m13.4150524 30.3551025v3.8000488c0 .5698242-.4599609 1.0297852-1.0300293 1.0297852h-4.3598633c-.5700684 0-1.0302734-.4599609-1.0302734-1.0297852v-3.8000488c0-.5700684.4602051-1.0300293 1.0302734-1.0300293h4.3598633c.5700684 0 1.0300293.459961 1.0300293 1.0300293z" fill="#fff"/></g><g><path d="m13.4150524 38.9349365v3.8100586c0 .5600586-.4599609 1.0200195-1.0300293 1.0200195h-4.3598633c-.5700684 0-1.0302734-.4599609-1.0302734-1.0200195v-3.8100586c0-.5698242.4602051-1.0297852 1.0302734-1.0297852h4.3598633c.5700684.0000001 1.0300293.459961 1.0300293 1.0297852z" fill="#fff"/></g><g><path d="m40.4150543 38.9349365v3.8100586c0 .5600586-.4599609 1.0200195-1.0300293 1.0200195h-4.3598633c-.5700684 0-1.0302734-.4599609-1.0302734-1.0200195v-3.8100586c0-.5698242.4602051-1.0297852 1.0302734-1.0297852h4.3598633c.5700684.0000001 1.0300293.459961 1.0300293 1.0297852z" fill="#fff"/></g><g><path d="m31.4150524 56.0950928v3.8100586c0 .5698242-.4599609 1.0297852-1.0300293 1.0297852h-4.3598633c-.5700684 0-1.0302734-.4599609-1.0302734-1.0297852v-3.8100586c0-.5600586.4602051-1.0200195 1.0302734-1.0200195h4.3598633c.5700684-.0000001 1.0300293.4599609 1.0300293 1.0200195z" fill="#fff"/></g></g></g><g><g><path d="m22.1831188 19.911377c-.3837891 0-.7675781-.1464844-1.0605469-.4394531l-1.96875-1.96875c-.5859375-.5854492-.5859375-1.5356445 0-2.1210938.5859375-.5859375 1.5351563-.5859375 2.1210938 0l.9082031.9082031 4.0019531-4.0019531c.5859375-.5859375 1.5351563-.5859375 2.1210938 0 .5859375.5854492.5859375 1.5356445 0 2.1210938l-5.0625 5.0625c-.2929688.2929687-.6767578.4394531-1.0605469.4394531z" fill="#fff"/></g></g></g></svg>