<svg width="28" height="29" viewBox="0 0 28 29" fill="none" xmlns="http://www.w3.org/2000/svg">
<g clip-path="url(#clip0_8410_356)">
<path d="M1.4945 0.754961C1.15325 0.413711 0.5985 0.413711 0.25725 0.754961C-0.084 1.09621 -0.084 1.65096 0.25725 1.99221L3.06775 4.80271C1.08675 6.77671 0 9.25296 0 11.8745C0 15.3202 1.953 18.6032 5.25 20.7417V25.8745C5.25 26.5255 5.93775 26.9472 6.517 26.6567L13.363 23.2337C15.82 23.407 18.158 22.8995 20.279 22.0157L26.5055 28.2422C26.8468 28.5835 27.4015 28.5835 27.7428 28.2422C28.084 27.901 28.084 27.3462 27.7428 27.005L1.4945 0.754961ZM14 21.4995C13.769 21.4995 13.5345 21.5012 13.3105 21.4715C13.1373 21.4505 12.9605 21.4785 12.803 21.5555L7 24.4587V20.257C7 19.949 6.83725 19.6637 6.57475 19.5062C3.50875 17.6705 1.75 14.8897 1.75 11.8745C1.75 9.72721 2.65475 7.68321 4.3015 6.03821L18.928 20.6647C17.3793 21.2072 15.7028 21.4995 14 21.4995Z" fill="#6B7280"/>
<path d="M7.30111 3.83025C9.28561 2.79775 11.6009 2.25 14.0001 2.25C20.7534 2.25 26.2501 6.56725 26.2501 11.875C26.2501 14.444 24.9726 16.852 22.6504 18.6562C22.2689 18.9538 22.1989 19.5033 22.4964 19.8848C22.7974 20.2715 23.3486 20.331 23.7231 20.0387C26.4409 17.9265 28.0001 14.9515 28.0001 11.875C28.0001 5.603 21.7194 0.5 14.0001 0.5C11.3209 0.5 8.72386 1.116 6.49086 2.27975C6.06386 2.502 5.89586 3.03225 6.11986 3.45925C6.34386 3.88975 6.87236 4.0525 7.30111 3.83025Z" fill="#6B7280"/>
</g>
<defs>
<clipPath id="clip0_8410_356">
<rect width="28" height="28" fill="white" transform="translate(0 0.5)"/>
</clipPath>
</defs>
</svg>
