<svg width="71" height="71" viewBox="0 0 71 71" fill="none" xmlns="http://www.w3.org/2000/svg">
<g opacity="0.3">
<rect x="1.1048" y="0.901673" width="69.5404" height="69.5404" rx="34.7702" stroke="url(#paint0_linear_5195_448)" stroke-width="0.709596"/>
<circle cx="35.8779" cy="35.6748" r="29.0934" stroke="url(#paint1_linear_5195_448)" stroke-width="0.709596"/>
<circle cx="35.8787" cy="35.6756" r="14.3715" stroke="url(#paint2_linear_5195_448)" stroke-width="0.350523"/>
</g>
<path d="M52.3738 31.936C47.4693 30.2014 44.3531 26.6707 43.2479 25.2354C42.8641 24.7365 42.3499 24.3604 41.7742 24.1532C40.9164 23.9002 39.6977 23.2546 38.7808 23.3397C31.9905 23.437 29.805 25.468 25.4948 30.9076C24.9576 31.5983 24.9576 32.527 25.4411 33.2024L22.7086 31.6366C22.2328 31.3603 21.6188 31.5215 21.3425 31.9974L18.2493 37.3317C17.9729 37.7922 18.1466 38.4376 18.6177 38.6903C18.6177 38.6903 25.9016 42.881 25.9016 42.881C26.3709 43.1446 26.9919 42.9985 27.2678 42.5126L30.361 37.1782C30.6405 36.726 30.4618 36.0818 29.9926 35.8197C29.9926 35.8197 26.8533 34.016 26.8533 34.016C27.5057 34.0905 28.1728 33.7982 28.5726 33.2792C31.6351 29.2649 34.1987 28.3363 34.828 28.1597L32.0342 39.1124L28.1121 46.6266L22.7701 49.359C20.481 50.5917 22.0444 54.0151 24.4894 53.0892C24.4893 53.0892 30.5759 50.6331 30.5759 50.6331C31.2667 50.3568 31.8577 49.8502 32.2491 49.2208L36.225 42.7889L41.7205 48.4993V54.5782C41.811 57.6037 46.2372 57.615 46.3334 54.5782V48.2538C46.3334 47.3865 46.0263 46.5421 45.4737 45.8744L40.9376 40.4556L43.4935 31.5829C46.4178 33.778 49.3344 34.8833 51.284 35.4359C51.7675 35.5664 52.2664 35.505 52.6962 35.2594C54.0496 34.542 53.8742 32.4047 52.3738 31.936Z" fill="#388E3C"/>
<path d="M43.2315 23.1428C45.7351 23.1428 47.7676 21.1178 47.7676 18.6288C47.5565 12.6542 38.9054 12.6558 38.6953 18.6289C38.6953 21.1178 40.7278 23.1428 43.2315 23.1428Z" fill="#388E3C"/>
<defs>
<linearGradient id="paint0_linear_5195_448" x1="35.875" y1="0.546875" x2="35.875" y2="70.7969" gradientUnits="userSpaceOnUse">
<stop stop-color="white"/>
<stop offset="1" stop-color="#388E3C"/>
</linearGradient>
<linearGradient id="paint1_linear_5195_448" x1="65.3262" y1="43.8351" x2="10.5099" y2="22.9021" gradientUnits="userSpaceOnUse">
<stop stop-color="white"/>
<stop offset="1" stop-color="#388E3C"/>
</linearGradient>
<linearGradient id="paint2_linear_5195_448" x1="50.4255" y1="39.7066" x2="23.3475" y2="29.3662" gradientUnits="userSpaceOnUse">
<stop stop-color="white"/>
<stop offset="1" stop-color="#388E3C"/>
</linearGradient>
</defs>
</svg>
