<svg id="Layer_1" enable-background="new 0 0 512 512" viewBox="0 0 512 512" xmlns="http://www.w3.org/2000/svg"><g clip-rule="evenodd" fill-rule="evenodd"><g><path d="m368.931 56.986c11.853 0 21.52 9.667 21.52 21.52v395.971c0 11.853-9.667 21.52-21.52 21.52h-331.41c-11.853 0-21.52-9.667-21.52-21.52v-395.971c0-11.853 9.667-21.52 21.52-21.52z" fill="#837683"/><path d="m341.158 495.998h27.772c11.853 0 21.52-9.668 21.52-21.52v-395.972c0-11.853-9.668-21.52-21.52-21.52h-27.772z" fill="#685e68"/><path d="m350.836 86.923h-295.221c-5.33 0-9.677 4.347-9.677 9.677v359.783c0 5.33 4.347 9.677 9.677 9.677h295.221c5.33 0 9.677-4.347 9.677-9.677v-359.782c0-5.331-4.347-9.678-9.677-9.678z" fill="#eceff1"/><path d="m341.158 466.06h9.678c.305 0 .606-.014.904-.042 4.909-.458 8.773-4.61 8.773-9.635v-359.782c0-5.026-3.865-9.177-8.773-9.635-.298-.028-.599-.042-.904-.042h-9.678z" fill="#d1d1d6"/><path d="m130.05 43.978h30.674c3.95 0 7.326-2.222 8.888-5.85 5.604-13.014 18.544-22.126 33.614-22.126 15.069 0 28.009 9.112 33.613 22.126 1.562 3.628 4.937 5.85 8.888 5.85h30.674c5.33 0 9.677 4.347 9.677 9.677v36.598c0 5.33-4.347 9.677-9.677 9.677h-146.351c-5.33 0-9.677-4.347-9.677-9.677v-36.597c0-5.33 4.347-9.678 9.677-9.678z" fill="#e3a76f"/><path d="m266.723 90.253-146.35.001c0 5.33 4.347 9.677 9.677 9.677h146.35c5.33 0 9.677-4.347 9.677-9.677v-3.331-29.937-3.331c0-5.33-4.347-9.677-9.678-9.677v13.008 23.59c0 2.424-.899 4.646-2.382 6.347-1.775 2.039-4.388 3.33-7.294 3.33z" fill="#c48958"/><ellipse cx="203.226" cy="45.994" fill="#eceff1" rx="11.129" ry="11.129" transform="matrix(.707 -.707 .707 .707 27.001 157.174)"/><path d="m108.572 354.673h36.292c6.587 0 11.975 5.389 11.975 11.976v36.293c0 6.587-5.389 11.975-11.975 11.975h-36.292c-6.587 0-11.976-5.389-11.976-11.975v-36.293c.001-6.587 5.39-11.976 11.976-11.976z" fill="#ffe177"/><path d="m131.971 354.673h12.893c6.586 0 11.975 5.389 11.975 11.975v36.293c0 6.587-5.389 11.975-11.975 11.975h-12.893c6.586 0 11.975-5.389 11.975-11.975v-36.293c0-6.586-5.389-11.975-11.975-11.975z" fill="#ffd064"/><path d="m108.572 252.882h36.292c6.587 0 11.975 5.389 11.975 11.976v36.293c0 6.587-5.389 11.975-11.975 11.975h-36.292c-6.587 0-11.976-5.389-11.976-11.975v-36.293c.001-6.587 5.39-11.976 11.976-11.976z" fill="#6cf5c2"/><path d="m131.971 252.882h12.893c6.586 0 11.975 5.389 11.975 11.976v36.293c0 6.587-5.389 11.975-11.975 11.975h-12.893c6.586 0 11.975-5.389 11.975-11.975v-36.293c0-6.587-5.389-11.976-11.975-11.976z" fill="#00e499"/><path d="m108.572 151.091h36.292c6.587 0 11.975 5.389 11.975 11.976v36.292c0 6.587-5.389 11.975-11.975 11.975h-36.292c-6.587 0-11.976-5.389-11.976-11.975v-36.292c.001-6.587 5.39-11.976 11.976-11.976z" fill="#8ac9fe"/><path d="m131.971 151.091h12.893c6.586 0 11.975 5.389 11.975 11.976v36.293c0 6.587-5.389 11.975-11.975 11.975h-12.893c6.586 0 11.975-5.389 11.975-11.975v-36.293c0-6.587-5.389-11.976-11.975-11.976z" fill="#60b7ff"/><path d="m208.735 371.264c-4.418 0-8-3.582-8-8s3.582-8 8-8h101.121c4.418 0 8 3.582 8 8s-3.582 8-8 8zm0-203.576c-4.418 0-8-3.582-8-8s3.582-8 8-8h101.121c4.418 0 8 3.582 8 8s-3.582 8-8 8zm0 43.035c-4.418 0-8-3.582-8-8s3.582-8 8-8h101.121c4.418 0 8 3.582 8 8s-3.582 8-8 8zm0 58.753c-4.418 0-8-3.582-8-8s3.582-8 8-8h101.121c4.418 0 8 3.582 8 8s-3.582 8-8 8zm0 43.035c-4.418 0-8-3.582-8-8s3.582-8 8-8h101.121c4.418 0 8 3.582 8 8s-3.582 8-8 8zm0 101.788c-4.418 0-8-3.582-8-8s3.582-8 8-8h101.121c4.418 0 8 3.582 8 8s-3.582 8-8 8z" fill="#a79ba7"/></g><g><path d="m471.76 385.11-71.495.109c-47.133.07-61.795-29.52-103.965-53.819-12.588-7.253-27.008-8.815-46.093-14.196-28.076 62.274-65.857 24.261-56.902 3.025l22.171-52.586c4.961-11.767 12.226-20.598 22.815-27.735l30.346-20.453c42.752-28.815 96.149-28.208 138.236 1.571 30.567 21.628 30.053 26.571 65.438 26.572l16.339-.001c4.048 0 7.349 3.301 7.349 7.349v122.817c0 4.047-3.302 7.349-7.349 7.349h-16.89z" fill="#f6dccd"/><g><path d="m352.518 363.922v-29.832c0-10.164-8.315-18.48-18.479-18.48-10.163 0-18.48 8.314-18.48 18.479v-11.022c-.001-10.164-8.316-18.479-18.48-18.479-10.165 0-18.479 8.316-18.479 18.479v40.854c0 10.164 8.316 18.48 18.479 18.48s18.48-8.316 18.48-18.48c0 10.164 8.316 18.48 18.48 18.48s18.479-8.315 18.479-18.479z" fill="#f6dccd"/><g fill="#f1cbbc"><path d="m352.518 363.922v-29.832c0-10.164-8.315-18.48-18.479-18.48h-.001v66.791c10.165.001 18.48-8.315 18.48-18.479z"/><path d="m315.559 334.09v-11.022c-.001-10.164-8.316-18.479-18.48-18.479v77.813c10.163 0 18.48-8.316 18.48-18.48z"/></g></g></g><g><path d="m208.735 345.329 129.054-223.529c6.996-12.118 22.585-16.295 34.703-9.299l8.801 5.081c12.118 6.996 16.295 22.585 9.298 34.703l-129.054 223.529-52.802 30.485z" fill="#ffd064"/><path d="m370.229 111.342c.765.345 1.521.731 2.263 1.16l8.801 5.081c12.118 6.996 16.295 22.585 9.298 34.703l-129.054 223.528-52.802 30.485v-15.244l39.601-22.864 129.054-223.528c6.567-11.375 3.289-25.808-7.161-33.321z" fill="#ffc338"/><path d="m208.735 406.299v-60.97l52.802 30.485z" fill="#837683"/><path d="m208.735 406.299v-15.243l39.6-22.864 13.202 7.622z" fill="#685e68"/></g><g><path d="m471.76 385.11-71.495.109c-61.202.091-67.655-49.83-150.676-73.236-13.18-3.532-21.146-17.329-17.614-30.509 3.546-13.234 17.275-21.16 30.509-17.614 19.819 5.587 35.647 14.47 50.845 22.247.282.144 48.792-85.144 49.075-85 15.527 3.47 30.612 10.111 44.47 19.917 30.567 21.628 30.053 26.571 65.438 26.572l16.339-.001c4.048 0 7.349 3.302 7.349 7.349v122.817c0 4.047-3.302 7.349-7.349 7.349z" fill="#f6dccd"/><path d="m464.035 385.11h24.615c4.048 0 7.349-3.301 7.349-7.349v-122.816c0-4.047-3.302-7.349-7.349-7.349h-24.615z" fill="#d1d1d6"/><path d="m233.352 298.074c-2.277-5.059-2.908-10.887-1.377-16.599 3.546-13.234 17.275-21.16 30.509-17.614 18.366 5.178 34.009 13.632 50.845 22.247 4.792 2.159 6.926 7.796 4.767 12.588s-7.796 6.926-12.588 4.767l-42.887-19.466c-11.32-5.138-24.422 3.01-29.269 14.077z" fill="#f1cbbc"/></g></g></svg>