<svg width="68" height="67" viewBox="0 0 68 67" fill="none" xmlns="http://www.w3.org/2000/svg">
<g opacity="0.3">
<rect x="1.08586" y="0.835859" width="65.8283" height="65.8283" rx="32.9141" stroke="url(#paint0_linear_5451_70)" stroke-width="0.671717"/>
<circle cx="34.001" cy="33.7513" r="27.5404" stroke="url(#paint1_linear_5451_70)" stroke-width="0.671717"/>
<circle cx="34.0026" cy="33.7526" r="13.6043" stroke="url(#paint2_linear_5451_70)" stroke-width="0.331812"/>
</g>
<path d="M55.1053 39.5456H53.7751C53.7751 38.9059 53.7751 38.4857 53.7751 37.8602C53.7751 37.4359 53.4312 37.0919 53.0069 37.0919H52.5526C52.6066 36.4279 52.1783 35.8017 51.5112 35.6303C50.981 35.494 47.6377 34.6347 47.1221 34.5022L48.536 30.7994C48.9453 29.7272 48.4085 28.5255 47.3354 28.1157L44.0989 26.8635C43.4786 26.6235 42.8122 26.5621 42.1581 26.6822C39.5899 27.1533 35.3689 27.9278 34.8813 28.0169C34.5588 28.0758 34.2676 28.2465 34.0585 28.4988L31.1853 31.9664V21.5223C31.1853 21.1142 30.9161 20.7551 30.5243 20.6408L24.3437 18.837H40.3686V25.6182L42.2052 25.3783V17.9187C42.2052 17.4115 41.794 17.0003 41.2869 17.0003C41.1567 17.0003 17.9149 16.9983 17.8439 17.0042C17.3576 17.0442 17.0007 17.453 17.0007 17.9187C17.0007 18.144 16.9964 51.4945 17.0087 51.5924C17.0554 51.9635 17.3206 52.2593 17.6618 52.359L30.0099 55.9626C30.5981 56.1346 31.1854 55.6914 31.1854 55.0811V36.0621C31.3982 35.9788 31.5942 35.8439 31.7503 35.6554L35.8821 30.6687C36.3851 30.5767 39.9207 29.93 40.4889 29.8261L37.3838 37.9584C37.3838 37.9584 37.4945 37.6787 35.4253 44.7619L33.0172 49.3393V53.6761C33.726 53.849 34.4851 53.5255 34.8384 52.8538L38.3757 46.1299C38.4262 46.034 38.4669 45.9332 38.4973 45.8292L40.4541 39.1308C40.5964 39.1851 40.5263 39.1583 40.8951 39.2991C41.3878 40.073 43.8132 43.8822 44.3038 44.6529L41.8535 51.5544C41.5533 52.3996 41.9952 53.3281 42.8405 53.6283C43.6811 53.9268 44.6137 53.488 44.9144 52.6412L47.63 44.9927C47.7932 44.5328 47.7445 44.0088 47.4695 43.5771L45.0864 39.8342C45.4336 38.9246 45.7721 38.0381 46.1211 37.1242C47.4443 37.4643 48.3154 37.6882 48.3154 37.6882L48.2953 39.5457H46.9652C46.7924 39.5457 46.6335 39.6036 46.5052 39.6998L48.54 42.8956C49.0219 43.6525 49.1261 44.5716 48.8259 45.4173L48.488 46.3693H55.1054C55.5296 46.3693 55.8735 46.0254 55.8735 45.6013V40.3139C55.8735 39.8895 55.5295 39.5456 55.1053 39.5456ZM28.568 41.1443C28.568 41.6514 28.1568 42.0626 27.6497 42.0626C27.1425 42.0626 26.7313 41.6514 26.7313 41.1443V35.843C26.7313 35.3359 27.1425 34.9247 27.6497 34.9247C28.1568 34.9247 28.568 35.3359 28.568 35.843V41.1443ZM52.2388 39.5456H52.2388H49.8318V38.6284H52.2388V39.5456Z" fill="#6666F2"/>
<path d="M40.9923 41.8135L40.3686 43.9484V50.5584H37.4794L36.5132 52.3951H40.505C40.4609 51.9722 40.5111 51.5415 40.6577 51.1289L42.2054 46.7701V43.7187L40.9923 41.8135Z" fill="#6666F2"/>
<path d="M48.6937 20.8576C47.1059 20.2513 45.3273 21.047 44.7211 22.6348C44.1095 24.2363 44.9268 26.0075 46.4983 26.6075C48.0717 27.2083 49.8602 26.4299 50.471 24.8302C51.0772 23.2424 50.2816 21.4638 48.6937 20.8576Z" fill="#6666F2"/>
<defs>
<linearGradient id="paint0_linear_5451_70" x1="34" y1="0.5" x2="34" y2="67" gradientUnits="userSpaceOnUse">
<stop stop-color="white"/>
<stop offset="1" stop-color="#6666F2"/>
</linearGradient>
<linearGradient id="paint1_linear_5451_70" x1="61.8773" y1="41.476" x2="9.98713" y2="21.6604" gradientUnits="userSpaceOnUse">
<stop stop-color="white"/>
<stop offset="1" stop-color="#6666F2"/>
</linearGradient>
<linearGradient id="paint2_linear_5451_70" x1="47.7728" y1="37.5685" x2="22.1403" y2="27.78" gradientUnits="userSpaceOnUse">
<stop stop-color="white"/>
<stop offset="1" stop-color="#6666F2"/>
</linearGradient>
</defs>
</svg>
