<svg xmlns="http://www.w3.org/2000/svg" version="1.1" xmlns:xlink="http://www.w3.org/1999/xlink" width="512" height="512" x="0" y="0" viewBox="0 0 24 24" style="enable-background:new 0 0 512 512" xml:space="preserve"><g><path d="M16.707 8.707 13.414 12l3.293 3.293-1.414 1.414L12 13.414l-3.293 3.293-1.414-1.414L10.586 12 7.293 8.707l1.414-1.414L12 10.586l3.293-3.293 1.414 1.414ZM24 12c0 6.617-5.383 12-12 12S0 18.617 0 12 5.383 0 12 0s12 5.383 12 12Zm-2 0c0-5.514-4.486-10-10-10S2 6.486 2 12s4.486 10 10 10 10-4.486 10-10Z" fill="#ff0000" opacity="1" data-original="#000000"></path></g></svg>