<svg height="512" viewBox="0 0 110 110" width="512" xmlns="http://www.w3.org/2000/svg"><g id="_3._Clipboard" data-name="3. Clipboard"><circle cx="55" cy="59" fill="#e7efff" r="50"/><path d="m105 59a50 50 0 0 1 -83 37.56c-25.44-22.4-21.8-63.19 7.49-80.56a50 50 0 0 1 75.51 43z" fill="#e7efff"/><circle cx="4" cy="11" fill="#ff4d69" r="3"/><circle cx="104" cy="4" fill="#00c99f" r="3"/><circle cx="106" cy="94" fill="#ffa100" r="3"/><circle cx="7" cy="106" fill="#00c99f" r="3"/><path d="m96 24v63.61a50.08 50.08 0 0 1 -8 9c-2.75 0 15.34-.1-65.49.44a50 50 0 0 1 -8.51-9.44v-63.61a8 8 0 0 1 8-8h66a8 8 0 0 1 8 8z" fill="#4e6aff"/><path d="m88 26v70.56a50 50 0 0 1 -66 0v-70.56a2 2 0 0 1 2-2h62a2 2 0 0 1 2 2z" fill="#fff"/><path d="m41 10h28a3 3 0 0 1 3 3v14a0 0 0 0 1 0 0h-34a0 0 0 0 1 0 0v-14a3 3 0 0 1 3-3z" fill="#7f96d1"/><path d="m61 10h-12v-3a6 6 0 0 1 12 0z" fill="#a5bced"/><rect fill="#a5bced" height="8" rx="2" width="44" x="33" y="27"/><circle cx="55" cy="6" fill="#fff" r="2"/><circle cx="55" cy="56" fill="#00c99f" r="16"/><path d="m51.59 62.41-5-5a2 2 0 0 1 2.82-2.82l3.59 3.58 7.59-7.58a2 2 0 0 1 2.82 2.82l-9 9a2 2 0 0 1 -2.82 0z" fill="#fff"/><g fill="#a5bced"><path d="m41 86h-12a1 1 0 0 1 0-2h12a1 1 0 0 1 0 2z"/><path d="m81 86h-34a1 1 0 0 1 0-2h34a1 1 0 0 1 0 2z"/><path d="m41 92h-12a1 1 0 0 1 0-2h12a1 1 0 0 1 0 2z"/><path d="m81 92h-34a1 1 0 0 1 0-2h34a1 1 0 0 1 0 2z"/><path d="m41 98h-12a1 1 0 0 1 0-2h12a1 1 0 0 1 0 2z"/><path d="m81 98h-34a1 1 0 0 1 0-2h34a1 1 0 0 1 0 2z"/><path d="m33.19 104h7.81a1 1 0 0 0 0-2h-11.52z"/><path d="m80.52 102c-1.2.72-2.44 1.38-3.71 2h-29.81a1 1 0 0 1 0-2z"/><rect height="4" rx="1" width="54" x="28" y="76"/></g></g></svg>