<svg height="512" viewBox="0 0 110 110" width="512" xmlns="http://www.w3.org/2000/svg"><g id="_3._Coffee_Time" data-name="3. Coffee Time"><circle cx="51.19" cy="59" fill="#e7efff" r="50"/><path d="m99 90v4a1 1 0 0 1 -1 1h-81.68a48.07 48.07 0 0 1 -5.32-6h87a1 1 0 0 1 1 1z" fill="#a5bced"/><path d="m85.68 95a50 50 0 0 1 -69.36 0z" fill="#7f96d1"/><rect fill="#4e6aff" height="6" rx="1" width="50" x="14" y="34"/><path d="m19 26h40a2 2 0 0 1 2 2v6a0 0 0 0 1 0 0h-44a0 0 0 0 1 0 0v-6a2 2 0 0 1 2-2z" fill="#323fd4"/><path d="m57 89h-36l-4-49h44z" fill="#8fa2ff"/><path d="m51 18h4a1 1 0 0 1 1 1v7a0 0 0 0 1 0 0h-6a0 0 0 0 1 0 0v-7a1 1 0 0 1 1-1z" fill="#4e6aff"/><path d="m16.15 48.14 1.81 26a2 2 0 0 0 2.04 1.86h38.1a2 2 0 0 0 2-1.86l1.81-26a2 2 0 0 0 -2-2.14h-41.77a2 2 0 0 0 -1.99 2.14z" fill="#ffa100"/><circle cx="81" cy="18" fill="#00c99f" r="17"/><rect fill="#8fa2ff" height="6" rx="2" width="33" x="64" y="83"/><rect fill="#4e6aff" height="6" rx="2" width="33" x="64" y="77"/><path d="m86 25a2 2 0 0 1 -1.41-.59l-5-5a2 2 0 0 1 -.59-1.41v-10a2 2 0 0 1 4 0v9.17l4.41 4.42a2 2 0 0 1 -1.41 3.41z" fill="#fff"/><circle cx="33" cy="4" fill="#ff4d69" r="3"/><circle cx="106" cy="34" fill="#ffa100" r="3"/><circle cx="84" cy="64" fill="#ff4d69" r="3"/><circle cx="4" cy="49" fill="#00c99f" r="3"/><g fill="#fff"><path d="m33.14 66.75a9.52 9.52 0 0 1 5.33-6.4 7.6 7.6 0 0 0 4.3-5.42l.34-1.68c-2.81-1.12-6.61-.15-9.41 2.65-3.53 3.53-4.41 9.15-.81 11.84z"/><path d="m44.92 54.41-.19.91a9.59 9.59 0 0 1 -5.43 6.85 7.52 7.52 0 0 0 -4.22 5.07l-.36 1.41c2.74.8 6.24-.22 8.88-2.85 3.27-3.27 4.4-8.48 1.32-11.39z"/></g></g></svg>