<svg xmlns="http://www.w3.org/2000/svg" version="1.1" xmlns:xlink="http://www.w3.org/1999/xlink" width="512" height="512" x="0" y="0" viewBox="0 0 511.999 511.999" style="enable-background:new 0 0 512 512" xml:space="preserve" class=""><g><path d="M208.735 511.999c-114.455 0-207.57-88.511-207.57-197.305v-79.608c0-8.33 6.753-15.084 15.084-15.084h384.974c8.33 0 15.084 6.753 15.084 15.084v79.608c-.002 108.795-93.118 197.305-207.572 197.305z" style="" fill="#6666f3" data-original="#45cc5c" class="" opacity="1"></path><path d="M401.221 511.999H16.255c-8.33 0-15.084-6.753-15.084-15.084s6.753-15.084 15.084-15.084h384.966c8.33 0 15.084 6.753 15.084 15.084s-6.754 15.084-15.084 15.084z" style="" fill="#d5deed" data-original="#d5deed" class=""></path><path d="M304.477 173.899a15.091 15.091 0 0 1-10.058-3.824c-2.513-2.234-24.526-22.633-23.864-50.51.272-11.46 4.727-28.456 24.409-44.354 8.709-7.035 13.03-14.101 13.207-21.602.335-14.079-13.612-27.127-13.753-27.253-6.225-5.536-6.784-15.071-1.247-21.295s15.072-6.783 21.295-1.247c2.513 2.234 24.526 22.633 23.864 50.51-.272 11.46-4.728 28.456-24.409 44.354-8.667 7.001-12.987 14.03-13.204 21.489-.347 11.878 9.851 23.82 13.81 27.42 6.225 5.536 6.753 15.043 1.217 21.268-2.974 3.343-7.111 5.044-11.267 5.044z" style="" fill="#38e69d" data-original="#ffce1f" class="" opacity="1"></path><path d="M208.772 173.899a15.091 15.091 0 0 1-10.058-3.824c-2.513-2.234-24.526-22.633-23.864-50.51.273-11.46 4.727-28.456 24.409-44.354 8.709-7.035 13.03-14.101 13.207-21.602.335-14.079-13.612-27.127-13.753-27.253-6.225-5.536-6.784-15.071-1.247-21.295s15.071-6.783 21.295-1.247c2.513 2.234 24.526 22.633 23.864 50.51-.273 11.46-4.728 28.456-24.409 44.354-8.667 7.001-12.987 14.03-13.204 21.489-.347 11.878 9.851 23.82 13.81 27.42 6.225 5.536 6.753 15.043 1.217 21.268-2.974 3.343-7.111 5.044-11.267 5.044zM113.028 173.887a15.027 15.027 0 0 1-10.019-3.813c-2.513-2.234-24.526-22.633-23.863-50.51.272-11.46 4.727-28.456 24.409-44.354 8.709-7.035 13.03-14.101 13.207-21.602.335-14.079-13.612-27.127-13.753-27.253-6.225-5.536-6.784-15.071-1.247-21.295 5.536-6.225 15.072-6.783 21.295-1.247 2.513 2.234 24.526 22.633 23.864 50.51-.273 11.46-4.728 28.456-24.409 44.354-8.709 7.035-13.029 14.101-13.207 21.602-.334 14.079 13.612 27.128 13.753 27.253 6.225 5.536 6.784 15.071 1.247 21.295a15.048 15.048 0 0 1-11.277 5.06z" style="" fill="#38e69d" data-original="#ffde42" class="" opacity="1"></path><path d="M434.157 399.504h-45.74c-8.33 0-15.084-6.753-15.084-15.084 0-8.33 6.753-15.084 15.084-15.084h45.74c25.646 0 46.511-20.865 46.511-46.511s-20.865-46.511-46.511-46.511h-32.936c-8.33 0-15.084-6.753-15.084-15.084 0-8.33 6.753-15.084 15.084-15.084h32.936c42.28 0 76.678 34.398 76.678 76.678s-34.398 76.68-76.678 76.68z" style="" fill="#394257" data-original="#394257" class=""></path><path d="M220.039 168.854c5.536-6.225 5.008-15.732-1.217-21.268-2.339-2.127-6.854-7.166-10.088-13.383v39.694l.038.002c4.156 0 8.293-1.701 11.267-5.045zM218.762 3.812c-2.876-2.558-6.459-3.798-10.028-3.796v39.628c2.196 4.182 3.85 9.007 3.733 13.963-.094 3.928-1.333 7.735-3.733 11.482v43.718c2.184-3.413 5.329-6.776 9.483-10.131 19.682-15.899 24.138-32.895 24.409-44.354.661-27.876-21.352-48.276-23.864-50.51z" style="" fill="#38e69d" data-original="#ffce1f" class="" opacity="1"></path><path d="M401.221 220.002H208.735v291.997c114.455 0 207.57-88.511 207.57-197.305v-79.608c0-8.331-6.754-15.084-15.084-15.084z" style="" fill="#6666f3" data-original="#05b036" class="" opacity="1"></path><path d="M401.221 481.832H208.735v30.167h192.486c8.33 0 15.084-6.753 15.084-15.084s-6.754-15.083-15.084-15.083z" style="" fill="#bac6db" data-original="#bac6db" class=""></path></g></svg>