<svg id="Icon" viewBox="0 0 24 24" xmlns="http://www.w3.org/2000/svg"><path d="m8.21 6.75c-.414 0-.75-.336-.75-.75 0-.179-.029-.231-.114-.384-.122-.217-.306-.545-.306-1.116s.184-.899.306-1.116c.085-.153.114-.205.114-.384 0-.414.336-.75.75-.75s.75.336.75.75c0 .571-.184.899-.306 1.116-.085.153-.114.205-.114.384s.029.231.114.384c.122.217.306.545.306 1.116 0 .414-.336.75-.75.75z" fill="#549bff"/><path d="m14.21 6.75c-.414 0-.75-.336-.75-.75 0-.179-.029-.231-.114-.384-.122-.217-.306-.545-.306-1.116s.184-.899.306-1.116c.085-.153.114-.205.114-.384 0-.414.336-.75.75-.75s.75.336.75.75c0 .571-.184.899-.306 1.116-.085.153-.114.205-.114.384s.029.231.114.384c.122.217.306.545.306 1.116 0 .414-.336.75-.75.75z" fill="#549bff"/><g fill="#112d55"><path d="m12.2 19.179h-2.4c-3.06 0-5.55-2.387-5.55-5.322v-4.571c0-1.043.875-1.893 1.95-1.893h9.6c1.075 0 1.95.849 1.95 1.893v4.571c0 2.935-2.49 5.322-5.55 5.322zm-6-10.286c-.248 0-.45.176-.45.393v4.571c0 2.107 1.817 3.822 4.05 3.822h2.4c2.233 0 4.05-1.714 4.05-3.822v-4.571c0-.216-.202-.393-.45-.393z"/><path d="m18.714 15.75h-1.292c-.414 0-.75-.336-.75-.75s.336-.75.75-.75h1.292c.412 0 .793-.159 1.074-.447.303-.295.462-.677.462-1.088 0-.847-.689-1.536-1.536-1.536h-1.143c-.414 0-.75-.336-.75-.75s.336-.75.75-.75h1.143c1.674 0 3.036 1.362 3.036 3.036 0 .82-.32 1.583-.901 2.149-.551.567-1.314.887-2.134.887z"/><path d="m16.5 21.75h-11c-1.241 0-2.25-1.009-2.25-2.25s1.009-2.25 2.25-2.25h2.25v1.5h-2.25c-.414 0-.75.336-.75.75s.336.75.75.75h11c.414 0 .75-.336.75-.75s-.336-.75-.75-.75h-2.25v-1.5h2.25c1.241 0 2.25 1.009 2.25 2.25s-1.009 2.25-2.25 2.25z"/></g></svg>