<svg id="Layer_1" height="512" viewBox="0 0 128 128" width="512" xmlns="http://www.w3.org/2000/svg" xmlns:xlink="http://www.w3.org/1999/xlink"><linearGradient id="XMLID_51_" gradientUnits="userSpaceOnUse" x1="104.522" x2="63.9" y1="111.572" y2="70.95"><stop offset=".0609991" stop-color="#fff" stop-opacity="0"/><stop offset=".162" stop-color="#cdcdcd" stop-opacity=".108"/><stop offset=".2839" stop-color="#979797" stop-opacity=".237"/><stop offset=".4075" stop-color="#696969" stop-opacity=".369"/><stop offset=".5299" stop-color="#434343" stop-opacity=".499"/><stop offset=".6511" stop-color="#262626" stop-opacity=".628"/><stop offset=".7706" stop-color="#111" stop-opacity=".756"/><stop offset=".8878" stop-color="#040404" stop-opacity=".881"/><stop offset="1"/></linearGradient><g id="XMLID_344_"><path id="XMLID_5_" d="m128 64c0 3.3-.3 6.6-.8 9.8-4.7 30.7-31.2 54.2-63.2 54.2-1.2 0-2.4 0-3.7-.1-33.6-1.9-60.3-29.8-60.3-63.9 0-35.3 28.6-64 64-64s64 28.7 64 64z" fill="#eeae54"/><path id="XMLID_3170_" d="m127.3 73.8c-4.8 30.7-31.3 54.2-63.3 54.2-1.2 0-2.4 0-3.7-.1l-25.8-25.8 63.2-57.8z" fill="url(#XMLID_51_)" opacity=".2"/><g id="XMLID_3171_"><path id="XMLID_882_" d="m97.8 98c0 2.6-2.1 4.7-4.7 4.7h-56.2c-2.6 0-4.7-2.1-4.7-4.7v-71.6c0-2.6 2.1-4.7 4.7-4.7h38.3l22.6 22.6z" fill="#ebf0f3"/><path id="XMLID_881_" d="m97.8 44.3h-17.9c-2.6 0-4.7-2.1-4.7-4.7v-17.9z" fill="#64798a"/><g id="XMLID_3172_" fill="#d5d6db"><path id="XMLID_880_" d="m42.3 46.8h26.1v3.6h-26.1z"/><path id="XMLID_879_" d="m42.3 58.6h45.4v3.6h-45.4z"/><path id="XMLID_878_" d="m42.3 70.5h45.4v3.6h-45.4z"/></g><g id="XMLID_3173_"><path id="XMLID_3174_" d="m51.9 97.3c-.6 0-1.3-.2-1.8-.7l-7.1-7.1c-1-1-1-2.6 0-3.5 1-1 2.6-1 3.5 0l5.3 5.3 11.4-11.3c1-1 2.6-1 3.5 0 1 1 1 2.6 0 3.5l-13.1 13.1c-.4.5-1.1.7-1.7.7z" fill="#e56353"/></g></g></g></svg>