<svg width="282" height="193" viewBox="0 0 282 193" fill="none" xmlns="http://www.w3.org/2000/svg">
<path d="M126.573 52.7539C130.163 52.7539 133.565 53.6739 136.603 55.3164C133.934 54.1111 131.023 53.4488 127.975 53.4488C115.103 53.4488 104.668 65.2666 104.668 79.846C104.668 90.3572 110.093 99.4331 117.944 103.679C109.344 99.7952 103.266 90.2772 103.266 79.1512C103.266 64.5726 113.701 52.7539 126.573 52.7539Z" fill="#7B6FB9"/>
<path d="M163.07 154.061C162.898 154.19 162.725 154.32 162.553 154.448C152.983 161.549 141.537 165.679 129.239 165.679C129.009 165.679 128.778 165.678 128.547 165.673C119.855 165.564 111.603 163.393 104.152 159.571C101.093 158.002 98.1702 156.157 95.4079 154.061C94.6981 153.523 93.9994 152.969 93.3118 152.398C92.8236 151.992 92.341 151.58 91.8632 151.159C77.5883 138.566 68.4092 118.924 68.4092 96.858C68.4092 58.8493 95.6437 28.0384 129.239 28.0384C162.795 28.0384 190.004 58.7774 190.068 96.5606C190.068 57.7312 162.275 26.2539 127.991 26.2539C93.7069 26.2539 65.9141 57.7312 65.9141 96.5606C65.9141 120.918 76.8509 142.382 93.4663 154.999C103.337 162.495 115.213 166.867 127.991 166.867C140.769 166.867 152.645 162.495 162.516 154.999C172.927 147.093 181.109 135.713 185.767 122.325C181.188 135.324 173.208 146.371 163.07 154.061Z" fill="#463172"/>
<path d="M126.576 108.023C107.317 108.023 91.7031 125.706 91.7031 147.519C91.7031 148.748 91.7535 149.962 91.8497 151.161C92.3016 151.558 92.7581 151.945 93.2207 152.332C93.1428 151.248 93.1062 150.151 93.1062 149.043C93.1062 126.771 108.718 108.718 127.978 108.718C133.146 108.718 138.049 110.017 142.46 112.349C137.697 109.584 132.297 108.023 126.576 108.023Z" fill="#7B6FB9"/>
<path d="M117.948 103.676C120.986 105.319 124.388 106.239 127.979 106.239C140.851 106.239 151.286 94.421 151.286 79.8425C151.286 68.7158 145.207 59.1971 136.607 55.3129C133.938 54.1077 131.027 53.4453 127.979 53.4453C115.107 53.4453 104.672 65.2632 104.672 79.8425C104.672 90.3537 110.097 99.4297 117.948 103.676Z" fill="white"/>
<path d="M142.464 112.354C138.053 110.022 133.15 108.723 127.982 108.723C108.722 108.723 93.1094 126.776 93.1094 149.048C93.1094 150.156 93.1472 151.253 93.3026 152.404C93.9902 152.974 94.6889 153.529 95.3986 154.067C98.161 156.163 101.084 158.008 104.142 159.577C111.594 163.399 119.846 165.57 128.538 165.679C128.769 165.683 128.999 165.684 129.23 165.684C141.528 165.684 152.974 161.555 162.544 154.453C162.749 152.685 162.855 150.881 162.855 149.048C162.855 132.752 154.494 118.714 142.464 112.354Z" fill="white"/>
<path d="M129.322 28.0391C95.7273 28.0391 68.4922 58.8501 68.4922 96.8587C68.4922 118.925 77.6712 138.566 91.9469 151.16C91.8498 149.961 91.8002 148.747 91.8002 147.518C91.8002 125.705 107.414 108.022 126.673 108.022C132.394 108.022 137.793 109.584 142.557 112.349C154.587 118.708 162.948 132.747 162.948 149.042C162.948 150.875 162.841 152.679 162.636 154.448C162.808 154.32 162.982 154.191 163.153 154.062C173.291 146.371 181.272 135.324 185.851 122.325C188.625 114.448 190.151 105.854 190.151 96.7258C190.088 58.7783 162.878 28.0391 129.322 28.0391ZM128.075 106.236C124.484 106.236 121.082 105.316 118.044 103.674C109.443 99.7891 103.365 90.2708 103.365 79.1456C103.365 64.5663 113.8 52.7477 126.673 52.7477C130.263 52.7477 133.665 53.6683 136.702 55.3111C145.302 59.1944 151.381 68.7139 151.381 79.8403C151.381 94.4184 140.947 106.236 128.075 106.236Z" fill="#CECDFF"/>
<path d="M210.374 95.5775C210.247 82.589 207.419 69.6052 201.896 57.8367C194.162 41.2515 180.879 27.0144 164.037 19.5477C158.19 16.9456 151.968 15.1824 145.617 14.3752C143.789 14.1415 141.951 13.9868 140.11 13.9086C137.905 13.7909 130.294 13.8743 128.031 13.8502C155.38 13.8423 178.675 30.8512 191.002 54.6453C204.35 80.2841 204.422 112.372 191.209 138.078C178.94 162.075 155.543 179.285 128.031 179.277C130.216 179.249 138.008 179.331 139.987 179.223C141.84 179.149 143.689 178.995 145.528 178.763C151.964 177.955 158.27 176.163 164.188 173.512C181.415 165.824 194.88 151.064 202.507 133.955C207.9 121.942 210.517 108.734 210.374 95.5775Z" fill="#A1A1FF"/>
<path d="M128.024 13.8516C87.6899 13.8516 54.9922 50.8823 54.9922 96.5639C54.9922 142.246 87.6899 179.278 128.024 179.278C168.359 179.278 201.055 142.246 201.055 96.5639C201.055 50.8823 168.359 13.8516 128.024 13.8516ZM162.505 155.002C152.635 162.498 140.758 166.87 127.981 166.87C115.203 166.87 103.326 162.498 93.4559 155.002C76.8403 142.386 65.9031 120.922 65.9031 96.5638C65.9031 57.7347 93.6957 26.2577 127.981 26.2577C162.264 26.2577 190.056 57.7347 190.056 96.8616C190.056 105.857 188.531 114.451 185.757 122.329C181.098 135.717 172.917 147.098 162.505 155.002Z" fill="#E4E7FF"/>
<path d="M246.057 92.1406L240.815 92.6515L240.003 119.78C239.954 121.05 239.873 122.404 239.747 123.831C239.596 125.554 239.38 127.382 239.08 129.298C238.821 130.949 238.498 132.665 238.1 134.435C237.74 136.033 237.317 137.674 236.822 139.35C236.38 140.847 235.881 142.371 235.317 143.917C235.296 143.973 235.275 144.029 235.254 144.086C234.836 145.22 234.375 146.34 233.879 147.444C233.291 148.753 232.652 150.038 231.973 151.297C231.101 152.913 230.164 154.485 229.179 156.007C227.791 158.154 226.311 160.202 224.798 162.133C222.195 165.453 219.492 168.427 216.985 170.962C212.709 175.286 209.001 178.335 207.32 179.656C207.076 179.847 206.795 179.956 206.508 179.984L211.75 179.474C212.037 179.446 212.319 179.336 212.562 179.145C214.243 177.824 217.952 174.775 222.227 170.452C224.735 167.916 227.437 164.942 230.04 161.622C231.553 159.691 233.033 157.643 234.422 155.496C235.406 153.974 236.344 152.402 237.215 150.786C237.894 149.527 238.533 148.242 239.121 146.933C239.617 145.829 240.078 144.71 240.497 143.575C240.517 143.519 240.538 143.462 240.559 143.406C241.123 141.86 241.622 140.336 242.064 138.839C242.559 137.163 242.982 135.522 243.342 133.924C243.741 132.155 244.063 130.439 244.322 128.788C244.622 126.871 244.838 125.043 244.989 123.32C245.115 121.893 245.196 120.539 245.245 119.269L246.057 92.1406Z" fill="#A1A1FF"/>
<path d="M246.039 92.0953C246.048 91.5048 245.757 90.9144 245.266 90.5813C245.266 90.5813 245.266 90.5811 245.266 90.5811C245.197 90.5347 245.125 90.4931 245.05 90.4569L245.05 90.4569C245.049 90.4567 245.049 90.4566 245.049 90.4565C244.873 90.3732 244.683 90.323 244.489 90.3084C244.459 90.3064 244.429 90.305 244.398 90.3047L239.156 90.8155C239.381 90.8187 239.604 90.8716 239.807 90.9676C239.807 90.9677 239.807 90.9677 239.808 90.9678C240.437 91.2646 240.823 91.9615 240.797 92.6498L246.039 92.139C246.039 92.1244 246.04 92.1098 246.039 92.0953Z" fill="url(#paint0_linear_1608_853)"/>
<path d="M236.271 90.7092C237.234 90.7676 238.199 90.8024 239.162 90.8158L244.405 90.305C232.381 90.1641 220.479 86.4017 210.406 79.8672L205.164 80.378C214.43 86.3835 225.235 90.0607 236.271 90.7092Z" fill="#A1A1FF"/>
<path d="M176.805 90.3051C176.783 90.3054 176.761 90.3058 176.739 90.306C176.739 90.306 176.738 90.306 176.738 90.306C176.694 90.3066 176.652 90.3091 176.609 90.3132L171.367 90.824C171.409 90.8199 171.452 90.8175 171.495 90.8169C171.496 90.8169 171.497 90.8169 171.497 90.8169C171.519 90.8166 171.541 90.8163 171.563 90.816C173.116 90.7935 174.829 90.7103 176.676 90.5304L181.918 90.0195C180.072 90.1995 178.358 90.2827 176.805 90.3051Z" fill="#A1A1FF"/>
<path d="M239.162 90.8172C234.627 90.7561 228.706 90.1797 222.036 88.1831C214.858 86.0348 209.145 82.9634 205.164 80.3789C205.141 80.3783 195.675 86.0365 188.557 88.1831C181.934 90.1797 176.03 90.7561 171.495 90.8172C170.569 90.8293 169.846 91.6597 169.901 92.6511L171.393 119.779C171.798 126.164 173.073 134.659 176.682 143.916C183.722 161.968 201.075 176.307 205.373 179.651C205.664 179.877 206.006 179.991 206.347 179.991C206.685 179.991 207.022 179.879 207.307 179.655C211.55 176.321 228.713 161.976 235.304 143.916C238.683 134.659 239.744 126.165 239.99 119.779L240.803 92.6511C240.832 91.6597 240.09 90.8293 239.162 90.8172ZM236.601 121.579C236.383 127.233 235.444 134.754 232.456 142.952C226.626 158.944 211.445 171.646 207.69 174.598C207.439 174.796 207.142 174.895 206.845 174.896C206.669 174.973 206.482 175.011 206.294 175.011C205.987 175.011 205.679 174.909 205.417 174.705C201.549 171.695 185.932 158.79 179.596 142.543C176.346 134.211 175.2 126.567 174.835 120.82L173.493 96.4046C173.444 95.5131 174.094 94.7637 174.928 94.7529C179.008 94.699 184.323 94.1795 190.283 92.3831C196.69 90.4513 205.209 85.3592 205.261 85.3791C208.813 87.6853 213.954 90.45 220.414 92.3831C226.418 94.1795 231.746 94.699 235.828 94.7529C236.662 94.7637 237.331 95.5131 237.304 96.4046L237.282 97.154C237.31 97.2829 237.322 97.4184 237.319 97.5575L236.601 121.579Z" fill="#E4E7FF"/>
<path d="M208.701 124.468C208.691 123.605 208.403 122.812 207.929 122.187C207.338 121.689 206.594 121.391 205.789 121.391C203.9 121.391 202.389 123.03 202.414 125.053C202.425 125.915 202.714 126.707 203.187 127.332C203.428 127.535 203.694 127.705 203.979 127.835L203.983 128.104C204.156 128.226 204.341 128.332 204.533 128.42L204.607 134.272C204.61 134.512 204.668 134.739 204.769 134.937C204.956 135.043 205.169 135.103 205.394 135.103C206.125 135.103 206.709 134.469 206.7 133.686L206.627 127.853C207.862 127.305 208.721 125.995 208.701 124.468Z" fill="#CECDFF"/>
<path d="M237.286 97.1517C237.137 96.4624 236.562 95.9392 235.871 95.9301C231.859 95.8768 226.623 95.3663 220.721 93.5983C214.372 91.6962 209.319 88.9757 205.797 86.6875C205.778 86.687 197.404 91.6971 191.106 93.5983C185.249 95.3664 180.024 95.8768 176.014 95.9301C175.194 95.9408 174.556 96.6773 174.604 97.5549L175.923 121.577C176.283 127.231 177.409 134.752 180.603 142.949C186.831 158.934 202.18 171.632 205.982 174.592C206.24 174.793 206.543 174.893 206.848 174.893C207.146 174.893 207.443 174.794 207.694 174.596C211.448 171.643 226.629 158.941 232.46 142.949C235.447 134.752 236.387 127.231 236.604 121.577L237.322 97.5549C237.326 97.4163 237.314 97.2812 237.286 97.1517Z" fill="#CECDFF"/>
<path d="M235.83 94.7528C231.748 94.6988 226.42 94.1794 220.416 92.383C213.956 90.4497 208.815 87.685 205.231 85.3594C205.211 85.359 196.692 90.4509 190.285 92.383C184.325 94.1794 179.01 94.6988 174.93 94.7528C174.095 94.7639 173.446 95.5124 173.495 96.4043L174.837 120.82C175.202 126.567 176.348 134.211 179.598 142.543C185.934 158.789 201.551 171.695 205.419 174.704C205.681 174.908 205.989 175.01 206.296 175.01C206.483 175.01 206.67 174.972 206.843 174.896C206.541 174.896 206.238 174.795 205.98 174.594C202.178 171.633 186.829 158.936 180.601 142.952C177.407 134.754 176.281 127.233 175.921 121.579L174.602 97.557C174.554 96.6795 175.192 95.9429 176.012 95.9324C180.022 95.8791 185.246 95.3683 191.104 93.6002C197.402 91.6995 205.776 86.6894 205.825 86.7095C209.317 88.9779 214.37 91.6985 220.719 93.6002C226.621 95.3683 231.857 95.8791 235.869 95.9324C236.56 95.9413 237.135 96.4648 237.284 97.1537L237.306 96.4044C237.332 95.5124 236.664 94.7639 235.83 94.7528Z" fill="#60439D"/>
<path d="M221.537 120.775C221.523 119.641 221.015 118.63 220.236 117.977C220.694 118.585 220.972 119.354 220.983 120.19L221.196 137.203C221.22 139.174 219.749 140.771 217.908 140.771H193.179C192.398 140.771 191.676 140.484 191.102 140.002C191.722 140.827 192.673 141.356 193.733 141.356H218.462C220.303 141.356 221.774 139.759 221.75 137.789L221.537 120.775Z" fill="#A1A1FF"/>
<path d="M215.25 110.535C215.213 107.569 213.997 104.899 212.086 103.035C213.675 104.853 214.663 107.282 214.696 109.95L214.767 115.557C214.775 115.549 214.783 115.542 214.79 115.535L214.804 116.619H215.327L215.25 110.535Z" fill="#A1A1FF"/>
<path d="M220.989 120.188C220.978 119.353 220.699 118.584 220.242 117.975C219.622 117.15 218.671 116.621 217.611 116.621H215.322H214.799H211.841H199.139H198.674H195.719H192.882C191.041 116.621 189.569 118.218 189.594 120.188L189.807 137.202C189.821 138.337 190.328 139.347 191.107 140C191.681 140.483 192.403 140.77 193.184 140.77H217.913C219.754 140.77 221.226 139.172 221.201 137.202L220.989 120.188ZM206.69 127.853L206.763 133.687C206.773 134.469 206.188 135.103 205.457 135.103C205.233 135.103 205.02 135.043 204.833 134.937C204.413 134.699 204.123 134.228 204.116 133.687L204.046 128.104L204.043 127.835C203.757 127.705 203.491 127.535 203.25 127.332C202.456 126.661 201.939 125.627 201.924 124.468C201.899 122.445 203.41 120.805 205.299 120.805C206.382 120.805 207.355 121.345 207.992 122.187C208.466 122.812 208.754 123.605 208.765 124.468C208.784 125.995 207.926 127.304 206.69 127.853Z" fill="#F3F5FF"/>
<path d="M214.691 109.95C214.657 107.282 213.669 104.853 212.08 103.035C210.314 101.015 207.805 99.75 205.035 99.75C199.772 99.75 195.563 104.317 195.634 109.95L195.704 115.535C195.823 115.645 196.359 116.121 197.155 116.121C197.181 116.121 197.206 116.121 197.232 116.12C197.855 116.097 198.343 115.79 198.564 115.617C198.563 115.593 198.505 110.937 198.505 110.937C198.455 106.994 201.401 103.797 205.085 103.797C207.066 103.797 208.857 104.722 210.097 106.19C211.163 107.451 211.821 109.115 211.844 110.937L211.902 115.598C212.114 115.766 212.657 116.121 213.348 116.121C213.373 116.121 213.399 116.121 213.425 116.12C214.128 116.094 214.599 115.707 214.761 115.557L214.691 109.95Z" fill="#F3F5FF"/>
<path d="M205.305 120.805C203.416 120.805 201.905 122.444 201.93 124.467C201.945 125.627 202.462 126.661 203.256 127.331C202.783 126.706 202.495 125.914 202.484 125.052C202.459 123.029 203.969 121.39 205.858 121.39C206.664 121.39 207.408 121.688 207.998 122.186C207.361 121.344 206.388 120.805 205.305 120.805Z" fill="#A1A1FF"/>
<path d="M211.929 116.526L211.906 115.598C211.906 115.598 211.906 115.563 211.906 115.546L211.849 110.938C211.826 109.115 211.167 107.452 210.102 106.19C208.909 105.066 207.346 104.383 205.643 104.383C201.96 104.383 199.013 107.58 199.063 111.523L199.121 116.131C199.122 116.295 199.13 116.458 199.142 116.62H211.859H211.933L211.929 116.526Z" fill="#CECDFF"/>
<path d="M214.795 116.619H211.925L211.921 116.525L211.898 115.597L211.899 115.598C212.111 115.766 212.653 116.121 213.345 116.121C213.37 116.121 213.396 116.121 213.421 116.119C214.125 116.093 214.596 115.706 214.758 115.557C214.767 115.549 214.774 115.542 214.781 115.535L214.795 116.619Z" fill="#E4E7FF"/>
<path d="M205.081 103.797C201.397 103.797 198.452 106.994 198.501 110.937L198.558 115.545L198.558 115.618L198.545 116.619V116.624L199.134 116.619C199.122 116.457 199.115 116.294 199.113 116.13L199.055 111.522C199.006 107.579 201.951 104.382 205.635 104.382C207.338 104.382 208.9 105.065 210.093 106.189C208.853 104.721 207.063 103.797 205.081 103.797Z" fill="#A1A1FF"/>
<path d="M198.569 115.619L198.556 116.619H195.737L195.711 115.535C195.83 115.645 196.367 116.121 197.162 116.121C197.188 116.121 197.213 116.121 197.24 116.119C197.86 116.097 198.348 115.792 198.569 115.619Z" fill="#E4E7FF"/>
<path d="M204.678 134.269L204.605 128.418C204.412 128.33 204.228 128.224 204.055 128.102L204.125 133.684C204.131 134.226 204.421 134.696 204.842 134.935C204.74 134.736 204.682 134.51 204.678 134.269Z" fill="#A1A1FF"/>
<path d="M245.519 156.934L249.654 157.959L250.681 153.816L252.331 154.225L251.304 158.368L255.44 159.393L255.03 161.046L250.895 160.021L249.868 164.163L248.218 163.754L249.245 159.612L245.109 158.587L245.519 156.934Z" fill="#6D6DBF"/>
<path d="M18.1797 179.273L19.2845 184.439L25.1556 183.183L25.5964 185.244L19.7253 186.5L20.83 191.665L18.487 192.166L17.3823 187.001L11.5111 188.257L11.0703 186.195L16.9414 184.94L15.8367 179.775L18.1797 179.273Z" fill="#CECDFF"/>
<path d="M264.008 188.498C267.374 192.262 273.153 192.584 276.916 189.218C280.68 185.852 281.002 180.073 277.636 176.309C274.27 172.546 268.491 172.224 264.727 175.59C260.964 178.956 260.642 184.735 264.008 188.498ZM266.461 186.304C264.307 183.896 264.513 180.197 266.921 178.043C269.33 175.889 273.029 176.095 275.183 178.503C277.337 180.912 277.131 184.611 274.722 186.765C272.314 188.919 268.615 188.713 266.461 186.304Z" fill="#E4E7FF"/>
<path d="M33.0153 50.7875L30.405 56.9695L35.9361 59.3049L34.8945 61.772L29.3634 59.4366L26.7531 65.6186L24.5458 64.6866L27.1561 58.5046L21.625 56.1692L22.6667 53.7021L28.1977 56.0375L30.808 49.8555L33.0153 50.7875Z" fill="#CECDFF"/>
<path d="M0 80.3999C0 85.449 4.09289 89.5419 9.14209 89.5419C14.1912 89.5419 18.2842 85.449 18.2842 80.3999C18.2842 75.3508 14.1912 71.2578 9.14209 71.2578C4.09289 71.2578 0 75.3508 0 80.3999ZM3.29113 80.3999C3.29113 77.1685 5.91065 74.549 9.14201 74.549C12.3734 74.549 14.9929 77.1685 14.9929 80.3999C14.9929 83.6313 12.3734 86.2508 9.14201 86.2508C5.91065 86.2508 3.29113 83.6313 3.29113 80.3999Z" fill="#CECDFF"/>
<path d="M39.3708 87.9307C40.3069 86.0267 39.5223 83.7245 37.6183 82.7884C35.7144 81.8524 33.4122 82.637 32.4761 84.5409C31.5401 86.4448 32.3247 88.7471 34.2286 89.6831C36.1325 90.6192 38.4348 89.8346 39.3708 87.9307Z" fill="#4E2DA3"/>
<path d="M244.398 38.9125C245.769 37.0043 245.333 34.345 243.423 32.9729C241.513 31.6007 238.854 32.0352 237.483 33.9434C236.111 35.8515 236.548 38.5108 238.458 39.883C240.368 41.2552 243.027 40.8207 244.398 38.9125Z" fill="#CECDFF"/>
<path d="M219.103 15.6787C220.01 14.1771 219.528 12.2246 218.027 11.3177C216.525 10.4108 214.572 10.8928 213.666 12.3944C212.759 13.896 213.241 15.8485 214.742 16.7554C216.244 17.6623 218.196 17.1802 219.103 15.6787Z" fill="#4E2DA3"/>
<path d="M247.853 5.58675L242.436 7.57861L244.428 12.9954L242.266 13.7903L240.274 8.37346L234.857 10.3653L234.062 8.20359L239.479 6.21173L237.488 0.794908L239.649 0L241.641 5.41688L247.058 3.42502L247.853 5.58675Z" fill="#CECDFF"/>
<path d="M277.75 138.588C274.748 137.835 271.704 139.658 270.951 142.66C270.198 145.662 272.021 148.706 275.023 149.459C278.025 150.212 281.07 148.389 281.823 145.387C282.576 142.385 280.753 139.341 277.75 138.588ZM277.26 140.545C279.181 141.027 280.348 142.975 279.866 144.896C279.384 146.818 277.435 147.984 275.514 147.502C273.593 147.02 272.426 145.072 272.908 143.151C273.39 141.229 275.338 140.063 277.26 140.545Z" fill="#CECDFF"/>
<defs>
<linearGradient id="paint0_linear_1608_853" x1="242.701" y1="92.6412" x2="242.506" y2="90.3042" gradientUnits="userSpaceOnUse">
<stop stop-color="#AA99FF"/>
<stop offset="0.3543" stop-color="#AA99FF"/>
<stop offset="0.4071" stop-color="#AA99FF"/>
<stop offset="0.8073" stop-color="#E4E7FF"/>
</linearGradient>
</defs>
</svg>
