<svg width="317" height="181" viewBox="0 0 317 181" fill="none" xmlns="http://www.w3.org/2000/svg">
<path d="M284.72 31.1914L280.976 31.5562L280.396 50.9292C280.361 51.8366 280.303 52.8037 280.214 53.8228C280.106 55.0528 279.952 56.3586 279.737 57.727C279.552 58.9061 279.322 60.1315 279.037 61.3948C278.78 62.5361 278.478 63.7083 278.125 64.9052C277.809 65.974 277.453 67.0626 277.05 68.1663C277.035 68.2066 277.02 68.2468 277.005 68.287C276.706 69.0974 276.378 69.8972 276.023 70.6851C275.603 71.6199 275.147 72.5379 274.662 73.4371C274.04 74.5907 273.37 75.7133 272.667 76.8001C271.676 78.3337 270.619 79.7963 269.538 81.1751C267.679 83.5464 265.749 85.67 263.959 87.4806C260.905 90.568 258.257 92.7454 257.056 93.6888C256.883 93.8253 256.682 93.9036 256.477 93.9236L260.22 93.5588C260.425 93.5388 260.626 93.4605 260.8 93.324C262 92.3806 264.649 90.2032 267.702 87.1158C269.493 85.3052 271.423 83.1816 273.282 80.8103C274.362 79.4315 275.419 77.9689 276.411 76.4353C277.113 75.3484 277.783 74.2259 278.406 73.0723C278.891 72.1731 279.347 71.255 279.767 70.3203C280.121 69.5324 280.45 68.7326 280.749 67.9222C280.764 67.882 280.779 67.8418 280.793 67.8015C281.196 66.6978 281.553 65.6092 281.869 64.5404C282.222 63.3436 282.524 62.1713 282.781 61.03C283.066 59.7667 283.296 58.5412 283.481 57.3622C283.695 55.9938 283.849 54.688 283.957 53.4579C284.047 52.4388 284.105 51.4718 284.14 50.5644L284.72 31.1914Z" fill="#A1A1FF"/>
<path d="M284.704 31.1576C284.711 30.736 284.503 30.3143 284.152 30.0765C284.152 30.0764 284.152 30.0763 284.152 30.0763C284.103 30.0432 284.051 30.0135 283.998 29.9876L283.998 29.9876C283.998 29.9875 283.997 29.9874 283.997 29.9873C283.872 29.9278 283.736 29.892 283.597 29.8816C283.576 29.8802 283.554 29.8791 283.533 29.8789L279.789 30.2437C279.95 30.246 280.109 30.2838 280.254 30.3523C280.254 30.3524 280.254 30.3524 280.254 30.3524C280.704 30.5644 280.979 31.0621 280.961 31.5537L284.704 31.1888C284.704 31.1784 284.705 31.168 284.704 31.1576Z" fill="url(#paint0_linear_1616_2077)"/>
<path d="M277.73 30.1684C278.418 30.2101 279.107 30.235 279.795 30.2445L283.539 29.8797C274.952 29.7791 266.453 27.0923 259.259 22.4258L255.516 22.7906C262.133 27.0793 269.849 29.7053 277.73 30.1684Z" fill="#A1A1FF"/>
<path d="M235.274 29.8797C235.258 29.8799 235.243 29.8802 235.227 29.8804C235.227 29.8804 235.226 29.8804 235.226 29.8804C235.195 29.8808 235.164 29.8825 235.134 29.8855L231.391 30.2503C231.421 30.2474 231.451 30.2457 231.482 30.2452C231.483 30.2452 231.483 30.2452 231.483 30.2452C231.499 30.245 231.515 30.2448 231.53 30.2445C232.64 30.2285 233.863 30.1691 235.182 30.0406L238.926 29.6758C237.607 29.8043 236.383 29.8637 235.274 29.8797Z" fill="#A1A1FF"/>
<path d="M279.799 30.2434C276.561 30.1998 272.333 29.7881 267.569 28.3623C262.443 26.8281 258.364 24.6347 255.52 22.7891C255.504 22.7886 248.744 26.8294 243.661 28.3623C238.931 29.7881 234.714 30.1998 231.476 30.2434C230.815 30.252 230.299 30.8451 230.338 31.553L231.403 50.9261C231.693 55.486 232.603 61.5525 235.18 68.1632C240.208 81.0543 252.6 91.2945 255.669 93.6823C255.877 93.8438 256.121 93.9255 256.365 93.9255C256.606 93.9255 256.847 93.8451 257.051 93.6853C260.081 91.3045 272.337 81.0604 277.044 68.1633C279.457 61.5525 280.215 55.4861 280.391 50.9261L280.971 31.5531C280.992 30.8451 280.462 30.252 279.799 30.2434ZM277.97 52.2115C277.815 56.2492 277.144 61.6203 275.01 67.4747C270.847 78.8949 260.005 87.9656 257.324 90.0742C257.145 90.2151 256.933 90.2859 256.72 90.2868C256.595 90.3416 256.461 90.3688 256.327 90.3688C256.108 90.3688 255.888 90.2958 255.701 90.1503C252.938 88.0006 241.786 78.7848 237.261 67.1823C234.941 61.2324 234.122 55.7737 233.861 51.6694L232.903 34.2336C232.868 33.5969 233.332 33.0617 233.928 33.054C236.842 33.0155 240.637 32.6445 244.893 31.3617C249.469 29.9821 255.552 26.3456 255.59 26.3599C258.126 28.0068 261.797 29.9812 266.41 31.3617C270.699 32.6445 274.504 33.0155 277.419 33.054C278.014 33.0617 278.492 33.5969 278.473 34.2336L278.457 34.7687C278.477 34.8607 278.486 34.9575 278.483 35.0568L277.97 52.2115Z" fill="#E4E7FF"/>
<path d="M258.045 54.2755C258.037 53.6596 257.831 53.0934 257.493 52.6465C257.071 52.291 256.54 52.0781 255.965 52.0781C254.616 52.0781 253.537 53.2486 253.555 54.6934C253.563 55.3089 253.769 55.8748 254.107 56.3213C254.279 56.4664 254.469 56.5875 254.673 56.6803L254.675 56.8726C254.799 56.9596 254.93 57.0354 255.068 57.0982L255.12 61.2771C255.123 61.4487 255.165 61.6105 255.237 61.7523C255.37 61.8277 255.522 61.8705 255.682 61.8705C256.205 61.8705 256.622 61.4178 256.615 60.8589L256.563 56.693C257.445 56.3016 258.058 55.3666 258.045 54.2755Z" fill="#CECDFF"/>
<path d="M278.46 34.7697C278.354 34.2774 277.943 33.9038 277.45 33.8973C274.585 33.8593 270.846 33.4947 266.631 32.2321C262.097 30.8737 258.488 28.931 255.973 27.2969C255.959 27.2965 249.979 30.8744 245.482 32.2321C241.299 33.4948 237.568 33.8593 234.704 33.8973C234.118 33.905 233.663 34.4309 233.697 35.0577L234.639 52.2126C234.896 56.2501 235.7 61.6213 237.981 67.4752C242.429 78.8905 253.39 87.9582 256.105 90.0724C256.29 90.2157 256.506 90.2875 256.724 90.2875C256.937 90.2872 257.148 90.2164 257.328 90.0753C260.009 87.9665 270.85 78.8955 275.014 67.4752C277.147 61.6212 277.818 56.25 277.974 52.2126L278.486 35.0576C278.489 34.9586 278.48 34.8622 278.46 34.7697Z" fill="#CECDFF"/>
<path d="M277.416 33.0558C274.501 33.0172 270.696 32.6464 266.408 31.3635C261.795 29.9828 258.124 28.0085 255.564 26.3477C255.55 26.3474 249.466 29.9837 244.89 31.3635C240.634 32.6464 236.839 33.0172 233.925 33.0558C233.329 33.0638 232.865 33.5983 232.9 34.2352L233.859 51.6713C234.12 55.7751 234.938 61.2343 237.259 67.1842C241.783 78.7865 252.936 88.0025 255.698 90.1518C255.886 90.2975 256.106 90.3703 256.324 90.3703C256.458 90.3703 256.592 90.343 256.715 90.2885C256.5 90.2885 256.284 90.2167 256.099 90.0733C253.384 87.9588 242.423 78.8913 237.975 67.4761C235.694 61.6221 234.89 56.2508 234.633 52.2133L233.691 35.0584C233.657 34.4317 234.113 33.9057 234.698 33.8982C237.562 33.8601 241.292 33.4954 245.476 32.2327C249.973 30.8754 255.953 27.2974 255.988 27.3118C258.482 28.9318 262.091 30.8746 266.625 32.2327C270.84 33.4954 274.579 33.8601 277.444 33.8982C277.937 33.9045 278.348 34.2784 278.454 34.7704L278.47 34.2353C278.489 33.5983 278.011 33.0638 277.416 33.0558Z" fill="#60439D"/>
<path d="M267.204 51.6391C267.193 50.8292 266.831 50.1074 266.275 49.6406C266.602 50.075 266.8 50.6241 266.808 51.2212L266.96 63.3711C266.978 64.7781 265.927 65.919 264.612 65.919H246.952C246.394 65.919 245.879 65.7136 245.469 65.3695C245.912 65.9588 246.591 66.3369 247.348 66.3369H265.007C266.322 66.3369 267.373 65.196 267.356 63.789L267.204 51.6391Z" fill="#A1A1FF"/>
<path d="M262.713 44.3285C262.687 42.2105 261.818 40.3035 260.453 38.9727C261.588 40.2707 262.294 42.0055 262.317 43.9107L262.368 47.9152C262.374 47.9094 262.379 47.904 262.384 47.8993L262.394 48.6736H262.767L262.713 44.3285Z" fill="#A1A1FF"/>
<path d="M266.811 51.2194C266.803 50.6225 266.604 50.0735 266.278 49.639C265.835 49.0498 265.156 48.6719 264.399 48.6719H262.764H262.391H260.278H251.207H250.875H248.765H246.739C245.424 48.6719 244.373 49.8126 244.391 51.2194L244.543 63.3693C244.553 64.1796 244.915 64.9013 245.472 65.3679C245.881 65.7121 246.397 65.9173 246.955 65.9173H264.614C265.929 65.9173 266.98 64.7765 266.963 63.3693L266.811 51.2194ZM256.6 56.6929L256.652 60.8589C256.659 61.4178 256.241 61.8705 255.719 61.8705C255.559 61.8705 255.407 61.8277 255.274 61.7521C254.974 61.582 254.766 61.2459 254.761 60.8589L254.712 56.8722L254.709 56.6804C254.505 56.5876 254.315 56.4662 254.143 56.321C253.576 55.842 253.206 55.1034 253.196 54.2754C253.178 52.831 254.257 51.66 255.606 51.66C256.38 51.66 257.074 52.0453 257.53 52.6466C257.868 53.0932 258.074 53.6595 258.082 54.2755C258.095 55.3664 257.482 56.3011 256.6 56.6929Z" fill="#F3F5FF"/>
<path d="M262.321 43.909C262.297 42.0038 261.591 40.2691 260.456 38.971C259.195 37.5284 257.403 36.625 255.425 36.625C251.667 36.625 248.661 39.8864 248.712 43.909L248.761 47.8977C248.847 47.9765 249.23 48.3162 249.798 48.3162C249.816 48.3162 249.835 48.3158 249.853 48.3151C250.298 48.2986 250.647 48.08 250.804 47.9561C250.804 47.939 250.762 44.6142 250.762 44.6142C250.727 41.7983 252.831 39.5152 255.461 39.5152C256.876 39.5152 258.155 40.1754 259.04 41.2238C259.801 42.1249 260.272 43.3126 260.288 44.6142L260.33 47.9427C260.481 48.0624 260.868 48.3162 261.362 48.3162C261.38 48.3162 261.398 48.3159 261.417 48.3152C261.919 48.2965 262.255 48.0202 262.371 47.9136L262.321 43.909Z" fill="#F3F5FF"/>
<path d="M255.614 51.6602C254.265 51.6602 253.185 52.8311 253.203 54.2753C253.214 55.1036 253.583 55.842 254.151 56.321C253.813 55.8744 253.607 55.3086 253.599 54.6932C253.581 53.2486 254.66 52.0781 256.009 52.0781C256.584 52.0781 257.115 52.2908 257.537 52.6465C257.082 52.0454 256.387 51.6602 255.614 51.6602Z" fill="#A1A1FF"/>
<path d="M260.337 48.6052L260.321 47.943C260.321 47.943 260.321 47.9179 260.321 47.9054L260.279 44.6148C260.263 43.313 259.793 42.1255 259.032 41.224C258.18 40.4212 257.064 39.9336 255.848 39.9336C253.218 39.9336 251.113 42.217 251.149 45.0324L251.19 48.3235C251.191 48.4406 251.196 48.5571 251.205 48.6726H260.287H260.339L260.337 48.6052Z" fill="#CECDFF"/>
<path d="M262.389 48.6725H260.339L260.337 48.6051L260.32 47.9429L260.321 47.9434C260.472 48.0631 260.859 48.3165 261.353 48.3165C261.371 48.3165 261.39 48.3165 261.408 48.3155C261.911 48.2966 262.247 48.0207 262.362 47.9141C262.369 47.9083 262.374 47.9031 262.379 47.8984L262.389 48.6725Z" fill="#E4E7FF"/>
<path d="M255.458 39.5156C252.827 39.5156 250.723 41.7985 250.758 44.6145L250.8 47.905L250.799 47.9578L250.79 48.6722V48.6759L251.211 48.6722C251.202 48.5568 251.197 48.4402 251.195 48.3232L251.154 45.0326C251.119 42.2166 253.222 39.9332 255.853 39.9332C257.069 39.9332 258.185 40.4214 259.037 41.2241C258.151 40.1758 256.873 39.5156 255.458 39.5156Z" fill="#A1A1FF"/>
<path d="M250.799 47.958L250.789 48.6725H248.776L248.758 47.8984C248.843 47.9768 249.226 48.3165 249.794 48.3165C249.813 48.3165 249.831 48.3165 249.85 48.3155C250.292 48.2993 250.641 48.0819 250.799 47.958Z" fill="#E4E7FF"/>
<path d="M255.164 61.2756L255.112 57.097C254.974 57.0343 254.843 56.9585 254.719 56.8711L254.769 60.8577C254.774 61.2447 254.981 61.5807 255.281 61.7509C255.208 61.6093 255.166 61.4475 255.164 61.2756Z" fill="#A1A1FF"/>
<path d="M224.383 58.7031H62.506C57.1114 58.7031 52.6953 64.1848 52.6953 70.8853V132.815V139.922V163.695C52.6953 166.6 55.2589 169.513 58.3633 169.513C59.77 169.513 61.2874 168.915 62.7285 167.448L78.0044 152.105H224.383C229.779 152.105 234.194 146.623 234.194 139.922V70.8853C234.194 64.1847 229.779 58.7031 224.383 58.7031ZM225.844 134.232C225.844 139.664 221.853 144.109 216.974 144.109L79.4855 145.289L66.2814 157.726C65.5781 158.397 64.7601 158.698 63.9598 158.698C63.661 158.698 63.3652 158.656 63.0791 158.576C62.7911 158.659 62.5002 158.699 62.2102 158.699C60.3332 158.699 58.5543 157.023 58.5543 154.552V134.644V128.694V76.8367C58.5543 71.2245 62.5873 66.635 67.5167 66.635L216.826 65.4161C221.756 65.4161 225.789 70.0057 225.789 75.6167V77.1659C225.825 77.5279 225.844 77.8945 225.844 78.2667V134.232Z" fill="#E4E7FF"/>
<path d="M225.782 77.1528V77.1518C225.286 72.2344 221.512 68.3789 216.968 68.3789L69.2041 69.5582C64.3269 69.5582 60.336 74.0018 60.336 79.4348C60.3363 96.5776 60.3358 138.125 60.336 154.671C60.3603 157.239 62.3217 158.999 64.5555 158.627C65.1778 158.51 65.7987 158.176 66.2756 157.712L79.4791 145.275L216.968 144.096C217.272 144.096 217.574 144.079 217.871 144.045C221.14 143.672 223.9 141.3 225.138 138.054C225.588 136.873 225.838 135.576 225.838 134.219V78.2544C225.838 78.0683 225.819 77.8872 225.81 77.703C225.801 77.52 225.801 77.3339 225.782 77.1528ZM114.029 115.601C109.003 115.601 104.928 110.881 104.928 105.058C105.41 91.0687 122.65 91.0738 123.131 105.058C123.131 110.881 119.056 115.601 114.029 115.601ZM143.399 115.601C138.373 115.601 134.298 110.881 134.298 105.058C134.781 91.0685 152.022 91.0738 152.502 105.058C152.502 110.881 148.427 115.601 143.399 115.601ZM172.771 115.601C167.743 115.601 163.668 110.881 163.668 105.058C164.15 91.0705 181.391 91.0716 181.871 105.058C181.871 110.881 177.797 115.601 172.771 115.601Z" fill="#CECDFF"/>
<path d="M216.835 65.4023L67.5247 66.6215C62.5958 66.6215 58.5625 71.2116 58.5625 76.823V128.681V134.632V154.538C58.5625 157.01 60.3419 158.685 62.2186 158.685C62.5079 158.685 62.7995 158.646 63.0873 158.563C61.5904 158.144 60.3496 156.678 60.3496 154.671V135.399V129.639V79.4348C60.3496 74.0027 64.3408 69.5582 69.2194 69.5582L216.983 68.3786C221.527 68.3786 225.301 72.234 225.797 77.1523V75.6038C225.797 69.9925 221.764 65.4023 216.835 65.4023Z" fill="#463172"/>
<path d="M246.053 70.3728C245.931 66.3366 244.086 62.1777 240.662 60.0028C239.652 59.3649 238.516 58.9291 237.337 58.7685C237.336 58.6136 224.825 58.7244 224.375 58.6928C229.129 58.6853 232.727 62.8938 233.768 67.3661C234.048 68.5126 234.184 69.6928 234.186 70.8748V139.911C234.185 140.102 234.181 140.292 234.175 140.482C234.138 141.44 234.012 142.394 233.791 143.325C232.776 147.832 229.162 152.104 224.375 152.094H236.251C236.371 152.094 236.49 152.091 236.609 152.085C237.145 152.062 237.678 151.982 238.199 151.851C239.987 151.402 241.587 150.329 242.818 148.942C243.971 147.647 244.822 146.084 245.359 144.424C245.637 143.569 245.83 142.686 245.944 141.792C246.018 141.2 246.057 140.603 246.061 140.004C246.038 139.361 246.09 71.0202 246.053 70.3728Z" fill="#AA99FF"/>
<rect x="83.9141" y="76.1602" width="107.995" height="49.369" fill="#CECDFF"/>
<g clip-path="url(#clip0_1616_2077)">
<path d="M118.122 94.668C119.738 94.668 121.269 95.082 122.636 95.8212C121.435 95.2788 120.125 94.9807 118.753 94.9807C112.96 94.9807 108.264 100.299 108.264 106.861C108.264 111.592 110.705 115.676 114.239 117.587C110.368 115.839 107.633 111.556 107.633 106.548C107.633 99.987 112.329 94.668 118.122 94.668Z" fill="#7B6FB9"/>
<path d="M118.109 119.535C109.441 119.535 102.414 127.493 102.414 137.311C102.414 137.864 102.437 138.41 102.48 138.949C102.683 139.128 102.889 139.302 103.097 139.476C103.062 138.988 103.046 138.495 103.046 137.996C103.046 127.973 110.072 119.848 118.74 119.848C121.066 119.848 123.273 120.433 125.258 121.482C123.114 120.237 120.683 119.535 118.109 119.535Z" fill="#7B6FB9"/>
<path d="M114.209 117.325C115.577 118.065 117.108 118.479 118.724 118.479C124.517 118.479 129.213 113.16 129.213 106.599C129.213 101.591 126.478 97.3074 122.607 95.5593C121.406 95.0168 120.096 94.7188 118.724 94.7188C112.931 94.7188 108.234 100.037 108.234 106.599C108.234 111.33 110.676 115.414 114.209 117.325Z" fill="white"/>
<path d="M125.275 121.232C123.29 120.182 121.083 119.598 118.757 119.598C110.089 119.598 103.062 127.723 103.062 137.746C103.062 138.245 103.08 138.739 103.149 139.256C103.459 139.513 103.773 139.763 104.093 140.005C105.336 140.948 106.652 141.779 108.028 142.485C111.381 144.205 115.096 145.182 119.007 145.231C119.111 145.233 119.215 145.234 119.319 145.234C124.854 145.234 130.005 143.375 134.312 140.179C134.404 139.383 134.452 138.571 134.452 137.746C134.452 130.412 130.689 124.094 125.275 121.232Z" fill="white"/>
<path d="M148.808 85.4258C151.014 85.4258 153.105 85.9912 154.972 87.0005C153.332 86.2598 151.543 85.8528 149.67 85.8528C141.759 85.8528 135.346 93.1155 135.346 102.075C135.346 108.535 138.68 114.113 143.505 116.722C138.22 114.335 134.484 108.486 134.484 101.648C134.484 92.6889 140.897 85.4258 148.808 85.4258Z" fill="#7B6FB9"/>
<path d="M148.759 119.387C136.923 119.387 127.328 130.253 127.328 143.659C127.328 144.414 127.359 145.16 127.418 145.897C127.696 146.141 127.976 146.379 128.261 146.616C128.213 145.95 128.19 145.276 128.19 144.595C128.19 130.908 137.785 119.814 149.621 119.814C152.797 119.814 155.81 120.612 158.521 122.045C155.593 120.346 152.275 119.387 148.759 119.387Z" fill="#7B6FB9"/>
<path d="M143.44 116.354C145.307 117.363 147.398 117.929 149.605 117.929C157.515 117.929 163.928 110.666 163.928 101.707C163.928 94.8688 160.192 89.0191 154.907 86.6321C153.267 85.8914 151.478 85.4844 149.605 85.4844C141.694 85.4844 135.281 92.747 135.281 101.707C135.281 108.166 138.615 113.744 143.44 116.354Z" fill="white"/>
<path d="M158.558 121.7C155.847 120.267 152.833 119.469 149.658 119.469C137.821 119.469 128.227 130.564 128.227 144.251C128.227 144.932 128.25 145.606 128.345 146.313C128.768 146.664 129.197 147.004 129.633 147.335C131.331 148.623 133.128 149.757 135.007 150.721C139.586 153.07 144.658 154.404 149.999 154.471C150.141 154.474 150.283 154.474 150.424 154.474C157.982 154.474 165.016 151.936 170.898 147.572C171.024 146.486 171.089 145.377 171.089 144.251C171.089 134.236 165.951 125.609 158.558 121.7Z" fill="white"/>
<path d="M179.685 94.668C181.301 94.668 182.832 95.082 184.199 95.8212C182.998 95.2788 181.688 94.9807 180.316 94.9807C174.523 94.9807 169.826 100.299 169.826 106.861C169.826 111.592 172.268 115.676 175.801 117.587C171.931 115.839 169.195 111.556 169.195 106.548C169.195 99.987 173.892 94.668 179.685 94.668Z" fill="#7B6FB9"/>
<path d="M179.671 119.535C171.004 119.535 163.977 127.493 163.977 137.311C163.977 137.864 163.999 138.41 164.043 138.949C164.246 139.128 164.451 139.302 164.66 139.476C164.625 138.988 164.608 138.495 164.608 137.996C164.608 127.973 171.634 119.848 180.302 119.848C182.628 119.848 184.835 120.433 186.82 121.482C184.676 120.237 182.246 119.535 179.671 119.535Z" fill="#7B6FB9"/>
<path d="M175.772 117.325C177.139 118.065 178.67 118.479 180.286 118.479C186.08 118.479 190.776 113.16 190.776 106.599C190.776 101.591 188.04 97.3074 184.169 95.5593C182.968 95.0168 181.658 94.7188 180.286 94.7188C174.493 94.7188 169.797 100.037 169.797 106.599C169.797 111.33 172.238 115.414 175.772 117.325Z" fill="white"/>
<path d="M186.838 121.232C184.852 120.182 182.645 119.598 180.32 119.598C171.651 119.598 164.625 127.723 164.625 137.746C164.625 138.245 164.642 138.739 164.712 139.256C165.021 139.513 165.336 139.763 165.655 140.005C166.899 140.948 168.214 141.779 169.59 142.485C172.944 144.205 176.658 145.182 180.57 145.231C180.674 145.233 180.777 145.234 180.881 145.234C186.416 145.234 191.567 143.375 195.874 140.179C195.967 139.383 196.014 138.571 196.014 137.746C196.014 130.412 192.252 124.094 186.838 121.232Z" fill="white"/>
</g>
<path d="M275.225 141.745L279.86 142.894L281.011 138.25L282.861 138.708L281.71 143.352L286.346 144.501L285.886 146.354L281.251 145.205L280.1 149.849L278.25 149.39L279.401 144.747L274.766 143.598L275.225 141.745Z" fill="#6D6DBF"/>
<path d="M295.953 177.127C299.727 181.346 306.205 181.707 310.424 177.934C314.643 174.161 315.004 167.682 311.231 163.463C307.458 159.244 300.979 158.883 296.76 162.656C292.541 166.43 292.18 172.908 295.953 177.127ZM298.703 174.668C296.288 171.968 296.52 167.821 299.22 165.406C301.92 162.992 306.066 163.223 308.481 165.923C310.896 168.623 310.665 172.769 307.965 175.184C305.264 177.599 301.118 177.368 298.703 174.668Z" fill="#E4E7FF"/>
<path d="M37.0106 22.7557L34.0845 29.6857L40.2848 32.3037L39.1171 35.0692L32.9168 32.4513L29.9907 39.3812L27.5164 38.3365L30.4425 31.4065L24.2422 28.7885L25.4099 26.023L31.6101 28.641L34.5363 21.7109L37.0106 22.7557Z" fill="#CECDFF"/>
<path d="M0 55.9513C0 61.6113 4.58809 66.1994 10.2482 66.1994C15.9082 66.1994 20.4964 61.6113 20.4964 55.9513C20.4964 50.2913 15.9082 45.7031 10.2482 45.7031C4.58809 45.7031 0 50.2913 0 55.9513ZM3.68932 55.9513C3.68932 52.3289 6.62578 49.3925 10.2481 49.3925C13.8705 49.3925 16.8069 52.3289 16.8069 55.9513C16.8069 59.5737 13.8705 62.5101 10.2481 62.5101C6.62578 62.5101 3.68932 59.5736 3.68932 55.9513Z" fill="#CECDFF"/>
<path d="M44.1366 64.3963C45.1859 62.2621 44.3064 59.6813 42.1721 58.632C40.0378 57.5827 37.457 58.4622 36.4077 60.5965C35.3584 62.7308 36.238 65.3116 38.3723 66.3609C40.5065 67.4102 43.0873 66.5306 44.1366 64.3963Z" fill="#4E2DA3"/>
<path d="M273.965 9.44333C275.502 7.30427 275.013 4.32327 272.872 2.78506C270.731 1.24685 267.749 1.73392 266.213 3.87298C264.676 6.01204 265.165 8.99306 267.306 10.5313C269.447 12.0695 272.428 11.5824 273.965 9.44333Z" fill="#CECDFF"/>
<path d="M311.351 121.179C307.986 120.334 304.574 122.378 303.729 125.743C302.885 129.109 304.929 132.521 308.294 133.366C311.66 134.21 315.072 132.166 315.916 128.801C316.761 125.435 314.717 122.023 311.351 121.179ZM310.801 123.372C312.955 123.913 314.263 126.097 313.723 128.25C313.182 130.404 310.998 131.712 308.844 131.172C306.691 130.632 305.383 128.448 305.923 126.294C306.463 124.14 308.647 122.832 310.801 123.372Z" fill="#CECDFF"/>
<defs>
<linearGradient id="paint0_linear_1616_2077" x1="282.32" y1="31.5475" x2="282.181" y2="29.8785" gradientUnits="userSpaceOnUse">
<stop stop-color="#AA99FF"/>
<stop offset="0.3543" stop-color="#AA99FF"/>
<stop offset="0.4071" stop-color="#AA99FF"/>
<stop offset="0.8073" stop-color="#E4E7FF"/>
</linearGradient>
<clipPath id="clip0_1616_2077">
<rect width="92.5669" height="56.9642" fill="white" transform="translate(102.414 85.4258)"/>
</clipPath>
</defs>
</svg>
