<svg width="325" height="182" viewBox="0 0 325 182" fill="none" xmlns="http://www.w3.org/2000/svg">
<path d="M133.375 170.364C133.43 169.564 132.861 168.865 132.084 168.742C132.552 168.522 132.9 168.071 132.959 167.519C133.051 166.676 132.441 165.918 131.598 165.827L121.724 164.756L123.572 164.272C124.293 164.083 124.78 163.385 124.684 162.626C124.579 161.801 123.825 161.217 123.001 161.322L116.06 162.203L80.8806 157.205L83.7489 127.66L70.7207 126.625L72.4687 176.138L117.773 176.805L117.774 176.781L131.789 176.947C132.571 176.955 133.223 176.339 133.253 175.553C133.278 174.889 132.851 174.313 132.246 174.12C132.694 173.893 133.011 173.441 133.04 172.905C133.066 172.401 132.832 171.944 132.455 171.665C132.963 171.443 133.335 170.955 133.375 170.364Z" fill="#FFC4BC"/>
<path d="M294.406 163.681V181.274H214.887L220.656 128.882C203.836 147.696 188.89 123.828 155.15 82.9042L166.1 71.3633L204.625 100.15C212.764 92.7321 214.257 85.2878 230.571 85.2878H277.819C305.56 85.2878 312.974 96.089 316.885 136.972C319.279 162.001 296.522 163.305 294.406 163.681Z" fill="#3692FF"/>
<path d="M314.466 181.273H0V182.001H314.466V181.273Z" fill="#1D233B"/>
<path d="M246.441 168.398C266.331 167.559 287.444 167.026 294.406 166.208V163.682L246.441 168.398Z" fill="#1D233B"/>
<path d="M204.578 100.148L209.116 104.184L206.845 97.9258C206.086 98.7084 205.33 99.4527 204.578 100.148Z" fill="#1D233B"/>
<path d="M289.245 138.562C289.16 138.562 289.084 138.504 289.065 138.418L286.163 125.407C286.14 125.307 286.203 125.208 286.303 125.186C286.403 125.164 286.502 125.227 286.524 125.326L289.426 138.337C289.448 138.437 289.385 138.536 289.286 138.558C289.272 138.561 289.258 138.562 289.245 138.562Z" fill="#1D233B"/>
<path d="M194.246 173.738H150.627V181.272H194.246V173.738Z" fill="#005FD3"/>
<path d="M194.246 157.408H150.627V164.942H194.246V157.408Z" fill="#FFB74E"/>
<path d="M191.425 168.16H144.219V173.738H191.425V168.16Z" fill="#3692FF"/>
<path d="M197.448 164.943H147.611V168.161H197.448V164.943Z" fill="#FF8144"/>
<path d="M271.168 87.6734C271.168 91.9175 264.093 95.3585 255.365 95.3585C246.637 95.3585 239.562 91.9175 239.562 87.6734C239.562 87.256 239.631 86.8469 239.762 86.4475C239.894 86.0494 240.089 85.6608 240.342 85.2845C242.474 85.2845 244.295 83.9492 245.013 82.0707C245.225 81.5165 245.342 80.9146 245.342 80.2853V73.9219H265.387V80.2853C265.387 83.0463 267.625 85.2846 270.388 85.2846C270.894 86.0355 271.168 86.8387 271.168 87.6734Z" fill="#FCC5A7"/>
<path d="M56.1378 57.745C57.9195 55.2726 57.9439 51.8284 55.974 49.3055C54.004 46.7824 50.6568 45.9706 47.8262 47.0996C46.924 44.1889 44.1879 42.0966 40.9874 42.1514C38.51 42.1939 36.3552 43.5132 35.1354 45.4704C32.8988 44.9084 30.432 45.4546 28.6193 47.144C26.2775 49.3263 25.7606 52.7316 27.132 55.4531C24.3108 56.6055 22.4651 59.5136 22.7986 62.6971C23.1321 65.8806 25.5407 68.3429 28.5394 68.8855C27.7619 71.8321 28.9736 75.0563 31.7169 76.7058C34.4602 78.3553 37.876 77.9135 40.114 75.8452C41.9995 78.2394 45.3035 79.2122 48.2718 78.0139C51.2401 76.8157 52.943 73.8219 52.6381 70.7898C55.6848 70.7249 58.4502 68.6716 59.2796 65.5799C60.109 62.4882 58.7428 59.3262 56.1378 57.745Z" fill="#FFDD8D"/>
<path d="M57.0432 87.8516H38.6426V91.4352H57.0432V87.8516Z" fill="#FFC4BC"/>
<path d="M84.0294 121.869C84.0171 125.306 83.7476 127.661 83.7476 127.661L80.8251 131.404C73.9686 140.187 78.6287 142.82 74.262 181.271H17.2058C20.1352 135.925 8.54255 118.535 17.3399 103.391C19.9394 98.9153 25.861 95.4566 31.3515 95.4566L34.6816 95.4279C35.7775 95.4183 36.7654 94.9695 37.481 94.2471C38.1965 93.5247 38.6384 92.5314 38.6384 91.4355H57.0392C57.0392 93.6561 58.8398 95.4567 61.0603 95.4567H68.2364C82.2371 95.4566 84.0649 112.599 84.0294 121.869Z" fill="#FF8C51"/>
<path d="M55.2657 148.823L48.166 170.676L50.4923 171.432L57.5921 149.579L55.2657 148.823Z" fill="#1D233B"/>
<path d="M59.6896 150.26L52.5898 172.113L54.9162 172.869L62.0159 151.016L59.6896 150.26Z" fill="#1D233B"/>
<path d="M64.6388 151.866L57.5391 173.719L59.8654 174.475L66.9651 152.622L64.6388 151.866Z" fill="#1D233B"/>
<path d="M56.4333 147.015L55.791 148.992L57.0676 149.407L57.7098 147.43L56.4333 147.015Z" fill="#1D233B"/>
<path d="M53.7459 172.681C53.7269 172.681 53.7077 172.678 53.6886 172.672C53.5914 172.641 53.538 172.536 53.5697 172.439L60.6699 150.587C60.7015 150.49 60.8054 150.436 60.9032 150.468C61.0004 150.5 61.0538 150.604 61.0221 150.701L53.9219 172.553C53.8965 172.631 53.824 172.681 53.7459 172.681Z" fill="white"/>
<path d="M56.6619 173.63C56.6431 173.63 56.6237 173.627 56.6046 173.621C56.5074 173.589 56.454 173.485 56.4857 173.388L64.1673 149.746L67.5388 150.842C67.636 150.873 67.6894 150.978 67.6577 151.075C67.6261 151.172 67.5221 151.226 67.4244 151.194L64.4051 150.213L56.8381 173.502C56.8125 173.58 56.74 173.63 56.6619 173.63Z" fill="#1D233B"/>
<path d="M58.2921 56.9902C55.531 64.4073 48.0154 69.7278 39.1762 69.7278C38.998 69.7278 38.8197 69.7256 38.6426 69.7212V87.8531H57.4644C68.402 87.8531 67.1079 75.5676 66.1965 66.1801C62.5805 64.3171 59.8237 60.4644 58.2921 56.9902Z" fill="#FFC4BC"/>
<path d="M66.1966 65.4537C66.1966 59.1224 61.8867 53.6229 55.7832 52.0917C47.0601 49.9035 38.6426 56.5086 38.6426 65.4537C38.6426 70.6812 38.6426 70.6812 38.6426 70.6812C38.6426 70.6812 38.8794 70.688 39.1764 70.688C48.0154 70.688 55.5312 65.3674 58.2922 57.9504C59.8877 61.5692 62.8314 64.4977 66.1966 66.1804V65.4537Z" fill="#FFDD8D"/>
<path d="M40.7788 75.5674C43.2692 75.5674 45.2881 73.5485 45.2881 71.0581C45.2881 68.5677 43.2692 66.5488 40.7788 66.5488C38.2884 66.5488 36.2695 68.5677 36.2695 71.0581C36.2695 73.5485 38.2884 75.5674 40.7788 75.5674Z" fill="#FFC4BC"/>
<path d="M38.7519 63.8711C38.7441 63.8711 38.7363 63.8706 38.7283 63.8696C38.6268 63.8566 38.5551 63.764 38.5679 63.6625C39.0417 59.9385 40.9621 56.6264 43.9758 54.3366C46.9847 52.0504 50.6898 51.0903 54.4081 51.6319C54.5091 51.6466 54.5794 51.7406 54.5645 51.8419C54.5499 51.9429 54.4565 52.0124 54.3545 51.9983C50.7352 51.4707 47.1288 52.4058 44.1997 54.6315C41.2658 56.8606 39.3963 60.0845 38.9352 63.7093C38.9235 63.8029 38.8438 63.8711 38.7519 63.8711Z" fill="#1D233B"/>
<path d="M84.0284 121.869C84.016 125.306 83.7466 127.661 83.7466 127.661L81.6435 130.355C73.3661 133.78 49.7648 137.909 32.709 128.616L84.0284 121.869Z" fill="#1D233B"/>
<path d="M235.659 181.271H223.2L221.643 159.525H237.217L235.659 181.271Z" fill="#FFB74E"/>
<path d="M237.581 159.527H221.279C220.661 159.527 220.16 159.027 220.16 158.409V158.32C220.16 157.702 220.661 157.201 221.279 157.201H237.581C238.198 157.201 238.699 157.702 238.699 158.32V158.409C238.699 159.027 238.198 159.527 237.581 159.527Z" fill="#FF8144"/>
<path d="M235.567 155.586H223.294C222.436 155.586 221.74 156.281 221.74 157.14V157.202H237.121V157.14C237.121 156.282 236.425 155.586 235.567 155.586Z" fill="#FF8144"/>
<path d="M233.788 157.386H221.74C221.638 157.386 221.555 157.303 221.555 157.201C221.555 157.099 221.638 157.016 221.74 157.016H233.788C233.89 157.016 233.973 157.099 233.973 157.201C233.973 157.303 233.89 157.386 233.788 157.386Z" fill="#1D233B"/>
<path d="M221.645 159.525L221.762 161.164L237.219 159.525H221.645Z" fill="#1D233B"/>
<path d="M66.1942 169.838L47.8405 160.367L40.4551 181.273H66.1942V169.838Z" fill="#1D233B"/>
<path d="M254.957 77.6172C252.182 79.3862 248.291 80.9447 245.016 82.072C245.228 81.5178 245.344 80.9159 245.344 80.2865V77.9798L254.957 77.6172Z" fill="#1D233B"/>
<path d="M239.202 48.9688C239.202 48.9688 230.353 53.92 238.635 62.2567L239.202 48.9688Z" fill="#1D233B"/>
<path d="M265.388 63.4955V75.6775C254.551 77.846 247.782 78.7386 243.621 77.7821C234.858 75.7673 237.884 64.0644 237.884 52.6426H256.674L256.125 57.6321C255.961 59.1254 256.44 60.6183 257.442 61.7373C258.445 62.8563 259.544 63.4956 261.046 63.4956H265.388V63.4955Z" fill="#FCC5A7"/>
<path d="M266.814 51.1841C266.821 58.2784 265.39 62.9437 265.39 62.9437H258.757C256.837 62.9437 255.349 61.2671 255.577 59.3611L256.097 55.0026C256.247 53.7481 255.267 52.6444 254.004 52.6444H237.886C234.182 50.2313 232.3 46.2722 233.569 42.8955C235.108 38.8024 240.699 37.1158 246.055 39.1291C246.056 39.1302 246.058 39.1302 246.06 39.1314C247.272 37.6031 249.147 36.623 251.25 36.623C253.68 36.623 255.805 37.9309 256.958 39.8822C265.485 41.2171 266.807 45.1685 266.814 51.1841Z" fill="#1D233B"/>
<path d="M265.639 64.87C267.4 63.1091 267.4 60.2542 265.639 58.4933C263.878 56.7325 261.023 56.7325 259.263 58.4933C257.502 60.2542 257.502 63.1091 259.263 64.87C261.023 66.6308 263.878 66.6308 265.639 64.87Z" fill="#FCC5A7"/>
<path d="M164.794 72.7385L161.254 68.9139C161.249 68.9071 161.245 68.8998 161.24 68.8931L157.082 63.2583C156.684 62.7179 155.939 62.5378 155.331 62.8642C154.664 63.2221 154.413 64.0532 154.771 64.7204L154.935 65.0259L150.606 61.1015C149.979 60.5334 149.008 60.5705 148.428 61.1907C148.044 61.6006 147.927 62.1628 148.066 62.6671C147.459 62.2649 146.632 62.333 146.102 62.8716C145.643 63.3377 145.539 64.0198 145.786 64.5848C145.262 64.4227 144.668 64.5427 144.246 64.9502C143.724 65.4537 143.633 66.2333 143.976 66.8357C143.476 66.7009 142.92 66.8166 142.512 67.1949C141.883 67.779 141.847 68.7623 142.431 69.3913L149.206 76.6884L149.201 76.6936L149.533 77.0401L149.819 77.3487C149.823 77.3529 149.833 77.3635 149.837 77.3678C149.868 77.3995 149.9 77.4283 149.932 77.457L155.149 82.9055L164.794 72.7385Z" fill="#FCC5A7"/>
<path d="M149.193 72.5017C149.144 72.5017 149.096 72.4829 149.059 72.4451L144.073 67.2786C144.002 67.2049 144.005 67.0878 144.078 67.0168C144.152 66.9457 144.269 66.9479 144.34 67.0214L149.326 72.1879C149.397 72.2616 149.395 72.3787 149.321 72.4497C149.285 72.4844 149.239 72.5017 149.193 72.5017Z" fill="#1D233B"/>
<path d="M151.176 70.0577C151.129 70.0577 151.082 70.0401 151.046 70.0048L145.657 64.7159C145.584 64.6442 145.583 64.5269 145.654 64.454C145.726 64.3809 145.844 64.3798 145.916 64.4514L151.305 69.7404C151.378 69.8121 151.379 69.9293 151.308 70.0022C151.271 70.0393 151.223 70.0577 151.176 70.0577Z" fill="#1D233B"/>
<path d="M153.398 68.175C153.351 68.175 153.305 68.1574 153.269 68.1221L147.88 62.833C147.807 62.7613 147.806 62.6441 147.877 62.5712C147.949 62.498 148.066 62.4971 148.139 62.5687L153.528 67.8578C153.601 67.9295 153.602 68.0467 153.53 68.1196C153.494 68.1564 153.446 68.175 153.398 68.175Z" fill="#1D233B"/>
<path d="M154.844 73.0864C154.75 73.0864 154.669 73.0146 154.66 72.9187C154.35 69.6277 155.41 67.7382 155.456 67.6593C155.507 67.5707 155.619 67.5402 155.708 67.5909C155.797 67.6417 155.828 67.7548 155.777 67.8435C155.766 67.8619 154.731 69.7189 155.029 72.8839C155.038 72.9856 154.964 73.076 154.862 73.0856C154.856 73.0861 154.85 73.0864 154.844 73.0864Z" fill="#1D233B"/>
<path d="M164.795 72.7402C160.322 75.64 156.047 78.5051 153.406 81.0856L155.15 82.907L164.795 72.7402Z" fill="#1D233B"/>
<path d="M246.464 168.537L244.415 154.674L239.221 155.1C239.213 155.099 239.205 155.098 239.196 155.098L232.196 154.893C231.525 154.873 230.924 155.348 230.805 156.028C230.675 156.774 231.175 157.484 231.921 157.614L232.262 157.674L226.503 158.658C225.669 158.801 225.099 159.587 225.229 160.427C225.315 160.982 225.685 161.421 226.168 161.623C225.476 161.853 225.02 162.545 225.116 163.294C225.2 163.943 225.673 164.446 226.27 164.6C225.819 164.913 225.547 165.454 225.607 166.038C225.681 166.759 226.238 167.312 226.924 167.414C226.509 167.724 226.257 168.233 226.303 168.787C226.375 169.642 227.126 170.278 227.981 170.206C242.277 169.006 240.265 169.149 246.464 168.537Z" fill="#FCC5A7"/>
<path d="M227.312 167.608C227.218 167.608 227.138 167.537 227.128 167.442C227.118 167.34 227.191 167.249 227.293 167.238L234.434 166.503C234.535 166.492 234.627 166.566 234.637 166.668C234.647 166.77 234.574 166.861 234.472 166.872L227.331 167.607C227.325 167.608 227.318 167.608 227.312 167.608Z" fill="#1D233B"/>
<path d="M226.31 164.796C226.217 164.796 226.137 164.727 226.126 164.632C226.114 164.531 226.187 164.439 226.289 164.427L234.269 163.498C234.37 163.485 234.463 163.558 234.474 163.66C234.486 163.761 234.413 163.853 234.312 163.865L226.332 164.795C226.324 164.796 226.317 164.796 226.31 164.796Z" fill="#1D233B"/>
<path d="M226.165 161.807C226.073 161.807 225.993 161.739 225.982 161.645C225.969 161.543 226.042 161.451 226.143 161.438L233.59 160.519C233.691 160.505 233.784 160.579 233.796 160.68C233.809 160.782 233.737 160.874 233.635 160.887L226.188 161.806C226.181 161.807 226.173 161.807 226.165 161.807Z" fill="#1D233B"/>
<path d="M244.415 154.674C244.101 159.893 243.827 165.018 244.128 168.769L246.463 168.537L244.415 154.674Z" fill="#1D233B"/>
<path d="M130.457 105.563C130.228 105.032 129.725 104.704 129.184 104.672C129.63 104.25 129.784 103.577 129.518 102.987C129.255 102.403 128.66 102.074 128.055 102.12C128.514 101.714 128.691 101.048 128.446 100.45C128.152 99.7341 127.363 99.372 126.638 99.597C126.949 99.2065 127.058 98.6689 126.875 98.1659C126.595 97.3974 125.745 97.0012 124.976 97.2813L117.777 99.9042C118.241 99.4258 118.328 98.6735 117.946 98.0945C117.504 97.4254 116.604 97.2413 115.935 97.6832L109.919 101.656C72.0117 115.668 44.4579 108.628 42.6054 107.616L32.709 128.62C46.3171 134.606 66.889 132.045 81.3343 128.353C96.0005 124.401 113.806 115.057 129.733 107.487C130.448 107.146 130.774 106.297 130.457 105.563Z" fill="#FFC4BC"/>
<path d="M42.4762 107.518C42.4754 107.52 42.4741 107.525 42.4732 107.528C42.4591 107.528 42.5047 107.56 42.607 107.616L42.6244 107.579C42.616 107.575 42.4853 107.519 42.4762 107.518Z" fill="#E6E6E6"/>
<path d="M61.2162 74.4275C61.1262 74.4275 61.0473 74.3618 61.0333 74.2701L60.1212 68.25C60.106 68.1488 60.1755 68.0544 60.2766 68.0392C60.3766 68.0241 60.4722 68.0934 60.4874 68.1946L61.3995 74.2147C61.4147 74.3159 61.3453 74.4102 61.2441 74.4255C61.2347 74.4268 61.2254 74.4275 61.2162 74.4275Z" fill="#1D233B"/>
<path d="M58.7044 79.3616C60.1088 79.5721 61.4181 78.6041 61.6285 77.1997L56.5424 76.4375C56.332 77.8419 57.3 79.1512 58.7044 79.3616Z" fill="white"/>
<path d="M243.125 64.3534C243.116 64.3534 243.106 64.3528 243.097 64.3513C242.996 64.3361 242.926 64.2416 242.942 64.1404L243.854 58.1204C243.869 58.0191 243.963 57.9496 244.065 57.965C244.166 57.9803 244.235 58.0748 244.22 58.1758L243.308 64.1958C243.294 64.2878 243.215 64.3534 243.125 64.3534Z" fill="#1D233B"/>
<path d="M245.017 68.8076C244.51 68.8076 243.999 68.6784 243.52 68.4235C243.43 68.3755 243.396 68.2633 243.444 68.1732C243.492 68.0829 243.604 68.0488 243.694 68.0967C244.383 68.4638 245.146 68.5368 245.842 68.3022C246.444 68.0996 246.926 67.6876 247.163 67.1723C247.206 67.0793 247.316 67.0386 247.409 67.0816C247.502 67.1244 247.543 67.2344 247.5 67.3273C247.22 67.9349 246.658 68.4181 245.961 68.6533C245.654 68.7564 245.336 68.8076 245.017 68.8076Z" fill="#1D233B"/>
<path d="M120.933 102.299C120.862 102.299 120.795 102.258 120.764 102.189C120.723 102.095 120.765 101.986 120.858 101.945L126.441 99.4709C126.535 99.4296 126.644 99.4719 126.685 99.5653C126.727 99.6588 126.685 99.7682 126.591 99.8096L121.008 102.283C120.984 102.294 120.958 102.299 120.933 102.299Z" fill="#1D233B"/>
<path d="M122.232 104.85C122.161 104.85 122.093 104.809 122.062 104.739C122.021 104.645 122.064 104.536 122.158 104.495L127.984 101.947C128.078 101.906 128.187 101.949 128.228 102.043C128.269 102.137 128.226 102.246 128.132 102.287L122.306 104.834C122.282 104.845 122.257 104.85 122.232 104.85Z" fill="#1D233B"/>
<path d="M123.545 107.415C123.473 107.415 123.405 107.374 123.375 107.304C123.334 107.21 123.377 107.101 123.471 107.06L128.752 104.752C128.846 104.711 128.955 104.754 128.996 104.848C129.037 104.941 128.994 105.05 128.9 105.092L123.619 107.4C123.595 107.41 123.569 107.415 123.545 107.415Z" fill="#1D233B"/>
<path d="M192.959 46.1186C182.385 42.5356 173.255 37.9907 165.625 32.5595C175.935 20.5495 183.697 9.66049 188.984 0C194.867 6.09815 202.254 11.3186 211.088 15.5857C207.5 24.5036 201.481 34.7166 192.959 46.1186Z" fill="white"/>
<path d="M202.523 17.9845C202.502 17.9845 202.48 17.9794 202.46 17.9684C197.048 15.0544 192.164 11.7128 187.942 8.03638C187.887 7.9881 187.881 7.90402 187.929 7.8485C187.978 7.79297 188.062 7.78718 188.117 7.83547C192.324 11.4989 197.192 14.8292 202.586 17.734C202.651 17.7688 202.675 17.8496 202.641 17.9144C202.616 17.959 202.571 17.9845 202.523 17.9845Z" fill="#F7D6B2"/>
<path d="M195.689 20.0875C195.666 20.0875 195.643 20.0817 195.622 20.0695C191.779 17.8404 188.204 15.3743 184.998 12.7401C184.941 12.6934 184.933 12.6094 184.979 12.5526C185.026 12.4958 185.11 12.4875 185.167 12.5342C188.362 15.1593 191.925 17.617 195.756 19.8391C195.819 19.8759 195.841 19.9575 195.804 20.0211C195.779 20.0637 195.734 20.0875 195.689 20.0875Z" fill="#F7D6B2"/>
<path d="M192.764 24.8113C192.742 24.8113 192.72 24.8061 192.7 24.7949C188.733 22.615 185.033 20.1988 181.702 17.6134C181.644 17.5682 181.633 17.4845 181.678 17.4265C181.723 17.3685 181.807 17.3578 181.865 17.403C185.185 19.9798 188.873 22.3883 192.828 24.5615C192.892 24.5969 192.916 24.6779 192.88 24.7422C192.856 24.7863 192.811 24.8113 192.764 24.8113Z" fill="#F7D6B2"/>
<path d="M197.264 33.3522C197.246 33.3522 197.229 33.349 197.212 33.3417C190.048 30.3244 183.602 26.7281 178.052 22.6526C177.993 22.609 177.98 22.5258 178.024 22.4664C178.068 22.4072 178.151 22.3944 178.21 22.4379C183.743 26.501 190.171 30.087 197.315 33.0962C197.383 33.1248 197.415 33.2029 197.386 33.2705C197.365 33.3216 197.316 33.3522 197.264 33.3522Z" fill="#F7D6B2"/>
<path d="M191.823 37.4913C191.806 37.4913 191.788 37.488 191.771 37.4808C185.227 34.7217 179.264 31.4828 174.047 27.8537C173.987 27.8118 173.972 27.7287 174.014 27.6684C174.056 27.608 174.139 27.5934 174.199 27.6351C179.401 31.2536 185.348 34.4836 191.875 37.2354C191.943 37.264 191.974 37.3421 191.946 37.4099C191.924 37.4608 191.875 37.4913 191.823 37.4913Z" fill="#F7D6B2"/>
<path d="M200.312 28.5451C200.294 28.5451 200.275 28.5414 200.258 28.5335C198.983 27.9671 197.719 27.3753 196.5 26.7742C196.434 26.7417 196.407 26.6619 196.44 26.5958C196.472 26.5298 196.552 26.5027 196.618 26.5353C197.833 27.1348 199.094 27.725 200.366 28.29C200.433 28.3198 200.463 28.3985 200.433 28.4657C200.411 28.5155 200.363 28.5451 200.312 28.5451Z" fill="#F7D6B2"/>
<path d="M203.01 23.9108C202.991 23.9108 202.972 23.9067 202.953 23.8982C201.066 23.0128 199.216 22.0731 197.454 21.1054C197.389 21.07 197.366 20.989 197.401 20.9245C197.437 20.86 197.518 20.8366 197.582 20.8719C199.339 21.8368 201.184 22.7739 203.067 23.6569C203.133 23.6881 203.162 23.7674 203.131 23.834C203.108 23.8825 203.06 23.9108 203.01 23.9108Z" fill="#F7D6B2"/>
<path d="M96.0722 27.5805C89.012 34.974 83.7042 40.8332 80.2287 45.2325C76.3998 37.0313 69.5522 31.1328 59.5234 27.3738C63.0663 23.0785 68.4747 17.3548 75.6703 10.127C85.5561 13.7068 92.3018 19.471 96.0722 27.5805Z" fill="white"/>
<path d="M66.3987 28.2459C66.3681 28.2459 66.3375 28.2353 66.3125 28.214C66.2564 28.1664 66.2497 28.0823 66.2975 28.0263C68.775 25.1163 72.0216 21.5823 76.2227 17.2224C76.2736 17.1695 76.358 17.1678 76.411 17.219C76.464 17.27 76.4656 17.3544 76.4144 17.4074C72.2173 21.7633 68.9743 25.2934 66.5004 28.199C66.4738 28.2299 66.4364 28.2459 66.3987 28.2459Z" fill="#F7D6B2"/>
<path d="M70.217 30.5048C70.1866 30.5048 70.1562 30.4944 70.1312 30.4733C70.075 30.4258 70.0679 30.3418 70.1154 30.2856C71.9451 28.1194 74.1659 25.6428 76.9049 22.7141C76.9551 22.6603 77.0395 22.6576 77.0931 22.7078C77.1468 22.758 77.1497 22.8422 77.0995 22.8961C74.3638 25.8214 72.1459 28.2949 70.3191 30.4575C70.2927 30.4887 70.2549 30.5048 70.217 30.5048Z" fill="#F7D6B2"/>
<path d="M73.596 33.0726C73.5659 33.0726 73.5355 33.0623 73.5105 33.0414C73.4541 32.9942 73.4468 32.9101 73.4941 32.8538C75.3182 30.6789 77.5323 28.1928 80.2622 25.2536C80.3126 25.1995 80.3966 25.1965 80.4505 25.2466C80.5044 25.2966 80.5076 25.381 80.4576 25.4349C77.7304 28.3708 75.5195 30.8535 73.6981 33.025C73.6718 33.0564 73.6341 33.0726 73.596 33.0726Z" fill="#F7D6B2"/>
<path d="M76.5414 35.9544C76.5112 35.9544 76.4811 35.9442 76.4561 35.9235C76.3995 35.8764 76.392 35.7924 76.4391 35.7358C79.2849 32.3223 83.1965 28.0164 88.3977 22.5725C88.4486 22.5192 88.5328 22.5174 88.5861 22.5681C88.6392 22.6189 88.6412 22.7033 88.5904 22.7564C83.3934 28.196 79.4857 32.4974 76.6437 35.9064C76.6174 35.9381 76.5795 35.9544 76.5414 35.9544Z" fill="#F7D6B2"/>
<path d="M79.0529 39.1535C79.023 39.1535 78.9929 39.1433 78.968 39.1228C78.9115 39.0758 78.9037 38.9919 78.9505 38.9352C81.543 35.8094 85 31.9611 89.5191 27.1707C89.5697 27.1172 89.654 27.1148 89.7074 27.1652C89.761 27.2157 89.7635 27.3 89.7129 27.3535C85.1979 32.1398 81.7444 35.984 79.1557 39.1053C79.1293 39.137 79.0913 39.1535 79.0529 39.1535Z" fill="#F7D6B2"/>
<path d="M82.9398 22.7282C82.9069 22.7282 82.874 22.7161 82.8482 22.6918C82.7949 22.6412 82.7925 22.5569 82.8431 22.5035C83.6753 21.6248 84.5646 20.6932 85.4862 19.7343C85.5373 19.6811 85.6214 19.6796 85.6745 19.7306C85.7275 19.7816 85.7292 19.8658 85.6782 19.919C84.757 20.8774 83.8683 21.8086 83.0366 22.6869C83.0103 22.7143 82.975 22.7282 82.9398 22.7282Z" fill="#F7D6B2"/>
<path d="M78.2797 21.5823C78.2468 21.5823 78.2139 21.5703 78.1882 21.546C78.1348 21.4954 78.1323 21.4111 78.1828 21.3577C79.3979 20.0716 80.7314 18.6782 82.1461 17.2163C82.1972 17.1634 82.2817 17.1622 82.3345 17.2133C82.3872 17.2644 82.3887 17.3488 82.3375 17.4017C80.9236 18.8628 79.5909 20.2554 78.3765 21.5408C78.3503 21.5682 78.3151 21.5823 78.2797 21.5823Z" fill="#F7D6B2"/>
<path d="M304.262 122.727C298.609 117.276 291.836 112.394 283.902 108.023C287.512 100.077 293.082 90.9937 300.548 80.6914C309.812 84.0786 317.907 87.9702 324.875 92.4244C316.13 103.769 309.236 113.843 304.262 122.727Z" fill="white"/>
<path d="M316.188 96.4967C316.164 96.4967 316.14 96.4901 316.118 96.4765C311.235 93.4308 305.708 90.5879 299.692 88.0272C299.625 87.9984 299.593 87.9202 299.622 87.8525C299.651 87.7847 299.73 87.7535 299.797 87.7821C305.825 90.3481 311.364 93.1973 316.259 96.2504C316.321 96.2893 316.34 96.3715 316.301 96.434C316.276 96.4744 316.232 96.4967 316.188 96.4967Z" fill="#F7D6B2"/>
<path d="M311.32 100.39C311.295 100.39 311.27 100.383 311.248 100.369C306.866 97.5674 301.955 94.9267 296.652 92.5202C296.585 92.4898 296.556 92.4109 296.586 92.3439C296.617 92.2769 296.695 92.2471 296.762 92.2776C302.077 94.6893 306.998 97.3361 311.391 100.145C311.454 100.184 311.472 100.267 311.432 100.328C311.407 100.368 311.364 100.39 311.32 100.39Z" fill="#F7D6B2"/>
<path d="M304.875 102.847C304.851 102.847 304.826 102.84 304.805 102.827C301.442 100.73 297.769 98.7165 293.888 96.8412C293.822 96.8092 293.794 96.7295 293.826 96.6633C293.858 96.5971 293.938 96.569 294.004 96.6013C297.893 98.4807 301.575 100.499 304.945 102.6C305.008 102.639 305.027 102.722 304.988 102.784C304.963 102.824 304.919 102.847 304.875 102.847Z" fill="#F7D6B2"/>
<path d="M306.434 110.267C306.407 110.267 306.379 110.258 306.355 110.24C301.934 106.936 296.901 103.827 291.395 100.998C291.329 100.964 291.303 100.884 291.337 100.818C291.371 100.753 291.451 100.727 291.516 100.761C297.035 103.597 302.081 106.714 306.514 110.027C306.573 110.071 306.585 110.154 306.541 110.213C306.515 110.248 306.475 110.267 306.434 110.267Z" fill="#F7D6B2"/>
<path d="M301.221 112.593C301.193 112.593 301.165 112.584 301.142 112.567C297.522 109.898 293.493 107.348 289.167 104.986C289.103 104.951 289.079 104.87 289.114 104.806C289.149 104.741 289.23 104.717 289.295 104.753C293.631 107.12 297.67 109.677 301.3 112.353C301.359 112.396 301.371 112.48 301.328 112.539C301.302 112.574 301.261 112.593 301.221 112.593Z" fill="#F7D6B2"/>
<path d="M310.733 106.798C310.706 106.798 310.678 106.79 310.655 106.772C309.293 105.777 307.861 104.791 306.399 103.841C306.337 103.8 306.319 103.718 306.359 103.656C306.4 103.595 306.482 103.577 306.544 103.617C308.01 104.57 309.446 105.559 310.812 106.557C310.871 106.601 310.884 106.684 310.841 106.744C310.815 106.779 310.774 106.798 310.733 106.798Z" fill="#F7D6B2"/>
<path d="M21.8168 169.584C15.2236 167.17 8.03718 163.01 0.373047 157.076C5.51203 144.451 11.434 134.509 18.2946 127.213C26.5924 134.848 34.4219 140.706 41.6682 144.814C34.0677 150.438 27.5021 158.681 21.8168 169.584Z" fill="white"/>
<path d="M32.2776 145.557C32.2534 145.557 32.2292 145.551 32.2072 145.537C27.4514 142.566 22.4565 138.853 17.3612 134.502C17.3052 134.454 17.2986 134.37 17.3465 134.314C17.3942 134.258 17.4786 134.252 17.5342 134.3C22.6195 138.642 27.6036 142.347 32.3484 145.311C32.4109 145.35 32.4297 145.432 32.3908 145.494C32.3655 145.535 32.3221 145.557 32.2776 145.557Z" fill="#F7D6B2"/>
<path d="M31.2058 150.189C31.1838 150.189 31.1614 150.184 31.1408 150.172C25.8196 147.192 20.1869 143.237 14.3996 138.419C14.343 138.372 14.3354 138.288 14.3823 138.232C14.4293 138.175 14.5134 138.167 14.57 138.214C20.345 143.022 25.964 146.967 31.2712 149.94C31.3353 149.975 31.3581 150.057 31.3222 150.121C31.2976 150.165 31.2524 150.189 31.2058 150.189Z" fill="#F7D6B2"/>
<path d="M24.6963 151.959C24.673 151.959 24.6496 151.952 24.6282 151.94C20.4334 149.439 16.0376 146.334 11.5631 142.709C11.5059 142.663 11.4971 142.579 11.5434 142.522C11.5898 142.465 11.6735 142.456 11.7307 142.502C16.1957 146.119 20.5809 149.217 24.7646 151.711C24.8279 151.749 24.8486 151.83 24.8108 151.894C24.7859 151.935 24.7417 151.959 24.6963 151.959Z" fill="#F7D6B2"/>
<path d="M19.5833 154.858C19.5596 154.858 19.5358 154.852 19.5142 154.838C16.0696 152.741 12.4816 150.23 8.8497 147.375C8.79194 147.329 8.78181 147.245 8.82733 147.188C8.87285 147.13 8.95653 147.12 9.01443 147.165C12.6379 150.014 16.2171 152.519 19.6528 154.611C19.7155 154.649 19.7355 154.731 19.6972 154.794C19.672 154.835 19.6282 154.858 19.5833 154.858Z" fill="#F7D6B2"/>
<path d="M21.2434 161.882C21.2236 161.882 21.2034 161.877 21.1845 161.868C16.4365 159.52 11.4137 156.339 6.25561 152.413C6.19719 152.368 6.18574 152.285 6.23035 152.226C6.27495 152.168 6.3585 152.157 6.41705 152.201C11.5616 156.117 16.5697 159.289 21.3026 161.629C21.3686 161.662 21.3956 161.742 21.363 161.808C21.3397 161.855 21.2924 161.882 21.2434 161.882Z" fill="#F7D6B2"/>
<path d="M129.904 181.271H117.444L115.887 159.525H131.461L129.904 181.271Z" fill="#3692FF"/>
<path d="M131.823 159.527H115.521C114.903 159.527 114.402 159.027 114.402 158.409V158.32C114.402 157.702 114.903 157.201 115.521 157.201H131.823C132.441 157.201 132.941 157.702 132.941 158.32V158.409C132.941 159.027 132.441 159.527 131.823 159.527Z" fill="#005FD3"/>
<path d="M129.808 155.586H117.534C116.676 155.586 115.98 156.281 115.98 157.14V157.202H131.361V157.14C131.361 156.282 130.666 155.586 129.808 155.586Z" fill="#005FD3"/>
<path d="M167.821 158.557H150.627V163.795H167.821V158.557Z" fill="white"/>
<path d="M194.244 174.885H174.988V180.123H194.244V174.885Z" fill="white"/>
<path d="M147.194 169.461H144.219V172.436H147.194V169.461Z" fill="white"/>
<path d="M167.819 165.752H147.611V167.348H167.819V165.752Z" fill="white"/>
<path d="M57.0393 87.8516H49.7656L57.0388 91.4347L57.0393 87.8516Z" fill="#1D233B"/>
<path d="M264.745 62.9495C264.715 62.9495 264.684 62.9421 264.656 62.9264C264.566 62.8772 264.534 62.7645 264.583 62.675C264.965 61.9806 264.991 61.138 264.652 60.4214C264.312 59.7049 263.644 59.1911 262.864 59.0471C262.764 59.0286 262.697 58.932 262.716 58.8314C262.735 58.7307 262.831 58.6639 262.932 58.6829C263.828 58.8485 264.596 59.4391 264.986 60.2629C265.377 61.0868 265.347 62.0553 264.907 62.8535C264.874 62.9149 264.81 62.9495 264.745 62.9495Z" fill="#1D233B"/>
<path d="M115.887 159.525L131.338 161.238L131.461 159.525H115.887Z" fill="#071135"/>
<path d="M246.284 168.602L246.258 168.427L243.793 151.794L243.947 151.748L294.037 136.793C294.135 136.764 294.238 136.819 294.268 136.917C294.297 137.015 294.241 137.118 294.143 137.148L244.207 152.057L246.598 168.199L294.186 163.51C294.287 163.5 294.379 163.575 294.389 163.677C294.399 163.778 294.324 163.869 294.222 163.879L246.284 168.602Z" fill="#1D233B"/>
<path d="M170.576 163.98C170.474 163.98 170.391 163.897 170.391 163.795V158.556C170.391 158.454 170.474 158.371 170.576 158.371C170.678 158.371 170.761 158.454 170.761 158.556V163.795C170.761 163.897 170.678 163.98 170.576 163.98Z" fill="white"/>
<path d="M171.125 180.31C171.022 180.31 170.939 180.227 170.939 180.125V174.886C170.939 174.784 171.022 174.701 171.125 174.701C171.227 174.701 171.31 174.784 171.31 174.886V180.125C171.31 180.227 171.227 180.31 171.125 180.31Z" fill="white"/>
<path d="M131.363 157.386H115.982C115.88 157.386 115.797 157.303 115.797 157.201C115.797 157.099 115.88 157.016 115.982 157.016H131.363C131.465 157.016 131.548 157.099 131.548 157.201C131.548 157.303 131.465 157.386 131.363 157.386Z" fill="#0E1735"/>
</svg>
