<svg id="Layer_1" enable-background="new 0 0 68 68" height="512" viewBox="0 0 68 68" width="512" xmlns="http://www.w3.org/2000/svg"><g><g><g><path d="m51.2218971 39.0530128h-1.8520508c-.2763672 0-.5-.2236328-.5-.5s.2236328-.5.5-.5h1.8520508c.2763672 0 .5.2236328.5.5s-.2236328.5-.5.5z"/></g></g><g><g><path d="m59.7863503 39.0530128h-1.8520508c-.2763672 0-.5-.2236328-.5-.5s.2236328-.5.5-.5h1.8520508c.2763672 0 .5.2236328.5.5s-.2236329.5-.5.5z"/></g></g><g><g><g><path d="m54.5778542 18.7615089c-.2763672 0-.5-.2236328-.5-.5v-1.0834961c0-.2763672.2236328-.5.5-.5s.5.2236328.5.5v1.0834961c0 .2763672-.2236329.5-.5.5z"/></g></g></g><g><g><g><path d="m47.5217018 21.6838722c-.1279297 0-.2558594-.0488281-.3535156-.1464844l-.7661133-.7661133c-.1953125-.1953125-.1953125-.5117188 0-.7070313s.5117188-.1953125.7070313 0l.7661133.7661133c.1953125.1953125.1953125.5117188 0 .7070313-.0976563.0976563-.225586.1464844-.3535157.1464844z"/></g></g></g><g><g><g><path d="m44.5988503 28.7410011h-1.0830078c-.2763672 0-.5-.2236328-.5-.5s.2236328-.5.5-.5h1.0830078c.2763672 0 .5.2236328.5.5s-.2236329.5-.5.5z"/></g></g><g><g><path d="m65.6408463 28.7405128h-1.0830078c-.2763672 0-.5-.2236328-.5-.5s.2236328-.5.5-.5h1.0830078c.2763672 0 .5.2236328.5.5s-.2236329.5-.5.5z"/></g></g></g><g><g><g><path d="m61.6344948 21.6828957c-.1279297 0-.2558594-.0488281-.3535156-.1464844-.1953125-.1953125-.1953125-.5117188 0-.7070313l.7661133-.7661133c.1953125-.1953125.5117188-.1953125.7070313 0s.1953125.5117188 0 .7070313l-.7661133.7661133c-.0976563.0976562-.225586.1464844-.3535157.1464844z"/></g></g></g><g><g><g><path d="m53.4624825 52.9288101v9.7440033c0 1.7687683-1.4338684 3.2026367-3.2026329 3.2026367h-45.1980615c-1.768765 0-3.202632-1.4338684-3.202632-3.2026367v-9.7440033c0-3.8230019 2.3063436-7.2820206 5.8261104-8.7389183l8.2937002-3.4995193 6.0078516-2.5083351 5.6638775-2.3868408 5.6843719 2.3868408 5.9876022 2.5083351 8.3141975 3.4995193c3.5197641 1.4568978 5.8256151 4.9159165 5.8256151 8.7389183z" fill="#488ff7"/></g><g><path d="m18.4946289 45.0530128 9.166666-6.1666641 10.6666661 4.8333321-10.6666661 22.1433945z" fill="#dbdbdb"/></g><g><g><g><path d="m21.841 33.478h11.635v12.766h-11.635z" fill="#b9b9b9"/></g><g><g><path d="m27.6506958 45.5855484-6.3110847 4.7741814-5.3606444-9.6693573 6.0078516-2.5083351z" fill="#fff"/></g><g><path d="m39.32267 40.6903725-5.3401489 9.6693573-6.3318253-4.7741814 5.6843719-7.403511z" fill="#fff"/></g></g><g><path d="m40.1162338 14.5925531v8.1701937h-24.9141817v-8.1701937c0-6.8934226 5.574317-12.4679995 12.4464426-12.4679995h.0212975c6.8721275-.0000002 12.4464416 5.5745769 12.4464416 12.4679995z" fill="#304056"/></g><g><path d="m29.6845798 50.7444534 1.7103272-2.3357773-3.7357636-2.830265-3.7374134 2.8280106 1.711977 2.3380317z" fill="#304056"/></g><g><path d="m25.633707 50.7444534-.9006595 11.127079 2.9261913 3.9960137 2.9260006-3.9960137-.9006596-11.127079z" fill="#304056"/></g></g><g><circle cx="17.642" cy="22.33" fill="#b9b9b9" r="4.189"/></g><g><circle cx="37.677" cy="22.33" fill="#b9b9b9" r="4.189"/></g><g><path d="m37.6766205 17.3537312v8.8767738c0 5.5324955-4.4849701 10.0174694-10.0174675 10.0174694h-.0000191c-5.5324955 0-10.0174675-4.4849739-10.0174675-10.0174694v-8.2296066c0-.5440559.4763298-.9694118 1.0144863-.8895187 2.3996906.3562489 8.5976143.7411404 13.5829411-3.5777721.3292351-.285224.8097076-.3136444 1.1498566-.0415258l3.9507179 3.1605749c.2129745.1703795.3369522.4283331.3369522.7010745z" fill="#dbdbdb"/></g></g></g><g><g><g><path d="m54.5779686 20.2613869c-4.6242676 0-8.3729248 3.7487793-8.3729248 8.3730469 0 3.3618164 1.9859619 6.2529297 4.8448486 7.5852051h7.0562744c2.8587646-1.3322754 4.8448486-4.2233887 4.8448486-7.5852051.0000001-4.6242676-3.7487792-8.3730469-8.3730468-8.3730469z" fill="#488ff7"/></g></g></g></g><g><g><path d="m17.3712559 60.4431496 2.710083-4.3901368-5.4100342-3.6699218-2.3699951-10.1401367 3.6800537-1.5498047 1.5100098-.630127 10.1699218 25.8000527z" fill="#3275c6"/></g><g><path d="m40.6512833 52.383091-5.4099121 3.6699218 2.7099609 4.3901368-10.2900372 5.4199257 10.1700421-25.7900429 1.4899902.6201172 3.6900635 1.5498047z" fill="#3275c6"/></g></g><g><g><g><path d="m56.5988503 36.7195168c-.2763672 0-.5-.2236328-.5-.5v-7.5898438l-1.3168945.5883789c-.1298828.0576172-.2783203.0576172-.4082031 0l-1.3164063-.5883789v7.5898438c0 .2763672-.2236328.5-.5.5s-.5-.2236328-.5-.5v-8.3608398c0-.1694336.0859375-.3271484.2280273-.4194336.1416016-.0922852.3203125-.1069336.4760742-.0371094l1.8164063.8115234 1.8168945-.8115234c.1547852-.0698242.3339844-.0551758.4760742.0371094s.2280273.25.2280273.4194336v8.3608398c.0000001.2763671-.2236328.5-.4999999.5z"/></g></g></g><g><path d="m54.5779724 41.9319916h-.0000076c-1.8535652 0-3.3561745-1.5026093-3.3561745-3.3561745v-2.3561783h6.7123528v2.3561783c0 1.8535652-1.5026093 3.3561745-3.3561707 3.3561745z" fill="#304056"/></g></g></svg>