<svg id="Layer_1" enable-background="new 0 0 68 68" height="512" viewBox="0 0 68 68" width="512" xmlns="http://www.w3.org/2000/svg"><g><g><g><g><path d="m59.9353256 27.0499401c0 6.8701191-2.6499023 13.1000996-6.9699707 17.6999531-.7897949.8500977-1.6599121 1.6501465-2.5598145 2.380127-.9501953.7700195-1.5102539 1.9199219-1.5102539 3.1398926v14.380127c0 .7399902-.5898438 1.3498535-1.3498535 1.3498535h-20.840086c-.75 0-1.3498535-.6098633-1.3498535-1.3498535v-6.670166c0-.7399902-.6000977-1.3498535-1.3601074-1.3498535h-6.3898926c-.3200684.0200195-.6101074-.0400391-.8901367-.1501465-.8898926-.329834-1.5300293-1.1699219-1.5300293-2.1699219v-4.7700195c-3.3398438-.6699219-1.1398926-3.5998535-1.1398926-3.5998535-1.4001465-.1501465-1.5500488-1.6501465-1.5500488-1.6501465.8901367-1.1101074.0700684-2.3898926.0700684-2.3898926l-2.6899414-.7600098c-.9602051-.3200684-1.4401855-.920166-1.670166-1.5100098-.2797856-.8100586-.1298828-1.7202148.3400879-2.4501953l4.6398926-7.1899433c.7700195-1.4499512.1501465-2.8398438-.5-3.7900391-.6799316-.9599609-1.1799316-2.1499023-.8798828-3.2797852 3.5700683-13.3701172 11.1899413-18.4401856 17.9299316-20.1701658 8.9299297-2.3098145 18.5700665.8200684 24.4001446 7.9699707 3.619873 4.4399412 5.7998046 10.1301267 5.7998046 16.3300779z" fill="#dbdbdb"/></g><g><g><g><path d="m38.0187607 41.536171c0 1.2766914-1.041317 2.3089447-2.3180122 2.3089447-1.2767487 0-2.3089485-1.0322533-2.3089485-2.3089447 0-1.2767525 1.0321999-2.3090057 2.3089485-2.3090057 1.2766952-.0000001 2.3180122 1.0322532 2.3180122 2.3090057z" fill="#304056"/></g></g><g><g><path d="m46.5647736 22.4107246c0 2.983511-1.2021561 5.6856365-3.1488419 7.6488838-1.698555 1.7149811-2.8400612 3.887722-3.2646294 6.2260628h-8.9007225c-.4356117-2.360424-1.6157532-4.5385475-3.3253498-6.2869186-1.9080467-1.9629784-3.0881233-4.6432915-3.0826035-7.5934143 0-5.7023296 4.5605602-10.5330343 10.2516499-10.8418875 6.2702217-.3473577 11.4704972 4.6432924 11.4704972 10.8472738z" fill="#488ff7"/></g></g><g><g><g><path d="m35.703598 9.5406628c-.2763672 0-.5-.2236328-.5-.5v-1.4907227c0-.2763672.2236328-.5.5-.5s.5.2236328.5.5v1.4907227c0 .2763672-.2236328.5-.5.5z"/></g></g></g><g><g><g><path d="m25.89 11.615 1.055 1.054" fill="#dbdbdb"/></g></g><g><g><path d="m26.9448109 13.1690807c-.1279297 0-.2558594-.0488281-.3535156-.1464844l-1.0541992-1.0541992c-.1953125-.1953125-.1953125-.5117188 0-.7070313s.5117188-.1953125.7070313 0l1.0541992 1.0541992c.1953125.1953125.1953125.5117188 0 .7070313-.0976564.0976563-.225586.1464844-.3535157.1464844z"/></g></g></g><g><g><g><path d="m44.457 12.668 1.054-1.055" fill="#dbdbdb"/></g></g><g><g><path d="m44.4565277 13.1676159c-.1279297 0-.2558594-.0488281-.3535156-.1464844-.1953125-.1953125-.1953125-.5117188 0-.7070313l1.0541992-1.0541992c.1953125-.1953125.5117188-.1953125.7070313 0s.1953125.5117188 0 .7070313l-1.0541992 1.0541992c-.0976563.0976563-.225586.1464844-.3535157.1464844z"/></g></g></g><g><g><path d="m37.9887543 36.7857819c-.2514648 0-.4677734-.1889648-.496582-.4448242-.3461914-3.1123047 1.3657227-8.2890644 2.4189453-11.1040058-.5556641.3256836-1.0556641.4086914-1.5078125.2543945-.550293-.1870117-.8710938-.6811523-1.0571289-1.1694336-.6811523.8115234-1.3398438 1.1606445-2.0024414 1.0585938-.6518555-.0991211-1.0981445-.6245117-1.3823242-1.1303711-.4521484.6176758-.9760742.9580078-1.5649414 1.0146484-.3320313.0307617-.6494122-.0317383-.9374981-.1494141 1.0585918 2.8183594 2.8115215 8.0864277 2.4555645 11.2265644-.0307617.2739258-.2792969.4755859-.5527344.4404297-.2744141-.0307617-.4716797-.2783203-.4404297-.5527344.4536133-4.0053711-2.9624004-12.2138691-3.1079082-12.5610371-.0986328-.234375-.0053711-.5053711.2167969-.6293945.2211914-.1254883.5009766-.0620117.6499023.1435547.3105469.4316406.987793 1.1455078 1.6206036 1.0864258.5668945-.0546875 1.0092773-.7675781 1.2807617-1.3564453.0883789-.1914063.2905273-.3085938.496582-.2880859.2099609.0175781.3862305.1655273.440918.3691406.1137695.425293.5019531 1.3271484.9760742 1.3984375.1933594.0297852.75-.0629883 1.6733398-1.5356445.1162109-.1835938.3393555-.2709961.5458984-.21875.2104492.0527344.3623047.2358398.3769531.4521484.0341797.5117188.2592773 1.328125.6342773 1.4550781.1464844.0493164.7358398.097168 2.0419922-1.3984375.1606445-.1855469.4335938-.2255859.6416016-.0952148.2084961.1303711.2910156.3930664.1953125.6191406-.0361328.0844727-3.5722656 8.4765644-3.1181641 12.5600605.0302734.2744141-.1674805.5214844-.4418945.5522461-.0185547.0019531-.0371093.0029297-.055664.0029297z" fill="#fff"/></g></g></g></g><g><path d="m48.8952866 55.4200592v9.2299805c0 .7399902-.5898438 1.3498535-1.3498535 1.3498535h-20.840086c-.75 0-1.3498535-.6098633-1.3498535-1.3498535v-6.670166c0-.7399902-.6000977-1.3498535-1.3601074-1.3498535h-6.3898926c-.3200684.0200195-.6101074-.0400391-.8901367-.1501465-.8898926-.329834-1.5300293-1.1699219-1.5300293-2.1699219v-4.7700195c-3.3398438-.6699219-1.1398926-3.5998535-1.1398926-3.5998535 11.1479492 5.3554687 22.7111797 8.7651367 34.8498516 9.4799804z" fill="#304056"/></g></g><g><g><path d="m41.5560188 37.5966263c0 .3634186-.1443939.6920128-.3833504.9309692-.2389565.234005-.5674934.3833542-.9259872.3833542h-9.0858555c-.7219143 0-1.3093395-.5874557-1.3093395-1.3143234 0-.3584671.1493778-.6870308.3833523-.9259872.2389565-.238987.5625076-.3833542.9259872-.3833542h9.0858555c.7219124 0 1.3093376.5874557 1.3093376 1.3093414z" fill="#b9b9b9"/></g></g><g><g><path d="m40.8092957 40.221962c0 .3634186-.1443939.6920128-.3833504.9309692-.2389565.234005-.5674934.3833542-.9259872.3833542h-7.5924091c-.7219143 0-1.3093395-.5874557-1.3093395-1.3143234 0-.3584671.1493778-.6870346.3833504-.9259911.2389584-.238987.5625095-.3833504.9259892-.3833504h7.5924091c.7219122 0 1.3093375.5874558 1.3093375 1.3093415z" fill="#b9b9b9"/></g></g></g></svg>