<svg width="117" height="117" viewBox="0 0 117 117" fill="none" xmlns="http://www.w3.org/2000/svg">
<g clip-path="url(#clip0_2031_1338)">
<path d="M14.1719 34.1992L20.2299 107.331C20.6641 112.605 25.1564 116.74 30.4503 116.74H86.2688C91.5628 116.74 96.0551 112.605 96.4893 107.331L102.547 34.1992H14.1719ZM41.2554 103.059C39.465 103.059 37.9588 101.666 37.8452 99.8523L34.425 44.6734C34.3081 42.7864 35.7409 41.1632 37.6247 41.0462C39.5786 40.9092 41.1318 42.3589 41.252 44.2459L44.6721 99.4248C44.7932 101.379 43.2471 103.059 41.2554 103.059ZM61.7797 99.6387C61.7797 101.529 60.2499 103.059 58.3595 103.059C56.469 103.059 54.9393 101.529 54.9393 99.6387V44.4598C54.9393 42.5693 56.469 41.0396 58.3595 41.0396C60.2499 41.0396 61.7797 42.5693 61.7797 44.4598V99.6387ZM82.2939 44.6736L78.8737 99.8526C78.7613 101.648 77.2649 103.144 75.2465 103.052C73.3627 102.935 71.9298 101.312 72.0468 99.425L75.467 44.2461C75.584 42.3591 77.2373 40.9862 79.0942 41.0464C80.9781 41.1634 82.4109 42.7866 82.2939 44.6736Z" fill="#FA2626"/>
<path d="M102.828 13.6846H82.3065V10.2645C82.3065 4.60656 77.7038 0.00390625 72.0459 0.00390625H44.6845C39.0266 0.00390625 34.424 4.60656 34.424 10.2645V13.6846H13.9029C10.1249 13.6846 7.0625 16.7471 7.0625 20.525C7.0625 24.3025 10.1249 27.3654 13.9029 27.3654C45.3608 27.3654 71.3708 27.3654 102.828 27.3654C106.606 27.3654 109.668 24.3025 109.668 20.525C109.668 16.7471 106.606 13.6846 102.828 13.6846ZM75.4661 13.6846H41.2643V10.2645C41.2643 8.37742 42.7975 6.84427 44.6845 6.84427H72.0459C73.933 6.84427 75.4661 8.37742 75.4661 10.2645V13.6846Z" fill="#FA2626"/>
</g>
<defs>
<clipPath id="clip0_2031_1338">
<rect width="116.742" height="116.742" fill="white"/>
</clipPath>
</defs>
</svg>
