<svg width="129" height="129" viewBox="0 0 129 129" fill="none" xmlns="http://www.w3.org/2000/svg">
<g clip-path="url(#clip0_7722_1934)">
<path d="M64.502 128.997C51.7465 128.996 39.278 125.212 28.6728 118.124C18.0676 111.037 9.80202 100.964 4.92097 89.1792C0.0399225 77.3946 -1.23738 64.4273 1.25056 51.9168C3.73851 39.4063 9.87997 27.9144 18.8985 18.8939C31.053 7.08969 47.3641 0.541964 64.3068 0.665787C81.2495 0.78961 97.4632 7.57504 109.444 19.5557C121.424 31.5363 128.21 47.75 128.334 64.6927C128.458 81.6354 121.91 97.9465 110.106 110.101C104.131 116.109 97.0242 120.873 89.1964 124.117C81.3686 127.36 72.9752 129.019 64.502 128.997ZM64.502 7.13781C32.8743 7.13781 7.14236 32.8698 7.14236 64.4975C7.14236 96.1251 32.8743 121.857 64.502 121.857C96.1297 121.857 121.862 96.1251 121.862 64.4975C121.862 32.8698 96.1297 7.13781 64.502 7.13781Z" fill="#FF3014"/>
<path d="M85.1974 89.3462C85.1974 89.7025 85.1272 90.0552 84.9908 90.3843C84.8544 90.7134 84.6545 91.0123 84.4025 91.2641C84.1504 91.5159 83.8513 91.7155 83.5221 91.8516C83.1929 91.9877 82.8401 92.0576 82.4838 92.0572H32.7029C32.3462 92.0586 31.9927 91.9894 31.6628 91.8537C31.3328 91.7181 31.033 91.5185 30.7803 91.2666C30.5277 91.0147 30.3274 90.7154 30.1908 90.3858C30.0542 90.0563 29.984 89.703 29.9844 89.3462C29.9864 84.2271 32.0205 79.3182 35.6397 75.698C39.259 72.0778 44.1674 70.0424 49.2865 70.0391H65.9003C71.0183 70.0444 75.925 72.0806 79.5431 75.7005C83.1611 79.3204 85.1947 84.2282 85.1974 89.3462Z" fill="#FF3014"/>
<path d="M72.9079 52.2537C72.9079 55.283 72.0096 58.2442 70.3266 60.763C68.6436 63.2817 66.2516 65.2448 63.4529 66.4041C60.6542 67.5633 57.5746 67.8666 54.6036 67.2757C51.6325 66.6847 48.9034 65.226 46.7614 63.0839C44.6194 60.9419 43.1607 58.2128 42.5697 55.2418C41.9787 52.2707 42.282 49.1911 43.4413 46.3925C44.6005 43.5938 46.5636 41.2017 49.0824 39.5188C51.6011 37.8358 54.5624 36.9375 57.5916 36.9375C61.6523 36.9422 65.5453 38.5573 68.4167 41.4287C71.288 44.3 72.9032 48.193 72.9079 52.2537Z" fill="#FF3014"/>
<path d="M93.4595 60.1879L98.2189 55.4285C98.4827 55.1794 98.6938 54.88 98.8398 54.5479C98.9858 54.2157 99.0638 53.8577 99.069 53.4949C99.0743 53.1322 99.0067 52.7721 98.8703 52.4359C98.734 52.0997 98.5316 51.7942 98.2751 51.5376C98.0187 51.281 97.7134 51.0784 97.3773 50.9418C97.0412 50.8052 96.6811 50.7374 96.3183 50.7424C95.9555 50.7475 95.5975 50.8252 95.2653 50.971C94.933 51.1168 94.6334 51.3277 94.3842 51.5913L89.6248 56.3532L84.8629 51.5913C84.6136 51.3277 84.314 51.1168 83.9818 50.971C83.6496 50.8252 83.2915 50.7475 82.9287 50.7424C82.5659 50.7374 82.2059 50.8052 81.8698 50.9418C81.5336 51.0784 81.2283 51.281 80.9719 51.5376C80.7154 51.7942 80.513 52.0997 80.3767 52.4359C80.2403 52.7721 80.1728 53.1322 80.178 53.4949C80.1833 53.8577 80.2612 54.2157 80.4072 54.5479C80.5532 54.88 80.7644 55.1794 81.0281 55.4285L85.7875 60.1879L81.0281 64.9473C80.5512 65.4621 80.2922 66.1416 80.3056 66.8433C80.319 67.5449 80.6037 68.2141 81.0999 68.7103C81.5961 69.2065 82.2653 69.4912 82.9669 69.5046C83.6685 69.5179 84.3481 69.259 84.8629 68.782L89.6248 64.0201L94.3842 68.782C94.6334 69.0456 94.933 69.2566 95.2653 69.4024C95.5975 69.5482 95.9555 69.6259 96.3183 69.6309C96.6811 69.6359 97.0412 69.5681 97.3773 69.4315C97.7134 69.295 98.0187 69.0924 98.2751 68.8357C98.5316 68.5791 98.734 68.2737 98.8703 67.9375C99.0067 67.6013 99.0743 67.2412 99.069 66.8784C99.0638 66.5156 98.9858 66.1576 98.8398 65.8255C98.6938 65.4934 98.4827 65.1939 98.2189 64.9448L93.4595 60.1879Z" fill="#FF3014"/>
</g>
<defs>
<clipPath id="clip0_7722_1934">
<rect width="129" height="129" fill="white"/>
</clipPath>
</defs>
</svg>
