<svg id="Layer_1" enable-background="new 0 0 512 512" height="512" viewBox="0 0 512 512" width="512" xmlns="http://www.w3.org/2000/svg"><g clip-rule="evenodd" fill-rule="evenodd"><circle cx="256" cy="256" fill="#8ee26b" r="256"/><path d="m192.432 504.008c20.333 5.215 41.632 7.992 63.568 7.992 114.773 0 212.145-75.922 244.538-180.181l-231.973-231.959c-3.277-3.1-7.699-5.003-12.565-5.003-10.098 0-18.286 8.188-18.286 18.286v162.487l-41.092-41.092c-7.142-7.143-18.719-7.14-25.859 0-7.142 7.142-7.142 18.719 0 25.859l120.173 120.174h-177.793c-10.098 0-18.286 8.187-18.286 18.285 0 5.231 2.197 9.948 5.718 13.281z" fill="#00da80"/><g fill="#fff"><path d="m243.07 332.705c3.43 3.43 8.08 5.357 12.93 5.357s9.5-1.927 12.929-5.357l72.308-72.308c7.142-7.14 7.142-18.719 0-25.859-7.141-7.142-18.719-7.142-25.86 0l-41.091 41.092v-162.487c0-10.098-8.187-18.286-18.285-18.286s-18.286 8.188-18.286 18.286v162.487l-41.092-41.092c-7.142-7.143-18.719-7.14-25.859 0-7.142 7.142-7.142 18.719 0 25.859z"/><path d="m417.142 398.857c0 10.098-8.187 18.286-18.285 18.286h-285.714c-10.098 0-18.286-8.188-18.286-18.286s8.188-18.285 18.286-18.285h285.714c10.099 0 18.285 8.185 18.285 18.285z"/></g></g></svg>