<svg width="493" height="481" viewBox="0 0 493 481" fill="none" xmlns="http://www.w3.org/2000/svg">
<path d="M12.0541 476.328C12.0541 413.815 24.3672 351.913 48.2902 294.158C72.2132 236.402 107.278 183.924 151.482 139.721C195.686 95.5165 248.163 60.452 305.919 36.529C363.674 12.606 425.576 0.292966 488.09 0.292969L488.09 476.328H12.0541Z" fill="white"/>
<g clip-path="url(#clip0_4376_1268)">
<path d="M243.118 72.3342C247.509 72.033 252.264 72.7536 256.475 73.915C262.47 75.5688 268.37 78.29 273.576 81.6873C276.02 83.2833 278.323 85.1107 280.874 86.5414C284.464 88.5545 288.477 89.8664 291.736 92.4303C294.084 94.2777 296.041 96.7023 297.491 99.3058C305.008 112.81 299.478 131.165 295.603 145.004C296.986 145.152 298.504 145.315 299.744 145.983C301.454 146.905 302.638 148.621 303.12 150.479C304.657 156.406 300.58 166.908 297.595 172.167C296.029 174.931 293.787 175.312 290.918 176.12C289.832 178.034 289.256 180.673 288.522 182.769C287.483 185.735 286.191 188.826 285.559 191.904C284.398 197.569 285.563 205.045 286.537 210.713C290.731 214.706 293.261 219.121 295.267 224.491C300.82 228.802 307.061 231.771 313.263 235.017L336.679 247.369C348.395 253.41 361.124 258.821 370.739 268.105C386.702 283.521 383.059 304.744 384.596 324.636C385.324 334.071 387.352 343.39 387.491 352.872C387.854 377.501 383.502 407.515 375.6 430.673C373.823 435.877 371.824 442.141 367.873 446.105C361.82 452.177 349.321 450.825 341.352 450.856C342.061 454.383 342.842 457.927 343.281 461.501C343.863 466.231 343.632 470.848 340.63 474.725C342.603 479.914 347.344 492.749 345.901 497.946L345.51 497.92C342.955 494.405 342.445 488.163 341.264 483.96C340.486 481.193 339.509 478.489 338.661 475.745C327.547 480.918 286.276 487.676 273.224 487.767L273.236 498.212C270.066 498.26 266.881 498.162 263.71 498.131C258.563 498.052 249.789 499.099 245.168 497.665C244.392 494.93 245.008 490.673 245.011 487.74C240.455 487.676 235.849 487.23 231.296 486.941C212.297 485.781 193.47 483.312 174.815 479.533C173.785 483.304 170.738 498.695 169.021 500.527L168.343 500.348C167.078 498.263 171.539 482.718 172.272 479.666C166.503 471.944 172.612 465.888 172.327 457.711C172.116 451.717 170.307 445.325 169.118 439.438C163.135 440.185 145.215 442.935 140.472 440.223C131.946 435.35 126.214 416.3 123.742 407.352C116.035 379.455 121.571 358.897 126.334 331.515C129.035 315.988 127.064 299.421 132.475 284.439C134.504 278.819 137.459 273.584 141.626 269.266C152.531 257.964 180.272 245.494 195.016 238.577C201.342 235.608 209.011 232.779 214.085 227.866C216.851 225.187 217.899 221.497 219.702 218.203C220.715 216.348 221.945 214.617 222.979 212.772C225.688 207.94 224.386 198.948 222.774 193.852C221.73 190.555 220.067 187.445 218.895 184.182C217.827 181.211 217.014 178.132 216.153 175.094C214.658 175.394 212.317 175.942 210.971 175.043C208.027 173.075 204.188 160.611 203.234 156.926C202.643 154.64 201.719 150.218 203.142 148.1C204.228 146.482 206.268 146.274 208.025 145.933C204.984 132.897 199.852 113.298 207.461 101.131C207.791 100.602 208.145 100.091 208.524 99.5967C208.905 99.1027 209.308 98.6286 209.735 98.1743C210.161 97.72 210.608 97.2876 211.078 96.8774C211.547 96.4672 212.035 96.081 212.541 95.7187C213.048 95.3565 213.572 95.02 214.112 94.7094C214.652 94.3988 215.206 94.1154 215.775 93.8592C216.342 93.6031 216.921 93.3755 217.512 93.1764C218.103 92.9774 218.701 92.8077 219.308 92.6676C219.959 88.1424 220.89 84.2299 223.997 80.6885C228.834 75.1721 236.019 72.8636 243.118 72.3342Z" fill="black"/>
<path d="M232.025 424.759C233.297 424.676 234.635 424.573 235.722 425.371C236.368 425.846 236.671 426.298 236.811 427.075C237.023 428.247 236.35 429.127 235.683 430.011L235.394 430.066C234.154 430.29 233.208 430.38 232.156 429.575C231.535 429.1 231.073 428.423 231.025 427.626C230.956 426.521 231.313 425.579 232.025 424.759Z" fill="#FEFEFE"/>
<path d="M242.787 420.961L243.437 421.034C244.272 423.328 242.358 433.924 242.233 437.195C238.383 436.158 234.315 435.852 230.424 434.927C226.426 433.977 220.678 431.861 218.416 428.152C221.39 426.964 225.283 425.575 228.441 425.142C229.401 425.969 228.263 429.109 229.531 430.717C230.421 431.848 231.747 432.398 233.156 432.524C234.782 432.667 236.495 432.151 237.737 431.081C238.757 430.201 239.321 429.044 239.334 427.691C239.361 425.434 237.928 424.048 236.477 422.546L242.787 420.961Z" fill="#FEFEFE"/>
<path d="M254.875 244.689C254.993 244.675 255.112 244.646 255.23 244.649C258.828 244.704 267.966 252.575 270.199 255.413C268.727 258.344 263.838 266.973 261.568 268.939C260.924 269.496 260.318 269.246 259.533 269.175C257.027 269.114 254.54 269.062 252.088 269.639C248.725 264.084 246.12 258.031 243.532 252.087C246.687 248.898 250.85 246.598 254.875 244.689Z" fill="#F3A73D"/>
<path d="M284.248 368.348C285.089 368.213 285.585 368.18 286.397 368.455C292.281 373.392 295.948 390.68 297.625 398.245C293.673 400.482 289.154 401.972 284.917 403.597L282.4 404.317C281.748 393.524 279.661 379.676 272.382 371.232C276.352 370.332 280.272 369.23 284.248 368.348Z" fill="white"/>
<path d="M280.347 392.102C279.545 385.525 277.416 379.036 272.651 374.194C272.031 373.563 270.508 372.439 270.898 371.516C272.931 371.121 276.877 373.171 278.578 374.294C283.089 377.228 286.099 382.383 287.079 387.619C287.873 391.809 287.495 396.736 284.991 400.296C283.997 401.701 282.753 402.917 281.768 404.31C279.867 400.692 282.373 398.727 281.072 395.096C280.896 394.528 280.855 392.313 280.347 392.102Z" fill="#6666F2"/>
<path d="M287.282 214.922C287.344 214.956 287.411 214.984 287.47 215.025C289.795 216.656 292.236 222.412 292.563 225.167C293.832 235.886 282.486 254.017 276.144 262.213C275.34 258.929 274.229 256.823 272.103 254.19C268.243 249.698 263.589 245.894 258.243 243.31L258.48 243.188C269.627 237.388 283.343 227.347 287.282 214.922Z" fill="#FEFEFE"/>
<path d="M224.174 215.227C226.162 216.701 228.859 221.681 230.777 223.921C237.455 231.718 244.613 237.234 253.144 242.804C247.323 245.918 242.91 249.258 238.832 254.532C236.964 257.24 235.297 260.12 233.605 262.939C227.754 254.75 221.852 245.584 219.536 235.662C217.396 226.491 219.453 222.835 224.174 215.227Z" fill="#FEFEFE"/>
<path d="M160.668 344.734C165.207 344.777 175.664 347.74 179.919 349.543C181.361 350.154 182.559 350.865 183.724 351.909C188.06 355.786 200.887 371.409 202.959 376.458C198.616 376.633 194.222 376.161 189.867 376.19C185.875 376.217 181.156 377.115 177.235 376.431C173.572 375.792 153.118 368.792 151.404 366.199C151.048 365.662 151.193 365.482 151.353 364.912C151.646 364.692 151.89 364.517 152.235 364.388C157.281 362.516 168.048 365.668 172.913 367.642C175.156 368.591 179.925 372.079 182.166 371.623L182.471 371.081C182.432 370.951 182.4 370.821 182.355 370.693C181.881 369.36 180.039 368.569 178.893 367.922C174.371 365.369 169.754 363.595 164.761 362.191C161.134 361.171 157.205 360.38 153.812 358.71C152.91 358.266 151.524 357.543 151.313 356.476C151.142 355.606 151.387 355.12 151.822 354.401C155.441 351.877 172.175 355.318 175.839 357.298C178.188 358.568 186.463 365.705 188.205 365.497L188.345 364.871C187.743 363.047 186.061 361.914 184.631 360.737C181.961 358.536 179.534 356.509 176.339 355.085C172.05 353.173 166.34 352.773 162.778 349.587C161.16 348.141 160.801 346.797 160.668 344.734Z" fill="#FEFEFE"/>
<path d="M309.46 365.648C315.914 366.428 322.31 369.493 327.863 372.757C326.925 379.847 325.695 386.892 324.777 393.983C322.849 394.359 320.844 394.547 318.887 394.712C315.252 395.018 310.087 395.714 307.184 393.248C304.759 394.905 302.155 396.287 299.595 397.721C298.555 388.099 294.916 378.321 290.581 369.727C296.986 369.145 303.04 366.364 309.46 365.648Z" fill="#FEFEFE"/>
<path d="M239.486 438.859C250.348 441.107 261.637 441.469 272.549 443.65C272.631 450.206 272.613 456.763 272.493 463.319C270.033 466.569 267.204 469.439 264.39 472.376L256.782 481.233C252.349 474.572 246.118 468.669 240.96 462.5C240.697 454.578 240.354 446.744 239.486 438.859Z" fill="#FEFEFE"/>
<path d="M283.124 195.344C283.881 202.329 283.096 209.383 284.362 216.358C279.018 228.647 266.985 235.74 255.816 241.95C253.567 239.828 250.384 238.173 247.801 236.42C241.636 232.233 236.24 227.314 231.705 221.383C230.608 219.964 226.477 214.878 226.338 213.368C226.249 212.397 227.006 210.893 227.013 209.763C227.034 205.751 226.344 201.499 225.622 197.559C228.216 201.39 230.994 205.012 234.628 207.931C241.29 213.281 249.198 215.059 257.627 214.069C269.841 212.634 276.107 204.303 283.124 195.344Z" fill="#FEFEFE"/>
<path d="M251.953 271.86C255.079 271.784 258.176 271.778 261.3 271.895C263.069 279.883 264.593 287.917 265.873 295.996C267.153 304.076 268.185 312.188 268.97 320.331C269.756 328.474 270.293 336.634 270.582 344.81C270.872 352.985 270.912 361.162 270.702 369.34L259.761 371.97C254.444 373.345 248.944 374.23 243.542 375.213C243.808 369.211 243.515 363.167 243.718 357.156C244.138 344.766 245.176 332.319 246.407 319.986C247.284 310.829 248.329 301.691 249.542 292.573C250.438 285.726 251.653 278.756 251.953 271.86Z" fill="#F3A73D"/>
<path d="M215.273 428.891L215.686 428.931C215.933 429.183 216.186 429.428 216.43 429.681C222.51 435.973 229.494 437.391 237.81 438.919C237.811 443.323 237.715 459.193 238.685 462.416C240.075 467.027 253.092 480.092 256.928 484.38C262.607 477.268 269.582 471.065 275.041 463.82C275.186 457.166 274.709 450.504 274.759 443.844C286.947 445.01 299.098 446.914 311.296 448.14C320.244 449.041 329.775 448.943 338.551 450.909L338.683 451.299C340.308 456.173 343.098 465.851 340.498 470.562C338.185 474.751 332.397 475.646 328.215 476.803C313.135 480.401 297.243 483.574 281.805 484.926C274.595 485.558 267.327 485.288 260.095 485.297C252.457 485.307 244.748 485.529 237.117 485.211C223.274 484.635 209.443 482.903 195.751 480.855C190.669 480.095 177.009 478.529 172.844 476.457C171.043 474.386 172.434 469.606 173.051 467.225C176.107 455.439 173.004 450.199 171.852 438.941C176.017 438.404 180.218 437.321 184.325 436.434C194.717 434.187 204.98 431.548 215.273 428.891Z" fill="#FEFEFE"/>
<path d="M242.279 74.7354C250.013 74.4187 256.829 75.9852 263.824 79.1549C269.309 81.64 273.839 85.0336 278.901 88.1982C287.037 93.2842 293.068 93.2558 296.953 103.902C301.001 114.99 297.717 127.816 294.97 138.814C294.252 141.685 293.746 145.174 292.499 147.841L292.081 147.8C289.873 143.285 291.277 133.124 289.934 130.376C289.084 130.132 289.028 130.101 288.202 130.395C286.783 132.604 289.515 149.8 290.129 152.909C291.322 151.682 292.654 150.433 294.037 149.43C295.202 148.586 296.866 147.623 298.346 147.961C299.259 148.17 299.848 148.846 300.271 149.645C301.981 152.869 300.515 157.902 299.535 161.168C298.377 165.024 296.625 171.289 292.896 173.289C292.172 172.936 291.949 171.939 291.584 171.22C291.187 170.438 291.08 169.86 290.238 169.575C288.058 171.729 286.984 180.726 285.76 184.167C284.566 187.469 283.032 190.606 281.16 193.578C276.164 201.527 269.095 209.503 259.578 211.607C252.704 213.126 244.83 211.982 238.902 208.107C230.276 202.471 223.504 191.742 220.487 182.03C219.172 177.797 218.502 173.363 217.577 169.033C216.013 170.992 214.61 172.479 212.448 173.794C211.459 172 210.523 170.146 209.707 168.267C208.004 164.339 203.299 153.803 205.15 149.805C205.424 149.213 205.9 148.778 206.511 148.565C207.321 148.283 208.138 148.468 208.887 148.843C211.829 150.315 212.901 153.548 213.914 156.425C212.21 155.735 210.341 155.003 208.515 154.732C207.736 154.616 207.306 154.549 206.682 155.015C207.153 156.495 212.259 158.284 214.225 160.394L214.568 160.765L215.356 161.528L215.889 161.405C216.632 158.958 216.009 155.906 216.485 153.261C217.062 150.049 218.153 146.844 218.53 143.617C219.179 138.057 214.78 132.563 213.139 127.325C214.068 122.727 215.95 117.891 219.442 114.611C220.821 113.314 222.413 112.205 223.699 110.81C224.286 110.176 224.553 109.782 224.493 108.929L223.856 108.552C223.533 108.651 223.26 108.735 222.961 108.898C217.828 111.707 213.654 116.808 211.982 122.413C210.311 128.013 212.062 131.66 214.644 136.47C217.389 141.582 215.925 146.054 214.395 151.272C212.992 149.057 210.86 147.646 209.995 145.088C209.169 142.645 208.983 139.962 208.456 137.44C206.227 126.776 203.413 114.298 208.481 103.989C210.897 99.0721 214.71 96.5295 219.77 94.7839C219.865 97.5602 220.46 100.258 221.261 102.908C226.05 108.088 236.86 106.72 242.966 105.256C246.396 104.434 251.543 102.195 254.983 102.824C260.44 103.822 259.87 112.116 262.402 116.023C265.196 120.334 270.645 122.705 275.471 123.759C279.251 124.584 286 124.751 289.265 122.418C289.91 121.957 290.372 121.325 290.464 120.527C290.542 119.854 290.566 119.676 290.155 119.158C288.848 119.215 287.714 120.053 286.56 120.626C282.607 122.589 276.814 122.024 272.752 120.619C261.431 116.704 264.844 112.07 261.053 104.674C257.175 97.1096 245.368 102.688 239.118 103.569C233.958 104.296 228.679 104.152 223.711 102.52C222.736 100.204 222.083 97.2264 221.841 94.7245C221.403 90.2057 222.486 86.1256 225.429 82.6227C229.703 77.5368 235.832 75.2989 242.279 74.7354Z" fill="#FEFEFE"/>
<path d="M297.938 152.324C298.482 152.34 298.834 152.498 299.327 152.719L299.579 153.409C298.474 155.588 294.177 156.892 292.236 160.517C291.441 160.601 290.989 160.479 290.249 160.194C290.173 159.903 290.07 159.734 290.169 159.437C291.21 156.323 295.275 153.866 297.938 152.324Z" fill="black"/>
<path d="M269.852 107.5C272.069 109 273.006 114.24 277.775 116.547C282.892 119.022 283.705 113.519 287.148 112.35C287.834 112.979 287.69 113.284 287.754 114.187C286.861 115.527 285.926 116.744 284.55 117.627C282.592 118.885 280.021 119.127 277.805 118.534C274.955 117.77 272.074 115.892 270.611 113.279C269.587 111.456 269.279 109.522 269.852 107.5Z" fill="black"/>
<path d="M251.108 84.6901C252.431 84.4864 253.924 84.4726 255.27 84.4519C257.376 84.4196 263.086 84.1426 264.477 85.7546C264.806 86.1368 264.675 86.2676 264.637 86.7362C263.834 87.2399 252.936 86.5687 250.783 86.8546C247.946 87.231 245.496 88.1205 242.963 89.4231C241.444 90.4035 236.294 95.0925 235.547 95.3354L235.143 94.8714C235.207 93.5414 235.659 92.3936 236.476 91.332C239.658 87.1944 246.21 85.3618 251.108 84.6901Z" fill="black"/>
<path d="M254.172 91.9283C261.769 91.5338 264.882 97.6921 271.046 100.437C273.716 101.626 277.32 100.552 280.017 101.936L280.176 102.51C279.619 103.119 279.108 103.6 278.27 103.763C273.417 104.706 269.651 102.44 265.874 99.7841C264.022 98.3732 262.16 96.8767 260.13 95.732C251.436 90.8306 248.869 97.6338 241.978 99.4615C241.882 99.4872 241.784 99.5091 241.687 99.5329L241.819 99.5541L241.092 99.3866C240.995 98.4778 241.257 98.1727 241.845 97.4578C244.688 93.9996 249.922 92.424 254.172 91.9283Z" fill="black"/>
<path d="M295.214 227.066C301.704 231.774 306.705 239.506 310.605 246.42C307.055 247.852 303.722 249.446 300.505 251.535L310.008 259.822C303.23 279.306 295.385 298.415 288.157 317.736C284.483 327.559 280.008 337.86 278 348.152C277.763 349.362 277.686 350.551 278.091 351.735L278.508 351.684C280.139 349.497 286.759 328.034 288.464 323.396C296.387 301.837 305.407 280.645 312.687 258.855C309.915 256.308 306.776 254.091 303.785 251.802C307.381 250.556 310.697 248.748 313.959 246.81C310.816 241.973 307.585 237.246 303.94 232.769C313.319 237.531 322.48 242.648 331.791 247.533C345.228 254.584 360.756 260.481 371.169 271.934C375.512 276.71 378.287 282.434 379.84 288.675C382.586 299.707 381.315 311.908 382.086 323.219C382.627 331.171 384.16 338.968 384.882 346.889C385.36 352.115 385.289 357.413 385.022 362.649C383.849 385.677 380.719 409.326 373.027 431.136C371.384 435.798 369.447 441.754 365.659 445.096C359.202 450.79 333.322 447.517 324.225 447.047C316.442 446.025 308.532 445.637 300.718 444.771C282.049 442.7 263.236 440.236 244.715 437.09C244.968 431.375 245.423 425.797 246.261 420.135C260.489 415.077 274.661 410.03 288.762 404.613C294.483 402.415 300.225 399.012 306.123 397.527C309.369 396.709 313.335 397.116 316.704 396.915C320.74 396.674 324.82 395.888 328.852 395.829C335.56 395.728 343.038 399.727 348.26 403.626C351.499 406.044 354.048 410.073 357.479 412.032C357.982 412.32 357.964 412.313 358.504 412.155C358.523 410.965 357.498 409.507 356.85 408.539C351.923 401.194 340.595 395.271 331.979 393.666C333.886 392.766 335.996 391.555 338.059 391.104C345.045 389.583 352.363 396.129 354.787 395.723C355.131 394.97 355.04 394.803 354.908 394.011C353.586 392.042 350.759 391.128 348.618 390.357C339.514 387.082 335.489 389.248 327.346 393.087C328.382 384.23 333.082 357.63 331.53 349.891C331.388 349.184 331.391 349.007 330.809 348.611C330.725 348.666 330.634 348.71 330.558 348.777C328.698 350.434 328.579 366.791 328.208 370.231C325.075 368.182 321.755 366.684 318.235 365.441C306.459 361.279 300.634 366.19 289.221 367.432L287.455 365.584C282.492 366.242 277.547 367.614 272.668 368.737C272.665 356.296 273.055 343.864 272.266 331.431C270.972 311.022 267.298 291.121 263.613 271.065C265.589 266.208 269.019 261.74 271.948 257.405C272.767 259.282 273.499 261.166 274.177 263.098C273.519 264.728 272.588 266.422 272.642 268.209L273.094 268.62C273.398 268.555 273.645 268.507 273.91 268.335C276.36 266.748 278.435 263.302 280.085 260.905C287.986 249.435 292.054 240.53 295.214 227.066Z" fill="#FEFEFE"/>
<path d="M355.348 295.133C355.962 295.287 356.03 295.331 356.469 295.788C356.564 297.72 349.202 304.928 347.634 306.96C339.515 317.49 336.299 330.149 332.352 342.527L331.249 342.165C330.63 341.358 330.765 340.475 330.886 339.496C332.502 326.551 344.921 303.135 355.348 295.133Z" fill="black"/>
<path d="M215.677 229.16C216.772 230.565 217.468 237.213 218.16 239.48C220.622 247.556 228.387 261.645 234.583 267.273C236.705 262.679 239.085 258.222 241.725 253.904C243.847 259.804 247.211 265.464 250.254 270.939C246.426 295.557 243.741 320.298 242.198 345.165C241.654 355.326 241.046 365.203 241.617 375.389C237.291 375.765 233.014 376.413 228.668 376.658C220.937 377.095 213.146 376.825 205.415 376.521C205.028 375.266 204.633 374.012 203.979 372.867C200.948 367.56 188.127 351.985 183.215 348.653C180.784 347.003 177.909 346.317 175.117 345.543C173.813 330.546 169.658 315.644 161.581 302.818C159.93 300.196 158.098 297.33 155.793 295.248C154.898 294.439 154.424 294.077 153.206 294.149C153.079 294.352 152.861 294.523 152.824 294.761C152.817 294.812 160.405 305.4 162.083 308.348C168.255 319.187 171.724 332.767 172.857 345.111C169.942 344.09 166.6 342.993 163.51 342.735C161.695 342.584 159.821 342.627 158.372 343.873C157.971 344.218 157.762 344.937 157.762 345.458C157.762 347.723 160.205 350.432 161.681 351.904C158.612 351.12 154.868 350.66 151.818 351.785C150.704 352.197 149.646 352.891 149.165 354.019C147.246 358.524 151.893 359.561 152.709 361.382C151.208 362.301 149.339 362.945 148.714 364.737C148.451 365.492 148.52 366.238 148.858 366.956C150.629 370.703 157.634 372.329 161.279 373.632C154.41 374.699 148.171 377.202 142.086 380.491C140.878 381.143 139.276 382.3 138.874 383.67C139.668 384.231 140.885 383.688 141.749 383.367C144.519 382.339 147.042 380.626 149.711 379.357C157.155 375.818 164.796 375.792 172.604 378.059C171.669 378.231 170.738 378.416 169.81 378.615C167.327 379.155 163.847 380.13 162.407 382.381L162.582 382.954C164.452 383.559 171.94 380.675 174.551 380.105C177.634 379.439 180.747 378.958 183.888 378.662C191.805 377.869 199.374 378.712 207.27 379.048C216.794 379.507 226.302 379.278 235.792 378.362C242.102 377.708 248.528 376.822 254.731 375.481C259.984 374.345 265.179 372.761 270.51 372.034C277.465 381.751 279.688 393.526 279.714 405.247C275.952 407.118 271.923 408.536 268.012 410.069C254.147 415.108 240.265 419.27 226.115 423.385C203.978 429.821 182.101 435.536 159.145 438.164C154.121 438.739 146.437 440.098 141.667 438.237C137.816 436.734 134.698 429.906 133.003 426.277C121.504 401.65 120.507 377.771 124.983 351.303C126.521 342.208 128.724 333.329 129.793 324.138C131.352 310.735 130.187 297.18 134.982 284.278C137.073 278.65 140.253 273.714 144.632 269.592C156.776 258.159 190.957 242.852 206.305 235.77C204.38 238.324 202.517 240.873 200.804 243.576C204.047 245.44 206.893 247.947 210.063 249.949C206.744 251.348 203.785 253.213 200.815 255.22C202.05 257.962 202.652 261.226 203.529 264.117C204.731 268.086 206.151 272.001 207.601 275.886C213.929 292.834 221.405 309.328 228.327 326.035C230.79 331.978 232.797 338.114 235.206 344.055C235.47 344.706 235.816 345.438 236.371 345.886C236.935 346.345 237.116 346.243 237.781 346.143C238.166 345.41 238.047 345.358 237.795 344.61C227.647 314.435 212.555 286.628 203.435 255.86L214.168 250.274C210.71 247.75 207.122 245.302 203.883 242.501C207.624 237.775 211.228 233.257 215.677 229.16Z" fill="#FEFEFE"/>
<path d="M162.362 377.985C163.538 377.889 165.511 377.646 166.462 378.409C165.927 379.41 161.88 380.325 160.544 380.966C154.671 383.789 151.583 388.912 149.476 394.847C149.384 395.21 149.3 395.585 149.167 395.939C148.877 396.717 148.765 397.212 148.015 397.57C147.665 397.204 147.667 397.102 147.541 396.616C146.784 393.701 148.177 390.749 149.641 388.289C152.523 383.444 156.838 379.432 162.362 377.985Z" fill="black"/>
<rect x="-79.4399" y="471.797" width="531.904" height="12.949" fill="black"/>
<g clip-path="url(#clip1_4376_1268)">
<path d="M206.045 377.777C204.488 374.352 203.255 370.812 202.325 367.16C200.695 360.915 196.894 339.829 198.974 334.471C199.311 333.607 199.862 332.863 200.751 332.513C201.609 332.174 202.72 332.261 203.554 332.651C207.18 334.343 214.005 349.381 216.617 353.539C217.521 354.995 218.508 356.396 219.578 357.731C220.659 359.066 221.812 360.336 223.036 361.53C226.884 365.276 231.317 368.753 235.555 372.056C237.345 373.447 251.755 383.977 253.087 383.995C253.372 383.999 253.647 384.002 253.932 384.005C249.303 384.77 244.447 384.526 239.761 385.112C237.043 385.447 233.726 386.695 231.022 386.321C223.621 385.298 213.188 375.753 206.045 377.777Z" fill="#6666F2"/>
</g>
</g>
<defs>
<clipPath id="clip0_4376_1268">
<rect width="452" height="431" fill="white" transform="translate(0 50)"/>
</clipPath>
<clipPath id="clip1_4376_1268">
<rect width="54.6001" height="45" fill="white" transform="translate(198.168 332.398) rotate(-1.48521)"/>
</clipPath>
</defs>
</svg>
