<svg width="503" height="498" viewBox="0 0 503 498" fill="none" xmlns="http://www.w3.org/2000/svg">
<path d="M0.86377 497.338C0.86377 432.066 13.7201 367.432 38.6988 307.129C63.6774 246.825 100.289 192.031 146.444 145.877C192.598 99.7223 247.392 63.1105 307.696 38.1319C367.999 13.1532 432.633 0.296872 497.905 0.296875L497.905 497.338H0.86377Z" fill="white"/>
<g clip-path="url(#clip0_4430_558)">
<rect x="0.187988" y="463.477" width="513.735" height="12.5067" fill="black"/>
<path d="M411.799 359.445C404.613 361.982 396.518 364.172 389.811 367.779C390.045 368.04 390.387 368.594 390.729 368.613C393.178 368.75 402.458 364.751 405.498 363.664C414.842 360.298 424.217 357.02 433.623 353.831C437.661 352.459 442.233 351.552 446.027 349.688C448.435 346.516 459.958 333.067 460.698 331.432C461.719 332.046 463.349 333.443 464.535 333.408C466.53 330.259 469.027 324.913 469.359 321.185L469.069 320.411C468.601 320.343 468.217 320.278 467.739 320.302C467.692 320.349 467.65 320.398 467.598 320.444C464.464 323.383 458.07 323.635 455.48 326.984C455.658 327.821 455.99 327.983 456.707 328.46C457.569 329.03 458.754 329.383 459.33 330.265C458.464 333.059 447.263 343.861 444.542 348.542C443.863 348.775 443.844 348.876 443.202 348.585L443.483 348.948C432.77 351.504 422.184 355.777 411.799 359.445ZM457.649 327.298C460.323 326.578 463.209 324.807 465.645 323.465L466.366 323.619L466.507 324.12C465.963 326.381 464.928 329.295 463.471 331.116C462.886 330.152 461.818 329.65 460.848 329.177C460.253 328.23 458.642 327.733 457.649 327.298Z" fill="black"/>
<path d="M463.51 391.778C463.064 391.961 462.765 391.931 462.582 392.405C462.357 393.002 462.507 393.736 462.573 394.355C459.753 394.865 456.455 394.565 453.579 394.543C453.869 394.071 454.038 393.631 454.085 393.071C454.666 385.813 454.127 378.109 454.094 370.813C454.08 367.069 454.675 361.149 453.893 357.656C453.804 357.266 453.626 356.973 453.405 356.644C446.501 356.834 439.24 356.49 432.401 357.206C432.912 358.704 433.202 361.74 432.448 363.159C432.382 363.278 432.312 363.393 432.246 363.51C432.485 363.893 432.701 364.305 432.771 364.756C433.258 367.824 434.036 391.168 433.516 393.535C433.441 393.877 433.31 394.189 433.16 394.503L427.529 394.513C428.354 392.729 428.579 372.355 427.937 370.508C427.848 370.245 427.717 370.061 427.576 369.816C423.107 368.677 417.767 368.158 413.153 368.235C413.964 369.807 414.207 391.587 413.917 394.311C412.525 394.69 411.153 394.621 409.724 394.598C410.652 391.561 410.005 376.137 409.602 372.396L409.41 372.34L409.406 371.815C406.173 370.613 398.786 370.988 395.156 371.155C396.055 373.673 396.032 392.155 395.282 394.572C394.21 394.552 392.72 394.778 391.821 394.203C391.315 390.465 392.35 378.235 390.978 375.826C387.839 375.644 380.119 375.002 377.487 376.292C376.32 380.255 377.328 390.128 377.459 394.594L371.978 394.597C371.917 388.317 371.148 337.581 371.95 336.175L373.262 335.29C373.374 333.815 370.018 323.119 368.988 321.892C368.806 321.673 368.598 321.493 368.368 321.328C366.339 324.32 362.808 331.709 362.326 335.172L362.715 335.451C362.967 335.635 363.218 335.826 363.465 336.016C364.153 336.545 364.478 337.063 364.59 337.931C365.821 347.521 363.839 396.828 365.664 400.47C365.869 400.623 366.286 401.029 366.507 401.098C369.353 401.983 383.923 401.351 387.746 401.342L439.695 401.214C446.941 401.203 454.239 400.89 461.477 401.09C462.095 402.336 462.142 404.084 461.734 405.419C461.655 405.684 461.533 405.913 461.406 406.157C465.632 405.175 474.321 402.032 477.656 399.391L477.872 398.971C474.855 396.589 467.29 392.846 463.51 391.778ZM451.677 358.61C451.786 358.788 451.877 358.974 451.949 359.168C452.02 359.363 452.075 359.562 452.113 359.767C452.712 363.215 452.197 367.712 452.22 371.279C452.267 378.051 452.913 386.304 452.272 392.924C452.216 393.48 452.005 393.916 451.682 394.36C449.503 394.969 445.967 394.538 443.648 394.532C443.686 394.477 443.718 394.423 443.751 394.367C444.472 393.07 444.29 362.212 443.517 358.948C446.126 358.561 449.026 358.685 451.677 358.61ZM441.414 358.896C441.526 359.084 441.621 359.281 441.699 359.486C441.774 359.692 441.832 359.902 441.873 360.118C442.304 362.46 442.795 392.589 442.458 393.553C442.365 393.818 441.99 394.216 441.816 394.46L434.884 394.467C435.895 392.505 434.687 363.433 434.659 358.949L441.414 358.896ZM425.801 371.336C426.03 371.705 426.185 372.066 426.283 372.493C426.71 374.351 426.667 391.864 426.157 393.531C426.082 393.768 425.646 394.221 425.482 394.443C422.334 394.926 418.667 394.57 415.462 394.57C416.338 392.99 415.561 373.164 415.247 370.191C418.695 370.167 422.4 370.786 425.801 371.336ZM407.466 373.587C407.649 373.872 407.804 374.152 407.897 374.48C408.422 376.385 408.712 391.679 408.286 393.538C408.23 393.773 407.865 394.219 407.724 394.444C404.44 395.087 400.22 394.598 396.833 394.576C396.969 394.317 397.081 394.082 397.166 393.803C397.714 391.951 397.7 375.007 396.772 373.343C399.943 372.601 404.262 373.104 407.466 373.587ZM378.92 377.518L389.202 377.735C389.366 377.987 389.507 378.2 389.582 378.497C390.078 380.413 390.28 391.578 389.849 393.529C389.802 393.755 389.404 394.231 389.263 394.449C386.003 394.879 382.447 394.611 379.154 394.606C378.98 388.911 378.901 383.215 378.92 377.518ZM365.37 333.56C364.777 331.913 367.371 327.38 368.117 325.641C368.664 326.084 368.897 327.109 369.13 327.768C369.516 328.856 371.251 333.149 370.874 333.943L368.444 334.107C367.727 334.146 366.692 334.312 366.007 334.096C365.69 333.996 365.488 333.887 365.37 333.56ZM461.158 399.178L366.864 399.498C367.023 378.3 366.833 357.106 366.295 335.915C367.458 335.89 368.595 335.77 369.692 336.216C370.486 341.908 369.859 348.843 369.903 354.671L370.177 396.328L437.202 396.365C442.14 396.366 457.382 395.541 461.195 396.599C461.982 396.816 461.992 396.955 462.352 397.632C462.081 398.542 461.879 398.605 461.158 399.178ZM470.63 400.661C469.126 402.16 465.458 402.981 463.435 403.567C463.505 403.439 463.575 403.314 463.641 403.183C464.428 401.525 464.32 396.237 463.753 394.439C464.058 394.399 464.353 394.382 464.662 394.398C466.826 394.512 472.485 397.487 473.984 399.031C473.173 400.013 471.796 400.298 470.63 400.661Z" fill="black"/>
<path d="M369.891 255.321C363.32 263.199 360.431 273.094 361.379 283.268C362.164 291.7 365.926 301.638 372.615 307.098C374.555 308.682 376.92 309.946 378.597 311.806C378.04 312.754 377.534 313.245 377.684 314.381C378.424 315.005 378.443 315.033 379.422 315.078C379.632 315.088 379.848 315.086 380.063 315.079C383.755 314.98 390.327 324.687 392.898 324.094C394.191 321.492 392.21 317.66 393.283 315.026C393.54 315.02 393.826 314.962 394.06 315.077C403.654 316.079 412.198 314.431 419.875 308.265C426.279 303.12 431.155 295.413 432.064 287.14C432.326 284.724 431.769 280.615 432.621 278.506C433.816 278.14 434.996 278.414 435.961 277.609L435.938 276.668C435.31 276.172 434.739 276.19 433.975 276.14C432.696 274.444 432.172 267.444 431.521 264.998C430.616 261.601 424.663 245.767 422.344 243.903C422.353 245.872 421.154 248.309 419.875 249.796C419.721 249.973 419.646 250.011 419.473 250.127C413.795 244.434 405.569 241.956 397.681 241.891C397.181 241.887 396.683 241.9 396.187 241.93C385.614 242.909 376.738 247.112 369.891 255.321ZM380.405 309.994L379.417 309.75C377.562 308.576 375.74 307.399 374.105 305.916C366.626 299.128 363.534 289.464 363.007 279.633C368.427 280.119 373.74 280.502 379.122 279.47L379.923 279.465C380.363 280.105 380.335 280.282 380.373 281.035C378.283 284.032 376.499 280.514 374.494 281.025C374.367 281.367 374.264 281.618 374.274 281.991C374.461 288.072 378.316 293.992 382.579 298.025C383.619 299.009 384.884 299.69 385.914 300.658L386.2 300.93C386.106 302.701 381.792 308.668 380.405 309.994ZM390.111 298.14C390.851 298.103 391.198 298.173 391.877 298.465C392.13 298.997 392.252 299.109 392.125 299.686C391.474 302.671 386.879 307.101 384.307 308.794L383.769 309.322C383.937 306.89 389.381 301.448 390.111 298.14ZM429.52 265.303C430.481 267.918 432.242 273.34 431.127 275.952L429.82 276.251C426.396 276.676 422.812 276.646 419.365 276.801C419.435 276.514 419.496 276.227 419.51 275.93C419.758 270.469 413.669 266.34 410.399 262.861L410.558 262.312C415.191 261.719 424.18 262.409 428.654 263.921C429.057 264.298 429.328 264.79 429.52 265.303ZM422.588 248.957C422.99 249.081 423.187 249.149 423.45 249.511C424.391 250.812 427.998 260.525 427.797 261.971C425.342 260.883 422.194 260.835 419.543 260.7C417.29 260.327 414.896 260.402 412.615 260.337C416.681 258.304 420.386 252.914 422.588 248.957ZM393.648 244.035C394.822 243.913 395.999 243.85 397.18 243.846C398.36 243.842 399.538 243.897 400.712 244.011C401.886 244.125 403.051 244.298 404.206 244.529C405.365 244.76 406.508 245.049 407.635 245.395C410.835 246.39 416.578 248.621 418.17 251.645C418.133 251.827 418.086 252.114 418.006 252.299C417.107 254.416 412.292 259.222 410.202 260.045C411.299 258.559 412.095 256.514 412.198 254.662L411.692 254.385C409.045 255.706 409.303 261.041 406.75 263.257C407.153 263.46 407.548 263.675 407.935 263.901C408.326 264.127 408.708 264.364 409.083 264.613C409.461 264.862 409.829 265.121 410.188 265.391C410.547 265.661 410.899 265.942 411.242 266.233C411.586 266.524 411.922 266.824 412.249 267.135C412.574 267.445 412.891 267.765 413.2 268.094C413.506 268.423 413.803 268.761 414.09 269.107C414.381 269.453 414.659 269.808 414.924 270.171C416.241 271.928 417.885 274.572 417.571 276.851C415.416 276.832 413.655 276.795 411.734 277.941L412.118 278.302C417.669 279.566 424.241 278.468 429.909 278.233C431.024 280.274 430.893 282.687 430.64 284.942C430.584 285.471 430.517 285.997 430.439 286.522C430.357 287.047 430.264 287.569 430.157 288.089C430.051 288.61 429.933 289.127 429.801 289.641C429.667 290.156 429.522 290.666 429.366 291.173C429.21 291.681 429.041 292.184 428.86 292.683C428.679 293.182 428.485 293.676 428.279 294.165C428.073 294.655 427.854 295.139 427.623 295.617C427.395 296.096 427.155 296.568 426.902 297.035C426.649 297.502 426.383 297.962 426.105 298.416C425.83 298.87 425.545 299.317 425.248 299.756C424.951 300.196 424.642 300.629 424.321 301.053C424.002 301.478 423.674 301.894 423.337 302.302C422.996 302.711 422.647 303.111 422.288 303.502C421.928 303.893 421.56 304.275 421.182 304.648C420.804 305.022 420.419 305.385 420.025 305.739C419.628 306.094 419.224 306.438 418.812 306.772C413.439 311.056 406.286 313.784 399.372 313.509C396.458 313.394 393.582 312.794 390.678 312.487C390.758 312.633 390.875 312.826 390.931 312.99C391.606 314.894 391.723 319.323 390.814 321.105C389.737 318.358 383.956 315.141 381.342 313.512C385.553 310.602 390.233 306.899 392.847 302.438C393.756 300.883 394.327 299.57 393.863 297.809C393.629 297.331 393.142 297.009 392.73 296.678C392.032 296.119 391.638 295.851 390.692 296.015C389.76 296.177 388.776 297.062 388.317 297.843C388.083 298.24 387.91 298.573 387.577 298.901C387.493 298.989 387.399 299.074 387.31 299.16C386.298 298.145 384.921 297.41 383.82 296.46C379.651 292.856 377.998 288.738 376.447 283.617C378.293 283.932 380.152 283.91 382.017 283.93C382.087 282.41 382.415 280.486 382.228 278.992C382.11 278.089 381.764 277.842 381.047 277.37C379.319 277.135 377.482 277.793 375.815 278.224C376.03 274.937 376.7 272.014 378.251 269.077C381.633 262.664 389.338 256.739 396.876 256.846C399.831 256.888 404.263 258.034 407.003 257.177L406.937 256.76C404.15 254.895 400.178 254.635 396.932 254.866C396.522 254.895 396.115 254.934 395.709 254.983C395.3 255.032 394.894 255.091 394.491 255.159C394.085 255.228 393.682 255.306 393.283 255.395C392.883 255.483 392.485 255.581 392.088 255.689C391.695 255.797 391.303 255.914 390.912 256.041C390.522 256.168 390.135 256.304 389.751 256.45C389.37 256.595 388.99 256.75 388.612 256.914C388.238 257.079 387.866 257.252 387.498 257.434C387.132 257.617 386.77 257.808 386.411 258.008C386.055 258.208 385.702 258.416 385.352 258.634C385.005 258.851 384.664 259.076 384.326 259.31C383.989 259.544 383.658 259.786 383.333 260.036C383.009 260.286 382.69 260.544 382.378 260.809C382.065 261.075 381.759 261.348 381.46 261.628C381.16 261.909 380.868 262.196 380.584 262.491C380.299 262.785 380.021 263.087 379.75 263.395C376.171 267.527 374.101 272.868 374.466 278.343C370.636 278.42 366.871 278.141 363.055 277.833C364.02 270.768 365.473 264.738 369.623 258.732C375.44 250.31 383.783 245.888 393.648 244.035Z" fill="black"/>
<path d="M406.623 299.315C406.214 299.493 405.8 299.658 405.382 299.81C404.967 299.962 404.545 300.101 404.117 300.227C403.689 300.352 403.258 300.464 402.824 300.563C402.393 300.662 401.958 300.747 401.517 300.818C400.178 301.04 396.768 300.844 395.971 301.672C396.257 302.112 396.501 302.486 396.866 302.867C403.237 303.154 408.844 301.488 413.589 297.087C416.919 293.999 419.978 289.29 420.264 284.632C420.306 283.941 420.161 283.679 419.805 283.096L418.62 283.031C417.908 288.613 415.669 293.083 411.195 296.591C410.845 296.865 410.486 297.127 410.118 297.379C409.752 297.63 409.378 297.869 408.994 298.097C408.613 298.324 408.224 298.54 407.827 298.743C407.431 298.946 407.029 299.137 406.623 299.315Z" fill="black"/>
<path d="M406.22 271.646C406.101 271.494 405.977 271.346 405.845 271.2C405.717 271.055 405.586 270.913 405.452 270.774C405.318 270.635 405.179 270.5 405.035 270.368C404.894 270.237 404.749 270.109 404.599 269.984C402.074 267.875 398.636 266.958 395.376 267.225C391.657 268.111 388.406 269.59 386.354 272.981C384.663 275.77 384.335 279.248 385.15 282.376C385.89 285.218 387.6 287.64 390.158 289.117C392.392 290.406 394.865 290.773 397.409 290.718C400.674 290.568 403.442 289.406 405.658 286.939C405.792 286.788 405.922 286.634 406.047 286.477C406.172 286.32 406.294 286.161 406.412 285.998C406.528 285.835 406.64 285.669 406.75 285.5C406.859 285.332 406.965 285.161 407.068 284.988C407.168 284.814 407.265 284.638 407.358 284.459C407.449 284.281 407.536 284.1 407.621 283.918C407.705 283.735 407.785 283.55 407.86 283.364C407.935 283.177 408.005 282.989 408.071 282.799C408.136 282.609 408.195 282.417 408.248 282.224C408.305 282.031 408.356 281.837 408.403 281.641C408.45 281.446 408.492 281.249 408.53 281.052C408.567 280.854 408.598 280.656 408.623 280.456C408.651 280.258 408.673 280.058 408.689 279.857C408.708 279.657 408.72 279.457 408.726 279.256C408.736 279.055 408.739 278.854 408.736 278.654C408.733 278.452 408.725 278.252 408.712 278.051C408.7 277.858 408.681 277.665 408.656 277.472C408.634 277.28 408.606 277.088 408.572 276.897C408.541 276.706 408.503 276.516 408.459 276.326C408.419 276.137 408.372 275.949 408.319 275.762C408.269 275.576 408.213 275.39 408.15 275.206C408.091 275.022 408.025 274.84 407.953 274.659C407.885 274.478 407.81 274.299 407.729 274.122C407.65 273.946 407.568 273.771 407.48 273.598C407.39 273.425 407.296 273.255 407.199 273.087C407.102 272.919 407.002 272.753 406.899 272.59C406.793 272.427 406.684 272.267 406.572 272.109C406.459 271.952 406.342 271.797 406.22 271.646ZM406.74 276.945C406.774 277.108 406.806 277.272 406.834 277.436C406.862 277.601 406.884 277.766 406.899 277.932C406.918 278.098 406.934 278.264 406.946 278.431C406.956 278.597 406.962 278.764 406.965 278.931C406.965 279.098 406.962 279.264 406.956 279.431C406.949 279.598 406.938 279.764 406.923 279.93C406.907 280.097 406.888 280.262 406.867 280.428C406.842 280.593 406.814 280.757 406.782 280.921C406.751 281.085 406.715 281.248 406.675 281.409C406.634 281.571 406.59 281.732 406.543 281.892C406.497 282.052 406.445 282.21 406.389 282.368C406.333 282.525 406.272 282.68 406.206 282.834C406.144 282.989 406.077 283.141 406.005 283.292C405.933 283.442 405.858 283.591 405.78 283.738C405.699 283.885 405.616 284.03 405.532 284.173C405.444 284.315 405.354 284.456 405.26 284.594C403.63 286.981 401.063 288.318 398.276 288.807C396.43 288.989 394.762 288.931 393.001 288.293C390.5 287.388 388.467 285.646 387.357 283.207C386.27 280.821 386.12 278.082 387.09 275.631C388.434 272.233 391.109 270.707 394.308 269.332C397.297 268.98 399.873 269.054 402.487 270.743C402.621 270.83 402.754 270.921 402.885 271.015C403.016 271.109 403.144 271.206 403.269 271.307C403.394 271.408 403.517 271.511 403.639 271.618C403.758 271.724 403.875 271.833 403.99 271.945C404.106 272.058 404.218 272.173 404.328 272.291C404.437 272.408 404.543 272.529 404.646 272.652C404.749 272.775 404.851 272.901 404.951 273.029C405.048 273.157 405.141 273.287 405.232 273.42C405.322 273.552 405.41 273.687 405.494 273.824C405.579 273.961 405.66 274.1 405.738 274.241C405.816 274.382 405.889 274.525 405.958 274.669C406.03 274.814 406.097 274.96 406.159 275.108C406.222 275.256 406.281 275.405 406.337 275.556C406.394 275.707 406.447 275.859 406.497 276.012C406.544 276.166 406.587 276.32 406.628 276.476C406.668 276.631 406.706 276.787 406.74 276.945Z" fill="black"/>
<path d="M319.633 230.714C321.534 232.425 324.241 231.8 326.268 233.1C327.541 233.917 327.283 235.234 327.751 236.511C329.097 240.192 338.326 240.799 341.606 241.24C341.19 243.563 339.126 251.494 339.781 253.441C340.505 253.653 340.641 253.644 341.332 253.298C344.518 251.703 347.617 247.767 350.428 245.443C352.124 244.04 354.021 243.006 355.897 241.873C357.128 241.129 358.057 240.266 358.774 239.002L358.532 238.737C352.966 239.96 346.993 245.604 342.893 249.431L342.186 249.933C341.007 246.805 345.883 241.483 341.47 239.432C337.819 237.736 330.989 239.413 328.917 235.017C328.725 234.608 328.615 234.156 328.515 233.718C329.096 232.925 329.742 232.768 330.706 232.634C335.656 231.946 341.217 232.546 346.252 232.557C355.207 232.576 364.164 232.365 373.116 232.428C377.426 232.458 382.443 233.076 386.663 232.191C388.851 231.731 390.5 230.839 391.91 229.077C392.931 227.801 393.746 226.348 394.013 224.72C394.959 218.97 394.477 212.308 394.669 206.445L395.264 188.615C395.353 185.475 395.662 182.105 395.301 178.983C395.114 177.324 394.046 175.766 392.711 174.799C389.952 172.799 372.245 173.314 367.667 173.122C367.939 169.698 368.46 165.963 365.942 163.177C363.528 160.505 359.654 160.45 356.334 160.395C355.743 160.385 355.152 160.381 354.561 160.383C351.804 160.855 349.232 161.585 347.494 163.969C345.639 166.513 345.581 169.846 345.655 172.868C340.915 172.714 324.308 171.115 321.129 174.205C320.206 175.102 319.608 176.147 319.391 177.42C318.428 183.051 318.73 191.322 318.493 197.223C318.141 205.985 317.226 214.94 317.38 223.697C317.427 226.38 317.505 228.798 319.633 230.714ZM348.848 165.614C350.171 163.542 352.221 162.936 354.462 162.42C357.504 162.34 361.931 161.983 364.288 164.318C366.572 166.58 366.123 170.148 366.016 173.066L360.346 172.97L347.647 172.869C347.585 170.421 347.474 167.763 348.848 165.614ZM320.234 200.115C320.473 194.126 320.244 182.781 321.253 177.497C321.558 175.901 322.648 175.204 323.897 174.365C334.742 174.151 345.706 174.759 356.559 174.96C363.083 175.081 386.448 174.632 390.762 176.096C391.666 176.403 392.406 176.719 392.762 177.662C393.315 179.129 393.484 180.97 393.535 182.525C393.699 187.854 392.809 223.777 391.46 226.426C390.57 228.181 389.202 229.269 387.361 229.877C386.471 230.456 385.647 230.495 384.607 230.553C372.114 231.238 359.065 230.677 346.524 230.72C341.072 230.739 329.267 231.408 324.368 230.628C322.634 230.352 321.061 229.458 320.056 228C319.42 227.077 319.214 226.325 319.171 225.215C318.847 216.985 319.904 208.365 320.234 200.115Z" fill="black"/>
<path d="M327.013 186.902C328.884 188.074 334.12 187.349 336.494 187.615C336.366 186.586 336.478 186.515 335.638 185.824C332.6 185.22 329.457 185.517 326.376 185.595C326.53 186.117 326.533 186.601 327.013 186.902Z" fill="black"/>
<path d="M327.142 181.356C328.514 182.44 340.459 181.952 343.117 181.948C342.997 181.402 343.045 180.876 342.541 180.574C340.851 179.563 329.134 179.988 326.654 179.982C326.752 180.484 326.725 181.027 327.142 181.356Z" fill="black"/>
<path d="M342.992 201.74C342.832 202.538 342.869 202.686 342.178 203.118C341.166 203.749 339.163 203.712 337.959 203.824C337.444 206.602 337.052 209.305 337.123 212.146C338.726 212.257 340.572 212.201 341.992 213.016C342.322 213.501 342.529 213.545 342.408 214.159C342.119 215.624 340.012 216.988 338.912 217.875C339.653 219.681 340.153 221.682 342.059 222.502C344.082 221.565 344.86 220.565 347.191 221.408L347.484 222.056C346.914 223.286 346.246 224.219 346.576 225.564C347.646 226.511 349.19 226.997 350.623 226.842C351.864 226.708 353.336 225.606 354.409 225.577C356.956 225.51 359.198 227.605 361.757 226.014C362.04 225.338 362.311 224.658 362.572 223.973C363.797 224.318 364.606 225.385 365.447 226.331C367.52 224.968 369.511 223.658 371.208 221.817C370.663 220.594 369.953 219.411 370.129 218.042C370.764 217.512 371.024 217.464 371.87 217.554C372.863 217.66 373.922 218.076 374.873 218.377C375.646 216.385 377.791 212.444 376.962 210.445C375.824 209.737 373.702 209.779 372.933 208.86C372.98 207.994 373.004 207.538 373.655 206.87C374.653 205.846 376.493 205.066 377.749 204.38C377.027 202.436 376.367 200.424 375.533 198.527C373.758 199.197 371.968 199.983 370.074 200.202C370.519 198.117 371.687 196.596 372.938 194.928C371.387 193.496 369.662 192.24 367.993 190.949C366.947 191.84 365.992 192.911 365.026 193.891C363.862 193.505 362.638 193.268 361.865 192.258C361.385 190.733 361.8 189.192 361.793 187.628C358.663 187.609 355.754 187.666 352.693 188.426C353.149 189.917 353.659 191.416 353.981 192.944C352.289 193.258 349.162 194.785 347.745 193.818C347.184 193.436 346.705 192.913 346.225 192.435C344.298 194.351 342.43 196.324 340.623 198.355C341.57 199.398 342.588 200.354 342.992 201.74ZM346.174 194.867C347.187 195.726 348.307 196.497 349.373 197.293C351.524 195.232 352.622 194.661 355.592 194.364L354.776 189.5L360.011 189.404L359.945 193.979C361.432 194.344 363.304 195.447 364.775 195.491C365.708 195.518 365.952 195.047 366.587 194.456L367.612 193.549C368.847 193.666 369.688 194.548 370.648 195.314C369.711 196.85 368.386 198.445 368.906 200.34C369.019 200.752 369.195 201.12 369.385 201.501L369.876 201.902C371.392 202.185 372.807 201.26 374.32 201.065C374.544 201.266 374.68 201.371 374.858 201.636C375.163 202.099 375.252 202.719 375.064 203.23C374.601 204.519 372.638 205.234 371.495 205.812L371.443 210.932C372.104 210.989 372.83 211.01 373.476 211.154C374.371 211.354 374.568 211.572 375.097 212.306C375.116 212.732 375.102 213.143 374.994 213.559C373.95 217.675 371.71 214.507 369.156 216.082C367.237 218.278 368.823 219.438 368.45 221.857C367.906 222.768 367.342 223.112 366.414 223.599C365.075 223.543 364.222 222.632 363.071 221.964C362.158 222.028 361.994 222.141 361.256 222.621C360.873 223.551 360.65 224.173 359.814 224.768C358.831 224.944 358.178 225 357.219 224.687C356.727 224.147 356.155 223.401 355.494 223.074C353.696 222.182 352.506 224.795 350.882 225.244C350.042 225.477 349.412 225.09 348.712 224.669L348.826 223.302C348.851 223.002 348.883 222.704 348.899 222.403C348.96 221.322 348.813 220.569 348.053 219.764C345.812 217.39 344.548 220.546 342.474 220.423C341.812 219.708 341.7 219.548 341.488 218.602C341.891 217.208 343.766 215.851 344.804 214.781C344.38 213.579 344.022 212.336 343.219 211.325C341.917 210.531 340.267 210.791 338.788 210.825C338.784 208.92 339.018 207.098 339.288 205.216L343.529 205.27L345.417 201.554L342.998 198.467C343.989 197.219 345.107 196.052 346.174 194.867Z" fill="black"/>
<path d="M115.744 276.169C120.449 278.228 161.961 276.329 171.473 277.123C174.547 279.904 182.898 287.177 186.571 288.166C186.85 288.028 187.002 288.044 187.112 287.736C187.97 285.338 187.419 281.499 187.359 278.919L187.49 277.471C190.88 275.001 200.976 280.155 202.757 268.982C203.459 264.576 203.118 259.726 203.058 255.265C202.952 248.852 202.885 242.439 202.856 236.026L202.915 217.643C202.93 214.415 203.143 211.03 202.834 207.821C202.65 205.902 202.185 203.779 201.012 202.205C199.697 200.44 197.612 199.29 195.441 199.014C191.809 198.553 187.973 198.795 184.316 198.822L167.12 198.9C150.888 198.898 134.401 198.241 118.197 198.996C115.508 199.834 113.484 200.841 112.142 203.479C111.442 204.855 111.138 206.376 111.037 207.91C110.641 213.939 110.696 269.021 111.658 271.868C112.262 273.657 114.034 275.422 115.744 276.169ZM112.603 208.784C112.712 207.093 113.036 205.289 113.946 203.828C115.114 201.952 116.77 201.253 118.813 200.776C132.916 200.438 147.132 200.815 161.251 200.796C171.685 200.782 182.271 200.262 192.683 200.679C195.017 200.772 197.724 201.039 199.345 202.958C200.501 204.328 200.907 206.399 201.076 208.14C201.392 211.384 201.179 214.807 201.163 218.07L201.086 236.962L201.132 257.387C201.138 260.962 201.409 264.807 200.935 268.345C199.49 279.122 189.656 272.637 185.594 275.958C185.537 276.005 185.484 276.055 185.428 276.104C184.829 279.417 185.433 282.829 185.804 286.14C181.625 282.211 176.428 279.302 172.475 275.18L137.201 275.196C131.238 275.2 124.997 275.562 119.058 275.109C117.92 275.022 116.79 274.862 115.789 274.274C114.469 273.498 113.774 272.716 113.401 271.235C112.192 266.444 112.763 260.524 112.722 255.538C112.631 245.554 112.617 235.57 112.682 225.587C112.703 220.044 112.246 214.302 112.603 208.784Z" fill="black"/>
<path d="M119.484 267.025C120.164 268.409 121.162 269.422 122.664 269.831C127.381 271.118 135.267 270.339 140.451 270.349L164.746 270.477C172.072 270.483 179.606 270.982 186.905 270.551C188.645 270.448 190.409 270.309 191.952 269.428C192.56 269.08 193.046 268.668 193.508 268.146C194.251 267.103 194.587 266.052 194.722 264.789C195.699 255.632 194.974 243.998 194.972 234.619C194.971 226.617 195.81 216.967 194.7 209.141C193.782 207.669 192.872 206.495 191.287 205.719C190.135 205.219 189.103 205.06 187.86 205.001C177.068 204.493 165.89 204.913 155.052 204.903C145.785 204.895 136.305 204.407 127.065 204.899C125.48 204.984 123.764 205.181 122.291 205.811C120.841 206.431 119.824 207.841 119.285 209.283C118.357 211.766 118.604 258.392 118.917 264.238C118.968 265.188 119.058 266.157 119.484 267.025ZM120.62 210.163C120.74 209.181 121.038 208.585 121.746 207.888C122.527 207.119 123.193 206.904 124.257 206.798C130.895 206.137 140.266 206.778 147.18 206.786C161.243 206.802 175.314 206.531 189.375 206.717C190.665 207.018 191.944 207.413 192.661 208.632C193.116 209.406 193.172 210.387 193.219 211.263C193.522 216.96 193.658 263.446 192.628 266.453C192.564 266.641 192.487 266.824 192.409 267.006C191.153 268.279 190.634 268.681 188.824 268.76C184.405 268.951 179.906 268.695 175.477 268.642L153.538 268.542L134.676 268.589C131.199 268.601 127.588 268.801 124.129 268.492C123.009 268.392 122.303 268.026 121.485 267.25C120.729 266.533 120.672 262.701 120.634 261.583C120.28 251.008 120.591 240.321 120.552 229.735C120.53 223.424 119.861 216.392 120.62 210.163Z" fill="black"/>
<path d="M130.404 255.587C131.649 253.788 131.211 234.343 131.119 231.198C133.232 231.005 135.294 230.864 137.42 230.889C139.019 233.594 137.24 250.624 138.625 255.69L138.942 255.671C139.697 252.194 139.761 234.037 139.132 230.345C138.545 229.631 138.296 229.352 137.319 229.188C135.507 228.886 133.288 229.149 131.447 229.232C130.599 229.989 130.59 230.278 130.167 231.318C129.256 233.559 129.273 253.228 130.119 255.142C130.187 255.296 130.311 255.455 130.404 255.587Z" fill="black"/>
<path d="M157.745 255.612C158.862 252.896 158.272 231.95 158.281 227.494C160.632 227.307 162.972 227.325 165.328 227.336C165.335 231.545 164.793 253.237 166.154 255.215C167.342 253.826 166.909 231.118 166.873 227.454C167.564 226.65 168.472 225.848 168.602 224.762L167.984 224.602C164.864 226.024 157.866 224.736 156.982 226.966C156.339 228.588 156.593 253.345 157.329 255.339L157.745 255.612Z" fill="black"/>
<path d="M143.483 255.075L143.735 255.07C144.547 250.218 144.187 245.119 144.202 240.211C144.281 233.462 144.315 226.712 144.304 219.962L144.566 219.316C146.591 218.772 149.076 219.079 151.181 219.141C151.26 231.026 150.797 243.344 151.816 255.172L152.032 255.208C153.058 251.091 152.713 246.924 152.696 242.728C152.667 235.685 152.327 228.386 152.647 221.375C152.741 219.309 154.003 217.878 154.018 216.055C151.135 218.507 146.515 217.092 142.895 217.575C142.495 225.4 142.8 233.259 142.983 241.088C143.091 245.735 142.959 250.453 143.483 255.075Z" fill="black"/>
<path d="M130.831 259.293C139.588 259.754 148.55 259.277 157.334 259.315C164.755 259.348 172.801 260.05 180.162 259.274C180.818 259.205 181.338 259.075 181.939 258.793C183.276 255.461 182.532 249.686 182.487 246.031C181.077 244.576 178.919 244.869 177.034 244.843C175.25 244.817 173.049 244.692 171.678 246.06C169.634 248.1 170.739 254.794 170.731 257.606L141.855 257.632C136.678 257.636 131.382 257.867 126.218 257.565C126.331 257.993 126.46 258.289 126.607 258.426C127.382 259.149 129.794 259.238 130.831 259.293ZM172.867 246.755C175.543 246.764 178.219 246.787 180.895 246.825C180.97 249.076 181.607 255.915 180.635 257.571L172.383 257.501C172.346 255.353 171.619 248.365 172.867 246.755Z" fill="black"/>
<path d="M125.769 229.281C125.689 232.726 125.003 252.696 126.197 257.478C126.221 253.349 126.868 231.158 125.769 229.281Z" fill="black"/>
<path d="M126.218 257.574C126.211 257.547 126.204 257.52 126.197 257.492C126.197 257.52 126.197 257.547 126.197 257.573C126.204 257.573 126.211 257.574 126.218 257.574Z" fill="black"/>
<path d="M357.337 409.86C355.21 397.596 354.958 385.284 351.978 373.118C350.314 366.326 348.216 359.868 344.838 353.726C342.901 350.204 340.66 346.591 337.563 343.979C329.591 337.256 307.809 332.553 297.261 327.137C292.771 324.831 289.123 319.199 284.332 316.244C284.44 309.64 286.991 307.201 289.488 301.484C290.909 298.232 291.903 294.835 292.762 291.396C294.658 290.828 296.752 290.261 297.833 288.435C298.625 287.097 302.065 271.349 301.814 270.579C301.28 268.941 299.923 268.202 298.504 267.432C298.92 265.573 299.816 263.933 300.247 262.097C302.241 253.602 303.306 241.416 298.524 233.782C292.793 224.631 281.711 217.914 271.336 215.606C267.771 214.814 264.012 214.387 260.364 214.782C254.16 215.783 248.46 218.282 244.643 223.486C243.635 224.862 241.771 230.066 241.294 230.418C238.448 229.111 236.016 228.533 232.977 229.647C232.791 229.717 232.606 229.792 232.423 229.871C232.24 229.95 232.058 230.034 231.88 230.122C231.701 230.21 231.524 230.302 231.35 230.399C231.175 230.495 231.003 230.596 230.833 230.701C230.664 230.807 230.497 230.916 230.333 231.029C230.169 231.143 230.008 231.26 229.85 231.381C229.691 231.502 229.536 231.627 229.384 231.756C229.232 231.885 229.083 232.018 228.937 232.154C228.791 232.29 228.649 232.43 228.51 232.573C228.371 232.717 228.236 232.863 228.105 233.013C227.973 233.163 227.845 233.316 227.721 233.472C227.597 233.628 227.477 233.787 227.36 233.949C227.244 234.112 227.132 234.276 227.024 234.444C226.916 234.612 226.812 234.782 226.712 234.955C226.612 235.127 226.517 235.302 226.426 235.48C226.335 235.657 226.248 235.837 226.165 236.018C222.71 243.831 225.747 254.748 227.412 262.724C227.679 264.002 228.501 266.394 228.211 267.633C226.927 267.786 225.753 267.805 224.705 268.64C224.56 268.936 224.255 269.386 224.189 269.693C223.787 271.584 227.046 283.688 227.9 286.106C228.847 288.788 230.938 289.966 233.345 291.176C235.044 298.145 237.418 304.435 241.536 310.331L241.188 315.87C236.925 318.989 230.371 324.916 226.098 327.119C221.636 329.419 216.512 330.53 211.897 332.516C201.849 324.695 189.476 322.636 177.04 324.189C175.825 324.348 174.615 324.54 173.41 324.765C170.731 321.853 159.282 308.233 155.963 308.174C155.808 308.171 155.653 308.176 155.499 308.191C155.345 308.205 155.192 308.227 155.04 308.258C154.888 308.289 154.738 308.328 154.591 308.375C154.443 308.422 154.298 308.477 154.156 308.54C154.015 308.602 153.877 308.673 153.743 308.75C153.609 308.828 153.479 308.913 153.354 309.005C153.23 309.097 153.11 309.195 152.996 309.3C152.882 309.405 152.774 309.516 152.672 309.633C152.084 310.301 151.822 311.162 151.896 312.045C152.226 316.026 159.337 321.544 162.121 324.266C159.16 325.163 156.105 325.963 153.248 327.152C145.875 318.188 135.405 312.919 123.885 311.824C114.344 310.917 98.7125 313.044 91.0766 319.263C90.7562 319.524 90.4532 319.802 90.1547 320.088C94.7546 326.726 97.078 333.711 95.6574 341.841C94.3359 349.403 89.9514 355.899 83.6346 360.222C77.6696 364.305 69.2903 367.095 62.0371 365.616C61.5771 365.527 61.1197 365.426 60.6651 365.314C60.2101 365.202 59.7582 365.078 59.3094 364.944C58.8607 364.809 58.4157 364.663 57.9744 364.506C57.5331 364.349 57.0961 364.181 56.6632 364.002C56.23 363.823 55.8019 363.633 55.3787 363.432C54.9553 363.232 54.5371 363.021 54.1243 362.799C53.7114 362.578 53.3045 362.346 52.9035 362.104C52.5022 361.862 52.1074 361.61 51.7188 361.348C51.3303 361.086 50.9487 360.815 50.574 360.534C50.1989 360.252 49.8313 359.962 49.4713 359.663C49.111 359.363 48.7584 359.055 48.4136 358.738C48.0689 358.42 47.7323 358.095 47.4037 357.761C47.0751 357.427 46.7554 357.084 46.4443 356.734C46.133 356.384 45.8307 356.026 45.5374 355.661C45.2442 355.295 44.9601 354.923 44.6854 354.543C44.4109 354.163 44.146 353.777 43.8909 353.384C43.6314 352.981 43.3819 352.571 43.1424 352.155C42.9029 351.739 42.6735 351.318 42.4543 350.891C42.2354 350.464 42.0269 350.032 41.8289 349.595C41.6306 349.157 41.4433 348.716 41.2667 348.269C41.09 347.823 40.9244 347.373 40.7697 346.919C40.6151 346.465 40.4716 346.007 40.3392 345.546C40.2068 345.084 40.0856 344.62 39.9757 344.153C39.8657 343.686 39.7674 343.216 39.6806 342.744C39.5934 342.272 39.5179 341.798 39.4538 341.323C39.3901 340.847 39.3377 340.37 39.2969 339.892C39.2562 339.414 39.2272 338.935 39.2097 338.455C39.1922 337.976 39.1863 337.496 39.1919 337.016C39.1978 336.536 39.2156 336.056 39.2448 335.577C39.2738 335.098 39.3146 334.62 39.3671 334.144C39.4196 333.666 39.4836 333.191 39.5592 332.717C39.6348 332.243 39.7217 331.771 39.8202 331.301C39.9177 330.86 40.0259 330.422 40.1453 329.986C40.2646 329.55 40.3946 329.117 40.5355 328.688C40.6766 328.258 40.8282 327.833 40.9903 327.411C41.1525 326.989 41.3252 326.572 41.5084 326.159C41.6914 325.745 41.8846 325.337 42.0878 324.934C42.2915 324.53 42.5049 324.132 42.7282 323.739C42.9518 323.346 43.185 322.959 43.4276 322.578C43.6702 322.197 43.9223 321.822 44.1841 321.454C44.4455 321.085 44.716 320.723 44.9955 320.368C45.275 320.013 45.5632 319.665 45.8602 319.325C46.1573 318.984 46.4625 318.651 46.776 318.326C47.0896 318.001 47.4111 317.683 47.7405 317.374C48.0701 317.065 48.4069 316.764 48.7515 316.472C49.0959 316.179 49.4476 315.895 49.8064 315.62C50.1649 315.346 50.5301 315.08 50.9021 314.823C51.2741 314.567 51.6521 314.32 52.0366 314.082C57.8775 310.43 65.3475 309.043 72.0705 310.658C72.4543 310.751 72.8356 310.853 73.2144 310.965C73.5935 311.077 73.9695 311.198 74.3424 311.329C74.7152 311.459 75.0847 311.599 75.4507 311.747C75.8163 311.896 76.1783 312.054 76.5365 312.22C76.8947 312.387 77.2487 312.562 77.5984 312.746C77.9478 312.93 78.2926 313.123 78.6327 313.324C78.9728 313.525 79.3077 313.735 79.6375 313.952C79.9669 314.169 80.291 314.395 80.6099 314.629C80.9284 314.862 81.241 315.104 81.5477 315.353C81.8543 315.602 82.1546 315.858 82.4485 316.122C82.7427 316.386 83.03 316.657 83.3105 316.935C83.5912 317.213 83.865 317.498 84.1317 317.79C84.398 318.081 84.6573 318.379 84.9092 318.683C85.1613 318.988 85.4054 319.298 85.6418 319.615C85.8785 319.931 86.1071 320.253 86.3276 320.581C86.5484 320.909 86.7609 321.242 86.9651 321.58C90.7093 327.791 91.9324 335.881 90.1739 342.922C89.3101 346.382 87.6082 349.865 85.4548 352.707C85.1934 348.478 85.289 344.209 81.8404 341.183C78.8653 338.573 74.7521 337.323 71.4862 335.113C73.618 332.013 75.0026 328.75 76.2103 325.212C75.5372 322.125 75.4065 318.909 72.5477 317.02C70.2388 315.495 67.1982 315.176 64.5389 315.786C62.3312 316.292 60.2809 317.483 59.0888 319.457C57.6174 321.893 57.3308 325.044 58.0756 327.763C58.2358 328.353 58.4285 328.931 58.6536 329.499C58.879 330.067 59.1355 330.621 59.4232 331.16C59.7108 331.699 60.028 332.22 60.3746 332.723C60.721 333.226 61.0946 333.708 61.4956 334.169C61.7134 334.419 61.9257 334.672 62.1454 334.921C59.9643 339.43 47.4633 337.35 47.1327 349.768C47.0816 351.684 47.1228 353.976 47.7622 355.803C48.3707 357.544 49.7526 358.839 51.4156 359.572C54.9846 361.147 76.3721 361.082 80.0058 359.584C85.5942 357.28 89.4414 350.934 91.5676 345.524C94.1842 338.867 93.2098 330.077 90.3305 323.672C87.3897 317.132 82.1812 312.036 75.425 309.553C68.3638 306.958 60.6431 307.633 53.8758 310.788C53.4386 310.992 53.0068 311.206 52.5801 311.431C52.1535 311.656 51.7327 311.892 51.3177 312.137C50.9023 312.383 50.4934 312.639 50.0909 312.904C49.6884 313.17 49.2926 313.445 48.9035 313.73C48.5141 314.015 48.132 314.309 47.7572 314.613C47.3825 314.916 47.0154 315.229 46.6559 315.551C46.2965 315.872 45.945 316.202 45.6014 316.541C45.2582 316.88 44.9234 317.227 44.5971 317.582C44.2708 317.937 43.9532 318.3 43.6444 318.671C43.3358 319.042 43.0365 319.42 42.7464 319.805C42.4563 320.191 42.1757 320.583 41.9046 320.982C41.6336 321.381 41.3724 321.786 41.1214 322.198C40.8703 322.61 40.6294 323.028 40.3987 323.452C40.1678 323.875 39.9478 324.304 39.7381 324.738C39.5283 325.173 39.3292 325.613 39.141 326.057C38.9529 326.501 38.7757 326.949 38.6092 327.402C35.7879 335.173 36.6685 343.598 40.2146 350.967C43.7006 358.213 49.7284 363.809 57.3615 366.457C60.9558 367.704 64.5659 367.995 68.3419 367.91C72.9359 376.681 77.5372 384.68 85.3094 391.075C95.5516 399.293 108.009 403.177 121.131 401.775C125.312 401.328 129.316 400.205 133.229 398.687C131.895 403.618 130.131 408.628 129.065 413.598C128.619 415.676 128.555 417.8 128.184 419.884C127.863 421.697 126.725 423.637 127.714 425.412C128.261 426.396 129.227 427.136 130.338 427.35C131.47 427.569 132.607 427.249 133.516 426.557C136.764 424.082 138.758 417.649 140.33 413.968C143.486 414.922 150.476 418.244 153.472 416.708C154.426 416.219 155.099 415.22 155.336 414.188C155.762 412.329 154.866 410.471 153.828 408.983C150.168 403.734 144.61 399.586 140.488 394.674C151.185 387.087 159.689 373.625 161.9 360.692C162.999 354.261 162.615 347.274 160.957 340.971C165.212 337.605 171.678 331.309 173.983 326.405C186.983 324.88 198.66 325.533 209.765 333.291C193.363 339.794 182.875 340.878 175.001 359.079C167.789 375.751 167.257 394.853 163.122 412.419C161.521 419.217 158.007 425.54 156.882 432.446C156.393 435.444 156.489 438.497 157.65 441.334C159.438 445.701 163.436 448.478 167.674 450.195C172.316 452.077 177.399 453.273 182.312 454.192C185.86 454.854 207.072 456.866 208.623 458.144C210.224 459.463 210.034 462.578 212.993 463.103C215.848 463.609 219.372 463.341 222.293 463.364L240.88 463.443C261.338 463.481 281.909 463.855 302.354 463.412C303.516 463.386 304.974 463.441 306.055 462.963C309.012 461.655 309.833 457.916 313.239 456.793C316.466 455.728 321.257 455.972 324.702 455.657C334.998 454.714 358.52 452.177 362.093 440.41C362.946 437.601 362.828 434.56 362.464 431.679C361.523 424.247 358.612 417.217 357.337 409.86ZM60.3377 328.39C59.4356 326.62 58.835 324.117 59.5329 322.199C60.408 319.796 62.7108 318.372 64.8857 317.33C65.936 317.278 67.0082 317.211 68.0528 317.364C69.8791 317.632 72.1627 318.328 73.2378 319.927C76.7722 325.182 70.4338 331.002 69.4375 335.278C69.608 335.844 69.7898 336.424 69.898 337.006C70.3688 339.542 68.7855 341.241 67.4171 343.161C67.0293 343.486 66.7163 343.494 66.2258 343.554C65.8787 343.341 65.622 343.182 65.3433 342.879C64.2734 341.722 62.9422 339.652 63.0836 338.055C63.4551 337.462 63.9732 336.747 64.1592 336.069C64.6342 334.337 61.1734 330.029 60.3377 328.39ZM78.7508 357.97C73.8126 359.749 59.5194 358.708 53.6387 358.568C53.5259 358.545 53.4119 358.526 53.3001 358.498C51.1851 357.973 50.2515 356.537 49.1297 354.836C48.9409 351.961 48.828 348.692 49.9593 345.985C51.7642 341.666 56.6864 340.132 60.6465 338.446C62.0897 341.673 63.8084 343.791 66.4021 346.169C69.602 344 71.0718 341.487 72.4509 337.932C75.2048 339.143 78.6107 340.748 80.7678 342.863C83.9181 345.953 83.6412 350.519 83.6786 354.6C82.1591 355.92 80.6727 357.278 78.7508 357.97ZM162.806 326.195C162.952 326.327 162.904 326.572 162.917 326.763C161.412 328.712 159.519 331.527 157.456 332.873L156.82 332.582L154.514 328.978C157.152 327.623 159.949 326.906 162.806 326.195ZM151.609 328.167C145.656 331.247 139.972 334.492 134.443 338.287C129.298 341.9 124.245 345.638 119.284 349.5L116.243 347.674C118.094 338.464 121.293 322.465 121.443 313.449C134.142 314.962 142.826 318.361 151.609 328.167ZM119.787 355.566C119.331 357.734 117.953 358.684 116.228 359.817C115.583 359.885 114.925 359.949 114.282 359.843C112.902 359.614 111.55 358.814 110.752 357.657C109.993 356.557 109.825 355.152 110.11 353.863C110.546 351.89 111.837 351.051 113.418 350.033C114.105 349.948 114.869 349.821 115.562 349.866C116.894 349.951 118.236 350.626 119.053 351.69C119.91 352.805 120.071 354.218 119.787 355.566ZM101.663 397.898C100.843 397.627 100.032 397.336 99.2272 397.025C85.3941 391.643 76.5978 380.755 70.6951 367.498C72.5338 367.132 74.3388 366.641 76.1101 366.028C77.8816 365.414 79.6031 364.682 81.2741 363.832C88.6341 360.029 94.2614 353.724 96.6977 345.747C99.6436 336.102 97.24 328.563 92.672 320.066C99.8034 316.226 108.065 314.187 116.103 313.584L119.591 313.482C118.365 324.867 116.797 336.544 114.262 347.714C112.996 348.262 111.486 348.875 110.462 349.819C109.026 351.145 108.077 353.211 108.095 355.161C108.112 357.002 108.912 358.581 110.271 359.796C112.194 361.517 114.375 361.751 116.841 361.651C124.036 372.251 129.545 384.377 137.812 394.13C125.218 400.796 115.16 401.444 101.663 397.898ZM153.068 412.247C153.477 412.771 153.327 413.241 153.285 413.851C153.073 414.158 152.846 414.643 152.511 414.804C149.518 416.248 142.798 412.433 139.743 411.356C139.075 412.684 138.482 414.061 137.861 415.414C136.437 418.187 135.154 421.276 133.494 423.902C132.902 424.84 132.192 425.512 131.07 425.714C130.328 425.849 130.266 425.823 129.663 425.38C129.55 425.038 129.456 424.747 129.451 424.381C129.402 421.039 135.834 408.458 138.237 405.729C140.046 406.271 152.137 411.051 153.068 412.247ZM151.438 409.228C147.514 407.344 142.532 404.486 138.219 404.077C134.222 406.217 132.31 412.188 130.285 416.113C131.887 409.979 133.748 403.905 135.435 397.792C136.369 397.136 137.442 396.577 138.424 395.989C140.146 396.477 149.394 406.999 151.438 409.228ZM160.324 358.155C158.588 372.147 150.379 384.661 139.349 393.228C137.798 391.285 136.39 389.235 134.96 387.204C129.259 378.554 124.568 369.34 118.423 360.97C119.627 359.996 120.71 358.722 121.284 357.268C122.16 355.052 121.527 353.081 120.649 351.025C130.341 343.011 140.781 335.661 152.144 330.249C152.388 330.218 152.84 330.321 153.09 330.354C154.139 331.455 154.752 333.079 155.409 334.447C154.245 335.365 153.304 336.457 152.946 337.934C152.695 338.97 152.876 340.196 153.523 341.061C154.848 342.834 157.581 342.899 159.576 343.15C160.832 348.035 160.943 353.163 160.324 358.155ZM158.235 340.932C157.493 341.087 156.801 341.059 156.046 341.034C155.231 340.567 155.18 340.57 154.792 339.65C155.252 336.942 164.012 328.713 166.427 326.127C163.758 322.947 154.484 315.145 153.858 311.843C154.174 310.71 154.363 310.589 155.26 309.802C156.01 309.973 156.709 310.173 157.342 310.629C160.828 313.147 169.577 322.942 172.05 326.466C168.16 331.564 163.071 336.76 158.235 340.932ZM291.714 324.652C297.728 330.542 298.618 339.147 298.742 347.18C296.988 348.97 291.738 352.153 290.8 353.719C290.522 354.182 290.456 354.581 290.602 355.102C291.11 356.908 294.313 358.109 295.87 358.925C290.963 366.501 286.352 377.595 281.794 385.944C280.713 387.873 279.789 389.835 278.883 391.849L269.078 391.794C270.997 382.844 273.42 374.033 276.348 365.36C281.276 350.466 288.372 336.299 286.421 320.236C288.104 320.865 290.383 323.348 291.714 324.652ZM282.482 319.837C281.55 321.616 280.496 323.194 279.297 324.803C277.406 327.146 275.101 329.31 272.796 331.242C270.073 333.524 265.413 337.378 261.698 336.902C256.462 336.23 249.616 329.071 246.331 325.072C242.513 320.424 242.782 318.564 243.339 312.916C244.96 313.94 246.448 315.487 247.93 316.722C252.052 320.155 257.056 322.147 262.447 322.194C270.438 322.264 276.934 318.33 282.426 312.859C282.403 315.186 282.422 317.512 282.482 319.837ZM261.726 339.284C263.616 339.823 266.603 343.279 268.145 344.709C266.67 347.065 264.956 349.818 262.392 351.064C261.702 351.031 260.981 350.979 260.322 350.76C258.152 350.039 256.86 346.814 255.881 344.897C258.111 343.176 259.923 341.452 261.726 339.284ZM258.561 352.407C256.621 359.316 255.827 366.613 253.795 373.429L253.428 373.608L253.093 372.654C250.869 365.063 248.416 357.546 245.734 350.103C249.09 349.424 251.333 348.282 254.137 346.403C255.355 346.912 257.309 351.14 258.561 352.407ZM260.666 352.58C261.308 352.637 261.934 352.768 262.567 352.889C263.404 354.032 263.692 355.796 264.027 357.17C265.885 364.793 270.982 384.812 266.978 391.4C266.02 392.008 264.007 391.736 262.853 391.714L257.912 391.661C257.165 387.664 255.492 383.621 255.139 379.582C254.701 374.578 259.071 358.014 260.666 352.58ZM264.518 352.206C266.718 350.315 268.128 348.271 269.576 345.768C272.828 347.584 276.034 348.967 279.584 350.075C276.796 358.331 273.925 366.544 271.42 374.892L270.297 378.369C268.025 369.695 267.296 360.801 264.518 352.206ZM284.492 321.41C284.947 322.216 284.839 323.806 284.869 324.744C285.126 332.672 283.029 340.534 280.249 347.89C276.498 347.034 273.17 345.529 270.006 343.349C268.148 341.8 266.373 340.154 264.585 338.525C272.789 334.984 279.546 328.646 284.208 321.089C284.303 321.195 284.421 321.285 284.492 321.41ZM299.767 270.951C299.81 272.51 297.114 284.98 296.476 286.786C296.197 287.575 295.724 288.25 295.221 288.909C294.44 288.887 293.867 289.028 293.243 288.536C293.652 284.376 294.206 280.185 293.986 276.002L297.446 269.768C297.724 269.788 298.015 269.8 298.288 269.862C299.178 270.068 299.293 270.164 299.767 270.951ZM232.527 288.745C231.205 288.02 230.348 287.183 229.724 285.79C228.576 283.227 226.585 274.377 226.19 271.508C226.1 270.855 226.285 270.268 226.526 269.671C226.878 269.731 227.226 269.794 227.568 269.897C228.762 270.257 229.444 271.661 229.986 272.703C231.306 275.239 233.348 286.203 232.527 288.745ZM232.207 272.507C229.086 265.381 227.313 254.603 226.765 246.831C226.449 242.346 226.682 237.444 229.846 233.922C231.333 232.267 233.688 230.996 235.936 230.938C238.889 230.861 240.902 232.714 242.912 234.605C243.623 231.096 244.267 227.733 246.325 224.706C249.456 220.1 254.157 217.892 259.486 216.877C269.014 215.852 278.506 219.032 286.315 224.371C292.335 228.487 298.06 234.235 299.398 241.666C301.094 251.089 299.251 264.25 293.782 272.217C293.463 269.348 293.09 266.373 292.194 263.621C288.901 253.506 279.655 256.526 271.491 255.218C265.948 254.331 260.996 252.417 256.038 249.836C254.8 249.129 253.469 248.345 252.391 247.41C250.098 245.42 247.69 241.748 244.472 241.508C242.805 241.384 241.292 242.135 240.088 243.237C234.662 248.196 232.501 265.301 232.207 272.507ZM240.203 304.581C237.944 300.34 236.539 295.721 235.544 291.038C233.084 279.47 233.797 272.809 235.744 261.281C236.328 257.821 236.724 254.167 237.773 250.812C238.911 247.175 240.418 245.259 243.765 243.48C244.196 243.447 245.103 243.421 245.495 243.575C246.57 243.995 248.129 245.991 249.026 246.86C251.097 248.868 253.311 250.529 255.766 252.038C262.866 256.401 271.573 257.412 279.7 257.67C282.362 257.755 286.483 258.079 288.354 260.265C292.11 264.652 292.416 276.056 292.081 281.678C291.307 294.671 287.173 306.067 277.289 314.877C276.142 315.691 274.985 316.509 273.754 317.189C268.472 320.102 262.616 321.041 256.782 319.275C249.737 317.145 243.597 310.954 240.203 304.581ZM240.596 319.322C241.551 320.637 241.885 322.528 242.826 323.942C246.769 329.866 253.441 335.334 259.646 338.731C257.947 340.583 255.92 342.214 254.046 343.892C251.259 345.834 248.766 347.433 245.399 348.205C243.691 343.797 241.894 339.214 240.644 334.658C239.384 330.068 238.09 323.693 240.596 319.322ZM237.256 321.228C237.747 322.087 237.624 331.813 238.416 334.489C240.914 342.921 244.264 351.1 246.934 359.48C250.342 370.175 253.056 381 256.229 391.749L247.503 391.591C246.263 389.869 245.316 387.913 244.31 386.048C239.104 376.727 233.452 367.68 228.332 358.308C230.317 357.072 233.605 355.512 234.486 353.257C233.833 350.155 227.992 349.266 226.334 346.683C225.231 344.964 225.631 341.936 225.925 340.032C227.563 329.457 228.698 327.487 237.256 321.228ZM202.613 454.556C191.937 454.221 177.817 452.59 167.967 448.224C164.463 446.672 160.68 444.067 159.285 440.329C158.358 437.846 158.432 435.014 158.858 432.437C159.993 425.575 163.403 419.225 165.001 412.439C169.166 394.744 169.801 375.08 177.413 358.425C179.561 353.724 182.788 348.813 186.837 345.548C193.507 340.171 216.769 332.838 226.387 329.255C226.411 329.593 226.39 329.826 226.28 330.148C224.871 334.281 222.864 340.806 223.789 345.144C224.644 349.156 229.18 351.278 232.341 353.261C230.025 354.697 227.763 356.14 225.577 357.77C232.603 368.747 238.873 380.391 245.3 391.736L221.324 391.819C217.361 391.834 213.06 391.52 209.135 392.04C206.868 392.34 204.8 393.419 203.462 395.314C201.14 398.602 202.743 404.556 203.273 408.275C200.223 414.58 198.385 421.745 196.167 428.402C194.829 427.605 193.486 426.8 192.099 426.091C188.809 424.409 184.128 422.86 180.44 424.057L180.308 424.448C181.795 426.039 200.095 431.762 203.304 432.908C203.029 435.642 202.778 438.377 202.549 441.115C202.367 445.63 202.36 450.041 202.613 454.556ZM203.66 412.427C205.002 418.361 205.632 425.245 205.875 431.33C204.602 431.114 203.347 430.805 202.09 430.511L198.02 428.911C200.069 423.588 200.896 417.406 203.66 412.427ZM208.413 456.235C207.212 456.181 206.206 456.246 205.194 455.508C203.106 451.462 204.454 437.081 205.333 432.691C206.014 433.095 206.163 433.136 206.39 433.897C207.12 436.343 209.108 454.955 208.413 456.235ZM307.071 459.903C306.649 460.323 306.187 460.762 305.622 460.978C303.424 461.823 224.959 461.57 217.407 461.359C215.884 461.317 213.981 461.317 212.583 460.63C211.781 460.236 211.703 459.923 211.452 459.079C209.735 453.308 209.468 443.658 208.689 437.333L205.951 414.653C205.356 409.997 204.428 405.167 204.243 400.495C204.188 399.115 204.364 397.649 205.084 396.444C206.097 394.751 207.629 394.127 209.444 393.704C230.393 393.33 251.393 393.556 272.347 393.617C280.443 393.64 305.674 392.689 312.173 394.801C312.578 395.263 312.954 395.73 313.208 396.295C313.306 396.51 313.392 396.729 313.466 396.953C313.539 397.178 313.599 397.406 313.647 397.637C313.694 397.868 313.728 398.101 313.749 398.337C313.769 398.572 313.776 398.807 313.77 399.043C313.676 402.929 313.048 406.914 312.643 410.786L310.394 432.206C309.76 438.222 308.689 455.103 307.071 459.903ZM312.792 453.36C312.725 454.959 312.353 455.294 311.231 456.322L310.428 455.972C309.553 453.975 310.98 443.797 311.555 441.252C312.325 445.095 312.956 449.456 312.792 453.36ZM357.785 444.064C350.028 451.906 325.589 454.135 314.811 454.299C314.655 447.096 313.622 440.537 311.949 433.534C318.775 432.555 324.959 430.379 331.474 428.19C334.278 427.586 337.067 427.076 339.944 426.976C342.469 426.889 346.175 427.81 348.46 427.118L348.771 426.42L348.254 425.875C345.404 424.725 341.396 425.097 338.354 425.077C339.395 424.37 340.788 423.673 341.364 422.524L341.029 422.124C340.751 422.095 340.113 421.945 339.868 422.005C338.73 422.288 337.346 423.287 336.249 423.83C333.446 425.217 330.383 426.626 327.353 427.423L326.939 427.53C325.592 425.124 321.614 416.744 319.522 415.636L319.264 416.232C319.767 420.404 323.175 424.748 325.185 428.403C320.983 429.927 316.894 430.812 312.497 431.568C313.331 425.475 313.73 419.247 314.368 413.126C314.813 408.849 315.617 404.396 315.718 400.104C315.769 397.918 315.444 395.626 313.781 394.039C312.55 392.864 310.905 392.296 309.261 392.004C306.053 391.435 302.431 391.763 299.171 391.762L280.927 391.758C284.573 385.484 287.65 378.827 290.923 372.35C293.381 367.486 296.113 362.726 298.355 357.76L292.324 355.111C294.764 353.234 298.186 351.107 299.748 348.393C302.421 343.748 299.221 334.568 298.03 329.695C303.185 331.334 308.364 333.659 313.451 335.56C319.6 337.859 326.173 339.89 332.073 342.757C333.966 343.677 335.922 344.829 337.446 346.298C346.751 355.27 351.164 375.585 352.78 387.958C353.711 395.086 353.955 402.371 355.314 409.435C356.952 417.947 360.865 426.496 361.004 435.231C361.059 438.723 360.274 441.549 357.785 444.064Z" fill="black"/>
<path d="M176.203 423.766C175.056 424.09 174.167 424.274 173.307 425.158L173.403 425.845C173.759 426.065 174.134 426.35 174.518 426.509C175.47 426.067 176.589 425.703 177.234 424.847L177.129 424.271L176.203 423.766Z" fill="black"/>
<path d="M342.904 198.369L344.827 201.254L345.308 201.734L343.385 205.1H339.058L338.577 210.869H343.385L344.827 213.754V215.196L341.462 218.081L342.423 220.484L346.269 218.561L347.712 219.523L348.673 220.965V224.811L350.116 225.292L352.519 224.331L354.443 222.888L355.885 223.85L357.808 224.811L360.212 224.331L361.654 222.407L363.577 221.927L365.981 223.85L367.904 222.407L368.385 221.446V219.042V217.119L369.346 216.157L371.75 215.677L374.154 215.196L375.116 213.273L374.635 211.831L371.269 210.869V205.581L375.116 203.657V202.215L374.635 201.254H374.154L372.231 201.734L369.346 201.254L368.866 198.85L370.789 195.484L367.423 193.561L365.5 195.484H364.539L360.212 193.561V189.234H354.923L355.404 193.561L349.154 197.407L346.269 195.004L342.904 198.369Z" fill="#F3A73D" stroke="#F3A73D" stroke-width="0.961538"/>
<circle cx="357.808" cy="208.459" r="8.89423" fill="white" stroke="black" stroke-width="1.44231"/>
<circle cx="396.75" cy="279.135" r="10.0962" fill="#6666F2"/>
<path d="M118.865 349.804L115.5 347.4C119.58 334.101 120.428 326.61 121.269 313.266C134.68 315.234 141.942 318.073 151.077 328.169C136.658 336.688 129.743 341.132 118.865 349.804Z" fill="#F3A73D" stroke="#F3A73D" stroke-width="0.961538"/>
</g>
<defs>
<clipPath id="clip0_4430_558">
<rect width="450" height="387.5" fill="white" transform="translate(28 82.5)"/>
</clipPath>
</defs>
</svg>
