<svg id="Icon" viewBox="0 0 24 24" xmlns="http://www.w3.org/2000/svg"><path d="m14 7.75c.414 0 .75-.336.75-.75v-1c0-1.517-1.233-2.75-2.75-2.75h-6c-1.517 0-2.75 1.233-2.75 2.75v12c0 1.517 1.233 2.75 2.75 2.75h6c1.517 0 2.75-1.233 2.75-2.75v-1c0-.414-.336-.75-.75-.75s-.75.336-.75.75v1c0 .689-.561 1.25-1.25 1.25h-6c-.689 0-1.25-.561-1.25-1.25v-12c0-.689.561-1.25 1.25-1.25h6c.689 0 1.25.561 1.25 1.25v1c0 .414.336.75.75.75z" fill="#112d55"/><path d="m20.53 11.47-3-3c-.293-.293-.768-.293-1.061 0s-.293.768 0 1.061l1.72 1.72h-10.189c-.414 0-.75.336-.75.75s.336.75.75.75h10.189l-1.72 1.72c-.293.293-.293.768 0 1.061.146.146.338.22.53.22s.384-.073.53-.22l3-3c.293-.293.293-.768 0-1.061z" fill="#549bff"/></svg>