<svg width="128" height="127" viewBox="0 0 128 127" fill="none" xmlns="http://www.w3.org/2000/svg">
<path d="M40.6163 54.0043L40.2299 55.3224H32.8663L33.2527 54.0043H40.6163ZM37.1617 62.8906L33.0027 57.7997L32.9799 56.8452H35.0481C35.586 56.8452 36.0443 56.7694 36.4231 56.6179C36.8019 56.4626 37.0917 56.2315 37.2924 55.9247C37.4932 55.6141 37.5936 55.224 37.5936 54.7543C37.5936 54.0611 37.3852 53.5175 36.9686 53.1236C36.5519 52.7259 35.9117 52.527 35.0481 52.527H32.8663L33.2527 51.2543H35.0481C35.9723 51.2543 36.7299 51.4077 37.3208 51.7145C37.9155 52.0175 38.3549 52.4342 38.639 52.9645C38.9269 53.491 39.0708 54.0876 39.0708 54.7543C39.0708 55.3565 38.9383 55.9115 38.6731 56.419C38.4117 56.9228 37.9913 57.3281 37.4117 57.6349C36.836 57.9418 36.0746 58.0952 35.1277 58.0952H35.0936L38.9345 62.7997V62.8906H37.1617ZM40.6163 51.2543L40.2299 52.5724L34.4345 52.527L34.8208 51.2543H40.6163ZM41.9956 62.8906V61.1179L46.1376 57.2827C46.4899 56.9418 46.7853 56.6349 47.024 56.3622C47.2664 56.0895 47.4501 55.8224 47.5751 55.5611C47.7001 55.2959 47.7626 55.0099 47.7626 54.7031C47.7626 54.3622 47.6849 54.0687 47.5296 53.8224C47.3743 53.5724 47.1622 53.3812 46.8933 53.2486C46.6243 53.1122 46.3194 53.044 45.9785 53.044C45.6224 53.044 45.3118 53.116 45.0467 53.2599C44.7815 53.4039 44.577 53.6103 44.4331 53.8793C44.2891 54.1482 44.2171 54.4683 44.2171 54.8395H41.8819C41.8819 54.0781 42.0543 53.4171 42.399 52.8565C42.7437 52.2959 43.2266 51.8622 43.8478 51.5554C44.469 51.2486 45.1849 51.0952 45.9956 51.0952C46.8289 51.0952 47.5543 51.2429 48.1717 51.5384C48.7929 51.83 49.2759 52.2353 49.6206 52.7543C49.9652 53.2732 50.1376 53.8679 50.1376 54.5384C50.1376 54.9777 50.0505 55.4115 49.8762 55.8395C49.7058 56.2675 49.4009 56.7429 48.9615 57.2656C48.5221 57.7846 47.9027 58.4077 47.1035 59.1349L45.4046 60.7997V60.8793H50.291V62.8906H41.9956ZM57.1362 51.2543V62.8906H54.6759V53.5895H54.6078L51.943 55.2599V53.0781L54.8237 51.2543H57.1362ZM61.9302 61.2997L61.8677 61.9247C61.8185 62.4247 61.7238 62.9228 61.5836 63.419C61.4473 63.919 61.3033 64.3717 61.1518 64.777C61.0041 65.1823 60.8848 65.5005 60.7938 65.7315H59.2257C59.2825 65.508 59.3601 65.1955 59.4586 64.794C59.5571 64.3963 59.6499 63.9493 59.737 63.4531C59.8241 62.9569 59.8791 62.4512 59.9018 61.9361L59.9302 61.2997H61.9302ZM68.112 51.0952C68.7105 51.0952 69.2863 51.1955 69.8393 51.3963C70.3961 51.5971 70.8923 51.9171 71.3279 52.3565C71.7673 52.7959 72.1139 53.3793 72.3677 54.1065C72.6253 54.83 72.756 55.7183 72.7598 56.7713C72.7598 57.7599 72.648 58.6425 72.4245 59.419C72.2048 60.1918 71.8885 60.849 71.4757 61.3906C71.0628 61.9323 70.5647 62.3452 69.9813 62.6293C69.398 62.9096 68.7465 63.0497 68.0268 63.0497C67.2503 63.0497 66.5647 62.9001 65.97 62.6009C65.3753 62.2978 64.8961 61.8868 64.5325 61.3679C64.1726 60.8452 63.9548 60.258 63.8791 59.6065H66.3052C66.3999 60.0308 66.5988 60.3603 66.9018 60.5952C67.2048 60.8262 67.5798 60.9418 68.0268 60.9418C68.7844 60.9418 69.3601 60.6122 69.7541 59.9531C70.148 59.2902 70.3469 58.383 70.3507 57.2315H70.2711C70.0969 57.5724 69.862 57.866 69.5666 58.1122C69.2711 58.3546 68.9321 58.5421 68.5495 58.6747C68.1707 58.8073 67.7673 58.8736 67.3393 58.8736C66.6537 58.8736 66.042 58.7126 65.5041 58.3906C64.9662 58.0687 64.542 57.6255 64.2313 57.0611C63.9207 56.4967 63.7654 55.8527 63.7654 55.1293C63.7616 54.349 63.9416 53.6539 64.3052 53.044C64.6688 52.4342 65.1764 51.9569 65.8279 51.6122C66.4832 51.2637 67.2446 51.0914 68.112 51.0952ZM68.1291 53.027C67.7465 53.027 67.4056 53.1179 67.1063 53.2997C66.8109 53.4815 66.576 53.7259 66.4018 54.0327C66.2313 54.3395 66.148 54.6823 66.1518 55.0611C66.1518 55.4437 66.2351 55.7884 66.4018 56.0952C66.5723 56.3982 66.8033 56.6406 67.095 56.8224C67.3904 57.0005 67.7276 57.0895 68.1063 57.0895C68.3904 57.0895 68.6537 57.0365 68.8961 56.9304C69.1385 56.8243 69.3488 56.6785 69.5268 56.4929C69.7086 56.3035 69.8507 56.0857 69.9529 55.8395C70.0552 55.5933 70.1063 55.3319 70.1063 55.0554C70.1026 54.688 70.0154 54.3509 69.845 54.044C69.6745 53.7372 69.4397 53.491 69.1404 53.3054C68.8412 53.1198 68.5041 53.027 68.1291 53.027ZM78.7143 63.0497C77.9113 63.0497 77.1954 62.902 76.5666 62.6065C75.9416 62.3111 75.4454 61.9039 75.0779 61.3849C74.7105 60.866 74.5192 60.2713 74.5041 59.6009H76.8904C76.917 60.0516 77.1063 60.4171 77.4586 60.6974C77.8109 60.9777 78.2295 61.1179 78.7143 61.1179C79.1007 61.1179 79.4416 61.0327 79.737 60.8622C80.0363 60.688 80.2692 60.4474 80.4359 60.1406C80.6063 59.83 80.6916 59.474 80.6916 59.0724C80.6916 58.6634 80.6045 58.3035 80.4302 57.9929C80.2598 57.6823 80.023 57.4399 79.72 57.2656C79.417 57.0914 79.0704 57.0024 78.6802 56.9986C78.3393 56.9986 78.0079 57.0687 77.6859 57.2088C77.3677 57.349 77.1196 57.5402 76.9416 57.7827L74.7541 57.3906L75.3052 51.2543H82.4188V53.2656H77.3336L77.0325 56.1804H77.1007C77.3052 55.8925 77.6139 55.6539 78.0268 55.4645C78.4397 55.2751 78.9018 55.1804 79.4132 55.1804C80.1139 55.1804 80.7389 55.3452 81.2882 55.6747C81.8374 56.0043 82.2711 56.4569 82.5893 57.0327C82.9075 57.6046 83.0647 58.2637 83.0609 59.0099C83.0647 59.794 82.8829 60.491 82.5154 61.1009C82.1518 61.7069 81.6423 62.1842 80.987 62.5327C80.3355 62.8774 79.5779 63.0497 78.7143 63.0497ZM89.3393 63.1463C88.362 63.1425 87.5211 62.902 86.8166 62.4247C86.1158 61.9474 85.576 61.2562 85.1973 60.3509C84.8223 59.4455 84.6366 58.3565 84.6404 57.0838C84.6404 55.8149 84.8279 54.7334 85.2029 53.8395C85.5817 52.9455 86.1215 52.2656 86.8223 51.7997C87.5268 51.33 88.3658 51.0952 89.3393 51.0952C90.3128 51.0952 91.1499 51.33 91.8507 51.7997C92.5552 52.2694 93.0969 52.9512 93.4757 53.8452C93.8545 54.7353 94.042 55.8149 94.0382 57.0838C94.0382 58.3603 93.8488 59.4512 93.47 60.3565C93.095 61.2618 92.5571 61.9531 91.8563 62.4304C91.1556 62.9077 90.3166 63.1463 89.3393 63.1463ZM89.3393 61.1065C90.006 61.1065 90.5382 60.7713 90.9359 60.1009C91.3336 59.4304 91.5306 58.4247 91.5268 57.0838C91.5268 56.2012 91.4359 55.4664 91.2541 54.8793C91.076 54.2921 90.8223 53.8509 90.4927 53.5554C90.167 53.2599 89.7825 53.1122 89.3393 53.1122C88.6764 53.1122 88.1461 53.4437 87.7484 54.1065C87.3507 54.7694 87.1499 55.7618 87.1461 57.0838C87.1461 57.9777 87.2351 58.724 87.4132 59.3224C87.595 59.9171 87.8507 60.3641 88.1802 60.6634C88.5098 60.9588 88.8961 61.1065 89.3393 61.1065Z" fill="black"/>
<path opacity="0.5" d="M28.0211 72.2852V70.8906H34.5914V72.2852H32.1422V78.8906H30.4703V72.2852H28.0211ZM37.483 79.0078C36.8763 79.0078 36.3515 78.8789 35.9088 78.6211C35.4687 78.3607 35.1289 77.9987 34.8893 77.5352C34.6497 77.069 34.5299 76.5286 34.5299 75.9141C34.5299 75.2943 34.6497 74.7526 34.8893 74.2891C35.1289 73.8229 35.4687 73.4609 35.9088 73.2031C36.3515 72.9427 36.8763 72.8125 37.483 72.8125C38.0898 72.8125 38.6132 72.9427 39.0533 73.2031C39.4961 73.4609 39.8372 73.8229 40.0768 74.2891C40.3164 74.7526 40.4362 75.2943 40.4362 75.9141C40.4362 76.5286 40.3164 77.069 40.0768 77.5352C39.8372 77.9987 39.4961 78.3607 39.0533 78.6211C38.6132 78.8789 38.0898 79.0078 37.483 79.0078ZM37.4908 77.7187C37.7669 77.7187 37.9974 77.6406 38.1823 77.4844C38.3671 77.3255 38.5065 77.1094 38.6002 76.8359C38.6966 76.5625 38.7448 76.2513 38.7448 75.9023C38.7448 75.5534 38.6966 75.2422 38.6002 74.9687C38.5065 74.6953 38.3671 74.4792 38.1823 74.3203C37.9974 74.1615 37.7669 74.082 37.4908 74.082C37.2122 74.082 36.9778 74.1615 36.7877 74.3203C36.6002 74.4792 36.4583 74.6953 36.3619 74.9687C36.2682 75.2422 36.2213 75.5534 36.2213 75.9023C36.2213 76.2513 36.2682 76.5625 36.3619 76.8359C36.4583 77.1094 36.6002 77.3255 36.7877 77.4844C36.9778 77.6406 37.2122 77.7187 37.4908 77.7187ZM43.2291 79.0039C42.8463 79.0039 42.5052 78.9375 42.2057 78.8047C41.9062 78.6693 41.6692 78.4701 41.4948 78.207C41.3229 77.9414 41.2369 77.6107 41.2369 77.2148C41.2369 76.8815 41.2981 76.6016 41.4205 76.375C41.5429 76.1484 41.7096 75.9661 41.9205 75.8281C42.1315 75.6901 42.3711 75.5859 42.6393 75.5156C42.9101 75.4453 43.194 75.3958 43.4908 75.3672C43.8398 75.3307 44.1211 75.2969 44.3346 75.2656C44.5481 75.2318 44.7031 75.1823 44.7994 75.1172C44.8958 75.0521 44.944 74.9557 44.944 74.8281V74.8047C44.944 74.5573 44.8658 74.3659 44.7096 74.2305C44.5559 74.0951 44.3372 74.0273 44.0533 74.0273C43.7539 74.0273 43.5156 74.0937 43.3385 74.2266C43.1614 74.3568 43.0442 74.5208 42.9869 74.7187L41.4479 74.5938C41.526 74.2292 41.6796 73.9141 41.9088 73.6484C42.138 73.3802 42.4336 73.1745 42.7955 73.0312C43.1601 72.8854 43.582 72.8125 44.0612 72.8125C44.3945 72.8125 44.7135 72.8516 45.0182 72.9297C45.3255 73.0078 45.5976 73.1289 45.8346 73.293C46.0742 73.457 46.263 73.668 46.401 73.9258C46.539 74.181 46.608 74.487 46.608 74.8437V78.8906H45.0299V78.0586H44.983C44.8867 78.2461 44.7578 78.4115 44.5963 78.5547C44.4349 78.6953 44.2408 78.806 44.0143 78.8867C43.7877 78.9648 43.526 79.0039 43.2291 79.0039ZM43.7057 77.8555C43.9505 77.8555 44.1666 77.8073 44.3541 77.7109C44.5416 77.612 44.6888 77.4792 44.7955 77.3125C44.9023 77.1458 44.9557 76.957 44.9557 76.7461V76.1094C44.9036 76.1432 44.832 76.1745 44.7408 76.2031C44.6523 76.2292 44.552 76.2539 44.4401 76.2773C44.3281 76.2982 44.2161 76.3177 44.1041 76.3359C43.9921 76.3516 43.8906 76.3659 43.7994 76.3789C43.6041 76.4076 43.4336 76.4531 43.2877 76.5156C43.1419 76.5781 43.0286 76.6628 42.9479 76.7695C42.8671 76.8737 42.8268 77.0039 42.8268 77.1602C42.8268 77.3867 42.9088 77.5599 43.0729 77.6797C43.2395 77.7969 43.4505 77.8555 43.7057 77.8555ZM49.5631 70.8906V78.8906H47.899V70.8906H49.5631ZM53.4733 78.8906V70.8906H58.8639V72.2852H55.1647V74.1914H58.5865V75.5859H55.1647V77.4961H58.8795V78.8906H53.4733ZM61.568 72.8906L62.6696 74.9883L63.7985 72.8906H65.5055L63.7672 75.8906L65.5524 78.8906H63.8531L62.6696 76.8164L61.5055 78.8906H59.7867L61.568 75.8906L59.8492 72.8906H61.568ZM66.4938 81.1406V72.8906H68.1344V73.8984H68.2086C68.2815 73.737 68.387 73.5729 68.525 73.4062C68.6656 73.237 68.8479 73.0964 69.0719 72.9844C69.2985 72.8698 69.5797 72.8125 69.9156 72.8125C70.3531 72.8125 70.7568 72.9271 71.1266 73.1563C71.4964 73.3828 71.792 73.7253 72.0133 74.1836C72.2347 74.6393 72.3453 75.2109 72.3453 75.8984C72.3453 76.5677 72.2373 77.1328 72.0211 77.5937C71.8076 78.0521 71.5159 78.3997 71.1461 78.6367C70.7789 78.8711 70.3675 78.9883 69.9117 78.9883C69.5888 78.9883 69.3141 78.9349 69.0875 78.8281C68.8636 78.7214 68.68 78.5872 68.5367 78.4258C68.3935 78.2617 68.2841 78.0964 68.2086 77.9297H68.1578V81.1406H66.4938ZM68.1227 75.8906C68.1227 76.2474 68.1722 76.5586 68.2711 76.8242C68.3701 77.0898 68.5133 77.2969 68.7008 77.4453C68.8883 77.5911 69.1162 77.6641 69.3844 77.6641C69.6552 77.6641 69.8844 77.5898 70.0719 77.4414C70.2594 77.2904 70.4013 77.082 70.4977 76.8164C70.5966 76.5482 70.6461 76.2396 70.6461 75.8906C70.6461 75.5443 70.5979 75.2396 70.5016 74.9766C70.4052 74.7135 70.2633 74.5078 70.0758 74.3594C69.8883 74.2109 69.6578 74.1367 69.3844 74.1367C69.1136 74.1367 68.8844 74.2083 68.6969 74.3516C68.512 74.4948 68.3701 74.6979 68.2711 74.9609C68.1722 75.224 68.1227 75.5339 68.1227 75.8906ZM76.1891 79.0078C75.5719 79.0078 75.0406 78.8828 74.5953 78.6328C74.1526 78.3802 73.8115 78.0234 73.5719 77.5625C73.3323 77.099 73.2125 76.5508 73.2125 75.918C73.2125 75.3008 73.3323 74.7591 73.5719 74.293C73.8115 73.8268 74.1487 73.4635 74.5836 73.2031C75.0211 72.9427 75.5341 72.8125 76.1227 72.8125C76.5185 72.8125 76.887 72.8763 77.2281 73.0039C77.5719 73.1289 77.8714 73.3177 78.1266 73.5703C78.3844 73.8229 78.5849 74.1406 78.7281 74.5234C78.8714 74.9036 78.943 75.349 78.943 75.8594V76.3164H73.8766V75.2852H77.3766C77.3766 75.0456 77.3245 74.8333 77.2203 74.6484C77.1162 74.4635 76.9716 74.319 76.7867 74.2148C76.6045 74.1081 76.3922 74.0547 76.15 74.0547C75.8974 74.0547 75.6735 74.1133 75.4781 74.2305C75.2854 74.3451 75.1344 74.5 75.025 74.6953C74.9156 74.888 74.8597 75.1029 74.8571 75.3398V76.3203C74.8571 76.6172 74.9117 76.8737 75.0211 77.0898C75.1331 77.306 75.2906 77.4727 75.4938 77.5898C75.6969 77.707 75.9378 77.7656 76.2164 77.7656C76.4013 77.7656 76.5706 77.7396 76.7242 77.6875C76.8779 77.6354 77.0094 77.5573 77.1188 77.4531C77.2281 77.349 77.3115 77.2214 77.3688 77.0703L78.9078 77.1719C78.8297 77.5417 78.6696 77.8646 78.4274 78.1406C78.1878 78.4141 77.8779 78.6276 77.4977 78.7813C77.1201 78.9323 76.6839 79.0078 76.1891 79.0078ZM81.693 75.4219V78.8906H80.0289V72.8906H81.6149V73.9492H81.6852C81.818 73.6003 82.0406 73.3242 82.3531 73.1211C82.6656 72.9154 83.0446 72.8125 83.4899 72.8125C83.9065 72.8125 84.2698 72.9036 84.5797 73.0859C84.8896 73.2682 85.1305 73.5286 85.3024 73.8672C85.4742 74.2031 85.5602 74.6042 85.5602 75.0703V78.8906H83.8961V75.3672C83.8987 75 83.805 74.7135 83.6149 74.5078C83.4248 74.2995 83.163 74.1953 82.8297 74.1953C82.6058 74.1953 82.4078 74.2435 82.236 74.3398C82.0667 74.4362 81.9339 74.5768 81.8375 74.7617C81.7438 74.944 81.6956 75.1641 81.693 75.4219ZM91.8639 74.6016L90.3405 74.6953C90.3144 74.5651 90.2584 74.4479 90.1725 74.3437C90.0865 74.237 89.9733 74.1523 89.8326 74.0898C89.6946 74.0247 89.5293 73.9922 89.3365 73.9922C89.0787 73.9922 88.8613 74.0469 88.6842 74.1562C88.5071 74.263 88.4186 74.4062 88.4186 74.5859C88.4186 74.7292 88.4759 74.8503 88.5905 74.9492C88.705 75.0482 88.9017 75.1276 89.1803 75.1875L90.2662 75.4062C90.8496 75.526 91.2845 75.7187 91.5709 75.9844C91.8574 76.25 92.0006 76.599 92.0006 77.0312C92.0006 77.4245 91.8847 77.7695 91.653 78.0664C91.4238 78.3633 91.1087 78.5951 90.7076 78.7617C90.3092 78.9258 89.8496 79.0078 89.3287 79.0078C88.5345 79.0078 87.9017 78.8424 87.4303 78.5117C86.9615 78.1784 86.6868 77.7253 86.6061 77.1523L88.2428 77.0664C88.2923 77.3086 88.4121 77.4935 88.6022 77.6211C88.7923 77.7461 89.0358 77.8086 89.3326 77.8086C89.6243 77.8086 89.8587 77.7526 90.0358 77.6406C90.2155 77.526 90.3066 77.3789 90.3092 77.1992C90.3066 77.0482 90.2428 76.9245 90.1178 76.8281C89.9928 76.7292 89.8001 76.6536 89.5397 76.6016L88.5006 76.3945C87.9147 76.2773 87.4785 76.0742 87.192 75.7852C86.9082 75.4961 86.7662 75.1276 86.7662 74.6797C86.7662 74.2943 86.8704 73.9622 87.0787 73.6836C87.2897 73.4049 87.5852 73.1901 87.9655 73.0391C88.3483 72.888 88.7962 72.8125 89.3092 72.8125C90.067 72.8125 90.6634 72.9727 91.0983 73.293C91.5358 73.6133 91.791 74.0495 91.8639 74.6016ZM95.7828 79.0078C95.1656 79.0078 94.6344 78.8828 94.1891 78.6328C93.7464 78.3802 93.4052 78.0234 93.1656 77.5625C92.9261 77.099 92.8063 76.5508 92.8063 75.918C92.8063 75.3008 92.9261 74.7591 93.1656 74.293C93.4052 73.8268 93.7425 73.4635 94.1774 73.2031C94.6149 72.9427 95.1279 72.8125 95.7164 72.8125C96.1123 72.8125 96.4808 72.8763 96.8219 73.0039C97.1656 73.1289 97.4651 73.3177 97.7203 73.5703C97.9781 73.8229 98.1787 74.1406 98.3219 74.5234C98.4651 74.9036 98.5367 75.349 98.5367 75.8594V76.3164H93.4703V75.2852H96.9703C96.9703 75.0456 96.9183 74.8333 96.8141 74.6484C96.7099 74.4635 96.5654 74.319 96.3805 74.2148C96.1982 74.1081 95.986 74.0547 95.7438 74.0547C95.4912 74.0547 95.2672 74.1133 95.0719 74.2305C94.8792 74.3451 94.7281 74.5 94.6188 74.6953C94.5094 74.888 94.4534 75.1029 94.4508 75.3398V76.3203C94.4508 76.6172 94.5055 76.8737 94.6149 77.0898C94.7268 77.306 94.8844 77.4727 95.0875 77.5898C95.2906 77.707 95.5315 77.7656 95.8102 77.7656C95.9951 77.7656 96.1643 77.7396 96.318 77.6875C96.4716 77.6354 96.6031 77.5573 96.7125 77.4531C96.8219 77.349 96.9052 77.2214 96.9625 77.0703L98.5016 77.1719C98.4235 77.5417 98.2633 77.8646 98.0211 78.1406C97.7815 78.4141 97.4716 78.6276 97.0914 78.7813C96.7138 78.9323 96.2776 79.0078 95.7828 79.0078Z" fill="black"/>
<path d="M40.5574 109.874C39.7554 111.479 40.4032 113.44 42.053 114.146C48.93 117.088 56.346 118.602 63.8488 118.582C72.4363 118.559 80.8993 116.526 88.5606 112.647C96.222 108.767 102.869 103.149 107.97 96.2403C113.071 89.332 116.485 81.3258 117.938 72.862C119.391 64.3983 118.843 55.7119 116.338 47.4978C113.833 39.2838 109.44 31.7699 103.512 25.5574C97.5828 19.3449 90.2823 14.6061 82.1942 11.7201C75.1278 9.19872 67.6314 8.15274 60.1668 8.63305C58.3761 8.74826 57.1113 10.3808 57.332 12.1616C57.5527 13.9424 59.1755 15.1956 60.967 15.0946C67.4235 14.7304 73.8993 15.6597 80.0105 17.8403C87.1435 20.3855 93.582 24.5647 98.8107 30.0436C104.039 35.5226 107.913 42.1492 110.123 49.3934C112.332 56.6375 112.815 64.2982 111.534 71.7625C110.252 79.2269 107.242 86.2878 102.743 92.3803C98.2441 98.4729 92.3818 103.428 85.6251 106.849C78.8684 110.271 71.4048 112.063 63.8312 112.084C57.3427 112.101 50.9278 110.818 44.9624 108.321C43.3072 107.628 41.3593 108.268 40.5574 109.874Z" fill="#F99963"/>
<path d="M55.6945 12.4748C55.3986 10.705 53.721 9.50051 51.9717 9.90031C42.0051 12.1782 32.8469 17.1939 25.5457 24.4114C17.4726 32.392 12.065 42.6738 10.064 53.8479C8.06305 65.022 9.56664 76.5415 14.3687 86.8276C18.7116 96.1302 25.5602 104.012 34.1171 109.607C35.6189 110.589 37.6102 110.042 38.5019 108.485C39.3936 106.927 38.8469 104.951 37.3529 103.957C29.9558 99.0368 24.0325 92.1665 20.2567 84.0787C16.0217 75.0072 14.6957 64.848 16.4603 54.9933C18.225 45.1387 22.9941 36.0709 30.1139 29.0327C36.4616 22.7578 44.4009 18.3699 53.0459 16.322C54.7919 15.9084 55.9904 14.2447 55.6945 12.4748Z" fill="#3353F4"/>
</svg>
