<svg width="87" height="78" viewBox="0 0 87 78" fill="none" xmlns="http://www.w3.org/2000/svg">
<path d="M66.4229 20.8327V67.2916L46.0464 77.0381H0.0292969V0.456177H46.0464L51.1405 15.7386L66.4229 20.8327Z" fill="#9ABADB"/>
<path d="M49.6476 0.456177H46.0459V20.8327H66.4225V17.2536L49.6476 0.456177Z" fill="#E0F4FF"/>
<path d="M66.4229 25.9269C59.3932 25.9269 53.6875 31.6326 53.6875 38.6622C53.6875 45.6919 59.3932 51.3976 66.4229 51.3976C73.4525 51.3976 79.1582 45.6919 79.1582 38.6622C79.1582 31.6326 73.4525 25.9269 66.4229 25.9269Z" fill="#FFCEBF"/>
<path d="M79.1582 38.6622C79.1582 45.6919 73.4525 51.3976 66.4229 51.3976V25.9269C73.4525 25.9269 79.1582 31.6326 79.1582 38.6622Z" fill="#FFB99C"/>
<path d="M86.9688 71.7742V77.0381H46.0459V71.7742C46.0459 61.4327 53.8403 52.9259 63.8754 51.6523L66.4225 56.4918L68.9695 51.6523C79.0046 52.9259 86.9688 61.4327 86.9688 71.7742Z" fill="#575F64"/>
<path d="M10.2168 25.9269H51.1397V31.021H10.2168V25.9269Z" fill="#BBDCFF"/>
<path d="M10.2168 36.1151H46.0456V41.2093H10.2168V36.1151Z" fill="#BBDCFF"/>
<path d="M10.2168 46.3035H46.0456V51.3976H10.2168V46.3035Z" fill="#BBDCFF"/>
<path d="M10.2168 56.4917H40.9515V61.5858H10.2168V56.4917Z" fill="#BBDCFF"/>
<path d="M20.4053 15.7386H35.8575V20.8328H20.4053V15.7386Z" fill="#BBDCFF"/>
</svg>
