<svg width="18" height="13" viewBox="0 0 18 13" fill="none" xmlns="http://www.w3.org/2000/svg">
<path d="M11.6931 5.27685C12.8741 5.27685 13.8315 4.31945 13.8315 3.13843C13.8315 1.95742 12.8741 1.00002 11.6931 1.00002C10.5121 1.00002 9.55469 1.95742 9.55469 3.13843C9.55469 4.31945 10.5121 5.27685 11.6931 5.27685Z" stroke="#878A9A" stroke-width="1.60381" stroke-linecap="round" stroke-linejoin="round"/>
<path d="M1 3.13854H9.01904M13.8305 3.13854H17.0381" stroke="#878A9A" stroke-width="1.60381" stroke-linecap="round" stroke-linejoin="round"/>
<path d="M5.22105 11.5585C6.3873 11.5585 7.33273 10.6131 7.33273 9.44684C7.33273 8.28059 6.3873 7.33516 5.22105 7.33516C4.05481 7.33516 3.10938 8.28059 3.10938 9.44684C3.10938 10.6131 4.05481 11.5585 5.22105 11.5585Z" stroke="#878A9A" stroke-width="1.60381" stroke-linecap="round" stroke-linejoin="round"/>
<path d="M1 9.5537H3.00476M7.41523 9.5537H17.0381" stroke="#878A9A" stroke-width="1.60381" stroke-linecap="round" stroke-linejoin="round"/>
</svg>
