<svg id="Layer_1" enable-background="new 0 0 27 27" height="27" viewBox="0 0 27 27" width="27" xmlns="http://www.w3.org/2000/svg"><g><circle cx="8.608" cy="7.386" fill="#50aaff" r="4.136"/><circle cx="18.701" cy="8.141" fill="#50aaff" r="3.945"/><path d="m14.074 14.339c-.674-.616-1.563-1.001-2.547-1.001h-5.838c-2.09 0-3.785 1.694-3.785 3.784v6.628h10.402v-6.322c.001-1.318.714-2.459 1.768-3.089z" fill="#d2e6ff"/><path d="m21.486 13.818h-5.57c-.676 0-1.301.197-1.842.521.756.692 1.238 1.677 1.238 2.783v6.628h9.783v-6.322c.001-1.994-1.616-3.61-3.609-3.61z" fill="#d2e6ff"/><path d="m14.074 14.339c-1.055.63-1.768 1.771-1.768 3.089v6.322h3.006v-6.628c.001-1.106-.482-2.091-1.238-2.783z" fill="#1464ff"/></g></svg>