<svg width="98" height="98" viewBox="0 0 98 98" fill="none" xmlns="http://www.w3.org/2000/svg">
<path d="M49.0012 97.2995C73.7711 97.2995 93.851 77.2196 93.851 52.4497C93.851 27.6798 73.7711 7.59985 49.0012 7.59985C24.2313 7.59985 4.15137 27.6798 4.15137 52.4497C4.15137 77.2196 24.2313 97.2995 49.0012 97.2995Z" fill="#FAB400"/>
<path d="M21.4013 47.2744C14.3046 47.2744 8.04291 50.8452 4.31348 56.2892C5.4399 69.5665 12.3485 81.1947 22.5122 88.6449C33.4279 88.0671 42.1012 79.0333 42.1012 67.9743C42.1012 56.5428 32.8328 47.2744 21.4013 47.2744Z" fill="#DC9600"/>
<path d="M69.6987 23.1247C69.6987 18.4982 68.1807 14.2272 65.6156 10.7789C60.4769 8.72788 54.8689 7.59973 48.9987 7.59973C43.1286 7.59973 37.5206 8.72788 32.3819 10.7789C29.8168 14.2272 28.2988 18.4982 28.2988 23.1247C28.2988 34.5562 37.5672 43.8246 48.9987 43.8246C60.4303 43.8246 69.6987 34.5562 69.6987 23.1247Z" fill="#DC9600"/>
<path d="M93.6871 56.2891C89.9577 50.845 83.696 47.2743 76.5993 47.2743C65.1678 47.2743 55.8994 56.5427 55.8994 67.9742C55.8994 79.0331 64.5727 88.0669 75.4884 88.6448C85.6521 81.1928 92.5607 69.5647 93.6871 56.2891Z" fill="#DC9600"/>
<path d="M21.3991 86.9494C32.8314 86.9494 42.0991 77.6817 42.0991 66.2495C42.0991 54.8172 32.8314 45.5496 21.3991 45.5496C9.96689 45.5496 0.699219 54.8172 0.699219 66.2495C0.699219 77.6817 9.96689 86.9494 21.3991 86.9494Z" fill="#C80A50"/>
<path d="M35.1995 78.3251C35.1995 75.4668 32.8828 73.1501 30.0245 73.1501H12.7746C9.91628 73.1501 7.59961 75.4668 7.59961 78.3251V81.6768C11.2618 84.956 16.0969 86.9501 21.3996 86.9501C26.7022 86.9501 31.5373 84.956 35.1995 81.6768V78.3251Z" fill="#F0F0F0"/>
<path d="M14.4961 73.1501C14.4961 76.9607 17.5856 80.0501 21.3961 80.0501C25.2066 80.0501 28.296 76.9607 28.296 73.1501H14.4961Z" fill="#D2D2D2"/>
<path d="M21.4031 76.6002C19.497 76.6002 17.9531 75.0563 17.9531 73.1502V67.9752H24.8531V73.1502C24.8531 75.0563 23.3092 76.6002 21.4031 76.6002Z" fill="#D2AA82"/>
<path d="M23.1211 69.7001H19.6711C16.8128 69.7001 14.4961 67.3834 14.4961 64.5251V59.3501C14.4961 57.444 16.04 55.9001 17.9461 55.9001H24.8461C26.7522 55.9001 28.296 57.444 28.296 59.3501V64.5251C28.296 67.3834 25.9794 69.7001 23.1211 69.7001Z" fill="#F0C8A0"/>
<path d="M24.8461 55.9005H17.9461C16.04 55.9005 14.4961 57.4444 14.4961 59.3505V55.9005C14.4961 53.9944 16.04 52.4506 17.9461 52.4506H24.8461C26.7522 52.4506 28.296 53.9944 28.296 55.9005V59.3505C28.296 57.4444 26.7522 55.9005 24.8461 55.9005Z" fill="#0A5078"/>
<path d="M76.6003 86.9494C88.0326 86.9494 97.3002 77.6817 97.3002 66.2495C97.3002 54.8172 88.0326 45.5496 76.6003 45.5496C65.1681 45.5496 55.9004 54.8172 55.9004 66.2495C55.9004 77.6817 65.1681 86.9494 76.6003 86.9494Z" fill="#0A5078"/>
<path d="M90.3997 78.325C90.3997 75.4667 88.083 73.15 85.2247 73.15H67.9748C65.1165 73.15 62.7998 75.4667 62.7998 78.325V81.6767C66.462 84.9559 71.2971 86.95 76.5997 86.95C81.9024 86.95 86.7375 84.9559 90.3997 81.6767V78.325Z" fill="#00A0C8"/>
<path d="M69.6982 73.1503C69.6982 76.9608 72.7877 80.0502 76.5982 80.0502C80.4087 80.0502 83.4982 76.9608 83.4982 73.1503H69.6982Z" fill="#0082AA"/>
<path d="M76.6004 76.6001C74.6943 76.6001 73.1504 75.0562 73.1504 73.1501V67.9751H80.0504V73.1501C80.0504 75.0562 78.5065 76.6001 76.6004 76.6001Z" fill="#D2AA82"/>
<path d="M78.3232 69.7001H74.8732C72.0149 69.7001 69.6982 67.3834 69.6982 64.5251V59.3501C69.6982 57.444 71.2421 55.9001 73.1482 55.9001H80.0482C81.9543 55.9001 83.4982 57.444 83.4982 59.3501V64.5251C83.4982 67.3834 81.1815 69.7001 78.3232 69.7001Z" fill="#F0C8A0"/>
<path d="M80.0482 55.9003H73.1482C71.2421 55.9003 69.6982 57.4442 69.6982 59.3503V55.9003C69.6982 53.9942 71.2421 52.4503 73.1482 52.4503H80.0482C81.9543 52.4503 83.4982 53.9942 83.4982 55.9003V59.3503C83.4982 57.4442 81.9543 55.9003 80.0482 55.9003Z" fill="#DC9600"/>
<path d="M48.9968 42.0999C60.429 42.0999 69.6967 32.8322 69.6967 21.4C69.6967 9.96774 60.429 0.700073 48.9968 0.700073C37.5645 0.700073 28.2969 9.96774 28.2969 21.4C28.2969 32.8322 37.5645 42.0999 48.9968 42.0999Z" fill="#00A0C8"/>
<path d="M50.7214 4.15051H47.2715C42.5087 4.15051 38.6465 8.01277 38.6465 12.7755V30.0254C38.6465 30.9776 39.4193 31.7504 40.3715 31.7504H57.6214C58.5736 31.7504 59.3464 30.9776 59.3464 30.0254V12.7755C59.3464 8.01277 55.4841 4.15051 50.7214 4.15051Z" fill="#0A5078"/>
<path d="M55.8991 28.3003H42.0992C38.2887 28.3003 35.1992 31.3898 35.1992 35.2003V36.8269C38.8614 40.1061 43.6965 42.1002 48.9992 42.1002C54.3018 42.1002 59.1369 40.1061 62.7991 36.8269V35.2003C62.7991 31.3898 59.7096 28.3003 55.8991 28.3003Z" fill="#C80A50"/>
<path d="M42.1006 28.3003C42.1006 32.1108 45.19 35.2003 49.0006 35.2003C52.8111 35.2003 55.9005 32.1108 55.9005 28.3003H42.1006Z" fill="#A00028"/>
<path d="M48.9969 31.7503C47.0907 31.7503 45.5469 30.2065 45.5469 28.3003V23.1254H52.4468V28.3003C52.4468 30.2065 50.903 31.7503 48.9969 31.7503Z" fill="#D2AA82"/>
<path d="M50.7256 24.8504H47.2756C44.4173 24.8504 42.1006 22.5337 42.1006 19.6754V14.5004C42.1006 12.5943 43.6445 11.0504 45.5506 11.0504H47.2756C47.2756 12.9565 48.8194 14.5004 50.7256 14.5004H55.9005V19.6754C55.9005 22.5337 53.5839 24.8504 50.7256 24.8504Z" fill="#F0C8A0"/>
</svg>
