<svg height="512" viewBox="0 0 110 110" width="512" xmlns="http://www.w3.org/2000/svg"><g id="_25._Help" data-name="25. Help"><circle cx="54" cy="59" fill="#e7efff" r="50"/><circle cx="18" cy="4" fill="#ffa100" r="3"/><circle cx="106" cy="37" fill="#00c99f" r="3"/><circle cx="100" cy="102" fill="#ff4d69" r="3"/><circle cx="4" cy="97" fill="#00c99f" r="3"/><path d="m87 5a15.07 15.07 0 0 0 -13.86 20.75c.83 2 .45 3.05-.13 7.11a1 1 0 0 0 .99 1.14c.11 0 4.15-.58 4-.57 3.09-.44 4.11 1.69 9.33 1.57a15 15 0 0 0 -.33-30z" fill="#ff4d69"/><path d="m87 23a2.18 2.18 0 0 1 -2.17-2l-.58-7a2.76 2.76 0 1 1 5.5 0l-.58 7a2.18 2.18 0 0 1 -2.17 2z" fill="#fff"/><circle cx="87" cy="27" fill="#fff" r="2"/><path d="m104.15 68.21a50 50 0 0 1 -96.34 7.32 47.85 47.85 0 0 1 40.43-10.53c24.02 4.62 42.92 10.94 55.91 3.21z" fill="#323fd4"/><g fill="#a5bced"><path d="m71 55h-8v-18a4 4 0 0 1 8 0z"/><path d="m63 56h-8v-24a4 4 0 0 1 8 0z"/><path d="m47 61h-8v-29a4 4 0 0 1 8 0z"/><path d="m55 55h-8v-28a4 4 0 0 1 8 0z"/><path d="m71 55v10.63a11.08 11.08 0 0 1 -1.87 6.17 11.15 11.15 0 0 0 -1.84 7l.71 9.2h-29l1-16-14.07-15.83a3.07 3.07 0 0 1 .12-4.17 7 7 0 0 1 9.95 0l3 3z"/></g><path d="m55 27v23a1 1 0 0 1 -2 0v-24a3 3 0 0 0 -2.54-3 4 4 0 0 1 4.54 4z" fill="#7f96d1"/><path d="m47 32v18a1 1 0 0 1 -2 0v-19a3 3 0 0 0 -2.54-3 4 4 0 0 1 4.54 4z" fill="#7f96d1"/><path d="m63 32v19a1 1 0 0 1 -2 0v-20a3 3 0 0 0 -2.54-3 4 4 0 0 1 4.54 4z" fill="#7f96d1"/><path d="m53.92 67.5v2.5a1 1 0 0 1 -2 0v-2.5a9 9 0 0 0 -9-9 1 1 0 0 1 -.71-.29l-3.21-3.21v-2.82l4.34 4.33a11 11 0 0 1 10.58 10.99z" fill="#7f96d1"/><path d="m99.8 81.21c-16.84 33.9-63.7 37.53-85.59 6.7 2.27-1 22.62-9.56 45.24-3.91 21.97 5.49 33.89 1.57 40.35-2.79z" fill="#4e6aff"/></g></svg>