<svg id="Layer_1" height="512" viewBox="0 0 60 60" width="512" xmlns="http://www.w3.org/2000/svg"><g><path d="m50.74 22.71h-11.65v8.29c0 3.73-3.04 6.77-6.77 6.77h-5.32v3.3c0 2.35 1.91 4.26 4.26 4.26h12.82l4.49 4.49c.19.19.44.29.7.29.13 0 .26-.03.39-.08.37-.15.61-.52.61-.92v-3.78h.47c2.35 0 4.26-1.91 4.26-4.26v-14.1c0-2.35-1.91-4.26-4.26-4.26zm-2.93 8.43h-2.7v6.76c0 .55-.45 1-1 1s-1-.45-1-1v-6.76h-2.7c-.56 0-1-.45-1-1 0-.56.44-1 1-1h7.4c.56 0 1 .44 1 1 0 .55-.44 1-1 1z" fill="#40444f"/><g fill="#2b79c3"><path d="m20.53 17.02 2.21 1.66h-1.86z"/><path d="m32.32 9.89h-22.55c-2.63 0-4.77 2.16-4.77 4.79v16.32c0 2.63 2.14 4.77 4.77 4.77h.7v4.53c0 .41.24.77.61.93.13.05.26.07.39.07.26 0 .51-.1.7-.29l5.25-5.24h14.9c2.63 0 4.77-2.14 4.77-4.77v-16.32c0-2.63-2.14-4.79-4.77-4.79zm-5.96 10.79v9.42c0 .55-.44 1-1 1-.55 0-1-.45-1-1v-9.42h-4.95v2.27c0 .55-.45 1-1 1-1.42 0-2.58 1.15-2.58 2.57s1.16 2.58 2.58 2.58 2.57-1.16 2.57-2.58c0-.55.45-1 1-1 .56 0 1 .45 1 1 0 2.53-2.05 4.58-4.57 4.58s-4.58-2.05-4.58-4.58c0-2.18 1.53-4 3.58-4.46v-1.38h-3.89c-.55 0-1-.45-1-1s.45-1 1-1h5.31l-.46-2.22c-.02-.07-.02-.14-.02-.21 0-.66.37-1.25.98-1.52.6-.28 1.29-.18 1.79.25l4.97 3.7h2.48c.55 0 1 .45 1 1s-.45 1-1 1z"/></g></g></svg>