<svg width="547" height="481" viewBox="0 0 547 481" fill="none" xmlns="http://www.w3.org/2000/svg">
<path d="M66.0541 476.328C66.0541 413.815 78.3672 351.913 102.29 294.158C126.213 236.402 161.278 183.924 205.482 139.721C249.686 95.5165 302.163 60.452 359.919 36.529C417.674 12.606 479.576 0.292966 542.09 0.292969L542.09 476.328H66.0541Z" fill="white"/>
<g clip-path="url(#clip0_4244_1592)">
<path d="M555.61 355.484C556.912 349.375 556.12 337.774 556.12 331.243V282.094C556.736 282.956 556.085 331.173 556.085 337.053C556.085 340.433 555.434 348.301 556.419 351.171C556.49 351.382 556.56 351.576 556.648 351.769L557.088 548.122L557 612.692C557.018 625.173 556.684 637.795 557.599 650.258C550.417 650.663 543.199 650.452 536.017 650.575C515.385 650.927 494.771 651.015 474.14 650.857L327.236 650.839L-113.737 650.857C-113.649 646.562 -113.456 642.249 -113.438 637.936C-113.42 633.869 -113.931 628.905 -113.051 624.944C-112.998 627.18 -113.456 630.877 -112.663 632.901C-112.012 632.109 -112.083 630.63 -111.995 629.627C-111.66 633.341 -111.907 637.196 -111.713 640.946L301.183 640.717L467.573 640.999H520.684C531.017 640.999 541.58 641.457 551.878 640.594C553.004 639.555 553.885 638.534 554.747 637.267C555.803 627.55 555.222 617.357 555.24 607.587L555.346 554.881L555.557 429.138C555.504 404.581 555.31 380.023 555.61 355.484Z" fill="url(#paint0_linear_4244_1592)"/>
<path d="M316.762 113.687C325.705 112.208 339.612 115.5 347.868 119.021C347.956 118.933 348.027 118.845 348.115 118.739C348.643 118.123 349.048 117.489 349.857 117.208C350.386 117.032 350.28 117.137 350.826 117.437C351.459 118.775 351.354 120.06 351.354 121.503C357.075 126.96 361.793 132.963 366.035 139.635C368.852 137.91 371.95 137.135 375.224 136.854C382.442 136.22 389.272 137.699 394.853 142.504C401.032 147.821 404.323 156.253 403.954 164.351C403.813 167.308 403.074 170.248 403.003 173.188C402.933 176.321 403.971 179.525 404.2 182.676C404.623 188.661 401.736 194.893 397.792 199.294C396.437 200.808 394.571 202.938 392.476 203.026L391.895 202.357C391.578 200.667 392.212 199.083 392.67 197.463C390.487 200.878 387.934 203.994 385.012 206.811C383.692 208.061 381.579 210.173 379.643 209.997C378.516 209.892 379.273 204.082 379.185 202.832C378.939 199.717 375.647 195.791 373.887 193.291C372.091 201.125 367.866 207.163 363.412 213.676C365.014 218.077 366.916 222.32 368.57 226.668C370.436 231.579 371.545 237.16 374.344 241.631C382.583 254.816 411.682 267.473 425.624 275.501C431.574 278.863 437.19 282.736 442.471 287.084C448.703 292.259 454.371 298.245 458.473 305.286C470.073 325.231 474.316 360.615 476.393 383.746C479.069 413.514 481.076 445.201 470.056 473.613C468.278 478.208 466.43 483.137 463.19 486.922C458.473 492.467 451.924 492.59 445.217 493.171C439.989 504.173 449.178 500.283 451.202 507.923C452.241 511.831 451.29 517.904 449.107 521.266C446.608 525.122 443.333 523.713 439.584 524.523C437.507 529.505 434.162 534.223 432.754 539.434C431.944 542.444 432.63 545.929 432.049 549.045C430.465 557.46 426.997 565.276 423.67 573.109C432.947 572.74 518.66 572.634 520.737 573.532C521.001 574.395 520.948 574.518 520.702 575.398C519.857 576.12 519.117 576.032 518.044 576.102C509.629 576.613 500.915 576.155 492.465 576.173C469.052 576.19 445.481 575.609 422.086 576.366C416.734 585.397 410.942 593.424 402.405 599.726C380.787 615.658 348.414 619.601 322.431 615.57C322.378 617.471 322.431 619.478 321.92 621.326C320.864 625.217 318.576 628.72 314.932 630.638C310.408 632.997 302.257 632.047 297.258 631.131C290.269 629.864 281.08 625.129 273.457 623.016C264.303 620.481 254.938 619.038 245.696 616.908C238.32 615.2 231.085 612.894 223.868 610.641C212.953 613.352 202.074 617.876 190.896 619.284C184.91 620.041 176.883 617.753 172.5 618.756C163.522 620.816 155.653 627.875 146.358 628.913C138.278 629.811 124.635 626.026 115.552 625.533C86.2943 623.949 63.6207 635.391 37.3911 614.267C31.3354 609.426 24.9981 601.698 24.2939 593.706C23.7306 587.263 27.269 580.89 31.353 576.173L-20.2435 576.208H-53.3562C-57.7219 576.225 -66.4534 576.93 -70.467 575.908C-71.4176 575.662 -71.8225 575.504 -72.333 574.659C-71.7697 573.743 -71.0655 573.55 -70.0093 573.374C-64.4993 572.423 -55.8207 573.18 -49.9058 573.198L7.00705 573.286C15.8265 573.25 26.3888 573.814 35.0498 572.74C36.5637 572.546 38.0249 571.912 39.4156 571.367C35.666 568.48 31.441 566.068 27.5154 563.392C17.1468 556.315 6.02125 548.605 -2.86864 539.733C-11.3184 531.318 -18.8352 519.489 -18.7648 507.184C-18.712 497.449 -14.3287 488.805 -7.46323 482.063C-3.48478 478.173 1.21543 474.933 6.58457 473.314C20.0338 469.265 54.4139 473.208 69.4827 473.437L42.4258 407.018C38.6058 397.53 34.0112 387.971 30.8777 378.236C30.4552 376.933 29.9799 375.243 30.4024 373.888C31.0538 371.846 33.1134 369.188 35.085 368.272C37.9016 366.952 139.37 359.083 150.319 358.714C151.868 358.661 153.277 358.749 154.755 359.277C156.973 360.069 158.628 361.425 159.896 363.396C163.804 369.417 166.99 379.275 169.789 386.14C175.105 399.061 180.333 412.035 185.474 425.027C188.854 433.635 191.987 442.49 195.825 450.887C197.392 450.165 198.817 449.584 200.525 449.232C201.845 446.679 203.254 445.13 205.912 443.88C214.133 440.025 227.336 446.451 235.328 449.32C241.436 445.87 253.459 436.628 257.156 430.537C258.036 429.093 258.494 427.174 259.005 425.555C256.311 425.502 253.706 425.308 251.03 424.921C252.333 416.014 254.128 407.353 254.762 398.322C255.766 383.623 256.294 368.888 257.139 354.189C257.984 339.631 258.265 323.7 263.071 309.793C264.849 304.652 267.437 299.565 271.116 295.499C280.622 285.007 295.427 278.124 307.732 271.505C312.062 269.181 316.287 266.611 320.723 264.463C319.72 260.731 318.805 256.982 317.96 253.197C313.682 255.855 308.946 258.161 303.771 256.858C297.17 255.204 287.769 241.332 284.055 235.575C282.77 233.586 281.625 231.034 280.112 229.256C278.668 227.548 276.186 227.442 275.253 225.136C273.845 221.668 276.732 214.416 274.918 209.258C272.876 203.431 268.739 199.488 265.588 194.383C261.187 187.236 262.032 177.641 263.951 169.843C262.385 171.234 260.835 172.607 259.709 174.402C252.421 186.056 265.536 205.262 268.035 217.496C269.18 223.094 268.704 228.27 265.412 233.093C264.022 235.135 260.8 239.255 258.23 239.571C257.632 239.642 257.843 239.677 257.367 239.272C258.019 234.466 260.783 230.083 261.029 225.136C261.416 217.356 254.04 209.504 250.836 202.78C250.185 201.424 249.604 200.051 249.076 198.643C248.548 197.234 248.108 195.809 247.721 194.365C247.333 192.922 247.016 191.46 246.752 189.982C246.488 188.503 246.312 187.024 246.207 185.528C245.573 177.765 246.84 167.537 252.984 161.974C255.079 160.073 258.124 158.911 259.955 156.781L258.864 156.464L258.582 155.848C259.497 149.687 264.004 143.279 267.947 138.544C280.076 123.95 297.997 115.395 316.762 113.687Z" fill="black"/>
<path d="M198.975 452.445C199.239 452.551 199.503 452.797 199.731 452.956C199.837 454.892 199.221 456.934 198.605 458.747C197.813 457.322 196.88 455.667 196.968 454.012C197.478 452.938 197.901 452.938 198.975 452.445Z" fill="#FEFEFE"/>
<path d="M353.959 193.328C354.082 193.434 354.153 193.504 354.258 193.68C354.769 194.472 356.811 205.51 356.582 206.408L355.702 205.263C354.065 202.799 352.287 200.51 350.438 198.204C351.917 196.673 353.044 195.247 353.959 193.328Z" fill="#FEFEFE"/>
<path d="M288.95 466.721C292.295 466.51 301.22 466.422 304.142 467.848C304.705 468.129 304.529 467.953 304.723 468.534L303.332 469.062C302.593 469.397 301.765 469.784 300.92 469.784C297.857 469.802 290.64 468.781 287.33 468.358L287.154 468.112L288.95 466.721Z" fill="#FEFEFE"/>
<path d="M375.383 179.605C375.648 179.834 375.859 180.116 376.035 180.433C377.637 183.267 381.756 195.343 380.893 198.529C379.168 195.625 376.968 193.09 375.243 190.203C375.419 186.629 374.926 183.197 375.383 179.605Z" fill="#FEFEFE"/>
<path d="M262.244 425.862C267.894 425.897 273.528 425.651 279.178 425.88C279.566 427.059 280.076 428.291 280.111 429.541L279.618 429.893L278.034 429.383C271.679 428.186 266.24 428.309 259.955 429.788C260.835 428.503 261.557 427.27 262.244 425.862Z" fill="#FEFEFE"/>
<path d="M276.661 147.129C281.22 147.393 284.424 149.453 287.822 152.287C281.379 152.164 275.482 152.692 269.18 154.012C266.24 154.804 263.441 155.737 260.606 156.881C260.677 156.776 260.765 156.653 260.835 156.547C264.99 150.967 269.831 148.062 276.661 147.129Z" fill="#FEFEFE"/>
<path d="M285.744 480.539L286.395 480.61L286.114 481.155C280.128 484.588 271.714 484.57 265.042 485.908L213.392 496.013L212.636 495.837C212.178 495.045 212.107 494.851 212.107 493.953C212.864 493.108 213.445 493.055 214.554 492.826C221.825 491.242 229.377 490.327 236.735 489.059L285.744 480.539Z" fill="#FEFEFE"/>
<path d="M377.003 169.812C379.169 171.995 387.83 183.843 389.519 186.712C390.276 188.015 390.875 189.423 391.139 190.902C391.755 194.423 389.625 196.746 387.706 199.422L384.098 203.911C384.274 200.513 384.238 197.274 383.517 193.93C381.897 186.413 376.546 177.382 377.003 169.812Z" fill="#FEFEFE"/>
<path d="M291.589 154.408C294.652 154.215 297.961 154.655 300.901 155.517C303.894 156.398 306.64 157.788 309.21 159.549C315.565 163.862 320.97 169.6 326.761 174.618C328.786 176.36 331.233 177.663 333.204 179.423C333.521 179.705 333.662 180.022 333.855 180.374C331.849 179.775 329.842 178.684 327.941 177.804C317.695 173.139 308.929 167.171 299.792 160.711C297.099 158.809 293.807 156.873 291.589 154.408Z" fill="#FEFEFE"/>
<path d="M265.218 343.347C265.271 342.362 265.552 341.904 266.028 341.077L266.52 340.777C267.524 341.235 268.017 342.362 268.404 343.347C270.147 347.819 269.619 364.19 272.101 366.514L272.435 366.373C272.594 370.07 272.154 373.943 272.048 377.657C271.89 383.537 272.242 389.716 273.087 395.543C269.724 388.642 267.172 380.967 266.204 373.327C265.535 368.01 266.485 346.041 265.904 344.509C265.763 344.087 265.447 343.735 265.218 343.347Z" fill="#F3A73D"/>
<path d="M447.84 455.664C442.63 450.33 436.292 445.982 428.723 444.908C427.737 444.767 425.607 444.803 425.325 443.711C426.874 441.968 431.803 441.106 434.092 440.947C440.13 440.49 446.344 443.042 450.798 447.056C454.371 450.26 457.399 454.925 457.593 459.819C457.663 461.755 457.382 463.691 457.452 465.61C453.28 463.674 453.368 457.882 449.724 455.523C449.178 455.136 448.439 455.506 447.84 455.664Z" fill="#F3A73D"/>
<path d="M374.994 139.727C376.931 139.446 379.131 139.463 381.068 139.622C381.754 139.675 382.441 139.763 383.127 139.886C383.814 140.009 384.483 140.167 385.152 140.343C385.821 140.537 386.472 140.748 387.106 141.012C387.74 141.259 388.373 141.558 388.989 141.875C389.606 142.192 390.204 142.544 390.785 142.914C391.366 143.283 391.929 143.688 392.457 144.128C393.003 144.568 393.514 145.026 394.006 145.501C394.499 145.977 394.975 146.487 395.415 147.015C400.942 153.687 401.47 161.574 400.713 169.847C399.763 168.369 398.759 166.925 397.774 165.464C392.792 158.563 384.289 154.655 377.459 149.902C373.921 147.438 370.664 144.621 367.407 141.787C369.942 140.713 372.283 140.062 374.994 139.727Z" fill="#FEFEFE"/>
<path d="M373.621 150.977C373.762 151.047 373.92 151.117 374.061 151.205C384.729 157.103 396.471 164.25 400.273 176.537C402.28 183.015 401.277 188.226 398.196 194.123C397.404 195.426 396.559 196.605 395.573 197.785C394.218 182.258 384.659 178.967 378.533 166.556C376.086 161.592 376.209 155.976 373.621 150.977Z" fill="#FEFEFE"/>
<path d="M277.947 155.243C280.482 154.961 283.122 155.085 285.675 155.12C279.513 157.32 273.81 160.524 268.212 163.851C264.497 166.052 260.695 168.34 258.037 171.826C245.89 187.687 269.69 210.043 265.025 227.894L264.902 228.334C264.515 229.055 264.321 229.654 263.6 230.094C263.001 228.598 263.899 226.098 263.811 224.408C263.705 222.208 263.107 219.954 262.297 217.912C257.72 206.294 250.89 201.523 249.094 187.458C248.196 180.381 248.777 172.002 253.354 166.175C259.199 158.746 269.057 156.334 277.947 155.243Z" fill="#FEFEFE"/>
<path d="M457.452 465.567C457.716 465.532 458.068 465.479 458.314 465.409C459.194 465.144 459.406 464.916 459.811 464.071C461.148 461.289 459.723 455.938 458.631 453.174C456.272 447.224 450.85 442.647 445.059 440.182C439.918 437.999 432.085 436.996 426.892 439.443C424.85 440.411 423.142 442.013 421.047 442.858L420.713 442.348C420.695 441.327 420.642 440.288 421.153 439.373C421.874 438.035 423.406 437.401 424.779 437.014C429.673 435.641 434.003 435.887 438.968 436.574C448.703 437.911 456.976 440.939 463.719 448.421C465.743 450.674 468.014 455.533 470.478 456.906C471.024 457.205 471.429 457.452 471.887 457.892C472.362 461.43 465.602 478.523 463.578 481.886C460.62 486.797 457.1 488.575 451.713 489.878C453.913 486.111 455.867 482.185 456.29 477.766C457.047 469.704 452.699 461.729 447.805 455.674C448.421 455.533 449.143 455.146 449.706 455.498C453.368 457.839 453.28 463.631 457.452 465.567Z" fill="#FEFEFE"/>
<path d="M260.747 472.084C262.173 471.943 263.616 471.679 265.025 472.031C265.676 472.488 265.975 472.788 266.292 473.492C266.679 474.407 267.155 475.235 267.665 476.097C270.147 476.185 272.471 476.115 274.883 475.411C278.879 474.231 282.065 471.661 286.466 472.172C289.441 472.506 292.31 473.721 295.109 474.742C288.402 477.646 281.15 478.544 274.002 479.864C263.247 481.836 252.455 483.702 241.647 485.427C231.63 487.346 221.578 489.106 211.509 490.673C210.365 487.293 209.168 483.931 207.9 480.604C220.663 478.403 233.479 476.713 246.259 474.671C251.1 473.914 255.906 472.84 260.747 472.084Z" fill="#FEFEFE"/>
<path d="M354.012 476.777C366.51 480.597 379.115 484.012 391.825 487.005C396.965 488.185 402.228 488.871 407.316 490.139L407.263 490.843C408.918 492.057 410.766 492.973 412.456 494.152C417.156 497.409 421.733 500.824 426.469 504.046C430.166 506.563 434.109 508.975 437.348 512.073C438.756 513.411 440.164 514.837 440.481 516.826C440.728 518.41 440.816 520.03 440.904 521.632C439.619 521.297 431.591 514.132 429.004 512.619C411.189 502.127 390.24 496.599 369.802 494.522C364.204 489.012 359.434 482.481 354.012 476.777Z" fill="#6666F2"/>
<path d="M394.992 359.898C397.14 361.324 400.044 370.602 401.523 373.524C404.181 378.822 407.068 384.649 410.431 389.526C412.86 393.046 415.817 395.969 418 399.718C416.61 411.689 416.645 423.448 420.535 435.014C419.285 436.897 418.669 438.904 418.071 441.052L417.824 443.323C416.68 444.608 415.078 444.449 413.441 444.608C400.731 418.625 398.566 388.17 394.992 359.898Z" fill="#FEFEFE"/>
<path d="M149.474 361.58C151.199 361.368 152.907 361.544 154.491 362.266C156.815 363.322 158.03 365.364 159.156 367.547C161.128 371.35 162.501 375.557 164.103 379.518L173.591 402.843C178.872 415.746 184.03 428.685 189.1 441.677C191.125 446.958 192.903 452.344 194.98 457.626C199.363 468.769 204.099 479.771 208.376 490.949H202.972C200.842 481.725 196.318 472.642 192.85 463.822L170.757 407.719C167.395 399.815 164.402 391.735 161.216 383.76C159.596 379.711 158.135 375.222 155.829 371.526C154.174 368.903 151.639 366.649 148.559 365.892C143.137 364.572 132.821 366.086 127.082 366.456L99.7084 368.269L54.3259 371.244C50.858 371.49 37.2855 372.987 34.7857 372.388L34.7153 371.825C34.8034 371.719 34.8738 371.614 34.9618 371.526C35.9652 370.575 37.6375 370.276 38.9578 370.065C43.9749 369.29 49.256 369.149 54.3259 368.674C67.7576 367.459 81.2244 366.438 94.6913 365.593C112.964 364.431 131.184 362.46 149.474 361.58Z" fill="white"/>
<path d="M315.353 116.504C322.8 115.817 330.035 116.82 337.27 118.51C321.849 124.689 302.59 140.075 290.849 151.711C289.757 149.933 288.525 148.877 286.906 147.645C284.775 146.465 282.645 145.444 280.287 144.846C274.055 143.261 269.073 145.849 263.897 148.947C265.887 146.148 267.876 143.332 270.041 140.674C270.745 139.829 271.449 138.984 272.189 138.174C272.928 137.364 273.685 136.554 274.46 135.78C275.234 135.005 276.026 134.248 276.854 133.509C277.681 132.769 278.491 132.048 279.354 131.361C280.198 130.657 281.061 129.988 281.959 129.337C282.839 128.685 283.737 128.052 284.652 127.436C285.568 126.819 286.501 126.238 287.434 125.675C288.384 125.112 289.335 124.566 290.303 124.056C291.271 123.545 292.257 123.052 293.243 122.577C294.229 122.102 295.25 121.662 296.253 121.239C297.274 120.817 298.295 120.429 299.334 120.06C300.372 119.69 301.411 119.355 302.467 119.039C303.523 118.722 304.58 118.44 305.654 118.176C306.727 117.912 307.801 117.665 308.875 117.454C309.949 117.243 311.04 117.067 312.132 116.908C313.17 116.75 314.262 116.609 315.353 116.504Z" fill="#FEFEFE"/>
<path d="M267.066 431.262C273.527 430.769 278.579 432.107 283.772 435.98C278.72 436.86 272.858 437.476 269.302 441.595C266.115 445.292 258.775 455.907 259.109 460.836C259.549 461.857 260.623 462.333 261.538 462.913C259.919 465.29 258.37 467.719 256.891 470.201C250.501 470.448 238.742 468.3 232.651 466.522C226.366 469.937 222.388 473.159 214.871 472.965C217.969 469.761 230.081 461.488 231.242 457.685C229.94 456.699 220.786 459.252 217.793 458.425C217.687 458.389 217.582 458.354 217.476 458.319C217.952 457.298 218.603 456.118 218.832 455.009C219.025 454.129 218.955 453.249 218.48 452.492L217.987 452.457C211.597 457.21 213.779 467.209 211.526 473.493C211.156 474.514 210.752 475.236 209.783 475.711L209.097 475.324C206.615 471.557 206.175 464.903 206.896 460.572C207.336 457.896 209.255 454.323 208.674 451.7C208.534 451.066 208.639 451.277 208.058 450.908C205.189 451.788 203.587 455.731 202.267 458.178C202.39 456.47 202.478 454.71 202.812 453.038C203.288 450.538 204.326 448.162 206.544 446.736C213.181 442.476 228.303 450.38 235.661 452.14C247.737 447.933 253.969 432.617 267.066 431.262Z" fill="#FEFEFE"/>
<path d="M301.676 436.188C311.411 434.815 329.825 451.08 342.077 451.785C344.735 451.943 347.059 451.292 349.594 450.605C349.523 457.576 348.713 464.248 347.288 471.061C343.379 469.512 339.278 468.209 335.123 467.487C328.029 466.237 320.952 466.449 313.823 465.815C307.926 465.287 293.561 462.329 288.368 464.019C285.71 464.882 282.84 468.086 280.517 469.723C277.665 471.747 274.725 472.786 271.38 473.666C272.63 471.958 273.299 470.057 274.267 468.209C275.411 466.008 276.943 463.984 278.492 462.048C284.495 454.531 290.181 453.95 299.282 454.056C301.588 454.091 304.018 454.284 306.306 453.915C307.221 453.774 307.732 453.633 308.242 452.858C308.102 452.577 308.014 452.366 307.785 452.119C306.007 450.306 297.117 451.168 294.6 451.309C291.008 451.521 287.4 452.524 283.844 452.506L283.65 451.785L283.58 452.084C283.016 451.151 282.559 450.464 281.714 449.778L281.185 449.901L281.802 450.412L281.203 450.165L283.28 452.559C279.038 455.622 276.168 460.27 272.595 464.019C269.127 467.646 266.046 469.124 261.1 469.23C262.79 465.973 265.237 462.945 267.507 460.076C276.344 448.862 282.066 446.75 295.937 444.708C298.279 444.356 301.817 444.268 303.753 442.842L303.789 442.05C303.489 441.68 303.419 441.398 302.908 441.31C300.937 440.941 295.656 442.138 293.35 442.507C284.16 443.951 276.996 445.782 270.306 452.489C267.437 455.358 264.691 458.14 261.346 460.481C263.089 455.605 266.152 450.218 269.215 446.081C270.817 443.916 272.665 442.103 275.13 440.923C280.024 438.617 295.356 437.174 301.676 436.188Z" fill="#FEFEFE"/>
<path d="M405.61 268.047C407.581 269.103 409.57 270.159 411.56 271.18C395.892 285.862 335.776 340.733 318.876 343.761C317.609 343.989 315.989 343.989 314.95 343.127C313.683 342.071 312.591 340.205 311.747 338.796C304.159 326.069 302.945 307.761 302.628 293.167C302.54 289.506 303.473 285.334 302.892 281.778C302.751 280.88 302.628 280.387 301.888 279.841C301.783 279.877 301.66 279.894 301.554 279.947C300.515 280.458 299.864 281.883 299.371 282.869C296.29 288.96 294.231 295.685 291.467 301.934C286.644 312.813 280.958 323.287 277.525 334.73C276.152 325.558 277.754 314.785 276.363 305.842C276.222 304.944 276.205 304.874 275.5 304.381C274.479 304.645 274.321 304.768 273.564 305.49C274.303 309.68 273.951 314.398 273.969 318.658C274.004 327.389 273.881 336.297 274.691 344.993C275.395 349.763 272.613 360.519 272.437 366.364L272.103 366.505C269.638 364.181 270.149 347.809 268.406 343.338C268.019 342.352 267.544 341.226 266.523 340.768L266.03 341.067C265.554 341.895 265.273 342.352 265.22 343.338C263.618 347.915 263.319 352.316 262.984 357.139C262.967 364.445 262.403 372.296 264.199 379.426C265.502 384.601 267.438 389.882 269.498 394.829C271.557 399.793 275.448 404.881 275.483 410.355C277.102 414.07 277.666 418.735 278.493 422.696C270.466 422.784 262.438 422.766 254.411 422.643C254.728 418.946 255.52 415.232 256.031 411.553C256.876 405.638 257.457 399.688 257.773 393.72C258.618 380.359 259.129 366.998 259.868 353.636C260.625 339.835 261.241 325.224 265.237 311.915C266.487 307.779 268.23 303.606 270.853 300.139C279.725 288.485 299.019 279.208 311.923 272.219C309.194 279.049 307.434 287.041 307.258 294.4C307.011 304.381 309.036 327.055 316.323 334.395C317.274 335.346 318.594 336.156 319.985 336.085C323.893 335.909 329.333 332.16 332.73 330.188C361.037 313.887 383.183 291.372 405.61 268.047Z" fill="#FEFEFE"/>
<path d="M262.967 357.129C262.949 364.434 262.386 372.286 264.182 379.415C265.484 384.591 267.421 389.872 269.48 394.819C271.54 399.783 275.43 404.87 275.466 410.345C275.289 410.134 275.131 409.923 274.973 409.711C273.124 407.247 271.874 404.113 270.501 401.349C265.995 392.16 259.006 378.183 259.534 367.938C259.728 364.311 262.404 361.16 262.914 357.516C262.949 357.393 262.967 357.252 262.967 357.129Z" fill="#F3A73D"/>
<path d="M274.689 344.987C270.57 339.618 268.334 323.581 268.827 316.733C269.126 312.526 270.271 308.336 273.563 305.484C274.302 309.674 273.95 314.392 273.967 318.652C274.003 327.401 273.879 336.291 274.689 344.987Z" fill="#F3A73D"/>
<path d="M341.497 119.871C342.588 119.871 343.644 120.294 344.612 120.769C356.178 126.561 366.036 143.178 369.821 155.131C375.877 174.267 369.469 190.585 360.685 207.432C359.347 203.26 358.062 199.088 357.692 194.687C356.97 185.868 359.804 178.228 353.326 170.834C352.939 170.482 352.534 170.112 352.112 169.795C350.369 168.457 348.503 167.788 346.302 168.176C341.532 169.021 338.328 174.214 335.74 177.893C332.8 175.323 329.544 173.087 326.586 170.499C317.467 162.507 307.909 151.892 294.899 151.892C308.789 138.989 323.682 126.842 341.497 119.871Z" fill="#FEFEFE"/>
<path d="M399.519 447.849C408.392 447.708 420.204 446.723 428.847 448.008C436.346 449.117 443.194 453.694 447.613 459.767C451.433 465.013 454.637 472.301 453.492 478.902C452.947 482.036 450.922 487.44 448.159 489.13C443.722 491.841 413.972 488.285 407.635 487.088C393.957 485.081 380.331 481.455 367.023 477.705C361.478 476.156 355.616 473.621 349.947 472.829C351.356 465.242 351.989 457.936 352.165 450.226C367.833 448.835 383.799 448.325 399.519 447.849Z" fill="#FEFEFE"/>
<path d="M289.126 156.652C294.389 159.522 300.498 164.732 305.515 168.324C315.549 175.541 326.199 180.857 337.765 185.241C337.941 184.501 338.134 183.304 338.557 182.653C339.543 181.192 342.06 180.065 343.715 179.625C343.891 179.572 344.084 179.537 344.26 179.484C346.162 178.956 347.059 179.308 348.837 180.013C349.471 180.259 349.929 180.347 350.615 180.329C350.844 179.572 350.844 178.886 350.492 178.147C350.087 177.284 349.542 176.809 348.644 176.509C345.581 175.488 341.338 177.9 338.68 179.203C340.159 176.492 341.972 173.358 344.701 171.756C345.862 171.087 347.183 170.753 348.485 171.175C350.034 171.686 351.108 173.147 351.742 174.591C353.802 179.238 353.678 186.526 351.742 191.208C350.263 194.8 348.239 197.053 344.665 198.496C344.771 199.412 344.841 200.327 344.894 201.26C345.669 216.857 341.532 226.803 331.04 238.369C328.804 240.763 326.498 243.122 324.034 245.27C319.668 249.09 311.817 255.268 305.62 254.635C298.913 253.966 293.034 242.576 289.09 237.823C292.312 237.189 295.569 236.485 298.614 235.2C299.635 234.778 300.251 234.338 300.691 233.281L300.251 232.824C296.378 232.401 291.185 234.461 287.436 235.447C284.126 230.482 283.281 226.363 277.102 224.462C277.313 223.811 277.507 223.177 277.666 222.508C279.25 215.255 280.553 206.33 277.349 199.324C276.204 196.842 274.426 194.571 272.983 192.265C267.631 183.762 268.142 175.101 270.29 165.701C276.345 162.162 282.63 159.328 289.126 156.652Z" fill="#FEFEFE"/>
<path d="M303.384 185.16C304.265 185.055 305.444 184.914 306.324 185.16C307.169 185.389 307.556 185.777 307.944 186.533C307.504 187.114 307.345 187.255 306.606 187.484C304.441 188.118 301.712 188.012 299.459 188.399C296.096 188.98 292.84 190.054 289.583 191.093C287.858 191.621 286.731 192.043 285.006 191.304L284.9 190.794C288.421 187.132 298.543 185.636 303.384 185.16Z" fill="black"/>
<path d="M347.814 200.316C351.845 202.112 355.63 213.202 359.168 216.019C359.819 216.054 360.242 216.089 360.823 216.371C363.569 220.913 365.928 226.335 367.107 231.51C367.618 233.781 367.864 236.122 368.463 238.376C369.044 240.594 370.874 242.354 372.353 244.044C381.243 254.096 392.14 260.521 403.565 267.211C399.287 270.837 395.449 274.868 391.524 278.864C389.376 281.047 387.281 283.441 384.817 285.272C383.637 285.202 384.236 284.357 383.356 283.899C381.965 283.177 378.849 283.494 377.229 283.494C366.526 283.565 355.154 284.357 345.085 288.229C343.677 288.775 341.687 289.497 341.036 290.94L341.265 291.486C344.222 292.243 351.862 288.758 355.225 288.036C364.608 286.011 374.448 286.099 383.989 286.275C373.92 296.38 363.252 305.798 351.986 314.547C346.951 318.332 341.74 321.817 336.336 325.039C330.932 328.26 325.369 331.165 319.648 333.788C319.049 333.154 318.468 332.485 317.958 331.781C311.321 322.557 309.244 305.006 309.86 293.863C310.106 289.356 311.075 284.99 311.796 280.537C312.166 280.889 312.536 281.241 312.923 281.575C315.599 283.846 325.14 291.24 328.837 290.588C329.33 290.5 329.347 290.219 329.576 289.814C329.4 289.162 329.365 288.898 328.837 288.458C326.988 286.909 324.066 285.888 321.954 284.638C318.82 282.772 315.898 280.501 312.958 278.354C313.31 276.981 313.645 275.572 314.05 274.217C315.264 270.221 318.134 268.989 321.566 267.158C322.799 270.221 324.031 275.555 326.284 277.914C327.182 278.266 327.235 278.301 328.168 278.055C328.467 276.505 323.661 264.605 322.781 261.753C321.778 258.426 320.968 255.117 320.387 251.684C323.661 249.448 326.636 246.755 329.47 243.991C337.709 235.929 345.226 225.859 347.074 214.206C347.814 209.594 347.743 204.946 347.814 200.316Z" fill="#FEFEFE"/>
<path d="M414.041 272.688C428.229 278.215 446.449 291.858 454.67 304.427C458.015 309.532 460.567 315.253 462.504 321.027C466.623 333.315 468.718 346.447 470.602 359.245C474.369 384.665 476.886 410.877 475.302 436.596C474.879 443.391 473.753 449.887 472.38 456.541C471.746 455.08 471.024 453.672 470.214 452.298C469.405 450.925 468.507 449.623 467.521 448.355C466.535 447.105 465.479 445.908 464.352 444.799C463.226 443.673 462.011 442.634 460.743 441.683C451.801 434.853 438.862 432.389 427.86 433.903C442.576 413.095 456.976 380.387 457.24 354.633C457.258 353.119 457.452 349.352 456.395 348.278C455.568 348.137 455.198 348.172 454.424 348.489C454.248 348.736 454.124 348.877 454.072 349.229C453.79 350.936 454.301 353.348 454.318 355.108C454.406 359.333 454.089 363.54 453.385 367.713C449.653 387.552 437.718 419.555 423.74 434.36C416.981 417.337 419.78 402.638 424.832 385.792C426.751 379.437 428.74 373.099 430.817 366.779C431.979 363.347 434.056 359.351 434.901 355.971C435.2 354.774 435.183 353.559 434.602 352.468L434.074 352.432C430.377 355.584 420.871 390.052 418.776 396.583C416.699 391.478 414.974 387.112 415.079 381.531C415.203 375.036 416.646 368.505 418.002 362.167C421.434 346.218 425.642 329.812 434.338 315.817C437.559 310.641 441.555 306.434 445.921 302.244C435.623 290.679 423.652 283.091 410.186 275.768C411.435 274.694 412.756 273.709 414.041 272.688Z" fill="#FEFEFE"/>
<path d="M454.353 312.629C454.688 312.77 454.969 312.858 455.268 313.087C459.212 316.167 464.563 344.439 465.496 350.459C469.439 375.615 470.249 400.436 468.859 425.803C468.665 429.412 469.035 437.017 466.869 439.974C465.901 439.728 465.426 439.763 464.774 438.971C468.894 410.611 467.186 379.171 462.803 350.97C461.588 343.171 460.074 335.479 457.874 327.874C456.659 323.666 454.67 319.23 453.878 314.953C453.737 314.037 453.966 313.456 454.353 312.629Z" fill="black"/>
<path d="M139.968 368.245C143.189 367.752 147.097 367.805 149.967 369.459C151.868 370.551 152.871 371.977 153.857 373.878C157.607 381.183 160.459 389.281 163.539 396.904L178.995 435.579L191.406 467.248C194.487 474.994 197.884 482.616 200.208 490.643C190.983 490.573 181.689 489.728 172.482 489.235L98.8631 484.94C93.7932 484.605 80.8897 485.081 77.0169 483.021C76.0486 481.789 75.3797 480.433 74.7284 479.025C71.7533 472.529 69.1832 465.752 66.4722 459.15L49.0973 416.25L38.6407 390.584C36.7043 385.778 34.2398 380.69 33.2188 375.621C37.9718 374.776 43.0944 374.705 47.9355 374.353C56.9486 373.649 65.9617 373.033 74.9924 372.522C96.6274 371.255 118.298 369.829 139.968 368.245Z" fill="white"/>
<path d="M408.513 277.688C421.029 284.377 432.066 291.964 442.189 301.945C425.113 318.053 416.012 351.553 412.949 374.473C410.009 356.816 409.745 338.667 414.357 321.257C415.466 317.049 420.747 304.92 420.518 301.611C419.99 301.417 420.078 301.312 419.638 301.576C415.184 304.375 409.921 328.175 409.058 334.231C407.509 345.022 407.65 356.869 409.252 367.66C410.273 374.578 411.928 381.356 412.914 388.309C408.407 381.286 404.2 373.698 400.996 365.988C399.13 361.499 397.757 356.464 395.486 352.204C394.782 350.866 394.007 349.687 392.599 349.071L391.736 349.247C391.12 350.197 391.12 351.254 391.155 352.345C391.349 357.908 392.652 363.805 393.356 369.368C395.134 383.451 396.771 397.604 399.64 411.511C402.034 423.147 405.696 433.938 410.431 444.817L378.85 445.926C371.105 447 363.025 446.384 355.191 447.159C350.649 447.599 345.069 449.535 340.58 448.796C328.275 446.771 311.287 430.418 299.317 433.481C294.898 434.361 290.374 435.223 285.885 435.681C283.051 429.625 281.537 422.936 280.005 416.44C273.316 388.257 272.312 357.256 282.241 329.636C287.416 315.254 295.021 301.769 300.338 287.387C299.176 302.386 301.781 331.713 311.569 343.473C312.924 345.092 314.632 346.465 316.815 346.624C330.739 347.645 381.614 301.664 393.972 290.679C398.795 286.454 403.425 281.648 408.513 277.688Z" fill="#FEFEFE"/>
<path d="M319.19 365.07C320.81 365.493 321.162 365.722 321.919 367.218C324.278 371.813 325.933 376.724 328.415 381.336C329.717 383.713 331.091 386.054 332.516 388.378C333.942 390.684 335.439 392.955 336.988 395.19C338.537 397.426 340.139 399.609 341.794 401.756C343.448 403.904 345.174 406.017 346.934 408.076C348.712 410.136 350.525 412.143 352.391 414.114C354.257 416.086 356.194 418.005 358.165 419.871C360.137 421.737 362.161 423.55 364.221 425.31C366.28 427.071 368.393 428.778 370.558 430.433C375.135 433.989 380.311 436.612 384.483 439.869C385.557 440.696 385.504 441.118 385.697 442.386C380.504 442.509 365.999 430.222 361.351 426.19C359.45 424.571 357.584 422.899 355.753 421.191C353.923 419.483 352.145 417.723 350.402 415.91C348.659 414.114 346.969 412.266 345.332 410.382C343.677 408.499 342.093 406.562 340.544 404.608C338.995 402.637 337.498 400.647 336.037 398.605C334.576 396.563 333.185 394.486 331.83 392.374C330.474 390.261 329.189 388.131 327.939 385.948C326.69 383.783 325.51 381.565 324.366 379.347C322.095 374.805 319.56 370.228 319.19 365.07Z" fill="black"/>
<path d="M299.335 433.531C296.888 427.757 294.987 421.807 293.596 415.681C291.149 405.207 285.727 369.911 289.424 361.074C290.023 359.648 290.973 358.434 292.469 357.888C293.913 357.36 295.761 357.554 297.134 358.24C303.102 361.215 313.823 386.565 317.995 393.606C319.438 396.071 321.023 398.447 322.748 400.718C324.491 402.989 326.357 405.154 328.346 407.196C334.595 413.604 341.83 419.589 348.749 425.275C351.671 427.669 375.225 445.836 377.443 445.924C377.918 445.942 378.376 445.96 378.851 445.977C371.105 447.051 363.025 446.435 355.192 447.209C350.65 447.65 345.069 449.586 340.581 448.847C328.293 446.822 311.323 430.468 299.335 433.531Z" fill="#6666F2"/>
<path d="M11.9006 475.274C17.0409 474.605 22.7973 474.922 27.9728 475.027C42.3903 475.291 56.7197 476.576 71.102 477.316C72.3694 480.66 73.4608 483.213 75.8902 485.871C81.5586 487.719 94.867 487.42 101.451 487.878C102.19 491.751 102.736 493.441 106.063 495.817C113.104 496.205 120.234 497.208 127.275 497.859C145.249 499.637 163.257 501.274 181.266 502.735C190.49 503.44 199.926 504.531 209.186 504.161C220.98 503.704 233.074 500.183 244.604 497.701C253.653 495.764 263 494.268 271.82 491.451C261.979 498.018 252.438 504.989 243.214 512.4C233.989 519.811 225.099 527.592 216.544 535.778C209.415 542.502 202.338 549.262 195.296 556.075C191.195 560.018 187.181 564.155 182.833 567.834C172.816 562.571 162.36 557.747 152.818 551.621C146.745 547.713 141.253 542.802 135.373 538.612C121.871 529.018 107.929 520.146 93.5291 511.995C87.1566 508.439 80.6784 505.042 73.7777 502.665C63.1451 499.021 59.8708 500.236 49.8014 493.564C46.0518 491.258 39.0984 486.082 34.8559 485.449C34.0813 485.325 33.8172 485.202 33.1659 485.695C33.5884 486.681 34.2221 487.209 35.0495 487.878C37.25 489.673 39.8553 491.047 42.1966 492.666C45.5941 495.007 48.8684 497.542 52.1779 500.007C51.9315 499.954 51.685 499.919 51.4386 499.884C45.7878 498.951 39.9961 498.423 34.2925 497.718C30.2789 497.226 25.9836 496.398 21.9523 496.451C20.8785 496.469 20.2976 496.521 19.435 497.155C19.0829 498.018 18.9421 498.44 19.0653 499.391C19.6638 500.165 20.3152 500.412 21.2306 500.641C26.4237 501.926 31.9688 502.331 37.2676 503.017C45.5413 504.073 53.5334 505.376 61.5607 507.629C82.0515 513.368 106.309 529.124 125.093 539.791C139.915 548.206 155.037 556.092 169.912 564.401C160.564 570.246 154.016 579.664 149.21 589.381C135.021 587.973 112.541 581.988 98.6518 577.323C93.3883 575.545 88.4064 573.098 83.2661 571.003C68.0389 564.806 57.7231 565.282 42.2846 569.665C33.43 563.556 24.3464 558.029 15.7558 551.48C2.18332 541.147 -13.6953 528.877 -16.0189 510.657C-17.04 502.577 -14.1882 494.409 -9.24151 488.054C-3.88997 481.188 3.18673 476.312 11.9006 475.274Z" fill="#FEFEFE"/>
<path d="M314.543 469.295C324.278 468.221 336.724 469.471 345.367 474.347C349.574 476.724 353.676 480.544 357.021 484.012C362.02 489.205 366.316 495.155 370.822 500.77C380.275 512.53 390.574 523.902 397.104 537.65C398.97 541.594 400.555 545.854 401.752 550.026C402.245 551.768 402.667 556.257 403.424 557.543C403.565 557.789 403.882 557.895 404.093 558.053C404.833 557.789 405.167 557.701 405.501 556.891C407.209 552.631 398.918 534.71 396.752 529.975C400.467 534.024 403.477 538.971 405.801 543.917C407.209 546.91 409.638 556.363 410.923 557.543L411.452 557.296C411.592 556.997 411.663 556.891 411.768 556.592C412.596 554.039 411.698 550.202 410.554 547.825C409.216 545.097 408.353 542.21 406.892 539.516C400.801 528.232 391.718 519.695 382.881 510.629C399.939 517.476 414.779 527.757 429.742 538.231C429.935 540.837 429.9 543.442 429.636 546.047C427.753 562.929 415.324 586.025 402.034 596.429C379.906 613.751 349.24 616.128 322.324 612.906C319.314 597.714 313.311 582.98 302.009 572.083C316.955 565.394 332.499 556.592 343.448 544.216C346.265 541.03 352.373 534.253 352.109 529.887L351.652 529.641C349.222 530.767 344.487 538.636 342.533 541.101C336.02 548.635 327.975 554.832 319.56 560.13C328.485 550.959 334.963 540.326 339.558 528.408C340.262 526.578 342.286 521.983 341.477 520.152L340.596 519.888C338.519 520.627 337.674 525.521 336.917 527.599C333.203 537.738 327.2 546.575 320.968 555.307C324.577 546.523 328.925 538.196 331.143 528.884C331.478 527.458 332.182 525.433 331.407 524.166H330.668C329.911 524.888 329.541 525.592 329.136 526.56C328.133 528.989 327.482 531.665 326.654 534.165C325.017 539.182 323.081 544.093 320.827 548.864C315.775 559.321 309.543 562.788 300.196 568.95C271.537 587.856 236.91 597.873 204.097 606.956C193.94 609.773 183.289 612.026 173.361 615.494C171.46 614.561 169.699 613.417 168.097 612.026C161.091 606.041 158.31 598.207 157.553 589.282C164.084 585.48 170.491 581.554 176.459 576.889C183.747 571.203 190.225 564.672 196.862 558.264C206.509 548.811 216.367 539.552 226.401 530.503C235.132 522.775 243.987 514.906 253.335 507.918C262.647 500.947 272.488 494.75 281.906 487.902C285.074 485.596 288.243 483.325 291.306 480.878C298.876 474.823 304.509 470.175 314.543 469.295Z" fill="#FEFEFE"/>
<rect x="0.974121" y="473.891" width="520.083" height="12.6612" fill="black"/>
</g>
<defs>
<linearGradient id="paint0_linear_4244_1592" x1="223.591" y1="280.602" x2="221.925" y2="651.867" gradientUnits="userSpaceOnUse">
<stop stop-color="#C4CAC2"/>
<stop offset="1" stop-color="#F6F6F6"/>
</linearGradient>
<clipPath id="clip0_4244_1592">
<rect width="508.396" height="392.497" fill="white" transform="translate(0 88.207)"/>
</clipPath>
</defs>
</svg>
