<svg width="67" height="67" viewBox="0 0 67 67" fill="none" xmlns="http://www.w3.org/2000/svg">
<g clip-path="url(#clip0_4320_471)">
<path d="M52.4248 0.660156C56.204 0.660156 59.6638 2.20377 62.1655 4.65227C64.614 7.154 66.1577 10.6138 66.1577 14.393C66.1577 16.6286 65.6254 18.7045 64.7205 20.5675C62.964 24.0806 53.9684 30.255 52.4248 36.9618C49.8698 30.468 41.8856 24.0806 40.1291 20.5675C39.171 18.7045 38.6387 16.6286 38.6387 14.393C38.6387 6.7814 44.8131 0.660156 52.4248 0.660156Z" fill="#F8F8F8"/>
<path d="M52.4258 0.132812C54.342 0.132812 56.205 0.50541 57.8551 1.19738C59.6116 1.94257 61.2085 3.00714 62.4859 4.33784H62.5392C63.8166 5.66855 64.8812 7.21216 65.6264 8.96869C66.3184 10.6188 66.691 12.4818 66.691 14.398C66.691 15.5158 66.5313 16.6336 66.3184 17.6981C66.0522 18.7627 65.6796 19.8272 65.2006 20.7854C64.5086 22.1693 62.8585 23.8726 60.9423 25.7888C57.7486 29.0357 53.863 32.9746 52.9049 37.0732C52.8516 37.3393 52.5855 37.499 52.3193 37.4458C52.1064 37.3926 52 37.2861 51.9467 37.1264C50.4031 33.294 46.9433 29.4616 44.0157 26.2679C42.0995 24.1387 40.3962 22.2757 39.651 20.7854C39.172 19.8272 38.7994 18.7627 38.5332 17.6981C38.2671 16.6336 38.1606 15.5158 38.1606 14.398C38.1606 10.4591 39.7575 6.89279 42.3124 4.33784C44.9206 1.72966 48.4869 0.132812 52.4258 0.132812ZM57.4825 2.15548C55.9389 1.51675 54.2356 1.14415 52.4258 1.14415C48.7531 1.14415 45.4529 2.63454 43.0576 5.02981C40.6624 7.42508 39.172 10.7252 39.172 14.398C39.172 15.4625 39.2784 16.4739 39.5446 17.432C39.7575 18.4433 40.1301 19.4014 40.5559 20.3063C41.2479 21.637 42.898 23.5 44.8142 25.5759C47.4224 28.5034 50.5628 31.91 52.3193 35.4763C53.7565 31.6439 57.2696 28.0244 60.1971 25.0968C62.0601 23.1806 63.657 21.5306 64.2425 20.3063C64.7215 19.4014 65.0409 18.4433 65.307 17.432C65.5199 16.4739 65.6264 15.4625 65.6264 14.398C65.6264 12.5882 65.307 10.8849 64.6683 9.34129C63.9763 7.74445 63.0182 6.30728 61.794 5.08304V5.02981C60.5697 3.80556 59.0793 2.84745 57.4825 2.15548Z" fill="#BDBDBD"/>
<path d="M52.425 7.42578C56.2042 7.42578 59.2382 10.513 59.2382 14.239C59.2382 18.0182 56.2042 21.0522 52.425 21.0522C48.6458 21.0522 45.6118 18.0182 45.6118 14.239C45.6118 10.513 48.6458 7.42578 52.425 7.42578Z" fill="#F3A73D"/>
<path d="M52.4241 6.94141C54.4468 6.94141 56.2565 7.73983 57.5872 9.07053C58.9179 10.4012 59.7696 12.211 59.7696 14.2337C59.7696 16.2563 58.9179 18.1193 57.5872 19.45C56.2565 20.7807 54.4468 21.5792 52.4241 21.5792C50.4014 21.5792 48.5384 20.7807 47.2077 19.45C45.877 18.1193 45.0786 16.2563 45.0786 14.2337C45.0786 12.211 45.877 10.4012 47.2077 9.07053C47.261 9.07053 47.261 9.07053 47.261 9.01731C48.5917 7.73983 50.4014 6.94141 52.4241 6.94141ZM56.842 9.81573C55.7243 8.64471 54.1274 7.95274 52.4241 7.95274C50.6676 7.95274 49.124 8.64471 48.0062 9.7625L47.9529 9.81573C46.8351 10.9335 46.0899 12.5304 46.0899 14.2337C46.0899 15.9902 46.8351 17.587 47.9529 18.7048C49.124 19.8226 50.6676 20.5678 52.4241 20.5678C54.1274 20.5678 55.7243 19.8226 56.842 18.7048C58.0131 17.587 58.705 15.9902 58.705 14.2337C58.705 12.5304 58.0131 10.9335 56.842 9.81573Z" fill="#F3A73D"/>
<path d="M19.5293 15.1406C24.7457 15.1406 29.3765 17.2165 32.7831 20.6231C36.1897 24.0297 38.2656 28.7138 38.2656 33.8769C38.2656 36.8577 37.5737 39.732 36.2962 42.2338C33.9009 47.0243 21.7116 55.4344 19.5293 64.5364C16.0695 55.7005 5.2109 47.0243 2.81564 42.2338C1.53816 39.732 0.846191 36.8577 0.846191 33.8769C0.846191 23.4975 9.20302 15.1406 19.5293 15.1406Z" fill="#656AEA"/>
<path d="M19.5303 14.6055C22.1385 14.6055 24.6402 15.1378 26.929 16.0959C29.2711 17.054 31.4002 18.4911 33.1567 20.2477C34.9133 22.0042 36.3504 24.1333 37.3085 26.5286C38.2667 28.7642 38.7989 31.2659 38.7989 33.8741C38.7989 35.3645 38.586 36.8549 38.2667 38.292C37.9473 39.7292 37.415 41.1131 36.7763 42.4438C35.8182 44.3068 33.5826 46.5956 31.0276 49.2038C26.6629 53.6217 21.3933 59.051 20.0626 64.64C20.0094 64.9061 19.69 65.119 19.4239 65.0126C19.2642 65.0126 19.1045 64.8529 19.0513 64.6932C16.9754 59.4768 12.2381 54.2605 8.29917 49.8958C5.63776 46.9682 3.34895 44.4133 2.33761 42.4438C1.69887 41.1131 1.16659 39.7292 0.847223 38.292C0.474626 36.8549 0.314941 35.3645 0.314941 33.8741C0.314941 28.5513 2.44407 23.7607 5.95713 20.2477C9.41696 16.7878 14.2607 14.6055 19.5303 14.6055ZM26.5032 17.054C24.3741 16.1491 22.032 15.67 19.5303 15.67C14.5269 15.67 9.94925 17.6927 6.70233 20.9929C3.40218 24.293 1.32628 28.8174 1.32628 33.8741C1.32628 35.3112 1.53919 36.6952 1.85856 38.0259C2.17793 39.4098 2.65698 40.7405 3.24249 42.018C4.2006 43.8277 6.43619 46.3295 9.04437 49.2038C12.7703 53.2491 17.1351 58.0397 19.4771 62.9899C21.2869 57.6671 26.1838 52.6636 30.2824 48.5118C32.7841 45.9036 34.9665 43.6681 35.8182 42.018C36.4569 40.7405 36.9359 39.4098 37.2553 38.0259C37.5747 36.6952 37.7344 35.3112 37.7344 33.8741C37.7344 31.3724 37.2553 29.0303 36.3504 26.9012C35.4456 24.6656 34.1149 22.6429 32.4115 20.9929C30.7615 19.2895 28.7388 17.9588 26.5032 17.054Z" fill="#656AEA"/>
<path d="M19.5303 24.4023C24.6934 24.4023 28.8452 28.5541 28.8452 33.6641C28.8452 38.774 24.6934 42.9258 19.5303 42.9258C14.4204 42.9258 10.2686 38.774 10.2686 33.6641C10.2686 28.5541 14.4204 24.4023 19.5303 24.4023Z" fill="#FEFEFE"/>
<path d="M19.5303 23.8789C22.245 23.8789 24.6935 24.9435 26.5032 26.7532C28.2597 28.5098 29.3243 30.9583 29.3243 33.6729C29.3243 36.3875 28.2597 38.836 26.5032 40.5926C24.6935 42.3491 22.245 43.4669 19.5303 43.4669C16.8689 43.4669 14.4204 42.3491 12.6107 40.5926C10.8541 38.836 9.73633 36.3875 9.73633 33.6729C9.73633 30.9583 10.8541 28.5098 12.6107 26.7532C14.4204 24.9435 16.8689 23.8789 19.5303 23.8789ZM25.758 27.4452C24.1612 25.9016 21.9788 24.8902 19.5303 24.8902C17.135 24.8902 14.9527 25.9016 13.3558 27.4452C11.759 29.042 10.8009 31.2244 10.8009 33.6729C10.8009 36.0682 11.759 38.2505 13.3558 39.8474C14.9527 41.4442 17.135 42.4023 19.5303 42.4023C21.9788 42.4023 24.1612 41.4442 25.758 39.8474C27.3016 38.2505 28.313 36.0682 28.313 33.6729C28.313 31.2244 27.3016 29.042 25.758 27.4452Z" fill="#656AEA"/>
<path d="M24.7475 66.1472C24.4814 66.0939 24.2685 65.8278 24.3217 65.5616C24.3749 65.2423 24.6411 65.0826 24.9072 65.1358H24.9604H25.0669H25.1201H25.2266L25.2798 65.189H25.3863H25.4395H25.4927H25.5992L25.6524 65.2423H25.7588H25.8121H25.9185C26.1847 65.2955 26.3976 65.5616 26.3976 65.8278C26.3444 66.0939 26.0782 66.3068 25.8121 66.3068V66.2536H25.7056H25.5992H25.5459H25.4395H25.3863L25.2798 66.2004H25.2266H25.1201H25.0669L24.9604 66.1472H24.9072H24.8007H24.7475ZM52.0004 37.9894C52.1068 37.7233 52.373 37.5636 52.6391 37.6701C52.9052 37.7765 53.0649 38.0959 52.9585 38.362V38.4153L52.9052 38.4685V38.5217C52.7988 38.7879 52.5326 38.8943 52.2133 38.7879C51.9471 38.7346 51.8407 38.4153 51.9471 38.1491V38.0959V38.0427H52.0004V37.9894ZM50.6164 40.8105C50.7761 40.5976 51.0955 40.5444 51.3084 40.7041C51.5745 40.8105 51.6278 41.1299 51.4681 41.396V41.4493L51.4148 41.5025V41.5557H51.3616V41.609H51.3084V41.6622V41.7154H51.2552V41.7686L51.2019 41.8219L51.1487 41.8751V41.9283H51.0955V41.9815L51.0422 42.0348V42.088H50.989V42.1412H50.9358V42.1945L50.8826 42.2477V42.3009C50.6697 42.5138 50.3503 42.5671 50.1374 42.3541C49.9245 42.1945 49.8712 41.8751 50.0309 41.6622V41.609H50.0841V41.5557H50.1374V41.5025L50.1906 41.4493L50.2438 41.396V41.3428H50.2971V41.2896H50.3503V41.2364V41.1831H50.4035V41.1299L50.4567 41.0767L50.51 41.0234V40.9702H50.5632V40.917V40.8638H50.6164V40.8105ZM47.9018 43.6316C48.1679 43.4719 48.4873 43.5784 48.647 43.7913C48.7534 44.0574 48.7002 44.3768 48.4873 44.5365H48.4341H48.3808V44.5897H48.3276L48.2744 44.643H48.2212L48.1679 44.6962H48.1147V44.7494H48.0615H48.0082V44.8026H47.955V44.8559H47.9018H47.8486V44.9091H47.7953H47.7421V44.9623H47.6889H47.6356V45.0156H47.5824H47.5292V45.0688C47.263 45.1752 46.9437 45.0688 46.8372 44.8026C46.6775 44.5365 46.784 44.2171 47.0501 44.1107H47.1034V44.0574H47.1566H47.2098L47.263 44.0042H47.3163V43.951H47.3695H47.4227V43.8978H47.476L47.5292 43.8445H47.5824L47.6356 43.7913H47.6889V43.7381H47.7421H47.7953V43.6849H47.8486L47.9018 43.6316ZM44.229 45.122C44.4952 45.0156 44.7613 45.1752 44.8678 45.4946C44.921 45.7608 44.7613 46.0269 44.4952 46.0801L44.4419 46.1333H44.3887H44.3355H44.2823V46.1866H44.229H44.1758H44.1226H44.0694V46.2398H44.0161H43.9629H43.9097H43.8564V46.293H43.8032H43.75H43.6968H43.6435V46.3463H43.5903H43.5371H43.4838C43.2177 46.4527 42.8983 46.2398 42.8451 45.9737C42.7919 45.7075 42.9516 45.4414 43.2177 45.3349H43.2709H43.3242H43.3774L43.4306 45.2817H43.4838H43.5371H43.5903L43.6435 45.2285H43.6968H43.75H43.8032L43.8564 45.1752H43.9097H43.9629H44.0161L44.0694 45.122H44.1226H44.1758H44.229ZM40.1837 46.7721C40.3966 46.5592 40.716 46.5592 40.9289 46.7721C41.1418 46.985 41.0886 47.3044 40.9289 47.5173H40.8757L40.8224 47.5705V47.6237H40.7692L40.716 47.677V47.7302H40.6627V47.7834H40.6095V47.8367L40.5563 47.8899V47.9431H40.5031V47.9963L40.4498 48.0496V48.1028H40.3966V48.156V48.2092C40.2369 48.4222 39.9176 48.5286 39.7046 48.4222C39.4385 48.2625 39.332 47.9431 39.4385 47.7302L39.4917 47.677V47.6237L39.545 47.5705V47.5173L39.5982 47.4641L39.6514 47.4108V47.3576L39.7046 47.3044L39.7579 47.2511L39.8111 47.1979V47.1447H39.8643V47.0915L39.9176 47.0382V46.985H39.9708V46.9318H40.024L40.0772 46.8785L40.1305 46.8253L40.1837 46.7721ZM39.545 51.19C39.3853 50.9239 39.4917 50.6045 39.7579 50.4981C39.9708 50.3384 40.2901 50.4448 40.4498 50.711V50.7642H40.5031V50.8174V50.8707H40.5563V50.9239L40.6095 50.9771V51.0303H40.6627V51.0836L40.716 51.1368V51.19H40.7692V51.2433L40.8224 51.2965L40.8757 51.3497L40.9289 51.4029V51.4562C41.1418 51.6691 41.1418 51.9885 40.9289 52.2014C40.716 52.361 40.3966 52.361 40.1837 52.1481L40.1305 52.0949L40.0772 52.0417L40.024 51.9885V51.9352L39.9708 51.882L39.9176 51.8288L39.8643 51.7755V51.7223L39.8111 51.6691L39.7579 51.6159V51.5626L39.7046 51.5094L39.6514 51.4562V51.4029L39.5982 51.3497V51.2965L39.545 51.2433V51.19ZM43.2177 53.6385C42.8983 53.5853 42.7386 53.3192 42.7919 53.053C42.8451 52.7869 43.1112 52.574 43.3774 52.6272H43.4306H43.4838V52.6804H43.5371H43.5903H43.6435H43.6968H43.75H43.8032L43.8564 52.7336H43.9097H43.9629H44.0161H44.0694H44.1226H44.1758L44.229 52.7869H44.2823H44.3355H44.3887C44.6549 52.8401 44.8678 53.053 44.8145 53.3724C44.8145 53.6385 44.5484 53.8514 44.229 53.7982H44.1758H44.1226H44.0694H44.0161H43.9629V53.745H43.9097H43.8564H43.8032H43.75H43.6968H43.6435H43.5903L43.5371 53.6918H43.4838H43.4306H43.3774H43.3242H43.2709L43.2177 53.6385ZM47.3695 54.1176C47.1034 54.0644 46.8904 53.8514 46.8904 53.5321C46.8904 53.2659 47.1566 53.053 47.4227 53.053H47.476H47.5292H47.5824H47.6356L47.6889 53.1062H47.7421H47.7953H47.8486H47.9018H47.955H48.0082H48.0615H48.1147H48.1679H48.2212H48.2744H48.3276H48.3808H48.4341L48.4873 53.1595C48.7534 53.1595 48.9663 53.3724 48.9663 53.6918C48.9663 53.9579 48.7002 54.1708 48.4341 54.1708H48.3808H48.3276H48.2744H48.2212H48.1679H48.1147H48.0615L48.0082 54.1176H47.955H47.9018H47.8486H47.7953H47.7421H47.6889H47.6356H47.5824H47.5292H47.476H47.4227H47.3695ZM51.5213 54.3305C51.2019 54.3305 50.989 54.0644 51.0422 53.7982C51.0422 53.5321 51.3084 53.3192 51.5745 53.3192H51.681H51.7874L51.9471 53.3724H52.1068H52.2133H52.373L52.5326 53.4256H52.6391C52.9052 53.4788 53.1181 53.6918 53.1181 54.0111C53.0649 54.2773 52.7988 54.4902 52.5326 54.4369H52.4262H52.2665L52.16 54.3837H52.0004H51.8407H51.7342H51.5745L51.5213 54.3305ZM55.5134 55.0225C55.194 54.9692 55.0344 54.6499 55.1408 54.3837C55.194 54.1176 55.5134 53.9579 55.7796 54.0644H55.9392L56.0457 54.1176L56.1522 54.1708H56.2586L56.3651 54.224L56.4715 54.2773H56.578L56.6844 54.3305L56.7909 54.3837C57.057 54.4902 57.2167 54.8095 57.1103 55.0757C57.0038 55.3418 56.6844 55.4483 56.4183 55.3418L56.3118 55.2886H56.2054L56.1522 55.2354H56.0457L55.9392 55.1821L55.8328 55.1289H55.7263L55.6199 55.0757L55.5134 55.0225ZM59.0265 56.7258C58.8136 56.5661 58.7603 56.2467 58.92 56.0338C59.1329 55.7677 59.4523 55.7677 59.6652 55.9273L59.7184 55.9806L59.7717 56.0338L59.8781 56.087L59.9314 56.1402L59.9846 56.1935L60.0378 56.2467L60.091 56.2999L60.1975 56.3532L60.2507 56.4064L60.304 56.5128L60.3572 56.5661L60.4104 56.6193L60.4636 56.6725L60.5169 56.7258C60.6766 56.9387 60.6766 57.258 60.4636 57.4177C60.2507 57.6306 59.9314 57.6306 59.7184 57.4177V57.3645L59.6652 57.3113L59.612 57.258L59.5588 57.2048L59.5055 57.1516L59.4523 57.0984H59.3991L59.3458 57.0451L59.2926 56.9919L59.2394 56.9387L59.1862 56.8854L59.1329 56.8322L59.0797 56.779L59.0265 56.7258ZM60.6233 59.813C60.6766 59.5469 60.8895 59.3339 61.2088 59.3872C61.475 59.3872 61.6879 59.6533 61.6347 59.9727V60.0259V60.0791L61.5814 60.1856V60.2388V60.292V60.3453L61.5282 60.4517V60.505L61.475 60.5582V60.6646V60.7179L61.4217 60.7711V60.8243L61.3685 60.9308V60.984L61.3153 61.0372V61.0905C61.1556 61.3566 60.8362 61.4631 60.5701 61.3566C60.3572 61.1969 60.2507 60.8776 60.3572 60.6114L60.4104 60.5582V60.505L60.4636 60.4517V60.3985V60.3453L60.5169 60.292V60.2388V60.1856L60.5701 60.1324V60.0791V60.0259V59.9727L60.6233 59.9195V59.8662V59.813ZM58.3877 62.5809C58.6539 62.4744 58.9732 62.5276 59.0797 62.7938C59.2394 63.0067 59.1862 63.3261 58.92 63.4857L58.8136 63.539L58.7071 63.5922L58.6539 63.6454L58.5474 63.6987L58.441 63.7519L58.3877 63.8051L58.2813 63.8583L58.1748 63.9116L58.0684 63.9648L57.9619 64.018C57.6958 64.1245 57.3764 64.018 57.2699 63.7519C57.1635 63.4857 57.2699 63.1664 57.5361 63.0599L57.6425 63.0067L57.6958 62.9535L57.8022 62.9002H57.9087L57.9619 62.847L58.0684 62.7938L58.1216 62.7405L58.2281 62.6873L58.2813 62.6341H58.3877V62.5809ZM54.6618 64.018C54.9811 63.9648 55.2473 64.1245 55.3005 64.3906C55.3537 64.71 55.194 64.9761 54.9279 65.0294L54.8214 65.0826H54.715L54.5553 65.1358H54.4489L54.2892 65.189H54.1295L54.023 65.2423H53.8633C53.5972 65.2955 53.3311 65.1358 53.2778 64.8697C53.2246 64.5503 53.4375 64.2842 53.7037 64.2309H53.8101L53.9698 64.1777H54.0763L54.2359 64.1245H54.3424L54.4489 64.0713H54.6085L54.6618 64.018ZM50.6697 64.6568C50.9358 64.6035 51.2019 64.8164 51.2019 65.1358C51.2552 65.402 51.0422 65.6681 50.7761 65.6681H50.6697H50.5632L50.4567 65.7213H50.4035H50.2971H50.1906H50.0841H49.9777L49.8712 65.7746H49.818H49.7115C49.4454 65.7746 49.1793 65.5616 49.1793 65.2955C49.126 65.0294 49.3389 64.7632 49.6051 64.71H49.7115H49.818H49.9245H49.9777H50.0841H50.1906L50.2971 64.6568H50.4035H50.4567H50.5632H50.6697ZM46.5179 64.9761C46.8372 64.9761 47.0501 65.189 47.1034 65.4552C47.1034 65.7746 46.8904 65.9875 46.6243 66.0407H46.5179H46.4114H46.3049H46.1985H46.092L45.9856 66.0939H45.8791H45.7727H45.6662H45.5597C45.2936 66.1472 45.0275 65.881 45.0275 65.6149C45.0275 65.3487 45.2404 65.0826 45.5065 65.0826H45.613L45.7194 65.0294H45.8259H45.9323H46.0388H46.1453H46.2517H46.3582L46.4646 64.9761H46.5179ZM42.4193 65.2955C42.6854 65.2423 42.9516 65.4552 42.9516 65.7746C42.9516 66.0407 42.7386 66.3068 42.4725 66.3068H42.3661H42.2596H42.1531H42.0467L41.887 66.3601H41.7805H41.6741H41.5676H41.4612H41.4079C41.1418 66.3601 40.8757 66.1472 40.8757 65.881C40.8757 65.5616 41.0886 65.3487 41.3547 65.3487H41.4079L41.5144 65.2955H41.6209H41.7273H41.8338H41.9402H42.0999H42.2064H42.3128H42.4193ZM38.2675 65.4552C38.5336 65.4552 38.7998 65.6681 38.7998 65.9875C38.7998 66.2536 38.5868 66.5197 38.3207 66.5197H38.2675H38.161H38.0546H37.9481H37.8417H37.7352H37.6287H37.4691H37.3626H37.2561C36.99 66.573 36.7239 66.3068 36.7239 66.0407C36.7239 65.7746 36.9368 65.5084 37.2561 65.5084H37.3626H37.4691H37.5755H37.682H37.7884H37.8949H38.0013L38.1078 65.4552H38.2675ZM34.1157 65.5616C34.435 65.5616 34.648 65.8278 34.648 66.0939C34.648 66.3601 34.435 66.6262 34.1689 66.6262H34.0092H33.9028H33.7963H33.6899H33.5834H33.4769H33.3705H33.264H33.1576H33.1043C32.8382 66.6262 32.5721 66.4133 32.5721 66.0939C32.5721 65.8278 32.8382 65.5616 33.1043 65.5616H33.1576H33.264H33.3705H33.4769H33.5834H33.6899H33.7963H33.9028H34.0092H34.1157ZM30.0171 65.5616C30.2832 65.5616 30.4962 65.7746 30.4962 66.0939C30.4962 66.3601 30.2832 66.573 29.9639 66.573H29.9106H29.8042H29.751H29.6445H29.5381H29.4316H29.3251L29.2187 66.5197H29.1655H29.059H28.9525C28.6332 66.5197 28.4203 66.2536 28.4203 65.9875C28.4735 65.7213 28.6864 65.4552 29.0058 65.5084H29.1122H29.1655H29.2719H29.3784H29.4848H29.5913H29.6445H29.751H29.8574L29.9639 65.5616H30.0171Z" fill="#BDBDBD"/>
</g>
<defs>
<clipPath id="clip0_4320_471">
<rect width="66.3806" height="66.482" fill="white" transform="translate(0.309082 0.128906)"/>
</clipPath>
</defs>
</svg>
