<svg id="Layer_1" enable-background="new 0 0 468 468" height="512" viewBox="0 0 468 468" width="512" xmlns="http://www.w3.org/2000/svg"><g id="XMLID_359_"><g id="XMLID_360_"><g id="XMLID_362_"><path id="XMLID_363_" d="m287.928 396.471h-236.928c-11.046 0-20-8.954-20-20v-197.574c0-11.046 8.954-20 20-20h236.928c11.046 0 20 8.954 20 20v197.574c0 11.046-8.955 20-20 20z" fill="#fff"/><path id="XMLID_364_" d="m113.077 158.897h-61.558c-11.332 0-20.519 9.173-20.519 20.489v196.596c0 11.316 9.187 20.489 20.519 20.489h235.889c11.332 0 20.519-9.173 20.519-20.489v-61.468h-39.005c-86.071 0-155.845-69.672-155.845-155.617z" fill="#e6e7e8"/><path id="XMLID_433_" d="m292.327 143.175v-25.117c0-65.098-55.116-118.058-122.863-118.058s-122.863 52.96-122.863 118.058v25.117c-17.782 2.178-31.601 17.362-31.601 35.722v197.574c0 19.851 16.149 36 36 36h200.496v-32h-200.496c-2.206 0-4-1.794-4-4v-197.574c0-2.206 1.794-4 4-4h236.928c2.206 0 4 1.794 4 4v91.214h32v-91.214c0-18.36-13.819-33.544-31.601-35.722zm-122.863-111.175c50.103 0 90.863 38.605 90.863 86.058v24.839h-181.726v-24.839c0-47.453 40.76-86.058 90.863-86.058z" fill="#3e4d6c"/></g><path id="XMLID_428_" d="m230.534 208.713-2.171 8.373c-15.894-16.19-37.883-25.457-60.588-25.457-47.085 0-85.391 38.604-85.391 86.055s38.306 86.054 85.391 86.054c30.072 0 57.363-15.475 73.003-41.395l-27.398-16.532c-9.796 16.235-26.845 25.927-45.604 25.927-29.439 0-53.391-24.249-53.391-54.054s23.951-54.055 53.391-54.055c14.01 0 27.149 5.658 36.888 15.053l-12.606-1.32-3.332 31.826 43.925 4.598c7.767.814 15.185-4.305 17.154-11.897l11.706-45.145z" fill="#3e4d6c"/></g><g id="XMLID_365_"><ellipse cx="360.663" cy="375.798" fill="#0795fe" rx="92.337" ry="92.202"/><path id="XMLID_366_" d="m343.737 421.891-22.771-22.483 28.55-28.915v-42.993h32v49.561c0 4.208-1.658 8.247-4.614 11.242z" fill="#fff"/></g></g></svg>