<svg xmlns="http://www.w3.org/2000/svg" version="1.1" xmlns:xlink="http://www.w3.org/1999/xlink" width="512" height="512" x="0" y="0" viewBox="0 0 24 24" style="enable-background:new 0 0 512 512" xml:space="preserve"><g><linearGradient id="a" x1="12" x2="12" y1="6" y2="18" gradientUnits="userSpaceOnUse"><stop stop-opacity="1" stop-color="#38e69d" offset="0"></stop><stop stop-opacity="1" stop-color="#6666f3" offset="1"></stop></linearGradient><g fill="url(#a)" fill-rule="evenodd" clip-rule="evenodd"><path d="M9.75 12a.75.75 0 0 1 .75-.75h6.75a.75.75 0 0 1 0 1.5H10.5a.75.75 0 0 1-.75-.75z" fill="" opacity="1"></path><path d="M14.47 9.22a.75.75 0 0 1 1.06 0l2.25 2.25a.75.75 0 0 1 0 1.06l-2.25 2.25a.75.75 0 1 1-1.06-1.06L16.19 12l-1.72-1.72a.75.75 0 0 1 0-1.06zM6 6.75A.75.75 0 0 1 6.75 6H12a.75.75 0 0 1 0 1.5H7.5v9H12a.75.75 0 0 1 0 1.5H6.75a.75.75 0 0 1-.75-.75z" fill="" opacity="1"></path></g></g></svg>