<svg width="200" height="169" viewBox="0 0 200 169" fill="none" xmlns="http://www.w3.org/2000/svg">
<path d="M0.761807 3.27251C0.761807 1.96355 1.82292 0.902432 3.13188 0.902432H197.212C198.521 0.902432 199.582 1.96355 199.582 3.2725V166.352C199.582 167.661 198.521 168.723 197.212 168.723H3.13188C1.82293 168.723 0.761807 167.661 0.761807 166.352V3.27251Z" fill="url(#paint0_linear_1680_2380)"/>
<path d="M0.761807 3.27251C0.761807 1.96355 1.82292 0.902432 3.13188 0.902432H197.212C198.521 0.902432 199.582 1.96355 199.582 3.2725V166.352C199.582 167.661 198.521 168.723 197.212 168.723H3.13188C1.82293 168.723 0.761807 167.661 0.761807 166.352V3.27251Z" stroke="url(#paint1_linear_1680_2380)" stroke-width="0.179865"/>
<g filter="url(#filter0_d_1680_2380)">
<rect x="33.6719" y="30.8125" width="125" height="89" rx="2.22222" fill="white"/>
</g>
<rect x="41.6719" y="37.8125" width="23" height="21" rx="4" fill="#D4DFF9" fill-opacity="0.4"/>
<rect x="70.6719" y="41.8125" width="41" height="4" rx="2" fill="#D4DFF9" fill-opacity="0.4"/>
<rect x="70.6719" y="50.8125" width="51" height="4" rx="2" fill="#D4DFF9" fill-opacity="0.4"/>
<g filter="url(#filter1_d_1680_2380)">
<rect x="58.6719" y="65.8125" width="73" height="73" rx="3.86243" fill="white" shape-rendering="crispEdges"/>
<g clip-path="url(#clip0_1680_2380)">
<path fill-rule="evenodd" clip-rule="evenodd" d="M91.2218 111.992H85.3657H80.0216C74.0375 111.992 69.1094 116.888 69.1094 122.904V129.625H107.67L94.2618 111.992H91.2218Z" fill="#6666F2"/>
<path fill-rule="evenodd" clip-rule="evenodd" d="M87.7422 113.942C87.7422 113.654 87.9982 113.398 88.2862 113.398C88.6062 113.398 88.8302 113.654 88.8302 113.942V118.839C88.8302 119.127 88.6062 119.383 88.2862 119.383C87.9982 119.383 87.7422 119.127 87.7422 118.839V113.942Z" fill="#1A1A84"/>
<path fill-rule="evenodd" clip-rule="evenodd" d="M73.7812 129.624H75.9573V124.76C75.9573 124.152 75.4773 123.672 74.8693 123.672C74.2613 123.672 73.7812 124.152 73.7812 124.76V129.624Z" fill="#1A1A84"/>
<path fill-rule="evenodd" clip-rule="evenodd" d="M85.2344 105.301H91.3145V111.189C91.3145 112.853 89.9385 114.197 88.2744 114.197C86.6104 114.197 85.2344 112.853 85.2344 111.189V105.301Z" fill="#FFB09E"/>
<path fill-rule="evenodd" clip-rule="evenodd" d="M97.7812 98.2618L97.9093 93.4297H99.2533C100.597 93.4297 101.685 94.5177 101.685 95.8617C101.685 97.2058 100.597 98.2938 99.2533 98.2938C99.1253 98.2938 97.9093 98.2618 97.7812 98.2618Z" fill="#FFB09E"/>
<path fill-rule="evenodd" clip-rule="evenodd" d="M79.1865 93.4297L79.3465 98.2618C79.2185 98.2618 77.4585 98.2938 77.3305 98.2938C75.9865 98.2938 74.8984 97.2058 74.8984 95.8617C74.8984 94.5177 75.9865 93.4297 77.3305 93.4297H79.1865Z" fill="#FFB09E"/>
<path fill-rule="evenodd" clip-rule="evenodd" d="M77.7203 98.264C78.1043 102.616 81.1763 106.232 85.2404 107.48C86.2324 107.768 87.2244 107.896 88.2804 107.896C89.3365 107.896 90.3605 107.768 91.3205 107.48C95.4166 106.232 98.4566 102.616 98.8726 98.264C98.9046 97.944 98.9046 97.624 98.9046 97.304V93.6239C98.9046 93.6239 99.3206 88.5998 95.9926 88.0558C94.7126 87.8638 94.3286 87.6718 93.2085 87.8318C91.8645 88.0558 89.4965 88.0238 86.6484 86.3598C80.7283 82.8397 78.1683 85.9758 77.6562 93.6559V97.304C77.6562 97.624 77.6883 97.944 77.7203 98.264Z" fill="#FFCEBF"/>
<path fill-rule="evenodd" clip-rule="evenodd" d="M77.6539 93.6559C77.6539 93.6559 72.3418 83.9917 79.574 79.7036C79.574 79.7036 82.87 71.6715 95.1903 76.5996C95.1903 76.5996 93.2062 77.9436 93.1742 78.7116C93.1422 79.4476 105.494 79.7036 98.9023 93.6239C98.9023 93.6239 99.3183 89.1438 95.9903 88.5998C94.7103 88.4078 94.3262 88.7598 93.2062 88.9198C91.8622 89.1438 89.4942 89.1118 86.6461 87.4478C80.726 83.9277 78.1659 85.9757 77.6539 93.6559Z" fill="#2F373B"/>
<path d="M107.471 129.622C115.071 129.622 121.231 123.461 121.231 115.862C121.231 108.262 115.071 102.102 107.471 102.102C99.8716 102.102 93.7109 108.262 93.7109 115.862C93.7109 123.461 99.8716 129.622 107.471 129.622Z" fill="#6FC4EE"/>
<path d="M90.5552 93.1433C90.3632 93.3993 90.0432 93.4313 89.7872 93.2713C89.5632 93.0793 89.4992 92.7593 89.6592 92.5033C90.0112 92.0553 90.4592 91.6713 90.9712 91.4153C91.4512 91.1593 91.9952 91.0312 92.6032 91.0312C93.1793 91.0312 93.7233 91.1593 94.2353 91.4153C94.7473 91.6713 95.1633 92.0553 95.5153 92.5033C95.6753 92.7593 95.6433 93.0793 95.3873 93.2713C95.1633 93.4313 94.8113 93.3993 94.6513 93.1433C94.3953 92.8233 94.1073 92.5673 93.7233 92.3753C93.4033 92.2153 93.0193 92.1193 92.6032 92.1193C92.1872 92.1193 91.8032 92.2153 91.4512 92.3753C91.0992 92.5673 90.7792 92.8233 90.5552 93.1433Z" fill="#2F373B"/>
<path d="M81.9386 93.1433C81.7786 93.3993 81.4266 93.4313 81.1706 93.2713C80.9466 93.0793 80.8826 92.7593 81.0746 92.5033C81.3946 92.0553 81.8426 91.6713 82.3546 91.4153C82.8347 91.1593 83.4107 91.0312 83.9867 91.0312C84.5627 91.0312 85.1387 91.1593 85.6187 91.4153C86.1307 91.6713 86.5787 92.0553 86.8987 92.5033C87.0907 92.7593 87.0267 93.0793 86.7707 93.2713C86.5467 93.4313 86.1947 93.3993 86.0347 93.1433C85.7787 92.8233 85.4907 92.5673 85.1387 92.3753C84.7867 92.2153 84.4027 92.1193 83.9867 92.1193C83.5707 92.1193 83.1867 92.2153 82.8347 92.3753C82.4827 92.5673 82.1626 92.8233 81.9386 93.1433Z" fill="#2F373B"/>
<path fill-rule="evenodd" clip-rule="evenodd" d="M83.3516 94.5206C83.3516 94.2326 83.6076 93.9766 83.8956 93.9766C84.2156 93.9766 84.4396 94.2326 84.4396 94.5206V95.7366C84.4396 96.0566 84.2156 96.2806 83.8956 96.2806C83.6076 96.2806 83.3516 96.0566 83.3516 95.7366V94.5206Z" fill="#22292B"/>
<path fill-rule="evenodd" clip-rule="evenodd" d="M92.1172 94.5206C92.1172 94.2326 92.3732 93.9766 92.6612 93.9766C92.9812 93.9766 93.2052 94.2326 93.2052 94.5206V95.7366C93.2052 96.0566 92.9812 96.2806 92.6612 96.2806C92.3732 96.2806 92.1172 96.0566 92.1172 95.7366V94.5206Z" fill="#22292B"/>
<path d="M85.3634 101.016C85.2034 100.76 85.2354 100.408 85.4914 100.248C85.7154 100.056 86.0674 100.12 86.2274 100.376C86.4834 100.696 86.7715 100.952 87.1555 101.144C87.4755 101.304 87.8595 101.4 88.2755 101.4C88.6915 101.4 89.0755 101.304 89.4275 101.144C89.7795 100.952 90.0995 100.696 90.3235 100.376C90.5155 100.12 90.8355 100.056 91.0915 100.248C91.3155 100.408 91.3795 100.76 91.1875 101.016C90.8675 101.464 90.4195 101.848 89.9075 102.104C89.4275 102.36 88.8835 102.488 88.2755 102.488C87.6995 102.488 87.1555 102.36 86.6434 102.104C86.1314 101.848 85.7154 101.464 85.3634 101.016Z" fill="#E0524B"/>
<path d="M107.473 126.363C113.27 126.363 117.969 121.664 117.969 115.867C117.969 110.07 113.27 105.371 107.473 105.371C101.676 105.371 96.9766 110.07 96.9766 115.867C96.9766 121.664 101.676 126.363 107.473 126.363Z" fill="white"/>
<path fill-rule="evenodd" clip-rule="evenodd" d="M100.595 118.198C100.083 117.686 100.083 116.854 100.595 116.31C101.107 115.798 101.971 115.798 102.483 116.31L104.531 118.39L112.435 110.486C112.947 109.974 113.811 109.974 114.323 110.486C114.835 110.998 114.835 111.862 114.323 112.374L105.491 121.206C104.979 121.718 104.115 121.718 103.603 121.206L100.595 118.198Z" fill="#00BA00"/>
</g>
</g>
<defs>
<filter id="filter0_d_1680_2380" x="23.3015" y="23.4051" width="145.741" height="109.741" filterUnits="userSpaceOnUse" color-interpolation-filters="sRGB">
<feFlood flood-opacity="0" result="BackgroundImageFix"/>
<feColorMatrix in="SourceAlpha" type="matrix" values="0 0 0 0 0 0 0 0 0 0 0 0 0 0 0 0 0 0 127 0" result="hardAlpha"/>
<feMorphology radius="2.96296" operator="dilate" in="SourceAlpha" result="effect1_dropShadow_1680_2380"/>
<feOffset dy="2.96296"/>
<feGaussianBlur stdDeviation="3.7037"/>
<feComposite in2="hardAlpha" operator="out"/>
<feColorMatrix type="matrix" values="0 0 0 0 0.93263 0 0 0 0 0.951215 0 0 0 0 1 0 0 0 1 0"/>
<feBlend mode="normal" in2="BackgroundImageFix" result="effect1_dropShadow_1680_2380"/>
<feBlend mode="normal" in="SourceGraphic" in2="effect1_dropShadow_1680_2380" result="shape"/>
</filter>
<filter id="filter1_d_1680_2380" x="40.6472" y="52.9377" width="109.049" height="109.049" filterUnits="userSpaceOnUse" color-interpolation-filters="sRGB">
<feFlood flood-opacity="0" result="BackgroundImageFix"/>
<feColorMatrix in="SourceAlpha" type="matrix" values="0 0 0 0 0 0 0 0 0 0 0 0 0 0 0 0 0 0 127 0" result="hardAlpha"/>
<feMorphology radius="5.14991" operator="dilate" in="SourceAlpha" result="effect1_dropShadow_1680_2380"/>
<feOffset dy="5.14991"/>
<feGaussianBlur stdDeviation="6.43739"/>
<feComposite in2="hardAlpha" operator="out"/>
<feColorMatrix type="matrix" values="0 0 0 0 0.93263 0 0 0 0 0.951215 0 0 0 0 1 0 0 0 1 0"/>
<feBlend mode="normal" in2="BackgroundImageFix" result="effect1_dropShadow_1680_2380"/>
<feBlend mode="normal" in="SourceGraphic" in2="effect1_dropShadow_1680_2380" result="shape"/>
</filter>
<linearGradient id="paint0_linear_1680_2380" x1="100.172" y1="0.8125" x2="100.172" y2="168.812" gradientUnits="userSpaceOnUse">
<stop stop-color="white"/>
<stop offset="0.563064" stop-color="white"/>
<stop offset="1" stop-color="#E0E8FD"/>
</linearGradient>
<linearGradient id="paint1_linear_1680_2380" x1="100.172" y1="0.8125" x2="100.172" y2="168.812" gradientUnits="userSpaceOnUse">
<stop stop-color="#6666F2" stop-opacity="0.15"/>
<stop offset="1" stop-color="white"/>
</linearGradient>
<clipPath id="clip0_1680_2380">
<rect width="54.625" height="54.625" fill="white" transform="translate(67.8594 75)"/>
</clipPath>
</defs>
</svg>
