<svg width="348" height="217" viewBox="0 0 348 217" fill="none" xmlns="http://www.w3.org/2000/svg">
<path d="M13.9167 154.501C13.9167 134.341 17.8875 114.378 25.6024 95.7525C33.3174 77.127 44.6253 60.2035 58.8806 45.9482C73.1359 31.6929 90.0594 20.385 108.685 12.6701C127.31 4.95519 147.273 0.984374 167.433 0.984375V154.501H13.9167Z" fill="#F5F6FF"/>
<path d="M334.111 200.024C334.111 179.864 330.14 159.901 322.425 141.276C314.71 122.65 303.402 105.727 289.147 91.4717C274.891 77.2164 257.968 65.9085 239.342 58.1935C220.717 50.4786 200.754 46.5078 180.594 46.5078V200.024H334.111Z" fill="#F5F6FF"/>
<path d="M167.125 34.8672H90.7773V101.074H167.125V34.8672Z" fill="white" stroke="#1A1A1A" stroke-width="1.00941" stroke-miterlimit="10" stroke-linecap="round" stroke-linejoin="round"/>
<path d="M100.395 48.5469C101.114 49.2343 156.762 96.0075 156.762 96.0075" stroke="#1A1A1A" stroke-width="1.00941" stroke-miterlimit="10" stroke-linecap="round" stroke-linejoin="round"/>
<path d="M103.031 95.0481L156.761 48.5469" stroke="#1A1A1A" stroke-width="1.00941" stroke-miterlimit="10" stroke-linecap="round" stroke-linejoin="round"/>
<path d="M167.125 34.8672H90.7773V42.2505H167.125V34.8672Z" fill="white" stroke="#1A1A1A" stroke-width="1.00941" stroke-miterlimit="10" stroke-linecap="round" stroke-linejoin="round"/>
<path d="M249.614 45.8803C249.331 61.1462 236.774 73.546 221.505 73.6461C218.203 73.6677 215.03 73.1236 212.078 72.1049C210.682 71.6233 204.2 74.6309 198.714 76.8864C196.382 77.8452 194.153 75.2828 195.448 73.1196C198.069 68.7442 199.77 63.8187 198.521 62.1241C194.96 57.2958 192.897 51.2954 193.017 44.8086C193.296 29.6748 205.644 17.3248 220.778 17.044C236.835 16.7464 249.912 29.8232 249.614 45.8803Z" fill="white" stroke="#1A1A1A" stroke-width="1.00941" stroke-miterlimit="10" stroke-linecap="round" stroke-linejoin="round"/>
<path d="M217.949 32.8919C217.584 33.3134 217.312 33.808 217.152 34.3429C216.993 34.8777 216.949 35.4404 217.024 35.9935L218.443 54.7147C218.827 57.5762 223.053 57.5601 223.418 54.6755L224.826 36.0327C225.391 32.1743 220.493 29.9501 217.949 32.8919Z" fill="#F3A73D"/>
<path d="M218.859 60.8669C218.865 61.4118 219.086 61.9323 219.474 62.3154C219.861 62.6986 220.384 62.9135 220.929 62.9135C221.474 62.9135 221.997 62.6986 222.384 62.3155C222.772 61.9323 222.992 61.4118 222.998 60.8669C222.992 60.3221 222.772 59.8016 222.384 59.4184C221.997 59.0352 221.474 58.8203 220.929 58.8203C220.384 58.8203 219.861 59.0352 219.474 59.4183C219.086 59.8015 218.865 60.322 218.859 60.8669Z" fill="#F3A73D"/>
<path d="M167.125 34.8672L179.884 53.1243V101.074H167.125V34.8672Z" fill="#D9D9D9" stroke="#1A1A1A" stroke-width="0.672955" stroke-miterlimit="10" stroke-linecap="round" stroke-linejoin="round"/>
<path d="M234.372 102.305H121.371V200.297H234.372V102.305Z" fill="white" stroke="#1A1A1A" stroke-width="0.878517" stroke-miterlimit="10" stroke-linecap="round" stroke-linejoin="round"/>
<path d="M173.146 172.194V146.9H179.989L170.641 137.125L161.294 146.9H168.136V172.194H150.907V146.9H157.75L148.402 137.125L139.055 146.9H145.897V172.194H139.666V177.57H180.722V172.194H173.146Z" fill="#D9D9D9"/>
<path d="M165.7 185H139.492V193.484H165.7V185Z" fill="white" stroke="#1A1A1A" stroke-width="0.878517" stroke-miterlimit="10" stroke-linecap="round" stroke-linejoin="round"/>
<path d="M224.281 185H172.895V193.484H224.281V185Z" fill="white" stroke="#1A1A1A" stroke-width="0.878517" stroke-miterlimit="10" stroke-linecap="round" stroke-linejoin="round"/>
<path d="M234.372 102.305H121.371V115.44H234.372V102.305Z" fill="white" stroke="#1A1A1A" stroke-width="0.878517" stroke-miterlimit="10" stroke-linecap="round" stroke-linejoin="round"/>
<path d="M247.811 112.517L234.371 102.305V200.297H247.811V112.517Z" fill="white" stroke="#1A1A1A" stroke-width="0.878517" stroke-miterlimit="10" stroke-linecap="round" stroke-linejoin="round"/>
</svg>
