<svg width="322" height="201" viewBox="0 0 322 201" fill="none" xmlns="http://www.w3.org/2000/svg">
<path d="M0.918671 154.501C0.918671 134.341 4.8895 114.378 12.6044 95.7525C20.3193 77.127 31.6272 60.2035 45.8825 45.9482C60.1378 31.6929 77.0614 20.385 95.6868 12.6701C114.312 4.95519 134.275 0.984374 154.435 0.984375V154.501H0.918671Z" fill="#F5F6FF"/>
<path d="M321.109 200.02C321.109 179.86 317.138 159.897 309.423 141.272C301.709 122.647 290.401 105.723 276.145 91.4678C261.89 77.2125 244.966 65.9045 226.341 58.1896C207.716 50.4747 187.753 46.5039 167.593 46.5039V200.02H321.109Z" fill="#F5F6FF"/>
<path d="M142.712 170.464C142.982 170.931 143.37 171.319 143.836 171.588C144.303 171.858 144.833 172 145.372 172C145.91 171.998 146.439 171.858 146.907 171.591L156.147 166.242C158.32 164.983 159.906 162.913 160.555 160.487C161.205 158.061 160.867 155.476 159.614 153.299L145.737 129.289C145.327 128.589 144.657 128.08 143.873 127.873C143.089 127.666 142.255 127.777 141.553 128.183C140.85 128.588 140.337 129.255 140.125 130.037C139.912 130.82 140.018 131.655 140.419 132.36L154.289 156.382C154.729 157.149 154.847 158.059 154.617 158.913C154.387 159.767 153.827 160.494 153.061 160.936L146.483 164.734L130.945 137.826C130.745 137.473 130.477 137.164 130.157 136.916C129.837 136.668 129.471 136.486 129.081 136.38C128.69 136.274 128.282 136.246 127.88 136.298C127.479 136.35 127.091 136.481 126.741 136.684C126.39 136.886 126.083 137.156 125.837 137.478C125.591 137.8 125.411 138.167 125.307 138.558C125.204 138.95 125.179 139.358 125.234 139.759C125.288 140.16 125.422 140.547 125.627 140.896L142.712 170.464ZM203.605 64.9328L207.062 62.9337C207.998 62.3944 209.073 62.1444 210.15 62.2152C211.228 62.2859 212.26 62.6743 213.117 63.3314C213.974 63.9884 214.618 64.8846 214.966 65.9068C215.314 66.9291 215.352 68.0316 215.074 69.0752C214.89 69.7691 214.57 70.4196 214.133 70.9893C213.696 71.559 213.151 72.0366 212.528 72.3946L209.071 74.3906C208.719 74.5907 208.41 74.8586 208.162 75.1786C207.913 75.4987 207.731 75.8646 207.625 76.2555C207.519 76.6463 207.491 77.0542 207.543 77.4558C207.596 77.8574 207.727 78.2447 207.929 78.5954C208.132 78.9461 208.401 79.2533 208.723 79.4993C209.045 79.7453 209.412 79.9252 209.804 80.0287C210.195 80.1322 210.603 80.1573 211.004 80.1024C211.406 80.0476 211.792 79.9139 212.141 79.7091L215.599 77.7131C216.929 76.9559 218.095 75.9433 219.032 74.7335C219.969 73.5238 220.657 72.1408 221.058 70.664C221.458 69.1873 221.562 67.6459 221.365 66.1287C221.167 64.6114 220.672 63.1482 219.907 61.8231C219.142 60.498 218.122 59.3373 216.907 58.4077C215.692 57.478 214.305 56.7978 212.826 56.4062C211.347 56.0146 209.805 55.9192 208.289 56.1257C206.773 56.3321 205.312 56.8363 203.992 57.6091L200.534 59.6051C199.828 60.0123 199.313 60.6831 199.102 61.4701C198.891 62.257 199.002 63.0955 199.409 63.8012C199.816 64.5069 200.487 65.0219 201.274 65.233C202.061 65.444 202.899 65.3338 203.605 64.9266V64.9328Z" fill="#F3A73D"/>
<path d="M94.9262 138.916C96.2433 141.212 98.0028 143.224 100.103 144.835C102.203 146.446 104.601 147.625 107.16 148.303C108.87 148.762 110.632 148.994 112.402 148.994C115.929 148.992 119.393 148.057 122.443 146.286L144.617 133.487L150.918 129.851C161.062 123.981 172.237 120.111 183.839 118.45L209.347 114.765C211.233 116.956 213.868 118.364 216.737 118.714C219.606 119.065 222.503 118.332 224.861 116.66C227.218 114.987 228.867 112.496 229.484 109.672C230.101 106.848 229.643 103.896 228.199 101.392L189.79 34.8648C188.354 32.3425 186.025 30.4496 183.263 29.5595C180.5 28.6693 177.505 28.8463 174.866 30.0557C172.228 31.265 170.138 33.419 169.009 36.0928C167.88 38.7667 167.794 41.7665 168.768 44.5007L152.831 64.7674C145.591 73.9842 136.651 81.7279 126.496 87.5798L120.198 91.2186L98.0215 104.024C93.4004 106.7 90.0294 111.1 88.6479 116.258C87.2663 121.417 87.9869 126.912 90.6517 131.54L94.9262 138.916ZM177.007 35.9334C178.262 35.2098 179.753 35.0139 181.153 35.3886C182.552 35.7634 183.746 36.6783 184.471 37.9324L222.886 104.466C223.26 105.088 223.506 105.778 223.61 106.497C223.714 107.215 223.674 107.947 223.492 108.65C223.31 109.352 222.99 110.012 222.55 110.589C222.111 111.167 221.561 111.651 220.932 112.014C220.304 112.377 219.609 112.611 218.889 112.702C218.169 112.794 217.438 112.741 216.738 112.547C216.039 112.352 215.385 112.021 214.815 111.571C214.245 111.122 213.771 110.563 213.419 109.929V109.913L175.004 43.4167C174.644 42.7942 174.41 42.1068 174.316 41.3938C174.222 40.6809 174.269 39.9563 174.455 39.2616C174.641 38.5668 174.962 37.9156 175.4 37.345C175.838 36.7745 176.384 36.2927 177.007 35.9334ZM129.579 92.8891C140.411 86.646 149.947 78.3853 157.67 68.5536L171.952 50.3995L205.828 109.072L182.967 112.367C170.592 114.141 158.671 118.27 147.85 124.53L144.202 126.633L125.931 95.0048L129.579 92.8891ZM94.5792 117.833C95.0501 116.054 95.8691 114.387 96.9886 112.928C98.1082 111.468 99.5061 110.245 101.101 109.33L120.619 98.0755L138.887 129.704L119.372 140.97C116.156 142.827 112.334 143.33 108.747 142.369C105.16 141.408 102.102 139.061 100.245 135.845L95.9917 128.457C95.0654 126.868 94.4635 125.11 94.2211 123.286C93.9786 121.463 94.1003 119.609 94.5792 117.833Z" fill="#003049"/>
<path d="M229.921 59.1987C230.46 59.1987 230.99 59.0568 231.457 58.7872L238.848 54.522C239.197 54.3204 239.504 54.0519 239.749 53.7319C239.995 53.4119 240.175 53.0466 240.28 52.657C240.384 52.2674 240.411 51.8609 240.358 51.461C240.306 51.061 240.175 50.6753 239.973 50.3258C239.772 49.9764 239.503 49.6701 239.183 49.4245C238.863 49.1788 238.498 48.9986 238.108 48.8941C237.719 48.7896 237.312 48.7628 236.912 48.8154C236.512 48.868 236.127 48.9988 235.777 49.2004L228.386 53.4687C227.801 53.8067 227.343 54.3284 227.084 54.9529C226.826 55.5774 226.78 56.2698 226.955 56.9227C227.13 57.5757 227.516 58.1526 228.052 58.5641C228.588 58.9756 229.245 59.1987 229.921 59.1987ZM219.515 46.0284C219.775 46.1 220.043 46.1362 220.313 46.1358C220.989 46.1351 221.646 45.9114 222.181 45.4994C222.717 45.0875 223.102 44.5103 223.276 43.8574L225.487 35.6125C225.592 35.2229 225.618 34.8167 225.566 34.4168C225.513 34.0169 225.382 33.6313 225.181 33.282C224.979 32.9327 224.711 32.6266 224.391 32.381C224.071 32.1354 223.706 31.9553 223.316 31.8509C222.927 31.7464 222.52 31.7197 222.12 31.7723C221.721 31.8249 221.335 31.9557 220.986 32.1573C220.636 32.3589 220.33 32.6273 220.085 32.9472C219.839 33.2672 219.659 33.6323 219.555 34.0219L217.344 42.2667C217.239 42.6563 217.212 43.0626 217.265 43.4625C217.318 43.8623 217.448 44.248 217.65 44.5973C217.852 44.9466 218.12 45.2527 218.44 45.4983C218.76 45.7439 219.125 45.924 219.515 46.0284ZM233.456 70.2195C233.246 71.0058 233.356 71.8433 233.763 72.5481C234.17 73.2529 234.841 73.7672 235.627 73.9781L243.872 76.189C244.658 76.3999 245.497 76.2897 246.202 75.8825C246.907 75.4754 247.422 74.8047 247.633 74.018C247.844 73.2313 247.734 72.393 247.327 71.6875C246.92 70.9821 246.249 70.4673 245.462 70.2564L237.217 68.0454C236.828 67.941 236.421 67.9144 236.021 67.9672C235.621 68.0199 235.235 68.151 234.886 68.3529C234.537 68.5548 234.23 68.8236 233.985 69.1439C233.74 69.4641 233.56 69.8297 233.456 70.2195Z" fill="#F3A73D"/>
<path d="M174.447 40.1767V40.8614C174.447 41.9968 174.747 43.1119 175.317 44.0938L212.775 108.605C213.598 110.022 214.872 111.123 216.393 111.732L216.847 111.913C217.418 112.142 218.028 112.259 218.643 112.259H218.78C219.974 112.259 221.119 111.785 221.963 110.941C222.54 110.364 222.949 109.641 223.147 108.849L223.23 108.517C223.459 107.604 223.459 106.648 223.23 105.734L223.098 105.204C222.93 104.533 222.668 103.889 222.32 103.292L183.98 37.4616C183.063 36.0872 181.521 35.2617 179.869 35.2617H179.699C179.134 35.2617 178.573 35.3528 178.037 35.5315L177.718 35.6379C177.013 35.8727 176.373 36.2685 175.848 36.7936C174.951 37.6909 174.447 38.9078 174.447 40.1767Z" fill="white" stroke="white" stroke-width="0.439984"/>
<path d="M141.448 134.992L131.915 140.859L146.581 165.058L154.647 159.925V156.991L141.448 134.992Z" fill="white" stroke="white" stroke-width="0.439984"/>
<path d="M211.845 72.6611L206.712 63.8617C206.712 63.8617 211.478 60.1557 213.966 64.5711C216.869 69.7231 211.845 72.6611 211.845 72.6611Z" fill="white" stroke="white" stroke-width="0.439984"/>
<path d="M171.513 50.6602C156.584 72.2657 146.879 82.0152 126.781 95.3918L144.381 126.924C164.073 114.741 177.804 111.127 205.978 109.325L171.513 50.6602Z" fill="white" stroke="white" stroke-width="0.439984"/>
<path d="M98.1824 111.524C104.01 103.073 120.915 98.3242 120.915 98.3242L139.248 129.856L118.715 141.589C118.715 141.589 115.208 142.97 112.848 143.056C110.825 143.13 109.638 142.96 107.715 142.323C105.151 141.473 102.582 138.656 102.582 138.656L98.1824 132.79C98.1824 132.79 95.3596 129.015 94.5158 126.19C93.9364 124.25 93.6904 123.08 93.7825 121.057C93.9692 116.961 95.8546 114.899 98.1824 111.524Z" fill="white" stroke="white" stroke-width="0.439984"/>
</svg>
