<svg xmlns="http://www.w3.org/2000/svg" version="1.1" xmlns:xlink="http://www.w3.org/1999/xlink" width="512" height="512" x="0" y="0" viewBox="0 0 32 32" style="enable-background:new 0 0 512 512" xml:space="preserve" class=""><g><g fill-rule="evenodd" stroke-linecap="round" stroke-linejoin="round" stroke-miterlimit="4.1"><path d="M7.248 13a1 1 0 0 0-.973.766A10.003 10.003 0 0 0 6 16c0 5.511 4.489 10 10 10a10 10 0 0 0 8.275-4.395 4.004 4.004 0 0 0 1.723.395H26c2.197 0 4-1.803 4-4s-1.803-4-4-4c-.077 0-.158.006-.225.008-.017-.08-.031-.162-.05-.242a1 1 0 0 0-.973-.766zm.877 2h15.75c.047.335.12.666.125 1.004A7.987 7.987 0 0 1 16 24a7.985 7.985 0 0 1-8-7.996c.004-.338.078-.67.125-1.004zm17.877 1.002H26A1.984 1.984 0 0 1 28 18a1.985 1.985 0 0 1-1.998 2c-.268 0-.53-.056-.772-.158.495-1.184.77-2.48.77-3.84M16 3.5a1 1 0 0 0-1 1v5a1 1 0 0 0 1 1 1 1 0 0 0 1-1v-5a1 1 0 0 0-1-1zM13 5.5a1 1 0 0 0-1 1v3a1 1 0 0 0 1 1 1 1 0 0 0 1-1v-3a1 1 0 0 0-1-1zM19 5.5a1 1 0 0 0-1 1v3a1 1 0 0 0 1 1 1 1 0 0 0 1-1v-3a1 1 0 0 0-1-1z" fill="#ca8a02" opacity="1" data-original="#000000"></path><path d="M3 2a1 1 0 0 0-.707.293 1 1 0 0 0 0 1.414l26 26a1 1 0 0 0 1.414 0 1 1 0 0 0 0-1.414l-26-26A1 1 0 0 0 3 2z" fill="#ca8a02" opacity="1" data-original="#000000"></path></g></g></svg>