<svg width="83" height="82" viewBox="0 0 83 82" fill="none" xmlns="http://www.w3.org/2000/svg">
<circle cx="41.5" cy="41" r="41" fill="#F8F8F8"/>
<path d="M26.2902 42.3335C26.2902 32.5721 36.0097 24.6122 47.9915 24.6122C51.2592 24.6122 54.4013 25.2406 57.1663 26.288C53.2702 23.1878 47.9077 21.2188 42.0006 21.2188C30.0188 21.2188 20.2993 29.1787 20.2993 38.9401C20.2993 46.0621 25.4104 52.1787 32.7838 54.9856C28.8039 51.7597 26.2902 47.277 26.2902 42.3335Z" fill="#F3A73D"/>
<path d="M63.66 38.8229C63.66 43.3894 61.6071 47.495 58.1718 50.6371C56.8731 51.8101 58.8421 60.7336 58.8421 60.7336C58.8421 60.7336 50.2957 55.2874 48.4104 55.7901C46.3576 56.2928 44.221 56.5861 42.0006 56.5861C30.0188 56.5861 20.2993 48.6262 20.2993 38.8229C20.2993 29.0615 30.0188 21.1016 42.0006 21.1016C50.3376 21.1016 57.6272 24.9977 61.2301 30.6535" stroke="#2C426B" stroke-width="1.42441" stroke-miterlimit="10" stroke-linecap="round" stroke-linejoin="round"/>
<path d="M40.2409 44.6416L39.6963 26.25H43.383L42.8384 44.6416H40.2409ZM39.2773 50.1298C39.2773 48.7473 40.2409 47.7418 41.5396 47.7418C42.9222 47.7418 43.8019 48.7473 43.8019 50.1298C43.8019 51.4704 42.9222 52.5178 41.5396 52.5178C40.199 52.5178 39.2773 51.4704 39.2773 50.1298Z" fill="#6666F2"/>
<path d="M58.8421 60.8479C58.8421 60.8479 58.8421 60.8061 58.8002 60.7642C58.6745 60.7223 58.5069 60.6385 58.3394 60.5547C58.6326 60.7223 58.8421 60.8479 58.8421 60.8479Z" fill="#EAEAEA"/>
</svg>
