<svg width="321" height="201" viewBox="0 0 321 201" fill="none" xmlns="http://www.w3.org/2000/svg">
<path d="M0.404755 154.501C0.404755 134.341 4.37558 114.378 12.0905 95.7525C19.8054 77.127 31.1133 60.2035 45.3686 45.9482C59.6239 31.6929 76.5474 20.385 95.1729 12.6701C113.798 4.95519 133.761 0.984374 153.921 0.984375V154.501H0.404755Z" fill="#F5F6FF"/>
<path d="M320.595 200.02C320.595 179.86 316.624 159.897 308.91 141.272C301.195 122.647 289.887 105.723 275.631 91.4678C261.376 77.2125 244.453 65.9045 225.827 58.1896C207.202 50.4747 187.239 46.5039 167.079 46.5039V200.02H320.595Z" fill="#F5F6FF"/>
<path d="M215.011 134.203H200.57C199.246 134.203 198.163 135.286 198.163 136.61C198.163 137.934 199.246 139.017 200.57 139.017H215.011C216.335 139.017 217.418 140.1 217.418 141.424V148.644H133.178C131.854 148.644 130.771 149.727 130.771 151.051C130.771 152.375 131.854 153.458 133.178 153.458H219.824C221.148 153.458 222.231 152.375 222.231 151.051V141.424C222.231 137.452 218.982 134.203 215.011 134.203Z" fill="#003049"/>
<path d="M123.55 148.644H111.516V141.424C111.516 140.1 112.599 139.017 113.923 139.017H190.942C192.266 139.017 193.349 137.934 193.349 136.61C193.349 135.286 192.266 134.203 190.942 134.203H113.923C109.951 134.203 106.702 137.452 106.702 141.424V151.051C106.702 152.375 107.785 153.458 109.109 153.458H123.55C124.874 153.458 125.957 152.375 125.957 151.051C125.957 149.727 124.874 148.644 123.55 148.644ZM123.55 83.6591V95.8378C123.544 106.18 121.735 116.442 118.207 126.164C118.074 126.528 118.032 126.918 118.082 127.301C118.133 127.685 118.275 128.05 118.497 128.367C118.719 128.683 119.015 128.942 119.358 129.12C119.701 129.298 120.083 129.39 120.469 129.389C121.456 129.389 122.371 128.788 122.732 127.801C126.462 117.5 128.364 106.741 128.364 95.8378V83.6591C128.364 74.0317 132.119 64.9578 138.93 58.1224C145.765 51.311 154.839 47.5563 164.467 47.5563C176.068 47.5563 187.043 53.1883 193.806 62.5991C194.576 63.6822 196.093 63.9229 197.176 63.1527C198.259 62.3825 198.5 60.8662 197.729 59.7831C191.616 51.2628 182.446 45.4864 172.289 43.4887C173.42 41.9002 174.094 39.9987 174.094 37.9048C174.094 32.5856 169.786 28.2773 164.467 28.2773C159.148 28.2773 154.839 32.5856 154.839 37.9048C154.839 39.9747 155.513 41.9002 156.644 43.4646C148.702 45.005 141.385 48.8319 135.512 54.6806C131.706 58.4783 128.689 62.9921 126.636 67.9617C124.583 72.9312 123.534 78.2581 123.55 83.635V83.6591ZM159.653 37.9288C159.653 35.2813 161.819 33.1151 164.467 33.1151C167.114 33.1151 169.28 35.2813 169.28 37.9288C169.28 40.5764 167.114 42.7426 164.467 42.7426C161.819 42.7426 159.653 40.5764 159.653 37.9288ZM198.259 70.9509C199.799 74.9704 200.57 79.2546 200.57 83.6591V95.8378C200.57 106.739 202.476 117.556 206.202 127.801C206.563 128.764 207.477 129.389 208.464 129.389C208.85 129.389 209.23 129.296 209.572 129.117C209.913 128.938 210.207 128.679 210.427 128.362C210.646 128.045 210.786 127.68 210.834 127.297C210.883 126.914 210.837 126.526 210.702 126.164C209.547 123.011 208.536 119.666 207.718 116.248C206.153 109.581 205.359 102.721 205.359 95.8619V83.6832C205.359 78.6769 204.469 73.8151 202.712 69.242C202.23 67.9905 200.834 67.3888 199.607 67.8461C198.355 68.3274 197.754 69.7234 198.211 70.9509H198.259Z" fill="#003049"/>
<path d="M128.708 97.7536L126.108 116.821C126.007 117.555 125.833 118.278 125.586 118.977C123.081 126.072 128.345 133.513 135.87 133.513H204.965C207.318 133.513 208.771 130.946 207.561 128.928L207.561 128.928C206.803 127.664 206.424 127.033 206.086 126.382C205.357 124.979 204.77 123.506 204.332 121.987C204.13 121.282 203.97 120.563 203.65 119.125L201.971 111.569C201.557 109.705 201.35 108.773 201.218 107.829C201.086 106.885 201.03 105.932 200.918 104.026L200.918 104.026L200.226 92.2522V81.122C200.226 80.8596 200.226 80.7284 200.224 80.5974C200.209 79.2026 200.071 77.8118 199.813 76.4411C199.788 76.3124 199.763 76.1837 199.711 75.9264L199.711 75.9256C199.58 75.2699 199.514 74.942 199.441 74.6205C198.654 71.1829 197.114 67.9627 194.932 65.1921C194.728 64.9329 194.514 64.676 194.086 64.1622L194.085 64.1617L193.807 63.8284L193.073 62.8006C191.767 60.9719 191.114 60.0575 190.383 59.214C189.47 58.1596 188.466 57.1873 187.382 56.3085C186.516 55.6054 185.581 54.9822 183.711 53.7356L183.711 53.7356L183.181 53.3822C181.847 52.4926 181.179 52.0478 180.489 51.6513C178.918 50.7495 177.25 50.0296 175.517 49.5056C174.755 49.2752 173.973 49.0949 172.411 48.7342L172.179 48.6808C170.767 48.3549 170.061 48.1919 169.352 48.0728C167.32 47.7314 165.253 47.6548 163.202 47.8447C162.486 47.911 161.77 48.0212 160.338 48.2416C158.907 48.4617 158.191 48.5718 157.489 48.7236C155.478 49.1584 153.531 49.8517 151.698 50.7864C151.058 51.1126 150.434 51.4797 149.186 52.2138L149.186 52.2138L146.642 53.7101C143.954 55.2916 142.609 56.0824 141.393 57.0275C139.933 58.1626 138.61 59.4637 137.45 60.9047C136.485 62.1045 135.672 63.4353 134.045 66.0969C132.22 69.0841 131.307 70.5777 130.629 72.1616C129.816 74.0637 129.253 76.0637 128.955 78.1111C128.708 79.816 128.708 81.5664 128.708 85.0672V97.7536Z" fill="white" stroke="white" stroke-width="0.550139"/>
<path d="M182.326 158.582C181.17 157.908 179.702 158.318 179.028 159.473C176.044 164.672 170.46 167.897 164.467 167.897C158.474 167.897 152.866 164.672 149.905 159.473C149.574 158.948 149.053 158.571 148.451 158.42C147.849 158.269 147.212 158.357 146.673 158.663C146.134 158.97 145.733 159.473 145.555 160.068C145.377 160.662 145.435 161.303 145.717 161.856C149.544 168.547 156.741 172.686 164.467 172.686C172.193 172.686 179.365 168.523 183.216 161.856C183.373 161.582 183.474 161.281 183.514 160.968C183.554 160.656 183.532 160.338 183.449 160.034C183.367 159.73 183.225 159.446 183.032 159.196C182.839 158.947 182.599 158.739 182.326 158.582ZM111.516 86.0637C112.84 86.0637 113.923 84.9806 113.923 83.6568C113.923 70.7561 118.785 58.457 127.594 49.0703C128.508 48.1076 128.46 46.5672 127.497 45.6766C127.269 45.4597 126.999 45.2901 126.704 45.1775C126.41 45.0649 126.096 45.0116 125.781 45.0205C125.465 45.0294 125.155 45.1005 124.867 45.2296C124.579 45.3587 124.32 45.5434 124.104 45.7729C114.465 56.0198 109.109 69.5647 109.133 83.6328C109.133 84.9565 110.216 86.0396 111.54 86.0396L111.516 86.0637ZM215.011 83.6568C215.011 84.9806 216.094 86.0637 217.418 86.0637C218.741 86.0637 219.824 84.9806 219.824 83.6568C219.824 69.5045 214.505 56.0743 204.854 45.797C204.637 45.5678 204.378 45.3836 204.09 45.2547C203.802 45.1258 203.492 45.0549 203.177 45.046C202.54 45.0279 201.923 45.2634 201.46 45.7007C200.997 46.138 200.727 46.7412 200.709 47.3776C200.691 48.014 200.927 48.6316 201.364 49.0944C210.173 58.4811 215.035 70.7561 215.035 83.6809L215.011 83.6568Z" fill="#F3A73D"/>
<rect x="111.287" y="139.008" width="106.36" height="11.0028" rx="1.8338" fill="white"/>
<path d="M180.971 158.266C180.971 159.59 180.544 160.902 179.715 162.125C178.885 163.349 177.67 164.461 176.137 165.397C174.604 166.334 172.785 167.077 170.783 167.584C168.78 168.091 166.634 168.351 164.467 168.351C162.299 168.351 160.153 168.091 158.151 167.584C156.149 167.077 154.329 166.334 152.797 165.397C151.264 164.461 150.048 163.349 149.219 162.125C148.39 160.902 147.963 159.59 147.963 158.266L164.467 158.266H180.971Z" fill="white"/>
<circle cx="164.123" cy="37.8062" r="5.84522" fill="white"/>
</svg>
