<svg width="324" height="434" viewBox="0 0 324 434" fill="none" xmlns="http://www.w3.org/2000/svg">
<g clip-path="url(#clip0_2455_4163)">
<g opacity="0.15">
<path d="M304.374 475.823C303.531 479.228 302.532 482.662 301.379 486.125C284.67 536.258 238.307 590.001 174.181 633.575C121.326 669.493 57.8882 698.595 -19.7584 722.546C-40.7219 729.011 -62.3775 735.051 -83.32 740.889C-157.586 761.598 -234.38 783.011 -298.687 828.232C-316.156 840.517 -332.538 854.518 -348.382 868.059C-372.629 888.78 -397.699 910.205 -427.101 925.819C-460.923 943.781 -499.398 952.543 -535.427 950.488C-570.257 948.5 -599.371 936.858 -617.401 917.7C-651.037 881.962 -651.956 821.66 -619.852 756.396C-616.144 748.856 -611.975 741.118 -607.943 733.633C-594.565 708.802 -580.73 683.128 -581.242 660.16C-581.699 639.558 -593.717 623.506 -605.336 607.978C-610.864 600.589 -616.583 592.949 -621.047 584.869C-635.333 558.997 -637.313 526.083 -626.746 489.601C-616.395 454.088 -595.413 418.225 -565.758 385.357C-509.513 322.997 -423.534 270.369 -329.873 240.969C-302.055 232.237 -273.821 225.558 -246.516 219.101C-219.567 212.727 -191.699 206.135 -164.318 197.584C-118.319 183.219 -55.181 156.602 -15.6062 111.384C-10.8748 105.978 -6.44183 100.247 -2.15679 94.7086C7.36297 82.4021 17.2098 69.6766 31.1111 59.4265C52.7589 43.4665 83.4432 35.2355 109.28 38.4576C129.719 41.0062 147.887 49.9523 164.821 65.8076C186.727 86.565 201.187 112.537 207.292 142.091C213.466 171.72 211.182 204.29 200.585 237.781C198.263 245.024 195.515 252.417 192.854 259.567C188.058 272.472 183.097 285.817 180.531 298.62C175.946 321.499 180.59 339.335 193.61 348.846C202.761 355.527 216.051 358.363 228.903 361.101C234.893 362.378 241.087 363.698 246.838 365.393C294.516 379.46 317.203 424.034 304.374 475.823ZM-634.989 804.855C-646.165 849.967 -639.37 889.593 -614.717 915.786C-577.009 955.852 -495.036 959.389 -428.09 923.838C-399.17 908.484 -374.303 887.232 -350.256 866.68C-334.327 853.067 -317.859 838.994 -300.203 826.578C-235.2 780.869 -158.001 759.341 -83.344 738.523C-62.43 732.692 -40.8037 726.661 -19.8976 720.213C57.2796 696.407 120.288 667.512 172.732 631.875C236.114 588.806 281.92 535.744 298.403 486.293C299.535 482.892 300.517 479.509 301.346 476.162C313.941 425.325 291.725 381.589 245.001 367.805C239.34 366.132 233.195 364.826 227.25 363.561C214.167 360.772 200.638 357.89 191.152 350.961C177.609 341.069 172.754 322.642 177.477 299.074C180.079 286.084 185.073 272.65 189.904 259.657C192.551 252.535 195.29 245.17 197.594 237.981C218.745 171.985 205.526 108.352 162.208 67.7945C145.575 52.2216 127.798 43.4426 107.863 40.9568C82.9627 37.8515 53.467 45.7273 32.7205 61.0227C19.3264 70.8967 9.66553 83.3861 0.323322 95.4638C-3.99983 101.052 -8.46761 106.826 -13.2793 112.324C-53.5663 158.355 -117.56 185.362 -164.151 199.913C-191.686 208.513 -219.631 215.124 -246.657 221.516C-273.884 227.956 -302.038 234.615 -329.701 243.297C-422.562 272.447 -507.77 324.586 -563.472 386.343C-624.097 453.563 -646.064 532.695 -618.14 583.261C-613.726 591.254 -608.04 598.853 -602.541 606.2C-590.778 621.916 -578.616 638.167 -578.146 659.283C-577.625 682.817 -591.621 708.793 -605.155 733.913C-609.173 741.369 -613.329 749.083 -617.011 756.572C-624.965 772.679 -630.99 788.862 -634.989 804.855Z" fill="#6666F2"/>
<path d="M283.907 482.868C282.997 486.542 281.914 490.224 280.658 493.915C263.913 543.029 218.655 595.411 156.49 637.632C104.857 672.696 42.9508 700.949 -32.7665 724.009C-52.7991 730.133 -73.4479 735.885 -93.4142 741.445C-165.73 761.591 -240.508 782.42 -303.74 825.613C-320.628 837.149 -336.474 850.044 -351.799 862.507C-375.506 881.793 -400.02 901.736 -428.195 916.31C-494.581 950.648 -575.233 946.636 -611.808 907.178C-644.179 872.254 -645.103 813.47 -614.283 749.926C-610.741 742.56 -606.746 735 -602.882 727.694C-590.116 703.543 -576.915 678.573 -577.886 656.308C-578.756 636.334 -590.255 620.351 -601.373 604.894C-606.943 597.15 -612.705 589.143 -617.093 580.702C-630.48 554.956 -631.924 522.492 -621.268 486.839C-610.805 451.999 -589.964 416.881 -560.682 384.752C-505.099 323.767 -420.429 272.303 -328.382 243.557C-301.419 235.19 -274.043 228.71 -247.563 222.444C-219.639 215.835 -190.767 209.002 -162.464 199.965C-117.956 185.751 -56.3714 159.427 -15.7334 114.716C-11.608 110.174 -7.6387 105.509 -3.80449 100.999C7.53572 87.6594 18.2482 75.0579 33.1362 65.0183C54.7475 50.4463 83.5604 44.0139 108.341 48.2279C127.68 51.5142 144.418 60.5585 161.014 76.6837C200.791 115.34 214.404 172.275 199.07 234.177C198.193 237.716 197.222 241.268 196.157 244.833C193.427 253.974 190.001 263.379 186.688 272.473C182.415 284.203 177.998 296.331 175.075 307.913C170.843 324.702 168.738 347.194 182.842 359.027C190.916 365.798 203.178 368.643 215.03 371.397C220.374 372.637 225.902 373.92 231.031 375.55C255.151 383.213 272.548 398.929 281.348 420.993C288.546 439.452 289.422 460.64 283.907 482.868ZM-628.59 796.402C-639.553 840.656 -633.047 879.585 -609.187 905.323C-573.288 944.053 -494.186 948.021 -429.106 914.358C-401.374 900.013 -378.134 881.107 -353.53 861.091C-338.132 848.564 -322.209 835.611 -305.163 823.964C-241.273 780.324 -166.117 759.386 -93.4385 739.145C-73.497 733.59 -52.8768 727.846 -32.8956 721.738C42.3708 698.817 103.852 670.765 155.08 635.978C216.53 594.244 261.248 542.518 277.766 494.064C296.012 440.534 276.04 392.762 229.197 377.877C224.156 376.275 218.676 375.003 213.379 373.773C201.282 370.965 188.774 368.061 180.365 361.009C165.652 348.672 167.74 325.517 172.126 308.244C175.082 296.546 179.522 284.356 183.815 272.572C187.116 263.51 190.528 254.14 193.239 245.069C212.77 179.692 200.083 119.045 158.455 78.5915C142.133 62.7285 125.729 53.8463 106.838 50.6347C82.9433 46.5722 55.2356 52.7181 34.5347 66.6799C20.1656 76.3672 9.63707 88.7547 -1.5093 101.867C-5.3646 106.401 -9.35027 111.089 -13.5243 115.682C-54.8415 161.14 -117.223 187.831 -162.278 202.216C-190.743 211.304 -219.7 218.159 -247.703 224.786C-274.107 231.036 -301.411 237.497 -328.226 245.818C-419.495 274.32 -503.419 325.314 -558.472 385.719C-618.951 452.077 -640.844 528.008 -614.247 579.165L-615.667 579.932L-614.247 579.165C-609.905 587.514 -604.176 595.478 -598.635 603.181C-587.392 618.813 -575.76 634.975 -574.874 655.408C-573.878 678.23 -587.238 703.5 -600.157 727.937C-604.009 735.222 -607.99 742.754 -611.51 750.076C-619.035 765.536 -624.758 781.058 -628.59 796.402Z" fill="#6666F2"/>
<path d="M263.758 489.104C262.732 493.246 261.48 497.439 260.001 501.686C243.226 549.783 199.073 600.805 138.864 641.671C88.4524 675.881 28.0736 703.287 -45.7168 725.456C-64.7691 731.225 -84.3614 736.678 -103.308 741.951C-173.732 761.548 -246.552 781.812 -308.731 822.975C-324.946 833.713 -340.16 845.432 -354.869 856.763C-379.193 875.504 -402.165 893.199 -429.228 906.786C-461.148 922.812 -496.991 930.421 -530.149 928.206C-562.567 926.042 -589.558 914.832 -606.152 896.64C-637.079 862.73 -638.014 805.457 -608.649 743.445C-605.338 736.45 -601.619 729.286 -598.024 722.358C-585.739 698.678 -573.028 674.189 -574.459 652.431C-575.729 633.117 -586.698 617.252 -597.308 601.912C-602.935 593.773 -608.755 585.355 -613.068 576.513C-638.241 524.895 -615.662 449.376 -555.54 384.121C-500.392 324.259 -417.026 273.961 -326.82 246.116C-300.497 237.992 -273.746 231.672 -247.874 225.561C-219.195 218.786 -189.538 211.78 -160.539 202.315C-99.7233 182.467 -48.3149 152.53 -15.7888 118.02C-12.9146 114.971 -10.1193 111.938 -7.36062 108.945C6.03204 94.4177 18.6822 80.6933 35.2406 70.5832C56.4331 57.6392 84.1124 52.8064 107.474 57.9713C125.65 61.9901 141.009 71.1074 157.279 87.5328C177.522 107.955 191.252 132.83 197.761 160.871C204.377 190.141 202.366 220.772 191.791 251.921C189.413 258.915 186.89 266.116 184.449 273.081C179.325 287.706 174.019 302.829 169.689 317.179C162.043 342.533 162.86 360.033 172.147 369.186C179.114 376.056 189.83 378.783 201.178 381.674C205.895 382.876 210.774 384.12 215.3 385.68C257.171 400.128 275.718 440.817 263.758 489.104ZM-621.943 787.659C-632.75 831.281 -626.596 869.636 -603.601 894.848C-569.521 932.211 -493.296 936.613 -430.065 904.866C-403.405 891.483 -380.602 873.915 -356.461 855.315C-341.685 843.933 -326.408 832.164 -310.056 821.339C-247.263 779.768 -174.092 759.406 -103.33 739.713C-84.4058 734.448 -64.8385 729.002 -45.8279 723.246C27.5182 701.212 87.4875 674.002 137.497 640.063C197.019 599.664 240.646 549.274 257.199 501.814C275.608 449.044 258.017 403.295 213.461 387.927C209.021 386.395 204.188 385.164 199.52 383.972C188.418 381.144 176.938 378.22 169.649 371.032C159.94 361.46 158.996 343.428 166.853 317.403C171.2 303.004 176.507 287.858 181.646 273.208C184.087 266.247 186.61 259.05 188.98 252.07C209.575 191.426 197.111 132.112 154.775 89.3668C138.748 73.1861 123.673 64.2188 105.897 60.2865C83.3498 55.3026 56.7272 59.9106 36.4228 72.312C20.404 82.0941 7.95143 95.603 -5.23274 109.905C-8.00326 112.909 -10.8089 115.953 -13.6933 119.013C-46.7213 154.054 -98.8001 184.413 -160.332 204.496C-189.504 214.015 -219.248 221.043 -248.012 227.838C-273.813 233.934 -300.492 240.238 -326.677 248.318C-416.137 275.933 -498.778 325.78 -553.41 385.08C-612.81 449.55 -635.132 524.118 -610.29 575.054C-606.022 583.802 -600.234 592.175 -594.634 600.272C-583.916 615.771 -572.835 631.8 -571.537 651.524C-570.071 673.829 -582.933 698.612 -595.37 722.58C-598.953 729.483 -602.659 736.624 -605.948 743.571C-612.942 758.293 -618.299 773.058 -621.944 787.661L-621.943 787.659Z" fill="#6666F2"/>
<path d="M243.41 495.92C242.308 500.367 240.944 504.872 239.318 509.436C222.508 556.515 179.46 606.18 121.205 645.695C72.3581 678.819 13.5089 705.38 -58.706 726.894C-76.2769 732.127 -94.2974 737.129 -111.724 741.96C-180.798 761.124 -252.224 780.94 -313.781 820.336C-329.16 830.178 -343.58 840.632 -357.526 850.743C-381.525 868.143 -404.194 884.577 -430.324 897.258C-461.304 912.294 -495.83 919.317 -527.541 917.032C-558.759 914.784 -584.692 903.799 -600.563 886.095C-630.142 853.105 -631.08 797.349 -603.082 736.945C-599.97 730.232 -596.482 723.363 -593.108 716.722C-581.366 693.603 -569.223 669.696 -571.102 648.54C-572.755 629.913 -583.187 614.223 -593.274 599.048C-598.978 590.469 -604.875 581.598 -609.111 572.303L-607.756 571.612L-609.111 572.303C-632.513 520.95 -609.49 446.822 -550.46 383.461C-495.869 324.864 -413.806 275.724 -325.312 248.642C-299.684 240.798 -273.629 234.654 -248.432 228.709C-218.927 221.75 -188.419 214.554 -158.658 204.627C-99.9334 185.043 -49.2262 155.442 -15.8806 121.282L-14.9063 120.283C2.64549 102.299 17.8037 86.7668 37.317 76.1033C58.3715 64.5964 84.2625 61.4462 106.576 67.6727C127.991 73.6484 142.91 87.2009 153.517 98.3383C191.524 138.252 205.16 190.367 192.041 243.333C190.752 248.534 189.206 253.737 187.402 258.941C183.711 269.58 179.953 280.615 176.319 291.285C172.349 302.935 168.25 314.981 164.269 326.411C154.948 353.155 154.014 370.474 161.411 379.336C167.226 386.299 176.933 389.041 187.22 391.943C191.332 393.103 195.584 394.304 199.53 395.794C238.167 410.387 254.862 449.681 243.41 495.92ZM-615.451 778.989C-626.082 821.899 -620.252 859.643 -598.081 884.371C-565.297 920.937 -493.503 925.667 -431.081 895.372C-405.312 882.863 -382.801 866.542 -358.967 849.26C-344.969 839.112 -330.495 828.619 -315.005 818.705C-252.876 778.943 -181.128 759.038 -111.742 739.788C-94.3333 734.959 -76.3329 729.964 -58.7999 724.742C12.9753 703.36 71.4253 676.991 119.88 644.129C177.47 605.063 220.015 556.007 236.607 509.54C254.833 458.482 239.202 413.624 197.696 397.943C193.834 396.485 189.627 395.296 185.557 394.149C175.462 391.3 165.022 388.353 158.899 381.02C151.142 371.729 152.008 353.909 161.547 326.526C165.526 315.105 169.627 303.063 173.593 291.418C177.228 280.745 180.987 269.708 184.678 259.066C204.67 201.45 192.413 143.517 151.063 100.094C140.598 89.1021 125.896 75.7384 104.919 69.8846C83.3613 63.8686 58.446 66.8597 38.2692 77.8868C19.3423 88.2299 4.38954 103.552 -12.9224 121.292L-13.8975 122.289C-47.7167 156.938 -99.0459 186.923 -158.435 206.73C-188.373 216.715 -218.976 223.934 -248.566 230.91C-273.699 236.839 -299.689 242.97 -325.191 250.773C-412.963 277.635 -494.324 326.339 -548.417 384.4C-606.745 447.009 -629.509 520.219 -606.408 570.915C-602.219 580.11 -596.35 588.936 -590.676 597.47C-580.492 612.786 -569.964 628.626 -568.275 647.616C-566.349 669.305 -578.644 693.506 -590.529 716.91C-593.892 723.531 -597.367 730.378 -600.46 737.047C-606.972 751.058 -611.99 765.099 -615.451 778.989Z" fill="#6666F2"/>
<path d="M223.183 502.318C221.961 507.241 220.44 512.195 218.623 517.162C201.781 563.226 159.832 611.53 103.532 649.696C56.0073 681.9 -1.31626 707.614 -71.7134 728.309C-87.952 733.081 -104.567 737.681 -120.634 742.13C-188.203 760.836 -258.072 780.179 -318.847 817.671C-333.073 826.448 -346.414 835.483 -359.313 844.222C-383.285 860.462 -405.928 875.8 -431.44 887.708C-493.194 916.532 -563.509 911.296 -594.995 875.529C-623.224 843.463 -624.176 789.221 -597.535 730.421C-594.624 723.995 -591.366 717.426 -588.214 711.076C-577.021 688.511 -565.446 665.175 -567.761 644.612C-569.779 626.704 -579.669 611.244 -589.232 596.293C-595.03 587.225 -601.026 577.856 -605.177 568.06C-626.818 516.985 -603.358 444.252 -545.402 382.76C-491.373 325.431 -410.609 277.45 -323.817 251.123C-298.853 243.549 -273.459 237.571 -248.9 231.79C-218.602 224.659 -187.273 217.285 -156.785 206.893C-100.147 187.593 -50.143 158.332 -15.9802 124.497C3.18756 105.513 19.9371 90.9504 39.3931 81.581C59.9424 71.6866 84.717 70.0985 105.673 77.3329C125.027 84.0145 138.816 97.1409 149.75 109.101C186.666 149.47 200.044 200.365 187.558 250.764C186.304 255.828 184.788 260.88 183.012 265.92C179.996 274.47 177.05 283.344 174.2 291.924C169.379 306.444 164.391 321.462 158.845 335.6C151.269 354.911 143.495 378.481 150.671 389.458C155.289 396.517 163.985 399.27 173.192 402.185C176.721 403.302 180.37 404.456 183.753 405.872C203.304 414.056 216.901 429.018 223.071 449.146C227.912 465.364 227.95 483.471 223.183 502.318ZM-608.975 770.24C-619.436 812.46 -613.927 849.614 -592.583 873.863C-561.678 908.97 -492.691 914.122 -432.115 885.847C-406.922 874.088 -384.42 858.846 -360.597 842.708C-347.658 833.943 -334.282 824.881 -319.974 816.056C-258.671 778.239 -188.507 758.813 -120.651 740.027C-104.598 735.582 -87.9992 730.986 -71.7917 726.222C-1.82566 705.655 55.1028 680.128 102.251 648.183C157.913 610.45 199.373 562.726 216 517.25C234.314 467.174 220.929 424.268 181.917 407.94C178.615 406.558 175.008 405.417 171.522 404.313C162.438 401.437 153.047 398.466 148.146 390.976C140.645 379.511 148.029 356.571 156.241 335.639C161.766 321.557 166.743 306.569 171.554 292.078C174.408 283.487 177.356 274.605 180.38 266.035C199.654 211.404 187.614 154.823 147.353 110.788C136.547 98.9685 122.939 86.0022 103.948 79.4463C83.6787 72.4477 59.8139 73.935 40.115 83.4199C21.2088 92.5266 4.76745 106.838 -14.1029 125.528C-48.7095 159.803 -99.2952 189.422 -156.541 208.929C-187.215 219.383 -218.641 226.779 -249.032 233.933C-273.532 239.7 -298.863 245.662 -323.706 253.199C-409.802 279.317 -489.889 326.881 -543.432 383.693C-600.706 444.468 -623.906 516.321 -602.536 566.752C-598.429 576.446 -592.463 585.77 -586.695 594.79C-577.05 609.869 -567.074 625.461 -565.02 643.691C-562.644 664.772 -574.365 688.397 -585.696 711.24C-588.838 717.573 -592.085 724.117 -594.978 730.502C-601.011 743.782 -605.694 757.079 -608.975 770.24Z" fill="#6666F2"/>
<path d="M202.941 508.851C201.621 514.172 199.951 519.529 197.938 524.9C181.062 569.949 140.213 616.902 85.864 653.718C39.655 685.006 -16.1444 709.875 -84.7233 729.747C-99.4644 734.02 -114.519 738.177 -129.074 742.196C-195.319 760.49 -263.821 779.409 -323.928 815.035C-336.304 822.369 -347.94 829.677 -359.194 836.743C-383.796 852.196 -407.041 866.792 -432.575 878.181C-461.697 891.171 -493.583 897.008 -522.361 894.613C-551.202 892.212 -575.027 881.691 -589.45 864.984C-616.73 833.382 -617.663 781.962 -592.01 723.913C-589.3 717.781 -586.27 711.518 -583.346 705.464C-572.702 683.446 -561.694 660.677 -564.444 640.701C-566.803 623.545 -576.143 608.382 -585.172 593.717C-591.087 584.116 -597.201 574.185 -601.263 563.827C-621.158 513.059 -597.252 441.709 -540.359 382.06C-486.901 326.01 -407.432 279.186 -322.329 253.596C-298.001 246.281 -273.24 240.467 -249.295 234.846C-218.224 227.551 -186.093 220.007 -154.906 209.152C-100.36 190.164 -51.0542 161.238 -16.0698 127.704C4.93844 107.565 23.23 94.6464 41.4874 87.0504C61.7854 78.6067 84.8578 78.5817 104.785 86.9832C122.063 94.2645 134.807 107.083 146.004 119.852C167.484 144.349 199.172 193.434 183.299 257.517C182.051 262.553 180.501 267.678 178.648 272.891C175.624 281.359 172.775 290.155 170.018 298.666C165.045 314.023 159.906 329.898 153.444 344.789C143.902 366.782 134.999 389.129 139.947 399.6C143.323 406.747 150.994 409.515 159.116 412.446C162.085 413.516 165.155 414.626 168.001 415.963C200.482 431.238 213.375 466.734 202.941 508.851ZM-602.876 762.399C-613.119 803.739 -607.829 839.376 -587.1 863.38C-558.092 896.983 -491.913 902.556 -433.16 876.35C-407.905 865.084 -384.789 850.567 -360.312 835.196C-349.036 828.115 -337.373 820.791 -324.95 813.428C-264.357 777.514 -195.589 758.522 -129.086 740.156C-114.541 736.138 -99.4997 731.984 -84.7796 727.718C-16.6243 707.97 38.7878 683.284 84.6228 652.248C138.361 615.844 178.739 569.452 195.403 524.967C213.453 476.782 201.965 434.776 166.146 417.934C163.375 416.632 160.347 415.539 157.418 414.483C149.357 411.576 141.025 408.564 137.409 400.916C132.201 389.886 141.242 367.12 150.951 344.745C157.367 329.961 162.491 314.134 167.449 298.828C170.208 290.306 173.063 281.493 176.097 272.995C201.375 202.196 166.63 147.662 143.661 121.465C132.577 108.826 119.977 96.1434 102.995 88.9857C83.6874 80.8477 61.4478 80.8246 41.9727 88.9271C24.213 96.3157 6.33185 108.969 -14.2996 128.745C-49.7015 162.681 -99.5467 191.934 -154.648 211.114C-186.033 222.04 -218.262 229.606 -249.431 236.924C-273.32 242.533 -298.022 248.332 -322.237 255.615C-406.668 280.999 -485.483 327.426 -538.47 382.982C-594.711 441.946 -618.348 512.449 -598.696 562.594L-599.98 563.211L-598.696 562.594C-594.679 572.847 -588.593 582.727 -582.709 592.282C-573.606 607.061 -564.194 622.343 -561.796 639.775C-558.976 660.26 -570.121 683.309 -580.897 705.601C-583.811 711.635 -586.834 717.88 -589.526 723.972C-595.228 736.817 -599.694 749.671 -602.876 762.399Z" fill="#6666F2"/>
<path d="M182.886 514.922C181.433 520.775 179.565 526.671 177.293 532.581C160.384 576.614 120.633 622.213 68.2324 657.683C23.3368 688.059 -30.9411 712.084 -97.7007 731.134C-110.711 734.846 -123.965 738.495 -136.782 742.022C-201.963 759.96 -269.363 778.515 -328.982 812.346C-337.573 817.222 -345.783 821.973 -353.72 826.568C-382.019 842.946 -406.46 857.092 -433.692 868.61C-492.668 893.554 -555.834 887.574 -583.886 854.392C-609.802 823.738 -610.741 773.788 -586.467 717.354C-583.96 711.524 -581.166 705.577 -578.465 699.828C-568.372 678.346 -557.939 656.136 -561.11 636.736C-563.784 620.378 -572.568 605.581 -581.064 591.272C-587.118 581.074 -593.379 570.528 -597.337 559.538L-596.088 558.957L-597.337 559.538C-615.504 509.102 -591.156 439.139 -535.304 381.298C-482.423 326.532 -404.242 280.865 -320.822 256.007C-297.101 248.938 -272.948 243.285 -249.591 237.818C-217.767 230.37 -184.861 222.667 -152.994 211.339C-100.559 192.697 -51.9512 164.107 -16.1231 130.836C4.20512 111.959 23.748 99.404 43.6232 92.4528C70.5929 83.018 92.9878 90.9778 103.935 96.5623C119.816 104.666 131.595 117.789 142.298 130.533C181.013 176.642 192.389 229.651 174.325 279.798C171.259 288.312 168.462 297.162 165.756 305.726C160.676 321.789 155.426 338.396 148.084 353.909L146.759 356.709C136.266 378.843 126.361 399.751 129.246 409.697C131.343 416.92 137.984 419.714 145.018 422.67C147.443 423.693 149.953 424.746 152.283 426.001C181.732 441.845 192.769 475.03 182.886 514.922ZM-596.371 753.478C-606.463 794.207 -601.505 829.313 -581.608 852.849C-554.074 885.42 -492.075 891.288 -434.184 866.806C-407.188 855.388 -382.851 841.303 -354.672 824.993C-346.726 820.394 -338.51 815.638 -329.903 810.754C-269.843 776.673 -202.201 758.055 -136.788 740.049C-123.98 736.525 -110.732 732.878 -97.7407 729.17C-31.3945 710.239 22.5048 686.391 67.0369 656.263C118.847 621.189 158.14 576.127 174.844 532.63C192.829 485.794 183.466 445.65 150.412 427.868C148.152 426.653 145.68 425.614 143.291 424.608C136.262 421.649 128.992 418.595 126.725 410.785C123.679 400.278 133.736 379.061 144.382 356.596L145.707 353.799C152.983 338.428 158.21 321.892 163.266 305.9C165.976 297.318 168.783 288.444 171.864 279.892C189.726 230.289 178.413 177.801 140.018 132.071C129.403 119.432 117.733 106.424 102.098 98.4433C91.4732 93.0246 69.7806 85.2853 43.8822 94.3443C24.5468 101.108 5.46767 113.385 -14.448 131.877C-50.6654 165.509 -99.7695 194.398 -152.716 213.221C-184.785 224.623 -217.798 232.349 -249.72 239.821C-273.021 245.274 -297.12 250.914 -320.735 257.95C-403.513 282.618 -481.057 327.903 -533.485 382.197C-588.709 439.383 -612.789 508.534 -594.837 558.368C-590.919 569.246 -584.693 579.742 -578.665 589.892C-570.11 604.301 -561.265 619.2 -558.551 635.799C-555.301 655.688 -565.868 678.183 -576.084 699.926C-578.778 705.663 -581.562 711.589 -584.056 717.384C-589.268 729.454 -593.385 741.522 -596.371 753.478Z" fill="#6666F2"/>
<path d="M162.578 521.712C161.051 527.862 159.057 534.06 156.609 540.27C139.669 583.29 101.017 627.536 50.5612 661.663C6.96896 691.129 -45.7864 714.311 -110.725 732.536C-121.654 735.603 -132.773 738.651 -143.526 741.596C-208.01 759.264 -274.692 777.532 -334.085 809.67C-370.925 829.603 -401.738 845.898 -434.859 859.043C-462.169 869.885 -491.4 874.502 -517.169 872.042C-544.058 869.476 -565.222 859.712 -578.372 843.803C-602.92 814.105 -603.872 765.627 -580.976 710.795C-578.671 705.277 -576.111 699.652 -573.637 694.219C-563.662 672.301 -554.238 651.597 -557.824 632.768C-560.779 617.245 -569.005 602.901 -576.96 589.023C-583.183 578.163 -589.618 566.935 -593.461 555.241C-609.918 505.159 -585.125 436.581 -530.291 380.521C-477.984 327.046 -401.098 282.533 -319.347 258.397C-296.209 251.565 -272.638 246.07 -249.847 240.754C-217.292 233.163 -183.629 225.313 -151.112 213.507C-100.807 195.243 -52.8947 166.989 -16.2031 133.954C3.76901 115.97 24.6077 103.822 45.7332 97.8447C70.5426 90.8271 90.6004 98.4791 103.058 106.134C116.506 114.393 126.675 126.387 138.571 141.206C162.957 171.587 187.747 218.188 174.211 272.816C173.078 277.389 171.669 282.017 169.984 286.701C166.878 295.286 164.12 304.219 161.451 312.859C156.279 329.604 150.931 346.92 142.701 363.032C140.543 367.255 138.371 371.41 136.256 375.457C126.228 394.634 117.566 411.193 118.498 419.823C119.286 427.109 124.895 429.946 130.832 432.951C132.732 433.91 134.696 434.906 136.531 436.059C162.529 452.428 171.85 484.295 162.578 521.712ZM-589.901 744.474C-599.854 784.636 -595.238 819.247 -576.158 842.324C-550.183 873.745 -492.242 879.889 -435.253 857.267C-402.269 844.173 -372.858 828.627 -334.911 808.093C-275.12 775.739 -208.225 757.411 -143.534 739.687C-132.784 736.742 -121.676 733.698 -110.753 730.633C-46.2175 712.523 6.16932 689.514 49.3983 660.291C99.2957 626.538 137.511 582.81 154.248 540.302C171.784 495.759 164.276 456.476 134.638 437.801C132.864 436.683 130.932 435.707 129.064 434.764C123.075 431.734 116.882 428.603 116.021 420.644C115.037 411.519 123.823 394.715 134.001 375.255C136.111 371.218 138.285 367.064 140.434 362.854C148.576 346.916 153.895 329.69 159.042 313.033C161.717 304.371 164.484 295.415 167.605 286.783C189.286 226.853 162.574 175.337 136.352 142.67C124.14 127.457 114.468 116.056 101.18 107.893C89.0655 100.451 69.6205 92.9948 45.7696 99.7431C25.2211 105.555 4.90136 117.418 -14.6235 134.999C-51.679 168.364 -100.047 196.891 -150.818 215.325C-183.544 227.207 -217.315 235.081 -249.972 242.697C-272.717 248.002 -296.236 253.485 -319.273 260.287C-400.407 284.24 -476.684 328.389 -528.55 381.414C-582.773 436.851 -607.3 504.65 -591.032 554.154C-587.228 565.731 -580.824 576.906 -574.633 587.713C-566.631 601.675 -558.357 616.112 -555.361 631.836C-551.684 651.142 -561.67 673.082 -571.328 694.299C-573.794 699.719 -576.346 705.322 -578.637 710.808C-583.355 722.069 -587.12 733.321 -589.901 744.474Z" fill="#6666F2"/>
<path d="M143.684 524.269C141.727 532.11 139.133 540.016 135.922 547.933C118.951 589.936 81.3955 632.83 32.888 665.614C-9.40841 694.176 -60.6422 716.513 -123.743 733.903C-132.028 736.185 -140.31 738.448 -148.591 740.693C-212.978 758.214 -279.556 776.333 -339.182 806.96C-372.643 824.144 -400.697 836.451 -436.018 849.436C-492.187 870.087 -548.451 863.397 -572.84 833.173C-596.025 804.44 -596.98 757.428 -575.46 704.198C-573.36 699 -571.035 693.713 -568.789 688.6C-559.398 667.223 -550.522 647.033 -554.518 628.763C-557.718 614.138 -565.373 600.33 -572.776 586.974C-579.202 575.382 -585.848 563.393 -589.558 550.909C-596.866 526.333 -594.701 497.316 -583.313 467.013C-571.96 436.779 -552.013 406.784 -525.257 379.712C-473.543 327.539 -397.947 284.181 -317.856 260.756C-295.281 254.153 -272.271 248.809 -250.021 243.642C-216.755 235.917 -182.356 227.929 -149.206 215.639C-101.071 197.796 -53.8572 169.879 -16.262 137.029C3.62843 119.652 25.8018 107.955 47.8651 103.205C71.8447 98.0435 90.6493 107.134 102.202 115.668C113.755 124.202 122.437 135.575 132.498 148.746L134.865 151.838C171.857 200.123 182.226 247.794 165.664 293.554C162.531 302.215 159.809 311.229 157.176 319.943C151.913 337.371 146.47 355.393 137.341 372.106C124.012 396.503 112.647 418.765 107.678 430.204C105.01 436.362 109.207 438.623 114.066 441.253C116.577 442.61 119.171 444.013 120.819 446.056C144.915 456.897 153.058 486.436 143.684 524.269ZM-583.407 735.339C-593.23 774.977 -588.955 809.13 -570.699 831.757C-546.759 861.424 -491.498 867.974 -436.315 847.687C-403.579 835.826 -371.291 821.663 -339.902 805.397C-279.924 774.59 -213.156 756.421 -148.589 738.85C-140.316 736.599 -132.038 734.336 -123.754 732.063C-61.0476 714.782 -10.176 692.612 31.7708 664.287C79.7455 631.863 116.88 589.457 133.653 547.945C153.137 499.722 147.39 460.406 119.012 447.785L118.851 447.714L118.756 447.588C117.276 445.681 114.752 444.317 112.311 442.999C107.353 440.316 102.219 437.543 105.424 430.171C110.489 418.499 121.616 396.71 135.178 371.885C144.198 355.375 149.608 337.459 154.841 320.131C157.479 311.392 160.21 302.354 163.361 293.643C179.733 248.406 169.414 201.166 132.697 153.237L130.33 150.145C120.325 137.046 111.685 125.733 100.281 117.309C89.0265 108.997 70.7649 100.129 47.6799 105.095C26.2253 109.715 4.62588 121.122 -14.7851 138.08C-52.715 171.223 -100.348 199.388 -148.907 217.386C-182.271 229.755 -216.775 237.768 -250.152 245.518C-272.355 250.674 -295.316 256.009 -317.799 262.582C-397.299 285.836 -472.311 328.848 -523.598 380.592C-576.839 434.306 -601.812 500.758 -587.211 549.891C-583.538 562.252 -576.924 574.185 -570.53 585.725C-563.086 599.153 -555.39 613.033 -552.153 627.83C-548.056 646.556 -557.461 667.96 -566.557 688.65C-568.797 693.749 -571.113 699.02 -573.203 704.187C-577.427 714.61 -580.836 725.017 -583.407 735.339Z" fill="#6666F2"/>
<path d="M123.977 529.447C121.811 538.1 118.897 546.829 115.254 555.566C98.2521 596.554 61.7947 638.095 15.2291 669.538C-25.7753 697.201 -75.4888 718.693 -136.756 735.247C-141.418 736.507 -146.077 737.763 -150.733 739.015C-216.051 756.602 -283.593 774.788 -344.275 804.223C-376.13 819.673 -401.116 827.903 -425.282 835.861C-429.234 837.163 -433.188 838.466 -437.18 839.8C-483.111 855.164 -541.163 855.776 -567.313 822.511C-589.135 794.755 -590.099 749.213 -569.957 697.563C-568.061 692.701 -565.975 687.763 -563.957 682.987C-555.147 662.136 -546.827 642.441 -551.227 624.719C-554.621 611.047 -561.702 597.884 -568.549 585.147C-575.221 572.74 -582.119 559.91 -585.674 546.535L-584.536 546.059L-585.674 546.535C-598.971 496.501 -573.898 432.248 -520.233 378.851C-469.114 327.986 -394.806 285.781 -316.362 263.058C-294.322 256.673 -271.853 251.479 -250.125 246.458C-216.163 238.608 -181.046 230.489 -147.286 217.714C-101.373 200.341 -54.8558 172.759 -16.3031 140.052C9.3708 118.271 33.9294 110.881 50.0102 108.518C68.6039 105.785 85.8801 111.384 101.362 125.155C110.184 132.999 117.076 142.684 125.054 153.896C127.031 156.675 129.059 159.524 131.179 162.428C164.128 207.578 175.148 247.697 165.286 287.513C164.222 291.804 162.917 296.092 161.371 300.375C158.224 309.103 155.538 318.18 152.944 326.958C147.59 345.083 142.052 363.827 131.999 381.153C125.678 392.047 119.314 402.324 113.7 411.391C106.044 423.753 99.982 433.544 97.0116 439.985C96.8324 445.686 99.1029 448.294 101.504 451.053C102.935 452.574 104.142 454.249 105.111 456.06C126.17 466.34 132.781 493.917 123.977 529.447ZM-576.899 726.047C-586.609 765.227 -582.686 798.972 -565.24 821.157C-539.572 853.808 -482.522 853.184 -437.368 838.081C-433.373 836.745 -429.41 835.437 -425.455 834.137C-401.401 826.215 -376.529 818.024 -344.896 802.68C-283.907 773.094 -216.201 754.866 -150.724 737.236C-146.068 735.982 -141.41 734.726 -136.753 733.468C-75.8731 717.02 -26.5123 695.689 14.1479 668.259C60.2048 637.159 96.2605 596.082 113.068 555.562C132.647 508.368 128.805 469.944 103.283 457.674L103.082 457.576L102.994 457.395C102.058 455.602 100.875 453.948 99.4603 452.454C96.9981 449.624 94.4506 446.701 94.697 440.405L94.7038 440.246L94.7795 440.079C97.7804 433.508 103.916 423.6 111.683 411.058C117.29 402.006 123.645 391.747 129.943 380.883C139.864 363.786 145.366 345.161 150.688 327.148C153.288 318.345 155.977 309.241 159.141 300.461C174.87 256.856 165.31 213.417 129.068 163.755C126.947 160.845 124.914 157.993 122.934 155.212C114.993 144.055 108.136 134.422 99.415 126.662C84.3051 113.22 67.5524 107.739 49.6233 110.373C33.9871 112.672 10.096 119.867 -14.9248 141.094C-53.7867 174.063 -100.686 201.868 -146.982 219.388C-180.962 232.247 -216.192 240.39 -250.262 248.266C-271.947 253.278 -294.372 258.462 -316.325 264.821C-394.201 287.381 -467.951 329.258 -518.658 379.713C-571.75 432.541 -596.562 496.098 -583.409 545.582C-579.89 558.829 -573.023 571.602 -566.381 583.953C-559.502 596.746 -552.389 609.975 -548.959 623.785C-544.448 641.948 -553.267 662.819 -561.797 683.006C-563.814 687.771 -565.89 692.695 -567.777 697.53C-571.503 707.072 -574.548 716.595 -576.896 726.046L-576.899 726.047Z" fill="#6666F2"/>
<path d="M104.89 533.762C102.409 543.613 99.0176 553.553 94.7452 563.495C77.7048 603.485 42.3241 643.693 -2.31526 673.813C-42.0509 700.593 -90.2668 721.252 -149.72 736.974C-165.581 741.169 -181.846 744.995 -197.577 748.696C-250.002 761.031 -304.213 773.783 -349.205 801.789L-349.403 801.912L-349.62 801.979C-364.395 806.462 -377.444 811.409 -388.955 815.773C-406.813 822.543 -422.249 828.395 -438.422 830.605C-483.882 851.479 -538.085 843.445 -561.912 812.264C-582.38 785.483 -583.353 741.39 -564.577 691.284C-562.887 686.771 -561.035 682.191 -559.244 677.763C-551.021 657.412 -543.244 638.184 -548.05 620.994C-551.584 608.341 -558.081 595.929 -564.362 583.924C-571.334 570.603 -578.544 556.829 -581.916 542.442L-580.817 541.999L-581.92 542.443C-593.551 492.836 -568.024 429.901 -515.306 378.19C-464.767 328.619 -391.713 287.546 -314.871 265.504C-293.337 259.327 -271.373 254.275 -250.133 249.39C-215.481 241.421 -179.65 233.18 -145.287 219.905C-101.644 203.047 -55.8022 175.786 -16.2045 143.15C10.274 121.327 35.675 115.2 52.3216 113.903C70.5482 112.483 86.3736 119.292 100.712 134.717C107.21 141.713 112.689 150.206 118.487 159.2C121.382 163.688 124.376 168.327 127.696 173.115C153.752 210.556 163.975 256.812 157.327 307.184C153.631 334.802 142.805 364.358 126.857 390.399C115.993 408.138 104.566 424.32 96.2229 436.137C92.2469 441.766 88.8071 446.636 86.399 450.3C85.2422 456 86.4694 458.612 87.7698 461.375C88.5679 462.928 89.1727 464.581 89.5781 466.318C107.82 476.089 113.047 500.849 104.89 533.762ZM-349.931 800.36C-304.484 772.135 -250.08 759.336 -197.467 746.958C-181.757 743.261 -165.513 739.439 -149.695 735.257C-90.6205 719.635 -42.7488 699.132 -3.34783 672.579C40.8111 642.787 75.8006 603.02 92.6541 563.47C112.648 516.556 110.759 479.901 87.726 467.806L87.4758 467.675L87.4246 467.416C87.0435 465.674 86.4493 464.02 85.6489 462.473C84.2497 459.501 82.93 456.694 84.2399 450.437L84.2754 450.264L84.3873 450.092C86.8221 446.378 90.3227 441.422 94.3741 435.685C102.697 423.897 114.097 407.754 124.918 390.085C140.491 364.657 151.496 334.593 155.112 307.605C161.718 257.546 151.557 211.577 125.662 174.368C122.335 169.566 119.333 164.917 116.433 160.423C110.658 151.472 105.202 143.017 98.7704 136.094C84.7517 121.006 69.3786 114.34 51.7712 115.712C35.5829 116.975 10.8765 122.937 -14.9029 144.183C-54.7844 177.054 -100.972 204.514 -144.96 221.508C-179.548 234.869 -215.49 243.132 -250.257 251.131C-271.46 256.006 -293.378 261.049 -314.831 267.202C-391.131 289.091 -463.649 329.851 -513.792 379.034C-565.962 430.205 -591.223 492.481 -579.72 541.557C-576.38 555.809 -569.202 569.521 -562.262 582.782C-555.952 594.835 -549.432 607.299 -545.866 620.063C-540.946 637.68 -549.179 658.051 -557.142 677.751C-558.928 682.169 -560.773 686.736 -562.456 691.226C-581.048 740.859 -580.126 784.51 -559.908 810.969C-536.481 841.627 -483.253 849.536 -438.727 828.982L-438.496 828.874L-438.263 828.844C-422.355 826.705 -407.02 820.891 -389.265 814.161C-377.759 809.799 -364.725 804.858 -349.931 800.36Z" fill="#6666F2"/>
<path d="M147.548 336.67C142.13 358.532 132.57 380.83 120.096 400.221C101.726 428.779 81.1686 452.919 74.2238 461.055C72.5988 464.944 71.9884 468.789 72.4363 472.315C72.5862 473.844 72.6106 475.412 72.5094 477.012C92.868 489.19 92.9498 525.396 72.689 571.656C55.6445 610.564 21.4171 649.361 -21.2162 678.088C-59.6154 703.933 -106.242 723.715 -163.758 738.564C-179.129 742.533 -194.877 746.136 -210.107 749.622C-260.228 761.093 -312.056 772.958 -355.017 799.177L-355.234 799.31L-355.473 799.372C-368.81 802.769 -380.601 806.44 -391.005 809.679C-409.021 815.289 -424.593 820.137 -440.203 821.052C-483.296 840.325 -534.471 831.85 -556.817 801.698C-582.939 766.461 -569.709 713.417 -559.508 684.934C-558.025 680.797 -556.414 676.606 -554.851 672.552C-547.226 652.719 -540.029 633.991 -545.217 617.34C-548.812 605.81 -554.7 594.306 -560.396 583.186C-567.722 568.876 -575.298 554.079 -578.449 538.577L-577.39 538.167L-578.449 538.577C-588.417 489.537 -562.494 428.038 -510.798 378.089C-460.951 329.923 -389.288 290.071 -314.185 268.748C-293.179 262.785 -271.747 257.884 -251.02 253.147C-215.754 245.084 -179.294 236.749 -144.409 222.999C-91.6059 202.184 -46.2409 170.353 -17.4791 147.317C11.4092 124.178 39.1537 120.534 53.1203 120.423C70.9885 120.279 85.3965 128.207 98.4622 145.374C103.098 151.462 107.084 158.503 111.307 165.954C114.737 172.015 118.289 178.283 122.584 184.811C147.168 222.184 157.191 267.17 151.572 314.905C150.716 322.078 149.373 329.344 147.548 336.67ZM70.8055 465.428C71.1849 463.936 71.669 462.433 72.2553 460.927L72.3196 460.755L72.4575 460.594C79.2348 452.654 99.858 428.483 118.259 399.879C134.765 374.218 146.126 343.402 149.429 315.335C155.016 267.881 145.049 223.156 120.605 185.997C116.292 179.439 112.733 173.159 109.293 167.082C105.089 159.659 101.117 152.647 96.5258 146.614C83.7259 129.795 69.707 122.026 52.4125 122.166C38.8257 122.276 11.8376 125.822 -16.2747 148.339C-45.2184 171.522 -90.8894 203.562 -144.084 224.531C-179.194 238.372 -215.777 246.735 -251.151 254.821C-271.841 259.552 -293.234 264.442 -314.164 270.385C-388.753 291.561 -459.904 331.119 -509.372 378.918C-560.544 428.36 -586.202 489.224 -576.339 537.759C-573.218 553.122 -565.676 567.853 -558.382 582.099C-552.666 593.263 -546.758 604.805 -543.138 616.418C-537.817 633.472 -545.109 652.435 -552.829 672.514C-554.384 676.556 -555.991 680.739 -557.466 684.857C-567.582 713.087 -580.696 765.65 -554.888 800.472C-532.91 830.127 -482.63 838.47 -440.425 819.466L-440.157 819.345L-439.891 819.33C-424.533 818.474 -409.787 813.881 -391.119 808.069C-380.74 804.839 -368.985 801.178 -355.668 797.778C-312.278 771.359 -260.281 759.458 -209.993 747.952C-194.783 744.47 -179.055 740.87 -163.725 736.913C-106.573 722.16 -60.2842 702.53 -22.2115 676.903C19.963 648.482 53.824 610.106 70.6828 571.616C90.7591 525.783 90.73 490.053 70.613 478.367L70.3099 478.19L70.3402 477.835C70.4666 476.183 70.4516 474.565 70.2953 472.991C69.9984 470.591 70.1703 468.044 70.8055 465.428Z" fill="#6666F2"/>
<path d="M141.323 346.441C135.845 368.55 126.021 390.863 113.055 410.139C95.3076 436.521 74.9638 459.293 61.7804 471.871C59.4226 475.868 57.6338 479.926 56.4574 483.949C56.1106 485.055 55.7226 486.301 55.1891 487.793C72.7848 499.75 71.014 534.105 50.3954 579.859C33.3527 617.678 0.287979 655.046 -40.3329 682.383C-77.397 707.293 -122.421 726.191 -177.983 740.158C-192.873 743.901 -208.114 747.282 -222.85 750.552C-272.842 761.649 -320.062 772.125 -360.971 796.555L-361.206 796.696L-361.462 796.748C-372.684 799.034 -382.746 801.451 -391.623 803.585C-411.242 808.297 -426.759 812.025 -442.106 811.493C-482.816 829.155 -530.952 820.243 -551.822 791.138C-576.035 757.365 -563.919 706.147 -554.538 678.615C-553.266 674.878 -551.893 671.097 -550.564 667.44C-543.545 648.118 -536.915 629.862 -542.494 613.739C-546.06 603.439 -551.316 593.007 -556.397 582.918C-564.163 567.505 -572.193 551.568 -575.08 534.789L-574.063 534.413L-575.08 534.789C-583.414 486.362 -557.107 426.329 -506.422 378.117C-457.287 331.38 -387.037 292.76 -313.685 272.155C-293.192 266.399 -272.276 261.65 -252.049 257.054C-216.205 248.914 -179.144 240.497 -143.772 226.274C-104.03 210.289 -62.0625 185.195 -19.0304 151.686C2.93632 134.582 29.4105 125.642 53.6057 127.156C76.3792 128.581 88.6502 144.425 95.9012 156.218C99.1259 161.466 101.931 167.317 104.9 173.514C108.466 180.954 112.152 188.646 117.157 196.689C140.299 233.881 150.099 277.481 145.496 322.771C144.698 330.557 143.304 338.462 141.323 346.441ZM52.9032 488.76L53.067 488.308C53.6727 486.645 54.0804 485.344 54.4728 484.087C55.7009 479.894 57.5717 475.663 60.0392 471.499L60.2738 471.202C73.3456 458.757 93.6222 436.079 111.322 409.771C128.788 383.805 140.499 352.251 143.453 323.196C148.031 278.157 138.281 234.794 115.259 197.794C110.226 189.705 106.528 181.988 102.95 174.525C99.9931 168.353 97.1981 162.523 93.9992 157.32C86.8836 145.745 74.8698 130.198 52.7847 128.815C41.6437 128.118 12.4562 129.048 -17.9016 152.687C-61.1714 186.38 -103.406 211.628 -143.431 227.726C-179.033 242.043 -216.215 250.488 -252.172 258.654C-272.363 263.241 -293.243 267.982 -313.664 273.718C-386.53 294.185 -456.295 332.528 -505.065 378.921C-555.25 426.655 -581.299 486.092 -573.048 534.034C-570.186 550.661 -562.19 566.53 -554.458 581.878C-549.361 591.994 -544.09 602.458 -540.502 612.82C-534.792 629.331 -541.504 647.806 -548.605 667.368C-549.932 671.018 -551.303 674.792 -552.571 678.514C-561.867 705.806 -573.896 756.584 -549.96 789.973C-529.422 818.615 -482.106 827.386 -442.233 809.941L-441.924 809.804L-441.631 809.816C-426.517 810.395 -411.082 806.685 -391.54 801.991C-382.706 799.869 -372.702 797.467 -361.534 795.181C-320.225 770.583 -270.657 759.583 -222.718 748.945C-207.999 745.679 -192.78 742.301 -177.927 738.569C-122.725 724.694 -78.0284 705.946 -41.2825 681.245C-1.10108 654.199 31.6214 617.225 48.4841 579.802C68.9647 534.357 70.7456 500.411 53.2562 488.993L52.9032 488.76Z" fill="#6666F2"/>
<path d="M135.171 356.004C129.633 378.355 119.53 400.735 106.036 419.99C90.4581 442.217 72.0045 460.284 58.5316 473.474C54.9835 476.947 51.9204 479.946 49.3589 482.584C43.5718 488.543 42.0607 491.242 40.1476 494.662C39.5182 495.785 38.8146 497.043 37.9044 498.509C52.6788 510.192 49.1486 542.747 28.1586 587.994C11.1216 624.721 -20.7858 660.666 -59.3963 686.612C-95.1355 710.599 -138.563 728.615 -192.16 741.692C-206.585 745.211 -221.329 748.371 -235.587 751.426C-283.134 761.618 -328.046 771.243 -366.896 793.883L-367.148 794.03L-367.417 794.069C-375.529 795.297 -383.066 796.563 -389.718 797.681C-412.215 801.459 -428.513 804.198 -443.999 801.905C-482.326 817.947 -527.431 808.604 -546.825 780.545C-569.136 748.264 -558.118 698.846 -549.568 672.256C-548.504 668.946 -547.38 665.645 -546.262 662.361C-539.846 643.508 -533.789 625.703 -539.759 610.081C-543.182 601.125 -547.567 592.349 -552.211 583.057C-560.529 566.409 -569.13 549.194 -571.705 530.955C-578.442 483.176 -551.751 424.602 -502.042 378.087C-453.632 332.786 -384.79 295.393 -313.175 275.499C-293.18 269.945 -272.767 265.342 -253.026 260.889C-216.615 252.678 -178.967 244.19 -143.123 229.483C-105.668 214.114 -65.5807 190.076 -20.5694 155.996C12.0181 131.324 42.4962 132.274 54.0866 133.827C76.0403 136.77 86.6014 153.093 93.3483 166.985C95.5528 171.523 97.4697 176.459 99.5005 181.682C102.689 189.891 106.304 199.195 111.755 208.482C133.532 245.595 143.11 287.809 139.448 330.564C138.729 338.916 137.3 347.415 135.171 356.004ZM35.5559 499.247L35.8879 498.728C36.9284 497.087 37.6751 495.752 38.3976 494.458C40.3905 490.895 41.965 488.081 47.9802 481.891C50.5657 479.227 53.6386 476.219 57.2001 472.732C70.6015 459.612 88.9535 441.646 104.401 419.604C122.866 393.255 134.931 360.956 137.493 331.001C141.135 288.47 131.603 246.465 109.93 209.526C104.44 200.175 100.813 190.831 97.6104 182.592C95.5879 177.386 93.6771 172.47 91.4887 167.964C84.8589 154.31 74.5103 138.27 53.1733 135.41C41.884 133.897 12.2043 132.97 -19.5159 156.985C-64.7467 191.23 -105.062 215.398 -142.771 230.869C-178.846 245.672 -216.616 254.192 -253.142 262.425C-272.849 266.869 -293.229 271.466 -313.155 277.001C-384.316 296.769 -452.694 333.901 -500.756 378.878C-549.985 424.943 -576.422 482.955 -569.751 530.269L-570.727 530.612L-569.751 530.269C-567.202 548.349 -558.631 565.493 -550.35 582.072C-545.696 591.385 -541.301 600.183 -537.861 609.182C-531.752 625.167 -537.884 643.19 -544.375 662.265C-545.488 665.542 -546.61 668.835 -547.671 672.135C-556.159 698.515 -567.096 747.525 -545.031 779.447C-525.932 807.073 -481.568 816.271 -444.025 800.384L-443.674 800.236L-443.359 800.283C-428.1 802.612 -411.889 799.888 -389.45 796.118C-382.861 795.01 -375.405 793.76 -367.375 792.542C-328.157 769.758 -283.118 760.106 -235.436 749.887C-221.196 746.834 -206.471 743.679 -192.082 740.167C-138.833 727.176 -95.7259 709.303 -60.2927 685.525C-22.0931 659.851 9.48726 624.276 26.3513 587.92C47.2514 542.862 50.7506 510.648 35.9549 499.541L35.5559 499.247Z" fill="#6666F2"/>
<path d="M129.339 365.671C123.74 388.273 113.33 410.78 99.2766 430.092C79.7712 456.894 55.0802 478.16 40.3277 490.868L37.193 493.57C28.1843 501.363 26.012 503.773 20.8322 509.537C32.7499 520.89 27.5598 551.716 6.1669 596.488C-10.8737 632.146 -41.6454 666.694 -78.2714 691.273C-112.714 714.354 -154.57 731.502 -206.234 743.697C-220.22 746.999 -234.498 749.941 -248.304 752.785C-293.419 762.08 -336.028 770.861 -372.835 791.724L-373.1 791.875L-373.38 791.903C-376.943 792.246 -380.36 792.581 -383.63 792.909C-411.424 795.668 -429.849 797.497 -445.954 792.848C-481.918 807.283 -524.017 797.501 -541.956 770.481C-561.36 741.252 -554.171 697.718 -544.722 666.353C-543.864 663.5 -542.966 660.658 -542.075 657.832C-536.261 639.41 -530.769 622.003 -537.14 606.839C-540.278 599.376 -543.974 591.99 -547.888 584.172C-556.922 566.117 -566.266 547.447 -568.46 527.49L-567.526 527.176L-568.46 527.49C-573.638 480.368 -546.543 423.216 -497.753 378.329C-450.05 334.442 -382.573 298.252 -312.636 279.044C-293.111 273.678 -273.171 269.217 -253.889 264.9C-216.907 256.624 -178.666 248.064 -142.353 232.863C-97.0177 213.885 -54.1748 184.185 -21.9153 160.431C13.1751 134.593 45.6653 138.724 54.7874 140.606C76.3301 145.05 85.4821 162.851 91.0472 177.865C92.5256 181.849 93.7934 186.103 95.1349 190.608C97.86 199.756 100.949 210.125 106.622 220.415C127.119 257.585 136.474 298.447 133.687 338.577C133.063 347.453 131.61 356.509 129.339 365.671ZM18.4699 510.033L19.3973 509.001C24.6898 503.113 26.877 500.676 36.0444 492.747L39.1824 490.041C54.7984 476.59 78.3963 456.264 97.7356 429.692C117.244 402.889 129.663 369.836 131.811 339.006C134.591 299.073 125.273 258.399 104.862 221.386C99.1428 211.014 96.0388 200.594 93.3002 191.404C91.9639 186.915 90.7 182.675 89.233 178.716C83.7528 163.94 74.7735 146.425 53.7931 142.096C44.8994 140.262 13.2281 136.233 -20.9468 161.397C-53.3412 185.25 -96.3766 215.079 -142.005 234.18C-178.548 249.479 -216.912 258.064 -254.008 266.367C-273.262 270.676 -293.17 275.132 -312.632 280.477C-382.141 299.573 -449.176 335.52 -496.547 379.102C-544.881 423.565 -571.723 480.186 -566.595 526.865C-564.421 546.653 -555.115 565.249 -546.115 583.228C-542.195 591.062 -538.493 598.459 -535.344 605.951C-528.829 621.454 -534.384 639.059 -540.268 657.705C-541.156 660.525 -542.052 663.361 -542.909 666.208C-552.291 697.347 -559.436 740.529 -540.232 769.442C-522.558 796.067 -481.112 805.692 -445.879 791.361L-445.484 791.198L-445.16 791.294C-429.295 795.968 -410.962 794.147 -383.214 791.394C-380.025 791.077 -376.697 790.75 -373.232 790.412C-336.092 769.432 -293.37 760.629 -248.147 751.312C-234.358 748.469 -220.1 745.532 -206.146 742.239C-154.822 730.123 -113.276 713.111 -79.135 690.234C-42.8958 665.912 -12.4332 631.71 4.44021 596.4C25.8189 551.665 30.945 521.118 18.8725 510.389L18.4699 510.033Z" fill="#6666F2"/>
<path d="M123.765 375.396C118.1 398.262 107.368 420.939 92.7211 440.377C70.9752 469.234 43.785 490.934 25.2199 504.745C21.6624 507.39 18.8645 509.405 16.3944 511.183C12.0519 514.212 7.87801 517.418 3.90134 520.781C15.334 534.544 -0.364138 574.212 -15.6531 605.24C-32.7034 639.847 -62.3596 673.015 -97.0148 696.239C-129.731 718.127 -171.186 734.881 -220.233 746.037C-233.805 749.124 -247.638 751.85 -261.015 754.484C-303.692 762.893 -344.001 770.832 -378.766 789.932L-379.045 790.085L-379.33 790.096C-411.271 791.353 -431.745 791.739 -447.938 784.163C-482.1 797.213 -520.39 787.206 -537.16 760.785C-554.78 733.028 -548.411 691.087 -539.951 660.768C-539.296 658.418 -538.623 656.08 -537.946 653.751C-532.727 635.693 -527.796 618.634 -534.587 603.886C-537.25 598.109 -540.166 592.364 -543.255 586.28C-553.237 566.617 -563.56 546.283 -565.289 524.278L-564.398 523.996L-565.289 524.278C-568.939 477.831 -541.436 422.072 -493.509 378.753C-446.505 336.271 -380.371 301.265 -312.066 282.713C-292.986 277.532 -273.493 273.204 -254.641 269.017C-217.09 260.679 -178.26 252.057 -141.48 236.348C-98.8217 218.128 -58.0119 189.93 -23.1103 164.934C6.14299 143.983 36.7597 142.159 55.657 147.439C76.9392 153.385 84.6235 172.668 88.941 188.803C89.8986 192.38 90.6902 196.154 91.5279 200.152C93.6134 210.087 95.9798 221.347 101.696 232.426C121.269 270.356 130.164 308.812 128.131 346.727C127.628 356.098 126.168 365.685 123.765 375.396ZM1.60435 521.036L2.21387 520.51C6.4261 516.902 10.8664 513.472 15.4996 510.244C17.9604 508.474 20.7493 506.469 24.2889 503.835C42.7224 490.114 69.7214 468.574 91.2811 439.964C111.873 412.636 124.657 378.811 126.355 347.153C128.379 309.412 119.516 271.118 100.018 233.332C94.246 222.15 91.8699 210.825 89.7732 200.834C88.9356 196.853 88.1476 193.092 87.1954 189.537C82.9401 173.635 75.3921 154.635 54.6241 148.835C36.1767 143.682 6.30882 145.45 -22.2067 165.874C-57.233 190.96 -98.1944 219.258 -141.118 237.592C-178.133 253.401 -217.084 262.049 -254.753 270.414C-273.574 274.593 -293.036 278.915 -312.059 284.082C-379.959 302.523 -445.677 337.301 -492.365 379.497C-539.861 422.425 -567.116 477.681 -563.502 523.708C-561.786 545.529 -551.502 565.783 -541.558 585.369C-538.467 591.46 -535.547 597.211 -532.878 603C-525.935 618.068 -530.924 635.32 -536.204 653.587C-536.875 655.908 -537.551 658.244 -538.205 660.589C-546.601 690.687 -552.944 732.327 -535.504 759.796C-518.962 785.852 -481.24 795.697 -447.757 782.699L-447.318 782.53L-447.001 782.681C-431.1 790.246 -410.814 789.887 -379.084 788.64C-344.005 769.443 -303.602 761.485 -260.831 753.055C-247.47 750.422 -233.655 747.701 -220.118 744.622C-171.396 733.54 -130.252 716.923 -97.8251 695.228C-63.5265 672.243 -34.1681 639.399 -17.2768 605.118C4.64262 560.631 11.3024 531.693 1.98681 521.43L1.60435 521.036Z" fill="#6666F2"/>
<path d="M118.217 385.018C112.487 408.145 101.419 431.021 86.1555 450.632C62.9935 480.393 33.7298 502.537 13.2541 515.876C7.63484 519.537 3.25933 522.052 -0.600657 524.27C-4.88536 526.651 -9.05302 529.23 -13.0726 531.989C-6.74378 542.421 -14.7374 569.252 -37.4721 613.963C-54.7839 648.007 -82.586 678.98 -115.758 701.175C-147.231 722.195 -187.091 738.065 -234.228 748.344C-247.416 751.219 -260.834 753.728 -273.81 756.158C-314.018 763.674 -351.998 770.778 -384.7 788.108L-384.987 788.26L-385.271 788.254C-416.256 787.625 -435.791 785.388 -449.918 775.445C-481.679 786.855 -517.05 776.423 -532.365 751.061C-544.872 730.346 -545.99 698.775 -535.692 657.205C-535.523 656.523 -535.355 655.844 -535.177 655.158C-534.723 653.371 -534.258 651.59 -533.796 649.821C-529.166 632.058 -524.792 615.287 -532.033 600.908C-533.956 597.09 -535.987 593.215 -538.047 589.279C-549.31 567.768 -560.959 545.524 -562.118 521.052C-563.149 498.049 -557.103 473.255 -544.459 448.629C-531.815 424.003 -512.919 400.221 -489.266 379.162C-442.975 338.093 -378.182 304.273 -311.5 286.371C-292.855 281.367 -273.803 277.173 -255.377 273.116C-217.263 264.72 -177.852 256.046 -140.616 239.821C-99.8519 222.059 -60.7117 194.788 -26.1794 170.727L-24.3159 169.429C6.41667 148.019 38.4289 147.881 56.5048 154.267C77.6521 161.739 83.8107 182.488 86.8137 199.731C87.3891 203.027 87.8233 206.474 88.284 210.122C89.6202 220.717 91.1362 232.725 96.7571 244.424C115.445 283.316 123.893 319.44 122.569 354.863C122.201 364.698 120.745 374.786 118.217 385.018ZM-15.2324 532.018L-14.5667 531.547C-10.2814 528.559 -5.82031 525.779 -1.22258 523.23C2.60617 521.03 6.9464 518.533 12.4996 514.914C32.8097 501.682 61.8385 479.719 84.8 450.216C106.513 422.319 119.661 387.715 120.871 355.285C122.189 320.017 113.773 284.029 95.1418 245.265C89.4608 233.446 87.9376 221.362 86.5923 210.703C86.1338 207.066 85.701 203.631 85.1297 200.356C82.1655 183.342 76.1121 162.878 55.4301 155.569C37.7651 149.33 6.49436 149.454 -23.4959 170.346L-25.3593 171.644C-59.9926 195.776 -99.2556 223.129 -140.265 241C-177.731 257.324 -217.264 266.03 -255.492 274.445C-273.893 278.498 -292.919 282.684 -311.508 287.674C-377.809 305.471 -442.213 339.082 -488.206 379.887C-511.654 400.762 -530.385 424.337 -542.918 448.749C-555.452 473.16 -561.445 497.739 -560.422 520.542C-559.273 544.819 -547.669 566.979 -536.447 588.41C-534.386 592.35 -532.353 596.228 -530.427 600.051C-523.037 614.731 -527.46 631.682 -532.141 649.643C-532.601 651.409 -533.065 653.188 -533.52 654.973C-544.291 697.269 -543.379 729.307 -530.79 750.153C-515.675 775.185 -480.792 785.454 -449.651 774.04L-449.173 773.864L-448.876 774.075C-435.013 783.991 -415.702 786.233 -384.953 786.869C-351.966 769.464 -313.904 762.345 -273.624 754.812C-260.663 752.388 -247.265 749.883 -234.111 747.015C-187.287 736.805 -147.729 721.065 -116.539 700.232C-83.7072 678.267 -56.1764 647.586 -39.0216 613.849C-16.1516 568.878 -8.26756 542.254 -14.9269 532.473L-15.2324 532.018Z" fill="#6666F2"/>
<path d="M112.729 394.533C106.935 417.922 95.5159 441.025 79.6162 460.849C52.5133 494.643 18.9307 516.772 1.32655 526.956C-4.27061 530.16 -10.0061 533.117 -15.8426 535.808C-20.6837 538.019 -25.4344 540.473 -30.0576 543.149C-25.4551 555.375 -41.3506 588.553 -59.265 622.655C-76.5881 655.632 -103.299 685.261 -134.476 706.085C-164.725 726.248 -202.99 741.236 -248.209 750.632C-261.039 753.297 -274.067 755.589 -286.665 757.806C-324.383 764.443 -360.008 770.706 -390.627 786.267L-390.922 786.416L-391.202 786.393C-424.095 783.677 -440.614 778.331 -451.892 766.71C-481.248 776.478 -513.705 765.624 -527.573 741.324C-539.007 721.293 -539.934 691.265 -530.408 649.526L-529.623 646.11C-525.573 628.559 -521.747 611.98 -529.481 597.905L-531.938 593.452C-544.392 570.904 -558.511 545.348 -558.95 517.797C-559.679 472.136 -532.043 420.451 -485.028 379.537C-438.791 339.304 -376.963 307.503 -310.929 289.99C-292.707 285.158 -274.08 281.094 -256.063 277.161C-217.395 268.725 -177.415 260.001 -139.739 243.254C-103.809 227.281 -70.32 204.435 -37.933 182.341C-33.7534 179.49 -29.6113 176.671 -25.5067 173.883C6.7484 152.029 39.2937 153.311 57.362 161.048C78.4874 170.091 83.0735 192.284 84.7076 210.606C84.9862 213.724 85.1383 216.956 85.2983 220.382C85.8211 231.538 86.4144 244.184 91.8415 256.373C103.082 281.629 117.924 320.156 117.03 362.958C116.819 373.23 115.379 383.8 112.729 394.533ZM-32.0037 542.974L-31.343 542.576C-26.4487 539.697 -21.4039 537.074 -16.2551 534.73C-10.4826 532.069 -4.80969 529.146 0.726729 525.979C18.1821 515.881 51.4778 493.938 78.3482 460.437C101.216 431.925 114.728 396.545 115.42 363.376C116.312 320.749 101.51 282.337 90.3007 257.153C84.8142 244.825 84.2157 232.095 83.6889 220.868C83.5281 217.452 83.3782 214.225 83.1031 211.129C81.4888 193.03 76.9784 171.123 56.2776 162.259C38.5937 154.688 6.7635 153.42 -24.754 174.774C-28.8564 177.553 -32.9966 180.371 -37.1748 183.227C-69.6538 205.387 -103.241 228.299 -139.385 244.366C-177.289 261.217 -217.394 269.968 -256.173 278.431C-274.164 282.357 -292.768 286.417 -310.941 291.235C-376.612 308.649 -438.084 340.262 -484.034 380.247C-507.138 400.452 -525.764 423.323 -538.474 447.095C-551.184 470.867 -557.638 494.903 -557.338 517.35L-558.144 517.577L-557.338 517.35C-556.903 544.691 -542.835 570.153 -530.424 592.621L-527.969 597.076C-520.081 611.428 -523.948 628.183 -528.04 645.917L-528.826 649.329C-538.295 690.824 -537.393 720.641 -526.068 740.486C-512.366 764.492 -480.319 775.184 -451.528 765.355L-451.019 765.181L-450.762 765.451C-439.694 777.029 -423.428 782.357 -390.808 785.075C-359.925 769.455 -324.242 763.178 -286.465 756.53C-273.883 754.317 -260.872 752.029 -248.074 749.369C-203.16 740.038 -165.188 725.174 -135.214 705.192C-104.35 684.579 -77.896 655.224 -60.7225 622.531C-42.7044 588.232 -26.7259 554.908 -31.7953 543.45L-32.0037 542.974Z" fill="#6666F2"/>
<path d="M107.238 403.999C101.38 427.649 89.6029 450.993 73.0424 471.07C42.4314 508.183 4.33903 530.256 -10.6209 538.029C-17.1891 541.382 -23.9028 544.39 -30.7042 547.027C-36.2502 549.167 -41.7291 551.597 -47.0975 554.298C-45.481 565.819 -61.9974 596.219 -81.0811 631.346C-98.4154 663.252 -124.034 691.538 -153.22 710.995C-182.251 730.308 -218.922 744.414 -262.209 752.917C-274.72 755.374 -287.394 757.446 -299.647 759.451C-334.832 765.202 -368.065 770.635 -396.577 784.425L-396.876 784.57L-397.146 784.533C-427.901 779.99 -444.382 772.285 -453.881 757.976C-480.822 766.096 -510.375 754.821 -522.808 731.601C-535.938 707.079 -531.23 671.855 -525.663 643.91L-525.435 642.773C-521.948 625.289 -518.654 608.778 -526.953 594.914C-541.798 570.12 -556.255 543.491 -555.804 514.559L-555.044 514.359L-555.804 514.559C-555.1 469.702 -527.072 419.375 -480.811 379.929C-435.327 341.148 -374.802 310.498 -310.386 293.629C-292.571 288.96 -274.356 285.026 -256.741 281.219C-217.534 272.746 -176.993 263.983 -138.894 246.704C-106.79 232.143 -76.5707 211.803 -47.3455 192.133C-40.2388 187.348 -33.5263 182.83 -26.7348 178.357C4.92987 157.497 38.7257 158.047 58.1723 167.847C79.6069 178.643 82.3551 203.635 82.5576 221.492C82.593 224.505 82.5078 227.622 82.4165 230.922C82.0954 242.558 81.7339 255.748 86.8868 268.336C99.7371 299.71 111.604 333.876 111.453 371.066C111.416 381.752 110.004 392.783 107.238 403.999ZM-48.7708 553.945L-48.1672 553.629C-42.5417 550.758 -36.789 548.189 -30.961 545.946C-24.2311 543.337 -17.5876 540.361 -11.0873 537.045C21.375 519.863 50.1202 496.855 71.8609 470.653C95.9185 441.489 109.798 405.337 109.928 371.469C110.08 334.423 98.2377 300.349 85.4207 269.045C80.2041 256.304 80.5701 243.021 80.8926 231.303C80.9834 228.012 81.0687 224.905 81.0354 221.906C80.8342 204.252 78.1322 179.554 57.0871 168.95C38.0291 159.346 4.92695 158.793 -26.0536 179.203C-32.8324 183.669 -39.5419 188.185 -46.6443 192.966C-75.9526 212.692 -106.257 233.089 -138.546 247.735C-176.875 265.123 -217.533 273.905 -256.854 282.405C-274.448 286.207 -292.642 290.14 -310.409 294.791C-374.489 311.573 -434.682 342.047 -479.896 380.602C-525.779 419.729 -553.588 469.65 -554.28 514.15C-554.729 542.871 -540.326 569.39 -525.542 594.093C-517.088 608.211 -520.416 624.887 -523.938 642.542L-524.164 643.678C-529.702 671.478 -534.389 706.505 -521.377 730.81C-509.082 753.778 -479.868 764.891 -453.43 756.662L-452.898 756.497L-452.69 756.815C-443.397 771.062 -427.165 778.734 -396.687 783.266C-367.935 769.434 -334.658 763.994 -299.434 758.235C-287.199 756.236 -274.54 754.166 -262.063 751.716C-219.069 743.269 -182.683 729.284 -153.915 710.146C-125.022 690.883 -99.6418 662.848 -82.4493 631.205C-63.214 595.799 -46.6001 565.221 -48.684 554.404L-48.7708 553.945Z" fill="#6666F2"/>
<path d="M101.826 413.432C95.9045 437.337 83.7565 460.942 66.5143 481.304C33.6132 520.16 -6.70327 541.664 -22.5056 549.106C-31.0005 553.103 -38.2882 555.664 -45.333 558.139C-51.65 560.245 -57.9226 562.686 -64.1023 565.444C-64.9911 573.963 -75.5407 592.334 -90.0426 617.596C-94.1523 624.755 -98.4024 632.158 -102.846 640.049C-115.115 661.861 -137.058 692.73 -171.914 715.917C-199.738 734.391 -234.813 747.612 -276.158 755.215C-288.394 757.464 -300.756 759.312 -312.709 761.097C-345.311 765.974 -376.103 770.573 -402.478 782.599L-402.773 782.734L-403.029 782.679C-432.484 776.323 -448.296 766.31 -455.804 749.24C-480.322 755.708 -506.976 744.018 -517.99 721.886C-529.076 699.606 -525.925 668.544 -520.87 638.301C-518.188 622.265 -515.416 605.682 -524.376 591.931C-538.287 570.59 -554.066 542.139 -552.608 511.335C-550.53 467.324 -522.095 418.352 -476.548 380.336C-431.835 343.015 -372.616 313.521 -309.795 297.279C-292.381 292.777 -274.568 288.967 -257.34 285.281C-217.603 276.779 -176.512 267.988 -138.004 250.168C-109.034 236.763 -81.5635 218.423 -55.0003 200.685C-45.6616 194.45 -36.842 188.56 -27.9204 182.847C5.08951 161.706 40.2879 163.778 59.0193 174.655C75.4373 184.188 82.2464 202.532 80.4521 232.382C80.2727 235.358 79.9735 238.425 79.6583 241.67C78.4821 253.724 77.1511 267.388 81.9791 280.309C92.9792 309.749 105.446 343.117 105.923 379.185C106.078 390.267 104.705 401.745 101.826 413.432ZM-65.4719 564.945L-64.9597 564.705C-58.1759 561.543 -52.0107 559.377 -45.4832 557.085C-38.4908 554.627 -31.2603 552.088 -22.8683 548.137C-7.19452 540.757 32.7796 519.436 65.4163 480.891C90.7002 451.032 104.946 414.107 104.486 379.58C104.011 343.647 91.5674 310.341 80.5872 280.958C75.6985 267.876 77.0407 254.113 78.2232 241.969C78.5399 238.732 78.8376 235.675 79.0169 232.716C80.7933 203.177 74.0988 185.052 57.9495 175.677C39.564 165.004 5.04263 162.95 -27.3028 183.664C-36.2065 189.366 -45.0172 195.25 -54.3463 201.479C-80.9839 219.265 -108.527 237.656 -137.661 251.138C-176.394 269.059 -217.6 277.875 -257.451 286.402C-274.658 290.084 -292.452 293.89 -309.825 298.381C-372.332 314.539 -431.242 343.876 -475.703 380.987C-520.898 418.709 -549.115 467.308 -551.177 510.98L-551.894 511.155L-551.177 510.98C-552.622 541.564 -536.909 569.883 -523.057 591.137C-513.942 605.124 -516.741 621.865 -519.445 638.055C-524.479 668.164 -527.623 699.071 -516.631 721.163C-505.725 743.082 -479.345 754.617 -455.272 747.997L-454.736 747.85L-454.584 748.202C-447.268 765.19 -431.688 775.151 -402.518 781.487C-375.934 769.437 -345.111 764.83 -312.488 759.955C-300.549 758.171 -288.203 756.326 -275.998 754.08C-234.939 746.529 -200.139 733.42 -172.564 715.117C-138.053 692.154 -116.298 661.54 -104.123 639.898C-99.6795 632.001 -95.4297 624.596 -91.3169 617.434C-77.2043 592.854 -66.06 573.449 -65.4974 565.357L-65.4719 564.945Z" fill="#6666F2"/>
<path d="M96.4355 422.744C90.4513 446.905 77.9185 470.788 59.975 491.465C24.9227 531.855 -17.6969 552.921 -34.3923 560.103C-43.6908 564.104 -51.916 566.658 -59.8672 569.126C-67.0359 571.352 -73.8134 573.457 -81.1154 576.5C-83.2592 582.37 -90.0429 593.036 -99.3598 607.691C-106.584 619.052 -115.579 633.192 -124.61 648.684C-136.889 669.737 -158.306 699.335 -190.605 720.775C-217.254 738.421 -250.734 750.76 -290.118 757.451C-302.137 759.494 -314.235 761.109 -325.935 762.67C-355.897 766.67 -384.2 770.448 -408.396 780.711L-408.687 780.835L-408.924 780.766C-437.352 772.603 -452.425 760.157 -457.735 740.442C-480.17 745.346 -503.428 733.501 -513.197 712.112C-523.575 689.4 -519.249 656.585 -516.096 632.626C-513.927 616.164 -512.862 601.513 -521.821 588.879C-542.412 559.843 -551.445 533.402 -549.438 508.041C-546.024 464.913 -517.191 417.299 -472.313 380.67C-428.388 344.819 -370.47 316.473 -309.229 300.853C-292.201 296.511 -274.778 292.82 -257.929 289.257C-217.669 280.734 -176.037 271.923 -137.135 253.555C-110.8 241.122 -85.6965 224.427 -61.4188 208.28C-50.2941 200.88 -39.7846 193.892 -29.1284 187.258C5.44075 165.745 41.221 169.134 59.8372 181.388C80.3987 194.92 87.6488 219.221 78.2903 243.313C72.174 259.067 71.7294 276.442 77.0502 292.203C78.2482 295.752 79.4706 299.328 80.7174 302.931C89.9254 329.688 99.4418 357.357 100.373 387.231C100.745 398.687 99.4237 410.6 96.4355 422.744ZM-408.367 779.647C-383.985 769.37 -355.668 765.591 -325.695 761.589C-314.01 760.028 -301.927 758.416 -289.94 756.378C-250.832 749.734 -217.615 737.502 -191.217 720.02C-159.232 698.788 -137.991 669.42 -125.799 648.52C-116.75 633.004 -107.75 618.85 -100.521 607.48C-91.0713 592.619 -84.2426 581.882 -82.2938 576.224L-82.1768 575.89L-81.7746 575.721C-74.2258 572.548 -67.2868 570.393 -59.9376 568.111C-52.0362 565.658 -43.8667 563.121 -34.671 559.165C-18.1078 552.04 24.1673 531.142 58.9532 491.062C85.51 460.461 100.116 422.761 99.0236 387.621C98.0997 357.857 88.5956 330.239 79.4084 303.529C78.1677 299.926 76.9452 296.35 75.7412 292.8C70.3674 276.867 70.8156 259.307 77.0145 243.338C86.2228 219.619 79.0711 195.677 58.7984 182.333C40.4993 170.291 5.35731 166.942 -28.5691 188.054C-39.1948 194.669 -49.6932 201.649 -60.8042 209.037C-85.1465 225.227 -110.319 241.967 -136.794 254.466C-175.915 272.936 -217.662 281.774 -258.034 290.317C-274.865 293.879 -292.269 297.563 -309.258 301.897C-370.211 317.442 -427.843 345.641 -471.532 381.302C-516.083 417.664 -544.699 464.933 -548.092 507.743L-548.766 507.895L-548.092 507.743C-550.086 532.927 -541.092 559.218 -520.595 588.121C-511.497 600.954 -512.57 615.754 -514.759 632.374C-517.902 656.241 -522.208 688.928 -511.913 711.459C-502.385 732.32 -478.834 744.274 -457.139 739.273L-456.609 739.152L-456.512 739.523C-451.372 759.137 -436.517 771.517 -408.367 779.647Z" fill="#6666F2"/>
<path d="M91.0796 431.572C84.98 456.2 71.9397 480.841 53.4516 501.657C27.3243 531.074 -9.01492 556.397 -46.2494 571.129C-56.3276 575.116 -65.4622 577.656 -74.2957 580.112C-82.3414 582.349 -89.9485 584.465 -98.0898 587.566C-100.17 590.8 -103.745 595.62 -108.242 601.683C-117.819 614.604 -132.294 634.13 -146.35 657.343C-164.227 686.865 -185.398 709.851 -209.276 725.659C-234.749 742.485 -266.637 753.944 -304.046 759.714C-315.917 761.545 -327.818 762.916 -339.326 764.24C-366.573 767.375 -392.309 770.339 -414.284 778.854L-414.561 778.962L-414.778 778.883C-442.352 768.897 -456.613 753.89 -459.62 731.673C-479.569 734.886 -500.01 722.639 -508.376 702.386C-516.54 682.612 -514.006 655.739 -511.765 632.026L-511.294 627C-509.728 609.995 -510.509 597.183 -519.235 585.874C-533.594 567.264 -549.937 538.09 -546.23 504.801C-541.525 462.595 -512.303 416.338 -468.046 381.059C-424.93 346.69 -368.317 319.496 -308.631 304.485C-291.987 300.297 -274.949 296.733 -258.471 293.285C-217.692 284.751 -175.525 275.929 -136.241 257.006C-112.165 245.407 -89.1213 230.093 -66.841 215.286C-54.2768 206.937 -42.411 199.05 -30.3167 191.738C4.23592 170.851 41.6094 174.137 60.6691 188.177C80.7386 202.963 86.8308 228.847 76.1796 254.151C69.0031 271.192 67.5716 288.947 72.1422 304.146C74.0953 310.637 76.2854 317.333 78.4055 323.811C85.8749 346.641 93.5984 370.248 94.8433 395.328C95.4152 406.986 94.1518 419.152 91.0796 431.572ZM-414.196 777.844C-392.063 769.326 -366.32 766.362 -339.077 763.226C-327.583 761.903 -315.699 760.536 -303.858 758.708C-266.713 752.979 -235.083 741.622 -209.844 724.952C-186.195 709.295 -165.203 686.491 -147.449 657.172C-133.359 633.903 -118.859 614.344 -109.261 601.4C-104.671 595.209 -101.046 590.319 -99.0161 587.127L-98.8623 586.886L-98.5647 586.772C-90.2268 583.577 -82.4923 581.427 -74.3034 579.149C-65.5162 576.705 -56.4301 574.18 -46.4462 570.23C-9.49159 555.607 26.5791 530.472 52.5183 501.267C79.98 470.345 95.3313 430.885 93.5851 395.703C92.3439 370.715 84.6333 347.149 77.1765 324.359C75.058 317.878 72.8658 311.177 70.9097 304.682C66.2908 289.322 67.7391 271.378 74.9951 254.143C85.4997 229.197 79.4828 203.636 59.6658 189.037C40.9021 175.212 4.14097 171.96 -29.8163 192.489C-41.8742 199.778 -53.7235 207.652 -66.2673 215.989C-88.6097 230.836 -111.711 246.189 -135.912 257.846C-175.408 276.873 -217.689 285.72 -258.576 294.277C-275.036 297.721 -292.058 301.282 -308.669 305.461C-368.089 320.403 -424.438 347.467 -467.337 381.663C-511.288 416.699 -540.311 462.637 -544.979 504.546L-545.607 504.675L-544.979 504.546C-548.66 537.607 -532.397 566.624 -518.103 585.143C-509.254 596.613 -508.454 609.559 -510.045 626.731L-510.515 631.758C-512.746 655.386 -515.277 682.168 -507.17 701.793C-498.868 721.896 -478.593 734.005 -458.967 730.589L-458.468 730.503L-458.42 730.873C-455.559 752.972 -441.505 767.902 -414.196 777.844Z" fill="#6666F2"/>
<path d="M85.7743 440.799C79.6141 465.672 66.1723 490.614 46.9401 511.799C19.4176 542.119 -18.8613 567.742 -58.084 582.097C-68.9264 586.066 -78.9507 588.588 -88.6445 591.028C-97.5822 593.277 -106.029 595.402 -115.019 598.56C-135.484 620.034 -153.3 642.67 -168.06 665.951C-186.212 694.772 -205.793 715.883 -227.915 730.492C-252.246 746.511 -282.539 757.089 -317.953 761.924C-329.771 763.538 -341.552 764.642 -352.944 765.707C-377.38 767.993 -400.463 770.157 -420.156 776.942L-420.418 777.033L-420.61 776.948C-447.441 765.126 -460.811 747.427 -461.479 722.847C-478.921 724.363 -496.559 711.719 -503.546 692.613C-509.791 675.537 -508.383 652.811 -507.141 632.761C-506.899 628.85 -506.662 625.019 -506.484 621.324C-505.864 608.341 -506.663 594.689 -516.64 582.819C-528.781 568.371 -548.353 538.596 -543.017 501.516C-537.084 460.261 -507.461 415.369 -463.774 381.4C-421.49 348.52 -366.179 322.476 -308.033 308.065C-291.761 304.032 -275.097 300.587 -258.983 297.256C-217.697 288.72 -174.996 279.893 -135.344 260.402C-113.23 249.531 -92.0032 235.399 -71.4749 221.732C-58.3597 212.999 -44.7983 203.969 -31.5003 196.166C4.6021 174.98 42.6117 179.5 61.4997 194.915C81.0883 210.903 86.0207 238.391 74.0736 264.934C68.2321 277.912 62.3062 297.31 67.2406 316.031C69.5261 324.695 72.2475 333.221 75.1281 342.246C81.3836 361.839 87.8523 382.1 89.3221 403.366C90.1466 415.363 88.9546 427.941 85.7743 440.799ZM-420.007 775.995C-400.183 769.214 -377.106 767.055 -352.68 764.766C-341.302 763.699 -329.538 762.598 -317.751 760.99C-282.591 756.187 -252.544 745.703 -228.444 729.837C-206.528 715.366 -187.106 694.408 -169.073 665.776C-154.227 642.363 -136.304 619.6 -115.713 598.01L-115.564 597.852L-115.352 597.778C-106.205 594.553 -97.6607 592.402 -88.6135 590.124C-78.961 587.696 -68.98 585.181 -58.2208 581.246C-19.2696 566.99 18.7491 541.541 46.0854 511.425C74.8959 479.686 90.6257 439.428 88.155 403.736C86.6897 382.546 80.2332 362.32 73.9888 342.759C71.2327 334.125 68.3815 325.196 66.092 316.519C61.1053 297.601 67.0884 278.013 72.9851 264.91C84.7988 238.67 79.9122 211.508 60.5451 195.7C41.9248 180.503 4.48192 176.029 -31.0529 196.882C-44.3048 204.659 -57.2414 213.272 -70.9391 222.393C-91.517 236.092 -112.796 250.261 -135.021 261.184C-174.88 280.778 -217.687 289.628 -259.082 298.186C-275.181 301.513 -291.829 304.956 -308.07 308.981C-365.978 323.334 -421.046 349.26 -463.127 381.982C-506.533 415.736 -535.962 460.349 -541.851 501.307L-542.433 501.416L-541.851 501.307C-547.147 538.14 -527.678 567.754 -515.6 582.127C-505.497 594.15 -504.686 607.939 -505.311 621.047C-505.488 624.745 -505.726 628.58 -505.969 632.493C-507.206 652.48 -508.609 675.13 -502.409 692.09C-495.468 711.078 -477.954 723.602 -460.772 721.866L-460.321 721.821L-460.314 722.172C-459.777 746.618 -446.592 764.226 -420.007 775.995Z" fill="#6666F2"/>
<path d="M80.4915 449.991C74.2734 475.1 60.4149 500.353 40.4145 521.937C11.5359 553.103 -28.6791 579.027 -69.9215 593.057C-81.5185 597.004 -92.4161 599.507 -102.956 601.929C-112.788 604.187 -122.079 606.322 -131.927 609.533C-146.536 621.105 -170.399 645.03 -189.773 674.548C-202.353 693.718 -220.177 717.951 -246.558 735.314C-269.431 750.326 -298.928 760.29 -331.86 764.129C-343.747 765.515 -355.508 766.316 -366.882 767.091C-388.389 768.559 -408.701 769.941 -426.035 775.035L-426.273 775.105L-426.439 775.017C-452.581 761.339 -464.991 740.818 -463.324 714.026C-478.471 713.842 -492.987 701.083 -498.72 682.85C-503.305 668.267 -502.675 650.122 -502.066 632.575C-501.86 626.633 -501.665 621.021 -501.679 615.658C-501.719 599.929 -505.418 589.197 -514.05 579.774C-535.445 556.419 -544.833 526.702 -539.807 498.245C-532.711 458.018 -502.679 414.457 -459.509 381.759C-418.08 350.38 -364.074 325.487 -307.442 311.665C-291.54 307.783 -275.25 304.458 -259.497 301.244C-217.695 292.707 -174.47 283.889 -134.461 263.818C-114.075 253.594 -94.4644 240.482 -75.4999 227.804C-61.4975 218.444 -47.0205 208.766 -32.7059 200.616C-15.4484 190.792 3.34305 186.055 21.6382 186.917C38.1852 187.795 52.3187 192.924 62.2982 201.671C81.4164 218.809 85.1985 247.879 71.942 275.727C62.1693 296.258 59.0165 313.334 62.3147 327.928C64.6388 338.213 67.9824 348.735 71.2182 358.905C76.5899 375.792 82.146 393.253 83.7747 411.42C84.8776 423.735 83.7734 436.707 80.4915 449.991ZM-425.824 774.144C-408.389 769.062 -388.088 767.68 -366.604 766.216C-355.247 765.443 -343.501 764.642 -331.646 763.258C-308.849 760.6 -275.666 753.489 -247.045 734.705C-220.909 717.505 -203.204 693.423 -190.699 674.366C-171.183 644.623 -147.106 620.521 -132.415 608.912L-132.295 608.818L-132.151 608.771C-122.18 605.51 -112.378 603.259 -102.898 601.081C-92.3956 598.669 -81.5382 596.174 -70.0188 592.255C-29.0362 578.311 10.9269 552.55 39.6263 521.578C69.8386 488.973 85.9394 447.924 82.6936 411.77C81.0696 393.669 75.5243 376.234 70.1621 359.376C66.924 349.192 63.5747 338.662 61.2448 328.353C57.9114 313.613 61.0893 296.379 70.9438 275.679C84.0681 248.113 80.3185 219.342 61.3933 202.374C43.3909 186.233 4.43031 180.365 -32.3173 201.286C-46.577 209.406 -61.0289 219.066 -75.0056 228.41C-94.0145 241.116 -113.67 254.257 -134.154 264.532C-174.362 284.702 -217.693 293.546 -259.595 302.098C-275.334 305.311 -291.61 308.632 -307.484 312.507C-363.902 326.277 -417.687 351.066 -458.932 382.304C-501.841 414.803 -531.668 458.068 -538.737 498.072L-539.272 498.158L-538.737 498.072C-543.73 526.343 -534.389 555.879 -513.11 579.111C-504.38 588.64 -500.638 599.481 -500.598 615.364C-500.585 620.737 -500.78 626.356 -500.987 632.304C-501.593 649.799 -502.22 667.892 -497.666 682.384C-491.963 700.522 -477.537 713.173 -462.586 713.146L-462.204 713.145L-462.227 713.463C-463.987 740.111 -451.74 760.525 -425.824 774.144Z" fill="#6666F2"/>
<path d="M75.4465 459.374C69.1685 484.725 54.8763 510.311 34.0625 532.342C3.30475 564.661 -37.8833 590.286 -81.6305 604.322C-93.9704 608.242 -105.726 610.726 -117.095 613.128C-127.368 615.298 -137.991 617.542 -148.717 620.811C-164.646 630.741 -190.581 653.088 -211.417 683.497C-225.494 704.041 -241.747 725.17 -265.162 740.524C-292.697 758.531 -324.194 764.719 -345.767 766.738C-357.892 767.87 -369.766 768.312 -381.25 768.738C-399.674 769.421 -417.077 770.067 -431.957 773.533L-432.169 773.583L-432.307 773.497C-457.806 757.942 -469.181 734.46 -465.22 705.577C-477.774 703.644 -489.569 690.491 -493.973 673.455C-497.137 661.217 -496.94 646.373 -496.748 632.016C-496.644 624.325 -496.549 617.061 -496.946 610.323C-497.769 596.567 -502.269 586.301 -511.538 577.039C-533.437 555.152 -542.837 524.576 -536.682 495.245C-528.453 455.974 -498.022 413.803 -455.29 382.324C-414.731 352.444 -362.004 328.686 -306.824 315.428C-291.279 311.693 -275.346 308.484 -259.939 305.382C-217.611 296.858 -173.841 288.043 -133.471 267.371C-114.611 257.713 -96.4446 245.496 -78.8753 233.681C-64.161 223.786 -48.9459 213.554 -33.757 205.171C5.11877 183.71 45.2637 190.884 63.3025 208.523C84.1752 228.939 78.4955 262.245 70.0446 286.599C68.8751 289.979 67.5464 293.403 66.1419 297.033C60.6414 311.229 54.9556 325.909 57.5918 339.986C59.7434 351.48 63.4922 363.112 67.1215 374.364C71.8298 388.971 76.6983 404.077 78.4413 419.679C79.8453 432.301 78.837 445.666 75.4465 459.374ZM-431.693 772.71C-416.736 769.258 -399.355 768.614 -380.957 767.932C-369.49 767.506 -357.634 767.068 -345.54 765.935C-324.125 763.932 -292.874 757.8 -265.604 739.965C-242.402 724.748 -226.25 703.744 -212.25 683.311C-191.258 652.674 -165.077 630.151 -149.037 620.173L-148.851 620.09C-138.031 616.784 -127.343 614.527 -117.01 612.344C-105.676 609.95 -93.9548 607.474 -81.6834 603.575C-38.1824 589.619 2.77387 564.138 33.358 532.001C65.0473 498.458 81.529 456.597 77.4476 420.015C75.7118 404.461 70.8502 389.382 66.1493 374.798C62.5181 363.533 58.7636 351.887 56.6056 340.362C53.939 326.115 59.9201 310.674 65.1967 297.052C66.5985 293.433 67.9232 290.015 69.0902 286.649C77.4748 262.469 83.1369 229.388 62.4551 209.158C44.6228 191.719 4.96406 184.616 -33.4165 205.8C-48.5451 214.152 -63.7315 224.365 -78.4163 234.239C-96.0235 246.082 -114.232 258.324 -133.175 268.025C-173.736 288.793 -217.607 297.63 -260.03 306.173C-275.426 309.273 -291.345 312.48 -306.864 316.207C-361.855 329.418 -414.381 353.087 -454.774 382.845C-497.267 414.144 -527.499 456.122 -535.704 495.113L-536.194 495.182L-535.704 495.113C-541.818 524.255 -532.468 554.649 -510.688 576.416C-501.328 585.768 -496.785 596.135 -495.954 610.022C-495.549 616.78 -495.648 624.054 -495.75 631.756C-495.942 646.076 -496.141 660.884 -492.992 673.053C-487.874 692.857 -474.609 703.404 -464.452 704.823L-464.155 704.865L-464.193 705.131C-468.22 733.857 -456.983 757.221 -431.693 772.71Z" fill="#6666F2"/>
<path d="M70.4334 468.228C64.0392 494.047 49.1906 520.457 27.7582 542.729C-3.77787 575.499 -47.9003 602.049 -93.3003 615.574C-104.344 618.863 -115.082 620.646 -125.469 622.37C-139.145 624.639 -152.062 626.783 -165.455 632.069C-182.313 638.723 -209.749 659.974 -233.034 692.442C-246.804 711.641 -262.062 731.569 -283.739 745.734C-309.942 762.802 -339.481 767.992 -359.65 769.345C-372.251 770.191 -384.389 770.162 -396.134 770.141C-411.27 770.11 -425.566 770.083 -437.858 772.028L-438.037 772.056L-438.148 771.978C-463.371 754.28 -473.37 728.4 -467.079 697.123C-475.489 693.981 -485.537 682.591 -489.202 664.053C-491.171 654.093 -491.179 642.332 -491.189 630.965C-491.197 621.656 -491.205 612.866 -492.197 604.977C-493.725 592.832 -498.752 583.656 -509.012 574.292C-531.817 553.475 -540.987 522.8 -533.545 492.237L-533.438 491.804C-524.012 453.746 -493.25 413.06 -451.057 382.876C-410.817 354.09 -360.721 332.063 -306.184 319.173C-290.991 315.583 -275.415 312.491 -260.35 309.498C-217.493 300.991 -173.174 292.19 -132.45 270.901C-114.957 261.757 -98.0925 250.329 -81.7839 239.276C-66.5125 228.926 -50.7201 218.225 -34.7751 209.698C5.72307 188.041 46.5139 196.446 64.3373 215.348C80.7733 232.781 82.1321 261.965 68.1504 297.518C66.7611 301.056 65.206 304.629 63.5617 308.407C57.2812 322.837 50.7889 337.756 52.8955 352.026C54.7224 364.405 58.8178 376.764 62.7787 388.712C66.9765 401.373 71.3163 414.464 73.1314 427.924C74.8191 440.684 73.9097 454.27 70.4334 468.228ZM-437.549 771.274C-425.207 769.341 -410.936 769.371 -395.831 769.401C-384.105 769.423 -371.975 769.448 -359.418 768.608C-339.402 767.269 -310.094 762.122 -284.148 745.22C-262.665 731.186 -247.487 711.361 -233.787 692.252C-210.347 659.57 -182.651 638.15 -165.601 631.421C-152.074 626.081 -139.091 623.927 -125.346 621.647C-114.997 619.929 -104.295 618.154 -93.3333 614.888C-48.1614 601.431 -4.26119 575.017 27.112 542.414C59.8539 508.388 77.1431 464.641 72.2292 428.24C70.4178 414.825 66.0864 401.754 61.8957 389.111C57.9288 377.143 53.8269 364.767 51.9948 352.349C49.8646 337.918 56.3955 322.907 62.7145 308.393C64.3559 304.619 65.9082 301.054 67.2939 297.531C75.3386 277.056 85.5457 239.243 63.5503 215.913C45.9086 197.204 5.55738 188.871 -34.4795 210.281C-50.3582 218.772 -66.1173 229.452 -81.3566 239.78C-97.6997 250.855 -114.599 262.307 -132.166 271.491C-173.073 292.875 -217.486 301.694 -260.438 310.221C-275.492 313.21 -291.058 316.301 -306.228 319.886C-360.589 332.732 -410.515 354.681 -450.6 383.359C-492.571 413.384 -523.172 453.854 -532.545 491.704L-532.652 492.133L-533.097 492.185L-532.652 492.133C-540.05 522.51 -530.928 553.005 -508.247 573.708C-497.904 583.149 -492.837 592.41 -491.29 604.669C-490.293 612.587 -490.287 621.395 -490.278 630.717C-490.268 642.062 -490.259 653.793 -488.299 663.71C-484.641 682.222 -474.614 693.519 -466.299 696.503L-466.096 696.575L-466.139 696.785C-472.468 727.898 -462.58 753.649 -437.549 771.274Z" fill="#6666F2"/>
<path d="M65.4951 477.573C59.045 503.617 43.734 530.382 21.4253 553.163C-11.4069 586.692 -57.4821 613.556 -104.988 626.868C-116.991 630.232 -128.727 632.122 -140.079 633.95C-154.45 636.263 -168.023 638.449 -182.199 643.367C-201.579 650.09 -231.502 670.646 -254.668 701.419L-255.288 702.243C-267.821 718.894 -282.028 737.768 -302.334 750.973C-321.773 763.578 -347.06 771.038 -373.545 771.979C-386.942 772.458 -399.551 771.78 -411.744 771.132C-423.319 770.514 -434.249 769.93 -443.768 770.545L-443.908 770.556L-443.994 770.487C-468.353 751.038 -477.267 722.323 -469.15 689.549C-469.08 689.267 -469.01 688.985 -468.941 688.704C-474.621 684.401 -482.044 672.961 -484.436 654.683C-485.445 647.004 -485.488 638.21 -485.533 629.707C-485.589 619.306 -485.645 608.549 -487.449 599.667C-490.082 586.705 -498.156 578.51 -506.489 571.583C-529.934 552.104 -539.099 520.54 -530.409 489.274C-520.107 452.175 -488.862 412.622 -446.83 383.48C-407.54 356.238 -358.688 335.315 -305.558 322.977C-290.716 319.529 -275.492 316.551 -260.768 313.673C-217.38 305.186 -172.514 296.411 -131.448 274.492C-115.187 265.813 -99.506 255.088 -84.3447 244.718C-68.648 233.983 -52.4171 222.881 -35.8187 214.292C-17.1385 204.624 3.73039 200.449 22.941 202.537C40.8526 204.565 55.6305 211.431 65.3415 222.236C87.7007 247.816 75.4969 287.259 66.235 308.49C64.6166 312.2 62.8265 315.929 60.932 319.875C53.9007 334.52 46.6316 349.659 48.1771 364.122C49.5678 377.132 53.9707 389.898 58.2299 402.243C62.0175 413.225 65.9363 424.584 67.8028 436.217C69.8538 449.243 69.0748 463.202 65.4951 477.573ZM-443.407 769.866C-433.869 769.263 -422.962 769.844 -411.421 770.462C-399.247 771.114 -386.657 771.784 -373.301 771.309C-347.019 770.374 -321.944 762.985 -302.692 750.505C-282.567 737.417 -268.426 718.629 -255.947 702.05L-255.328 701.23C-232.013 670.258 -201.837 649.55 -182.273 642.76C-167.999 637.809 -153.742 635.513 -139.955 633.293C-128.636 631.47 -116.931 629.585 -104.991 626.24C-57.6962 612.986 -11.83 586.244 20.8571 552.868C55.1952 517.799 72.8749 473.211 66.9928 436.512C65.134 424.912 61.2215 413.571 57.4384 402.604C53.1715 390.237 48.7611 377.448 47.3664 364.39C45.806 349.775 53.113 334.554 60.1827 319.831C62.0732 315.891 63.8611 312.168 65.4754 308.471C74.6891 287.351 86.8303 248.13 64.6271 222.729C47.1942 202.781 6.15381 193.23 -35.5612 214.82C-52.0848 223.37 -68.2853 234.45 -83.9479 245.164C-99.1379 255.552 -114.849 266.298 -131.174 275.012C-172.41 297.021 -217.365 305.813 -260.842 314.317C-275.557 317.195 -290.773 320.17 -305.594 323.613C-358.572 335.916 -407.271 356.77 -446.426 383.919C-488.257 412.922 -519.35 452.276 -529.601 489.192C-538.252 520.346 -529.123 551.661 -505.808 571.035C-497.417 578.007 -489.286 586.263 -486.63 599.346C-484.817 608.271 -484.759 619.05 -484.705 629.475C-484.659 637.963 -484.612 646.74 -483.611 654.393C-481.22 672.666 -473.795 684.037 -468.165 688.223L-468.051 688.306L-468.089 688.457C-468.17 688.787 -468.257 689.12 -468.339 689.45C-476.403 722.004 -467.57 750.525 -443.407 769.866Z" fill="#6666F2"/>
<path d="M60.6313 486.842C54.1283 513.099 38.3339 540.235 15.1115 563.559C-19.0021 597.825 -67.033 625.004 -116.66 638.126C-129.663 641.564 -142.45 643.556 -154.815 645.48C-169.189 647.719 -184.051 650.033 -198.922 654.63C-219.189 660.893 -251.62 679.248 -276.291 710.366C-277.411 711.778 -278.537 713.205 -279.669 714.646C-291.376 729.521 -303.483 744.904 -320.915 756.179C-345.824 772.245 -373.279 774.602 -387.428 774.58C-402.114 774.555 -415.988 772.809 -428.228 771.268C-435.912 770.3 -443.172 769.386 -449.658 769.024L-449.762 769.018L-449.821 768.962C-474.08 747.114 -481.522 715.612 -470.772 680.25C-475.507 672.659 -478.82 659.59 -479.643 645.268C-479.946 639.996 -479.919 634.425 -479.895 628.531C-479.842 616.529 -479.786 604.119 -482.676 594.307C-485.986 583.071 -494.267 576.121 -503.944 568.83C-528.459 550.36 -537.392 518.712 -527.25 486.265C-516.006 450.27 -484.353 412.054 -442.579 384.038C-404.281 358.345 -356.675 338.53 -304.908 326.728C-290.417 323.424 -275.544 320.562 -261.161 317.793C-217.236 309.338 -171.817 300.594 -130.415 278.028C-115.269 269.774 -100.672 259.683 -86.556 249.926C-70.5519 238.864 -54.001 227.424 -36.8357 218.834C-17.5828 209.2 3.80905 205.265 23.3999 207.752C41.7638 210.159 56.7539 217.596 66.3772 229.072C82.8255 249.283 82.0866 282.208 64.3496 319.412C62.4918 323.309 60.4561 327.206 58.3026 331.331C50.552 346.167 42.5392 361.512 43.4857 376.17C44.3564 389.612 49.0424 402.529 53.5782 415.02C57.0349 424.547 60.6091 434.398 62.5048 444.471C64.9531 457.74 64.3197 472.064 60.6313 486.842ZM-449.267 768.43C-442.781 768.799 -435.547 769.712 -427.889 770.674C-415.67 772.211 -401.82 773.955 -387.181 773.979C-373.14 774.004 -345.904 771.669 -321.24 755.759C-303.963 744.583 -291.911 729.27 -280.254 714.46C-279.121 713.02 -277.995 711.593 -276.876 710.177C-252.051 678.866 -219.389 660.386 -198.96 654.075C-184.016 649.458 -169.116 647.138 -154.706 644.895C-142.366 642.973 -129.606 640.985 -116.654 637.562C-67.2153 624.488 -19.3748 597.419 14.6024 563.29C50.6318 527.102 68.7071 481.678 61.7684 444.747C59.8824 434.703 56.3137 424.866 52.8617 415.354C48.3189 402.837 43.6239 389.893 42.75 376.397C41.7945 361.604 49.8474 346.184 57.6346 331.273C59.7852 327.155 61.8184 323.264 63.6705 319.377C81.3231 282.359 82.0713 249.597 65.7215 229.507C48.2648 208.058 5.20846 198.382 -36.6266 219.316C-53.7178 227.869 -70.2333 239.286 -86.2053 250.324C-100.346 260.103 -114.969 270.206 -130.169 278.492C-171.727 301.144 -217.23 309.903 -261.237 318.374C-275.612 321.141 -290.475 324.001 -304.949 327.302C-356.586 339.076 -404.061 358.834 -442.24 384.441C-483.837 412.337 -515.346 450.382 -526.541 486.211C-536.627 518.49 -527.743 549.957 -503.358 568.329C-493.627 575.661 -485.3 582.651 -481.959 593.994C-479.053 603.858 -479.109 616.299 -479.162 628.33C-479.188 634.219 -479.213 639.782 -478.911 645.041C-478.09 659.348 -474.777 672.387 -470.049 679.923L-470.002 679.996L-470.033 680.096C-480.764 715.297 -473.386 746.666 -449.267 768.43Z" fill="#6666F2"/>
<path d="M55.7908 495.879C54.3605 501.653 52.4742 507.474 50.1438 513.305C41.8197 534.384 27.63 555.216 8.80783 573.989C-26.5799 608.977 -76.5625 636.471 -128.324 649.422C-142.362 652.933 -156.241 655.017 -169.664 657.033C-184.645 659.283 -200.136 661.609 -215.635 665.921C-239.274 672.497 -273.302 689.984 -297.918 719.342C-299.769 721.552 -301.66 723.86 -303.489 726.093C-313.848 738.741 -324.555 751.814 -339.504 761.425C-356.77 772.495 -379.297 778.253 -401.309 777.218C-418.051 776.431 -433.391 772.762 -445.718 769.813C-449.182 768.983 -452.455 768.2 -455.544 767.527L-455.648 767.471C-467.306 755.725 -474.83 741.171 -477.749 724.717C-480.667 708.264 -478.918 690.263 -472.61 671.84C-474.395 662.805 -475.19 650.039 -474.853 635.885C-474.792 633.373 -474.696 630.829 -474.598 628.137C-474.093 614.855 -473.523 599.802 -477.908 588.977C-481.808 579.35 -490.358 573.57 -499.412 567.453L-501.408 566.103C-526.707 548.913 -535.615 516.408 -524.098 483.286C-518.04 465.861 -506.886 447.571 -491.841 430.392C-476.827 413.329 -458.65 397.78 -438.333 384.62C-401.08 360.505 -354.715 341.795 -304.258 330.51C-290.121 327.349 -275.6 324.601 -261.56 321.944C-217.092 313.528 -171.109 304.827 -129.384 281.595C-115.251 273.725 -101.647 264.21 -88.4894 255.006C-72.2782 243.666 -55.5145 231.94 -37.8534 223.406C-18.0216 213.82 3.8951 210.129 23.8608 213.009C42.4961 215.697 58.3733 224.057 67.4124 235.938C83.9648 257.688 82.1627 292.102 62.4651 330.364C60.355 334.459 57.9628 338.72 55.6477 342.84C47.2081 357.867 38.4805 373.408 38.7922 388.253C39.0801 401.964 44.0318 414.816 48.8209 427.246C52.0012 435.497 55.2896 444.037 57.1938 452.764C60.0534 466.181 59.5782 480.782 55.7908 495.879ZM-455.131 767.029C-452.057 767.698 -448.803 768.479 -445.359 769.301C-432.413 772.398 -417.742 775.906 -401.06 776.691C-379.217 777.715 -356.884 772.017 -339.782 761.053C-324.964 751.526 -314.304 738.51 -303.994 725.923C-302.164 723.688 -300.271 721.379 -298.415 719.163C-273.658 689.637 -239.423 672.047 -215.639 665.43C-200.086 661.103 -184.567 658.772 -169.56 656.518C-156.157 654.505 -142.299 652.423 -128.304 648.922C-76.7095 636.013 -26.8967 608.613 8.36766 573.751C46.1772 536.364 64.6477 490.099 56.5559 453.015C54.6581 444.313 51.3741 435.789 48.1979 427.545C43.3982 415.09 38.4367 402.211 38.1473 388.438C37.8313 373.466 46.5967 357.863 55.0729 342.773C57.3848 338.658 59.774 334.403 61.8773 330.318C81.4923 292.226 83.2988 257.959 66.8309 236.314C49.6096 213.677 5.80855 202.823 -37.6789 223.84C-55.265 232.34 -71.994 244.04 -88.1724 255.358C-101.349 264.575 -114.976 274.107 -129.155 282.001C-171.025 305.314 -217.085 314.03 -261.628 322.461C-275.662 325.114 -290.171 327.862 -304.298 331.021C-354.643 342.28 -400.893 360.943 -438.048 384.992C-479.469 411.803 -511.404 448.539 -523.475 483.26C-534.932 516.209 -526.069 548.55 -500.901 565.658L-498.911 567.008C-489.813 573.155 -481.222 578.961 -477.285 588.677C-472.875 599.568 -473.447 614.662 -473.952 627.979C-474.054 630.671 -474.149 633.212 -474.206 635.722C-474.543 649.876 -473.744 662.636 -471.956 671.65L-471.945 671.701L-471.965 671.758C-478.257 690.107 -480.01 708.038 -477.113 724.429C-474.217 740.821 -466.734 755.323 -455.131 767.029Z" fill="#6666F2"/>
<path d="M51.0108 504.87C44.3498 531.763 27.4338 560.151 2.50729 584.427C-34.1403 620.121 -86.0757 647.931 -139.984 660.724C-155.087 664.308 -170.101 666.48 -184.621 668.58C-200.181 670.832 -216.269 673.16 -232.344 677.223C-266.018 685.74 -298.615 704.845 -319.544 728.336C-321.996 731.087 -324.462 733.988 -326.846 736.794C-335.927 747.478 -345.318 758.525 -358.085 766.674C-374.227 776.953 -395.572 781.883 -415.186 779.86C-435.161 777.797 -452.021 772.753 -461.441 766.016C-490.945 744.914 -484.041 703.781 -474.44 663.456C-472.856 656.803 -472.183 649.192 -471.403 640.377C-471.012 635.953 -470.608 631.382 -470.052 626.509C-468.357 611.651 -467.056 594.861 -473.126 583.648C-477.325 575.889 -485.145 571.369 -493.424 566.582C-495.207 565.55 -497.05 564.484 -498.857 563.38C-511.939 555.413 -520.906 543.257 -524.788 528.225C-528.626 513.647 -527.3 497.175 -520.93 480.313C-514.321 463.081 -503.072 445.793 -487.498 428.934C-472.269 412.548 -454.138 397.71 -434.074 385.214C-397.403 362.364 -353.504 345.232 -303.596 334.299C-289.813 331.28 -275.653 328.647 -261.953 326.1C-216.929 317.731 -170.376 309.08 -128.336 285.166C-115.128 277.653 -102.434 268.655 -90.1587 259.953C-73.8349 248.382 -56.9541 236.417 -38.8594 227.983C-18.4463 218.465 3.99822 215.021 24.3315 218.286C43.4471 221.355 59.5318 230.291 68.4605 242.803C77.0892 254.89 80.4893 270.222 78.5686 288.371C76.8309 304.816 70.6148 323.121 60.5946 341.317C58.228 345.615 55.5665 350.062 52.9935 354.363C43.8941 369.567 34.4821 385.295 34.112 400.338C33.7742 414.192 38.9751 426.792 44.006 438.975C46.9543 446.113 50.0018 453.496 51.9038 461.055C55.2075 474.592 54.9044 489.461 51.0108 504.87ZM-523.961 491.597C-531.354 521.444 -521.932 548.676 -498.433 562.988C-496.63 564.086 -494.787 565.151 -493.006 566.182C-484.69 570.989 -476.835 575.532 -472.596 583.359C-466.488 594.644 -467.792 611.491 -469.493 626.395C-470.048 631.265 -470.452 635.836 -470.846 640.255C-471.625 649.084 -472.3 656.708 -473.89 663.393C-483.468 703.61 -490.359 744.633 -460.999 765.632C-451.63 772.332 -434.842 777.353 -414.939 779.405C-395.48 781.414 -374.318 776.535 -358.327 766.351C-345.671 758.274 -336.319 747.273 -327.275 736.632C-324.888 733.824 -322.419 730.919 -319.962 728.161C-308.442 715.301 -294.013 703.94 -277.917 695.056C-263.345 686.938 -247.875 680.74 -232.333 676.795C-216.218 672.722 -200.109 670.39 -184.533 668.137C-170.028 666.038 -155.029 663.868 -139.962 660.292C-86.2 647.532 -34.4124 619.805 2.12521 584.22C41.2355 546.128 60.562 497.876 51.3504 461.29C49.4535 453.751 46.4091 446.38 43.4647 439.25C38.4219 427.04 33.2091 414.411 33.5502 400.493C33.917 385.336 43.3668 369.559 52.4987 354.301C55.0701 350.006 57.728 345.564 60.0908 341.275C81.6507 302.12 84.5167 266.347 67.9481 243.135C50.9736 219.348 6.43129 207.324 -38.7283 228.374C-56.7501 236.775 -73.5948 248.716 -89.887 260.264C-102.18 268.978 -114.893 277.99 -128.139 285.524C-170.309 309.512 -216.933 318.177 -262.023 326.558C-275.717 329.104 -289.872 331.733 -303.643 334.75C-353.454 345.658 -397.263 362.754 -433.848 385.551C-475.161 411.295 -507.519 446.72 -520.407 480.315C-521.851 484.091 -523.038 487.858 -523.961 491.597Z" fill="#6666F2"/>
<path d="M46.359 514.055C39.3984 541.866 21.8236 570.183 -3.80251 594.876C-41.7013 631.263 -95.5913 659.385 -151.65 672.035C-167.845 675.693 -184.026 677.944 -199.673 680.124C-215.782 682.367 -232.439 684.688 -249.052 688.534C-270.922 693.597 -311.97 706.667 -341.171 737.324C-344.109 740.409 -347.001 743.691 -349.796 746.864C-357.685 755.817 -365.841 765.075 -376.67 771.924C-391.764 781.457 -411.836 785.509 -429.053 782.498C-444.517 779.794 -458.443 773.241 -467.261 764.52C-479.587 752.332 -486.244 735.735 -487.043 715.194C-487.733 697.464 -484.105 677.237 -476.265 655.082C-471.676 642.365 -467.994 629.692 -465.239 617.133C-461.457 599.553 -462.499 586.494 -468.333 578.32C-472.865 571.971 -480.346 568.417 -488.269 564.655C-490.931 563.39 -493.685 562.082 -496.299 560.665C-523.81 545.768 -532.439 512.286 -517.756 477.356C-510.698 460.557 -499.057 443.778 -483.155 427.483C-467.718 411.78 -449.63 397.653 -429.813 385.82C-394.335 364.598 -351.647 348.544 -302.936 338.105C-289.514 335.229 -275.712 332.713 -262.367 330.281C-216.778 321.969 -169.637 313.376 -127.29 288.757C-114.93 281.571 -103.078 273.047 -91.6158 264.803C-75.2621 253.041 -58.3521 240.881 -39.8732 232.583C-18.8581 223.147 4.11433 219.954 24.8135 223.59C44.6029 227.023 60.2457 236.16 69.5015 249.694C78.1197 262.47 81.2498 278.529 78.8055 297.418C76.5758 314.642 69.6308 333.617 58.7171 352.293C56.0829 356.8 53.1517 361.435 50.3139 365.917C40.5823 381.299 30.5192 397.21 29.4214 412.444C28.4212 426.336 33.8581 438.514 39.1147 450.291C41.8651 456.452 44.7085 462.823 46.6032 469.369C50.4469 483.056 50.3638 498.257 46.359 514.055ZM-481.885 675.139C-491.457 713.786 -486.327 744.973 -466.863 764.22C-458.084 772.903 -444.217 779.425 -428.82 782.116C-411.731 785.104 -391.826 781.092 -376.872 771.643C-366.131 764.851 -358.011 755.633 -350.152 746.715C-347.352 743.537 -344.458 740.251 -341.509 737.155C-329.926 724.996 -315.234 714.394 -297.838 705.644C-281.998 697.813 -265.491 691.901 -249.029 688.163C-232.387 684.311 -215.716 681.989 -199.592 679.742C-183.955 677.563 -167.788 675.311 -151.619 671.664C-95.6829 659.043 -41.922 630.988 -4.11699 594.69C36.9891 555.225 56.716 506.111 46.137 469.568C44.2474 463.035 41.407 456.672 38.6598 450.522C33.3908 438.718 27.941 426.514 28.9467 412.553C30.0481 397.223 40.1432 381.271 49.9041 365.845C52.7375 361.367 55.666 356.736 58.2961 352.236C81.476 312.571 85.5016 274.335 69.0659 249.958C50.0523 221.531 2.24732 214.043 -39.7683 232.909C-58.1777 241.174 -75.0562 253.315 -91.3787 265.052C-102.855 273.306 -114.723 281.841 -127.113 289.046C-169.578 313.729 -216.778 322.336 -262.429 330.656C-275.772 333.089 -289.567 335.604 -302.979 338.478C-351.613 348.9 -394.226 364.924 -429.633 386.103C-471.522 411.16 -503.484 444.423 -517.321 477.362C-531.937 512.155 -523.355 545.493 -495.965 560.327C-493.355 561.74 -490.607 563.045 -487.948 564.308C-479.994 568.087 -472.48 571.655 -467.913 578.053C-462.037 586.285 -460.983 599.412 -464.781 617.072C-467.541 629.646 -471.228 642.333 -475.821 655.066C-478.255 661.948 -480.276 668.639 -481.885 675.139Z" fill="#6666F2"/>
<path d="M41.779 522.792C40.2819 528.814 38.2616 534.888 35.7338 540.969C26.4059 563.489 10.6356 585.627 -10.1082 605.321C-30.0981 624.252 -54.1665 640.819 -81.6463 654.559C-108.136 667.7 -135.803 677.451 -163.32 683.344C-180.633 687.063 -198.018 689.398 -214.83 691.653C-231.461 693.884 -248.663 696.193 -265.772 699.842C-294.598 705.993 -334.837 719.047 -362.814 746.313C-366.157 749.575 -369.34 753.057 -372.419 756.426C-379.184 763.833 -386.18 771.493 -395.274 777.179C-409.401 786.016 -428.117 789.143 -442.944 785.142C-454.725 781.965 -464.593 774.733 -473.1 763.033C-484.098 747.653 -490.207 729.444 -491.069 709.471C-491.93 689.499 -487.528 668.165 -478.118 646.718C-476.063 642.096 -473.736 637.4 -471.487 632.859C-467.411 624.629 -463.194 616.116 -460.443 607.761C-455.501 592.725 -456.611 580.383 -463.565 572.985C-468.444 567.793 -476.128 564.903 -483.561 562.111C-486.988 560.822 -490.535 559.491 -493.766 557.947C-508.132 551.094 -517.627 539.204 -521.221 523.557C-524.625 508.527 -522.339 491.539 -514.604 474.392C-500.031 442.534 -467.579 410.468 -425.565 386.42C-390.883 366.566 -350.558 352.005 -302.286 341.9C-289.235 339.168 -275.808 336.771 -262.821 334.448C-216.648 326.203 -168.903 317.677 -126.249 292.326C-114.664 285.442 -103.585 277.348 -92.8724 269.521C-76.5679 257.609 -59.7078 245.289 -40.8919 237.163C-19.2868 227.833 4.20376 224.903 25.2533 228.911C45.4887 232.714 61.346 242.396 70.5392 256.562C87.0593 282.63 81.9356 322.513 56.8377 363.249C53.9314 367.967 50.7301 372.787 47.6326 377.446C37.2953 393.008 26.606 409.101 24.7271 424.533C23.0407 438.381 28.6953 449.987 34.1638 461.212C36.7464 466.515 39.4172 471.998 41.2993 477.669C45.7095 491.351 45.8732 506.743 41.779 522.792ZM-486.698 672.606C-495.032 706.254 -490.279 738.698 -472.746 762.814C-464.267 774.472 -454.447 781.677 -442.719 784.84C-427.998 788.809 -409.437 785.715 -395.432 776.955C-386.407 771.311 -379.439 763.681 -372.698 756.301C-369.615 752.928 -366.426 749.438 -363.073 746.167C-334.998 718.8 -294.647 705.706 -265.74 699.54C-248.605 695.886 -231.4 693.577 -214.759 691.345C-197.957 689.091 -180.581 686.759 -163.288 683.043C-105.17 670.553 -49.4312 642.168 -10.3648 605.171C32.2024 564.856 52.8144 513.689 40.9209 477.846C39.0424 472.188 36.3743 466.71 33.7947 461.412C28.3134 450.161 22.6506 438.528 24.3404 424.615C26.2259 409.12 36.9436 392.98 47.304 377.385C50.3986 372.727 53.5982 367.911 56.4994 363.2C81.5387 322.56 86.6573 282.775 70.1799 256.779C51.4096 227.161 2.65401 218.666 -40.8172 237.439C-59.5688 245.537 -76.4 257.835 -92.6762 269.726C-103.4 277.563 -114.489 285.665 -126.101 292.566C-168.848 317.97 -216.646 326.504 -262.87 334.76C-275.852 337.077 -289.277 339.474 -302.318 342.204C-350.531 352.296 -390.799 366.836 -425.424 386.655C-467.338 410.65 -499.714 442.633 -514.241 474.404C-530.46 509.864 -521.927 544.098 -493.492 557.658C-490.266 559.2 -486.725 560.527 -483.304 561.814C-475.842 564.617 -468.133 567.515 -463.223 572.744C-456.221 580.199 -455.097 592.628 -460.072 607.739C-462.826 616.118 -467.047 624.64 -471.128 632.882C-473.376 637.42 -475.7 642.114 -477.755 646.73C-481.593 655.381 -484.584 664.037 -486.698 672.606Z" fill="#6666F2"/>
</g>
</g>
<defs>
<clipPath id="clip0_2455_4163">
<rect width="1072.02" height="969.115" fill="white" transform="translate(323.98 969.086) rotate(179.527)"/>
</clipPath>
</defs>
</svg>
