<svg width="280" height="442" viewBox="0 0 280 442" fill="none" xmlns="http://www.w3.org/2000/svg">
<g clip-path="url(#clip0_2455_3665)">
<g opacity="0.15">
<path d="M958.267 -11.9902C957.504 -8.91303 956.602 -5.80967 955.559 -2.68016C940.459 42.6254 898.561 91.1937 840.61 130.572C792.845 163.031 735.516 189.33 665.346 210.975C646.401 216.818 626.831 222.275 607.905 227.551C540.791 246.266 471.392 265.618 413.277 306.484C397.49 317.586 382.685 330.239 368.367 342.476C346.456 361.202 323.8 380.563 297.229 394.673C266.664 410.906 231.894 418.824 199.334 416.967C167.858 415.171 141.548 404.65 125.254 387.337C94.8565 355.04 94.0264 300.545 123.039 241.565C126.39 234.752 130.157 227.759 133.801 220.994C145.891 198.555 158.393 175.352 157.931 154.596C157.517 135.978 146.657 121.472 136.157 107.439C131.161 100.762 125.993 93.8578 121.959 86.5551C109.048 63.1749 107.259 33.43 116.809 0.461451C126.163 -31.6315 145.124 -64.0417 171.924 -93.7444C222.753 -150.1 300.453 -197.659 385.094 -224.229C410.233 -232.12 435.749 -238.155 460.424 -243.991C484.778 -249.751 509.962 -255.708 534.707 -263.435C576.277 -276.418 633.335 -300.471 669.099 -341.335C673.374 -346.22 677.38 -351.4 681.253 -356.405C689.856 -367.526 698.755 -379.026 711.317 -388.289C730.88 -402.713 758.61 -410.151 781.959 -407.239C800.43 -404.936 816.849 -396.851 832.151 -382.523C851.948 -363.764 865.016 -340.293 870.533 -313.585C876.112 -286.81 874.049 -257.376 864.471 -227.11C862.373 -220.564 859.89 -213.883 857.485 -207.421C853.151 -195.76 848.668 -183.699 846.348 -172.129C842.205 -151.453 846.402 -135.335 858.168 -126.74C866.438 -120.702 878.449 -118.139 890.063 -115.664C895.476 -114.51 901.073 -113.318 906.271 -111.786C949.357 -99.0737 969.86 -58.7917 958.267 -11.9902ZM109.359 285.358C99.2599 326.125 105.4 361.936 127.679 385.607C161.756 421.814 235.835 425.011 296.335 392.884C322.47 379.008 344.942 359.802 366.674 341.229C381.069 328.928 395.951 316.21 411.907 304.989C470.651 263.682 540.416 244.226 607.884 225.413C626.784 220.144 646.327 214.693 665.22 208.866C734.966 187.353 791.907 161.241 839.301 129.035C896.579 90.1133 937.974 42.1608 952.87 -2.52834C953.893 -5.60178 954.781 -8.65886 955.53 -11.6831C966.912 -57.6253 946.835 -97.1498 904.611 -109.606C899.495 -111.118 893.941 -112.298 888.569 -113.442C876.746 -115.962 864.519 -118.567 855.947 -124.828C843.708 -133.767 839.321 -150.421 843.589 -171.719C845.94 -183.458 850.453 -195.598 854.819 -207.34C857.211 -213.776 859.687 -220.432 861.768 -226.929C880.883 -286.57 868.937 -344.075 829.79 -380.727C814.759 -394.8 798.694 -402.734 780.678 -404.981C758.176 -407.787 731.52 -400.669 712.772 -386.847C700.667 -377.924 691.937 -366.637 683.494 -355.722C679.587 -350.673 675.55 -345.454 671.201 -340.485C634.794 -298.887 576.963 -274.481 534.858 -261.331C509.975 -253.559 484.721 -247.585 460.297 -241.808C435.692 -235.989 410.249 -229.971 385.25 -222.124C301.331 -195.782 224.328 -148.664 173.989 -92.8533C119.202 -32.1062 99.3509 39.4056 124.586 85.102C128.575 92.3257 133.713 99.193 138.683 105.833C149.313 120.035 160.304 134.721 160.729 153.804C161.2 175.072 148.552 198.546 136.321 221.247C132.689 227.986 128.934 234.957 125.606 241.725C118.418 256.28 112.973 270.905 109.359 285.358Z" fill="#6666F2"/>
<path d="M939.77 -5.62785C938.948 -2.30772 937.969 1.02024 936.834 4.35604C921.701 48.7405 880.802 96.0783 824.622 134.233C777.962 165.921 722.017 191.454 653.591 212.292C635.487 217.827 616.827 223.025 598.783 228.05C533.431 246.256 465.854 265.079 408.711 304.113C393.449 314.538 379.129 326.191 365.279 337.454C343.856 354.883 321.702 372.906 296.24 386.077C236.247 417.107 163.361 413.482 130.308 377.824C101.054 346.263 100.219 293.139 128.071 235.715C131.272 229.058 134.883 222.226 138.374 215.623C149.911 193.798 161.841 171.232 160.963 151.111C160.177 133.061 149.786 118.617 139.738 104.648C134.704 97.6501 129.497 90.4135 125.532 82.7855C113.434 59.5187 112.129 30.1813 121.759 -2.03852C131.214 -33.5237 150.049 -65.2599 176.511 -94.2955C226.742 -149.408 303.258 -195.916 386.441 -221.894C410.808 -229.455 435.548 -235.311 459.478 -240.974C484.713 -246.947 510.805 -253.121 536.382 -261.289C576.604 -274.134 632.259 -297.922 668.983 -338.328C672.712 -342.433 676.299 -346.649 679.764 -350.725C690.012 -362.779 699.693 -374.167 713.147 -383.24C732.678 -396.409 758.716 -402.222 781.111 -398.414C798.587 -395.444 813.713 -387.271 828.711 -372.698C864.658 -337.765 876.959 -286.312 863.102 -230.371C862.31 -227.172 861.432 -223.962 860.47 -220.741C858.003 -212.48 854.906 -203.981 851.913 -195.762C848.051 -185.162 844.059 -174.202 841.418 -163.735C837.594 -148.563 835.691 -128.236 848.438 -117.543C855.733 -111.424 866.815 -108.853 877.526 -106.364C882.355 -105.243 887.35 -104.085 891.986 -102.611C913.783 -95.6858 929.505 -81.4836 937.457 -61.5443C943.962 -44.8628 944.754 -25.7148 939.77 -5.62785ZM115.142 277.714C105.235 317.707 111.114 352.888 132.677 376.147C165.119 411.148 236.604 414.734 295.416 384.312C320.478 371.349 341.48 354.263 363.715 336.174C377.631 324.854 392.02 313.148 407.425 302.623C465.163 263.185 533.081 244.264 598.761 225.971C616.782 220.951 635.417 215.76 653.474 210.24C721.493 189.526 777.054 164.176 823.349 132.738C878.881 95.0235 919.293 48.2787 934.22 4.49033C950.709 -43.8846 932.66 -87.0566 890.328 -100.509C885.773 -101.956 880.821 -103.105 876.034 -104.217C865.101 -106.755 853.798 -109.379 846.199 -115.752C832.903 -126.901 834.79 -147.827 838.753 -163.436C841.424 -174.007 845.437 -185.024 849.316 -195.673C852.3 -203.862 855.383 -212.33 857.833 -220.528C875.483 -279.609 864.018 -334.416 826.398 -370.974C811.648 -385.31 796.824 -393.337 779.752 -396.239C758.158 -399.91 733.119 -394.356 714.411 -381.739C701.426 -372.984 691.911 -361.79 681.838 -349.94C678.354 -345.842 674.752 -341.606 670.98 -337.455C633.641 -296.375 577.267 -272.254 536.55 -259.254C510.826 -251.041 484.658 -244.847 459.352 -238.857C435.49 -233.21 410.815 -227.37 386.583 -219.851C304.102 -194.093 228.26 -148.01 178.508 -93.4217C123.853 -33.4535 104.068 35.1654 128.104 81.3967L126.821 82.0902L128.104 81.3967C132.028 88.9415 137.205 96.1389 142.213 103.1C152.373 117.226 162.885 131.833 163.685 150.298C164.586 170.922 152.512 193.759 140.837 215.843C137.356 222.426 133.758 229.233 130.577 235.85C123.777 249.821 118.605 263.848 115.142 277.714Z" fill="#6666F2"/>
<path d="M921.568 0.0121999C920.641 3.75451 919.509 7.54451 918.173 11.3822C903.013 54.8476 863.112 100.957 808.701 137.887C763.144 168.803 708.579 193.57 641.894 213.604C624.677 218.818 606.971 223.745 589.849 228.511C526.207 246.221 460.398 264.533 404.207 301.733C389.553 311.436 375.805 322.027 362.513 332.267C340.53 349.203 319.77 365.194 295.314 377.473C266.467 391.956 234.076 398.832 204.111 396.831C174.815 394.875 150.422 384.744 135.427 368.304C107.477 337.66 106.633 285.902 133.17 229.861C136.162 223.54 139.523 217.066 142.772 210.804C153.874 189.404 165.36 167.274 164.068 147.612C162.92 130.157 153.007 115.82 143.419 101.957C138.334 94.6014 133.074 86.9944 129.177 79.0036C106.427 32.3567 126.832 -35.8905 181.165 -94.8616C231.002 -148.959 306.34 -194.414 387.86 -219.578C411.648 -226.92 435.824 -232.631 459.204 -238.154C485.121 -244.276 511.923 -250.607 538.129 -259.161C593.088 -277.098 639.546 -304.152 668.94 -335.339C671.538 -338.094 674.064 -340.835 676.557 -343.539C688.66 -356.668 700.092 -369.071 715.056 -378.208C734.208 -389.905 759.222 -394.272 780.334 -389.605C796.76 -385.973 810.64 -377.734 825.343 -362.89C843.636 -344.434 856.045 -321.955 861.926 -296.614C867.905 -270.162 866.088 -242.481 856.531 -214.332C854.383 -208.011 852.102 -201.503 849.896 -195.209C845.266 -181.993 840.471 -168.326 836.558 -155.358C829.648 -132.445 830.387 -116.63 838.779 -108.359C845.075 -102.151 854.759 -99.6857 865.014 -97.0729C869.277 -95.9873 873.686 -94.863 877.777 -93.4526C915.616 -80.3967 932.376 -43.6258 921.568 0.0121999ZM121.156 269.817C111.389 309.239 116.951 343.901 137.732 366.685C168.53 400.45 237.415 404.428 294.557 375.738C318.65 363.643 339.257 347.768 361.073 330.958C374.426 320.672 388.232 310.036 403.01 300.254C459.756 262.686 525.881 244.285 589.829 226.489C606.931 221.73 624.614 216.809 641.794 211.607C708.077 191.695 762.272 167.105 807.466 136.434C861.256 99.9252 900.682 54.3878 915.641 11.4978C932.277 -36.1908 916.381 -77.534 876.114 -91.4227C872.102 -92.8069 867.735 -93.9193 863.516 -94.9964C853.483 -97.552 843.109 -100.194 836.522 -106.69C827.748 -115.341 826.894 -131.637 833.995 -155.155C837.923 -168.167 842.719 -181.855 847.363 -195.094C849.569 -201.385 851.849 -207.889 853.992 -214.197C872.603 -269.001 861.339 -322.604 823.08 -361.233C808.596 -375.855 794.973 -383.959 778.909 -387.513C758.532 -392.017 734.474 -387.852 716.124 -376.645C701.648 -367.805 690.395 -355.597 678.48 -342.672C675.976 -339.958 673.441 -337.206 670.834 -334.442C640.987 -302.774 593.923 -275.339 538.316 -257.19C511.953 -248.587 485.073 -242.236 459.079 -236.095C435.763 -230.587 411.653 -224.889 387.989 -217.587C307.144 -192.632 232.461 -147.585 183.09 -93.9953C129.41 -35.7337 109.237 31.6538 131.687 77.685C135.544 85.5905 140.775 93.1576 145.835 100.475C155.521 114.482 165.535 128.967 166.708 146.792C168.033 166.949 156.409 189.345 145.17 211.005C141.932 217.244 138.583 223.697 135.611 229.975C129.29 243.279 124.449 256.623 121.155 269.819L121.156 269.817Z" fill="#6666F2"/>
<path d="M903.175 6.17158C902.179 10.1906 900.947 14.2621 899.477 18.3861C884.286 60.932 845.383 105.814 792.738 141.524C748.595 171.459 695.412 195.461 630.152 214.904C614.273 219.633 597.987 224.154 582.239 228.52C519.816 245.838 455.269 263.745 399.639 299.348C385.741 308.242 372.709 317.69 360.106 326.827C338.419 342.551 317.933 357.403 294.319 368.863C266.322 382.451 235.12 388.797 206.463 386.733C178.251 384.702 154.816 374.774 140.473 358.775C113.742 328.961 112.895 278.575 138.196 223.987C141.009 217.92 144.161 211.713 147.21 205.712C157.822 184.819 168.795 163.214 167.097 144.095C165.603 127.261 156.175 113.082 147.06 99.3691C141.905 91.6164 136.576 83.5993 132.748 75.1997L133.973 74.5754L132.748 75.1997C111.599 28.7916 132.406 -38.1986 185.751 -95.4582C235.086 -148.412 309.246 -192.82 389.219 -217.294C412.379 -224.383 435.925 -229.936 458.696 -235.308C485.359 -241.597 512.93 -248.1 539.825 -257.071C592.894 -274.769 638.719 -301.52 668.853 -332.391L669.734 -333.293C685.595 -349.546 699.294 -363.582 716.928 -373.219C735.955 -383.618 759.353 -386.464 779.518 -380.837C798.87 -375.437 812.353 -363.19 821.938 -353.125C856.286 -317.054 868.609 -269.958 856.753 -222.093C855.588 -217.392 854.191 -212.69 852.561 -207.987C849.225 -198.373 845.829 -188.401 842.545 -178.758C838.957 -168.23 835.253 -157.344 831.655 -147.014C823.232 -122.846 822.387 -107.194 829.073 -99.1859C834.327 -92.893 843.099 -90.4151 852.396 -87.7929C856.112 -86.7445 859.955 -85.6587 863.52 -84.3128C898.437 -71.1251 913.525 -35.6144 903.175 6.17158ZM127.018 261.983C117.411 300.761 122.68 334.87 142.716 357.217C172.342 390.262 237.223 394.536 293.634 367.158C316.922 355.854 337.266 341.105 358.804 325.487C371.454 316.316 384.534 306.833 398.533 297.874C454.679 261.941 519.519 243.953 582.222 226.556C597.955 222.192 614.222 217.678 630.067 212.96C694.93 193.637 747.752 169.807 791.54 140.109C843.585 104.805 882.033 60.4729 897.027 18.4798C913.498 -27.6609 899.372 -68.1996 861.863 -82.3702C858.373 -83.6885 854.571 -84.7622 850.894 -85.7996C841.77 -88.3743 832.336 -91.0375 826.802 -97.6643C819.793 -106.061 820.575 -122.164 829.195 -146.91C832.791 -157.231 836.497 -168.114 840.081 -178.638C843.366 -188.283 846.763 -198.257 850.099 -207.874C868.166 -259.942 857.089 -312.296 819.72 -351.539C810.264 -361.472 796.977 -373.548 778.021 -378.839C758.538 -384.275 736.022 -381.572 717.788 -371.607C700.684 -362.26 687.171 -348.413 671.526 -332.382L670.645 -331.48C640.083 -300.168 593.696 -273.07 540.026 -255.171C512.971 -246.147 485.315 -239.624 458.574 -233.319C435.861 -227.961 412.374 -222.421 389.328 -215.369C310.008 -191.094 236.482 -147.08 187.597 -94.6092C134.886 -38.0298 114.314 28.1312 135.191 73.945C138.976 82.2546 144.28 90.2306 149.408 97.9426C158.611 111.784 168.125 126.099 169.652 143.26C171.392 162.861 160.281 184.731 149.541 205.882C146.501 211.865 143.361 218.053 140.565 224.08C134.681 236.741 130.146 249.43 127.018 261.983Z" fill="#6666F2"/>
<path d="M884.902 11.9503C883.798 16.3988 882.423 20.8761 880.781 25.3651C865.561 66.9931 827.652 110.646 776.773 145.137C733.825 174.239 682.021 197.477 618.403 216.179C603.728 220.492 588.712 224.649 574.193 228.669C513.13 245.574 449.99 263.054 395.066 296.936C382.21 304.868 370.155 313.033 358.498 320.93C336.834 335.606 316.371 349.468 293.316 360.229C237.508 386.277 173.964 381.545 145.51 349.223C120 320.245 119.139 271.226 143.215 218.088C145.846 212.281 148.79 206.344 151.638 200.606C161.754 180.213 172.214 159.125 170.122 140.542C168.298 124.358 159.361 110.387 150.718 96.8757C145.479 88.6813 140.06 80.2146 136.309 71.3615C116.752 25.2051 137.953 -40.5241 190.328 -96.0953C239.154 -147.904 312.142 -191.264 390.575 -215.056C413.135 -221.901 436.085 -227.303 458.279 -232.527C485.659 -238.971 513.971 -245.636 541.523 -255.026C592.707 -272.468 637.896 -298.912 668.769 -329.488C686.091 -346.644 701.228 -359.805 718.81 -368.272C737.381 -377.213 759.77 -378.649 778.707 -372.111C796.198 -366.073 808.659 -354.21 818.54 -343.402C851.901 -306.92 863.991 -260.926 852.708 -215.38C851.574 -210.804 850.205 -206.239 848.6 -201.684C845.873 -193.957 843.211 -185.938 840.636 -178.184C836.279 -165.062 831.772 -151.49 826.759 -138.713C819.913 -121.263 812.888 -99.9623 819.373 -90.0417C823.546 -83.6627 831.405 -81.1745 839.725 -78.5408C842.914 -77.5313 846.211 -76.4884 849.269 -75.2088C866.938 -67.8126 879.225 -54.2915 884.801 -36.1011C889.176 -21.4451 889.21 -5.08213 884.902 11.9503ZM132.877 254.072C123.423 292.227 128.402 325.803 147.691 347.717C175.62 379.443 237.964 384.099 292.706 358.547C315.473 347.921 335.808 334.147 357.337 319.562C369.03 311.642 381.119 303.452 394.048 295.477C449.449 261.301 512.856 243.746 574.178 226.769C588.685 222.752 603.685 218.599 618.332 214.293C681.561 195.706 733.007 172.638 775.615 143.769C825.918 109.669 863.385 66.5416 878.411 25.4446C894.961 -19.8093 882.865 -58.5838 847.61 -73.3393C844.626 -74.5884 841.366 -75.6201 838.216 -76.6174C830.007 -79.2162 821.52 -81.9018 817.091 -88.6702C810.312 -99.0315 816.985 -119.762 824.406 -138.679C829.399 -151.405 833.897 -164.949 838.245 -178.045C840.824 -185.809 843.488 -193.835 846.221 -201.58C863.639 -250.95 852.758 -302.083 816.374 -341.878C806.609 -352.559 794.311 -364.276 777.149 -370.201C758.831 -376.526 737.265 -375.182 719.463 -366.61C702.377 -358.38 687.519 -345.447 670.466 -328.557C639.191 -297.582 593.477 -270.815 541.744 -253.187C514.023 -243.74 485.623 -237.056 458.159 -230.591C436.019 -225.379 413.127 -219.991 390.676 -213.18C312.87 -189.576 240.496 -146.594 192.109 -95.2514C140.35 -40.3295 119.383 24.6051 138.695 70.1799C142.407 78.9403 147.799 87.3662 153.011 95.5178C161.728 109.145 170.743 123.235 172.599 139.71C174.746 158.761 164.154 180.111 153.914 200.754C151.074 206.477 148.141 212.391 145.526 218.161C140.074 230.162 135.841 242.179 132.877 254.072Z" fill="#6666F2"/>
<path d="M866.605 17.8543C865.413 22.6626 863.903 27.5041 862.084 32.3575C846.833 73.0685 809.919 115.501 760.803 148.771C719.043 177.047 668.617 199.521 606.642 217.479C593.32 221.341 579.715 225.097 566.562 228.73C506.696 245.262 444.791 262.359 390.472 294.555C379.288 301.182 368.771 307.786 358.602 314.172C336.368 328.137 315.362 341.327 292.287 351.62C265.969 363.359 237.153 368.633 211.147 366.469C185.083 364.3 163.552 354.791 150.518 339.694C125.865 311.135 125.021 264.666 148.204 212.207C150.654 206.665 153.392 201.006 156.034 195.534C165.653 175.637 175.601 155.061 173.116 137.008C170.984 121.504 162.544 107.801 154.384 94.5485C149.039 85.8715 143.514 76.8967 139.843 67.5365C121.864 21.6572 143.468 -42.822 194.882 -96.7274C243.192 -147.38 315.009 -189.695 391.917 -212.821C413.902 -219.431 436.278 -224.685 457.917 -229.765C485.996 -236.358 515.034 -243.175 543.218 -252.985C592.511 -270.144 637.069 -296.285 668.685 -326.59C687.67 -344.789 704.2 -356.464 720.699 -363.329C739.043 -370.959 759.893 -370.982 777.902 -363.39C793.516 -356.809 805.033 -345.225 815.152 -333.686C834.563 -311.547 863.2 -267.189 848.855 -209.277C847.727 -204.726 846.326 -200.095 844.652 -195.383C841.919 -187.732 839.344 -179.782 836.853 -172.09C832.359 -158.213 827.714 -143.866 821.875 -130.41C813.252 -110.534 805.206 -90.3389 809.677 -80.8763C812.729 -74.4172 819.661 -71.9157 827.001 -69.2676C829.684 -68.2999 832.458 -67.2968 835.03 -66.0892C864.384 -52.2853 876.035 -20.2071 866.605 17.8543ZM138.385 246.987C129.128 284.346 133.909 316.551 152.641 338.244C178.856 368.611 238.663 373.647 291.758 349.965C314.581 339.784 335.471 326.665 357.591 312.774C367.781 306.374 378.321 299.756 389.548 293.102C444.306 260.646 506.452 243.483 566.551 226.885C579.696 223.255 593.289 219.501 606.591 215.646C668.183 197.799 718.26 175.49 759.681 147.443C808.244 114.545 844.735 72.6202 859.794 32.4183C876.105 -11.1265 865.724 -49.0872 833.354 -64.3082C830.85 -65.484 828.113 -66.4722 825.466 -67.4267C818.181 -70.0534 810.652 -72.7757 807.384 -79.6871C802.678 -89.6545 810.848 -110.229 819.622 -130.449C825.42 -143.81 830.051 -158.112 834.531 -171.944C837.025 -179.646 839.605 -187.61 842.347 -195.289C865.191 -259.271 833.791 -308.554 813.034 -332.229C803.017 -343.65 791.631 -355.111 776.284 -361.58C758.836 -368.934 738.737 -368.955 721.138 -361.633C705.088 -354.956 688.929 -343.521 670.284 -325.649C638.291 -294.981 593.246 -268.545 543.451 -251.212C515.088 -241.338 485.962 -234.501 457.795 -227.887C436.206 -222.818 413.883 -217.578 392 -210.996C315.699 -188.057 244.474 -146.1 196.589 -95.8944C145.764 -42.6075 124.402 21.1056 142.162 66.4225L141.002 66.9803L142.162 66.4225C145.792 75.6882 151.292 84.617 156.61 93.2512C164.836 106.608 173.342 120.417 175.509 136.171C178.058 154.683 167.986 175.513 158.247 195.659C155.614 201.112 152.882 206.755 150.45 212.26C145.296 223.869 141.261 235.485 138.385 246.987Z" fill="#6666F2"/>
<path d="M848.482 23.3393C847.169 28.6288 845.481 33.9574 843.428 39.2978C828.147 79.0912 792.224 120.299 744.869 152.354C704.297 179.804 655.246 201.515 594.915 218.731C583.158 222.086 571.18 225.384 559.597 228.571C500.692 244.782 439.782 261.55 385.904 292.123C378.141 296.529 370.721 300.824 363.548 304.975C337.975 319.776 315.888 332.56 291.278 342.969C237.981 365.511 180.897 360.107 155.547 330.121C132.126 302.418 131.278 257.278 153.214 206.278C155.48 201.01 158.005 195.636 160.445 190.44C169.566 171.026 178.995 150.955 176.13 133.423C173.713 118.64 165.775 105.268 158.097 92.3374C152.626 83.1215 146.968 73.5911 143.391 63.6594L144.52 63.1343L143.391 63.6594C126.974 18.0797 148.977 -45.146 199.451 -97.4172C247.239 -146.909 317.891 -188.179 393.279 -210.643C414.716 -217.032 436.543 -222.14 457.65 -227.081C486.41 -233.812 516.148 -240.772 544.946 -251.01C592.332 -267.857 636.259 -293.693 668.637 -323.76C687.007 -340.82 704.668 -352.166 722.63 -358.448C747.002 -366.974 767.241 -359.781 777.134 -354.734C791.485 -347.411 802.13 -335.551 811.803 -324.034C846.789 -282.366 857.07 -234.461 840.746 -189.143C837.975 -181.449 835.447 -173.451 833.001 -165.712C828.411 -151.196 823.666 -136.187 817.032 -122.168L815.834 -119.638C806.352 -99.6357 797.4 -80.7409 800.007 -71.7525C801.902 -65.2251 807.904 -62.6999 814.261 -60.0285C816.452 -59.1043 818.72 -58.1525 820.826 -57.0192C847.44 -42.7004 857.413 -12.7107 848.482 23.3393ZM144.264 238.924C135.144 275.731 139.624 307.457 157.605 328.726C182.488 358.16 238.517 363.464 290.833 341.339C315.23 331.02 337.223 318.292 362.688 303.552C369.869 299.396 377.294 295.098 385.072 290.685C439.348 259.885 500.477 243.06 559.591 226.788C571.166 223.603 583.138 220.307 594.879 216.957C654.836 199.848 703.545 178.297 743.789 151.07C790.61 119.374 826.119 78.6512 841.214 39.3427C857.468 -2.98336 849.006 -39.2617 819.135 -55.3313C817.092 -56.4297 814.859 -57.3688 812.7 -58.2776C806.348 -60.9519 799.778 -63.7113 797.729 -70.7694C794.976 -80.2652 804.065 -99.4389 813.686 -119.74L814.883 -122.268C821.458 -136.159 826.182 -151.103 830.751 -165.555C833.201 -173.31 835.737 -181.329 838.522 -189.058C854.663 -233.885 844.44 -281.319 809.743 -322.645C800.15 -334.066 789.603 -345.822 775.474 -353.034C765.872 -357.931 746.268 -364.925 722.864 -356.739C705.39 -350.626 688.148 -339.532 670.151 -322.82C637.421 -292.426 593.045 -266.32 545.197 -249.31C516.216 -239.005 486.382 -232.023 457.534 -225.27C436.477 -220.342 414.698 -215.246 393.358 -208.887C318.55 -186.595 248.474 -145.671 201.094 -96.6049C151.188 -44.9257 129.427 17.567 145.65 62.6022C149.191 72.4326 154.817 81.9177 160.265 91.0905C167.996 104.112 175.99 117.576 178.442 132.576C181.379 150.55 171.829 170.879 162.597 190.529C160.163 195.713 157.647 201.069 155.393 206.305C150.683 217.213 146.962 228.119 144.264 238.924Z" fill="#6666F2"/>
<path d="M830.124 29.4811C828.743 35.039 826.942 40.6404 824.729 46.2525C809.421 85.1298 774.491 125.115 728.893 155.956C689.499 182.584 641.824 203.533 583.138 220.004C573.262 222.775 563.213 225.53 553.496 228.191C495.221 244.158 434.961 260.667 381.286 289.71C347.994 307.724 320.148 322.45 290.217 334.329C265.536 344.126 239.12 348.299 215.833 346.076C191.533 343.757 172.407 334.933 160.523 320.557C138.339 293.718 137.479 249.908 158.17 200.356C160.253 195.369 162.566 190.286 164.803 185.376C173.817 165.569 182.334 146.859 179.092 129.843C176.422 115.815 168.989 102.852 161.8 90.3104C156.176 80.4963 150.36 70.3494 146.888 59.7819C132.015 14.5224 154.421 -47.4526 203.974 -98.1138C251.244 -146.44 320.726 -186.666 394.606 -208.478C415.515 -214.652 436.817 -219.618 457.413 -224.422C486.833 -231.282 517.254 -238.376 546.64 -249.045C592.102 -265.55 635.4 -291.083 668.558 -320.938C686.607 -337.19 705.439 -348.168 724.53 -353.57C746.951 -359.912 765.077 -352.996 776.335 -346.079C788.488 -338.615 797.678 -327.776 808.428 -314.384C830.466 -286.929 852.869 -244.815 840.637 -195.448C839.612 -191.315 838.339 -187.132 836.816 -182.9C834.009 -175.141 831.517 -167.069 829.105 -159.26C824.431 -144.128 819.598 -128.48 812.161 -113.919C810.211 -110.103 808.247 -106.347 806.336 -102.69C797.274 -85.3602 789.446 -70.3954 790.288 -62.5965C791 -56.0122 796.069 -53.4486 801.435 -50.7327C803.152 -49.8658 804.927 -48.966 806.584 -47.924C830.079 -33.1308 838.503 -4.33307 830.124 29.4811ZM150.104 230.793C141.11 267.087 145.282 298.365 162.524 319.22C185.998 347.615 238.36 353.167 289.861 332.724C319.668 320.891 346.248 306.842 380.54 288.285C434.573 259.047 495.027 242.483 553.489 226.466C563.203 223.805 573.242 221.054 583.113 218.284C641.434 201.918 688.776 181.124 727.843 154.715C772.935 124.213 807.47 84.6954 822.596 46.2807C838.443 6.02733 831.658 -29.4728 804.874 -46.3497C803.271 -47.3596 801.524 -48.2417 799.837 -49.0945C794.424 -51.8324 788.828 -54.6617 788.05 -61.8541C787.161 -70.1006 795.101 -85.2871 804.299 -102.873C806.205 -106.521 808.17 -110.275 810.112 -114.079C817.47 -128.483 822.277 -144.05 826.928 -159.103C829.346 -166.931 831.846 -175.025 834.666 -182.825C854.259 -236.984 830.12 -283.54 806.423 -313.061C795.387 -326.809 786.647 -337.112 774.638 -344.49C763.69 -351.215 746.117 -357.953 724.563 -351.854C705.993 -346.602 687.63 -335.882 669.986 -319.993C636.498 -289.841 592.788 -264.061 546.906 -247.403C517.331 -236.665 486.813 -229.549 457.3 -222.666C436.746 -217.872 415.492 -212.917 394.672 -206.77C321.352 -185.124 252.42 -145.226 205.548 -97.3066C156.547 -47.2085 134.381 14.0625 149.083 58.7987C152.52 69.2616 158.308 79.3603 163.902 89.127C171.134 101.744 178.611 114.791 181.319 129.001C184.641 146.447 175.617 166.275 166.889 185.448C164.661 190.347 162.355 195.41 160.284 200.368C156.02 210.545 152.618 220.713 150.104 230.793Z" fill="#6666F2"/>
<path d="M813.054 31.7921C811.285 38.8783 808.941 46.0228 806.039 53.1777C790.702 91.1364 756.763 129.9 712.927 159.527C674.703 185.339 628.403 205.524 571.378 221.24C563.891 223.302 556.406 225.348 548.923 227.376C490.736 243.21 430.57 259.584 376.685 287.262C346.447 302.791 321.094 313.913 289.174 325.648C238.413 344.31 187.568 338.264 165.528 310.951C144.575 284.985 143.712 242.5 163.159 194.395C165.057 189.697 167.158 184.92 169.188 180.299C177.675 160.981 185.696 142.735 182.085 126.224C179.193 113.008 172.275 100.529 165.585 88.4596C159.778 77.9837 153.772 67.1495 150.419 55.8673C143.815 33.6576 145.772 7.43478 156.063 -19.9499C166.322 -47.2727 184.348 -74.3792 208.528 -98.8439C255.262 -145.994 323.579 -185.176 395.958 -206.345C416.359 -212.313 437.153 -217.142 457.26 -221.811C487.323 -228.793 518.41 -236.011 548.367 -247.118C591.867 -263.243 634.535 -288.471 668.51 -318.158C686.485 -333.862 706.523 -344.432 726.461 -348.725C748.132 -353.39 765.126 -345.174 775.566 -337.462C786.007 -329.75 793.852 -319.472 802.945 -307.569L805.084 -304.775C838.514 -261.14 847.884 -218.059 832.917 -176.706C830.086 -168.878 827.626 -160.733 825.247 -152.858C820.49 -137.108 815.571 -120.821 807.321 -105.718C795.276 -83.6706 785.005 -63.5523 780.515 -53.2149C778.103 -47.6498 781.897 -45.606 786.288 -43.2299C788.557 -42.0031 790.901 -40.7349 792.391 -38.8891C814.166 -29.0923 821.525 -2.39711 813.054 31.7921ZM155.978 222.537C147.101 258.358 150.964 289.222 167.462 309.671C189.097 336.481 239.037 342.401 288.906 324.067C318.489 313.348 347.668 300.549 376.034 285.849C430.237 258.009 490.575 241.59 548.925 225.71C556.401 223.676 563.882 221.631 571.368 219.577C628.037 203.96 674.009 183.925 711.917 158.327C755.272 129.026 788.831 90.703 803.989 53.1887C821.596 9.60925 816.403 -25.9205 790.758 -37.3263L790.612 -37.3907L790.526 -37.5049C789.188 -39.228 786.907 -40.4601 784.702 -41.652C780.221 -44.0766 775.582 -46.5823 778.478 -53.2445C783.055 -63.7921 793.11 -83.4835 805.367 -105.918C813.518 -120.838 818.407 -137.028 823.136 -152.688C825.52 -160.585 827.988 -168.753 830.835 -176.625C845.631 -217.506 836.306 -260.198 803.124 -303.511L800.985 -306.305C791.944 -318.143 784.136 -328.367 773.83 -335.979C763.659 -343.491 747.156 -351.505 726.294 -347.017C706.906 -342.842 687.386 -332.534 669.844 -317.208C635.567 -287.257 592.521 -261.804 548.638 -245.539C518.487 -234.361 487.305 -227.119 457.142 -220.116C437.077 -215.456 416.327 -210.636 396.009 -204.695C324.165 -183.681 256.375 -144.81 210.028 -98.0495C161.914 -49.5074 139.345 10.5452 152.54 54.9471C155.86 66.1182 161.836 76.9017 167.615 87.3307C174.342 99.4658 181.297 112.009 184.222 125.381C187.925 142.304 179.426 161.646 171.205 180.345C169.181 184.953 167.088 189.716 165.199 194.386C161.382 203.805 158.301 213.209 155.978 222.537Z" fill="#6666F2"/>
<path d="M795.238 36.4675C793.282 44.2877 790.647 52.1757 787.356 60.0713C771.991 97.1125 739.044 134.653 696.963 163.069C659.907 188.067 614.98 207.49 559.613 222.45C555.4 223.589 551.19 224.724 546.982 225.855C487.954 241.749 426.916 258.183 372.078 284.784C343.29 298.747 320.71 306.184 298.871 313.375C295.3 314.552 291.726 315.729 288.118 316.935C246.611 330.819 194.148 331.373 170.517 301.311C150.796 276.228 149.924 235.071 168.127 188.395C169.84 184.001 171.726 179.538 173.55 175.223C181.511 156.379 189.03 138.581 185.054 122.565C181.986 110.21 175.588 98.3143 169.4 86.804C163.37 75.5912 157.136 63.9968 153.924 51.9102L154.952 51.48L153.924 51.9102C141.907 6.69376 164.566 -51.3719 213.063 -99.6264C259.26 -145.593 326.412 -183.735 397.302 -204.27C417.22 -210.04 437.525 -214.733 457.161 -219.271C487.853 -226.365 519.588 -233.702 550.097 -245.247C591.589 -260.947 633.627 -285.873 668.467 -315.43C691.669 -335.114 713.862 -341.792 728.395 -343.928C745.198 -346.397 760.81 -341.338 774.802 -328.893C782.774 -321.804 789.003 -313.052 796.212 -302.919C797.998 -300.409 799.832 -297.834 801.748 -295.209C831.523 -254.407 841.482 -218.151 832.57 -182.17C831.609 -178.291 830.429 -174.417 829.032 -170.546C826.188 -162.659 823.76 -154.455 821.416 -146.522C816.578 -130.143 811.573 -113.204 802.488 -97.5464C796.776 -87.7012 791.025 -78.4145 785.952 -70.22C779.033 -59.0484 773.554 -50.2004 770.87 -44.3794C770.708 -39.2276 772.76 -36.8707 774.93 -34.3778C776.223 -33.0032 777.313 -31.489 778.189 -29.853C797.22 -20.5622 803.195 4.35923 795.238 36.4675ZM161.854 214.136C153.079 249.543 156.624 280.039 172.39 300.087C195.586 329.594 247.143 329.031 287.949 315.382C291.559 314.174 295.14 312.992 298.714 311.817C320.452 304.658 342.929 297.256 371.516 283.389C426.632 256.653 487.818 240.179 546.99 224.247C551.198 223.114 555.407 221.979 559.616 220.843C614.633 205.978 659.241 186.701 695.986 161.913C737.607 133.808 770.191 96.6861 785.381 60.0673C803.074 17.4181 799.601 -17.3053 776.538 -28.394L776.356 -28.4829L776.276 -28.6464C775.43 -30.2666 774.361 -31.7616 773.083 -33.1118C770.858 -35.6685 768.556 -38.3106 768.778 -44.0002L768.784 -44.1438L768.853 -44.2947C771.565 -50.2332 777.11 -59.1865 784.129 -70.5208C789.196 -78.7014 794.938 -87.9729 800.631 -97.7903C809.596 -113.241 814.568 -130.073 819.378 -146.351C821.727 -154.307 824.157 -162.533 827.016 -170.469C841.231 -209.874 832.592 -249.131 799.839 -294.01C797.923 -296.64 796.085 -299.218 794.297 -301.731C787.12 -311.813 780.923 -320.518 773.042 -327.531C759.387 -339.679 744.248 -344.632 728.045 -342.252C713.914 -340.174 692.324 -333.672 669.713 -314.489C634.593 -284.695 592.21 -259.567 550.372 -243.734C519.664 -232.113 487.826 -224.754 457.037 -217.637C437.44 -213.107 417.175 -208.423 397.336 -202.676C326.958 -182.289 260.31 -144.444 214.486 -98.848C166.507 -51.1073 144.084 6.32946 155.971 51.0485C159.151 63.0201 165.357 74.563 171.359 85.7245C177.576 97.2859 184.003 109.241 187.103 121.721C191.18 138.135 183.21 156.996 175.501 175.239C173.679 179.545 171.802 183.995 170.097 188.365C166.73 196.988 163.978 205.595 161.856 214.135L161.854 214.136Z" fill="#6666F2"/>
<path d="M777.992 40.3699C775.75 49.2718 772.685 58.2546 768.824 67.2397C753.425 103.379 721.451 139.715 681.11 166.935C645.201 191.136 601.628 209.806 547.9 224.014C533.567 227.804 518.867 231.262 504.651 234.606C457.274 245.754 408.284 257.278 367.625 282.587L367.446 282.698L367.249 282.758C353.897 286.81 342.105 291.28 331.702 295.224C315.564 301.342 301.614 306.631 286.999 308.628C245.917 327.492 196.933 320.232 175.4 292.053C156.903 267.852 156.024 228.004 172.991 182.723C174.519 178.645 176.192 174.506 177.811 170.504C185.242 152.113 192.271 134.736 187.927 119.202C184.734 107.767 178.862 96.5505 173.186 85.7015C166.885 73.663 160.369 61.2153 157.322 48.2137L158.316 47.8133L157.319 48.2147C146.808 3.38418 169.877 -53.4904 217.518 -100.222C263.19 -145.019 329.21 -182.137 398.652 -202.056C418.113 -207.639 437.961 -212.204 457.156 -216.619C488.471 -223.821 520.852 -231.268 551.906 -243.264C591.346 -258.5 632.774 -283.135 668.559 -312.628C692.487 -332.35 715.442 -337.887 730.486 -339.059C746.957 -340.342 761.259 -334.189 774.217 -320.249C780.089 -313.927 785.04 -306.251 790.28 -298.124C792.896 -294.068 795.602 -289.876 798.602 -285.549C822.149 -251.713 831.387 -209.911 825.38 -164.39C822.039 -139.432 812.257 -112.722 797.844 -89.1883C788.026 -73.1573 777.7 -58.5334 770.16 -47.8542C766.567 -42.7675 763.458 -38.3667 761.282 -35.0557C760.236 -29.9046 761.345 -27.5436 762.521 -25.0467C763.242 -23.6434 763.789 -22.1492 764.155 -20.5797C780.64 -11.7496 785.364 10.6256 777.992 40.3699ZM366.969 281.296C408.039 255.788 457.204 244.222 504.75 233.036C518.948 229.695 533.628 226.241 547.923 222.462C601.308 208.344 644.57 189.816 680.177 165.819C720.084 138.896 751.704 102.958 766.935 67.2169C785.003 24.8208 783.296 -8.30518 762.481 -19.2349L762.255 -19.3535L762.209 -19.5876C761.864 -21.1619 761.327 -22.6569 760.604 -24.0549C759.34 -26.7405 758.147 -29.2771 759.331 -34.9315L759.363 -35.0882L759.464 -35.243C761.664 -38.5997 764.828 -43.0785 768.489 -48.2633C776.01 -58.9161 786.312 -73.5042 796.092 -89.4722C810.165 -112.451 820.11 -139.62 823.378 -164.009C829.348 -209.248 820.166 -250.791 796.764 -284.416C793.757 -288.757 791.045 -292.957 788.424 -297.019C783.205 -305.108 778.274 -312.749 772.462 -319.005C759.793 -332.64 745.9 -338.664 729.988 -337.424C715.359 -336.283 693.032 -330.895 669.735 -311.695C633.694 -281.99 591.953 -257.173 552.201 -241.816C520.944 -229.741 488.463 -222.274 457.044 -215.046C437.883 -210.64 418.076 -206.083 398.689 -200.522C329.735 -180.741 264.2 -143.906 218.886 -99.4585C171.74 -53.2157 148.911 3.06373 159.307 47.4138C162.325 60.2937 168.812 72.685 175.084 84.669C180.786 95.5617 186.679 106.825 189.901 118.36C194.347 134.281 186.907 152.691 179.711 170.493C178.097 174.486 176.429 178.613 174.909 182.671C158.107 227.524 158.94 266.972 177.211 290.883C198.382 318.588 246.485 325.736 286.723 307.161L286.931 307.064L287.142 307.037C301.519 305.104 315.376 299.849 331.422 293.767C341.82 289.826 353.599 285.361 366.969 281.296Z" fill="#6666F2"/>
<path d="M816.541 -137.743C811.645 -117.987 803.005 -97.8356 791.732 -80.3119C775.131 -54.5038 756.554 -32.6887 750.278 -25.3359C748.809 -21.8217 748.257 -18.3467 748.662 -15.1604C748.798 -13.7789 748.82 -12.3615 748.728 -10.9162C767.126 0.0896266 767.2 32.809 748.891 74.6144C733.487 109.776 702.556 144.837 664.028 170.797C629.326 194.154 587.189 212.031 535.212 225.45C521.321 229.037 507.09 232.293 493.326 235.443C448.032 245.81 401.195 256.532 362.371 280.226L362.174 280.346L361.959 280.402C349.906 283.472 339.25 286.79 329.848 289.717C313.567 294.787 299.495 299.168 285.388 299.995C246.445 317.412 200.197 309.753 180.003 282.505C156.396 250.661 168.352 202.724 177.571 176.985C178.911 173.246 180.367 169.458 181.779 165.795C188.67 147.872 195.175 130.947 190.486 115.899C187.237 105.48 181.916 95.083 176.769 85.0343C170.148 72.102 163.302 58.7303 160.454 44.7205L161.411 44.3501L160.454 44.7205C151.446 0.402835 174.872 -55.1737 221.59 -100.313C266.638 -143.841 331.4 -179.855 399.271 -199.125C418.254 -204.513 437.623 -208.943 456.353 -213.224C488.223 -220.51 521.173 -228.043 552.698 -240.469C600.416 -259.28 641.413 -288.045 667.405 -308.863C693.512 -329.774 718.585 -333.066 731.206 -333.167C747.354 -333.297 760.374 -326.132 772.182 -310.619C776.371 -305.117 779.974 -298.754 783.79 -292.02C786.889 -286.543 790.1 -280.879 793.981 -274.979C816.198 -241.205 825.255 -200.551 820.177 -157.413C819.404 -150.93 818.19 -144.364 816.541 -137.743ZM747.189 -21.3842C747.531 -22.7328 747.969 -24.0909 748.499 -25.4516L748.557 -25.6069L748.681 -25.7531C754.806 -32.9281 773.443 -54.7712 790.073 -80.6217C804.989 -103.811 815.256 -131.66 818.241 -157.024C823.29 -199.908 814.283 -240.327 792.193 -273.907C788.295 -279.834 785.078 -285.509 781.97 -291.001C778.171 -297.709 774.581 -304.046 770.432 -309.498C758.865 -324.698 746.196 -331.718 730.567 -331.592C718.288 -331.493 693.899 -328.288 668.494 -307.939C642.337 -286.988 601.064 -258.034 552.991 -239.084C521.262 -226.576 488.203 -219.019 456.235 -211.711C437.537 -207.436 418.204 -203.016 399.29 -197.645C331.883 -178.509 267.584 -142.76 222.879 -99.5633C176.635 -54.8827 153.447 0.119901 162.361 43.9818C165.181 57.8656 171.997 71.1774 178.589 84.0522C183.754 94.1404 189.093 104.571 192.365 115.066C197.173 130.478 190.584 147.615 183.607 165.76C182.202 169.413 180.749 173.193 179.416 176.915C170.274 202.426 158.423 249.927 181.746 281.396C201.608 308.196 247.046 315.735 285.187 298.562L285.43 298.452L285.669 298.439C299.549 297.665 312.875 293.515 329.745 288.262C339.124 285.343 349.748 282.035 361.782 278.962C400.994 255.087 447.984 244.332 493.43 233.934C507.175 230.787 521.389 227.534 535.242 223.958C586.891 210.625 628.722 192.886 663.129 169.727C701.242 144.043 731.842 109.362 747.078 74.5784C765.221 33.159 765.194 0.869166 747.015 -9.69159L746.741 -9.85113L746.768 -10.1718C746.882 -11.665 746.869 -13.1275 746.727 -14.5495C746.459 -16.7181 746.614 -19.0201 747.189 -21.3842Z" fill="#6666F2"/>
<path d="M810.923 -128.912C805.972 -108.932 797.094 -88.7676 785.378 -71.3481C769.339 -47.5061 750.954 -26.9274 739.04 -15.5599C736.909 -11.9485 735.293 -8.28057 734.23 -4.64548C733.916 -3.6458 733.566 -2.52019 733.083 -1.17134C748.985 9.6342 747.384 40.6813 728.751 82.0291C713.35 116.206 683.469 149.976 646.76 174.68C613.265 197.191 572.576 214.27 522.365 226.892C508.908 230.275 495.135 233.33 481.818 236.285C436.64 246.313 393.967 255.781 356.997 277.858L356.785 277.986L356.553 278.032C346.412 280.099 337.32 282.283 329.297 284.211C311.567 288.47 297.544 291.838 283.676 291.358C246.885 307.319 203.384 299.265 184.524 272.963C162.643 242.442 173.593 196.156 182.07 171.276C183.22 167.898 184.46 164.481 185.662 161.176C192.004 143.715 197.996 127.217 192.954 112.646C189.731 103.339 184.982 93.9105 180.39 84.793C173.372 70.8643 166.115 56.4625 163.506 41.2991L164.426 40.9595L163.506 41.2991C155.974 -2.4646 179.748 -56.7172 225.553 -100.286C269.956 -142.522 333.441 -177.424 399.73 -196.044C418.25 -201.247 437.151 -205.538 455.431 -209.691C487.823 -217.047 521.316 -224.654 553.281 -237.508C589.196 -251.953 627.123 -274.631 666.011 -304.913C685.862 -320.37 709.787 -328.449 731.653 -327.081C752.233 -325.793 763.322 -311.475 769.875 -300.818C772.789 -296.075 775.325 -290.787 778.007 -285.187C781.23 -278.464 784.561 -271.512 789.084 -264.244C809.998 -230.633 818.854 -191.231 814.694 -150.302C813.973 -143.266 812.714 -136.123 810.923 -128.912ZM731.018 -0.29764L731.166 -0.706458C731.713 -2.20872 732.081 -3.38486 732.436 -4.52089C733.546 -8.31008 735.237 -12.1334 737.467 -15.8966L737.679 -16.1645C749.492 -27.411 767.816 -47.9057 783.811 -71.6806C799.595 -95.1461 810.178 -123.661 812.848 -149.918C816.985 -190.621 808.174 -229.808 787.369 -263.245C782.821 -270.555 779.479 -277.529 776.245 -284.273C773.573 -289.851 771.047 -295.119 768.156 -299.822C761.726 -310.282 750.869 -324.332 730.911 -325.582C720.842 -326.212 694.466 -325.371 667.031 -304.009C627.928 -273.56 589.76 -250.743 553.589 -236.195C521.416 -223.257 487.815 -215.625 455.32 -208.245C437.073 -204.1 418.204 -199.816 399.749 -194.632C333.9 -176.136 270.853 -141.485 226.779 -99.5597C181.426 -56.4218 157.886 -2.70904 165.343 40.6171C167.929 55.6424 175.155 69.9838 182.142 83.854C186.749 92.9958 191.512 102.452 194.755 111.816C199.915 126.737 193.849 143.433 187.432 161.111C186.232 164.41 184.994 167.82 183.848 171.184C175.446 195.848 164.576 241.736 186.208 271.91C204.768 297.794 247.527 305.72 283.561 289.955L283.84 289.832L284.105 289.842C297.763 290.366 311.712 287.013 329.372 282.771C337.356 280.853 346.396 278.683 356.489 276.617C393.82 254.387 438.614 244.447 481.938 234.833C495.239 231.881 508.993 228.829 522.415 225.456C572.301 212.917 612.694 195.974 645.902 173.652C682.214 149.211 711.785 115.797 727.024 81.9778C745.532 40.9083 747.142 10.2319 731.337 -0.0870401L731.018 -0.29764Z" fill="#6666F2"/>
<path d="M805.359 -120.275C800.355 -100.077 791.225 -79.852 779.03 -62.4512C764.952 -42.364 748.275 -26.0376 736.1 -14.1172C732.893 -10.979 730.125 -8.26866 727.81 -5.8849C722.581 -0.499779 721.215 1.93985 719.486 5.03037C718.917 6.04541 718.282 7.1823 717.459 8.50698C730.811 19.0653 727.62 48.4852 708.652 89.3748C693.255 122.565 664.42 155.049 629.528 178.497C597.23 200.173 557.985 216.455 509.549 228.272C496.513 231.453 483.189 234.309 470.304 237.069C427.335 246.28 386.748 254.978 351.639 275.438L351.411 275.571L351.168 275.606C343.837 276.716 337.026 277.86 331.015 278.87C310.684 282.285 295.955 284.759 281.96 282.687C247.324 297.185 206.563 288.741 189.036 263.385C168.874 234.211 178.83 189.552 186.557 165.523C187.519 162.532 188.534 159.548 189.545 156.581C195.343 139.543 200.817 123.453 195.422 109.335C192.328 101.241 188.365 93.3106 184.169 84.9135C176.652 69.8686 168.879 54.3111 166.552 37.8285C160.463 -5.34999 184.584 -58.2835 229.507 -100.319C273.255 -141.257 335.468 -175.05 400.187 -193.028C418.256 -198.048 436.704 -202.207 454.543 -206.232C487.448 -213.651 521.471 -221.322 553.863 -234.613C587.712 -248.502 623.939 -270.226 664.616 -301.023C694.065 -323.319 721.609 -322.461 732.083 -321.058C751.923 -318.399 761.467 -303.647 767.564 -291.093C769.556 -286.992 771.289 -282.531 773.124 -277.811C776.006 -270.393 779.272 -261.985 784.198 -253.592C803.878 -220.053 812.533 -181.903 809.224 -143.265C808.574 -135.718 807.283 -128.037 805.359 -120.275ZM715.337 9.17369L715.637 8.70494C716.577 7.22154 717.252 6.01567 717.905 4.84642C719.706 1.62604 721.129 -0.916954 726.565 -6.51073C728.901 -8.91807 731.678 -11.6369 734.897 -14.7876C747.008 -26.6447 763.592 -42.8805 777.552 -62.7996C794.239 -86.612 805.142 -115.8 807.458 -142.871C810.749 -181.307 802.135 -219.267 782.549 -252.648C777.588 -261.099 774.31 -269.543 771.416 -276.989C769.588 -281.693 767.861 -286.136 765.883 -290.208C759.892 -302.548 750.54 -317.043 731.258 -319.627C721.055 -320.995 694.234 -321.833 665.568 -300.13C624.693 -269.183 588.259 -247.342 554.181 -233.36C521.58 -219.983 487.447 -212.284 454.439 -204.843C436.629 -200.827 418.213 -196.673 400.205 -191.671C335.896 -173.807 274.103 -140.25 230.669 -99.6038C186.18 -57.9747 162.289 -5.54897 168.318 37.2082L167.436 37.5188L168.318 37.2082C170.622 53.5477 178.367 69.0403 185.851 84.0234C190.057 92.4398 194.028 100.39 197.137 108.522C202.658 122.968 197.116 139.256 191.25 156.494C190.244 159.455 189.231 162.432 188.272 165.414C180.601 189.253 170.717 233.544 190.658 262.392C207.917 287.358 248.009 295.67 281.937 281.313L282.255 281.179L282.539 281.222C296.329 283.326 310.979 280.865 331.257 277.458C337.212 276.456 343.949 275.326 351.206 274.226C386.647 253.636 427.349 244.914 470.44 235.679C483.309 232.92 496.616 230.068 509.619 226.895C557.741 215.155 596.697 199.002 628.718 177.514C663.239 154.312 691.778 122.163 707.018 89.3084C725.906 48.5888 729.068 19.4766 715.697 9.43988L715.337 9.17369Z" fill="#6666F2"/>
<path d="M800.088 -111.538C795.028 -91.1125 785.62 -70.7725 772.92 -53.3202C755.293 -29.0985 732.979 -9.88048 719.648 1.60333L716.815 4.04566C708.673 11.0877 706.71 13.2662 702.029 18.4744C712.799 28.7344 708.109 56.5924 688.776 97.0533C673.377 129.278 645.568 160.499 612.469 182.711C581.343 203.569 543.517 219.066 496.829 230.087C484.19 233.07 471.286 235.729 458.81 238.299C418.039 246.699 379.533 254.634 346.271 273.489L346.031 273.625L345.778 273.65C342.558 273.96 339.47 274.263 336.515 274.56C311.397 277.053 294.747 278.705 280.193 274.505C247.691 287.549 209.647 278.709 193.435 254.291C175.899 227.877 182.396 188.535 190.935 160.19C191.711 157.612 192.522 155.043 193.327 152.489C198.581 135.841 203.544 120.111 197.787 106.407C194.951 99.6627 191.611 92.9884 188.074 85.9231C179.91 69.6063 171.466 52.7347 169.483 34.6986L170.327 34.4148L169.483 34.6986C164.804 -7.88565 189.289 -59.5344 233.381 -100.099C276.491 -139.759 337.47 -172.464 400.672 -189.823C418.317 -194.672 436.337 -198.704 453.763 -202.605C487.183 -210.084 521.742 -217.819 554.558 -231.557C595.528 -248.707 634.245 -275.548 663.398 -297.014C695.11 -320.364 724.471 -316.63 732.715 -314.93C752.183 -310.914 760.454 -294.827 765.483 -281.259C766.819 -277.659 767.965 -273.814 769.177 -269.743C771.64 -261.476 774.431 -252.105 779.558 -242.806C798.081 -209.215 806.536 -172.288 804.016 -136.023C803.453 -128.001 802.14 -119.818 800.088 -111.538ZM699.894 18.923L700.733 17.9901C705.515 12.669 707.492 10.4667 715.777 3.30143L718.612 0.856322C732.725 -11.2997 754.05 -29.6679 771.527 -53.6819C789.157 -77.9038 800.38 -107.774 802.321 -135.635C804.834 -171.722 796.413 -208.48 777.968 -241.929C772.799 -251.301 769.994 -260.718 767.519 -269.024C766.311 -273.081 765.169 -276.912 763.843 -280.49C758.891 -293.843 750.776 -309.672 731.816 -313.583C723.779 -315.241 695.157 -318.882 664.273 -296.141C634.998 -274.585 596.107 -247.628 554.873 -230.367C521.849 -216.541 487.179 -208.782 453.655 -201.28C436.255 -197.385 418.264 -193.358 400.676 -188.528C337.86 -171.271 277.281 -138.785 234.471 -99.4001C190.792 -59.2182 166.534 -8.04995 171.169 34.1337C173.133 52.017 181.543 68.822 189.677 85.07C193.218 92.1489 196.565 98.8337 199.41 105.604C205.298 119.614 200.278 135.525 194.961 152.375C194.158 154.923 193.348 157.486 192.573 160.059C184.096 188.199 177.638 227.223 194.992 253.352C210.965 277.413 248.419 286.112 280.26 273.16L280.617 273.013L280.91 273.1C295.247 277.324 311.815 275.678 336.89 273.19C339.773 272.904 342.78 272.608 345.912 272.303C379.475 253.343 418.083 245.388 458.951 236.968C471.412 234.399 484.298 231.745 496.908 228.768C543.29 217.819 580.835 202.446 611.688 181.772C644.438 159.791 671.967 128.883 687.216 96.9736C706.536 56.5464 711.168 28.9404 700.258 19.2449L699.894 18.923Z" fill="#6666F2"/>
<path d="M795.051 -102.748C789.932 -82.0831 780.233 -61.5899 766.997 -44.0239C747.345 -17.9457 722.773 1.6649 705.996 14.1459C702.781 16.5367 700.252 18.3572 698.02 19.9638C694.096 22.7009 690.324 25.5989 686.73 28.638C697.062 41.075 682.875 76.9237 669.059 104.964C653.65 136.238 626.85 166.212 595.532 187.2C565.966 206.98 528.503 222.121 484.179 232.203C471.914 234.992 459.413 237.456 447.324 239.837C408.756 247.435 372.329 254.61 340.912 271.87L340.659 272.009L340.402 272.019C311.537 273.155 293.034 273.504 278.4 266.658C247.528 278.451 212.926 269.407 197.77 245.531C181.847 220.446 187.603 182.544 195.248 155.145C195.84 153.021 196.448 150.908 197.06 148.804C201.777 132.485 206.233 117.068 200.095 103.74C197.689 98.5192 195.054 93.3272 192.263 87.8295C183.241 70.0595 173.913 51.6837 172.35 31.7984L173.155 31.5427L172.35 31.7984C169.051 -10.1765 193.906 -60.5659 237.218 -99.7135C279.695 -138.105 339.461 -169.74 401.189 -186.505C418.432 -191.188 436.047 -195.099 453.084 -198.882C487.019 -206.417 522.11 -214.21 555.348 -228.406C593.899 -244.871 630.779 -270.354 662.319 -292.943C688.756 -311.876 716.424 -313.524 733.502 -308.753C752.735 -303.38 759.679 -285.954 763.581 -271.373C764.446 -268.14 765.162 -264.729 765.919 -261.116C767.803 -252.138 769.942 -241.962 775.108 -231.95C792.796 -197.673 800.834 -162.919 798.997 -128.656C798.542 -120.187 797.223 -111.524 795.051 -102.748ZM684.654 28.8684L685.205 28.3926C689.012 25.1326 693.024 22.0322 697.211 19.1158C699.435 17.5157 701.956 15.7035 705.154 13.3233C721.813 0.924235 746.212 -18.5418 765.695 -44.3967C784.305 -69.0936 795.858 -99.6608 797.392 -128.271C799.221 -162.377 791.212 -196.984 773.591 -231.132C768.375 -241.236 766.228 -251.471 764.333 -260.499C763.576 -264.097 762.864 -267.496 762.003 -270.71C758.158 -285.08 751.337 -302.25 732.568 -307.492C715.897 -312.149 688.906 -310.551 663.136 -292.094C631.483 -269.423 594.466 -243.85 555.675 -227.281C522.224 -212.995 487.025 -205.179 452.983 -197.62C435.974 -193.844 418.386 -189.938 401.195 -185.268C339.834 -168.603 280.444 -137.174 238.252 -99.0414C195.329 -60.2475 170.699 -10.3121 173.965 31.2827C175.516 51.0022 184.809 69.3066 193.795 87.0063C196.589 92.5106 199.228 97.7083 201.64 102.94C207.914 116.556 203.405 132.147 198.634 148.655C198.028 150.753 197.417 152.864 196.826 154.983C189.238 182.183 183.506 219.813 199.267 244.637C214.216 268.184 248.305 277.08 278.564 265.335L278.96 265.181L279.247 265.318C293.617 272.155 311.95 271.83 340.624 270.703C372.325 253.355 408.838 246.163 447.49 238.545C459.565 236.165 472.049 233.706 484.282 230.924C528.313 220.909 565.495 205.892 594.799 186.287C625.795 165.514 652.327 135.833 667.591 104.854C687.4 64.6504 693.418 38.4994 685 29.224L684.654 28.8684Z" fill="#6666F2"/>
<path d="M790.039 -94.0514C784.861 -73.1506 774.859 -52.478 761.065 -34.7555C740.133 -7.8606 713.687 12.1517 695.183 24.2058C690.105 27.5147 686.151 29.7869 682.663 31.7921C678.791 33.9436 675.024 36.2744 671.392 38.7672C677.111 48.1946 669.887 72.442 649.342 112.848C633.697 143.614 608.572 171.604 578.595 191.661C550.153 210.658 514.131 224.999 471.532 234.289C459.614 236.887 447.489 239.154 435.763 241.35C399.426 248.143 365.103 254.562 335.551 270.223L335.291 270.361L335.034 270.355C307.033 269.787 289.379 267.766 276.612 258.78C247.91 269.091 215.945 259.664 202.105 236.744C190.802 218.024 189.792 189.493 199.098 151.926C199.251 151.309 199.403 150.695 199.563 150.076C199.974 148.461 200.394 146.852 200.812 145.252C204.996 129.2 208.949 114.044 202.405 101.05C200.667 97.5992 198.832 94.0976 196.97 90.5404C186.792 71.1009 176.265 50.9993 175.217 28.8839C174.285 8.09589 179.749 -14.3111 191.175 -36.5657C202.602 -58.8202 219.678 -80.3123 241.054 -99.3428C282.887 -136.458 341.441 -167.02 401.702 -183.198C418.551 -187.721 435.769 -191.511 452.42 -195.177C486.864 -202.765 522.48 -210.604 556.13 -225.266C592.969 -241.318 628.34 -265.963 659.547 -287.707L661.231 -288.88C689.004 -308.228 717.934 -308.353 734.269 -302.582C753.38 -295.83 758.946 -277.078 761.66 -261.495C762.18 -258.517 762.572 -255.402 762.988 -252.106C764.196 -242.531 765.566 -231.679 770.646 -221.106C787.533 -185.96 795.168 -153.314 793.972 -121.302C793.639 -112.415 792.323 -103.298 790.039 -94.0514ZM669.44 38.7938L670.042 38.368C673.914 35.6681 677.946 33.1554 682.101 30.8519C685.561 28.8636 689.483 26.6075 694.502 23.3364C712.856 11.379 739.089 -8.46936 759.84 -35.1315C779.462 -60.3422 791.344 -91.6139 792.437 -120.921C793.628 -152.793 786.022 -185.315 769.186 -220.346C764.052 -231.028 762.675 -241.947 761.46 -251.58C761.045 -254.867 760.654 -257.971 760.138 -260.931C757.459 -276.306 751.989 -294.8 733.298 -301.405C717.334 -307.044 689.075 -306.931 661.972 -288.051L660.288 -286.879C628.99 -265.07 593.508 -240.351 556.448 -224.2C522.589 -209.448 486.863 -201.581 452.316 -193.977C435.687 -190.313 418.493 -186.531 401.694 -182.021C341.778 -165.938 283.575 -135.564 242.011 -98.6881C220.822 -79.8231 203.894 -58.518 192.568 -36.4571C181.241 -14.3962 175.825 7.8156 176.749 28.4225C177.788 50.3619 188.274 70.3884 198.416 89.7553C200.278 93.3156 202.115 96.8207 203.856 100.276C210.535 113.542 206.538 128.86 202.307 145.092C201.892 146.688 201.472 148.296 201.061 149.909C191.327 188.132 192.151 217.084 203.528 235.923C217.188 258.545 248.711 267.825 276.854 257.51L277.286 257.351L277.554 257.542C290.082 266.503 307.534 268.529 335.321 269.104C365.133 253.375 399.529 246.941 435.931 240.133C447.643 237.943 459.751 235.679 471.639 233.087C513.954 223.86 549.702 209.636 577.889 190.809C607.559 170.96 632.439 143.233 647.942 112.745C668.609 72.1037 675.734 48.0437 669.716 39.205L669.44 38.7938Z" fill="#6666F2"/>
<path d="M785.075 -85.4539C779.839 -64.3169 769.519 -43.4385 755.15 -25.5235C730.657 5.0159 700.309 25.0148 684.4 34.2181C679.342 37.1135 674.158 39.7857 668.884 42.2171C664.509 44.2154 660.216 46.4327 656.038 48.8516C660.197 59.9004 645.832 89.883 629.643 120.702C613.988 150.503 589.849 177.279 561.674 196.098C534.338 214.319 499.758 227.864 458.893 236.354C447.298 238.763 435.525 240.834 424.14 242.838C390.054 248.836 357.86 254.496 330.189 268.558L329.923 268.693L329.67 268.672C299.944 266.217 285.016 261.386 274.824 250.884C248.295 259.712 218.963 249.903 206.43 227.943C196.098 209.841 195.26 182.705 203.868 144.985L204.578 141.898C208.238 126.037 211.696 111.054 204.706 98.3349L202.486 94.3101C191.231 73.9335 178.472 50.8384 178.075 25.9408C177.417 -15.3235 202.391 -62.0316 244.879 -99.0053C286.663 -135.364 342.537 -164.103 402.213 -179.93C418.681 -184.296 435.514 -187.969 451.795 -191.523C486.74 -199.147 522.87 -207.031 556.918 -222.165C589.389 -236.6 619.652 -257.246 648.921 -277.212C652.698 -279.789 656.441 -282.337 660.15 -284.856C689.299 -304.606 718.711 -303.447 735.039 -296.455C754.13 -288.283 758.275 -268.227 759.752 -251.669C760.003 -248.851 760.141 -245.93 760.285 -242.834C760.758 -232.753 761.294 -221.325 766.198 -210.31C776.356 -187.485 789.769 -152.669 788.962 -113.988C788.771 -104.705 787.47 -95.1534 785.075 -85.4539ZM654.279 48.693L654.876 48.3335C659.299 45.7318 663.858 43.361 668.511 41.2428C673.728 38.8386 678.854 36.1969 683.858 33.3346C699.632 24.2094 729.722 4.3793 754.005 -25.8956C774.671 -51.6622 786.881 -83.6353 787.507 -113.61C788.312 -152.133 774.936 -186.845 764.806 -209.605C759.848 -220.746 759.307 -232.25 758.831 -242.396C758.686 -245.482 758.55 -248.399 758.302 -251.196C756.843 -267.553 752.767 -287.351 734.059 -295.361C718.078 -302.203 689.313 -303.348 660.831 -284.051C657.123 -281.539 653.382 -278.993 649.606 -276.411C620.254 -256.386 589.901 -235.68 557.238 -221.16C522.984 -205.932 486.741 -198.023 451.696 -190.376C435.438 -186.828 418.625 -183.158 402.202 -178.804C342.855 -163.067 287.302 -134.498 245.777 -98.3636C224.898 -80.1044 208.065 -59.4358 196.579 -37.9531C185.093 -16.4704 179.261 5.25171 179.532 25.5365L178.804 25.7417L179.532 25.5365C179.925 50.2446 192.639 73.2552 203.854 93.5597L206.073 97.5859C213.201 110.556 209.707 125.697 206.008 141.724L205.299 144.807C196.741 182.306 197.556 209.252 207.791 227.186C220.173 248.88 249.134 258.542 275.153 249.66L275.613 249.503L275.845 249.747C285.847 260.21 300.547 265.025 330.025 267.481C357.935 253.365 390.182 247.693 424.321 241.685C435.691 239.685 447.45 237.617 459.015 235.214C499.604 226.781 533.919 213.348 561.007 195.291C588.899 176.663 612.806 150.134 628.326 120.59C644.609 89.5929 659.049 59.4779 654.467 49.1236L654.279 48.693Z" fill="#6666F2"/>
<path d="M780.117 -76.8915C774.823 -55.5197 764.18 -34.4232 749.214 -16.2798C721.551 17.2596 687.127 37.2069 673.607 44.2316C667.672 47.262 661.604 49.9804 655.458 52.3634C650.446 54.2971 645.495 56.4933 640.643 58.9345C642.104 69.3458 627.178 96.8181 609.932 128.562C594.267 157.396 571.115 182.958 544.74 200.542C518.504 217.996 485.365 230.742 446.246 238.427C434.94 240.647 423.487 242.52 412.413 244.332C380.617 249.529 350.583 254.439 324.817 266.901L324.547 267.032L324.303 266.999C296.509 262.893 281.616 255.93 273.031 242.999C248.685 250.337 221.977 240.148 210.742 219.163C198.876 197.003 203.131 165.171 208.161 139.917L208.367 138.889C211.518 123.089 214.495 108.168 206.995 95.6393C193.58 73.2322 180.515 49.1676 180.922 23.0221L181.61 22.8409L180.922 23.0221C181.559 -17.5157 206.888 -62.9963 248.695 -98.6437C289.798 -133.691 344.495 -161.39 402.708 -176.634C418.807 -180.853 435.269 -184.409 451.187 -187.849C486.619 -195.506 523.256 -203.425 557.686 -219.04C586.698 -232.199 614.008 -250.581 640.419 -268.356C646.842 -272.68 652.908 -276.763 659.045 -280.806C687.661 -299.657 718.202 -299.16 735.776 -290.304C755.147 -280.547 757.63 -257.962 757.813 -241.824C757.845 -239.101 757.768 -236.284 757.686 -233.302C757.396 -222.787 757.069 -210.867 761.726 -199.491C773.338 -171.138 784.062 -140.262 783.926 -106.654C783.893 -96.9966 782.617 -87.0276 780.117 -76.8915ZM639.131 58.6149L639.677 58.3295C644.76 55.7349 649.959 53.4136 655.226 51.3867C661.308 49.0282 667.311 46.3391 673.186 43.3425C702.522 27.8149 728.499 7.02266 748.147 -16.6565C769.887 -43.0117 782.43 -75.6829 782.548 -106.289C782.686 -139.768 771.983 -170.561 760.401 -198.851C755.686 -210.365 756.017 -222.368 756.309 -232.958C756.391 -235.932 756.468 -238.74 756.438 -241.45C756.256 -257.404 753.814 -279.724 734.795 -289.307C717.573 -297.986 687.658 -298.486 659.661 -280.041C653.535 -276.005 647.471 -271.924 641.053 -267.604C614.567 -249.777 587.18 -231.344 558 -218.108C523.362 -202.395 486.62 -194.458 451.085 -186.777C435.186 -183.341 418.743 -179.787 402.688 -175.583C344.778 -160.418 290.381 -132.878 249.522 -98.036C208.056 -62.6764 182.925 -17.5629 182.3 22.6526C181.894 48.6073 194.91 72.5729 208.271 94.8966C215.91 107.655 212.903 122.726 209.72 138.681L209.516 139.707C204.511 164.83 200.275 196.484 212.034 218.449C223.145 239.205 249.546 249.248 273.439 241.812L273.919 241.662L274.108 241.949C282.506 254.825 297.175 261.758 324.718 265.853C350.701 253.353 380.774 248.437 412.605 243.233C423.662 241.426 435.102 239.556 446.378 237.341C485.232 229.708 518.114 217.069 544.111 199.775C570.223 182.367 593.159 157.032 608.696 128.435C626.079 96.4389 641.093 68.8055 639.21 59.0303L639.131 58.6149Z" fill="#6666F2"/>
<path d="M775.22 -68.3736C769.869 -46.7707 758.891 -25.4386 743.309 -7.03711C713.576 28.0769 677.142 47.5103 662.861 54.2355C655.185 57.8477 648.599 60.1624 642.232 62.3991C636.524 64.3022 630.855 66.5085 625.27 69.001C624.467 76.699 614.933 93.3016 601.828 116.131C598.114 122.6 594.273 129.29 590.258 136.422C579.17 156.133 559.34 184.029 527.84 204.984C502.696 221.679 470.999 233.627 433.634 240.497C422.576 242.53 411.405 244.2 400.603 245.813C371.14 250.221 343.314 254.376 319.479 265.244L319.212 265.366L318.98 265.316C292.362 259.573 278.072 250.524 271.288 235.098C249.13 240.943 225.043 230.379 215.089 210.378C205.071 190.243 207.919 162.173 212.487 134.842C214.911 120.35 217.416 105.364 209.318 92.9372C196.747 73.6508 182.488 47.9394 183.805 20.102C185.683 -19.671 211.38 -63.9271 252.541 -98.2821C292.948 -132.01 346.465 -158.663 403.237 -173.342C418.974 -177.41 435.071 -180.853 450.641 -184.184C486.551 -191.867 523.685 -199.812 558.485 -215.915C584.666 -228.03 609.491 -244.604 633.496 -260.634C641.935 -266.268 649.906 -271.591 657.968 -276.754C687.799 -295.86 719.608 -293.987 736.536 -284.157C751.373 -275.542 757.526 -258.964 755.905 -231.989C755.743 -229.3 755.472 -226.528 755.187 -223.595C754.125 -212.702 752.922 -200.354 757.285 -188.677C767.226 -162.072 778.492 -131.917 778.923 -99.3221C779.064 -89.3081 777.822 -78.9346 775.22 -68.3736ZM624.033 68.5495L624.495 68.3332C630.626 65.4756 636.198 63.5179 642.097 61.4468C648.416 59.2255 654.95 56.931 662.534 53.3599C676.698 46.6909 712.823 27.4226 742.317 -7.41007C765.166 -34.3942 778.04 -67.7635 777.624 -98.966C777.195 -131.439 765.95 -161.537 756.027 -188.091C751.609 -199.913 752.822 -212.351 753.891 -223.325C754.177 -226.251 754.446 -229.014 754.608 -231.687C756.213 -258.382 750.163 -274.761 735.569 -283.234C718.954 -292.879 687.757 -294.735 658.526 -276.016C650.48 -270.863 642.518 -265.546 634.087 -259.916C610.014 -243.843 585.123 -227.223 558.795 -215.04C523.791 -198.844 486.554 -190.877 450.54 -183.171C434.99 -179.844 418.91 -176.404 403.21 -172.346C346.722 -157.744 293.484 -131.231 253.305 -97.694C212.462 -63.6042 186.962 -19.685 185.099 19.7812L184.45 19.9393L185.099 19.7812C183.793 47.4206 197.993 73.0126 210.511 92.2199C218.748 104.86 216.218 119.988 213.775 134.619C209.225 161.829 206.384 189.76 216.318 209.725C226.174 229.533 250.013 239.957 271.768 233.974L272.253 233.841L272.39 234.16C279.002 249.512 293.081 258.514 319.443 264.24C343.466 253.35 371.321 249.187 400.803 244.781C411.592 243.169 422.749 241.502 433.779 239.472C470.885 232.648 502.334 220.801 527.253 204.261C558.441 183.509 578.101 155.843 589.104 136.285C593.119 129.148 596.96 122.456 600.676 115.985C613.43 93.7711 623.501 76.2346 624.01 68.9221L624.033 68.5495Z" fill="#6666F2"/>
<path d="M770.349 -59.9607C764.941 -38.1266 753.615 -16.5436 737.399 2.14275C705.723 38.6432 667.207 57.6809 652.119 64.1714C643.716 67.7866 636.283 70.0945 629.098 72.3254C622.619 74.3371 616.494 76.2391 609.895 78.9888C607.958 84.2937 601.828 93.9332 593.408 107.177C586.879 117.443 578.751 130.222 570.589 144.222C559.493 163.248 540.138 189.996 510.949 209.371C486.866 225.318 456.61 236.469 421.019 242.516C410.157 244.362 399.224 245.821 388.65 247.232C361.574 250.847 335.997 254.261 314.131 263.536L313.868 263.648L313.653 263.585C287.962 256.208 274.341 244.961 269.542 227.144C249.268 231.576 228.249 220.872 219.421 201.542C210.043 181.017 213.952 151.362 216.801 129.711C218.762 114.834 219.724 101.594 211.628 90.1763C193.02 63.9361 184.856 40.041 186.67 17.1229C189.755 -21.8529 215.812 -64.8819 256.368 -97.9837C296.064 -130.382 348.404 -155.998 403.748 -170.114C419.136 -174.039 434.882 -177.374 450.108 -180.594C486.492 -188.296 524.114 -196.259 559.27 -212.858C583.07 -224.094 605.755 -239.181 627.695 -253.773C637.749 -260.46 647.246 -266.776 656.876 -272.771C688.117 -292.212 720.451 -289.15 737.275 -278.075C755.857 -265.846 762.408 -243.886 753.951 -222.113C748.424 -207.877 748.022 -192.175 752.83 -177.932C753.913 -174.724 755.018 -171.492 756.144 -168.236C764.466 -144.056 773.066 -119.051 773.908 -92.0542C774.243 -81.7011 773.05 -70.9359 770.349 -59.9607ZM314.157 262.574C336.19 253.287 361.781 249.872 388.868 246.255C399.427 244.844 410.347 243.387 421.179 241.546C456.522 235.542 486.54 224.488 510.396 208.689C539.301 189.501 558.496 162.961 569.515 144.074C577.693 130.052 585.826 117.261 592.359 106.986C600.898 93.5562 607.069 83.8526 608.83 78.7401L608.936 78.4378L609.3 78.2849C616.122 75.4177 622.392 73.4704 629.034 71.4077C636.174 69.1912 643.557 66.8984 651.867 63.3237C666.836 56.8848 705.04 37.9989 736.476 1.778C760.476 -25.8757 773.675 -59.9457 772.688 -91.7018C771.853 -118.6 763.264 -143.558 754.962 -167.696C753.84 -170.952 752.736 -174.184 751.648 -177.391C746.791 -191.791 747.196 -207.66 752.798 -222.091C761.12 -243.526 754.657 -265.162 736.336 -277.221C719.799 -288.104 688.041 -291.13 657.382 -272.051C647.779 -266.074 638.292 -259.765 628.251 -253.089C606.253 -238.458 583.504 -223.33 559.578 -212.034C524.224 -195.343 486.497 -187.357 450.013 -179.636C434.803 -176.416 419.075 -173.087 403.722 -169.171C348.639 -155.123 296.556 -129.639 257.074 -97.4126C216.813 -64.5515 190.953 -21.8341 187.886 16.8532L187.278 16.9906L187.886 16.8532C186.085 39.6116 194.212 63.3717 212.735 89.4913C220.958 101.088 219.988 114.464 218.01 129.483C215.17 151.052 211.278 180.591 220.581 200.953C229.192 219.805 250.476 230.607 270.081 226.088L270.56 225.979L270.648 226.314C275.293 244.039 288.717 255.227 314.157 262.574Z" fill="#6666F2"/>
<path d="M765.509 -51.982C759.997 -29.7254 748.212 -7.45752 731.504 11.3543C707.893 37.9387 675.053 60.8226 641.404 74.1359C632.297 77.7395 624.042 80.0345 616.059 82.2541C608.788 84.2761 601.913 86.1885 594.556 88.9901C592.676 91.9128 589.445 96.2693 585.382 101.748C576.727 113.425 563.645 131.071 550.943 152.048C534.787 178.727 515.655 199.5 494.076 213.786C471.056 228.992 442.239 239.347 408.432 244.561C397.704 246.216 386.949 247.455 376.549 248.652C351.926 251.485 328.668 254.163 308.809 261.858L308.56 261.956L308.363 261.884C283.445 252.86 270.557 239.298 267.839 219.221C249.811 222.124 231.339 211.056 223.778 192.754C216.4 174.884 218.691 150.599 220.716 129.17L221.141 124.627C222.557 109.259 221.85 97.6814 213.965 87.4613C200.989 70.6436 186.22 44.2786 189.569 14.1954C193.822 -23.9463 220.229 -65.7488 260.225 -97.6307C299.189 -128.691 350.351 -153.266 404.288 -166.831C419.33 -170.616 434.728 -173.837 449.618 -176.952C486.471 -184.665 524.577 -192.638 560.078 -209.738C581.836 -220.221 602.661 -234.059 622.795 -247.441C634.15 -254.986 644.873 -262.114 655.803 -268.721C687.028 -287.597 720.803 -284.627 738.027 -271.94C756.164 -258.577 761.669 -235.185 752.044 -212.318C745.558 -196.918 744.265 -180.873 748.395 -167.137C750.16 -161.272 752.139 -155.22 754.055 -149.366C760.806 -128.735 767.785 -107.401 768.91 -84.7356C769.427 -74.201 768.285 -63.2058 765.509 -51.982ZM308.889 260.946C328.891 253.248 352.155 250.569 376.775 247.735C387.162 246.539 397.902 245.304 408.602 243.652C442.17 238.475 470.754 228.212 493.563 213.147C514.935 198.998 533.905 178.389 549.949 151.894C562.683 130.866 575.787 113.19 584.461 101.492C588.609 95.8977 591.884 91.4785 593.719 88.5939L593.858 88.3756L594.127 88.2733C601.662 85.3855 608.651 83.4425 616.052 81.3839C623.993 79.1753 632.204 76.8935 641.226 73.3238C674.622 60.1091 707.22 37.3943 730.661 11.0014C755.478 -16.9425 769.351 -52.603 767.773 -84.3973C766.652 -106.979 759.684 -128.275 752.945 -148.871C751.03 -154.728 749.049 -160.783 747.281 -166.653C743.107 -180.534 744.416 -196.75 750.973 -212.325C760.467 -234.87 755.029 -257.969 737.12 -271.163C720.163 -283.656 686.942 -286.594 656.255 -268.043C645.358 -261.456 634.65 -254.34 623.314 -246.806C603.123 -233.388 582.246 -219.514 560.376 -208.979C524.683 -191.785 486.474 -183.789 449.524 -176.057C434.649 -172.944 419.266 -169.725 404.254 -165.95C350.557 -152.446 299.634 -127.988 260.866 -97.085C221.147 -65.4225 194.918 -23.9084 190.7 13.9653L190.133 14.0812L190.7 13.9653C187.373 43.8425 202.07 70.065 214.988 86.8011C222.984 97.166 223.708 108.866 222.27 124.384L221.845 128.927C219.829 150.28 217.542 174.483 224.868 192.218C232.371 210.385 250.693 221.328 268.43 218.241L268.88 218.163L268.923 218.498C271.509 238.469 284.21 251.961 308.889 260.946Z" fill="#6666F2"/>
<path d="M760.719 -43.6468C755.152 -21.1682 743.004 1.37187 725.624 20.517C700.752 47.917 666.159 71.0723 630.713 84.0454C620.915 87.6317 611.856 89.9111 603.095 92.1163C595.018 94.1484 587.385 96.0691 579.26 98.9231C560.767 118.329 544.666 138.785 531.327 159.824C514.923 185.87 497.228 204.949 477.236 218.151C455.248 232.627 427.872 242.186 395.869 246.556C385.189 248.015 374.542 249.012 364.246 249.975C342.164 252.04 321.303 253.996 303.507 260.128L303.27 260.21L303.097 260.133C278.849 249.45 266.767 233.455 266.163 211.242C250.401 212.611 234.461 201.185 228.147 183.919C222.503 168.488 223.776 147.95 224.898 129.831C225.117 126.296 225.331 122.834 225.491 119.495C226.052 107.762 225.33 95.4251 216.314 84.6975C205.342 71.6411 187.654 44.7329 192.476 11.2236C197.838 -26.0588 224.609 -66.6272 264.089 -97.3256C302.302 -127.039 352.286 -150.575 404.833 -163.599C419.538 -167.243 434.597 -170.357 449.16 -173.367C486.47 -181.081 525.059 -189.058 560.893 -206.672C580.877 -216.496 600.06 -229.267 618.612 -241.618C630.464 -249.511 642.719 -257.671 654.737 -264.722C687.363 -283.868 721.712 -279.784 738.781 -265.853C756.484 -251.405 760.941 -226.564 750.145 -202.577C744.866 -190.848 739.51 -173.318 743.97 -156.4C746.035 -148.57 748.494 -140.865 751.097 -132.71C756.751 -115.003 762.596 -96.6933 763.925 -77.475C764.67 -66.6327 763.593 -55.2667 760.719 -43.6468ZM303.641 259.272C321.556 253.144 342.411 251.193 364.485 249.124C374.767 248.16 385.399 247.165 396.051 245.712C427.825 241.371 454.979 231.897 476.758 217.558C496.563 204.481 514.115 185.541 530.412 159.666C543.828 138.508 560.025 117.937 578.633 98.426L578.768 98.2836L578.959 98.2164C587.226 95.3014 594.947 93.3576 603.123 91.2992C611.846 89.1051 620.866 86.832 630.589 83.2761C665.79 70.3926 700.148 47.3944 724.852 20.1789C750.888 -8.50365 765.103 -44.8855 762.87 -77.1401C761.546 -96.2903 755.711 -114.568 750.068 -132.245C747.577 -140.048 745.001 -148.117 742.931 -155.959C738.425 -173.055 743.832 -190.757 749.161 -202.599C759.837 -226.312 755.421 -250.858 737.919 -265.144C721.092 -278.877 687.254 -282.92 655.141 -264.076C643.165 -257.047 631.475 -249.264 619.096 -241.021C600.499 -228.641 581.27 -215.837 561.184 -205.965C525.164 -188.258 486.479 -180.26 449.07 -172.527C434.521 -169.52 419.476 -166.408 404.8 -162.771C352.468 -149.8 302.702 -126.371 264.674 -96.7995C225.448 -66.2961 198.852 -25.9792 193.53 11.0353L193.005 11.1333L193.53 11.0353C188.744 44.3211 206.338 71.0838 217.254 84.0725C226.383 94.9377 227.117 107.399 226.551 119.244C226.392 122.587 226.177 126.052 225.957 129.589C224.839 147.651 223.571 168.119 229.174 183.447C235.447 200.606 251.274 211.924 266.802 210.355L267.21 210.315L267.216 210.632C267.702 232.723 279.617 248.637 303.641 259.272Z" fill="#6666F2"/>
<path d="M755.948 -35.3332C750.328 -12.6419 737.804 10.1793 719.73 29.6852C693.632 57.8493 657.29 81.2776 620.019 93.9564C609.538 97.5235 599.69 99.7856 590.165 101.974C581.28 104.015 572.883 105.944 563.984 108.846C550.781 119.304 529.217 140.925 511.708 167.6C500.34 184.924 484.232 206.824 460.392 222.515C439.721 236.081 413.064 245.086 383.303 248.555C372.561 249.808 361.933 250.532 351.654 251.232C332.218 252.558 313.862 253.807 298.197 258.411L297.982 258.474L297.832 258.395C274.207 246.034 262.992 227.488 264.499 203.277C250.81 203.111 237.692 191.58 232.511 175.103C228.368 161.924 228.937 145.527 229.487 129.669C229.674 124.299 229.85 119.227 229.837 114.381C229.801 100.167 226.458 90.4679 218.658 81.9524C199.323 60.8462 190.839 33.9912 195.381 8.2742C201.794 -28.0794 228.934 -67.4451 267.946 -96.9949C305.386 -125.352 354.191 -147.848 405.37 -160.339C419.741 -163.847 434.462 -166.852 448.698 -169.757C486.475 -177.471 525.537 -185.44 561.694 -203.579C580.117 -212.818 597.839 -224.667 614.977 -236.125C627.631 -244.583 640.714 -253.329 653.651 -260.694C669.246 -269.572 686.228 -273.853 702.762 -273.074C717.715 -272.281 730.488 -267.646 739.506 -259.741C756.783 -244.253 760.201 -217.982 748.221 -192.816C739.39 -174.262 736.54 -158.831 739.521 -145.642C741.621 -136.348 744.643 -126.838 747.567 -117.648C752.422 -102.387 757.443 -86.6073 758.915 -70.1903C759.911 -59.0608 758.913 -47.3376 755.948 -35.3332ZM298.387 257.606C314.144 253.013 332.49 251.764 351.905 250.441C362.169 249.742 372.783 249.018 383.497 247.768C404.099 245.366 434.086 238.939 459.951 221.964C483.57 206.42 499.571 184.658 510.871 167.436C528.508 140.557 550.267 118.775 563.543 108.285L563.652 108.2L563.782 108.157C572.792 105.21 581.651 103.176 590.217 101.208C599.709 99.0279 609.521 96.7731 619.931 93.2314C656.967 80.6299 693.082 57.3497 719.017 29.3607C746.32 -0.105063 760.871 -37.2011 757.938 -69.8738C756.47 -86.232 751.459 -101.988 746.613 -117.222C743.686 -126.425 740.66 -135.941 738.554 -145.258C735.542 -158.579 738.414 -174.153 747.319 -192.86C759.18 -217.771 755.791 -243.772 738.688 -259.106C722.42 -273.693 687.211 -278.995 654.002 -260.089C641.115 -252.751 628.055 -244.021 615.424 -235.577C598.246 -224.094 580.483 -212.219 561.972 -202.933C525.636 -184.706 486.477 -176.713 448.61 -168.984C434.386 -166.081 419.678 -163.08 405.332 -159.578C354.347 -147.134 305.741 -124.732 268.468 -96.5018C229.691 -67.1326 202.736 -28.0336 196.348 8.11821L195.864 8.196L196.348 8.11821C191.836 33.6662 200.277 60.3581 219.507 81.3535C227.396 89.9645 230.778 99.7618 230.814 114.116C230.826 118.971 230.65 124.049 230.462 129.424C229.915 145.235 229.348 161.585 233.464 174.682C238.618 191.073 251.655 202.506 265.165 202.481L265.511 202.481L265.49 202.767C263.9 226.849 274.967 245.298 298.387 257.606Z" fill="#6666F2"/>
<path d="M751.385 -26.8598C745.711 -3.95054 732.796 19.1717 713.986 39.0817C686.19 68.288 648.968 91.446 609.434 104.13C598.282 107.673 587.658 109.917 577.384 112.088C568.101 114.049 558.501 116.077 548.808 119.031C534.412 128.005 510.975 148.2 492.145 175.681C479.424 194.247 464.736 213.34 443.576 227.217C418.692 243.49 390.228 249.082 370.732 250.906C359.774 251.929 349.044 252.329 338.666 252.714C322.016 253.331 306.289 253.914 292.842 257.046L292.65 257.092L292.526 257.015C269.482 242.957 259.202 221.736 262.782 195.634C251.437 193.888 240.777 182.001 236.798 166.606C233.939 155.546 234.117 142.131 234.29 129.157C234.384 122.207 234.47 115.642 234.111 109.553C233.367 97.1216 229.3 87.8447 220.924 79.4738C201.134 59.6945 192.639 32.0631 198.201 5.55664C205.638 -29.9331 233.138 -68.0425 271.756 -96.4905C308.409 -123.493 356.058 -144.963 405.925 -156.945C419.974 -160.32 434.372 -163.221 448.296 -166.024C486.548 -173.727 526.102 -181.693 562.585 -200.374C579.629 -209.102 596.046 -220.143 611.924 -230.82C625.221 -239.762 638.971 -249.009 652.697 -256.585C687.829 -275.979 724.109 -269.496 740.41 -253.555C759.273 -235.106 754.14 -205.007 746.503 -182.998C745.446 -179.944 744.245 -176.849 742.976 -173.569C738.005 -160.739 732.867 -147.474 735.249 -134.752C737.194 -124.365 740.582 -113.853 743.862 -103.684C748.116 -90.4835 752.516 -76.8325 754.091 -62.733C755.36 -51.3267 754.449 -39.2487 751.385 -26.8598ZM293.081 256.303C306.597 253.183 322.305 252.601 338.931 251.985C349.294 251.6 360.008 251.204 370.938 250.181C390.29 248.37 418.532 242.829 443.176 226.711C464.143 212.959 478.74 193.978 491.392 175.513C510.362 147.826 534.023 127.472 548.518 118.454L548.687 118.379C558.464 115.392 568.123 113.352 577.461 111.379C587.704 109.216 598.296 106.979 609.386 103.455C648.698 90.843 685.71 67.8153 713.349 38.773C741.987 8.46055 756.882 -29.3697 753.193 -62.4293C751.625 -76.4851 747.231 -90.1128 742.983 -103.292C739.701 -113.472 736.308 -123.997 734.358 -134.412C731.949 -147.287 737.354 -161.242 742.122 -173.551C743.389 -176.822 744.586 -179.911 745.641 -182.953C753.218 -204.805 758.335 -234.7 739.645 -252.981C723.529 -268.741 687.69 -275.16 653.005 -256.016C639.333 -248.469 625.609 -239.239 612.338 -230.316C596.427 -219.614 579.972 -208.55 562.853 -199.783C526.198 -181.015 486.551 -173.029 448.213 -165.309C434.3 -162.507 419.913 -159.609 405.889 -156.241C356.194 -144.302 308.725 -122.912 272.222 -96.02C233.821 -67.7349 206.5 -29.7995 199.085 5.43683L198.642 5.49933L199.085 5.43683C193.56 31.7729 202.01 59.2402 221.692 78.9108C230.151 87.363 234.256 96.7313 235.008 109.281C235.374 115.388 235.284 121.962 235.191 128.923C235.018 141.863 234.839 155.245 237.684 166.242C242.309 184.139 254.297 193.671 263.476 194.953L263.744 194.991L263.71 195.232C260.07 221.191 270.226 242.306 293.081 256.303Z" fill="#6666F2"/>
<path d="M746.852 -18.8568C741.073 4.47593 727.655 28.3428 708.286 48.4704C679.787 78.0849 639.913 102.078 598.885 114.301C588.905 117.273 579.201 118.884 569.814 120.442C557.455 122.493 545.781 124.43 533.678 129.207C518.443 135.22 493.65 154.425 472.607 183.766C460.163 201.117 446.374 219.126 426.785 231.927C403.104 247.351 376.41 252.041 358.183 253.265C346.796 254.028 335.826 254.002 325.212 253.983C311.534 253.955 298.615 253.931 287.506 255.689L287.344 255.714L287.244 255.644C264.45 239.65 255.414 216.262 261.099 187.997C253.499 185.157 244.419 174.864 241.107 158.111C239.327 149.11 239.32 138.482 239.31 128.209C239.304 119.797 239.297 111.853 238.399 104.724C237.019 93.7487 232.476 85.4559 223.204 76.9939C202.595 58.1809 194.308 30.4598 201.034 2.83989L201.131 2.44925C209.648 -31.9442 237.448 -68.7119 275.578 -95.9897C311.943 -122.004 357.215 -141.91 406.501 -153.559C420.231 -156.803 434.307 -159.597 447.921 -162.302C486.651 -169.99 526.703 -177.943 563.505 -197.183C579.313 -205.446 594.554 -215.773 609.292 -225.762C623.093 -235.115 637.365 -244.786 651.774 -252.491C688.373 -272.063 725.236 -264.468 741.343 -247.385C756.196 -231.632 757.424 -205.257 744.789 -173.129C743.533 -169.931 742.128 -166.702 740.642 -163.288C734.966 -150.248 729.099 -136.765 731.003 -123.869C732.654 -112.682 736.355 -101.514 739.934 -90.7159C743.728 -79.2742 747.65 -67.4433 749.29 -55.2793C750.815 -43.7481 749.993 -31.4705 746.852 -18.8568ZM287.786 255.007C298.939 253.261 311.836 253.288 325.486 253.314C336.083 253.335 347.045 253.358 358.393 252.598C376.481 251.388 402.967 246.737 426.415 231.462C445.829 218.78 459.546 200.864 471.926 183.595C493.109 154.06 518.138 134.702 533.547 128.622C545.771 123.796 557.503 121.849 569.925 119.789C579.278 118.236 588.949 116.632 598.855 113.681C639.677 101.52 679.35 77.6485 707.702 48.1853C737.291 17.436 752.915 -22.0983 748.475 -54.9944C746.838 -67.1174 742.923 -78.9301 739.136 -90.3551C735.551 -101.171 731.844 -112.355 730.189 -123.577C728.264 -136.619 734.166 -150.184 739.876 -163.301C741.359 -166.711 742.762 -169.932 744.015 -173.117C751.285 -191.62 760.509 -225.792 740.631 -246.875C724.689 -263.783 688.223 -271.313 652.041 -251.965C637.692 -244.292 623.45 -234.639 609.678 -225.306C594.909 -215.298 579.637 -204.949 563.762 -196.649C526.794 -177.324 486.657 -169.355 447.842 -161.648C434.237 -158.947 420.17 -156.154 406.461 -152.914C357.334 -141.305 312.217 -121.47 275.991 -95.5531C238.062 -68.4197 210.408 -31.8462 201.937 2.35825L201.841 2.74633L201.438 2.79297L201.841 2.74633C195.155 30.1979 203.398 57.7565 223.895 76.4657C233.243 84.9981 237.822 93.367 239.219 104.446C240.12 111.602 240.126 119.561 240.134 127.986C240.143 138.238 240.151 148.84 241.922 157.801C245.228 174.53 254.29 184.739 261.804 187.436L261.987 187.502L261.948 187.692C256.229 215.809 265.165 239.08 287.786 255.007Z" fill="#6666F2"/>
<path d="M742.4 -10.4102C736.571 13.1259 722.734 37.3136 702.573 57.9007C672.903 88.2008 631.265 112.478 588.333 124.508C577.486 127.549 566.88 129.256 556.622 130.909C543.634 132.999 531.369 134.975 518.558 139.418C501.043 145.494 474.002 164.071 453.066 191.88L452.506 192.625C441.18 207.673 428.342 224.73 409.99 236.663C392.424 248.054 369.572 254.795 345.637 255.646C333.53 256.078 322.136 255.466 311.116 254.88C300.656 254.322 290.778 253.795 282.176 254.351L282.049 254.36L281.971 254.298C259.958 236.721 251.903 210.772 259.238 181.153C259.301 180.899 259.364 180.644 259.427 180.39C254.294 176.502 247.586 166.163 245.424 149.645C244.512 142.705 244.473 134.758 244.433 127.074C244.382 117.674 244.331 107.954 242.701 99.9266C240.322 88.2127 233.026 80.8072 225.495 74.5476C204.307 56.9438 196.025 28.4196 203.878 0.163721C213.188 -33.3623 241.425 -69.1067 279.409 -95.4424C314.916 -120.061 359.063 -138.969 407.077 -150.119C420.49 -153.235 434.248 -155.926 447.554 -158.528C486.764 -166.197 527.309 -174.127 564.422 -193.935C579.116 -201.779 593.287 -211.471 606.989 -220.842C621.174 -230.544 635.842 -240.577 650.842 -248.339C667.723 -257.075 686.582 -260.848 703.943 -258.962C720.13 -257.129 733.485 -250.924 742.261 -241.159C762.467 -218.043 751.438 -182.398 743.068 -163.211C741.606 -159.858 739.988 -156.489 738.276 -152.923C731.922 -139.688 725.352 -126.007 726.749 -112.936C728.006 -101.179 731.985 -89.6427 735.834 -78.486C739.257 -68.5617 742.798 -58.2964 744.485 -47.784C746.338 -36.0123 745.635 -23.3969 742.4 -10.4102ZM282.502 253.737C291.122 253.191 300.978 253.716 311.409 254.275C322.41 254.864 333.787 255.47 345.857 255.04C369.608 254.195 392.269 247.518 409.667 236.239C427.854 224.412 440.634 207.434 451.91 192.45L452.47 191.709C473.54 163.72 500.81 145.006 518.49 138.871C531.39 134.396 544.274 132.321 556.733 130.315C566.962 128.668 577.54 126.964 588.331 123.941C631.071 111.964 672.521 87.7965 702.06 57.6339C733.091 25.9419 749.069 -14.352 743.753 -47.5174C742.073 -58.0004 738.538 -68.2491 735.119 -78.1596C731.263 -89.3365 727.277 -100.894 726.017 -112.694C724.606 -125.902 731.21 -139.657 737.599 -152.963C739.307 -156.523 740.923 -159.887 742.382 -163.229C750.708 -182.315 761.68 -217.759 741.615 -240.714C725.861 -258.741 688.773 -267.373 651.074 -247.861C636.142 -240.135 621.502 -230.122 607.347 -220.439C593.62 -211.051 579.422 -201.34 564.669 -193.466C527.403 -173.576 486.778 -165.63 447.487 -157.946C434.189 -155.344 420.439 -152.656 407.045 -149.545C359.168 -138.426 315.159 -119.58 279.774 -95.0459C241.971 -68.8356 213.872 -33.2711 204.608 0.0895449C196.791 28.2443 205.04 56.5437 226.11 74.0517C233.693 80.3528 241.041 87.8134 243.442 99.6368C245.08 107.703 245.132 117.444 245.181 126.865C245.223 134.535 245.265 142.467 246.17 149.383C248.331 165.896 255.04 176.173 260.129 179.955L260.231 180.031L260.197 180.167C260.123 180.465 260.045 180.766 259.971 181.064C252.684 210.483 260.666 236.258 282.502 253.737Z" fill="#6666F2"/>
<path d="M738 -2.0313C732.123 21.6973 717.85 46.2208 696.863 67.2984C666.035 98.2648 622.629 122.827 577.78 134.685C566.03 137.792 554.474 139.592 543.3 141.331C530.31 143.354 516.879 145.445 503.441 149.6C485.125 155.259 455.817 171.848 433.521 199.969C432.509 201.245 431.492 202.534 430.469 203.837C419.889 217.28 408.948 231.181 393.195 241.37C370.685 255.889 345.873 258.019 333.087 257.999C319.815 257.976 307.276 256.399 296.215 255.006C289.272 254.132 282.711 253.306 276.849 252.978L276.755 252.973L276.702 252.922C254.779 233.178 248.054 204.71 257.768 172.753C253.489 165.893 250.495 154.082 249.751 141.139C249.477 136.375 249.502 131.34 249.523 126.014C249.572 115.168 249.622 103.953 247.01 95.0857C244.019 84.9312 236.535 78.6511 227.79 72.0621C205.636 55.3701 197.563 26.7705 206.729 -2.5521C216.89 -35.0813 245.495 -69.6173 283.246 -94.9357C317.856 -118.154 360.878 -136.061 407.661 -146.727C420.756 -149.713 434.197 -152.299 447.195 -154.802C486.889 -162.442 527.936 -170.344 565.35 -190.737C579.037 -198.197 592.229 -207.315 604.986 -216.133C619.449 -226.13 634.406 -236.469 649.918 -244.231C667.317 -252.937 686.649 -256.494 704.354 -254.246C720.949 -252.071 734.496 -245.35 743.192 -234.979C758.057 -216.715 757.389 -186.959 741.36 -153.338C739.681 -149.816 737.842 -146.295 735.895 -142.567C728.891 -129.159 721.65 -115.292 722.505 -102.045C723.292 -89.8979 727.527 -78.2255 731.626 -66.9367C734.75 -58.3275 737.98 -49.4246 739.693 -40.3218C741.905 -28.3306 741.333 -15.3856 738 -2.0313ZM277.202 252.441C283.064 252.775 289.601 253.6 296.522 254.469C307.564 255.859 320.08 257.434 333.31 257.456C345.999 257.479 370.612 255.368 392.901 240.991C408.514 230.891 419.406 217.052 429.94 203.668C430.964 202.367 431.981 201.077 432.993 199.798C455.427 171.502 484.944 154.802 503.406 149.098C516.911 144.926 530.376 142.829 543.398 140.802C554.55 139.065 566.081 137.269 577.786 134.175C622.464 122.36 665.698 97.8978 696.403 67.0557C728.963 34.3525 745.298 -6.69812 739.027 -40.0722C737.323 -49.1494 734.098 -58.0393 730.978 -66.6354C726.873 -77.9469 722.63 -89.6444 721.84 -101.841C720.977 -115.209 728.254 -129.144 735.292 -142.619C737.235 -146.341 739.073 -149.857 740.746 -153.37C756.699 -186.823 757.375 -216.43 742.6 -234.586C726.824 -253.97 687.914 -262.714 650.107 -243.795C634.662 -236.066 619.737 -225.748 605.303 -215.774C592.524 -206.937 579.309 -197.806 565.573 -190.318C528.017 -169.847 486.895 -161.932 447.126 -154.276C434.135 -151.776 420.703 -149.191 407.623 -146.208C360.958 -135.568 318.055 -117.712 283.552 -94.5712C245.962 -69.3611 217.486 -34.9804 207.369 -2.60101C198.255 26.5697 206.284 55.0064 228.32 71.6094C237.114 78.2347 244.64 84.5521 247.658 94.8029C250.284 103.717 250.234 114.96 250.186 125.832C250.163 131.155 250.14 136.181 250.413 140.934C251.155 153.864 254.149 165.647 258.421 172.457L258.464 172.523L258.436 172.613C248.738 204.425 255.406 232.773 277.202 252.441Z" fill="#6666F2"/>
<path d="M733.623 6.13341C732.331 11.3515 730.626 16.612 728.52 21.8815C720.998 40.9305 708.174 59.756 691.165 76.7217C659.185 108.34 614.015 133.187 567.238 144.891C554.552 148.063 542.009 149.947 529.879 151.769C516.341 153.802 502.341 155.904 488.335 159.801C466.972 165.744 436.221 181.547 413.975 208.078C412.302 210.075 410.593 212.161 408.941 214.179C399.579 225.608 389.903 237.422 376.393 246.108C360.79 256.112 340.432 261.316 320.54 260.381C305.411 259.67 291.548 256.354 280.408 253.689C277.277 252.939 274.319 252.231 271.527 251.623L271.434 251.572C260.898 240.957 254.099 227.805 251.461 212.935C248.824 198.066 250.405 181.799 256.105 165.15C254.492 156.985 253.773 145.448 254.078 132.657C254.133 130.387 254.22 128.088 254.309 125.655C254.764 113.652 255.28 100.049 251.317 90.266C247.792 81.5664 240.066 76.3433 231.883 70.815L230.08 69.5953C207.218 54.0602 199.167 24.6848 209.575 -5.24767C215.05 -20.9943 225.13 -37.5228 238.725 -53.0476C252.294 -68.4677 268.72 -82.5191 287.081 -94.4119C320.747 -116.205 362.647 -133.113 408.245 -143.312C421.021 -146.168 434.144 -148.652 446.832 -151.053C487.018 -158.658 528.573 -166.521 566.28 -187.516C579.052 -194.628 591.346 -203.228 603.237 -211.545C617.887 -221.793 633.036 -232.39 648.997 -240.102C666.919 -248.765 686.725 -252.101 704.768 -249.498C721.609 -247.068 735.957 -239.514 744.126 -228.777C759.084 -209.121 757.456 -178.021 739.655 -143.444C737.748 -139.743 735.586 -135.892 733.494 -132.169C725.867 -118.589 717.98 -104.545 718.262 -91.1292C718.522 -78.7381 722.997 -67.1237 727.325 -55.8905C730.199 -48.4342 733.17 -40.7166 734.891 -32.8298C737.475 -20.7053 737.046 -7.50973 733.623 6.13341ZM271.901 251.172C274.679 251.777 277.619 252.483 280.732 253.226C292.431 256.024 305.689 259.195 320.765 259.904C340.505 260.83 360.687 255.68 376.142 245.772C389.533 237.162 399.167 225.4 408.484 214.025C410.137 212.005 411.848 209.918 413.526 207.916C435.899 181.233 466.837 165.337 488.331 159.357C502.386 155.447 516.411 153.34 529.972 151.303C542.085 149.484 554.609 147.602 567.256 144.439C613.882 132.773 658.898 108.012 690.767 76.5063C724.936 42.72 741.627 0.909274 734.315 -32.6029C732.6 -40.4674 729.632 -48.1707 726.762 -55.6206C722.424 -66.8762 717.94 -78.5155 717.679 -90.9621C717.393 -104.492 725.315 -118.592 732.975 -132.229C735.064 -135.948 737.223 -139.793 739.124 -143.485C756.85 -177.909 758.482 -208.877 743.6 -228.437C728.037 -248.894 688.454 -258.703 649.154 -239.71C633.262 -232.029 618.144 -221.455 603.523 -211.227C591.616 -202.897 579.301 -194.283 566.487 -187.149C528.649 -166.081 487.024 -158.204 446.77 -150.586C434.087 -148.188 420.976 -145.704 408.21 -142.85C362.712 -132.675 320.916 -115.809 287.339 -94.0759C249.907 -69.8467 221.046 -36.6481 210.138 -5.27086C199.784 24.5051 207.794 53.7319 230.538 69.193L232.337 70.4125C240.559 75.9677 248.322 81.215 251.88 89.9949C255.866 99.8378 255.349 113.478 254.892 125.513C254.8 127.945 254.714 130.242 254.663 132.51C254.358 145.301 255.08 156.832 256.696 164.978L256.706 165.024L256.688 165.075C251.002 181.658 249.418 197.862 252.035 212.675C254.653 227.489 261.415 240.594 271.901 251.172Z" fill="#6666F2"/>
<path d="M729.304 14.2582C723.284 38.5619 707.997 64.2162 685.471 86.1547C652.352 118.412 605.418 143.544 556.701 155.104C543.052 158.343 529.484 160.306 516.362 162.204C502.301 164.239 487.762 166.343 473.235 170.015C442.804 177.711 413.345 194.977 394.432 216.205C392.216 218.692 389.987 221.314 387.833 223.85C379.626 233.504 371.139 243.488 359.602 250.852C345.014 260.141 325.724 264.596 308 262.768C289.948 260.904 274.711 256.346 266.199 250.257C239.535 231.187 245.775 194.015 254.451 157.573C255.883 151.561 256.491 144.683 257.196 136.717C257.55 132.718 257.915 128.588 258.417 124.184C259.949 110.757 261.124 95.5835 255.639 85.4503C251.844 78.439 244.777 74.3534 237.295 70.0278C235.684 69.0955 234.019 68.1317 232.386 67.1345C220.564 59.9344 212.46 48.9486 208.952 35.3646C205.483 22.1905 206.681 7.30452 212.438 -7.9338C218.411 -23.507 228.577 -39.1298 242.651 -54.3657C256.413 -69.1738 272.798 -82.5829 290.93 -93.8751C324.07 -114.525 363.741 -130.007 408.844 -139.887C421.299 -142.616 434.096 -144.995 446.477 -147.297C487.165 -154.86 529.236 -162.678 567.227 -184.289C579.163 -191.079 590.635 -199.21 601.728 -207.074C616.48 -217.531 631.735 -228.344 648.088 -235.966C666.535 -244.567 686.818 -247.68 705.194 -244.729C722.468 -241.955 737.004 -233.88 745.073 -222.573C752.871 -211.65 755.944 -197.795 754.208 -181.393C752.638 -166.531 747.02 -149.989 737.965 -133.545C735.826 -129.661 733.421 -125.643 731.096 -121.756C722.872 -108.015 714.367 -93.8024 714.032 -80.2081C713.727 -67.6876 718.427 -56.3015 722.974 -45.2909C725.638 -38.8404 728.392 -32.169 730.111 -25.3374C733.096 -13.1039 732.823 0.332924 729.304 14.2582ZM209.699 2.2634C203.018 29.2364 211.532 53.8463 232.769 66.7798C234.398 67.7724 236.064 68.7349 237.673 69.6662C245.189 74.0108 252.287 78.1156 256.117 85.1896C261.637 95.3874 260.459 110.612 258.922 124.081C258.421 128.483 258.056 132.613 257.699 136.607C256.996 144.585 256.385 151.475 254.948 157.516C246.293 193.86 240.065 230.933 266.598 249.91C275.065 255.965 290.236 260.503 308.222 262.357C325.808 264.172 344.932 259.763 359.383 250.56C370.82 243.261 379.272 233.319 387.445 223.703C389.603 221.165 391.833 218.54 394.054 216.048C404.465 204.426 417.504 194.159 432.05 186.131C445.219 178.794 459.199 173.193 473.244 169.628C487.808 165.947 502.365 163.839 516.442 161.804C529.55 159.906 543.104 157.946 556.721 154.714C605.306 143.183 652.107 118.126 685.126 85.9672C720.47 51.5435 737.935 7.93786 729.611 -25.1248C727.897 -31.9384 725.145 -38.5996 722.484 -45.0431C717.927 -56.0772 713.216 -67.4898 713.525 -80.0676C713.856 -93.7654 722.396 -108.022 730.648 -121.811C732.972 -125.693 735.374 -129.707 737.509 -133.583C756.993 -168.968 759.583 -201.296 744.61 -222.273C729.27 -243.769 689.017 -254.635 648.206 -235.613C631.92 -228.02 616.697 -217.229 601.974 -206.793C590.865 -198.918 579.376 -190.774 567.405 -183.966C529.296 -162.287 487.162 -154.457 446.414 -146.883C434.038 -144.582 421.247 -142.206 408.801 -139.48C363.787 -129.622 324.196 -114.173 291.135 -93.5705C253.8 -70.306 224.557 -38.2921 212.911 -7.93175C211.606 -4.51989 210.533 -1.11574 209.699 2.2634Z" fill="#6666F2"/>
<path d="M725.098 22.5573C718.808 47.6899 702.926 73.2797 679.767 95.5949C645.518 128.478 596.817 153.893 546.156 165.325C531.521 168.63 516.899 170.664 502.758 172.634C488.201 174.661 473.147 176.759 458.134 180.234C438.37 184.81 401.275 196.622 374.886 224.326C372.23 227.114 369.617 230.08 367.091 232.947C359.962 241.038 352.591 249.405 342.805 255.594C329.165 264.209 311.026 267.871 295.466 265.15C281.491 262.706 268.907 256.785 260.938 248.903C249.798 237.889 243.783 222.89 243.06 204.327C242.437 188.305 245.716 170.025 252.801 150.004C256.947 138.511 260.275 127.058 262.765 115.709C266.183 99.822 265.241 88.02 259.968 80.6337C255.874 74.8956 249.113 71.6842 241.952 68.2847C239.547 67.1414 237.058 65.9594 234.695 64.6788C209.834 51.2159 202.036 20.9583 215.305 -10.6085C221.683 -25.7897 232.203 -40.953 246.574 -55.6785C260.525 -69.8693 276.87 -82.6359 294.78 -93.3298C326.842 -112.508 365.419 -127.016 409.439 -136.45C421.568 -139.049 434.041 -141.323 446.102 -143.521C487.3 -151.032 529.902 -158.798 568.171 -181.046C579.341 -187.54 590.052 -195.243 600.41 -202.693C615.189 -213.323 630.471 -224.312 647.17 -231.811C666.161 -240.338 686.922 -243.224 705.628 -239.937C723.511 -236.836 737.648 -228.578 746.012 -216.348C753.801 -204.801 756.629 -190.289 754.42 -173.219C752.405 -157.654 746.129 -140.506 736.266 -123.628C733.886 -119.555 731.237 -115.367 728.672 -111.316C719.878 -97.4155 710.784 -83.0366 709.792 -69.2697C708.888 -56.7152 713.801 -45.7097 718.552 -35.0669C721.037 -29.4989 723.607 -23.7415 725.319 -17.8265C728.793 -5.45678 728.718 8.28002 725.098 22.5573ZM247.722 168.129C239.071 203.055 243.708 231.239 261.298 248.632C269.231 256.479 281.762 262.373 295.676 264.805C311.12 267.505 329.108 263.879 342.622 255.341C352.329 249.202 359.667 240.872 366.77 232.813C369.3 229.941 371.915 226.971 374.58 224.174C385.048 213.185 398.325 203.604 414.046 195.697C428.36 188.62 443.278 183.277 458.155 179.899C473.194 176.418 488.26 174.319 502.831 172.289C516.962 170.32 531.573 168.285 546.185 164.989C596.735 153.583 645.318 128.23 679.483 95.4274C716.631 59.7624 734.458 15.3775 724.898 -17.6466C723.19 -23.5497 720.623 -29.3 718.141 -34.8584C713.379 -45.5259 708.454 -56.5541 709.363 -69.1711C710.358 -83.0244 719.481 -97.4406 728.302 -111.381C730.863 -115.428 733.509 -119.613 735.886 -123.68C756.834 -159.525 760.472 -194.079 745.619 -216.109C728.436 -241.799 685.234 -248.566 647.265 -231.516C630.628 -224.047 615.375 -213.075 600.624 -202.468C590.253 -195.009 579.528 -187.296 568.331 -180.785C529.955 -158.479 487.3 -150.701 446.045 -143.182C433.987 -140.983 421.52 -138.71 409.4 -136.113C365.449 -126.694 326.939 -112.214 294.942 -93.074C257.087 -70.4296 228.203 -40.3698 215.698 -10.6028C202.49 20.8401 210.245 50.9672 234.998 64.3729C237.356 65.6497 239.84 66.8297 242.243 67.9709C249.431 71.3857 256.221 74.6104 260.349 80.3924C265.659 87.8319 266.611 99.6944 263.179 115.654C260.685 127.017 257.353 138.483 253.201 149.989C251.002 156.209 249.176 162.256 247.722 168.129Z" fill="#6666F2"/>
<path d="M720.955 30.4566C719.603 35.8982 717.777 41.3876 715.492 46.8825C707.063 67.2339 692.811 87.2402 674.065 105.038C656 122.146 634.249 137.118 609.415 149.535C585.476 161.41 560.474 170.222 535.606 175.548C519.961 178.909 504.25 181.019 489.057 183.056C474.027 185.073 458.481 187.159 443.02 190.457C416.97 196.016 380.606 207.813 355.323 232.453C352.301 235.402 349.425 238.547 346.643 241.593C340.529 248.287 334.206 255.209 325.988 260.347C313.222 268.333 296.309 271.159 282.909 267.543C272.263 264.672 263.345 258.137 255.657 247.564C245.718 233.664 240.197 217.208 239.419 199.159C238.64 181.11 242.618 161.831 251.122 142.449C252.979 138.272 255.082 134.028 257.114 129.924C260.798 122.486 264.609 114.794 267.095 107.243C271.561 93.6552 270.558 82.5018 264.274 75.8161C259.865 71.124 252.92 68.5122 246.203 65.9892C243.107 64.8243 239.901 63.6214 236.981 62.2258C223.998 56.0331 215.418 45.2879 212.169 31.1477C209.093 17.5647 211.159 2.21239 218.15 -13.2835C231.319 -42.0734 260.646 -71.0515 298.614 -92.7839C329.957 -110.726 366.398 -123.885 410.022 -133.017C421.817 -135.486 433.951 -137.652 445.687 -139.751C487.414 -147.202 530.561 -154.907 569.108 -177.817C579.578 -184.038 589.589 -191.353 599.27 -198.426C614.005 -209.191 629.241 -220.325 646.245 -227.668C665.77 -236.1 686.999 -238.748 706.021 -235.125C724.308 -231.688 738.638 -222.939 746.946 -210.137C761.876 -186.579 757.245 -150.537 734.564 -113.723C731.938 -109.46 729.045 -105.104 726.245 -100.893C716.904 -86.83 707.244 -72.2867 705.546 -58.341C704.022 -45.8263 709.132 -35.3379 714.074 -25.1936C716.408 -20.4019 718.821 -15.4462 720.522 -10.3212C724.507 2.04267 724.655 15.9529 720.955 30.4566ZM243.368 165.844C235.837 196.252 240.132 225.572 255.977 247.365C263.639 257.901 272.513 264.412 283.112 267.271C296.416 270.857 313.19 268.061 325.846 260.145C334.001 255.044 340.299 248.149 346.391 241.48C349.177 238.431 352.058 235.277 355.089 232.322C380.461 207.59 416.926 195.757 443.049 190.185C458.534 186.882 474.082 184.795 489.121 182.779C504.305 180.741 520.007 178.634 535.635 175.276C588.157 163.988 638.528 138.337 673.833 104.902C712.301 68.4699 730.928 22.2298 720.18 -10.1616C718.482 -15.2752 716.071 -20.2256 713.74 -25.0133C708.787 -35.1804 703.669 -45.6939 705.196 -58.2665C706.9 -72.2697 716.586 -86.8555 725.948 -100.949C728.745 -105.158 731.637 -109.51 734.258 -113.767C756.886 -150.494 761.512 -186.448 746.622 -209.941C729.659 -236.707 685.598 -244.384 646.313 -227.419C629.367 -220.1 614.157 -208.986 599.448 -198.24C589.757 -191.158 579.735 -183.837 569.242 -177.6C530.611 -154.642 487.416 -146.93 445.642 -139.469C433.911 -137.375 421.779 -135.209 409.993 -132.742C366.423 -123.622 330.032 -110.482 298.741 -92.571C260.864 -70.8874 231.606 -41.9836 218.477 -13.2726C203.821 18.773 211.532 49.7106 237.228 61.9645C240.144 63.3582 243.343 64.5575 246.435 65.721C253.179 68.254 260.145 70.8725 264.583 75.5978C270.911 82.3353 271.926 93.5671 267.43 107.223C264.941 114.795 261.127 122.497 257.439 129.946C255.407 134.046 253.307 138.288 251.45 142.459C247.982 150.277 245.279 158.1 243.368 165.844Z" fill="#6666F2"/>
</g>
</g>
<defs>
<clipPath id="clip0_2455_3665">
<rect width="968.788" height="875.794" fill="white" transform="translate(975.984 433.766) rotate(179.527)"/>
</clipPath>
</defs>
</svg>
