<svg width="230" height="116" viewBox="0 0 230 116" fill="none" xmlns="http://www.w3.org/2000/svg">
<path d="M143.975 5.51936C141.559 5.2814 138.284 9.31634 140.654 11.2562C141.968 12.3322 144.828 11.8666 144.792 9.85433C144.786 9.79852 144.762 9.74613 144.724 9.70507C144.686 9.66401 144.635 9.63651 144.58 9.62672C142.682 9.19218 140.799 10.0095 141.119 12.2132C141.291 13.1632 141.781 14.0267 142.507 14.6628C143.233 15.2989 144.154 15.6699 145.118 15.7153C145.232 15.7153 145.19 15.5188 145.118 15.4981C143.463 15.1515 141.9 14.1221 141.575 12.3529C141.501 12.0398 141.495 11.7146 141.556 11.3989C141.618 11.0832 141.746 10.7842 141.931 10.5216C142.153 10.2557 142.445 10.0583 142.775 9.95262C143.059 9.86468 144.078 9.70431 144.327 9.95262C144.771 10.413 143.561 11.1941 143.199 11.3183C142.841 11.4466 142.46 11.4946 142.082 11.4588C141.703 11.4231 141.338 11.3044 141.011 11.1114C140.007 10.4078 140.255 9.08355 140.742 8.14724C141.399 6.87986 142.547 5.85043 144.027 5.7987C144.161 5.7987 144.089 5.54522 143.985 5.53488L143.975 5.51936Z" fill="#F2C16E"/>
<path d="M144.777 84.9974C145.537 83.2851 145.454 81.5108 147.668 80.9469C148.641 80.6986 150.943 80.471 151.672 81.3349C151.805 81.5435 151.859 81.7928 151.824 82.0377C151.789 82.2825 151.667 82.5067 151.481 82.6695C150.907 83.1868 150.477 82.5661 150.327 82.0177C150.212 81.5114 150.256 80.9818 150.455 80.5018C150.653 80.0219 150.995 79.6153 151.434 79.3381C152.363 78.7263 153.488 78.4846 154.586 78.6608C155.684 78.837 156.677 79.4182 157.368 80.2899C157.451 80.3934 157.538 80.2899 157.502 80.1761C155.806 76.2705 147.674 78.9864 150.26 82.7316C151.052 83.8645 152.448 82.8661 152.184 81.666C151.895 80.3365 149.629 80.4038 148.625 80.471C147.608 80.4716 146.628 80.8495 145.873 81.5315C144.989 82.4005 144.87 83.7765 144.684 84.9456C144.684 84.9974 144.73 85.075 144.766 84.9974H144.777Z" fill="#F2C16E"/>
<path d="M202.782 1.0137C204.37 0.548134 206.553 0.677458 207.882 1.74827C208.917 2.57595 209.496 4.37098 207.98 4.98657C207.385 5.22452 205.425 5.22452 205.192 4.41753C205.027 3.85368 205.632 3.51743 206.118 3.44501C207.541 3.22257 208.875 4.72274 208.839 6.06255C208.793 8.07484 206.449 8.74216 204.794 8.75768C204.685 8.75768 204.711 8.9646 204.794 8.96977C207.613 9.24394 210.758 6.63158 208.249 4.01404C207.577 3.31051 206.522 2.80873 205.549 3.19671C205.001 3.41915 204.566 3.91575 204.84 4.51065C205.28 5.46765 207.049 5.63319 207.908 5.39006C208.136 5.32949 208.348 5.22287 208.533 5.0768C208.718 4.93072 208.871 4.74829 208.982 4.54077C209.094 4.33326 209.162 4.10509 209.182 3.87034C209.201 3.6356 209.173 3.39929 209.098 3.17602C208.405 0.630903 204.84 0.0722183 202.73 0.863687C202.668 0.863687 202.694 1.0344 202.766 1.0137H202.782Z" fill="#F2C16E"/>
<path d="M223.592 107.8C225.181 107.335 227.364 107.464 228.693 108.535C229.728 109.362 230.307 111.157 228.791 111.773C228.196 112.011 226.236 112.011 226.003 111.199C225.838 110.64 226.443 110.304 226.924 110.226C228.352 110.009 229.681 111.509 229.65 112.849C229.603 114.861 227.26 115.529 225.605 115.544C225.496 115.544 225.522 115.751 225.605 115.756C228.424 116.03 231.569 113.418 229.06 110.801C228.388 110.097 227.332 109.595 226.36 109.983C225.812 110.2 225.377 110.702 225.651 111.297C226.091 112.254 227.86 112.42 228.719 112.171C228.947 112.112 229.16 112.006 229.345 111.861C229.53 111.716 229.684 111.534 229.795 111.326C229.907 111.119 229.975 110.891 229.994 110.656C230.014 110.422 229.985 110.185 229.909 109.963C229.215 107.412 225.651 106.859 223.541 107.65C223.479 107.65 223.499 107.821 223.577 107.8H223.592Z" fill="#F2C16E"/>
<path d="M211.953 30.4533C210.06 31.0172 208.301 34.3486 210.06 35.8643C211.555 37.1524 214.576 36.8627 214.074 34.4055C214.069 34.3775 214.057 34.3512 214.039 34.3294C214.021 34.3076 213.997 34.291 213.971 34.2813C211.984 33.8054 211.327 36.1229 211.746 37.6541C212.393 40.0337 214.793 40.0027 216.526 38.7612C216.583 38.7198 216.557 38.5542 216.474 38.5956C215.057 39.3043 213.071 39.9354 212.207 38.1249C211.746 37.1575 211.731 35.5384 212.621 34.809C212.852 34.593 213.158 34.4745 213.474 34.4779C214.136 34.5555 214.022 35.2694 213.65 35.7246C213.055 36.4488 211.86 36.3712 211.063 36.0919C208.337 35.1245 210.21 31.5914 211.989 30.5982C212.041 30.5671 212.031 30.4326 211.953 30.4533Z" fill="#F2C16E"/>
<path d="M169.85 22.1299C167.615 21.8453 162.81 23.7283 164.062 26.7856C164.729 28.4151 167.709 29.46 168.686 27.5925C168.707 27.5417 168.708 27.4846 168.687 27.4335C168.667 27.3823 168.628 27.3411 168.578 27.3184C163.922 24.6802 159.018 32.3 163.958 35.0779C164.113 35.1658 164.108 34.902 164.02 34.8347C163.594 34.5429 163.23 34.169 162.95 33.7349C162.67 33.3008 162.479 32.8152 162.389 32.3065C162.299 31.7979 162.312 31.2763 162.426 30.7725C162.539 30.2686 162.753 29.7925 163.053 29.3721C163.556 28.5685 164.272 27.9203 165.122 27.4994C165.758 27.1994 167.357 26.7752 167.952 27.396C168.221 27.6857 168.215 27.3235 168.076 27.6598C167.943 27.8595 167.74 28.0018 167.507 28.0581C166.999 28.2194 166.451 28.2012 165.955 28.0064C164.92 27.6443 164.108 26.6924 164.403 25.5492C164.946 23.2576 167.864 22.4454 169.907 22.4092C170.047 22.4092 169.959 22.1454 169.85 22.1299Z" fill="#F2C16E"/>
<path d="M180.02 1.50537C180.02 1.50537 179.886 4.0091 181.743 5.40064L183.688 4.80574C183.688 4.80574 182.389 4.18498 181.743 1.50537H180.02Z" fill="#EB996E"/>
<path d="M147.255 62.1172C147.255 62.1172 147.115 64.6209 148.972 66.0125L150.922 65.4176C150.922 65.4176 149.619 64.7968 148.972 62.1172H147.255Z" fill="#EB996E"/>
<path d="M163.156 90.3311C163.156 90.3311 163.017 92.8296 164.879 94.2211L166.824 93.6314C166.824 93.6314 165.526 93.0055 164.879 90.3311H163.156Z" fill="#FFA8A7"/>
<path d="M224.125 14.0496C224.125 14.0496 222.987 16.2844 220.685 16.5585L219.294 15.0687C219.294 15.0687 220.732 15.1825 222.635 13.1909L224.125 14.0496Z" fill="#EB996E"/>
<path d="M210.784 93.9518C210.784 93.9518 209.651 96.1865 207.344 96.4555L205.953 94.9709C205.953 94.9709 207.396 95.0795 209.294 93.0879L210.784 93.9518Z" fill="#EB996E"/>
<path d="M178.944 47.0172C178.944 47.0172 177.811 49.2519 175.504 49.5209L174.113 48.0363C174.113 48.0363 175.556 48.1449 177.454 46.1533L178.944 47.0172Z" fill="#F2C16E"/>
<path d="M158.247 19.4403C158.247 19.4403 157.114 21.675 154.812 21.9492L153.421 20.4593C153.421 20.4593 154.859 20.5731 156.763 18.5815L158.247 19.4403Z" fill="#EB996E"/>
<path d="M201.23 22.8025C201.23 22.8025 198.741 23.1129 197.226 21.3489L197.686 19.3677C197.686 19.3677 198.395 20.6247 201.111 21.0851L201.23 22.8025Z" fill="#F2C16E"/>
<path d="M165.153 10.5889C165.153 10.5889 162.67 10.8993 161.154 9.14044L161.61 7.15918C161.61 7.15918 162.324 8.41105 165.039 8.87662L165.153 10.5889Z" fill="#F2C16E"/>
<path d="M123.319 5.15773C123.319 5.15773 120.836 5.46811 119.32 3.70929L119.776 1.72803C119.776 1.72803 120.489 2.97989 123.2 3.44546L123.319 5.15773Z" fill="#F2C16E"/>
<path d="M153.085 38.5335C153.085 38.5335 150.602 38.8387 149.086 37.0799L149.541 35.0986C149.541 35.0986 150.255 36.3557 152.971 36.8161L153.085 38.5335Z" fill="#F2C16E"/>
<path d="M227.519 57.0579C227.519 57.0579 225.031 57.3631 223.52 55.6043L223.975 53.623C223.975 53.623 224.689 54.8801 227.4 55.3405L227.519 57.0579Z" fill="#F2C16E"/>
<path d="M184.195 31.9846C184.195 31.9846 183.062 34.2193 180.755 34.4935L179.363 33.0037C179.363 33.0037 181.065 33.2675 182.984 31.2759L184.195 31.9846Z" fill="#EB996E"/>
<path d="M186.699 35.285C186.699 35.285 186.254 37.7525 184.112 38.6733L182.353 37.6387C183.598 37.0772 184.632 36.1354 185.307 34.9487L186.699 35.285Z" fill="#FFA8A7"/>
<path d="M99.2647 3.5848C101.686 3.34684 104.955 7.37661 102.586 9.31648C101.277 10.3976 98.4112 9.9269 98.4474 7.9146C98.4543 7.85972 98.4786 7.8085 98.5168 7.76846C98.555 7.72842 98.605 7.70168 98.6595 7.69216C100.563 7.25763 102.441 8.06979 102.12 10.2787C101.949 11.2277 101.461 12.0904 100.735 12.7257C100.01 13.361 99.0899 13.7312 98.1266 13.7756C98.0077 13.7756 98.049 13.579 98.1266 13.5635C99.782 13.2117 101.344 12.1823 101.665 10.4132C101.74 10.101 101.747 9.77636 101.685 9.46131C101.623 9.14625 101.495 8.84811 101.308 8.58709C101.084 8.312 100.784 8.1102 100.444 8.00771C100.165 7.91977 99.1405 7.75941 98.9181 8.00771C98.4681 8.47328 99.6837 9.24923 100.046 9.37338C100.402 9.50342 100.783 9.55232 101.161 9.51652C101.538 9.48073 101.903 9.36114 102.229 9.16646C103.232 8.46811 102.984 7.14382 102.498 6.20234C101.846 4.94013 100.692 3.90553 99.213 3.85897C99.0836 3.85897 99.1509 3.60549 99.2543 3.59515L99.2647 3.5848Z" fill="#F2C16E"/>
<path d="M95.3849 88.3807C94.6245 86.6684 94.7021 84.8941 92.4932 84.325C91.5207 84.0767 89.2187 83.8491 88.4841 84.7182C88.3526 84.9263 88.2997 85.1745 88.3348 85.4182C88.3698 85.6619 88.4907 85.8851 88.6755 86.0477C89.2549 86.565 89.7101 85.9442 89.8343 85.401C89.9501 84.894 89.9059 84.3635 89.7076 83.8826C89.5094 83.4018 89.1668 82.9943 88.7273 82.7163C87.7955 82.0974 86.6649 81.8522 85.5605 82.0296C84.4561 82.207 83.4591 82.7938 82.768 83.6733C82.6904 83.7715 82.6024 83.6732 82.6386 83.5594C84.3354 79.6538 92.4673 82.3697 89.8808 86.1149C89.0894 87.2478 87.6875 86.2442 87.9513 85.0493C88.2462 83.7198 90.5378 83.7871 91.5103 83.8491C92.5286 83.8514 93.5102 84.2289 94.2675 84.9096C95.1521 85.7838 95.2711 87.1599 95.4573 88.3238C95.4573 88.3807 95.4108 88.4531 95.3746 88.3807H95.3849Z" fill="#F2C16E"/>
<path d="M31.8139 1.0137C30.2258 0.548134 28.0428 0.677458 26.7081 1.74827C25.6735 2.57595 25.0993 4.37098 26.615 4.98657C27.2099 5.22452 29.1705 5.22452 29.4033 4.41753C29.5688 3.85368 28.9636 3.51743 28.4773 3.44501C27.0547 3.22257 25.7201 4.72274 25.7511 6.06255C25.8029 8.07484 28.1462 8.74216 29.8016 8.75768C29.9102 8.75768 29.8844 8.9646 29.8016 8.96977C26.9823 9.24394 23.8371 6.63158 26.3409 4.01404C27.0185 3.31051 28.0738 2.80873 29.0463 3.19671C29.5947 3.41915 30.0292 3.91575 29.755 4.51065C29.3153 5.46765 27.5462 5.63319 26.6874 5.39006C26.4598 5.32949 26.247 5.22287 26.0622 5.0768C25.8773 4.93072 25.7244 4.74829 25.6129 4.54077C25.5014 4.33326 25.4337 4.10509 25.4138 3.87034C25.394 3.6356 25.4225 3.39929 25.4977 3.17602C26.1908 0.630903 29.7499 0.0722183 31.8656 0.863687C31.9277 0.863687 31.9018 1.0344 31.8294 1.0137H31.8139Z" fill="#F2C16E"/>
<path d="M13.3411 105.886C11.753 105.421 9.57001 105.55 8.23538 106.621C7.20078 107.449 6.6214 109.244 8.14227 109.859C8.73716 110.097 10.6926 110.097 10.9305 109.29C11.0909 108.726 10.4856 108.39 10.0045 108.318C8.5768 108.095 7.24734 109.595 7.27837 110.935C7.32493 112.947 9.6683 113.615 11.3237 113.63C11.4375 113.63 11.4064 113.837 11.3237 113.848C8.50437 114.117 5.35919 111.504 7.86292 108.887C8.54059 108.183 9.5907 107.681 10.5632 108.069C11.1167 108.292 11.5513 108.788 11.2771 109.383C10.8374 110.34 9.06306 110.506 8.20434 110.263C7.97674 110.202 7.764 110.096 7.57935 109.949C7.3947 109.803 7.24209 109.621 7.13099 109.413C7.01989 109.205 6.95268 108.977 6.93354 108.742C6.9144 108.508 6.94373 108.271 7.01972 108.049C7.70773 105.503 11.2719 104.971 13.3877 105.736C13.4498 105.736 13.4239 105.907 13.3515 105.886H13.3411Z" fill="#F2C16E"/>
<path d="M17.4123 31.4104C19.3056 31.9742 21.0644 35.3056 19.3056 36.8213C17.8106 38.1146 14.7895 37.8197 15.2913 35.3625C15.297 35.3349 15.3094 35.3091 15.3274 35.2874C15.3455 35.2658 15.3686 35.2489 15.3948 35.2384C17.3812 34.7676 18.0382 37.0851 17.6192 38.6163C16.9725 40.9907 14.5723 40.9649 12.8393 39.7182C12.7824 39.6768 12.8083 39.5164 12.8911 39.5578C14.3085 40.2665 16.2949 40.8925 17.1588 39.0819C17.6192 38.1146 17.6347 36.4954 16.7449 35.7712C16.5141 35.5538 16.2085 35.4334 15.8914 35.4349C15.2292 35.5125 15.3431 36.2316 15.7155 36.6816C16.3104 37.4059 17.5054 37.3283 18.302 37.0489C21.0282 36.0867 19.1556 32.5484 17.376 31.5552C17.3243 31.5242 17.3347 31.3897 17.4123 31.4104Z" fill="#F2C16E"/>
<path d="M23.4285 73.7774C20.2058 74.036 20.7851 80.1557 23.3872 80.9834C23.5471 81.0406 23.7168 81.0655 23.8864 81.0566C24.056 81.0477 24.2221 81.0052 24.3752 80.9316C24.5661 80.7913 24.7193 80.6059 24.8213 80.392C24.9233 80.1781 24.9709 79.9423 24.9597 79.7057C24.6494 78.6711 22.8905 79.985 22.6888 80.3937C22.3539 80.9322 22.1976 81.5627 22.2422 82.1953C22.2868 82.8279 22.53 83.4303 22.9371 83.9165C24.2614 85.3494 26.7962 85.3959 28.4515 84.5683C28.5343 84.5217 28.5498 84.6821 28.4929 84.7235C26.7082 85.8667 23.7182 85.7012 22.3939 83.8906C21.3593 82.4422 22.068 78.5986 24.3752 78.9401C26.5272 79.2556 25.0373 81.7076 23.4078 81.3817C21.7784 81.0558 21.1886 78.8935 21.0334 77.5537C20.8369 75.8673 21.3386 73.5912 23.4285 73.6274C23.4958 73.6274 23.4906 73.7722 23.4285 73.7774Z" fill="#F2C16E"/>
<path d="M63.902 22.1299C66.1367 21.8453 70.9425 23.7283 69.6906 26.7856C69.0233 28.4151 66.0436 29.46 65.0659 27.5925C65.0449 27.5417 65.0445 27.4846 65.0648 27.4335C65.0851 27.3823 65.1244 27.3411 65.1746 27.3184C69.8303 24.6802 74.7343 32.3 69.7941 35.0779C69.6389 35.1658 69.644 34.902 69.732 34.8347C70.159 34.5429 70.5234 34.1687 70.8039 33.7342C71.0843 33.2997 71.2752 32.8135 71.3653 32.3042C71.4554 31.7949 71.4429 31.2728 71.3286 30.7684C71.2142 30.264 71.0003 29.7875 70.6993 29.3669C70.196 28.5633 69.4798 27.9151 68.6301 27.4943C67.9939 27.1942 66.3954 26.77 65.8005 27.3908C65.5315 27.6805 65.5367 27.3184 65.6764 27.6546C65.8091 27.8543 66.0123 27.9966 66.2454 28.0529C66.7533 28.2142 67.3012 28.196 67.7973 28.0012C68.8319 27.6391 69.644 26.6873 69.3492 25.544C68.806 23.2524 65.8884 22.4402 63.8451 22.404C63.7054 22.404 63.7934 22.1402 63.902 22.1247V22.1299Z" fill="#F2C16E"/>
<path d="M54.8338 6.05742C54.8338 6.05742 54.9735 8.56115 53.1112 9.95269L51.1661 9.35262C51.1661 9.35262 52.4646 8.73186 53.1112 6.05225L54.8338 6.05742Z" fill="#EB996E"/>
<path d="M95.0331 68.0195C95.0331 68.0195 95.1728 70.5233 93.3105 71.9148L91.3655 71.3251C91.3655 71.3251 92.6639 70.6991 93.3105 68.0195H95.0331Z" fill="#EB996E"/>
<path d="M87.3461 97.9453C87.3461 97.9453 87.4806 100.449 85.6235 101.841L83.6785 101.246C83.6785 101.246 84.9769 100.625 85.6235 97.9453H87.3461Z" fill="#FFA8A7"/>
<path d="M9.62695 14.0496C9.62695 14.0496 10.765 16.2844 13.067 16.5585L14.4844 15.0687C14.4844 15.0687 13.0463 15.1825 11.1426 13.1909L9.62695 14.0496Z" fill="#EB996E"/>
<path d="M33.6918 91.2259C33.6918 91.2259 34.8247 93.4606 37.1318 93.7348L38.5234 92.245C38.5234 92.245 37.0801 92.3588 35.1816 90.3672L33.6918 91.2259Z" fill="#EB996E"/>
<path d="M58.191 49.9144C58.191 49.9144 59.3239 52.1491 61.6311 52.4233L63.0174 50.9335C63.0174 50.9335 61.5793 51.0473 59.6809 49.0557L58.191 49.9144Z" fill="#F2C16E"/>
<path d="M80.6987 20.6663C80.6987 20.6663 81.8316 22.9011 84.1388 23.1752L85.5251 21.6854C85.5251 21.6854 84.087 21.7992 82.1886 19.8076L80.6987 20.6663Z" fill="#EB996E"/>
<path d="M32.5175 22.8025C32.5175 22.8025 35.0057 23.1129 36.5214 21.3489L36.061 19.3677C36.061 19.3677 35.3523 20.6247 32.6364 21.0851L32.5175 22.8025Z" fill="#F2C16E"/>
<path d="M75.0084 3.4297C75.0084 3.4297 77.4966 3.74008 79.0123 1.98126L78.5571 0C78.5571 0 77.8432 1.25187 75.1274 1.71744L75.0084 3.4297Z" fill="#F2C16E"/>
<path d="M80.6522 36.4437C80.6522 36.4437 83.1353 36.7489 84.6509 34.99L84.1957 33.0088C84.1957 33.0088 83.4818 34.2658 80.766 34.7262L80.6522 36.4437Z" fill="#F2C16E"/>
<path d="M0 85.6336C0 85.6336 2.48821 85.944 4.0039 84.1852L3.54868 82.1987C3.54868 82.1987 2.8348 83.4558 0.118979 83.9162L0 85.6336Z" fill="#F2C16E"/>
<path d="M49.5574 31.9846C49.5574 31.9846 50.6903 34.2193 52.9974 34.4935L54.3889 33.0037C54.3889 33.0037 52.687 33.2675 50.7679 31.2759L49.5574 31.9846Z" fill="#EB996E"/>
<path d="M47.0742 35.285C47.0742 35.285 47.5191 37.7525 49.6607 38.6733L51.4195 37.6387C50.1751 37.0772 49.1409 36.1354 48.4658 34.9487L47.0742 35.285Z" fill="#FFA8A7"/>
<path d="M128.746 22.4094C128.746 22.4094 127.613 24.6441 125.305 24.9183L123.914 23.4336C123.914 23.4336 125.616 23.6923 127.535 21.7007L128.746 22.4094Z" fill="#EB996E"/>
<path d="M117.593 19.7298C117.593 19.7298 117.148 22.1973 115.006 23.1233L113.247 22.0887C114.493 21.5265 115.527 20.5826 116.201 19.3936L117.593 19.7298Z" fill="#FFA8A7"/>
</svg>
