<svg width="95" height="95" viewBox="0 0 95 95" fill="none" xmlns="http://www.w3.org/2000/svg">
<g clip-path="url(#clip0_94_9611)">
<path d="M87.3263 71.4666L84.8004 71.8325C83.2965 72.0443 82.2746 73.4887 82.5638 74.9715L83.0458 77.4751C83.3736 79.2468 81.9082 80.826 80.1343 80.6334L77.5891 80.3638C76.0659 80.1905 74.7355 81.3267 74.6391 82.8481L74.4848 85.3902C74.3691 87.1812 72.5567 88.3559 70.8792 87.7204L68.4883 86.8152C67.0614 86.276 65.4804 87.0463 64.9983 88.4907L64.2078 90.9172C63.6486 92.6312 61.6048 93.3052 60.1201 92.2845L58.0184 90.8209C56.7651 89.9543 55.0491 90.301 54.22 91.572L52.851 93.7289C51.8869 95.2503 49.7274 95.4043 48.5705 94.037L46.9123 92.092C45.9289 90.9365 44.155 90.8402 43.056 91.8801L41.1857 93.6326C39.8745 94.8651 37.7535 94.48 36.963 92.8623L35.8254 90.5706C35.1505 89.2032 33.473 88.6833 32.1426 89.4151L29.906 90.6476C28.3249 91.5142 26.3582 90.6091 25.9918 88.8566L25.4712 86.3531C25.1627 84.8702 23.6588 83.9265 22.1934 84.3117L19.7061 84.9472C17.9707 85.3902 16.2932 84.0228 16.3703 82.2318L16.486 79.6705C16.5632 78.1491 15.3291 76.8781 13.8059 76.8781H11.2415C9.44829 76.8781 8.15643 75.1449 8.67703 73.4309L9.42901 70.9851C9.87248 69.5215 9.00481 68.0001 7.53942 67.615L5.01354 67.018C3.2782 66.575 2.46838 64.5722 3.39389 63.0315L4.72432 60.8554C5.51486 59.5458 5.07138 57.8511 3.72168 57.1193L1.48502 55.8868C-0.0960598 55.0202 -0.385282 52.8825 0.906579 51.6308L2.73832 49.8398C3.83737 48.7806 3.81809 47.0281 2.69976 45.9689L0.829453 44.2164C-0.48169 42.9839 -0.23103 40.8463 1.33077 39.9411L3.54815 38.6701C4.87857 37.919 5.30276 36.2051 4.47366 34.9148L3.10467 32.7579C2.1406 31.2365 2.91186 29.2337 4.64719 28.7522L7.11523 28.0782C8.58062 27.6737 9.42901 26.1331 8.94697 24.6695L8.15643 22.243C7.59726 20.529 8.85056 18.7765 10.663 18.738L13.2275 18.6995C14.7507 18.6802 15.9462 17.3899 15.8497 15.8686L15.6955 13.3265C15.5798 11.5355 17.238 10.1489 18.9926 10.5533L21.4799 11.1503C22.9646 11.497 24.4493 10.5533 24.7192 9.05121L25.2013 6.54766C25.5483 4.77592 27.4958 3.85153 29.0769 4.67963L31.3328 5.87363C32.6825 6.58618 34.36 6.02769 34.9963 4.64111L36.0953 2.33015C36.8666 0.71247 38.9876 0.288793 40.318 1.48279L42.2076 3.19676C43.3452 4.21744 45.0998 4.10189 46.0639 2.92715L47.7221 0.962825C48.8597 -0.423755 51.0192 -0.308207 52.0219 1.19392L53.4294 3.33157C54.2778 4.6026 55.9938 4.91073 57.2279 4.02486L59.291 2.52273C60.7371 1.46353 62.8002 2.11831 63.3979 3.81302L64.2271 6.22027C64.7284 7.66463 66.3287 8.39644 67.7363 7.83795L70.1079 6.89431C71.7854 6.23953 73.6171 7.37576 73.7521 9.16676L73.9642 11.7088C74.0799 13.2302 75.4489 14.3279 76.9721 14.1546L79.5173 13.8272C81.2912 13.5961 82.7951 15.156 82.4866 16.9278L82.0432 19.4506C81.7925 20.9527 82.8337 22.3585 84.3377 22.5511L86.8828 22.8785C88.6567 23.1096 89.7172 24.9776 88.9845 26.6338L87.9433 28.964C87.3263 30.3506 87.9819 31.9876 89.3894 32.546L91.761 33.4897C93.4385 34.1445 93.9784 36.2436 92.8601 37.6494L91.2597 39.6523C90.3149 40.8463 90.5463 42.5795 91.7803 43.4846L93.8435 44.9867C95.2896 46.0459 95.3088 48.2028 93.882 49.2813L91.8382 50.8219C90.6234 51.7463 90.4113 53.4795 91.3947 54.6543L93.0336 56.6186C94.1712 58.0052 93.6506 60.1043 91.9924 60.7976L89.6208 61.7798C88.2132 62.3575 87.577 64.0137 88.2325 65.381L89.3123 67.692C90.1221 69.3097 89.1002 71.2162 87.3263 71.4666Z" fill="#3BB77E"/>
<path d="M41.2668 57.2738L33.5328 49.1959C33.3305 48.9821 33.0897 48.8123 32.8242 48.6965C32.5586 48.5806 32.2737 48.521 31.986 48.521C31.6982 48.521 31.4133 48.5806 31.1478 48.6965C30.8823 48.8123 30.6414 48.9821 30.4392 49.1959C30.2345 49.4071 30.0719 49.6587 29.961 49.936C29.8501 50.2134 29.793 50.5109 29.793 50.8115C29.793 51.112 29.8501 51.4096 29.961 51.6869C30.0719 51.9643 30.2345 52.2158 30.4392 52.4271L39.6979 62.0974C40.5597 62.9975 41.9518 62.9975 42.8136 62.0974L66.2365 37.6561C66.4412 37.4449 66.6038 37.1933 66.7147 36.916C66.8256 36.6386 66.8827 36.3411 66.8827 36.0405C66.8827 35.74 66.8256 35.4424 66.7147 35.1651C66.6038 34.8877 66.4412 34.6362 66.2365 34.4249C66.0343 34.2111 65.7934 34.0414 65.5279 33.9255C65.2624 33.8097 64.9775 33.75 64.6897 33.75C64.402 33.75 64.1171 33.8097 63.8516 33.9255C63.586 34.0414 63.3452 34.2111 63.1429 34.4249L41.2668 57.2738Z" fill="white"/>
</g>
<defs>
<clipPath id="clip0_94_9611">
<rect width="95" height="95" fill="white"/>
</clipPath>
</defs>
</svg>
