<svg width="244" height="166" viewBox="0 0 244 166" fill="none" xmlns="http://www.w3.org/2000/svg">
<path d="M118.251 43.2852C121.605 43.2852 124.783 44.1447 127.621 45.6791C125.128 44.5531 122.408 43.9343 119.561 43.9343C107.535 43.9343 97.7865 54.9747 97.7865 68.595C97.7865 78.4148 102.854 86.8937 110.189 90.8606C102.155 87.232 96.4766 78.3401 96.4766 67.946C96.4766 54.3264 106.225 43.2852 118.251 43.2852Z" fill="#7B6FB9"/>
<path d="M152.343 137.931C152.182 138.052 152.021 138.173 151.86 138.292C142.919 144.926 132.227 148.784 120.737 148.784C120.522 148.784 120.307 148.784 120.091 148.779C111.971 148.678 104.261 146.649 97.3003 143.079C94.4434 141.613 91.7124 139.889 89.1318 137.931C88.4687 137.429 87.816 136.91 87.1736 136.377C86.7175 135.998 86.2667 135.613 85.8203 135.22C72.4844 123.455 63.9091 105.106 63.9091 84.4909C63.9091 48.9825 89.3521 20.1983 120.737 20.1983C152.086 20.1983 177.506 48.9153 177.565 84.2131C177.565 47.9379 151.6 18.5312 119.572 18.5312C87.5427 18.5312 61.5781 47.9379 61.5781 84.2131C61.5781 106.968 71.7956 127.021 87.3179 138.807C96.5393 145.81 107.634 149.895 119.572 149.895C131.509 149.895 142.603 145.81 151.825 138.807C161.552 131.422 169.195 120.79 173.547 108.282C169.269 120.426 161.814 130.747 152.343 137.931Z" fill="#463172"/>
<path d="M118.251 94.918C100.258 94.918 85.6719 111.437 85.6719 131.816C85.6719 132.964 85.7189 134.098 85.8088 135.217C86.231 135.588 86.6574 135.951 87.0896 136.311C87.0168 135.299 86.9826 134.275 86.9826 133.239C86.9826 112.433 101.568 95.567 119.56 95.567C124.388 95.567 128.969 96.7808 133.09 98.9587C128.64 96.3756 123.595 94.918 118.251 94.918Z" fill="#7B6FB9"/>
<path d="M120.812 20.1953C89.4279 20.1953 63.9844 48.9795 63.9844 84.4878C63.9844 105.103 72.5596 123.452 85.8962 135.217C85.8055 134.097 85.7592 132.963 85.7592 131.815C85.7592 111.437 100.345 94.9169 118.338 94.9169C123.682 94.9169 128.727 96.3756 133.177 98.9592C144.416 104.9 152.227 118.016 152.227 133.239C152.227 134.951 152.127 136.637 151.936 138.289C152.096 138.169 152.258 138.048 152.418 137.928C161.89 130.743 169.345 120.423 173.623 108.279C176.214 100.921 177.641 92.8918 177.641 84.3637C177.581 48.9125 152.161 20.1953 120.812 20.1953ZM119.648 93.2481C116.293 93.2481 113.115 92.3892 110.277 90.8545C102.242 87.2255 96.5632 78.3333 96.5632 67.94C96.5632 54.3197 106.312 43.2786 118.338 43.2786C121.692 43.2786 124.87 44.1386 127.707 45.6733C135.742 49.3012 141.42 58.1945 141.42 68.589C141.42 82.208 131.673 93.2481 119.648 93.2481Z" fill="#F7F7F7"/>
<path d="M196.536 83.2908C196.417 71.1567 193.775 59.027 188.615 48.0326C181.39 32.5384 168.981 19.2379 153.247 12.2623C147.784 9.83139 141.971 8.18421 136.039 7.43008C134.331 7.21171 132.614 7.06719 130.894 6.99417C128.834 6.88423 121.724 6.96215 119.609 6.93958C145.159 6.93227 166.922 22.8223 178.438 45.0511C190.908 69.0034 190.975 98.9802 178.631 122.995C167.17 145.414 145.312 161.491 119.609 161.484C121.651 161.458 128.93 161.535 130.779 161.434C132.509 161.365 134.237 161.221 135.955 161.004C141.968 160.249 147.859 158.575 153.388 156.098C169.481 148.916 182.061 135.127 189.186 119.144C194.224 107.921 196.669 95.5814 196.536 83.2908Z" fill="#A1A1FF"/>
<path d="M119.603 6.94141C81.9218 6.94141 51.375 41.5362 51.375 84.2128C51.375 126.889 81.9218 161.486 119.603 161.486C157.284 161.486 187.83 126.889 187.83 84.2128C187.83 41.5362 157.284 6.94141 119.603 6.94141ZM151.816 138.806C142.595 145.81 131.499 149.894 119.563 149.894C107.625 149.894 96.5295 145.81 87.3085 138.806C71.7859 127.021 61.5682 106.968 61.5682 84.2127C61.5682 47.9378 87.5325 18.5315 119.563 18.5315C151.59 18.5315 177.554 47.9378 177.554 84.4909C177.554 92.8948 176.13 100.923 173.538 108.283C169.185 120.79 161.542 131.422 151.816 138.806Z" fill="#E4E7FF"/>
<path d="M209.383 133.295L213.246 134.253L214.205 130.383L215.747 130.765L214.787 134.635L218.651 135.592L218.268 137.137L214.405 136.179L213.446 140.049L211.904 139.667L212.863 135.797L209 134.84L209.383 133.295Z" fill="#6D6DBF"/>
<path d="M23.6418 134L24.6738 138.825L30.1587 137.652L30.5705 139.578L25.0856 140.751L26.1177 145.577L23.9288 146.045L22.8967 141.219L17.4118 142.392L17 140.467L22.4849 139.294L21.4529 134.468L23.6418 134Z" fill="#CECDFF"/>
<path d="M226.659 162.785C229.804 166.301 235.203 166.602 238.719 163.458C242.235 160.313 242.536 154.914 239.391 151.398C236.247 147.882 230.848 147.581 227.332 150.726C223.816 153.87 223.515 159.269 226.659 162.785ZM228.951 160.736C226.938 158.485 227.131 155.03 229.381 153.017C231.631 151.005 235.087 151.198 237.099 153.448C239.112 155.698 238.919 159.153 236.669 161.166C234.419 163.178 230.963 162.986 228.951 160.736Z" fill="#E4E7FF"/>
<path d="M30.8364 41.4449L28.3978 47.2203L33.565 49.4021L32.5919 51.7069L27.4247 49.5251L24.9861 55.3004L22.924 54.4297L25.3626 48.6544L20.1953 46.4726L21.1685 44.1678L26.3357 46.3496L28.7743 40.5742L30.8364 41.4449Z" fill="#CECDFF"/>
<path d="M0 69.111C0 73.828 3.82365 77.6517 8.5407 77.6517C13.2577 77.6517 17.0814 73.828 17.0814 69.111C17.0814 64.394 13.2577 60.5703 8.5407 60.5703C3.82365 60.5703 0 64.394 0 69.111ZM3.07463 69.111C3.07463 66.0922 5.52184 63.645 8.54064 63.645C11.5595 63.645 14.0066 66.0922 14.0066 69.111C14.0066 72.1299 11.5595 74.577 8.54064 74.577C5.52184 74.577 3.07463 72.1298 3.07463 69.111Z" fill="#CECDFF"/>
<path d="M36.7824 76.1454C37.6568 74.3667 36.9238 72.2159 35.1451 71.3414C33.3665 70.467 31.2157 71.2 30.3412 72.9786C29.4667 74.7573 30.1997 76.9081 31.9784 77.7826C33.7571 78.6571 35.9079 77.9241 36.7824 76.1454Z" fill="#4E2DA3"/>
<path d="M239.495 116.159C236.69 115.455 233.847 117.158 233.143 119.963C232.439 122.768 234.143 125.611 236.947 126.315C239.752 127.019 242.596 125.315 243.299 122.511C244.003 119.706 242.3 116.862 239.495 116.159ZM239.037 117.987C240.831 118.437 241.922 120.257 241.471 122.052C241.021 123.847 239.201 124.937 237.406 124.487C235.611 124.037 234.521 122.216 234.971 120.421C235.421 118.626 237.242 117.536 239.037 117.987Z" fill="#CECDFF"/>
<path d="M122.09 20.0352C90.0814 20.0352 64.0391 48.997 64.0391 84.5945C64.0391 120.192 90.0814 149.154 122.09 149.154C154.099 149.154 180.142 120.192 180.142 84.5945C180.142 48.997 154.099 20.0352 122.09 20.0352ZM146.425 111.657C145.716 112.445 144.788 112.839 143.86 112.839C142.931 112.839 142.003 112.445 141.294 111.657L119.525 87.4473C118.845 86.6908 118.462 85.6663 118.462 84.5945V48.2799C118.462 46.0496 120.087 44.2449 122.09 44.2449C124.094 44.2449 125.719 46.0496 125.719 48.2799V82.9238L146.425 105.951C147.842 107.528 147.842 110.081 146.425 111.657Z" fill="#8989F7"/>
<path d="M101.965 144.358C116.768 150.102 132.736 149.232 146.927 141.907C161.117 134.582 171.831 121.681 177.095 105.578C182.36 89.4757 181.544 72.1001 174.799 56.6521C168.054 41.2044 156.186 29.5334 141.382 23.7894C126.578 18.0454 110.611 18.916 96.4201 26.2405C82.2298 33.5651 71.5155 46.4671 66.2513 62.5696C60.9869 78.672 61.8025 96.0477 68.5478 111.496C75.2932 126.944 87.1608 138.615 101.965 144.358Z" fill="white"/>
<path d="M139.993 127.407L143.381 135.166C143.555 135.565 143.993 135.734 144.359 135.546C144.726 135.357 144.881 134.88 144.707 134.481L141.319 126.722C141.145 126.324 140.707 126.154 140.341 126.343C139.975 126.532 139.819 127.008 139.993 127.407Z" fill="#CECDFF"/>
<path d="M98.7118 32.8485L102.1 40.6077C102.274 41.0062 102.712 41.1761 103.078 40.9872C103.444 40.7982 103.6 40.3218 103.426 39.9231L100.038 32.1637C99.8638 31.7653 99.426 31.5952 99.0597 31.7842C98.6937 31.9736 98.5379 32.4501 98.7118 32.8485Z" fill="#CECDFF"/>
<path d="M82.1615 104.962L75.034 108.641C74.6677 108.83 74.2299 108.66 74.0557 108.262C73.8815 107.863 74.0374 107.387 74.4036 107.198L81.5312 103.519C81.8974 103.33 82.3353 103.499 82.5095 103.898C82.6834 104.297 82.5276 104.773 82.1615 104.962Z" fill="#CECDFF"/>
<path d="M169.013 60.1302L161.885 63.8091C161.519 63.9981 161.081 63.8283 160.907 63.4296C160.733 63.0309 160.889 62.5545 161.255 62.3655L168.383 58.6866C168.749 58.4976 169.187 58.6674 169.361 59.0661C169.535 59.4646 169.379 59.941 169.013 60.1302Z" fill="#CECDFF"/>
<path d="M148.376 112.667C148.639 112.77 148.945 112.703 149.151 112.469C149.432 112.152 149.423 111.646 149.131 111.34L122.474 83.4177L131.601 55.5011C131.737 55.0855 131.537 54.6285 131.155 54.4803C130.773 54.332 130.354 54.5487 130.218 54.9643L120.773 83.8525L148.113 112.49C148.191 112.571 148.28 112.63 148.376 112.667Z" fill="#CECDFF"/>
<path d="M133.1 33.4546C132.483 35.34 133.389 37.4139 135.122 38.0864C136.855 38.759 138.76 37.7758 139.377 35.8902C139.993 34.0046 139.088 31.931 137.354 31.2585C135.621 30.5861 133.716 31.5693 133.1 33.4546Z" fill="#CECDFF"/>
<path d="M118.951 81.8882C118.335 83.7738 119.24 85.8475 120.974 86.52C122.707 87.1926 124.612 86.2092 125.228 84.3238C125.845 82.4384 124.939 80.3646 123.206 79.692C121.473 79.0197 119.568 80.0028 118.951 81.8882Z" fill="#CECDFF"/>
<path d="M104.037 131.443C103.421 133.328 104.326 135.402 106.06 136.075C107.793 136.747 109.698 135.764 110.314 133.879C110.931 131.993 110.025 129.919 108.292 129.247C106.559 128.574 104.654 129.557 104.037 131.443Z" fill="#CECDFF"/>
<path d="M167.862 96.114C166.129 95.4415 164.224 96.4246 163.607 98.3102C162.991 100.196 163.897 102.269 165.63 102.942C167.363 103.615 169.268 102.631 169.884 100.746C170.501 98.8602 169.596 96.7866 167.862 96.114Z" fill="#CECDFF"/>
<path d="M77.784 64.3953C76.0507 63.7227 74.1457 64.7059 73.5294 66.5915C72.9129 68.4771 73.8185 70.5507 75.5518 71.2233C77.2852 71.8958 79.1901 70.9125 79.8064 69.0271C80.4227 67.1415 79.5174 65.0678 77.784 64.3953Z" fill="#CECDFF"/>
</svg>
