<svg width="81" height="81" viewBox="0 0 81 81" fill="none" xmlns="http://www.w3.org/2000/svg">
<path d="M29.6131 34.7539H20.4951V68.4429H29.6131V34.7539Z" fill="#EAEAEA"/>
<path d="M69.4958 34.7695H29.6128V42.3145H69.4958V34.7695Z" fill="#F3A73D"/>
<path d="M29.6131 34.7695H20.4951V42.3145H29.6131V34.7695Z" fill="#F3A73D"/>
<path d="M69.2117 34.7695H58.6807V42.3145H69.2117V34.7695Z" fill="#F3A73D"/>
<path d="M69.4947 56.1347V68.4427H21.1577V33.8867H69.4947V46.6807" stroke="#2C426B" stroke-width="1.944" stroke-miterlimit="10" stroke-linecap="round" stroke-linejoin="round"/>
<path d="M39.7827 44.918H47.7237" stroke="#2C426B" stroke-width="1.944" stroke-miterlimit="10" stroke-linecap="round" stroke-linejoin="round"/>
<path d="M26.4507 44.918H33.9407" stroke="#2C426B" stroke-width="1.944" stroke-miterlimit="10" stroke-linecap="round" stroke-linejoin="round"/>
<path d="M26.4507 50.6133H57.9107" stroke="#2C426B" stroke-width="1.944" stroke-miterlimit="10" stroke-linecap="round" stroke-linejoin="round"/>
<path fill-rule="evenodd" clip-rule="evenodd" d="M52.0667 59.9029C52.0667 62.6329 49.8537 64.8459 47.1237 64.8459C44.3937 64.8459 42.1787 62.6329 42.1787 59.9029C42.1787 57.1729 44.3937 54.9609 47.1237 54.9609C49.8537 54.9609 52.0667 57.1729 52.0667 59.9029Z" fill="#6666F2" stroke="#6666F2" stroke-width="1.944" stroke-miterlimit="10" stroke-linecap="round" stroke-linejoin="round"/>
<path fill-rule="evenodd" clip-rule="evenodd" d="M64.3069 59.9029C64.3069 62.6329 62.0949 64.8459 59.3649 64.8459C56.6349 64.8459 54.4199 62.6329 54.4199 59.9029C54.4199 57.1729 56.6349 54.9609 59.3649 54.9609C62.0949 54.9609 64.3069 57.1729 64.3069 59.9029Z" fill="#6666F2" stroke="#6666F2" stroke-width="1.944" stroke-miterlimit="10" stroke-linecap="round" stroke-linejoin="round"/>
<path d="M17.3769 46.0019L11.5039 34.9109L54.2259 12.2969L63.0729 29.0069" stroke="#2C426B" stroke-width="1.944" stroke-miterlimit="10" stroke-linecap="round" stroke-linejoin="round"/>
</svg>
