<svg width="128" height="128" viewBox="0 0 128 128" fill="none" xmlns="http://www.w3.org/2000/svg">
<circle cx="63.9072" cy="63.8281" r="63.8281" fill="#FAFAFA"/>
<g clip-path="url(#clip0_4430_119)">
<path d="M63.4004 67.2925C64.5098 66.9627 65.2894 65.9732 65.2894 64.8188V64.4889C65.2894 63.3195 64.5098 62.33 63.4004 62.0002C57.2684 60.1561 52.7857 54.459 52.7857 47.7573V40.8008H48.9326V48.372C48.9326 54.6688 53.1455 60.0062 58.8876 61.7453C59.9371 62.0452 60.6717 62.9747 60.6717 64.0691V64.384C60.6717 65.4634 59.9371 66.393 58.8876 66.7078C53.1455 68.432 48.9326 73.7693 48.9326 80.0661V87.6374H52.7857V81.5354C52.7857 74.8338 57.2684 69.1366 63.4004 67.2925Z" fill="#EAEAEA"/>
<path d="M79.2475 87.6374V80.0661C79.2475 73.7993 75.0646 68.4919 69.3674 66.7228C68.3329 66.408 67.6133 65.4934 67.6133 64.399V64.0392C67.6133 62.9597 68.3329 62.0302 69.3674 61.7153C75.0646 59.9612 79.2475 54.6389 79.2475 48.372V40.8008" stroke="#2C426B" stroke-width="1.87406" stroke-miterlimit="10" stroke-linecap="round" stroke-linejoin="round"/>
<path d="M48.9785 40.8008V48.372C48.9785 54.6688 53.2064 60.0062 58.9485 61.7453C59.983 62.0452 60.7176 62.9747 60.7176 64.0691V64.384C60.7176 65.4634 59.983 66.393 58.9485 66.7078C53.2064 68.432 48.9785 73.7693 48.9785 80.0661V87.6374" stroke="#2C426B" stroke-width="1.87406" stroke-miterlimit="10" stroke-linecap="round" stroke-linejoin="round"/>
<path d="M84.6907 40.8107H43.4463V35.9531H84.6907V40.8107Z" fill="#6666F2"/>
<path d="M84.6898 40.8107H78.228V35.9531H84.6898V40.8107Z" fill="#6666F2"/>
<path d="M50.8076 40.8107H43.4463V35.9531H50.8076V40.8107Z" fill="#6666F2"/>
<path d="M84.5551 91.9044H43.3257V87.0469H84.5551V91.9044Z" fill="#F3A73D"/>
<path d="M84.5552 91.9044H78.1084V87.0469H84.5552V91.9044Z" fill="#F3A73D"/>
<path d="M50.687 91.9044H43.3257V87.0469H50.687V91.9044Z" fill="#F3A73D"/>
<path d="M69.0975 40.7957H43.4453V35.9531H84.6747V40.7957H76.084" stroke="#2C426B" stroke-width="1.87406" stroke-miterlimit="10" stroke-linecap="round" stroke-linejoin="round"/>
<path d="M60.072 87.168H84.6897V92.0255H43.4453V87.168H52.036" stroke="#2C426B" stroke-width="1.87406" stroke-miterlimit="10" stroke-linecap="round" stroke-linejoin="round"/>
<path d="M55.665 82.8215H73.4312L63.8809 69.2383L55.665 82.8215Z" fill="#EAEAEA"/>
<path fill-rule="evenodd" clip-rule="evenodd" d="M55.665 82.8215H73.4312L63.8809 69.2383L55.665 82.8215Z" stroke="#2C426B" stroke-width="1.87406" stroke-miterlimit="10" stroke-linecap="round" stroke-linejoin="round"/>
</g>
<defs>
<clipPath id="clip0_4430_119">
<rect width="60" height="60" fill="white" transform="translate(34 34)"/>
</clipPath>
</defs>
</svg>
