<svg width="21" height="21" viewBox="0 0 21 21" fill="none" xmlns="http://www.w3.org/2000/svg">
<mask id="mask0_4022_921" style="mask-type:alpha" maskUnits="userSpaceOnUse" x="0" y="0" width="21" height="21">
<rect x="0.816406" y="0.699646" width="20" height="20" fill="#D9D9D9"/>
</mask>
<g mask="url(#mask0_4022_921)">
<path d="M10.819 15.6996C10.0412 15.6996 9.29818 15.8211 8.58984 16.0642C7.88151 16.3072 7.23568 16.6718 6.65234 17.1579V17.3663H14.9857V17.1579C14.4023 16.6718 13.7565 16.3072 13.0482 16.0642C12.3398 15.8211 11.5968 15.6996 10.819 15.6996ZM10.819 14.0329C11.7773 14.0329 12.6732 14.1788 13.5065 14.4704C14.3398 14.7621 15.1107 15.1718 15.819 15.6996V4.03294H5.81901V15.6996C6.52734 15.1718 7.29818 14.7621 8.13151 14.4704C8.96484 14.1788 9.86068 14.0329 10.819 14.0329ZM10.819 10.6996C10.4718 10.6996 10.1766 10.5781 9.93359 10.335C9.69054 10.092 9.56901 9.79683 9.56901 9.44961C9.56901 9.10238 9.69054 8.80724 9.93359 8.56419C10.1766 8.32113 10.4718 8.19961 10.819 8.19961C11.1662 8.19961 11.4614 8.32113 11.7044 8.56419C11.9475 8.80724 12.069 9.10238 12.069 9.44961C12.069 9.79683 11.9475 10.092 11.7044 10.335C11.4614 10.5781 11.1662 10.6996 10.819 10.6996ZM5.81901 19.0329C5.36068 19.0329 4.96832 18.8697 4.64193 18.5434C4.31554 18.217 4.15234 17.8246 4.15234 17.3663V4.03294C4.15234 3.57461 4.31554 3.18224 4.64193 2.85586C4.96832 2.52947 5.36068 2.36627 5.81901 2.36627H15.819C16.2773 2.36627 16.6697 2.52947 16.9961 2.85586C17.3225 3.18224 17.4857 3.57461 17.4857 4.03294V17.3663C17.4857 17.8246 17.3225 18.217 16.9961 18.5434C16.6697 18.8697 16.2773 19.0329 15.819 19.0329H5.81901ZM10.819 12.3663C11.6246 12.3663 12.3121 12.0816 12.8815 11.5121C13.451 10.9427 13.7357 10.2552 13.7357 9.44961C13.7357 8.64405 13.451 7.95655 12.8815 7.38711C12.3121 6.81766 11.6246 6.53294 10.819 6.53294C10.0135 6.53294 9.32595 6.81766 8.75651 7.38711C8.18707 7.95655 7.90234 8.64405 7.90234 9.44961C7.90234 10.2552 8.18707 10.9427 8.75651 11.5121C9.32595 12.0816 10.0135 12.3663 10.819 12.3663Z" fill="#6666F2"/>
</g>
</svg>
