<svg enable-background="new 0 0 512 512" viewBox="0 0 512 512" xmlns="http://www.w3.org/2000/svg"><g id="_x35_0_marvel"/><g id="_x34_9_score"/><g id="_x34_8_manual"/><g id="_x34_7_ads"/><g id="_x34_6_firefox"/><g id="_x34_5_together"/><g id="_x34_4_timeline"/><g id="_x34_3_podcast"/><g id="_x34_2_python"/><g id="_x34_1_anime"/><g id="_x34_0_platform"/><g id="_x33_9_about_us"/><g id="_x33_8_farmer"/><g id="_x33_7_check_list"/><g id="_x33_6_step"/><g id="_x33_5_csv"/><g id="_x33_4_play_button"/><g id="_x33_3_arrow_up"/><g id="_x33_2_thank_you"/><g id="_x33_1_cars"/><g id="_x33_0_muscle"/><g id="_x32_9_sensor"/><g id="_x32_8_install"/><g id="_x32_7_ear"/><g id="_x32_6_strong"/><g id="_x32_5_wallet"/><g id="_x32_4_change_password"/><g id="_x32_3_submit"/><g id="_x32_2_booking"/><g id="_x32_1_challenge"/><g id="_x32_0_radio_button"/><g id="_x31_9_restart"><g><g><circle cx="256" cy="256" fill="#fff" r="218"/><path d="m338 384c-120.4 0-218-97.6-218-218 0-34.4 8-67 22.2-96-62.5 38.3-104.2 107.3-104.2 186 0 120.4 97.6 218 218 218 86 0 160.3-49.7 195.8-122-33.1 20.3-72.1 32-113.8 32z" fill="#e6e7e8"/><path d="m256 490c-62.5 0-121.3-24.3-165.5-68.5s-68.5-103-68.5-165.5 24.3-121.3 68.5-165.5 103-68.5 165.5-68.5 121.3 24.3 165.5 68.5 68.5 103 68.5 165.5-24.3 121.3-68.5 165.5-103 68.5-165.5 68.5zm0-436c-111.4 0-202 90.6-202 202s90.6 202 202 202 202-90.6 202-202-90.6-202-202-202z" fill="#3e4d6c"/></g><g fill="#0795fe"><path d="m263.2 406v-32c64.1 0 116.3-52.9 116.3-118s-52.2-118-116.3-118-116.3 52.9-116.3 118c0 19.7 4.9 39.2 14.1 56.3l-28.2 15.1c-11.7-21.8-17.9-46.5-17.9-71.4 0-82.7 66.5-150 148.3-150s148.3 67.3 148.3 150-66.6 150-148.3 150z"/><path d="m146.8 335.9c-2.8 0-5.6-.7-8.1-2.2l-54.1-31.7 16.2-27.6 39.2 23 18.5-38 28.8 14-26 53.6c-1.9 4-5.5 7-9.8 8.3-1.6.4-3.1.6-4.7.6z"/></g></g></g><g id="_x31_8_me"/><g id="_x31_7_active"/><g id="_x31_6_course"/><g id="_x31_5_restore"/><g id="_x31_4_events"/><g id="_x31_3_age"/><g id="_x31_1_driver"/><g id="_x31_1_quiz"/><g id="_x31_0_detail"/><g id="_x30_9_compare"/><g id="_x30_8_config"/><g id="_x30_7_java"/><g id="_x30_6_reports"/><g id="_x30_5_all"/><g id="_x30_4_notice"/><g id="_x30_3_javascript"/><g id="_x30_2_no_image"/><g id="_x30_1_app_store"/></svg>