<svg width="623" height="655" viewBox="0 0 623 655" fill="none" xmlns="http://www.w3.org/2000/svg">
<g opacity="0.4">
<circle cx="465.151" cy="203.828" r="115.948" fill="#EFF1FF"/>
<path d="M622.627 357.069C622.627 395.624 615.033 433.802 600.279 469.422C585.524 505.043 563.898 537.408 536.636 564.671C509.373 591.933 477.008 613.559 441.387 628.314C405.767 643.068 367.589 650.662 329.034 650.662V357.069H622.627Z" fill="#EFF1FF"/>
<circle cx="149.128" cy="149.128" r="149.128" transform="matrix(-1 0 0 1 298.836 0.724609)" fill="#EFF1FF"/>
<path d="M0.580444 353.642C0.580444 393.121 8.35645 432.214 23.4645 468.688C38.5726 505.162 60.7168 538.303 88.6329 566.219C116.549 594.135 149.69 616.279 186.164 631.387C222.638 646.495 261.731 654.271 301.21 654.271V353.642H0.580444Z" fill="#EFF1FF"/>
</g>
<mask id="mask0_4711_86" style="mask-type:luminance" maskUnits="userSpaceOnUse" x="322" y="97" width="204" height="187">
<path d="M322.602 97.4023V261.332V283.232L348.044 261.332H525.179V97.4023H322.602Z" fill="white"/>
</mask>
<g mask="url(#mask0_4711_86)">
<path d="M525.179 97.4023H322.602V292.242H525.179V97.4023Z" fill="white"/>
<g opacity="0.6">
<path d="M380.093 219.286C361.785 207.866 354.255 188.912 354.19 170.622C354.135 155.25 360.801 136.287 382.838 139.664C397.653 141.935 410.043 150.99 424.242 154.992C435.738 158.232 447.943 157.285 459.582 156.712C477.827 155.814 497.673 166.419 499.602 178.588C502.187 194.902 499.793 212.977 485.416 222.477C460.236 239.115 408.422 236.956 380.093 219.286Z" stroke="#1F3C88" stroke-width="0.853496" stroke-miterlimit="10" stroke-dasharray="6.8 6.8"/>
</g>
<path d="M395.417 238.065C374.097 234.74 359.736 220.258 352.504 203.459C346.425 189.34 345.12 169.282 366.716 163.746C381.234 160.024 396.183 163.495 410.814 161.608C422.659 160.08 433.515 154.422 443.997 149.33C460.428 141.349 479.479 138.052 489.39 153.759C498.205 167.728 496.359 186.914 486.859 201.291C470.222 226.471 428.407 243.21 395.417 238.065Z" fill="#D3DFFF"/>
<path d="M366.095 119.713C367.17 115.162 364.352 110.602 359.8 109.527C355.249 108.452 350.689 111.27 349.614 115.822C348.539 120.373 351.357 124.934 355.909 126.008C360.46 127.083 365.021 124.265 366.095 119.713Z" fill="#EE6F57"/>
<path d="M359.681 121.348L357.828 118.847L355.962 121.348H354.098L356.909 117.685L354.219 114.129H356.098L357.869 116.495L359.64 114.129H361.465L358.762 117.657L361.586 121.348L359.681 121.348Z" fill="white"/>
<path d="M387.855 119.815C389.01 115.283 386.271 110.674 381.739 109.52C377.207 108.365 372.598 111.104 371.443 115.636C370.289 120.168 373.027 124.777 377.56 125.932C382.092 127.086 386.701 124.347 387.855 119.815Z" fill="#FBC343"/>
<path d="M383.062 116.811H376.246V118.669H383.062V116.811Z" fill="white"/>
<path d="M456.976 217.017C435.787 229.151 425.5 225.818 422.166 223.935C418.842 225.818 408.556 229.152 387.366 217.017C367.067 205.381 378.899 180.366 386.894 165.146C391.236 156.878 394.587 148.153 402.204 142.194C409.37 136.588 417.399 134.857 426.815 135.322C439.759 135.961 447.79 143.671 451.76 152.918C454.918 160.275 458.84 167.156 462.29 174.36C465.523 181.111 468.128 188.459 468.37 195.953C468.651 204.67 464.888 212.482 456.976 217.017Z" fill="#6F3428"/>
<path d="M462.026 215.539C449.047 200.938 425.147 203.985 422.604 204.357C420.06 203.985 396.16 200.938 383.181 215.539C373.409 226.533 373.535 270.415 373.535 270.415C373.535 269.333 418.998 269.015 422.604 268.991C426.209 269.015 471.672 269.333 471.672 270.415C471.672 270.415 471.799 226.533 462.026 215.539Z" fill="#EE6F57"/>
<path d="M402.468 171.488C397.376 172.009 393.134 184.416 406.91 184.676L410.204 180.774L402.468 171.488Z" fill="#E28B6D"/>
<path d="M442.859 171.488C448.602 171.789 452.682 184.416 438.906 184.676L435.611 180.774L442.859 171.488Z" fill="#E28B6D"/>
<path d="M422.603 215.969C416.269 215.969 411.135 210.834 411.135 204.501V190.031H434.071V204.501C434.071 210.835 428.937 215.969 422.603 215.969Z" fill="#F9B384"/>
<path d="M434.011 193.102C426.466 205.395 418.806 205.178 411.039 193.527L434.011 193.102Z" fill="#E28B6D"/>
<path d="M444.726 162.3C444.614 163.423 444.481 164.525 444.339 165.618C441.96 183.801 435.752 198.033 422.265 198.033C408.421 198.033 403.602 184.373 401.07 165.373C400.856 163.821 400.672 162.218 400.488 160.594L427.717 149.711L444.726 162.3Z" fill="#F9B384"/>
<path d="M398.278 171.063C405.212 173.402 418.442 165.575 418.442 165.575C417.415 162.599 418.868 159.67 421.76 156.77C421.588 159.717 422.27 164.342 424.908 166.043C424.908 166.043 426.694 166.469 429.46 165.873C428.784 162.503 429.277 159.55 431.332 157.153C431.332 157.153 434.437 165.618 435.968 167.532C437.905 169.953 444.876 173.61 451.113 170.553L439.499 144.263L408.743 143.625L394.832 156.514L398.278 171.063Z" fill="#6F3428"/>
<path d="M414.687 174.32C415.699 174.32 416.52 173.198 416.52 171.814C416.52 170.43 415.699 169.309 414.687 169.309C413.674 169.309 412.854 170.43 412.854 171.814C412.854 173.198 413.674 174.32 414.687 174.32Z" fill="#6F3428"/>
<path d="M430.085 174.32C431.098 174.32 431.919 173.198 431.919 171.814C431.919 170.43 431.098 169.309 430.085 169.309C429.073 169.309 428.252 170.43 428.252 171.814C428.252 173.198 429.073 174.32 430.085 174.32Z" fill="#6F3428"/>
<path d="M424.796 178.569C424.796 181.001 424.99 182.917 422.969 182.972C421.048 183.025 421.141 181.001 421.141 178.569C421.141 176.137 421.959 174.166 422.969 174.166C423.978 174.166 424.796 176.138 424.796 178.569Z" fill="#E28B6D"/>
<path d="M417.324 187.089L428.89 186.77C428.89 186.77 424.06 196.01 417.324 187.089Z" fill="white"/>
<path opacity="0.3" d="M433.974 185.402C436.679 185.402 438.873 183.209 438.873 180.503C438.873 177.797 436.679 175.604 433.974 175.604C431.268 175.604 429.074 177.797 429.074 180.503C429.074 183.209 431.268 185.402 433.974 185.402Z" fill="#EE6F57"/>
<path opacity="0.3" d="M417.767 181.8C418.199 179.129 416.383 176.614 413.712 176.182C411.041 175.751 408.526 177.566 408.094 180.237C407.662 182.909 409.478 185.424 412.149 185.856C414.82 186.287 417.336 184.472 417.767 181.8Z" fill="#EE6F57"/>
<g opacity="0.4">
<path d="M409.071 215.897C409.891 216.852 410.924 217.615 412.063 218.189C413.187 218.785 414.386 219.253 415.618 219.598C418.085 220.279 420.658 220.595 423.205 220.482C425.748 220.372 428.277 219.847 430.577 218.788C432.881 217.734 434.892 216.084 436.481 214.033L436.983 214.36C436.331 215.543 435.476 216.619 434.504 217.583C433.51 218.524 432.383 219.331 431.172 219.985C428.736 221.284 425.989 221.895 423.267 222.005C420.541 222.1 417.8 221.73 415.228 220.831C413.945 220.379 412.695 219.819 411.538 219.084C410.397 218.34 409.316 217.426 408.58 216.239L409.071 215.897Z" fill="#6F3428"/>
</g>
<g opacity="0.4">
<path d="M396.091 234.528C396.19 237.129 396.198 239.727 396.185 242.324C396.188 244.922 396.119 247.517 396.047 250.113C395.965 252.708 395.861 255.303 395.701 257.895L395.44 261.783C395.32 263.078 395.229 264.374 395.078 265.668L394.48 265.649C394.412 264.348 394.406 263.049 394.37 261.749L394.363 257.852C394.371 255.254 394.436 252.658 394.523 250.063C394.62 247.469 394.719 244.874 394.892 242.282C395.048 239.689 395.225 237.097 395.492 234.508L396.091 234.528Z" fill="#6F3428"/>
</g>
<g opacity="0.4">
<path d="M450.268 233.223C450.703 235.821 451.049 238.428 451.373 241.038C451.714 243.645 451.981 246.26 452.247 248.875C452.503 251.491 452.737 254.109 452.914 256.733L453.161 260.67C453.21 261.985 453.288 263.298 453.306 264.617L452.71 264.674C452.474 263.377 452.3 262.073 452.095 260.773L451.583 256.861C451.254 254.252 450.98 251.638 450.731 249.022C450.49 246.404 450.251 243.787 450.086 241.162C449.904 238.539 449.743 235.914 449.672 233.28L450.268 233.223Z" fill="#6F3428"/>
</g>
</g>
<path d="M322.602 97.4043V261.334V283.234L348.044 261.334H525.179V97.4043H322.602Z" stroke="#708CD5" stroke-width="1.19489" stroke-miterlimit="10"/>
<path opacity="0.15" d="M431.795 536.124C431.795 528.12 360.487 521.631 272.524 521.631C184.562 521.631 113.254 528.12 113.254 536.124C113.254 542.617 160.168 548.111 224.828 549.956C231.869 561.508 220.116 575.325 211.107 580.309C195.288 581.099 183.936 582.859 185.724 586.613C194.178 604.367 266.023 585.475 266.023 585.475C266.023 585.475 294.118 587.222 294.118 584.551C294.118 583.321 289.169 582.2 281.032 581.346L281.634 581.311L251.303 550.49C258.247 550.574 265.328 550.618 272.524 550.618C360.487 550.618 431.795 544.129 431.795 536.124Z" fill="#1F3C88"/>
<path d="M445.862 429.664C443.763 464.308 426.3 498.926 397.674 517.976C363.551 540.687 315.841 535.66 276.981 538.553C243.387 541.054 209.538 543.205 175.935 539.629C148.402 536.693 120.629 525.785 107.477 499.054C94.2986 472.262 92.8732 436.663 106.051 409.548C110.25 400.893 115.875 393.203 122.49 386.495C123.565 385.394 124.683 384.318 125.818 383.268C126.586 382.56 127.363 381.86 128.157 381.177C129.369 380.128 130.615 379.103 131.878 378.105C132.296 377.78 132.714 377.456 133.141 377.132C133.559 376.807 133.986 376.492 134.413 376.176C134.84 375.86 135.266 375.544 135.702 375.237C136.026 375.007 136.35 374.776 136.675 374.546C137.212 374.162 137.759 373.786 138.313 373.419C143.221 370.107 148.393 367.197 153.728 364.696C158.917 362.247 164.26 360.181 169.637 358.508C187.313 353.021 205.774 351.075 224.013 348.676C262.719 343.598 302.125 341.865 341.138 341.891C372.974 341.899 408.82 346.662 430.107 373.991C442.124 389.422 447.066 409.932 445.862 429.664Z" fill="#EE6F57"/>
<path d="M380.324 371.152C380.324 371.152 388.536 363.438 392.887 358.973C397.238 354.508 387.744 354.364 383.065 359.928C378.385 365.492 380.324 371.152 380.324 371.152Z" fill="#F9B384"/>
<path d="M153.726 364.697C148.392 367.198 143.22 370.108 138.312 373.42C137.757 373.787 137.211 374.163 136.673 374.547C136.349 374.777 136.025 375.007 135.7 375.238C135.265 375.545 134.838 375.861 134.412 376.177C133.985 376.493 133.558 376.808 133.14 377.133C132.713 377.457 132.295 377.781 131.877 378.106C130.631 379.096 129.41 380.111 128.207 381.153L128.155 381.178C127.362 381.861 126.585 382.561 125.817 383.269C124.682 384.319 123.564 385.395 122.488 386.496C122.582 387.4 123.171 388.271 124.139 388.47C130.545 389.765 133.753 395.877 138.916 399.352C142.748 401.93 147.278 402.638 151.613 401.16C146.945 411.046 144.37 420.854 146.386 431.919C146.999 435.264 148.062 438.522 149.512 441.599C143.512 437.143 137.734 427.598 135.357 417.919C135.019 416.545 133.632 415.684 132.26 416.043C130.887 416.38 130.047 417.766 130.384 419.14C133.326 431.124 140.817 442.638 148.599 447.141C150.452 448.213 152.334 448.895 154.197 449.208C155.739 451.184 157.46 453.019 159.35 454.664L170.856 457.882L180.244 397.284L153.726 364.697Z" fill="#B35341"/>
<path d="M187.074 405.39C163.286 396.125 146.772 386.273 137.184 379.712C130.97 375.46 127.826 367.962 129.1 360.54L141.366 289.039C142.629 281.68 147.508 275.423 154.371 272.481C174.05 264.042 193.21 259.22 210.118 256.882C210.118 256.882 219.59 256.118 231.669 257.309C239.618 258.093 257.816 263.455 269.383 267.047C275.919 269.077 281.165 273.971 283.64 280.352C288.49 292.854 296.369 313.965 298.882 325.375C307.559 364.778 306.136 361.862 306.136 361.862L315.098 422.46L219.933 427.795L195.609 416.699L187.074 405.39Z" fill="#708CD5"/>
<path d="M245.964 188.815C245.964 188.815 237.536 171.532 215.132 179.427C198.915 175.906 186.54 195.11 198.488 221.248L221 226.476L245.964 188.815Z" fill="#102048"/>
<path d="M234.016 237.676V268.248C234.016 275.4 228.213 281.204 221.06 281.204C211.365 281.204 203.504 273.343 203.504 263.648V237.676H234.016Z" fill="#F9B384"/>
<path d="M234.016 250.36V267.037C220.42 267.105 211.398 249.523 211.398 249.523L234.016 250.36Z" fill="#E28B6D"/>
<path d="M247.467 233.83C246.648 238.063 245.478 242.399 243.797 246.214C240.861 252.914 236.38 258.018 229.535 258.163C213.515 258.504 201.156 236.612 201.156 236.612L203.717 206.74L215.879 193.084L249.379 213.781C249.379 213.781 249.473 223.494 247.467 233.83Z" fill="#F9B384"/>
<path d="M203.183 227.867C203.183 227.867 206.49 214.424 218.013 205.676C218.013 205.676 234.763 227.547 252.473 216.985C270.183 206.422 262.501 185.619 245.965 188.819L226.974 186.686L203.183 194.26L199.129 212.931L203.183 227.867Z" fill="#102048"/>
<path opacity="0.4" d="M219.997 382.79C203.859 347.92 183.518 364.563 178.539 351.761C171.563 333.822 172.885 313.529 172.849 307.379L163.129 362.11C163.129 362.11 184.83 364.173 192.853 377.239L219.997 382.79Z" fill="#1F3C88"/>
<path d="M173.345 306.445C172.74 311.127 172.027 315.79 171.289 320.449C170.572 325.112 169.73 329.752 168.956 334.404C168.146 339.05 167.295 343.689 166.385 348.317L164.994 355.255C164.491 357.561 164.023 359.872 163.483 362.172L162.777 362.047C163.059 359.702 163.413 357.37 163.732 355.032L164.807 348.038C165.54 343.378 166.333 338.729 167.167 334.088C168.037 329.452 168.838 324.805 169.764 320.179C170.67 315.55 171.601 310.926 172.639 306.32L173.345 306.445Z" fill="#1F3C88"/>
<path d="M267.63 297.793C268.921 303.874 270.114 309.972 271.282 316.075C272.471 322.175 273.542 328.295 274.677 334.403C275.76 340.522 276.82 346.644 277.85 352.771L279.339 361.972C279.799 365.046 280.291 368.114 280.717 371.194L280.06 371.311C279.394 368.274 278.796 365.225 278.165 362.182L276.382 353.033C275.231 346.927 274.111 340.816 273.012 334.7C271.966 328.575 270.856 322.462 269.863 316.328C268.851 310.197 267.862 304.063 266.973 297.91L267.63 297.793Z" fill="#1F3C88"/>
<path opacity="0.4" d="M272.138 326.016C273.276 337.111 271.569 394.58 244.826 395.433L245.111 407.951L287.216 405.391L272.138 326.016Z" fill="#1F3C88"/>
<path d="M217.16 393.865C236.15 385.757 239.781 386.059 242.338 386.184C251.087 386.611 263.676 404.107 263.676 404.107L263.462 407.308H215.453L217.16 393.865Z" fill="#E28B6D"/>
<path d="M290.204 404.184H231.1V413.145H290.204V404.184Z" fill="white"/>
<path d="M370.575 413.151H267.871L290.915 321.371H393.619L370.575 413.151Z" fill="#FBC343"/>
<path d="M379.884 375.611C369.723 374.093 336.863 367.265 269.153 408.517L267.588 414.207L370.577 413.148L379.884 375.611Z" fill="#C89B35"/>
<path d="M381.829 396C381.189 400.321 380.976 406.669 367.586 405.869L363.639 403.842L367.373 399.734L375.428 395.627L381.829 396Z" fill="#F9B384"/>
<path d="M383.092 384.334C383.092 384.334 390.419 393.907 383.056 396.852C375.055 400.053 367.373 399.733 367.373 399.733C370.787 390.131 381.882 390.771 381.882 390.771L383.092 384.334Z" fill="#F9B384"/>
<path d="M383.304 378.145C383.304 378.145 393.403 387.533 384.015 390.164C370.756 393.881 366.661 394.148 366.661 394.148C365.95 387.106 379.107 382.554 379.107 382.554L383.304 378.145Z" fill="#F9B384"/>
<path d="M381.242 369.967C381.242 369.967 395.041 378.359 382.096 383.054C369.151 387.748 366.093 387.677 366.093 387.677C365.382 380.635 379.251 378.217 379.251 378.217L381.242 369.967Z" fill="#F9B384"/>
<path d="M366.092 387.679C366.092 387.679 381.135 385.545 385.616 381.918" stroke="#E28B6D" stroke-width="0.853496" stroke-miterlimit="10"/>
<path d="M366.662 394.15C366.662 394.15 382.309 391.945 387.217 388.531" stroke="#E28B6D" stroke-width="0.853496" stroke-miterlimit="10"/>
<path d="M367.373 399.733C367.373 399.733 376.655 400.053 381.882 397.492" stroke="#E28B6D" stroke-width="0.853496" stroke-miterlimit="10"/>
<path d="M221.641 534.266C223.205 533.413 247.957 538.818 275.411 518.477L239.991 508.377L221.641 534.266Z" fill="#102048"/>
<path d="M378.914 416.785C380.092 415.104 381.107 412.628 379.622 411.212C378.077 409.727 375.551 411.032 373.929 412.432C371.07 414.89 368.476 417.587 366.077 420.455L306.281 431.567L224.346 451.48L238.433 469.461C279.401 472.448 302.734 473.217 328.372 468.692C341.44 466.386 353.121 464.009 361.835 456.907C363.909 455.209 365.872 452.358 364.524 450.045C363.611 448.483 361.716 448.074 359.813 448.091C364.191 447.058 368.441 445.547 372.478 443.576C374.279 442.705 376.285 441.34 376.242 439.342C376.217 437.909 375.056 436.697 373.725 436.185C372.393 435.672 370.925 435.715 369.5 435.818C364.037 436.227 358.635 437.422 353.505 439.351C362.842 432.831 372.342 426.079 378.914 416.785ZM353.377 439.437C353.377 439.42 353.386 439.411 353.403 439.394C353.428 439.385 353.463 439.377 353.488 439.36C353.454 439.385 353.411 439.411 353.377 439.437Z" fill="#B35341"/>
<path d="M241.697 424.595C241.697 424.595 321.499 386.614 347.531 388.321C373.562 390.028 372.709 422.461 362.894 436.544C353.078 450.627 330.034 469.404 245.111 463.856L241.697 424.595Z" fill="#102048"/>
<path d="M281.633 581.315C277.315 582.536 271.187 582.834 262.754 581.494C262.754 581.494 251.829 584.328 241.075 586.556C233.795 588.066 226.6 589.295 222.921 589.176C222.606 589.167 222.29 589.15 221.965 589.125C214.907 588.621 206.014 584.943 201.294 579.685C201.285 579.668 201.277 579.651 201.26 579.642C199.962 578.191 198.981 576.612 198.452 574.957C195.891 566.985 201.302 557.315 230.603 559.304C230.603 559.304 240.273 557.033 242.552 549.915C244.831 542.805 228.042 508.666 228.042 508.666L251.94 492.449L275.411 518.481C275.411 518.481 278.97 541.952 278.97 549.633C278.97 549.633 288.922 563.861 290.348 570.117C291.261 574.112 289.264 579.156 281.633 581.315Z" fill="#D3DFFF"/>
<path d="M147.266 365.153C150.003 364.099 152.792 363.248 155.612 362.465C157.023 362.079 158.444 361.719 159.891 361.435C160.613 361.289 161.343 361.164 162.083 361.062C162.455 361.012 162.826 360.974 163.212 360.943C163.623 360.924 164.026 360.927 164.409 360.966C167.474 361.288 170.254 362.251 173.015 363.271C175.761 364.318 178.45 365.489 181.089 366.758C183.737 368.011 186.314 369.404 188.849 370.867C191.382 372.332 193.875 373.869 196.298 375.513C201.112 378.836 205.744 382.486 209.731 386.787L209.225 387.295C207.079 385.354 204.846 383.519 202.523 381.801C200.219 380.06 197.834 378.426 195.395 376.878C190.556 373.719 185.476 370.939 180.304 368.373C177.717 367.092 175.083 365.907 172.406 364.852C169.732 363.852 166.994 362.781 164.269 362.412C163.929 362.364 163.605 362.353 163.288 362.355C162.951 362.371 162.596 362.398 162.247 362.435C161.544 362.513 160.837 362.613 160.13 362.736C158.717 362.983 157.302 363.269 155.892 363.586C153.074 364.227 150.264 364.975 147.507 365.828L147.266 365.153Z" fill="#1F3C88"/>
<path d="M161.469 476.872C171.071 476.232 180.507 476.919 187.358 474.525C194.684 471.964 213.816 473.671 213.816 473.671L203.29 458.521L160.615 469.19L161.469 476.872Z" fill="#B35341"/>
<path d="M161.895 448.919C152.08 433.129 152.08 401.976 164.456 387.894C178.6 371.799 208.838 365.703 224.627 384.48C240.417 403.257 269.436 471.963 275.41 518.479C275.41 518.479 243.404 507.81 221.64 534.268C221.64 534.268 193.048 468.976 187.073 445.078L170.857 457.88L161.895 448.919Z" fill="#1F3C88"/>
<path d="M187.073 445.078C187.073 445.078 182.806 443.514 176.831 447.496C176.831 447.496 130.174 446.501 119.79 457.027C109.405 467.554 117.371 481.636 132.592 483.201C145.366 484.515 170.165 474.605 177.806 471.386C179.358 470.732 181.007 470.339 182.687 470.229L195.324 469.403L187.073 445.078Z" fill="#D3DFFF"/>
<path d="M205.706 228.73C205.706 228.73 202.576 218.358 195.692 220.951C188.808 223.544 192.473 237.045 206.063 240.8L205.706 228.73Z" fill="#F9B384"/>
<path d="M198.375 285.922C201.773 288.318 205.394 290.38 209.234 291.841C213.072 293.28 217.121 294.191 221.183 294.095C225.235 294.045 229.248 293.046 232.869 291.194L234.232 290.502C234.678 290.256 235.088 289.946 235.518 289.672C236.368 289.103 237.248 288.57 238.007 287.872L239.206 286.9L239.808 286.413C240.003 286.244 240.177 286.052 240.362 285.873C241.09 285.141 241.829 284.415 242.58 283.693L243.09 284.123C242.418 284.935 241.734 285.742 241.039 286.544C240.863 286.742 240.699 286.952 240.513 287.141L239.935 287.689L238.775 288.785C238.021 289.543 237.136 290.144 236.275 290.779C235.839 291.088 235.423 291.43 234.967 291.711L233.569 292.51C229.828 294.62 225.513 295.76 221.201 295.785C216.888 295.795 212.609 294.861 208.695 293.177C204.768 291.51 201.155 289.201 197.963 286.447L198.375 285.922Z" fill="#1F3C88"/>
<path d="M180.001 417.832L183.699 430.771C184.957 435.075 186.133 439.401 187.447 443.684C188.734 447.976 190.016 452.268 191.365 456.537C192.04 458.67 192.707 460.81 193.447 462.921C193.808 463.979 194.135 465.053 194.517 466.104C194.898 467.156 195.27 468.212 195.631 469.274L195.016 469.532C194.063 467.491 193.17 465.421 192.327 463.333C191.489 461.242 190.725 459.125 189.951 457.011C188.435 452.772 187.095 448.476 185.825 444.162C184.593 439.838 183.376 435.51 182.306 431.143C181.225 426.78 180.203 422.405 179.352 417.986L180.001 417.832Z" fill="#102048"/>
<path opacity="0.1" d="M281.633 581.315C277.314 582.535 271.186 582.834 262.753 581.494C262.753 581.494 244.685 586.12 233.27 587.934C245.005 585.587 262.075 571.077 260.155 561.902C277.011 567.45 281.599 575.878 281.633 581.315Z" fill="#1F3C88"/>
<path opacity="0.4" d="M236.251 582.916C234.075 585.596 230.831 587.414 227.426 588.327C225.642 588.805 223.807 589.061 221.963 589.121C214.905 588.618 206.012 584.939 201.292 579.682C201.283 579.664 201.275 579.647 201.258 579.639C200.754 578.956 200.285 578.248 199.875 577.514C202.384 579.852 205.115 581.764 208.06 583.224C209.537 583.923 211.03 584.598 212.592 585.067C213.352 585.357 214.145 585.528 214.931 585.75C215.707 585.989 216.518 586.083 217.32 586.228C223.696 587.303 230.464 586.638 236.251 582.916Z" fill="#1F3C88"/>
<path d="M202.614 230.207C202.455 229.276 202.017 228.406 201.502 227.612C200.975 226.828 200.346 226.095 199.62 225.582C198.893 225.073 198.104 224.819 197.438 225.179C196.739 225.527 196.186 226.376 195.703 227.236L195.23 227.072C195.434 226.06 195.808 224.946 196.868 224.211C197.391 223.846 198.106 223.716 198.728 223.828C199.353 223.941 199.899 224.21 200.361 224.545C201.282 225.223 201.957 226.104 202.448 227.066C202.925 228.025 203.267 229.108 203.114 230.218L202.614 230.207Z" fill="#E28B6D"/>
<path d="M243.222 229.945C242.922 231.417 241.813 232.434 240.745 232.216C239.677 231.999 239.055 230.629 239.355 229.156C239.655 227.684 240.764 226.667 241.832 226.885C242.9 227.103 243.522 228.473 243.222 229.945Z" fill="#102048"/>
<path d="M226.593 229.286C226.835 227.803 226.159 226.458 225.083 226.283C224.007 226.108 222.939 227.168 222.698 228.651C222.456 230.134 223.132 231.478 224.208 231.653C225.284 231.829 226.352 230.769 226.593 229.286Z" fill="#102048"/>
<path d="M233.651 231.301C233.752 232.513 233.801 233.719 233.814 234.899C233.862 235.351 234.072 235.738 234.449 236.148C234.813 236.556 235.283 236.981 235.689 237.574C235.893 237.867 236.053 238.241 236.131 238.609C236.217 238.975 236.227 239.338 236.203 239.695C236.143 240.406 235.891 241.105 235.418 241.68C235.187 241.969 234.878 242.207 234.541 242.381C234.191 242.532 233.814 242.628 233.452 242.611C232.723 242.578 232.096 242.296 231.574 241.931L231.811 241.489C232.363 241.669 232.915 241.808 233.403 241.716C233.886 241.649 234.271 241.39 234.528 240.993C235.05 240.215 235.126 238.997 234.623 238.271C234.359 237.849 233.923 237.454 233.51 236.933C233.093 236.441 232.694 235.697 232.722 234.922C232.815 233.682 232.962 232.468 233.152 231.26L233.651 231.301Z" fill="#E28B6D"/>
<path d="M219.895 224.157C220.575 223.479 221.383 222.916 222.291 222.512C223.195 222.105 224.221 221.88 225.262 221.944C226.302 222.005 227.322 222.392 228.135 222.997C228.955 223.598 229.586 224.378 230.054 225.22L229.659 225.527C228.953 224.927 228.272 224.362 227.528 223.944C226.786 223.526 225.992 223.272 225.172 223.215C223.517 223.089 221.833 223.748 220.188 224.563L219.895 224.157Z" fill="#102048"/>
<path d="M237.258 225.618C237.54 224.709 238.295 223.993 239.127 223.567C239.967 223.128 240.915 222.942 241.85 222.958C242.787 222.978 243.728 223.219 244.543 223.698C245.359 224.169 246.034 224.893 246.387 225.734L245.968 226.008C244.808 224.841 243.349 224.284 241.817 224.232C240.307 224.198 238.707 224.615 237.707 225.839L237.258 225.618Z" fill="#102048"/>
<path d="M225.605 245.66L236.927 246.467C236.927 246.467 230.611 254.843 225.605 245.66Z" fill="white"/>
<path opacity="0.4" d="M247.467 233.831C246.648 238.065 245.478 242.4 243.797 246.215C241.586 245.174 240.059 242.921 240.059 240.309C240.059 236.699 242.995 233.771 246.605 233.771C246.895 233.771 247.185 233.789 247.467 233.831Z" fill="#EE6F57"/>
<path opacity="0.4" d="M221.188 244.849C224.52 243.45 226.087 239.614 224.688 236.282C223.289 232.95 219.453 231.383 216.121 232.783C212.789 234.182 211.222 238.018 212.622 241.35C214.021 244.682 217.856 246.248 221.188 244.849Z" fill="#EE6F57"/>
</svg>
