<svg id="Capa_1" enable-background="new 0 0 512 512" viewBox="0 0 512 512" xmlns="http://www.w3.org/2000/svg"><g><g><path d="m0 96v353.095c0 17.068 13.837 30.905 30.905 30.905h450.189c17.069 0 30.906-13.837 30.906-30.905v-353.095l-256-32z" fill="#eaf6ff"/></g><g><path d="m512 96v-33.095c0-17.068-13.837-30.905-30.905-30.905h-450.19c-17.068 0-30.905 13.837-30.905 30.905v33.095z" fill="#26a6fe"/></g><g><path d="m491.396 93.425v335.066c0 17.069-13.837 30.905-30.905 30.905h-450.189c-3.122 0-6.136-.463-8.977-1.325 3.846 12.691 15.634 21.929 29.58 21.929h450.189c17.069 0 30.906-13.837 30.906-30.905v-353.095z" fill="#c4e2ff"/></g><g><path d="m490.072 33.325c.861 2.841 1.325 5.855 1.325 8.977v53.698h20.603v-33.095c0-13.946-9.238-25.734-21.928-29.58z" fill="#0593fc"/></g><g fill="#eaf6ff"><path d="m80 71.726h-32c-4.268 0-7.726-3.459-7.726-7.726s3.459-7.726 7.726-7.726h32c4.268 0 7.726 3.459 7.726 7.726s-3.458 7.726-7.726 7.726z"/><path d="m144 71.726h-32c-4.268 0-7.726-3.459-7.726-7.726s3.459-7.726 7.726-7.726h32c4.268 0 7.726 3.459 7.726 7.726s-3.458 7.726-7.726 7.726z"/><path d="m208 71.726h-32c-4.268 0-7.726-3.459-7.726-7.726s3.459-7.726 7.726-7.726h32c4.268 0 7.726 3.459 7.726 7.726s-3.458 7.726-7.726 7.726z"/></g><g><g><path d="m351.628 258.326h-16.58c-9.993 37.612-38.79 65.959-79.554 65.959-22.322 0-40.777-4.847-56.284-18.543-1.097-.969-3.109-2.041-3.175-3.387-.068-1.396.427-2.816 1.5-3.89l15.381-15.381c1.899-1.899 4.925-2.006 6.978-.274 9.751 8.226 22.349 13.191 36.106 13.191 22.86 0 42.526-13.701 51.221-33.347h-15.7c-4.584-.01-6.882-5.553-3.637-8.798l29.185-29.164c4.028-4.028 10.549-4.028 14.567 0l18.863 18.883c3.245 3.245 5.713 14.751 1.129 14.751z" fill="#26a6fe"/></g><g><path d="m170.333 245.267-19.133-19.154c-3.245-3.245-.948-8.787 3.637-8.787h16.122c9.993-37.612 44.277-65.324 85.041-65.324 22.322 0 42.706 8.309 58.213 22.005 2.235 1.974 2.36 5.419.251 7.528l-15.381 15.381c-1.899 1.899-4.925 2.006-6.978.274-9.751-8.226-22.349-13.191-36.105-13.191-22.86 0-42.526 13.701-51.221 33.347h7.529l-22.806 27.102c-4.913 5.84-13.775 6.219-19.169.819z" fill="#26a6fe"/></g><g><path d="m360.806 253.882-10.307-10.307c3.245 3.245.948 8.798-3.637 8.798h-12.259c-2.256 0-4.238 1.472-4.911 3.625-11.174 35.754-44.551 61.698-83.994 61.698-18.426 0-35.531-5.662-49.663-15.342.066 1.346.654 2.669 1.751 3.638 15.508 13.696 35.891 22.005 58.213 22.005 40.764 0 75.049-27.712 85.041-65.324h16.122c4.59.001 6.888-5.546 3.644-8.791z" fill="#0593fc"/></g><g><path d="m220.479 217.346h-8.171l-27.68 27.66c-3.939 3.939-10.261 4.016-14.296.26l10.031 10.042c4.018 4.018 10.539 4.028 14.567 0l29.185-29.164c3.246-3.245.949-8.798-3.636-8.798z" fill="#0593fc"/></g><g><path d="m443.396 375.998h-75.396l-16 16 16 11.397 86.776 10.301z" fill="#b3dafe"/></g><g><path d="m448.547 375.998h-5.151v11.944c0 8.534-6.919 15.453-15.453 15.453h-70.245l10.302 20.603h80.547c8.534 0 15.453-6.918 15.453-15.453v-17.095c0-8.533-6.919-15.452-15.453-15.452z" fill="#8ac9fe"/></g><path d="m343.726 375.998s-3.459 16.257-7.726 16.257-7.726-16.257-7.726-16.257h-16.547s-3.459 16.257-7.726 16.257-7.726-16.257-7.726-16.257h-16.547s-3.459 16.257-7.726 16.257-7.726-16.257-7.726-16.257h-16.547s-3.459 16.257-7.726 16.257-7.726-16.257-7.726-16.257h-16.547s-3.459 16.257-7.726 16.257-7.726-16.257-7.726-16.257h-16.547s-3.459 16.257-7.726 16.257-7.726-16.257-7.726-16.257h-16.547s-3.459 16.257-7.726 16.257-7.726-16.257-7.726-16.257h-16.547s-3.459 16.257-7.726 16.257-7.726-16.257-7.726-16.257h-16.555s-3.459 16.257-7.726 16.257-7.726-16.257-7.726-16.257h-8.821c-8.534 0-15.453 6.918-15.453 15.453v11.944l242.1 15.588 77.9-14.02v-28.965z" fill="#6ed5a1"/><g><g><path d="m48 403.395v5.151c0 8.534 6.918 15.453 15.453 15.453h304.547v-20.604z" fill="#46cc8d"/></g></g><g><g fill="#46cc8d"><path d="m272 423.161c4.268 0 7.726-3.459 7.726-7.726v-39.436h-15.453v39.436c.001 4.266 3.459 7.726 7.727 7.726z"/><path d="m240 423.161c4.268 0 7.726-3.459 7.726-7.726v-39.436h-15.453v39.436c.001 4.266 3.459 7.726 7.727 7.726z"/><path d="m80 423.161c4.268 0 7.726-3.459 7.726-7.726v-39.436h-15.452v39.436c0 4.266 3.458 7.726 7.726 7.726z"/><path d="m304 423.161c4.268 0 7.726-3.459 7.726-7.726v-39.436h-15.453v39.436c.001 4.266 3.459 7.726 7.727 7.726z"/><path d="m208 423.161c4.268 0 7.726-3.459 7.726-7.726v-39.436h-15.453v39.436c.001 4.266 3.459 7.726 7.727 7.726z"/><path d="m328.274 375.998v39.436c0 4.267 3.459 7.726 7.726 7.726s7.726-3.459 7.726-7.726v-39.436z"/><path d="m112 423.161c4.268 0 7.726-3.459 7.726-7.726v-39.436h-15.453v39.436c.001 4.266 3.459 7.726 7.727 7.726z"/><path d="m144 423.161c4.268 0 7.726-3.459 7.726-7.726v-39.436h-15.453v39.436c.001 4.266 3.459 7.726 7.727 7.726z"/><path d="m176 423.161c4.268 0 7.726-3.459 7.726-7.726v-39.436h-15.453v39.436c.001 4.266 3.459 7.726 7.727 7.726z"/></g></g></g><g><g><circle cx="480" cy="64" fill="#eaf6ff" r="7.726"/></g></g><g><g><circle cx="448" cy="64" fill="#eaf6ff" r="7.726"/></g></g><g><g><circle cx="416" cy="64" fill="#eaf6ff" r="7.726"/></g></g></g><g/><g/><g/><g/><g/><g/><g/><g/><g/><g/><g/><g/><g/><g/><g/></svg>