<svg width="1093" height="1080" viewBox="0 0 1093 1080" fill="none" xmlns="http://www.w3.org/2000/svg">
<g clip-path="url(#clip0_2331_199)">
<g opacity="0.15">
<path d="M144.265 712.559C144.419 708.349 144.749 704.067 145.254 699.713C152.574 636.677 193.862 562.11 258.53 495.132C311.831 439.922 379.247 390.124 464.63 342.887C487.683 330.136 511.653 317.715 534.835 305.706C617.042 263.111 702.046 219.067 766.522 150.108C784.037 131.375 799.852 110.891 815.148 91.0801C838.556 60.7644 862.759 29.4194 893.483 3.84037C928.824 -25.5856 971.896 -45.3404 1014.75 -51.78C1056.18 -58.0033 1093.26 -51.4739 1119.16 -33.386C1167.49 0.356027 1183.39 71.0116 1161.69 155.617C1159.18 165.39 1156.18 175.511 1153.29 185.3C1143.66 217.775 1133.71 251.354 1139.96 278.226C1145.56 302.33 1163.63 318.245 1181.1 333.641C1189.42 340.968 1198.02 348.543 1205.25 356.944C1228.4 383.844 1238.82 422.046 1235.36 467.526C1231.92 511.813 1216.07 559.125 1189.29 605.048C1138.51 692.172 1050.38 775.163 947.508 832.741C916.956 849.842 885.41 864.631 854.902 878.932C824.79 893.047 793.653 907.644 763.569 924.425C713.03 952.616 645.357 999.419 609.952 1062.3C605.719 1069.81 601.917 1077.64 598.241 1085.2C590.075 1102.01 581.628 1119.39 567.807 1134.85C546.284 1158.93 512.239 1176.15 481.077 1178.71C456.426 1180.74 432.871 1174.69 409.071 1160.21C378.219 1141.2 354.839 1114.22 340.399 1080.98C325.861 1047.67 320.54 1008.83 324.767 966.856C325.716 957.771 327.128 948.406 328.499 939.348C330.966 923.001 333.516 906.094 333.387 890.415C333.153 862.395 323.31 842.571 305.669 834.591C293.27 828.987 276.952 828.92 261.172 828.859C253.818 828.83 246.213 828.801 239.036 828.223C179.536 823.405 141.914 776.586 144.265 712.559ZM1167.57 94.9348C1169.62 39.1623 1151.9 -5.74662 1116.48 -30.4764C1062.31 -68.3041 965.086 -52.3158 895.131 5.92503C864.912 31.0809 840.905 62.1728 817.689 92.2411C802.311 112.156 786.412 132.746 768.71 151.68C703.536 221.384 618.084 265.662 535.445 308.48C512.294 320.474 488.356 332.879 465.367 345.596C380.5 392.546 313.538 441.995 260.651 496.775C196.734 562.977 155.933 636.606 148.711 698.784C148.216 703.06 147.893 707.278 147.741 711.415C145.431 774.267 182.293 820.217 240.602 824.936C247.667 825.511 255.212 825.536 262.51 825.562C278.574 825.624 295.186 825.688 308.038 831.5C326.388 839.8 336.624 860.267 336.865 889.13C336.999 905.04 334.43 922.057 331.945 938.517C330.584 947.539 329.174 956.87 328.233 965.887C319.59 1048.66 350.768 1120.21 411.654 1157.23C435.031 1171.45 458.085 1177.4 482.129 1175.43C512.161 1172.96 544.896 1156.45 565.523 1133.37C578.841 1118.47 587.127 1101.42 595.14 1084.93C598.848 1077.29 602.681 1069.41 606.985 1061.76C643.028 997.756 711.612 950.283 762.802 921.729C793.053 904.853 824.276 890.214 854.474 876.058C884.895 861.797 916.352 847.051 946.734 830.046C1048.72 772.961 1136.07 690.733 1186.36 604.45C1241.11 510.537 1247.48 412.123 1202.23 359.549C1195.08 351.238 1186.52 343.703 1178.25 336.418C1160.57 320.836 1142.28 304.723 1136.53 280.018C1130.14 252.483 1140.2 218.509 1149.94 185.656C1152.83 175.904 1155.82 165.815 1158.31 156.107C1163.7 135.22 1166.8 114.717 1167.57 94.9348Z" fill="#6666F2"/>
<path d="M166.586 699.238C166.753 694.696 167.121 690.101 167.691 685.453C175.303 623.607 215.627 550.912 278.323 486.006C330.397 432.101 396.221 383.675 479.556 337.962C501.598 325.84 524.456 314.004 546.559 302.561C626.61 261.108 709.389 218.247 773.099 151.935C790.115 134.224 805.573 115.173 820.524 96.7568C843.65 68.2615 867.564 38.7943 897.1 14.7384C966.694 -41.9386 1062.48 -57.0449 1115.17 -19.6526C1161.81 13.4427 1177.34 82.3132 1156.73 164.58C1154.38 174.109 1151.54 183.977 1148.79 193.515C1139.72 225.041 1130.34 257.636 1136.95 283.569C1142.88 306.833 1160.33 322.794 1177.2 338.231C1185.65 345.964 1194.39 353.961 1201.62 362.804C1223.68 389.777 1233.36 427.581 1229.6 472.108C1225.86 515.633 1209.99 562.034 1183.47 606.997C1133.12 692.342 1046.25 773.644 945.115 830.056C915.478 846.517 884.891 860.862 855.305 874.735C824.106 889.367 791.848 904.494 760.8 922.073C711.977 949.719 646.057 995.797 609.277 1058.34C605.544 1064.69 602.025 1071.15 598.627 1077.4C588.575 1095.86 579.08 1113.31 564.047 1128.77C542.226 1151.21 509.939 1165.85 479.774 1166.99C456.235 1167.88 434.338 1161.36 410.867 1146.48C354.61 1110.82 324.617 1047.24 327.428 970.711C327.589 966.335 327.857 961.921 328.233 957.47C329.196 946.054 330.911 934.156 332.57 922.653C334.71 907.814 336.922 892.473 337.511 878.141C338.359 857.366 335.306 830.41 315.818 819.968C304.665 813.993 289.551 813.663 274.943 813.338C268.357 813.194 261.544 813.045 255.114 812.389C224.88 809.309 200.568 795.112 184.802 771.339C171.804 751.411 165.567 726.72 166.586 699.238ZM1162.12 106.435C1164.13 51.7219 1146.92 7.56114 1112.55 -16.8283C1060.83 -53.5308 966.875 -38.7543 898.651 16.8095C869.579 40.4867 846.908 68.421 822.906 97.9967C807.885 116.505 792.352 135.644 775.178 153.524C710.803 220.522 627.607 263.604 547.152 305.259C525.077 316.689 502.251 328.509 480.265 340.599C397.427 386.04 332.053 434.123 280.387 487.604C218.412 551.762 178.561 623.553 171.054 684.568C162.762 751.973 197.979 803.219 256.699 809.204C263.018 809.848 269.771 809.996 276.3 810.14C291.21 810.467 306.626 810.806 318.243 817.029C338.569 827.914 341.806 855.646 340.896 877.027C340.296 891.504 338.073 906.924 335.923 921.831C334.269 933.293 332.562 945.146 331.604 956.475C324.715 1038.12 354.532 1106.29 413.406 1143.61C436.49 1158.25 457.955 1164.66 480.949 1163.79C510.035 1162.69 541.094 1148.66 561.995 1127.16C576.505 1112.24 585.836 1095.09 595.716 1076.94C599.133 1070.66 602.666 1064.17 606.443 1057.75C643.837 994.159 710.604 947.454 760.029 919.472C791.254 901.795 823.607 886.62 854.894 871.948C884.394 858.113 914.901 843.807 944.375 827.437C1044.65 771.502 1130.77 690.936 1180.64 606.403C1235.42 513.54 1242.49 418.906 1198.65 365.31L1200.13 364.059L1198.65 365.31C1191.5 356.564 1182.81 348.61 1174.4 340.918C1157.34 325.306 1139.7 309.167 1133.63 285.367C1126.85 258.786 1136.35 225.798 1145.53 193.899C1148.27 184.389 1151.09 174.557 1153.43 165.086C1158.48 145.065 1161.39 125.413 1162.12 106.435Z" fill="#6666F2"/>
<path d="M188.747 686.967C188.935 681.847 189.376 676.61 190.07 671.255C197.968 610.596 237.328 539.771 298.057 476.938C348.906 424.337 413.143 377.283 494.431 333.09C515.408 321.626 537.098 310.402 558.073 299.547C636.036 259.204 716.652 217.488 779.623 153.821C796.045 137.215 811.047 119.701 825.552 102.766C849.539 74.759 872.192 48.3143 900.664 25.6924C934.246 -0.991225 974.507 -18.743 1014.03 -24.2895C1052.66 -29.7123 1087.15 -23.1694 1111.12 -5.86358C1155.81 26.3946 1170.98 93.4866 1151.71 173.596C1149.53 182.631 1146.92 191.966 1144.4 200.993C1135.78 231.848 1126.86 263.757 1133.89 288.98C1140.13 311.371 1156.92 327.323 1173.16 342.747C1181.78 350.932 1190.69 359.396 1197.93 368.729C1240.2 423.216 1232.22 517.534 1177.59 609.014C1127.48 692.932 1041.85 772.544 942.658 827.444C913.714 843.463 883.822 857.466 854.914 871.007C822.868 886.02 789.729 901.543 757.968 919.796C691.361 958.073 638.29 1005.9 608.539 1054.45C605.91 1058.74 603.369 1063 600.862 1067.19C588.69 1087.56 577.194 1106.8 560.215 1122.76C538.485 1143.18 507.138 1155.66 478.408 1155.33C456.055 1155.08 435.76 1148.13 412.6 1132.82C383.786 1113.79 361.533 1087.93 346.992 1056.57C332.021 1023.79 326.856 987.289 331.632 948.077C332.707 939.271 333.904 930.187 335.062 921.4C337.49 902.95 340.01 883.869 341.573 865.938C344.33 834.256 339.068 813.887 325.902 805.41C316.024 799.048 302.758 798.475 288.709 797.865C282.869 797.613 276.828 797.349 271.124 796.627C218.357 789.936 186.556 746.666 188.747 686.967ZM1156.47 118.357C1158.45 64.4251 1141.79 20.8531 1108.56 -3.1304C1059.32 -38.6728 968.642 -25.1136 902.12 27.7432C874.071 50.0268 851.585 76.2803 827.78 104.078C813.209 121.088 798.144 138.676 781.583 155.419C717.99 219.716 636.986 261.633 558.648 302.172C537.698 313.012 516.036 324.222 495.105 335.66C414.305 379.586 350.502 426.308 300.059 478.492C240.023 540.608 201.126 610.561 193.333 670.416C184.664 736.968 216.583 786.42 272.734 793.535C278.329 794.244 284.313 794.503 290.093 794.757C303.838 795.353 318.05 795.968 328.384 802.626C342.149 811.492 347.692 832.455 344.851 864.977C343.28 882.971 340.765 902.078 338.324 920.561C337.166 929.344 335.969 938.423 334.899 947.211C325.595 1023.56 354.823 1090.21 415.092 1130.05C437.907 1145.13 457.832 1151.97 479.692 1152.22C507.421 1152.54 537.581 1140.58 558.4 1121.01C574.826 1105.58 586.143 1086.64 598.125 1066.59C600.644 1062.38 603.193 1058.11 605.832 1053.8C636.042 1004.5 689.797 956.012 757.19 917.282C789.14 898.924 822.375 883.353 854.516 868.296C883.345 854.791 913.156 840.823 941.949 824.89C1040.32 770.445 1125.21 691.541 1174.85 608.411C1228.83 518.031 1236.74 424.895 1195.02 371.127C1187.85 361.893 1178.99 353.473 1170.42 345.332C1154.01 329.748 1137.05 313.63 1130.67 290.764C1123.47 264.906 1132.5 232.615 1141.23 201.385C1143.74 192.39 1146.34 183.085 1148.5 174.111C1153.1 155.088 1155.77 136.415 1156.47 118.354L1156.47 118.357Z" fill="#6666F2"/>
<path d="M210.991 673.947C211.194 668.448 211.689 662.817 212.479 657.054C220.668 597.583 259.063 528.625 317.827 467.86C367.103 416.919 429.75 371.236 509.347 328.2C528.715 317.729 548.668 307.421 567.965 297.459C644.448 257.957 723.535 217.111 786.21 155.675C801.868 140.326 816.249 124.493 830.157 109.182C854.09 82.8311 876.697 57.9422 904.295 36.614C937.016 11.3266 975.873 -5.41363 1013.71 -10.5223C1050.96 -15.5521 1084.14 -9.01222 1107.15 7.89651C1150.02 39.4059 1164.83 104.713 1146.76 182.596C1144.75 191.252 1142.34 200.183 1140.01 208.818C1131.89 238.88 1123.49 269.965 1130.9 294.371C1137.42 315.86 1153.54 331.739 1169.12 347.097C1177.94 355.779 1187.05 364.757 1194.31 374.642L1192.89 375.787L1194.31 374.642C1234.44 429.253 1225.6 522.046 1171.78 611.031C1122.01 693.325 1037.63 771.254 940.266 824.836C912.07 840.356 882.954 853.981 854.797 867.161C821.826 882.593 787.733 898.549 755.19 917.532C690.976 954.984 638.648 1002.24 607.847 1050.59L606.947 1052C590.736 1077.46 576.735 1099.44 556.419 1116.77C534.499 1135.47 504.84 1145.53 477.081 1143.7C450.44 1141.94 429.573 1129.68 414.368 1119.19C359.883 1081.61 331.046 1023.71 333.45 958.225C333.687 951.795 334.225 945.299 335.066 938.738C336.791 925.325 338.496 911.431 340.145 897.995C341.949 883.326 343.806 868.159 345.677 853.745C350.06 820.019 346.902 799.431 336.029 790.833C327.483 784.077 315.399 783.239 302.594 782.357C297.475 782.004 292.182 781.636 287.178 780.856C238.175 773.198 208.893 731.113 210.991 673.947ZM1150.97 130.135C1152.92 77.0841 1136.79 34.1512 1104.65 10.533C1057.13 -24.3912 971.577 -12.3068 905.649 38.6452C878.433 59.6821 855.983 84.3988 832.215 110.57C818.256 125.939 803.821 141.83 788.049 157.291C724.793 219.298 645.348 260.329 568.52 300.009C549.243 309.963 529.312 320.258 509.987 330.705C430.873 373.478 368.649 418.839 319.77 469.375C261.676 529.449 223.724 597.567 215.641 656.266C206.765 720.76 236.163 769.647 288.805 777.878C293.703 778.644 298.94 779.006 304.006 779.356C316.573 780.223 329.568 781.122 338.568 788.236C349.969 797.251 353.331 818.409 348.848 852.941C346.977 867.344 345.116 882.506 343.317 897.169C341.667 910.609 339.961 924.506 338.238 937.922C328.898 1010.56 357.544 1075.64 416.821 1116.52C431.823 1126.87 452.389 1138.97 478.485 1140.69C505.303 1142.47 533.855 1132.83 554.862 1114.91C574.567 1098.1 588.378 1076.41 604.367 1051.31L605.268 1049.89C636.506 1000.85 689.471 952.993 754.412 915.115C787.148 896.02 821.347 880.014 854.413 864.541C882.5 851.396 911.543 837.801 939.6 822.362C1036.17 769.215 1119.84 691.971 1169.15 610.428C1222.33 522.501 1231.09 430.851 1191.48 376.938C1184.29 367.159 1175.22 358.227 1166.46 349.591C1150.72 334.09 1134.46 318.058 1127.8 296.152C1120.21 271.13 1128.71 239.662 1136.93 209.23C1139.26 200.622 1141.66 191.719 1143.66 183.12C1147.87 165.05 1150.31 147.313 1150.97 130.135Z" fill="#6666F2"/>
<path d="M233.193 661.445C233.419 655.359 233.99 649.161 234.905 642.876C243.38 584.592 280.818 517.503 337.616 458.804C385.564 409.271 446.625 364.956 524.287 323.33C542.202 313.729 560.602 304.239 578.395 295.061C653.221 256.466 730.594 216.559 792.819 157.552C807.383 143.74 820.843 129.84 833.858 116.398C858.045 91.4175 880.891 67.8231 907.952 47.5563C973.458 -1.50215 1057.4 -12.6283 1103.2 21.6755C1144.26 52.4292 1158.71 115.954 1141.84 191.618C1140 199.887 1137.79 208.409 1135.64 216.648C1128.03 245.923 1120.16 276.198 1127.94 299.799C1134.71 320.354 1150.13 336.095 1165.05 351.319C1174.09 360.553 1183.44 370.092 1190.73 380.587C1228.72 435.304 1219.02 526.564 1166.01 613.089C1116.59 693.754 1033.45 770.002 937.898 822.279C910.416 837.317 882.035 850.585 854.588 863.415C820.727 879.243 785.713 895.612 752.43 915.319C690.599 951.925 639.013 998.609 607.172 1046.78C589.307 1073.8 573.198 1095.04 552.631 1110.83C530.908 1127.51 502.177 1135.47 475.767 1132.11C451.374 1129.02 431.94 1116.98 416.149 1105.6C362.835 1067.23 334.601 1010.69 336.891 948.378C337.122 942.119 337.661 935.808 338.51 929.447C339.954 918.655 341.236 907.5 342.477 896.715C344.576 878.463 346.748 859.584 349.793 841.602C353.952 817.041 357.297 787.425 346.164 776.286C339.001 769.123 328.102 768.024 316.564 766.861C312.142 766.415 307.569 765.956 303.244 765.123C278.251 760.308 258.592 746.062 246.392 723.919C236.716 706.045 232.221 684.771 233.193 661.445ZM1145.51 142.002C1147.43 89.803 1131.82 47.4847 1100.77 24.2265C1055.81 -9.44393 973.458 1.45449 909.203 49.5778C882.48 69.5913 859.777 93.0372 835.74 117.862C822.685 131.344 809.189 145.284 794.54 159.173C731.775 218.692 654.075 258.77 578.931 297.529C561.154 306.699 542.773 316.18 524.892 325.764C447.706 367.135 387.063 411.131 339.494 460.268C283.339 518.301 246.334 584.587 237.966 642.128C228.747 705.491 255.024 752.635 304.893 762.24C309.115 763.053 313.635 763.509 318.004 763.949C329.388 765.097 341.157 766.282 348.759 773.881C360.394 785.515 357.352 814.294 352.844 840.917C349.811 858.827 347.644 877.668 345.55 895.883C344.306 906.683 343.024 917.848 341.576 928.665C332.347 997.617 360.405 1061.17 418.552 1103.03C434.159 1114.27 453.341 1126.17 477.275 1129.21C502.82 1132.45 530.506 1124.84 551.33 1108.85C571.316 1093.5 587.124 1072.63 604.712 1046.03C636.967 997.232 689.148 949.985 751.644 912.987C785.13 893.16 820.253 876.742 854.217 860.864C881.598 848.065 909.908 834.83 937.257 819.866C1032.04 768.005 1114.49 692.415 1163.46 612.475C1215.85 526.962 1225.46 436.8 1187.95 382.773C1180.74 372.388 1171.43 362.894 1162.44 353.709C1147.39 338.355 1131.83 322.479 1124.94 301.556C1116.97 277.36 1124.94 246.71 1132.64 217.074C1134.78 208.858 1136.99 200.367 1138.82 192.151C1142.65 175.059 1144.88 158.278 1145.51 142.002Z" fill="#6666F2"/>
<path d="M255.383 648.804C255.626 642.225 256.273 635.517 257.319 628.71C266.085 571.61 302.56 506.379 357.397 449.747C404.024 401.612 463.501 358.667 539.228 318.454C555.505 309.808 572.18 301.222 588.3 292.92C661.672 255.136 737.543 216.063 799.439 159.414C812.184 147.752 824.067 136.302 835.558 125.23C860.679 101.02 884.415 78.1505 911.63 58.4869C942.669 36.0609 978.715 21.3642 1013.13 17.1068C1047.62 12.8405 1078.21 19.3524 1099.27 35.4449C1139.1 65.8873 1152.84 126.1 1136.95 200.638C1135.27 208.512 1133.25 216.618 1131.3 224.453C1124.2 252.949 1116.86 282.419 1125 305.224C1131.99 324.81 1146.69 340.338 1160.91 355.357C1170.22 365.189 1179.85 375.36 1187.17 386.537C1223.03 441.322 1212.47 531.066 1160.25 615.163C1111.19 694.184 1029.29 768.754 935.543 819.75C908.744 834.326 881.068 847.246 854.303 859.738C819.574 875.949 783.66 892.714 749.669 913.138C690.219 948.862 639.372 994.981 606.491 1043C586.746 1071.83 568.42 1091.51 548.827 1104.93C527.043 1119.84 499.928 1125.54 474.44 1120.56C452.341 1116.25 434.21 1104.32 417.911 1092.06C386.642 1068.54 337.331 1018.63 340.24 939.406C340.469 933.18 341.032 926.775 341.928 920.192C343.401 909.496 344.589 898.456 345.737 887.773C347.809 868.501 349.949 848.577 353.884 829.486C359.695 801.289 364.668 772.833 356.279 761.741C350.553 754.169 340.857 752.801 330.589 751.352C326.836 750.823 322.955 750.273 319.282 749.402C277.347 739.43 253.469 700.875 255.383 648.804ZM1140.26 152.729C1142.14 101.619 1127.17 61.0298 1096.9 37.908C1054.55 5.53928 975.388 15.2529 912.767 60.4961C885.851 79.9456 862.247 102.69 837.253 126.774C825.738 137.869 813.83 149.344 801.036 161.052C738.638 218.159 662.473 257.383 588.816 295.316C572.706 303.614 556.047 312.193 539.793 320.825C464.533 360.788 405.466 403.424 359.217 451.169C304.998 507.167 268.936 571.622 260.282 628.008C250.907 689.083 274.734 735.635 320.978 746.629C324.554 747.478 328.382 748.019 332.084 748.541C342.275 749.976 352.808 751.469 358.939 759.57C367.771 771.255 362.739 800.237 356.826 828.924C352.917 847.879 350.784 867.742 348.718 886.951C347.569 897.647 346.379 908.709 344.901 919.442C332.588 1008.88 386.832 1064.44 420.269 1089.59C436.404 1101.72 454.331 1113.53 476.052 1117.77C500.747 1122.59 526.894 1117.15 547.795 1102.84C566.855 1089.79 584.763 1070.52 604.154 1042.21C637.427 993.617 688.828 946.982 748.883 910.894C783.089 890.339 819.114 873.525 853.952 857.262C880.654 844.798 908.265 831.91 934.938 817.399C1027.94 766.811 1109.18 692.869 1157.81 614.543C1209.42 531.411 1219.88 442.73 1184.46 388.616L1185.81 387.575L1184.46 388.616C1177.22 377.552 1167.63 367.434 1158.37 357.649C1144.04 342.514 1129.22 326.865 1122.11 306.963C1113.76 283.577 1121.2 253.746 1128.39 224.893C1130.33 217.085 1132.35 209.002 1134.02 201.179C1137.56 184.678 1139.65 168.472 1140.26 152.729Z" fill="#6666F2"/>
<path d="M277.463 636.734C277.732 629.497 278.478 622.107 279.697 614.603C288.75 558.688 324.268 495.32 377.146 440.747C422.453 394.009 480.349 352.43 554.14 313.63C568.52 306.069 583.203 298.522 597.402 291.227C669.61 254.121 744.276 215.746 806.04 161.328C814.939 153.486 823.423 145.882 831.623 138.531C860.862 112.325 886.114 89.6906 915.293 69.4591C978.486 25.6436 1054.2 17.149 1095.33 49.2582C1133.33 78.9221 1146.71 137.405 1132.05 209.706C1130.53 217.174 1128.71 224.851 1126.95 232.273C1120.36 260.005 1113.56 288.675 1122.05 310.7C1129.22 329.271 1143.18 344.505 1156.68 359.236C1166.3 369.735 1176.26 380.593 1183.61 392.538L1182.28 393.528L1183.61 392.538C1217.36 447.359 1205.93 535.58 1154.5 617.296C1105.8 694.666 1025.12 767.56 933.177 817.281C907.032 831.421 880.031 844.001 853.92 856.167C818.343 872.743 781.555 889.885 746.882 911.033C689.829 945.832 639.719 991.384 605.782 1039.3C586.527 1066.48 566.641 1086.04 544.987 1099.1C515.604 1116.82 487.324 1112.96 473.083 1109.09C452.425 1103.47 435.354 1090.94 419.641 1078.59C362.802 1033.9 336.401 974.391 345.31 911.006C346.822 900.245 347.935 889.155 349.011 878.423C351.034 858.294 353.124 837.482 357.941 817.443L358.811 813.826C365.705 785.23 372.21 758.219 366.374 747.237C362.134 739.262 353.641 737.61 344.647 735.864C341.545 735.258 338.336 734.637 335.289 733.735C296.778 722.349 275.65 686.053 277.463 636.734ZM1134.81 164.809C1136.66 114.454 1122.21 74.4068 1093.03 51.6316C1052.67 20.1136 978.346 28.4527 916.315 71.4579C887.388 91.5144 862.243 114.052 833.129 140.148C824.92 147.508 816.43 155.117 807.514 162.973C745.293 217.794 670.358 256.303 597.894 293.544C583.704 300.834 569.029 308.377 554.669 315.928C481.336 354.487 423.841 395.765 378.9 442.123C326.62 496.084 291.508 558.709 282.563 613.942C272.933 673.416 293.805 718.302 337.029 731.08C339.984 731.953 343.145 732.567 346.2 733.162C355.189 734.913 364.486 736.716 369.07 745.339C375.233 756.942 368.625 784.353 361.633 813.375L360.763 816.988C355.988 836.844 353.908 857.566 351.895 877.607C350.818 888.36 349.7 899.481 348.18 910.291C339.375 972.987 365.573 1031.9 421.942 1076.22C437.526 1088.47 454.441 1100.89 474.781 1106.43C488.601 1110.19 516.002 1113.95 544.217 1096.94C565.283 1084.24 584.692 1065.12 603.557 1038.49C637.863 990.052 688.483 944.027 746.093 908.889C780.986 887.605 817.892 870.41 853.578 853.781C879.628 841.645 906.568 829.093 932.597 815.018C1023.84 765.679 1103.86 693.391 1152.14 616.686C1203 535.895 1214.31 448.693 1180.96 394.528C1173.68 382.704 1163.78 371.897 1154.2 361.447C1140.6 346.613 1126.54 331.274 1119.28 312.43C1110.57 289.85 1117.46 260.811 1124.12 232.742C1125.88 225.337 1127.7 217.687 1129.2 210.263C1132.36 194.794 1134.24 179.596 1134.81 164.809Z" fill="#6666F2"/>
<path d="M299.667 623.758C299.951 616.153 300.771 608.378 302.122 600.476C311.461 545.746 346.02 484.237 396.942 431.723C440.94 386.374 497.254 346.159 569.107 308.777C581.2 302.486 593.52 296.17 605.436 290.066C676.892 253.45 750.783 215.589 812.699 163.215C851.103 130.731 883.317 104.004 919.019 80.4131C948.456 60.9578 981.681 48.3466 1012.58 44.9051C1044.81 41.3121 1072.09 47.5885 1091.46 63.0562C1127.61 91.9315 1140.64 148.682 1127.21 218.761C1125.85 225.814 1124.23 233.054 1122.65 240.049C1116.31 268.264 1110.32 294.916 1119.17 316.168C1126.46 333.688 1139.65 348.527 1152.41 362.884C1162.4 374.12 1172.72 385.737 1180.11 398.538C1211.76 453.362 1199.47 540.066 1148.8 619.437C1100.46 695.15 1021.02 766.368 930.858 814.831C905.34 828.547 878.984 840.8 853.5 852.65C817.1 869.573 779.46 887.074 744.14 908.943C689.496 942.774 640.122 987.76 605.112 1035.61C586.056 1061.66 564.547 1081.06 541.184 1093.28C513.746 1107.62 488.289 1103.56 471.764 1097.62C453.927 1091.22 439.026 1079.62 421.401 1065.12C385.27 1035.41 344.678 986.72 347.163 919.182C347.371 913.527 347.89 907.741 348.719 901.822C350.261 890.966 351.307 879.789 352.321 868.977C354.285 848.022 356.316 826.355 362.029 805.393C363.528 799.899 365.06 794.48 366.552 789.204C373.626 764.198 379.737 742.605 376.521 732.69C373.805 724.319 366.515 722.363 358.797 720.29C356.328 719.629 353.774 718.942 351.335 718.037C316.752 705.185 297.964 670.019 299.667 623.758ZM1129.42 176.979C1131.25 127.325 1117.32 87.7755 1089.22 65.3392C1050.96 34.7897 981.346 41.8074 919.919 82.4043C884.366 105.901 853.614 131.403 814.057 164.866C751.727 217.591 677.6 255.575 605.914 292.308C594.003 298.412 581.694 304.719 569.608 311.007C498.2 348.155 442.277 388.076 398.646 433.05C348.289 484.988 314.117 545.78 304.889 599.86C295.224 656.527 313.703 700.857 353.132 715.524C355.491 716.402 358.003 717.074 360.43 717.725C368.215 719.814 376.263 721.972 379.231 731.115C382.63 741.6 376.433 763.512 369.252 788.887C367.764 794.152 366.229 799.568 364.738 805.045C359.084 825.781 357.066 847.335 355.109 868.18C354.093 879.02 353.042 890.227 351.496 901.14C340.74 976.913 384.799 1030.9 423.65 1062.86C441.744 1077.74 455.913 1088.76 473.54 1095.09C489.608 1100.86 514.297 1104.85 540.674 1091.05C563.4 1079.17 584.369 1060.23 602.999 1034.77C638.355 986.443 688.198 941.023 743.347 906.879C778.895 884.869 816.655 867.313 853.17 850.335C878.602 838.51 904.899 826.285 930.307 812.626C1019.79 764.532 1098.6 693.89 1146.53 618.815C1196.64 540.327 1208.81 454.604 1177.52 400.413C1170.21 387.739 1159.93 376.178 1150 364.996C1137.16 350.551 1123.89 335.614 1116.5 317.868C1107.44 296.079 1113.78 267.835 1119.92 240.523C1121.49 233.545 1123.11 226.332 1124.45 219.32C1127.23 204.924 1128.89 190.772 1129.42 176.979Z" fill="#6666F2"/>
<path d="M321.244 616.116C321.617 606.418 322.723 596.488 324.552 586.392C334.177 532.848 367.78 473.199 416.741 422.742C459.438 378.773 514.171 339.926 584.07 303.977C593.247 299.258 602.426 294.563 611.608 289.89C682.986 253.47 756.792 215.81 819.352 165.154C854.46 136.732 884.411 115.372 922.738 91.4275C983.687 53.3495 1051.47 47.3856 1087.56 76.9179C1121.88 104.994 1134.55 160.019 1122.34 227.878C1121.15 234.504 1119.72 241.289 1118.33 247.852C1112.55 275.287 1107.08 301.201 1116.26 321.694C1123.62 338.099 1136.01 352.448 1147.99 366.327C1158.4 378.374 1169.15 390.833 1176.58 404.596C1191.21 431.688 1195.8 466.328 1189.86 504.746C1183.95 543.075 1167.87 583.234 1143.08 621.631C1095.11 695.668 1016.91 765.212 928.522 812.43C903.609 825.741 877.876 837.677 852.992 849.218C815.788 866.475 777.317 884.318 741.371 906.911C689.176 939.715 640.54 984.133 604.422 1031.99C585.313 1057.3 562.124 1076.5 537.357 1087.5C510.438 1099.47 486.101 1093.4 470.423 1086.21C454.746 1079.02 441.746 1067.78 426.682 1054.77L423.14 1051.72C367.791 1004.06 343.887 950.569 352.109 892.71C353.663 881.76 354.648 870.496 355.6 859.606C357.503 837.826 359.473 815.305 366.096 793.416C375.768 761.463 383.656 732.502 386.684 717.835C388.308 709.941 382.818 708.314 376.46 706.418C373.176 705.439 369.781 704.427 367.342 702.432C336.354 695.611 319.523 662.89 321.244 616.116ZM1124.03 189.32C1125.83 140.313 1112.41 101.219 1085.39 79.1087C1049.96 50.1206 983.396 56.0017 923.517 93.4101C887.953 115.398 853.481 139.981 820.583 166.815C757.653 217.768 683.636 255.533 612.058 292.056C602.887 296.736 593.713 301.43 584.535 306.138C515.073 341.862 460.725 380.423 418.38 424.027C369.957 473.93 336.729 532.903 327.215 585.82C316.165 647.292 332.582 692.094 369.041 699.955L369.248 699.999L369.391 700.124C371.599 702.002 374.901 702.984 378.094 703.934C384.582 705.869 391.298 707.867 389.342 717.32C386.258 732.284 378.533 760.631 368.693 793.145C362.148 814.768 360.192 837.156 358.299 858.811C357.346 869.731 356.358 881.026 354.795 892.04C346.668 949.237 370.407 1002.23 425.345 1049.54L428.888 1052.6C443.867 1065.54 456.803 1076.71 472.278 1083.81C487.55 1090.81 511.195 1096.75 537.11 1085.24C561.193 1074.53 583.779 1055.82 602.428 1031.11C638.867 982.834 687.935 938.022 740.59 904.931C776.768 882.192 815.357 864.293 852.684 846.981C877.516 835.464 903.195 823.55 928.006 810.299C1015.74 763.426 1093.34 694.432 1140.91 621.006C1190.29 544.782 1203.31 460.534 1174.08 406.369C1166.72 392.742 1156.01 380.341 1145.66 368.348C1133.61 354.393 1121.15 339.969 1113.71 323.372C1104.29 302.367 1110.09 274.897 1115.7 248.341C1117.08 241.797 1118.5 235.032 1119.69 228.444C1122.09 215.155 1123.54 202.085 1124.03 189.32Z" fill="#6666F2"/>
<path d="M343.135 605.175C343.553 594.471 344.834 583.494 346.968 572.33C356.88 519.972 389.524 462.182 436.532 413.778C477.932 371.185 531.086 333.704 599.033 299.189C604.204 296.562 609.372 293.94 614.537 291.325C686.992 254.599 761.915 216.623 826.009 167.11C859.656 141.12 887.004 125.305 913.454 110.012C917.779 107.511 922.107 105.007 926.471 102.457C976.684 73.1105 1044.77 58.1231 1083.68 90.7976C1116.16 118.06 1128.48 171.356 1117.5 237.018C1116.47 243.199 1115.23 249.517 1114.03 255.626C1108.8 282.301 1103.86 307.495 1113.39 327.246C1120.74 342.482 1132.29 356.214 1143.47 369.503C1154.37 382.448 1165.63 395.833 1173.09 410.681L1171.87 411.52L1173.09 410.681C1201.02 466.226 1187.34 547.914 1137.38 623.867C1089.79 696.22 1012.82 764.093 926.2 810.081C901.861 823.003 876.727 834.63 852.42 845.872C814.429 863.446 775.146 881.62 738.603 904.934C688.905 936.639 641.005 980.492 603.726 1028.41C578.901 1060.32 551.85 1075.05 533.528 1081.78C512.344 1089.56 490.661 1087.22 469.078 1074.84C456.781 1067.79 446.298 1058.1 434.166 1046.88C431.159 1044.1 428.075 1041.25 424.869 1038.36C375.044 993.383 352.23 948.933 354.037 899.708C354.232 894.402 354.713 889.042 355.478 883.627C357.031 872.595 357.959 861.265 358.85 850.309C360.689 827.688 362.592 804.295 370.15 781.458C374.903 767.099 379.858 753.456 384.228 741.417C390.189 725.005 394.909 712.006 396.817 703.705C395.627 696.96 392.317 694.452 388.817 691.8C386.761 690.364 384.931 688.691 383.347 686.801C356.066 679.892 341.517 649.102 343.135 605.175ZM1118.66 201.831C1120.44 153.39 1107.54 114.688 1081.58 92.8995C1043.38 60.828 976.478 75.5817 927.114 104.432C922.746 106.985 918.411 109.495 914.081 111.996C887.754 127.22 860.531 142.961 827.119 168.771C762.701 218.536 687.596 256.603 614.964 293.418C609.799 296.036 604.633 298.657 599.467 301.28C531.949 335.576 479.17 372.781 438.117 415.016C391.623 462.891 359.337 520.037 349.539 571.798C338.124 632.083 352.083 676.303 385.098 684.454L385.359 684.52L385.507 684.711C387.048 686.589 388.845 688.242 390.875 689.651C394.464 692.371 398.177 695.182 399.435 702.643L399.466 702.831L399.418 703.046C397.505 711.508 392.728 724.662 386.681 741.313C382.315 753.331 377.367 766.953 372.633 781.27C365.174 803.805 363.284 827.051 361.455 849.532C360.563 860.518 359.639 871.879 358.078 882.978C350.305 938.098 372.219 986.81 427.025 1036.28C430.232 1039.18 433.324 1042.03 436.334 1044.81C448.41 1055.97 458.838 1065.61 470.996 1072.59C492.061 1084.68 513.1 1087 533.527 1079.5C551.342 1072.96 577.656 1058.63 601.85 1027.53C639.427 979.222 687.722 935.012 737.834 903.04C774.616 879.574 814.026 861.344 852.137 843.714C876.395 832.492 901.48 820.888 925.722 808.018C1011.72 762.361 1088.11 695.011 1135.32 623.242C1184.74 548.098 1198.29 467.292 1170.66 412.358C1163.27 397.652 1152.06 384.325 1141.22 371.44C1129.99 358.093 1118.38 344.291 1110.95 328.901C1101.18 308.66 1106.42 281.96 1111.49 256.135C1112.69 250.038 1113.92 243.74 1114.95 237.593C1116.98 225.46 1118.22 213.518 1118.66 201.832L1118.66 201.831Z" fill="#6666F2"/>
<path d="M364.514 595.42C365.009 583.231 366.552 570.714 369.131 557.977C379.333 506.783 411.039 450.825 456.108 404.45C496.234 363.206 547.832 327.072 613.852 293.98C631.464 285.152 649.643 276.657 667.224 268.44C725.816 241.057 786.404 212.744 832.407 168.767L832.609 168.574L832.848 168.443C849.114 159.542 863.236 150.519 875.695 142.561C895.022 130.214 911.727 119.542 930.195 112.969C978.5 77.2606 1044.19 73.3827 1079.86 104.178C1110.5 130.627 1122.48 182.217 1112.72 245.729C1111.85 251.449 1110.8 257.287 1109.78 262.933C1105.11 288.875 1100.7 313.389 1110.57 332.413C1117.84 346.418 1128.52 359.41 1138.86 371.978C1150.33 385.923 1162.19 400.341 1169.69 416.424L1168.5 417.215L1169.69 416.422C1195.55 471.874 1181.01 552.124 1131.76 625.864C1084.53 696.552 1008.76 762.786 923.849 807.58C900.055 820.134 875.48 831.469 851.713 842.432C812.941 860.316 772.849 878.808 735.718 902.857C688.562 933.4 641.377 976.709 602.853 1024.8C577.092 1056.96 548.74 1070.41 529.492 1076.02C508.417 1082.17 488.141 1078.06 467.496 1063.45C458.139 1056.82 449.612 1048.19 440.586 1039.04C436.079 1034.48 431.42 1029.76 426.341 1024.95C386.512 987.34 363.128 935.481 358.562 874.638C356.119 841.266 361.58 803.864 373.926 769.335C382.337 745.813 391.791 723.983 398.694 708.043C401.984 700.449 404.831 693.879 406.761 688.981C406.72 681.997 404.635 679.227 402.428 676.299C401.108 674.67 399.991 672.875 399.087 670.933C375.243 663.931 363.015 636.113 364.514 595.42ZM833.611 170.269C787.128 214.615 726.324 243.03 667.523 270.51C649.964 278.717 631.809 287.201 614.245 296.005C548.645 328.886 497.413 364.751 457.625 405.647C413.04 451.518 381.686 506.862 371.595 557.493C359.623 617.551 370.852 660.174 400.899 668.729L401.225 668.822L401.349 669.114C402.225 671.068 403.33 672.866 404.651 674.488C407.026 677.637 409.267 680.612 409.265 688.289L409.266 688.502L409.177 688.73C407.227 693.695 404.331 700.381 400.978 708.12C394.093 724.022 384.66 745.798 376.283 769.227C364.227 802.943 358.679 840.986 361.062 873.598C365.6 934.064 388.841 985.601 428.424 1022.97C433.515 1027.8 438.186 1032.53 442.699 1037.1C451.687 1046.2 460.179 1054.8 469.44 1061.35C489.626 1075.64 509.335 1079.7 529.694 1073.76C548.412 1068.3 575.988 1055.22 601.069 1023.91C639.869 975.47 687.412 931.84 734.941 901.053C772.313 876.848 812.531 858.302 851.432 840.355C875.156 829.414 899.68 818.1 923.385 805.595C1007.69 761.113 1082.92 695.379 1129.77 625.243C1178.52 552.274 1192.9 472.863 1167.32 418.004C1159.89 402.072 1148.09 387.719 1136.67 373.837C1126.29 361.219 1115.56 348.171 1108.23 334.044C1098.12 314.546 1102.79 288.576 1107.31 263.463C1108.32 257.831 1109.37 252.01 1110.24 246.319C1119.9 183.408 1108.09 132.326 1077.82 106.194C1042.75 75.9142 978.238 79.6985 930.953 114.802L930.708 114.985L930.441 115.078C912.267 121.502 895.671 132.105 876.455 144.379C864.002 152.334 849.895 161.345 833.611 170.269Z" fill="#6666F2"/>
<path d="M362.807 837.581C363.803 810.552 369.561 781.992 379.458 756.133C394.032 718.05 412.263 684.623 418.427 673.352C419.381 668.382 419.154 663.712 417.761 659.677C417.209 657.917 416.795 656.08 416.521 654.175C389.597 644.863 380.603 602.325 393.049 542.97C403.522 493.046 434.22 439.031 477.273 394.786C516.057 354.969 566.003 320.257 629.961 288.667C647.053 280.224 664.678 272.118 681.724 264.278C737.819 238.477 795.824 211.793 839.878 170.415L840.101 170.206L840.366 170.074C855.209 162.803 868.167 155.59 879.599 149.226C899.397 138.203 916.51 128.678 934.634 123.766C980.551 90.5208 1042.79 87.9063 1076.46 117.856C1115.83 152.855 1113.32 218.458 1108.32 254.444C1107.6 259.672 1106.73 264.994 1105.89 270.143C1101.8 295.33 1097.95 319.114 1108.14 337.411C1115.2 350.079 1124.95 362.155 1134.37 373.826C1146.5 388.846 1159.04 404.377 1166.56 421.825L1165.41 422.567L1166.56 421.825C1190.33 477.019 1174.97 555.679 1126.48 627.096C1079.72 695.964 1005.28 760.419 922.244 803.942C899.018 816.113 875.03 827.141 851.831 837.804C812.359 855.948 771.55 874.707 733.925 899.443C676.973 936.887 631.472 985.451 603.325 1019.6C575.055 1053.9 543.338 1065 526.949 1068.56C505.981 1073.12 487.097 1067.34 467.52 1050.38C460.575 1044.36 454.158 1037.06 447.363 1029.34C441.843 1023.06 436.126 1016.57 429.474 1009.95C391.391 972.06 368.554 921.645 363.427 864.154C362.67 855.512 362.463 846.641 362.807 837.581ZM421.37 667.372C421.291 669.219 421.091 671.105 420.772 673.019L420.739 673.236L420.617 673.461C414.602 684.459 396.3 717.938 381.701 756.084C368.606 790.304 362.825 829.318 365.84 863.121C370.936 920.274 393.643 970.397 431.508 1008.07C438.19 1014.72 443.917 1021.22 449.454 1027.52C456.219 1035.21 462.611 1042.48 469.491 1048.44C488.67 1065.07 507.058 1070.75 527.352 1066.34C543.296 1062.87 574.148 1052.07 601.658 1018.69C629.982 984.328 675.792 935.443 733.167 897.722C771.035 872.824 811.98 854.003 851.574 835.804C874.731 825.158 898.675 814.152 921.817 802.022C1004.29 758.8 1078.2 694.815 1124.6 626.472C1172.6 555.779 1187.8 477.932 1164.28 423.305C1156.83 406.013 1144.35 390.552 1132.27 375.598C1122.81 363.881 1113.03 351.766 1105.92 339.005C1095.48 320.266 1099.39 296.184 1103.53 270.686C1104.36 265.552 1105.22 260.24 1105.94 255.037C1110.9 219.368 1113.39 154.36 1074.5 119.771C1041.38 90.3147 980.224 92.8656 935.285 125.576L934.999 125.784L934.691 125.867C916.849 130.648 900.644 139.67 880.129 151.09C868.724 157.438 855.806 164.629 840.987 171.899C796.478 213.617 738.283 240.385 681.999 266.269C664.977 274.101 647.374 282.197 630.328 290.615C566.774 322.004 517.188 356.453 478.734 395.934C436.145 439.706 405.774 493.138 395.417 542.523C383.083 601.332 391.898 643.324 418.417 652.116L418.816 652.249L418.868 652.674C419.126 654.647 419.541 656.545 420.111 658.357C421.05 661.104 421.474 664.141 421.37 667.372Z" fill="#6666F2"/>
<path d="M367.722 824.564C368.729 797.229 374.792 768.587 385.295 742.743C399.673 707.37 417.99 675.604 430.395 657.578C432.184 652.301 433.289 647.091 433.683 642.073C433.819 640.688 433.969 639.129 434.229 637.243C410.608 627.513 404.246 586.695 417.238 527.846C427.976 479.204 457.658 427.153 498.687 385.037C536.132 346.648 584.411 313.368 646.288 283.295C662.872 275.236 679.955 267.516 696.472 260.051C752.509 234.721 805.439 210.802 847.521 172.032L847.762 171.808L848.051 171.684C860.68 166.239 871.913 160.925 881.824 156.236C903.727 145.874 921.05 137.679 939.219 134.533C982.732 103.767 1041.5 102.412 1073.19 131.494C1109.95 165.242 1108.3 228.424 1104.04 263.091C1103.46 267.797 1102.77 272.579 1102.11 277.205C1098.61 301.642 1095.3 324.729 1105.82 342.31C1112.55 353.54 1121.29 364.512 1129.74 375.122C1142.66 391.331 1156.01 408.09 1163.53 427.103L1162.42 427.795L1163.53 427.103C1185.23 481.978 1169.06 559.01 1121.33 628.137C1075.06 695.149 1001.98 757.811 920.818 800.058C898.144 811.861 874.726 822.583 852.08 832.956C811.948 851.333 770.452 870.336 732.37 895.748C689.585 924.304 646.421 964.115 604.074 1014.08C582.457 1039.58 553.535 1056.6 524.723 1060.76C497.603 1064.69 479.286 1049.08 467.864 1037C462.784 1031.62 458.048 1025.43 453.036 1018.88C447.016 1011.01 440.792 1002.87 432.933 994.65C396.589 956.62 374.355 907.78 368.635 853.412C367.66 844.064 367.355 834.43 367.722 824.564ZM436.679 635.545L436.597 636.117C436.294 638.22 436.135 639.85 435.982 641.424C435.569 646.654 434.41 652.087 432.533 657.588L432.33 657.994C420.023 675.835 401.763 707.476 387.424 742.75C373.275 777.564 367.264 817.532 370.931 852.411C376.62 906.477 398.737 955.051 434.892 992.885C442.796 1001.16 449.04 1009.32 455.079 1017.21C460.072 1023.74 464.79 1029.91 469.829 1035.24C481.038 1047.09 498.98 1062.41 525.28 1058.61C538.547 1056.69 572.627 1048.43 602.501 1013.18C645.082 962.941 688.522 922.884 731.613 894.124C769.942 868.546 811.572 849.481 851.831 831.045C874.438 820.692 897.815 809.987 920.409 798.226C1001.03 756.26 1073.61 694.044 1119.54 627.525C1166.79 559.082 1182.81 482.816 1161.32 428.49C1153.88 409.65 1140.58 392.961 1127.72 376.82C1119.24 366.182 1110.47 355.179 1103.71 343.88C1092.94 325.875 1096.29 302.509 1099.83 277.771C1100.49 273.154 1101.17 268.381 1101.75 263.694C1105.97 229.329 1107.63 166.686 1071.28 133.321C1040.1 104.702 982.332 106.021 939.75 136.326L939.421 136.562L939.073 136.62C921.166 139.654 903.934 147.808 882.117 158.129C872.255 162.794 861.086 168.076 848.521 173.508C806.009 212.574 750.448 237.686 696.712 261.972C680.214 269.429 663.155 277.14 646.614 285.177C585.136 315.053 537.205 348.076 500.083 386.141C459.499 427.807 430.122 479.31 419.498 527.443C406.593 585.896 412.842 626.234 436.207 635.358L436.679 635.545Z" fill="#6666F2"/>
<path d="M372.603 811.807C373.619 784.174 379.995 755.384 391.124 729.435C403.972 699.479 421.224 673.708 433.818 654.892C437.136 649.938 439.999 645.66 442.362 641.93C447.699 633.503 448.812 629.959 450.221 625.469C450.684 623.994 451.202 622.342 451.912 620.395C431.674 610.293 427.823 571.159 441.375 512.815C452.375 465.458 481.046 415.364 520.055 375.377C556.169 338.398 602.788 306.547 662.575 278.005C678.666 270.323 695.219 262.985 711.228 255.89C764.613 232.224 815.039 209.872 855.141 173.712L855.401 173.478L855.707 173.365C864.941 169.928 873.489 166.588 881.033 163.639C906.549 153.669 925.033 146.445 943.801 145.334C984.909 117.058 1040.22 116.955 1069.92 145.17C1104.07 177.632 1103.27 238.428 1099.75 271.784C1099.32 275.937 1098.81 280.093 1098.3 284.228C1095.39 307.965 1092.65 330.382 1103.5 347.279C1109.73 356.965 1117.04 366.202 1124.78 375.983C1138.65 393.508 1152.99 411.63 1160.5 432.436C1180.16 486.942 1163.19 562.352 1116.19 629.245C1070.42 694.391 998.686 755.264 919.395 796.248C897.258 807.691 874.394 818.119 852.285 828.205C811.503 846.804 769.336 866.034 730.818 892.131C690.569 919.402 649.355 957.509 604.823 1008.63C572.581 1045.64 536.522 1052.01 522.517 1053.04C495.988 1054.97 479.562 1038.38 468.218 1023.71C464.511 1018.92 461.045 1013.59 457.374 1007.95C451.608 999.082 445.073 989.034 436.383 979.457C401.664 941.185 380.031 893.917 373.828 842.761C372.621 832.768 372.211 822.426 372.603 811.807ZM454.491 618.951L454.228 619.642C453.409 621.827 452.859 623.579 452.328 625.278C450.861 629.956 449.702 633.651 444.152 642.405C441.768 646.172 438.895 650.463 435.566 655.437C423.038 674.153 405.881 699.781 393.141 729.486C377.912 764.997 371.668 805.927 376.018 841.767C382.191 892.656 403.718 939.688 438.272 977.781C447.023 987.424 453.583 997.515 459.372 1006.41C463.029 1012.03 466.483 1017.34 470.163 1022.1C481.312 1036.52 497.418 1052.83 523.201 1050.95C536.843 1049.96 571.958 1043.75 603.341 1007.73C648.091 956.358 689.541 918.041 730.063 890.588C768.83 864.322 811.133 845.025 852.043 826.371C874.116 816.303 896.941 805.892 919.003 794.489C997.791 753.763 1069.04 693.311 1114.48 628.631C1161.03 562.385 1177.84 487.697 1158.37 433.723L1159.44 433.079L1158.37 433.723C1150.93 413.097 1136.65 395.052 1122.84 377.598C1115.08 367.795 1107.75 358.534 1101.5 348.802C1090.38 331.514 1093.16 308.821 1096.11 284.804C1096.61 280.679 1097.12 276.532 1097.55 272.392C1101.05 239.299 1101.86 179.002 1068.08 146.902C1038.84 119.122 984.43 119.215 944.204 147.115L943.828 147.376L943.446 147.398C924.938 148.41 906.552 155.596 881.102 165.542C873.63 168.464 865.173 171.766 856.034 175.17C815.535 211.59 764.966 234.005 711.429 257.736C695.441 264.824 678.908 272.151 662.857 279.816C603.458 308.173 557.181 339.776 521.375 376.434C482.784 416.001 454.406 465.579 443.518 512.457C430.025 570.558 433.829 609.284 453.95 618.703L454.491 618.951Z" fill="#6666F2"/>
<path d="M377.082 799.012C378.109 771.068 384.814 742.054 396.587 715.9C412.927 679.601 436.724 648.536 450.942 629.973L453.962 626.026C462.636 614.652 464.597 611.285 469.269 603.238C452.471 592.822 450.995 555.311 465.138 497.426C476.405 451.324 504.085 403.152 541.096 365.26C575.909 329.665 620.894 299.221 678.625 272.189C694.253 264.871 710.314 257.904 725.843 251.167C776.589 229.155 824.516 208.361 862.652 174.791L862.928 174.549L863.249 174.448C867.354 173.168 871.287 171.934 875.05 170.745C907.043 160.671 928.251 153.994 948.324 155.5C987.051 129.694 1038.94 130.845 1066.67 158.197C1096.66 187.785 1098.91 240.725 1095.51 279.914C1095.2 283.479 1094.84 287.041 1094.49 290.581C1092.19 313.664 1090.01 335.475 1101.22 351.733C1106.75 359.735 1112.91 367.508 1119.43 375.736C1134.48 394.738 1150.06 414.387 1157.54 437.307L1156.52 437.906L1157.54 437.307C1175.21 491.424 1157.4 565.262 1111.09 630.015C1065.8 693.325 995.378 752.448 917.892 792.215C896.26 803.32 873.917 813.465 852.313 823.278C810.877 842.095 768.03 861.555 729.082 888.348C680.457 921.797 637.397 967.238 605.315 1003.09C570.418 1042.08 531.212 1045.21 520.027 1045.24C493.613 1045.31 478.48 1026.64 468.249 1010.36C465.532 1006.04 462.996 1001.35 460.312 996.382C454.861 986.3 448.681 974.87 439.484 964.169C406.256 925.515 385.217 879.783 378.631 831.928C377.183 821.341 376.665 810.34 377.082 799.012ZM471.924 602.074L471.088 603.515C466.314 611.737 464.342 615.139 455.515 626.712L452.491 630.663C437.441 650.313 414.698 680.004 398.497 715.992C382.153 752.291 375.679 794.195 380.73 830.962C387.277 878.584 408.226 924.104 441.314 962.595C450.586 973.381 456.795 984.866 462.273 994.996C464.947 999.945 467.475 1004.62 470.172 1008.91C480.245 1024.93 495.105 1043.31 520.83 1043.25C531.735 1043.22 569.953 1040.17 603.939 1002.19C636.155 966.19 679.41 920.551 728.349 886.886C767.543 859.921 810.529 840.401 852.092 821.525C873.665 811.728 895.971 801.597 917.535 790.531C994.545 751.002 1064.51 692.274 1109.48 629.403C1155.36 565.26 1173 492.108 1155.5 438.5C1148.08 415.774 1132.57 396.203 1117.57 377.281C1111.04 369.037 1104.87 361.252 1099.33 353.219C1087.86 336.597 1090.07 314.537 1092.4 291.175C1092.75 287.641 1093.11 284.087 1093.41 280.531C1096.79 241.623 1094.57 189.109 1064.9 159.842C1037.58 132.889 986.494 131.761 948.602 157.267L948.177 157.555L947.773 157.522C927.975 155.927 906.874 162.572 874.935 172.629C871.263 173.785 867.432 174.988 863.442 176.236C824.942 210.024 776.888 230.872 726.021 252.938C710.511 259.668 694.473 266.624 678.88 273.925C621.529 300.78 576.875 330.987 542.366 366.269C505.747 403.765 478.345 451.454 467.189 497.105C453.054 554.943 454.536 592.11 471.363 601.754L471.924 602.074Z" fill="#6666F2"/>
<path d="M381.245 786.213C382.284 757.942 389.326 728.649 401.765 702.202C420.234 662.937 446.861 630.747 465.289 609.951C468.821 605.967 471.614 602.911 474.081 600.214C478.441 595.587 482.559 590.792 486.407 585.862C469.586 572.494 478.289 522.008 488.635 481.779C500.172 436.91 526.88 390.635 561.907 354.818C594.984 321.05 639.595 291.169 694.505 266.001C709.7 259.037 725.289 252.432 740.366 246.048C788.464 225.676 833.894 206.438 870.064 175.443L870.355 175.194L870.687 175.111C907.923 165.783 931.894 160.298 952.79 165.223C989.739 141.488 1037.21 143.841 1063.41 170.775C1090.95 199.072 1093.77 249.937 1091.27 287.654C1091.08 290.577 1090.86 293.492 1090.64 296.395C1088.94 318.904 1087.34 340.168 1098.95 355.834C1103.5 361.971 1108.34 368.007 1113.46 374.399C1130.03 395.059 1147.16 416.424 1154.6 441.863L1153.62 442.415L1154.6 441.863C1170.31 495.563 1151.68 567.864 1105.99 630.562C1061.18 692.05 992.049 749.451 916.319 788.045C895.164 798.824 873.316 808.702 852.185 818.256C810.095 837.286 766.572 856.964 727.199 884.469C681.534 916.369 640.495 959.544 605.613 997.503C576.376 1029.32 540.836 1038.99 517.326 1037.43C490.848 1035.67 477.077 1014.89 468.036 996.985C466.031 993.015 464.173 988.774 462.206 984.28C457.313 973.114 451.764 960.46 442.322 948.842C409.993 909.069 390.087 866.051 383.158 820.985C381.446 809.846 380.807 798.218 381.245 786.213ZM489.044 584.997L488.457 585.766C484.393 591.042 480.016 596.166 475.363 601.098C472.906 603.784 470.121 606.826 466.607 610.792C448.312 631.45 421.87 663.405 403.559 702.333C386.07 739.517 379.356 782.417 385.141 820.047C392.038 864.907 411.866 907.742 444.072 947.366C453.605 959.09 459.181 971.818 464.101 983.047C466.064 987.521 467.915 991.748 469.908 995.693C478.818 1013.34 492.359 1033.82 518.197 1035.53C541.147 1037.05 575.821 1027.64 604.32 996.62C639.326 958.525 680.519 915.195 726.468 883.094C766.092 855.415 809.751 835.677 851.973 816.587C873.07 807.049 894.884 797.186 915.974 786.437C991.255 748.073 1059.96 691.042 1104.46 629.969C1149.74 567.837 1168.2 496.188 1152.64 442.973C1145.26 417.746 1128.2 396.465 1111.69 375.887C1106.56 369.487 1101.72 363.444 1097.16 357.295C1085.29 341.291 1086.92 319.786 1088.63 297.016C1088.85 294.123 1089.07 291.211 1089.27 288.293C1091.74 250.851 1088.96 200.347 1061.71 172.344C1035.86 145.783 989.101 143.482 952.937 166.989L952.464 167.296L952.053 167.196C931.503 162.211 907.747 167.619 870.756 176.883C834.24 208.07 788.704 227.354 740.501 247.774C725.443 254.153 709.873 260.746 694.718 267.692C640.171 292.693 595.892 322.337 563.108 355.807C528.441 391.255 502.004 437.077 490.574 481.523C475.742 539.202 475.026 574.854 488.498 584.629L489.044 584.997Z" fill="#6666F2"/>
<path d="M385.403 773.538C386.454 744.944 393.842 715.335 406.964 688.532C426.875 647.858 455.831 614.636 476.621 593.925C482.326 588.24 486.851 584.209 490.843 580.652C495.295 576.801 499.56 572.745 503.607 568.514C493.604 557.808 496.406 524.304 512.141 466.161C524.123 421.889 549.191 378.65 582.728 344.409C614.556 311.965 657.509 283.515 710.391 259.847C725.186 253.227 740.341 246.98 754.996 240.935C800.412 222.218 843.31 204.534 877.49 176.126L877.79 175.877L878.126 175.814C914.701 168.938 938.213 166.767 957.263 174.983C991.792 153.765 1035.93 157.334 1060.17 183.382C1079.96 204.657 1089.03 241.493 1087.14 292.888C1087.11 293.731 1087.08 294.571 1087.04 295.419C1086.95 297.632 1086.84 299.839 1086.73 302.033C1085.65 324.05 1084.63 344.839 1096.68 359.96C1099.88 363.976 1103.22 368.032 1106.61 372.152C1125.13 394.669 1144.29 417.953 1151.67 446.433C1158.53 473.219 1157.52 503.849 1148.71 535.903C1139.9 567.957 1123.53 600.556 1100.91 631.122C1056.59 690.774 988.738 746.451 914.756 783.882C894.071 794.347 872.706 803.958 852.045 813.256C809.307 832.493 765.114 852.374 725.333 880.596C681.781 911.493 642.476 953.168 607.799 989.938L605.927 991.921C575.064 1024.64 537.47 1032.67 514.653 1029.61C487.959 1026.02 475.621 1003.14 467.853 983.614C466.366 979.881 465.009 975.937 463.571 971.763C459.396 959.636 454.663 945.894 445.181 933.524C413.657 892.402 394.848 852.016 387.699 810.052C385.714 798.402 384.946 786.186 385.403 773.538ZM506.138 567.949L505.471 568.666C501.169 573.231 496.608 577.596 491.83 581.722C487.87 585.249 483.382 589.25 477.744 594.87C457.123 615.414 428.399 648.365 408.659 688.688C389.993 726.816 383.043 770.722 389.591 809.139C396.709 850.919 415.447 891.152 446.873 932.138C456.456 944.636 461.216 958.464 465.417 970.663C466.849 974.826 468.202 978.757 469.679 982.467C477.344 1001.74 489.489 1024.3 515.596 1027.81C537.894 1030.8 574.62 1022.97 604.738 991.045L606.609 989.062C641.388 952.184 680.817 910.382 724.629 879.297C764.657 850.901 808.987 830.952 851.854 811.666C872.487 802.379 893.822 792.783 914.446 782.348C988.005 745.135 1055.45 689.798 1099.48 630.531C1121.91 600.231 1138.14 567.916 1146.87 536.141C1155.6 504.366 1156.61 474.002 1149.8 447.45C1142.48 419.196 1123.4 395.999 1104.94 373.567C1101.55 369.442 1098.21 365.383 1095 361.362C1082.71 345.924 1083.74 324.911 1084.83 302.649C1084.94 300.46 1085.04 298.254 1085.14 296.045C1087.41 243.681 1078.46 206.247 1058.54 184.836C1034.62 159.128 991.094 155.629 957.294 176.699L956.775 177.025L956.374 176.849C937.642 168.6 914.392 170.711 878.092 177.52C843.595 206.086 800.605 223.808 755.109 242.563C740.47 248.597 725.337 254.835 710.579 261.439C658.049 284.948 615.42 313.171 583.878 345.325C550.684 379.212 525.863 422.042 513.99 465.915C498.16 524.397 495.436 557.629 505.667 567.489L506.138 567.949Z" fill="#6666F2"/>
<path d="M389.518 761.008C390.58 732.091 398.325 702.128 412.142 674.918C435.695 628.535 469.731 594.269 487.921 577.972C493.713 572.83 499.728 567.945 505.927 563.348C511.074 559.559 516.055 555.507 520.832 551.225C512.417 537.984 522.947 495.08 535.623 450.591C547.881 407.571 571.997 366.179 603.526 334.039C634.127 302.905 675.421 275.883 726.265 253.726C740.692 247.439 755.441 241.544 769.705 235.841C812.41 218.77 852.745 202.652 884.913 176.837L885.222 176.589L885.557 176.547C924.889 171.656 945.62 173.88 961.733 184.769C993.838 166.071 1034.66 170.854 1056.93 196.008C1075.29 216.744 1083.76 251.812 1082.82 303.215L1082.74 307.423C1082.29 329.05 1081.87 349.478 1094.42 364.121L1098.4 368.752C1118.58 392.195 1141.46 418.765 1148.75 451.041C1160.83 504.534 1141.04 572.08 1095.84 631.726C1051.38 690.381 986.515 742.957 913.199 779.772C892.967 789.929 872.071 799.285 851.86 808.335C808.481 827.755 763.63 847.835 723.46 876.78C685.152 904.386 651.402 939.47 618.763 973.4C614.551 977.778 610.375 982.11 606.235 986.396C573.692 1020.01 535.122 1026.5 511.982 1021.85C484.927 1016.41 474.082 991.452 467.659 970.317C466.565 966.72 465.592 962.958 464.562 958.971C461.206 945.986 457.4 931.267 448.025 918.274C428.606 891.349 401.692 849.71 392.222 799.179C389.946 787.053 389.041 774.275 389.518 761.008ZM523.162 550.953L522.483 551.583C517.438 556.169 512.153 560.493 506.677 564.514C500.545 569.059 494.596 573.89 488.866 578.973C470.83 595.132 437.085 629.108 413.734 675.091C393.861 714.225 386.674 759.134 394.012 798.292C403.44 848.617 430.279 890.13 449.645 916.978C459.124 930.121 462.956 944.937 466.334 958.005C467.363 961.98 468.332 965.737 469.416 969.308C475.762 990.186 486.448 1014.83 512.959 1020.16C535.606 1024.71 573.332 1018.38 605.131 985.534C609.27 981.259 613.445 976.929 617.654 972.545C650.385 938.515 684.235 903.328 722.771 875.559C763.183 846.437 808.175 826.293 851.677 806.816C871.859 797.78 892.73 788.434 912.907 778.305C985.82 741.696 1050.31 689.429 1094.49 631.135C1116.69 601.708 1132.96 570.246 1142.06 539.18C1151.15 508.114 1152.83 478.274 1146.96 451.963L1147.85 451.498L1146.96 451.963C1139.73 419.932 1116.94 393.46 1096.83 370.1L1092.85 365.466C1080.05 350.535 1080.48 329.89 1080.93 308.039L1081.01 303.835C1081.94 252.734 1073.56 217.907 1055.37 197.363C1033.36 172.513 993.064 167.821 961.638 186.45L961.082 186.78L960.713 186.526C944.859 175.636 924.429 173.372 885.418 178.193C852.956 204.144 812.554 220.291 769.783 237.39C755.538 243.084 740.806 248.971 726.417 255.242C675.916 277.25 634.935 304.053 604.613 334.908C573.4 366.723 549.519 407.73 537.367 450.379C524.617 495.124 514.026 538.222 522.8 550.444L523.162 550.953Z" fill="#6666F2"/>
<path d="M393.636 748.522C394.71 719.284 402.816 688.949 417.348 661.28C444.208 610.132 483.559 574.825 499.233 562.011C506.13 556.456 513.282 551.27 520.629 546.499C526.622 542.62 532.465 538.417 538.111 533.923C533.38 520.778 545.323 480.986 559.122 435.006C571.656 393.241 594.817 353.696 624.342 323.653C653.72 293.816 693.358 268.224 742.15 247.59C756.252 241.627 770.64 236.077 784.551 230.708C824.495 215.301 862.224 200.748 892.349 177.53L892.664 177.287L892.991 177.264C930.259 175.045 951.524 180.052 966.207 194.537C995.879 178.371 1033.39 184.361 1053.71 208.6C1075.17 234.197 1078.29 276.758 1078.62 310.974L1078.63 312.367C1078.83 333.775 1079.01 353.992 1092.17 368.249C1115.72 393.745 1139.26 421.493 1145.84 455.611L1144.99 456.034L1145.84 455.611C1156.03 508.512 1135.46 574.557 1090.77 632.293C1046.84 689.057 983.229 739.959 911.656 775.619C891.864 785.485 871.42 794.586 851.65 803.39C807.646 822.985 762.146 843.25 721.609 872.924C687.452 897.929 656.929 929.265 627.41 959.569C620.233 966.939 613.453 973.9 606.569 980.827C574.476 1013.13 534.616 1020.79 509.348 1014.05C481.5 1006.63 472.127 977.925 467.501 956.984C466.718 953.451 466.053 949.766 465.349 945.865C462.867 932.109 460.05 916.516 450.899 902.986C428.084 869.264 405.738 832.021 396.776 788.269C394.193 775.699 393.141 762.385 393.636 748.522ZM540.165 533.927L539.533 534.447C533.626 539.204 527.495 543.637 521.196 547.706C513.927 552.428 506.849 557.558 500.023 563.053C466.088 591.228 437.954 625.337 418.839 661.48C397.728 701.672 390.299 747.579 398.469 787.421C407.395 831.004 429.689 868.146 452.448 901.792C461.712 915.486 464.546 931.189 467.047 945.042C467.749 948.933 468.412 952.607 469.188 956.123C473.763 976.825 483.009 1005.19 510.353 1012.48C535.115 1019.09 574.161 1011.6 605.561 979.999C612.431 973.084 619.208 966.127 626.382 958.762C655.984 928.371 686.592 896.948 720.947 871.797C761.728 841.939 807.36 821.623 851.491 801.968C871.237 793.175 891.657 784.081 911.398 774.247C982.596 738.773 1045.86 688.158 1089.53 631.727C1133.85 574.458 1154.27 508.945 1144.14 456.466C1137.61 422.597 1114.17 394.965 1090.72 369.562C1077.31 355.044 1077.12 334.624 1076.93 313.006L1076.91 311.615C1076.59 277.577 1073.49 235.252 1052.22 209.88C1032.13 185.904 995.054 180.022 965.999 196.192L965.415 196.517L965.092 196.195C950.667 181.731 929.702 176.703 892.763 178.866C862.366 202.191 824.588 216.765 784.599 232.19C770.709 237.547 756.337 243.091 742.273 249.038C693.812 269.533 654.48 294.914 625.368 324.48C596.139 354.224 573.196 393.414 560.764 434.835C546.856 481.18 534.842 521.206 539.95 533.408L540.165 533.927Z" fill="#6666F2"/>
<path d="M397.684 736.116C398.769 706.562 407.247 675.83 422.51 647.657C451.634 593.899 493.739 558.713 510.485 546.082C519.488 539.296 527.424 534.494 535.097 529.854C542.005 525.826 548.778 521.414 555.364 516.654C554.315 506.422 562.201 482.235 573.038 448.977C576.11 439.552 579.286 429.806 582.57 419.438C591.631 390.784 609.837 349.106 645.11 313.284C673.276 284.731 711.254 260.57 757.985 241.473C771.816 235.821 785.892 230.612 799.504 225.575C836.627 211.83 871.691 198.857 899.738 178.239L900.052 178.008L900.366 178.01C936.551 178.242 957.598 186.125 970.618 204.345C997.849 190.716 1032.05 197.906 1050.44 221.214C1068.94 244.679 1072.87 281.965 1074.36 318.756C1075.15 338.265 1075.97 358.439 1089.88 372.4C1111.48 394.067 1137.02 423.632 1142.88 460.199C1151.25 512.442 1129.86 576.994 1085.67 632.874C1042.28 687.732 979.92 736.955 910.069 771.486C890.706 781.057 870.704 789.913 851.359 798.48C806.74 818.24 760.6 838.672 719.715 869.082C688.957 891.959 661.175 920.268 634.31 947.646C624.865 957.27 615.946 966.361 606.863 975.269C573.258 1008.23 531.374 1014.45 506.684 1006.27C485.042 999.094 472.53 979.206 467.303 943.677C466.782 940.135 466.381 936.457 465.954 932.565C464.374 918.107 462.58 901.718 453.73 887.718C433.564 855.815 410.709 819.657 401.284 777.378C398.378 764.391 397.171 750.56 397.684 736.116ZM557.097 516.904L556.553 517.312C549.356 522.696 542.642 526.757 535.533 531.055C527.917 535.663 520.042 540.425 511.149 547.132C494.539 559.658 452.792 594.545 423.902 647.873C401.52 689.185 393.851 736.089 402.877 776.561C412.266 818.682 435.078 854.773 455.206 886.613C464.168 900.788 465.972 917.295 467.567 931.861C467.99 935.744 468.392 939.411 468.908 942.932C474.08 978.091 486.403 997.75 507.69 1004.8C531.924 1012.83 573.007 1006.76 605.937 974.461C615.001 965.571 623.912 956.489 633.347 946.874C660.286 919.421 688.142 891.033 719.074 868.027C760.199 837.442 806.467 816.952 851.214 797.135C870.536 788.578 890.516 779.731 909.833 770.183C979.336 735.828 1041.37 686.865 1084.51 632.316C1128.37 576.869 1149.59 512.808 1141.28 460.968L1142.08 460.586L1141.28 460.968C1135.46 424.662 1110.03 395.236 1088.53 373.658C1074.38 359.457 1073.55 339.091 1072.75 319.396C1071.27 282.768 1067.37 245.665 1049.02 222.398C1030.81 199.314 996.968 192.239 970.298 205.937L969.705 206.241L969.439 205.864C956.665 187.694 935.904 179.815 900.058 179.536C871.772 200.234 836.673 213.224 799.524 226.972C785.929 232.003 771.871 237.206 758.077 242.846C711.669 261.812 673.985 285.774 646.071 314.065C611.148 349.539 593.1 390.87 584.108 419.302C580.826 429.677 577.65 439.425 574.576 448.854C564.028 481.215 555.698 506.764 557.025 516.413L557.097 516.904Z" fill="#6666F2"/>
<path d="M401.733 723.845C402.829 693.975 411.691 662.822 427.701 634.106C458.977 578.016 503.896 542.779 521.756 530.233C531.703 523.246 540.743 518.223 549.483 513.367C557.362 508.988 564.812 504.849 572.647 499.478C573.724 492.051 579.077 477.845 586.426 458.329C592.126 443.201 599.224 424.369 606.032 403.939C615.291 376.175 633.192 336.12 665.889 302.981C692.876 275.689 729.198 252.957 773.847 235.413C787.472 230.058 801.297 225.186 814.666 220.475C848.901 208.41 881.241 197.013 907.16 179.003L907.471 178.786L907.768 178.809C943.189 181.418 963.965 192.342 975.053 214.212C1000.22 202.934 1030.47 211.14 1047.21 233.882C1064.99 258.028 1067.97 297.663 1070.15 326.6C1071.65 346.484 1074 363.967 1087.63 376.616C1118.97 405.686 1136.09 434.546 1139.96 464.849C1146.55 516.384 1124.36 579.438 1080.61 633.522C1037.79 686.459 976.674 734.012 908.527 767.423C889.579 776.712 870.006 785.332 851.077 793.662C805.847 813.574 759.077 834.163 717.864 865.314C689.964 886.401 664.559 912.195 639.99 937.142C628.732 948.574 618.097 959.371 607.201 969.787C571.854 1003.57 528.963 1008.38 504.069 998.552C476.574 987.699 462.08 960.917 467.159 930.297C470.477 910.276 466.73 889.744 456.602 872.526C454.321 868.648 452.006 864.745 449.655 860.816C432.255 831.627 414.269 801.443 405.832 766.557C402.58 753.182 401.205 738.855 401.733 723.845ZM907.387 180.262C881.254 198.333 848.897 209.735 814.649 221.806C801.298 226.512 787.491 231.376 773.902 236.717C729.565 254.139 693.527 276.68 666.793 303.717C634.414 336.536 616.665 376.276 607.47 403.84C600.646 424.301 593.546 443.152 587.843 458.292C580.388 478.083 575 492.383 574.1 499.511L574.044 499.933L573.613 500.231C565.52 505.816 557.893 510.054 549.815 514.543C541.13 519.368 532.151 524.358 522.314 531.268C504.596 543.713 460.04 578.668 429.001 634.33C405.306 676.826 397.402 724.73 407.323 765.767C415.724 800.525 433.683 830.653 451.046 859.791C453.39 863.721 455.706 867.625 457.994 871.501C468.226 888.909 472.015 909.661 468.653 929.955C463.658 960.098 477.949 986.483 505.058 997.185C529.527 1006.84 571.658 1002.14 606.348 968.989C617.212 958.603 627.837 947.817 639.082 936.403C663.716 911.39 689.191 885.525 717.239 864.327C758.685 833.003 805.584 812.354 850.939 792.389C869.848 784.066 889.4 775.458 908.304 766.19C976.131 732.936 1036.94 685.626 1079.53 632.972C1122.96 579.28 1144.98 516.685 1138.45 465.53L1139.21 465.186L1138.45 465.53C1134.61 435.439 1117.57 406.744 1086.38 377.808C1072.53 364.96 1070.15 347.299 1068.64 327.226C1066.47 298.398 1063.5 258.918 1045.86 234.964C1029.53 212.785 998.911 204.522 974.639 215.732L974.046 216.004L973.84 215.592C962.978 193.801 942.475 182.9 907.387 180.262Z" fill="#6666F2"/>
<path d="M405.857 712.154C406.974 681.706 416.246 649.538 432.862 620.525C456.344 579.526 492.835 540.83 532.982 514.362C543.848 507.198 553.961 501.968 563.741 496.91C572.648 492.303 581.07 487.946 589.878 482.301C591.528 477.988 594.546 471.443 598.341 463.212C606.423 445.67 618.639 419.161 629.456 388.42C643.215 349.326 662.451 317.104 686.633 292.653C712.44 266.615 747.106 245.309 789.661 229.332C803.164 224.262 816.816 219.727 830.018 215.342C861.275 204.96 890.798 195.151 914.536 179.742L914.834 179.547L915.109 179.586C949.975 184.547 970.426 198.683 979.421 224.058C1002.08 215.379 1029.12 224.751 1043.93 246.501C1058.39 267.738 1062.01 299.949 1065.2 328.372L1065.89 334.397C1068.22 354.77 1072.29 369.638 1085.33 380.786C1106.78 399.132 1133.16 429.409 1136.98 469.449C1141.83 520.216 1118.85 581.77 1075.49 634.116C1033.26 685.112 973.397 730.99 906.93 763.304C888.395 772.316 869.243 780.693 850.721 788.796C804.885 808.849 757.488 829.583 715.963 861.481C690.513 881.032 667.19 904.695 644.64 927.577C631.923 940.478 619.914 952.665 607.495 964.232C572.013 997.275 527.275 1002.6 501.421 990.779C474.196 978.331 460.674 949.403 466.975 917.042C471.222 895.247 468.542 874.026 459.434 857.283C455.543 850.133 451.323 842.801 447.239 835.707C432.848 810.708 417.967 784.857 410.34 755.682C406.803 742.12 405.298 727.508 405.857 712.154ZM914.681 180.95C890.758 196.402 861.227 206.214 829.974 216.595C816.789 220.975 803.156 225.503 789.686 230.562C747.433 246.425 713.045 267.547 687.474 293.345C663.524 317.561 644.453 349.525 630.79 388.351C619.946 419.166 607.71 445.72 599.608 463.294C595.735 471.699 592.676 478.338 591.074 482.589L590.953 482.91L590.631 483.116C581.616 488.922 573.052 493.35 563.987 498.04C554.258 503.072 544.199 508.273 533.434 515.37C493.589 541.641 457.368 580.051 434.055 620.755C409.375 663.851 401.028 714.007 411.727 754.933C419.327 783.999 434.182 809.805 448.548 834.761C452.631 841.858 456.855 849.196 460.751 856.35C469.955 873.27 472.663 894.718 468.369 916.76C462.153 948.665 475.507 977.231 502.389 989.522C527.842 1001.16 571.852 995.948 606.722 963.472C619.104 951.941 631.097 939.774 643.793 926.891C666.406 903.948 689.788 880.224 715.369 860.574C757.119 828.502 804.643 807.712 850.601 787.605C869.103 779.511 888.236 771.141 906.735 762.148C972.907 729.98 1032.49 684.319 1074.51 633.58C1117.56 581.595 1140.39 520.465 1135.58 470.056L1136.28 469.751L1135.58 470.056C1131.78 430.29 1105.53 400.179 1084.18 381.923C1070.96 370.616 1066.83 355.595 1064.48 335.019L1063.8 328.995C1060.62 300.673 1057.01 268.57 1042.66 247.494C1027.96 225.905 1001.15 216.654 978.919 225.493L978.355 225.717L978.208 225.293C969.413 200.02 949.224 185.925 914.681 180.95Z" fill="#6666F2"/>
<path d="M409.831 700C410.959 669.249 420.629 636.627 438.029 606.999C462.929 564.595 501.626 525.07 544.203 498.556C555.972 491.227 567.135 485.798 577.93 480.547C587.883 475.708 597.289 471.134 607.081 465.212C625.858 434.941 641.237 403.955 652.866 372.962C667.119 334.623 684.947 304.995 707.36 282.387C732.022 257.578 765.031 237.699 805.469 223.312C818.964 218.51 832.541 214.318 845.671 210.265C873.831 201.573 900.433 193.357 921.913 180.541L922.199 180.37L922.445 180.423C956.889 187.724 976.955 205.243 983.781 233.971C1003.91 227.903 1027.75 238.43 1040.66 259.172C1052.2 277.708 1056.13 304.768 1059.59 328.64C1060.27 333.297 1060.93 337.858 1061.63 342.246C1064.09 357.658 1068.39 373.509 1083.03 385.011C1100.86 399.009 1131.18 429.198 1134.02 474.095C1137.19 524.047 1113.4 584.094 1070.39 634.761C1028.77 683.801 970.158 728.008 905.352 759.238C887.216 767.977 868.476 776.122 850.353 783.998C803.921 804.179 755.898 825.049 714.079 857.704C690.758 875.917 669.279 897.745 648.508 918.856C635.238 932.344 621.517 946.292 607.803 958.731C570.574 992.507 524.785 996.536 498.794 983.058C471.84 969.079 459.286 937.981 466.806 903.845C470.483 887.154 472.681 862.896 462.28 842.103C457.464 832.481 452.17 823.128 446.566 813.228C434.398 791.734 421.815 769.509 414.86 744.873C410.943 730.973 409.253 715.896 409.831 700ZM921.971 181.691C900.335 194.533 873.74 202.743 845.592 211.437C832.48 215.487 818.921 219.673 805.462 224.46C765.313 238.746 732.571 258.454 708.142 283.027C685.938 305.423 668.259 334.831 654.098 372.919C642.403 404.088 626.929 435.249 608.032 465.688L607.895 465.91L607.665 466.049C597.705 472.089 588.191 476.717 578.116 481.618C567.366 486.844 556.252 492.254 544.573 499.523C502.291 525.853 463.857 565.111 439.126 607.228C413.061 651.616 404.465 702.804 416.141 744.15C423.072 768.699 435.632 790.886 447.779 812.344C453.141 821.816 458.686 831.61 463.51 841.248C474.021 862.258 471.802 886.754 468.092 903.606C460.654 937.353 473.073 968.079 499.723 981.901C525.345 995.188 570.457 991.244 607.102 958C620.767 945.601 633.857 932.298 647.716 918.211C668.537 897.05 690.067 875.166 713.508 856.864C755.544 824.037 803.686 803.113 850.241 782.881C868.347 775.013 887.07 766.874 905.17 758.152C969.711 727.049 1028.07 683.041 1069.49 634.235C1112.22 583.892 1135.85 524.219 1132.7 474.627L1133.36 474.356L1132.7 474.627C1129.87 430.03 1099.71 400.005 1081.98 386.079C1067.15 374.43 1062.81 358.421 1060.32 342.86C1059.62 338.469 1058.96 333.903 1058.28 329.243C1054.82 305.446 1050.91 278.478 1039.45 260.065C1026.63 239.451 1002.96 229.035 983.191 235.298L982.671 235.462L982.577 235.051C975.938 206.449 956.112 188.991 921.971 181.691Z" fill="#6666F2"/>
<path d="M413.772 687.895C414.91 656.853 424.994 623.763 443.198 593.477C469.484 549.746 510.383 509.39 555.414 482.762C568.075 475.272 580.27 469.652 592.064 464.215C603.066 459.144 613.463 454.352 624.249 448.157C638.577 430.964 660.746 396.977 676.265 357.519C686.341 331.893 701.336 299.028 728.079 272.136C751.275 248.868 783.499 229.906 821.266 217.3C834.898 212.75 848.525 208.918 861.704 205.211C886.624 198.201 910.159 191.585 929.283 181.337L929.545 181.196L929.762 181.258C963.853 190.911 983.483 211.983 988.108 243.885C1005.96 240.378 1026.16 251.808 1037.38 271.831C1046.35 287.846 1050.07 309.329 1053.67 330.105C1054.88 337.14 1056.03 343.785 1057.37 350.085C1061.28 368.564 1068.27 380.27 1080.73 389.225C1111.62 411.419 1129.96 444.042 1131.04 478.727C1132.59 527.757 1107.99 586.34 1065.28 635.385C1024.3 682.451 966.935 724.984 903.763 755.15C886.026 763.62 867.695 771.532 849.968 779.183C802.929 799.49 754.289 820.479 712.192 853.904C690.742 870.932 670.914 891.164 651.738 910.728C637.579 925.171 622.94 940.105 608.117 953.202C590.246 968.991 569.322 979.178 547.605 982.661C527.939 985.695 510.066 983.141 496.186 975.311C469.501 959.865 457.911 926.624 466.649 890.632C473.091 864.098 472.6 843.251 465.137 826.907C459.877 815.389 453.361 803.842 447.058 792.683C436.594 774.154 425.771 754.994 419.392 734.041C415.069 719.836 413.179 704.316 413.772 687.895ZM929.254 182.435C910.009 192.694 886.486 199.308 861.592 206.308C848.433 210.009 834.823 213.837 821.228 218.377C795.084 227.104 757.828 243.618 728.802 272.732C702.307 299.373 687.414 332.031 677.399 357.505C661.768 397.262 639.39 431.511 624.975 448.767L624.857 448.907L624.699 448.997C613.781 455.281 602.811 460.336 592.204 465.226C580.452 470.642 568.303 476.244 555.725 483.681C510.979 510.144 470.336 550.246 444.213 593.705C416.713 639.456 407.876 691.664 420.577 733.364C426.934 754.242 437.738 773.372 448.184 791.87C454.493 803.045 461.017 814.599 466.29 826.144C473.831 842.651 474.331 863.69 467.835 890.444C459.182 926.072 470.661 958.969 497.076 974.262C522.204 988.811 569.443 986.133 607.496 952.51C622.262 939.462 636.875 924.554 651.008 910.137C670.229 890.529 690.103 870.252 711.655 853.14C753.961 819.55 802.721 798.504 849.873 778.154C867.584 770.509 885.899 762.605 903.606 754.149C966.539 724.098 1023.67 681.742 1064.47 634.886C1106.92 586.14 1131.35 527.953 1129.83 479.193L1130.43 478.96L1129.83 479.193C1128.75 444.736 1110.51 412.314 1079.79 390.234C1067.18 381.18 1060.12 369.356 1056.17 350.696C1054.83 344.383 1053.68 337.731 1052.46 330.689C1048.88 309.975 1045.17 288.554 1036.25 272.638C1025.09 252.72 1005.02 241.394 987.457 245.1L987.008 245.195L986.957 244.817C982.477 213.061 963.064 192.074 929.254 182.435Z" fill="#6666F2"/>
<path d="M417.406 675.62C418.555 644.279 429.066 610.691 448.117 579.679C476.329 534.131 518.445 493.887 566.418 466.637C579.96 458.996 593.167 453.187 605.941 447.57C617.483 442.495 629.417 437.246 641.222 430.768C657.506 415.181 682.499 382.539 699.517 341.674C711.014 314.066 724.926 285.236 748.676 261.433C776.616 233.499 812.119 218.485 836.981 210.81C850.955 206.5 864.803 203.061 878.197 199.739C899.687 194.408 919.984 189.372 936.623 181.641L936.859 181.53L937.042 181.596C970.839 193.614 989.981 218.42 992.422 253.345C1007.65 252.531 1024.75 265.093 1034.11 284.035C1040.84 297.643 1044.26 315.14 1047.56 332.063C1049.33 341.128 1051 349.691 1053.13 357.513C1057.47 373.48 1065.29 384.441 1078.46 393.051C1109.58 413.396 1128.14 447.026 1128.11 483.015C1128.09 531.199 1102.69 588.247 1060.2 635.751C1019.86 680.841 963.725 721.726 902.121 750.872C884.767 759.083 866.828 766.771 849.48 774.204C801.82 794.626 752.538 815.745 710.164 849.965C690.37 865.952 672.019 884.778 654.27 902.983C639.406 918.231 624.036 933.997 608.243 947.584C567.821 982.365 518.87 983.798 493.331 967.497C463.778 948.63 462.269 908.084 466.217 877.381C466.762 873.121 467.482 868.768 468.24 864.157C471.217 846.118 474.293 827.466 467.734 811.567C462.38 798.585 455.115 785.833 448.084 773.499C438.959 757.486 429.524 740.927 423.641 723.016C418.889 708.525 416.789 692.567 417.406 675.62ZM936.514 182.672C919.782 190.406 899.509 195.435 878.051 200.759C864.677 204.077 850.849 207.506 836.911 211.809C812.232 219.427 777.005 234.315 749.333 261.982C725.8 285.571 711.976 314.229 700.542 341.687C683.397 382.859 658.157 415.768 641.756 431.439L641.557 431.583C629.651 438.127 617.643 443.407 606.033 448.513C593.299 454.112 580.13 459.903 566.664 467.502C518.961 494.598 477.081 534.615 449.029 579.907C420.024 627.123 410.938 680.379 424.727 722.377C430.589 740.232 440.01 756.763 449.12 772.75C456.156 785.098 463.432 797.865 468.801 810.882C475.437 826.973 472.201 846.594 469.347 863.902C468.588 868.5 467.872 872.844 467.327 877.088C463.414 907.571 464.889 947.847 494.171 966.543C519.418 982.659 567.78 981.261 607.688 946.928C623.418 933.393 638.759 917.656 653.594 902.441C671.379 884.193 689.774 865.327 709.656 849.269C752.23 814.889 801.625 793.72 849.392 773.252C866.727 765.823 884.652 758.142 901.977 749.946C963.369 720.903 1019.29 680.172 1059.46 635.266C1101.72 588.033 1126.94 531.26 1127 483.412L1127.56 483.21L1127 483.412C1127.02 447.654 1108.56 414.225 1077.61 393.992C1064.31 385.299 1056.42 374.23 1052.03 358.111C1049.9 350.267 1048.22 341.692 1046.45 332.613C1043.16 315.734 1039.75 298.279 1033.06 284.749C1022.18 262.729 1003.99 253.59 991.705 254.419L991.346 254.443L991.325 254.12C988.999 219.365 970.048 194.663 936.514 182.672Z" fill="#6666F2"/>
<path d="M421.123 663.988C422.293 632.068 433.257 597.375 452.975 565.928C481.991 519.658 527.329 477.606 577.371 450.551C589.544 443.97 601.727 439.235 613.513 434.656C629.031 428.628 643.688 422.934 658.131 413.429C676.312 401.464 703.338 369.741 722.729 325.855C734.196 299.903 747.234 272.728 769.232 250.751C795.839 224.249 829.285 210.888 852.659 204.341C867.263 200.25 881.539 197.301 895.349 194.439C913.148 190.756 929.958 187.274 943.929 181.967L944.133 181.89L944.283 181.954C978.281 196.559 996.394 224.521 996.686 262.832C1007.34 264.458 1021.95 275.378 1030.82 296.267C1035.58 307.491 1038.48 321.313 1041.29 334.673C1043.58 345.612 1045.75 355.943 1048.86 364.971C1053.64 378.872 1061.8 388.423 1076.16 396.908C1108.09 415.773 1126.4 449.576 1125.17 487.331L1125.15 487.865C1123.42 534.917 1097.26 590.301 1055.08 636.151C1014.86 679.877 961.387 718.08 900.45 746.635C883.473 754.59 865.924 762.052 848.951 769.272C800.666 789.805 750.735 811.042 708.098 846.075C689.784 861.121 672.768 878.7 656.315 895.7C640.908 911.619 624.975 928.079 608.328 942.02C566.047 977.43 516.034 977.576 490.438 959.737C466.834 943.285 458.064 909.315 465.761 864.088C466.525 859.588 467.474 855.006 468.479 850.161C472.315 831.656 476.28 812.524 470.296 796.267C465.106 782.166 457.255 768.645 449.663 755.574C441.617 741.724 433.298 727.402 427.857 712.026C422.737 697.442 420.467 681.249 421.123 663.988ZM943.752 182.929C929.719 188.234 912.937 191.706 895.175 195.384C881.386 198.239 867.122 201.191 852.568 205.264C829.369 211.758 796.184 225.01 769.839 251.255C748.036 273.031 735.068 300.064 723.661 325.893C704.14 370.07 676.85 402.055 658.461 414.154C643.874 423.755 629.143 429.478 613.546 435.536C601.803 440.099 589.66 444.816 577.578 451.349C527.788 478.268 482.677 520.107 453.813 566.14C423.689 614.182 414.117 669.854 428.84 711.434C434.266 726.757 442.57 741.057 450.603 754.888C458.207 767.981 466.07 781.52 471.276 795.667C477.326 812.106 473.339 831.355 469.478 849.97C468.476 854.808 467.527 859.38 466.765 863.862C462.341 889.907 459.636 936.863 491.224 958.879C516.559 976.536 566.037 976.413 607.837 941.408C624.415 927.525 640.314 911.097 655.689 895.212C672.177 878.178 689.227 860.563 707.619 845.451C750.448 810.261 800.486 788.98 848.878 768.4C865.839 761.187 883.376 753.729 900.326 745.787C961.068 717.326 1014.36 679.257 1054.43 635.695C1096.38 590.088 1122.41 534.996 1124.12 488.203L1124.14 487.672L1124.65 487.502L1124.14 487.672C1125.37 450.147 1107.16 416.544 1075.41 397.783C1060.93 389.227 1052.7 379.587 1047.87 365.557C1044.75 356.494 1042.58 346.143 1040.28 335.187C1037.48 321.854 1034.58 308.067 1029.84 296.893C1020.99 276.032 1006.43 265.217 995.922 263.753L995.666 263.718L995.665 263.46C995.458 225.333 977.505 197.494 943.752 182.929Z" fill="#6666F2"/>
<path d="M424.625 651.783C425.806 619.584 437.226 584.36 457.85 552.1C488.202 504.62 535.759 461.718 588.328 434.395C601.61 427.491 614.94 422.386 627.834 417.447C644.158 411.196 659.575 405.29 675.03 396.026C696.159 383.361 726.28 351.843 745.947 309.979L746.473 308.858C757.113 286.204 769.173 260.527 789.797 240.015C809.548 220.422 837.438 205.438 868.34 197.822C883.969 193.968 898.956 191.665 913.449 189.431C927.206 187.313 940.198 185.312 951.235 182.25L951.397 182.203L951.516 182.263C984.928 199.138 1002.46 230.699 1000.98 271.219C1000.96 271.567 1000.95 271.916 1000.94 272.264C1008.67 275.925 1020.21 287.548 1027.51 308.445C1030.59 317.224 1032.8 327.55 1034.94 337.533C1037.56 349.746 1040.27 362.376 1044.58 372.373C1050.86 386.962 1062.36 394.611 1073.86 400.704C1106.2 417.84 1124.73 452.688 1122.2 491.577C1119.21 537.716 1092.21 591.887 1049.96 636.472C1010.47 678.15 958.193 714.75 898.773 742.31C882.175 750.01 865.011 757.253 848.411 764.255C799.497 784.894 748.917 806.235 706.031 842.092C689.051 856.291 673.255 872.751 657.982 888.666C642.17 905.142 625.82 922.181 608.42 936.357C588.838 952.311 565.334 962.347 542.24 964.615C520.687 966.633 501.629 962.195 487.559 951.88C454.99 927.307 459.641 877.945 465.31 850.713C466.301 845.954 467.489 841.131 468.746 836.028C473.412 817.085 478.235 797.503 472.864 780.882C468.032 765.932 459.719 752.008 451.679 738.543C444.528 726.566 437.13 714.177 432.077 700.962C426.465 686.155 423.949 669.554 424.625 651.783ZM950.978 183.136C939.915 186.19 926.951 188.188 913.233 190.297C898.763 192.524 883.8 194.829 868.217 198.67C837.554 206.229 809.896 221.076 790.333 240.478C769.893 260.808 757.888 286.367 747.296 308.923L746.77 310.039C726.976 352.175 696.595 383.932 675.267 396.721C659.705 406.049 643.511 412.252 627.851 418.25C614.994 423.174 601.699 428.267 588.486 435.133C536.15 462.335 488.809 505.042 458.59 552.307C426.846 601.968 417.023 658.724 432.956 700.416C437.992 713.595 445.378 725.963 452.52 737.924C460.575 751.413 468.903 765.362 473.751 780.368C479.177 797.164 474.329 816.851 469.637 835.895C468.383 840.99 467.197 845.806 466.208 850.549C460.568 877.639 455.936 926.724 488.277 951.125C513.671 970.288 564.26 971.429 607.987 935.799C625.309 921.688 641.629 904.683 657.406 888.239C672.708 872.295 688.534 855.803 705.582 841.549C748.644 805.543 799.325 784.16 848.341 763.48C864.93 756.479 882.084 749.243 898.659 741.554C957.908 714.072 1010.03 677.591 1049.38 636.056C1091.42 591.683 1118.3 537.783 1121.27 491.872C1123.79 453.125 1105.36 418.559 1073.19 401.517C1061.62 395.383 1050.03 387.677 1043.69 372.951C1039.37 362.906 1036.65 350.25 1034.02 338.009C1031.88 328.044 1029.67 317.738 1026.61 308.989C1019.31 288.098 1007.79 276.556 1000.14 273.019L999.99 272.949L999.997 272.763C1000.01 272.355 1000.03 271.942 1000.05 271.535C1001.53 231.287 984.134 199.932 950.978 183.136Z" fill="#6666F2"/>
<path d="M428.066 639.69C429.257 607.228 441.153 571.449 462.718 538.326C494.395 489.664 544.173 445.912 599.283 418.292C613.722 411.054 628.263 405.57 642.323 400.27C658.67 394.106 675.571 387.733 691.92 378.675C714.204 366.332 747.815 336.785 769.166 294.145C770.136 292.21 771.109 290.256 772.085 288.284C782.19 267.922 792.641 246.865 810.36 229.327C835.69 204.321 867.383 194.803 884.02 191.352C901.289 187.772 918.027 186.414 932.793 185.217C942.062 184.466 950.82 183.756 958.534 182.589L958.657 182.57L958.741 182.621C992.625 202.34 1009.11 237.54 1005.17 281.748C1012.6 289.507 1019.71 304.056 1024.2 320.687C1025.85 326.81 1027.18 333.366 1028.6 340.299C1031.49 354.419 1034.48 369.021 1040.28 379.844C1046.94 392.239 1058.38 398.372 1071.55 404.564C1104.9 420.25 1123.18 455.254 1119.23 495.887C1114.86 540.961 1087.05 593.661 1044.83 636.859C1006.13 676.472 955.037 711.463 897.088 738.059C880.867 745.504 864.089 752.524 847.862 759.313C798.309 780.046 747.07 801.487 703.95 838.188C688.176 851.612 673.498 867.06 659.303 881.999C643.21 898.935 626.566 916.45 608.501 930.766C588.237 946.821 564.059 956.704 540.42 958.595C518.243 960.279 498.795 955.222 484.663 944.097C460.362 924.383 453.138 885.499 464.844 837.409C466.07 832.371 467.505 827.291 469.023 821.913C474.487 802.568 480.134 782.562 475.419 765.565C471.092 749.978 462.409 735.948 454.008 722.379C447.603 712.031 440.981 701.329 436.277 689.955C430.138 674.96 427.362 657.967 428.066 639.69ZM958.221 183.383C950.505 184.543 941.778 185.248 932.54 185.999C917.799 187.195 901.091 188.549 883.877 192.118C867.367 195.539 835.926 204.979 810.846 229.741C793.283 247.124 782.881 268.086 772.818 288.359C771.84 290.33 770.868 292.285 769.9 294.224C748.415 337.129 714.564 366.878 692.101 379.318C675.671 388.417 658.726 394.807 642.34 400.984C628.307 406.277 613.797 411.749 599.414 418.956C544.514 446.474 494.933 490.05 463.382 538.517C429.925 589.908 419.842 647.745 437.075 689.45C441.76 700.793 448.373 711.479 454.768 721.811C463.184 735.408 471.884 749.469 476.228 765.118C480.987 782.271 475.311 802.375 469.822 821.816C468.306 827.186 466.872 832.259 465.651 837.284C453.999 885.134 461.171 923.828 485.327 943.425C511.118 964.347 564.106 965.139 608.136 930.25C626.124 915.996 642.731 898.517 658.793 881.618C673.011 866.648 687.716 851.178 703.547 837.703C746.829 800.862 798.163 779.384 847.809 758.611C864.026 751.825 880.794 744.811 896.996 737.374C954.799 710.843 1005.75 675.951 1044.33 636.468C1086.37 593.455 1114.06 540.992 1118.41 496.125C1122.33 455.704 1104.16 420.899 1070.98 405.297C1057.74 399.071 1046.23 392.9 1039.52 380.388C1033.68 369.508 1030.69 354.87 1027.79 340.716C1026.38 333.786 1025.04 327.242 1023.39 321.135C1018.91 304.519 1011.81 290.006 1004.4 282.311L1004.33 282.236L1004.34 282.111C1008.3 238.097 991.919 203.037 958.221 183.383Z" fill="#6666F2"/>
<path d="M431.534 627.88C431.796 620.741 432.583 613.436 433.889 606.009C438.493 579.186 450.053 551.212 467.563 524.519C500.561 474.696 552.556 430.094 610.216 402.15C625.854 394.573 641.656 388.712 656.938 383.043C673.994 376.716 691.632 370.175 708.79 361.298C734.96 347.758 770.661 318.841 792.38 278.282C794.014 275.229 795.67 272.051 797.27 268.977C806.339 251.565 815.711 233.567 830.921 218.595C848.495 201.34 873.559 189.035 899.688 184.841C919.56 181.652 938.493 182.195 953.708 182.632C957.984 182.756 962.024 182.872 965.82 182.904L965.955 182.945C982.547 193.886 994.967 209.144 1002.44 227.767C1009.92 246.391 1012.28 267.979 1009.4 291.184C1013.71 301.366 1017.79 316.177 1020.87 332.897C1021.42 335.864 1021.93 338.878 1022.47 342.067C1025.15 357.803 1028.17 375.637 1035.99 387.284C1042.94 397.641 1054.41 402.334 1066.56 407.299L1069.23 408.395C1103.2 422.384 1121.66 458.403 1116.26 500.167C1113.42 522.137 1104.8 546.377 1091.34 570.268C1077.89 594.015 1060.34 616.758 1039.7 637.221C1001.83 674.722 951.931 708.109 895.395 733.776C879.555 740.966 863.161 747.765 847.311 754.338C797.109 775.159 745.197 796.688 701.861 834.251C687.182 846.974 673.53 861.503 660.326 875.555C644.058 892.869 627.235 910.772 608.573 925.144C587.617 941.286 562.762 951.011 538.586 952.533C516.021 953.952 495.303 948.028 481.758 936.284C456.956 914.785 450.617 873.891 464.367 824.076C465.841 818.743 467.605 813.147 469.314 807.734C475.541 787.997 481.981 767.585 477.966 750.212C474.258 734.165 465.279 720.276 456.594 706.842C450.828 697.925 444.864 688.695 440.481 678.904C433.823 663.837 430.793 646.557 431.534 627.88ZM965.457 183.591C961.678 183.56 957.662 183.442 953.412 183.322C937.434 182.864 919.327 182.345 899.524 185.523C873.598 189.687 848.747 201.874 831.339 218.964C816.263 233.805 806.931 251.724 797.906 269.054C796.304 272.13 794.647 275.31 793.009 278.37C771.165 319.161 735.247 348.251 708.916 361.874C691.698 370.783 674.029 377.337 656.943 383.675C641.684 389.334 625.905 395.188 610.315 402.742C552.841 430.596 501.023 475.045 468.139 524.691C432.885 577.929 422.544 636.852 441.169 678.452C445.539 688.215 451.494 697.428 457.253 706.337C465.956 719.798 474.954 733.718 478.679 749.836C482.73 767.357 476.261 787.851 470.006 807.672C468.3 813.077 466.537 818.666 465.069 823.985C451.374 873.581 457.673 914.304 482.349 935.699C508.155 958.075 562.309 960.069 608.261 924.677C626.843 910.363 643.632 892.499 659.867 875.219C673.09 861.146 686.765 846.593 701.492 833.829C744.978 796.136 796.978 774.571 847.264 753.714C863.108 747.146 879.487 740.35 895.316 733.165C951.727 707.557 1001.51 674.254 1039.27 636.854C1081.37 595.159 1109.88 544.129 1115.53 500.35C1120.9 458.805 1102.54 422.968 1068.75 409.043L1066.08 407.946C1053.87 402.956 1042.35 398.242 1035.33 387.79C1027.47 376.071 1024.43 358.189 1021.75 342.411C1021.21 339.222 1020.7 336.211 1020.15 333.247C1017.07 316.527 1012.99 301.725 1008.67 291.569L1008.65 291.512L1008.66 291.44C1011.55 268.325 1009.2 246.818 1001.77 228.262C994.332 209.706 981.972 194.5 965.457 183.591Z" fill="#6666F2"/>
<path d="M434.948 616.144C436.169 582.896 449.076 545.37 472.409 510.708C506.714 459.745 560.927 414.292 621.149 386.006C638.022 378.082 655.136 371.839 671.687 365.801C689.423 359.33 707.762 352.64 725.658 343.913C763.147 325.627 796.768 295.158 815.595 262.402C817.802 258.565 819.988 254.549 822.1 250.665C830.149 235.876 838.473 220.581 851.477 207.866C867.925 191.816 891.803 180.776 915.355 178.333C939.342 175.848 960.4 177.634 973.128 183.238C1013 200.791 1014.99 250.837 1013.61 300.597C1013.39 308.806 1014.47 317.919 1015.72 328.472C1016.34 333.768 1016.99 339.24 1017.54 345.105C1019.19 362.986 1021.79 383.042 1031.68 394.73C1038.53 402.818 1048.83 406.21 1059.74 409.802C1062.09 410.576 1064.51 411.377 1066.91 412.23C1084.24 418.38 1097.77 430.465 1106.03 447.18C1114.12 463.372 1116.61 483.06 1113.27 504.446C1109.74 526.327 1100.76 549.412 1086.6 573.057C1072.73 596.06 1055.06 617.957 1034.55 637.576C997.059 673.449 949.668 704.374 893.69 729.491C878.232 736.428 862.234 743.003 846.757 749.363C795.89 770.265 743.295 791.876 699.757 830.318C686.078 842.395 673.369 856.091 661.078 869.337C644.734 886.95 627.832 905.163 608.636 919.524C586.98 935.728 561.444 945.293 536.741 946.452C513.517 947.542 492.414 940.991 478.844 928.479C465.731 916.392 457.966 899.206 455.764 877.401C453.764 857.642 456.573 834.599 463.879 810.747C465.604 805.114 467.64 799.233 469.607 793.545C476.566 773.436 483.764 752.636 480.502 734.864C477.495 718.495 468.285 704.963 459.377 691.878C454.157 684.213 448.76 676.284 444.667 667.866C437.457 652.766 434.159 635.214 434.948 616.144ZM1114.06 490.438C1115.41 453.537 1097.65 423.843 1066.51 412.795C1064.12 411.947 1061.69 411.148 1059.34 410.375C1048.39 406.768 1038.04 403.359 1031.13 395.199C1021.18 383.436 1018.57 363.313 1016.91 345.376C1016.36 339.515 1015.71 334.043 1015.09 328.751C1013.84 318.183 1012.76 309.055 1012.98 300.807C1014.36 251.18 1012.38 201.265 972.702 183.798C960.043 178.225 939.077 176.448 915.177 178.928C891.81 181.35 868.134 192.285 851.841 208.185C838.949 220.79 830.66 236.02 822.644 250.75C820.528 254.638 818.341 258.659 816.13 262.505C805.749 280.453 791.581 297.353 774.845 311.751C759.711 324.875 743.05 335.962 725.752 344.419C707.809 353.167 689.448 359.868 671.692 366.344C655.159 372.376 638.061 378.613 621.229 386.52C561.171 414.73 507.112 460.05 472.909 510.858C436.299 565.245 425.44 626.713 445.26 667.453C449.342 675.85 454.732 683.766 459.946 691.423C468.874 704.536 478.105 718.099 481.125 734.543C484.419 752.45 477.188 773.316 470.204 793.496C468.237 799.176 466.205 805.051 464.481 810.673C448.762 861.996 454.185 904.75 479.365 927.963C505.164 951.752 560.476 954.938 608.385 919.096C627.504 904.791 644.37 886.616 660.682 869.038C672.99 855.774 685.719 842.057 699.437 829.946C743.11 791.384 795.785 769.74 846.726 748.807C862.197 742.449 878.189 735.88 893.635 728.95C949.505 703.886 996.799 673.024 1034.2 637.236C1076.43 596.822 1105.76 547.229 1112.65 504.572C1113.42 499.779 1113.89 495.06 1114.06 490.438Z" fill="#6666F2"/>
<path d="M438.159 604.209C439.506 569.809 453.205 532.205 477.259 496.881C512.864 444.796 569.297 398.495 632.083 369.848C650.22 361.569 668.686 354.947 686.543 348.538C704.927 341.943 723.936 335.12 742.519 326.517C766.981 315.191 812.019 289.739 838.808 246.527C841.504 242.179 844.097 237.611 846.603 233.194C853.676 220.731 860.987 207.844 872.033 197.132C887.432 182.217 910.029 172.522 931.008 171.829C949.85 171.207 967.828 175.487 980.337 183.571C997.821 194.868 1009.72 212.741 1015.71 236.69C1020.88 257.36 1021.59 282.028 1017.82 309.997C1015.55 326.073 1014.34 341.875 1014.18 357.314C1014.06 378.908 1018.49 394.002 1027.36 402.176C1034.25 408.526 1043.91 410.864 1054.15 413.338C1057.59 414.171 1061.15 415.032 1064.57 416.055C1100.57 426.805 1118.94 464.04 1110.27 508.708C1106.1 530.189 1096.54 552.773 1081.85 575.834C1067.57 598.086 1049.78 619.137 1029.39 637.917C992.903 671.582 946.671 700.943 891.979 725.185C876.91 731.865 861.305 738.214 846.216 744.353C794.671 765.327 741.371 787.014 697.645 826.359C684.882 837.843 673.046 850.776 661.599 863.283C645.267 881.128 628.379 899.578 608.697 913.873C586.314 930.129 560.096 939.528 534.871 940.341C510.766 941.17 490.133 934.274 475.927 920.64C462.657 907.74 455.031 889.634 453.262 866.829C451.65 846.036 455.15 822.025 463.388 797.39C465.377 791.444 467.684 785.276 469.918 779.31C477.576 758.838 485.495 737.662 483.041 719.486C480.803 702.91 471.419 689.932 462.346 677.381C457.598 670.814 452.69 664.024 448.855 656.797C440.973 641.652 437.334 623.764 438.159 604.209ZM1019.49 285.04C1021.25 237.26 1007.55 201.862 979.943 184.022C967.49 175.973 949.587 171.714 930.828 172.335C910.006 173.024 887.595 182.631 872.339 197.412C861.383 208.037 854.103 220.867 847.057 233.281C844.548 237.705 841.953 242.279 839.248 246.643C828.621 263.782 813.956 279.855 795.659 294.415C778.965 307.513 761.015 318.519 742.582 326.959C723.968 335.577 704.943 342.404 686.542 349.008C668.697 355.412 650.247 362.032 632.138 370.293C569.489 398.875 513.191 445.065 477.674 497.022C439.055 553.514 427.938 616.094 449.354 656.448C453.18 663.662 458.083 670.443 462.824 676.998C471.918 689.578 481.323 702.583 483.572 719.241C486.045 737.531 478.099 758.763 470.417 779.295C468.187 785.255 465.883 791.417 463.897 797.353C446.399 849.674 451.064 895.608 476.375 920.223C505.71 948.964 563.743 946.017 608.494 913.515C628.101 899.275 644.957 880.856 661.259 863.048C672.72 850.526 684.573 837.577 697.366 826.062C741.215 786.613 794.581 764.896 846.196 743.896C861.283 737.757 876.88 731.411 891.939 724.736C946.544 700.533 992.696 671.225 1029.11 637.628C1072.19 597.88 1101.58 550.926 1109.75 508.808C1118.38 464.318 1100.1 427.241 1064.26 416.535C1060.85 415.516 1057.29 414.656 1053.86 413.826C1043.58 411.339 1033.87 408.991 1026.93 402.593C1018 394.361 1013.54 379.19 1013.66 357.498C1013.81 342.04 1015.03 326.22 1017.3 310.125C1018.47 301.437 1019.2 293.075 1019.49 285.04Z" fill="#6666F2"/>
<path d="M441.392 592.806C441.671 585.36 442.553 577.723 444.03 569.955C449.46 541.191 462.556 511.293 482.1 483.046C500.944 455.88 525.164 430.492 554.088 407.587C581.996 385.631 612.121 367.369 643.017 353.679C662.453 345.053 682.315 338.035 701.521 331.254C720.523 324.543 740.175 317.602 759.389 309.108C791.761 294.793 835.852 269.56 862.036 230.634C865.164 225.977 868.05 221.103 870.84 216.385C876.972 206.016 883.313 195.293 892.605 186.374C907.039 172.516 928.27 164.24 946.682 165.3C961.31 166.138 974.687 172.214 987.562 183.875C1004.27 199.251 1015.93 219.154 1021.85 242.419C1027.77 265.683 1027.84 291.842 1022.05 319.364C1020.77 325.302 1019.19 331.394 1017.66 337.285C1014.89 347.961 1012.02 359.004 1010.85 369.501C1008.73 388.389 1013.07 402.623 1023.06 409.61C1030.07 414.514 1039.82 416.023 1049.24 417.478C1053.58 418.151 1058.08 418.844 1062.26 419.865C1080.83 424.389 1094.91 436.032 1102.98 453.541C1110.68 470.371 1112.16 490.902 1107.29 512.959C1097.99 553.987 1067.72 599.654 1024.25 638.247C988.358 670.108 944.537 697.134 890.279 720.876C875.61 727.295 860.416 733.412 845.721 739.334C793.474 760.374 739.448 782.129 695.54 822.411C683.614 833.35 672.581 845.587 661.913 857.421C645.675 875.429 628.885 894.055 608.765 908.231C585.662 924.508 558.77 933.725 533.042 934.186C508.322 934.689 487.303 927.205 473.016 912.814C447.19 886.232 443.411 838.093 462.901 784.041C465.158 777.782 467.736 771.329 470.232 765.091C478.558 744.258 487.168 722.715 485.584 704.114C484.163 687.421 474.664 675.169 465.477 663.318C461.138 657.72 456.651 651.931 453.045 645.727C444.499 630.73 440.523 612.677 441.392 592.806ZM1025.77 286.826C1027.3 245.226 1013.74 208.258 987.2 184.22C974.368 172.601 961.055 166.544 946.491 165.709C928.212 164.662 907.155 172.861 892.846 186.599C883.625 195.452 877.309 206.133 871.199 216.464C868.405 221.187 865.514 226.073 862.376 230.742C836.101 269.81 791.888 295.118 759.426 309.47C740.183 317.977 720.526 324.92 701.514 331.632C682.318 338.412 662.467 345.423 643.053 354.041C577.808 383.006 519.266 430.069 482.438 483.159C442.31 541.008 430.657 606.218 453.446 645.427C457.045 651.616 461.528 657.4 465.862 662.993C475.07 674.87 484.585 687.153 486.018 703.922C487.61 722.599 478.979 744.205 470.633 765.082C468.14 771.318 465.563 777.765 463.311 784.015C443.866 837.94 447.627 885.963 473.385 912.47C502.727 942.672 562.125 940.675 608.609 907.924C628.66 893.796 645.422 875.205 661.631 857.227C672.31 845.38 683.354 833.131 695.307 822.166C739.311 781.798 793.398 760.021 845.703 738.956C860.393 733.041 875.583 726.925 890.242 720.51C944.433 696.799 988.194 669.811 1024.02 638.005C1067.39 599.5 1097.59 553.948 1106.86 513.033C1117.21 467.366 1098.76 429.222 1062.01 420.272C1057.84 419.252 1053.35 418.562 1049.01 417.89C1039.55 416.429 1029.78 414.918 1022.72 409.979C1012.66 402.936 1008.28 388.603 1010.41 369.618C1011.59 359.092 1014.46 348.038 1017.23 337.346C1018.76 331.459 1020.34 325.371 1021.62 319.44C1024 308.328 1025.39 297.418 1025.77 286.826Z" fill="#6666F2"/>
</g>
</g>
<defs>
<clipPath id="clip0_2331_199">
<rect width="1287.35" height="1163.78" fill="white" transform="translate(0 137.562) rotate(-12.2823)"/>
</clipPath>
</defs>
</svg>
