<svg width="368" height="277" viewBox="0 0 368 277" fill="none" xmlns="http://www.w3.org/2000/svg">
<g filter="url(#filter0_d_2707_595)">
<rect x="26.3828" y="19" width="314.692" height="224.061" rx="13.8631" fill="white"/>
</g>
<rect x="31.6016" y="23.9062" width="306.938" height="213.577" rx="6.39454" fill="white"/>
<path d="M35.4453 30.7318C35.4453 28.3774 37.3539 26.4688 39.7083 26.4688H97.4723V237.488H39.7083C37.3539 237.488 35.4453 235.58 35.4453 233.225V30.7318Z" fill="#F9F9F9"/>
<rect x="52.7031" y="37.7695" width="33.0384" height="3.19727" rx="1.59863" fill="#ECECEC"/>
<path d="M48.6743 37.4429L47.1592 36.5667C46.869 36.3996 46.4148 36.3996 46.1247 36.5667L44.5949 37.4488C43.9883 37.8591 43.9531 37.9206 43.9531 38.5741V40.1654C43.9531 40.8189 43.9883 40.8834 44.6066 41.2996L46.1217 42.1758C46.2683 42.2608 46.4558 42.3018 46.6405 42.3018C46.8251 42.3018 47.0126 42.2608 47.1562 42.1758L48.686 41.2937C49.2926 40.8834 49.3278 40.8219 49.3278 40.1684V38.5741C49.3278 37.9206 49.2926 37.8591 48.6743 37.4429Z" fill="#A1A1A1"/>
<path d="M46.6399 40.3228C47.166 40.3228 47.5924 39.8964 47.5924 39.3704C47.5924 38.8444 47.166 38.418 46.6399 38.418C46.1139 38.418 45.6875 38.8444 45.6875 39.3704C45.6875 39.8964 46.1139 40.3228 46.6399 40.3228Z" fill="white"/>
<rect x="43.125" y="58.5742" width="33.0384" height="3.19727" rx="1.59863" fill="#ECECEC"/>
<rect x="43.125" y="77.8438" width="33.0384" height="3.19727" rx="1.59863" fill="#ECECEC"/>
<rect x="43.125" y="123.238" width="33.0384" height="3.19727" rx="1.59863" fill="#ECECEC"/>
<rect x="43.125" y="87.2148" width="24.0861" height="3.19727" rx="1.59863" fill="#ECECEC"/>
<rect x="43.125" y="132.621" width="24.0861" height="3.19727" rx="1.59863" fill="#ECECEC"/>
<rect x="43.125" y="100.707" width="24.0861" height="3.19727" rx="1.59863" fill="#ECECEC"/>
<rect x="43.125" y="142" width="28.3491" height="3.19727" rx="1.59863" fill="#ECECEC"/>
<g clip-path="url(#clip0_2707_595)">
<path d="M305.283 38.4077C305.283 38.0685 305.148 37.7433 304.908 37.5035C304.669 37.2636 304.343 37.1289 304.004 37.1289C303.665 37.1289 303.34 37.2636 303.1 37.5035C302.86 37.7433 302.725 38.0685 302.725 38.4077C302.725 39.8996 302.086 40.3259 302.086 40.3259H305.922C305.922 40.3259 305.283 39.8996 305.283 38.4077Z" stroke="black" stroke-width="0.426302" stroke-linecap="round" stroke-linejoin="round"/>
<path d="M304.37 41.1797C304.333 41.2443 304.279 41.2979 304.214 41.3352C304.15 41.3724 304.076 41.3921 304.002 41.3921C303.927 41.3921 303.853 41.3724 303.789 41.3352C303.724 41.2979 303.67 41.2443 303.633 41.1797" stroke="black" stroke-width="0.426302" stroke-linecap="round" stroke-linejoin="round"/>
</g>
<circle cx="320.422" cy="39.2502" r="5.32831" fill="#CCCCCC" fill-opacity="0.2"/>
<g clip-path="url(#clip1_2707_595)">
<path d="M331.303 39.8971L330.398 38.9928L330.7 38.6914L331.303 39.2944L331.905 38.6914L332.207 38.9928L331.303 39.8971Z" fill="#23262F"/>
</g>
<path d="M43.125 114.289H89.592" stroke="#C4C4C4" stroke-width="0.213151"/>
<g clip-path="url(#clip2_2707_595)">
<path d="M290.189 40.7539C291.131 40.7539 291.894 39.9905 291.894 39.0488C291.894 38.1071 291.131 37.3438 290.189 37.3438C289.248 37.3438 288.484 38.1071 288.484 39.0488C288.484 39.9905 289.248 40.7539 290.189 40.7539Z" stroke="black" stroke-width="0.426302" stroke-linecap="round" stroke-linejoin="round"/>
<path d="M292.294 41.181L291.367 40.2539" stroke="black" stroke-width="0.426302" stroke-linecap="round" stroke-linejoin="round"/>
</g>
<path d="M108.2 42.3672V37.6904H106.405V36.8197H110.924V37.6904H109.129V42.3672H108.2ZM112.815 42.4828C112.393 42.4828 112.023 42.3916 111.705 42.2092C111.387 42.0269 111.137 41.7739 110.958 41.4503C110.78 41.1267 110.692 40.7543 110.692 40.3331C110.692 39.8785 110.779 39.4843 110.954 39.1504C111.128 38.814 111.371 38.5533 111.682 38.3684C111.993 38.1835 112.352 38.091 112.761 38.091C113.192 38.091 113.558 38.1925 113.859 38.3954C114.162 38.5957 114.386 38.8795 114.533 39.2468C114.679 39.614 114.734 40.0468 114.698 40.545H113.778V40.206C113.775 39.754 113.695 39.424 113.539 39.2159C113.382 39.0079 113.136 38.9039 112.799 38.9039C112.419 38.9039 112.137 39.022 111.952 39.2583C111.767 39.492 111.674 39.8349 111.674 40.2869C111.674 40.7081 111.767 41.0343 111.952 41.2654C112.137 41.4965 112.406 41.6121 112.761 41.6121C112.989 41.6121 113.186 41.562 113.35 41.4619C113.517 41.3591 113.645 41.2115 113.735 41.0189L114.652 41.2962C114.493 41.6712 114.246 41.9627 113.912 42.1707C113.581 42.3787 113.215 42.4828 112.815 42.4828ZM111.381 40.545V39.8439H114.244V40.545H111.381ZM116.646 42.4828C116.346 42.4828 116.091 42.4263 115.883 42.3133C115.675 42.1977 115.517 42.0449 115.409 41.8548C115.304 41.6648 115.252 41.4555 115.252 41.2269C115.252 41.0266 115.285 40.8468 115.352 40.6875C115.418 40.5257 115.521 40.3871 115.66 40.2715C115.799 40.1533 115.978 40.057 116.199 39.9826C116.366 39.9286 116.561 39.8798 116.785 39.8362C117.011 39.7925 117.255 39.7527 117.517 39.7167C117.781 39.6782 118.057 39.6371 118.345 39.5935L118.014 39.7822C118.016 39.4946 117.952 39.2827 117.821 39.1466C117.69 39.0105 117.469 38.9424 117.158 38.9424C116.971 38.9424 116.79 38.9861 116.615 39.0734C116.441 39.1607 116.319 39.311 116.249 39.5241L115.402 39.2583C115.504 38.9065 115.7 38.624 115.987 38.4108C116.278 38.1976 116.668 38.091 117.158 38.091C117.528 38.091 117.853 38.1514 118.133 38.2721C118.416 38.3928 118.625 38.5906 118.761 38.8654C118.836 39.0118 118.88 39.162 118.896 39.3161C118.911 39.4676 118.919 39.6333 118.919 39.8131V42.3672H118.106V41.4657L118.241 41.6121C118.053 41.9126 117.834 42.1335 117.582 42.2747C117.333 42.4134 117.021 42.4828 116.646 42.4828ZM116.831 41.7431C117.042 41.7431 117.221 41.7059 117.37 41.6314C117.519 41.5569 117.637 41.4657 117.725 41.3579C117.815 41.25 117.875 41.1485 117.906 41.0535C117.955 40.9354 117.982 40.8005 117.987 40.649C117.994 40.4949 117.998 40.3704 117.998 40.2753L118.283 40.3601C118.003 40.4038 117.763 40.4423 117.563 40.4757C117.363 40.5091 117.191 40.5412 117.047 40.572C116.903 40.6002 116.776 40.6323 116.665 40.6683C116.557 40.7068 116.466 40.7518 116.392 40.8031C116.317 40.8545 116.26 40.9136 116.218 40.9803C116.18 41.0471 116.161 41.1254 116.161 41.2153C116.161 41.3181 116.186 41.4092 116.238 41.4888C116.289 41.5659 116.364 41.6275 116.461 41.6738C116.561 41.72 116.685 41.7431 116.831 41.7431ZM124.918 42.3672V39.84C124.918 39.5549 124.848 39.3328 124.707 39.1736C124.565 39.0118 124.374 38.9309 124.133 38.9309C123.984 38.9309 123.85 38.9655 123.732 39.0349C123.614 39.1016 123.52 39.2018 123.451 39.3354C123.381 39.4663 123.347 39.623 123.347 39.8053L122.935 39.5626C122.932 39.275 122.996 39.022 123.127 38.8037C123.261 38.5829 123.44 38.4108 123.666 38.2875C123.892 38.1642 124.144 38.1026 124.422 38.1026C124.881 38.1026 125.233 38.2413 125.477 38.5187C125.724 38.7935 125.847 39.1556 125.847 39.605V42.3672H124.918ZM119.914 42.3672V38.2066H120.735V39.4972H120.85V42.3672H119.914ZM122.422 42.3672V39.8516C122.422 39.5614 122.352 39.3354 122.21 39.1736C122.069 39.0118 121.876 38.9309 121.632 38.9309C121.396 38.9309 121.206 39.0118 121.062 39.1736C120.921 39.3354 120.85 39.546 120.85 39.8053L120.434 39.528C120.434 39.2583 120.501 39.0156 120.635 38.7999C120.768 38.5841 120.948 38.4146 121.174 38.2914C121.403 38.1655 121.658 38.1026 121.941 38.1026C122.251 38.1026 122.511 38.1694 122.719 38.3029C122.929 38.4339 123.086 38.6137 123.189 38.8423C123.294 39.0683 123.347 39.3238 123.347 39.6089V42.3672H122.422ZM128.394 42.3672V36.8197H130.686C130.74 36.8197 130.81 36.8223 130.894 36.8275C130.979 36.83 131.057 36.8377 131.129 36.8506C131.45 36.8994 131.715 37.0059 131.923 37.1703C132.134 37.3347 132.289 37.5427 132.389 37.7944C132.492 38.0435 132.543 38.3209 132.543 38.6265C132.543 39.0785 132.429 39.4676 132.2 39.7938C131.972 40.1174 131.621 40.3177 131.149 40.3948L130.752 40.4294H129.323V42.3672H128.394ZM131.58 42.3672L130.486 40.1097L131.43 39.9017L132.632 42.3672H131.58ZM129.323 39.5626H130.648C130.699 39.5626 130.757 39.5601 130.821 39.5549C130.885 39.5498 130.944 39.5395 130.998 39.5241C131.152 39.4856 131.273 39.4175 131.361 39.3199C131.45 39.2224 131.513 39.1119 131.549 38.9886C131.588 38.8654 131.607 38.7447 131.607 38.6265C131.607 38.5084 131.588 38.3877 131.549 38.2644C131.513 38.1385 131.45 38.0268 131.361 37.9292C131.273 37.8316 131.152 37.7636 130.998 37.7251C130.944 37.7097 130.885 37.7007 130.821 37.6981C130.757 37.693 130.699 37.6904 130.648 37.6904H129.323V39.5626ZM135.372 42.4828C134.951 42.4828 134.581 42.3916 134.263 42.2092C133.944 42.0269 133.695 41.7739 133.515 41.4503C133.338 41.1267 133.249 40.7543 133.249 40.3331C133.249 39.8785 133.337 39.4843 133.511 39.1504C133.686 38.814 133.929 38.5533 134.239 38.3684C134.55 38.1835 134.91 38.091 135.318 38.091C135.75 38.091 136.116 38.1925 136.416 38.3954C136.719 38.5957 136.944 38.8795 137.09 39.2468C137.237 39.614 137.292 40.0468 137.256 40.545H136.335V40.206C136.333 39.754 136.253 39.424 136.096 39.2159C135.94 39.0079 135.693 38.9039 135.357 38.9039C134.977 38.9039 134.694 39.022 134.509 39.2583C134.324 39.492 134.232 39.8349 134.232 40.2869C134.232 40.7081 134.324 41.0343 134.509 41.2654C134.694 41.4965 134.964 41.6121 135.318 41.6121C135.547 41.6121 135.743 41.562 135.908 41.4619C136.074 41.3591 136.203 41.2115 136.293 41.0189L137.21 41.2962C137.05 41.6712 136.804 41.9627 136.47 42.1707C136.139 42.3787 135.773 42.4828 135.372 42.4828ZM133.939 40.545V39.8439H136.801V40.545H133.939ZM140.002 42.4828C139.596 42.4828 139.256 42.3864 138.981 42.1938C138.706 42.0012 138.5 41.7392 138.361 41.4079C138.222 41.0741 138.153 40.7004 138.153 40.2869C138.153 39.8683 138.222 39.4933 138.361 39.162C138.5 38.8307 138.702 38.57 138.97 38.38C139.239 38.1873 139.572 38.091 139.967 38.091C140.36 38.091 140.701 38.1873 140.988 38.38C141.278 38.57 141.503 38.8307 141.662 39.162C141.822 39.4907 141.901 39.8657 141.901 40.2869C141.901 40.703 141.823 41.0766 141.666 41.4079C141.51 41.7392 141.289 42.0012 141.004 42.1938C140.719 42.3864 140.385 42.4828 140.002 42.4828ZM137.995 44.2163V38.2066H138.815V41.1267H138.931V44.2163H137.995ZM139.859 41.6506C140.101 41.6506 140.3 41.5903 140.457 41.4696C140.613 41.3489 140.729 41.1858 140.803 40.9803C140.88 40.7723 140.919 40.5412 140.919 40.2869C140.919 40.0352 140.88 39.8066 140.803 39.6012C140.726 39.3931 140.607 39.2288 140.445 39.1081C140.283 38.9848 140.078 38.9232 139.829 38.9232C139.592 38.9232 139.4 38.9809 139.251 39.0965C139.102 39.2095 138.991 39.3687 138.919 39.5742C138.85 39.7771 138.815 40.0147 138.815 40.2869C138.815 40.5566 138.85 40.7941 138.919 40.9996C138.991 41.2051 139.103 41.3656 139.255 41.4811C139.409 41.5941 139.61 41.6506 139.859 41.6506ZM144.588 42.4828C144.172 42.4828 143.808 42.389 143.498 42.2015C143.187 42.0141 142.946 41.7559 142.773 41.4272C142.604 41.0959 142.519 40.7158 142.519 40.2869C142.519 39.8503 142.607 39.4676 142.781 39.1389C142.956 38.8101 143.199 38.5533 143.509 38.3684C143.82 38.1835 144.18 38.091 144.588 38.091C145.007 38.091 145.371 38.1848 145.682 38.3723C145.993 38.5597 146.234 38.8191 146.406 39.1504C146.578 39.4792 146.664 39.858 146.664 40.2869C146.664 40.7184 146.577 41.0998 146.402 41.4311C146.23 41.7598 145.989 42.0179 145.678 42.2054C145.367 42.3903 145.004 42.4828 144.588 42.4828ZM144.588 41.6121C144.958 41.6121 145.233 41.4888 145.412 41.2423C145.592 40.9957 145.682 40.6773 145.682 40.2869C145.682 39.8837 145.591 39.5626 145.408 39.3238C145.226 39.0824 144.953 38.9617 144.588 38.9617C144.339 38.9617 144.133 39.0182 143.972 39.1312C143.812 39.2416 143.694 39.397 143.617 39.5973C143.54 39.7951 143.502 40.0249 143.502 40.2869C143.502 40.6901 143.593 41.0124 143.775 41.2538C143.96 41.4927 144.231 41.6121 144.588 41.6121ZM147.513 42.3672V38.2066H148.334V39.2198L148.234 39.0888C148.285 38.9501 148.353 38.8243 148.438 38.7113C148.525 38.5957 148.629 38.5007 148.75 38.4262C148.853 38.3569 148.966 38.3029 149.089 38.2644C149.215 38.2233 149.343 38.1989 149.474 38.1912C149.605 38.1809 149.732 38.1861 149.855 38.2066V39.0734C149.732 39.0374 149.59 39.0259 149.428 39.0387C149.269 39.0516 149.125 39.0965 148.996 39.1736C148.868 39.2429 148.763 39.3315 148.68 39.4394C148.601 39.5472 148.542 39.6705 148.503 39.8092C148.465 39.9453 148.445 40.093 148.445 40.2522V42.3672H147.513ZM153.029 42.3672C152.754 42.4186 152.485 42.4404 152.22 42.4327C151.958 42.4275 151.723 42.38 151.515 42.2901C151.307 42.1977 151.149 42.0526 151.041 41.8548C150.946 41.675 150.896 41.4914 150.891 41.3039C150.886 41.1164 150.883 40.9046 150.883 40.6683V37.0509H151.808V40.6144C151.808 40.7813 151.809 40.9277 151.812 41.0535C151.817 41.1794 151.844 41.2821 151.893 41.3617C151.985 41.5158 152.133 41.6018 152.336 41.6198C152.539 41.6378 152.77 41.6275 153.029 41.589V42.3672ZM150.128 38.9347V38.2066H153.029V38.9347H150.128Z" fill="#23262F"/>
<rect x="106.336" y="61.3711" width="103.798" height="19.5056" rx="3.48315" fill="#F9F9F9"/>
<rect x="109.797" y="64.8672" width="12.5382" height="12.5382" rx="1.39326" fill="#C0C0C0" fill-opacity="0.2"/>
<rect x="127.742" y="67.3789" width="53.9887" height="2.4382" rx="1.2191" fill="#ECECEC"/>
<rect x="127.93" y="72.9219" width="26.7549" height="1.57381" rx="0.786907" fill="#ECECEC"/>
<rect x="106.336" y="89.543" width="103.798" height="19.5056" rx="3.48315" fill="#F9F9F9"/>
<rect x="109.797" y="93.0391" width="12.5382" height="12.5382" rx="1.39326" fill="#C0C0C0" fill-opacity="0.2"/>
<rect x="127.742" y="95.5352" width="53.9887" height="2.4382" rx="1.2191" fill="#ECECEC"/>
<rect x="127.93" y="101.078" width="26.7549" height="1.57381" rx="0.786907" fill="#ECECEC"/>
<rect x="106.336" y="117.719" width="103.798" height="19.5056" rx="3.48315" fill="#F9F9F9"/>
<rect x="109.797" y="121.215" width="12.5382" height="12.5382" rx="1.39326" fill="#C0C0C0" fill-opacity="0.2"/>
<rect x="127.742" y="123.703" width="53.9887" height="2.4382" rx="1.2191" fill="#ECECEC"/>
<rect x="127.93" y="129.246" width="26.7549" height="1.57381" rx="0.786907" fill="#ECECEC"/>
<rect x="221.036" y="61.4855" width="94.1547" height="75.8559" rx="2.17362" fill="white" stroke="#E6E8EC" stroke-width="0.228802"/>
<circle cx="276.796" cy="106.569" r="6.74907" fill="#F6F6F6"/>
<rect width="13.4981" height="13.4981" rx="6.74907" transform="matrix(-1 0 0 1 283.547 99.8203)" fill="#F6F6F6"/>
<circle cx="276.792" cy="106.566" r="12.3553" stroke="#D4D4D4" stroke-width="0.686406"/>
<circle cx="276.746" cy="106.62" r="18.3042" transform="rotate(85.3939 276.746 106.62)" stroke="url(#paint0_linear_2707_595)" stroke-width="0.686406"/>
<circle cx="276.799" cy="106.569" r="24.253" stroke="url(#paint1_linear_2707_595)" stroke-width="0.686406"/>
<rect x="228.43" y="70.6328" width="35.4643" height="3.43203" rx="1.71602" fill="#ECECEC"/>
<circle cx="230.433" cy="83.7728" r="1.14391" fill="#A1A1A1"/>
<path d="M232.967 84.4883V82.182H233.203V84.4883H232.967ZM234.932 84.4883V83.6058C234.932 83.5097 234.923 83.4216 234.905 83.3415C234.887 83.2604 234.857 83.1899 234.817 83.1301C234.777 83.0693 234.725 83.0223 234.661 82.9892C234.598 82.9561 234.522 82.9395 234.431 82.9395C234.347 82.9395 234.274 82.9539 234.21 82.9828C234.147 83.0116 234.093 83.0532 234.05 83.1077C234.007 83.1611 233.974 83.2262 233.952 83.3031C233.929 83.38 233.918 83.4675 233.918 83.5658L233.752 83.5289C233.752 83.3517 233.783 83.2027 233.845 83.0821C233.906 82.9614 233.992 82.8701 234.101 82.8082C234.21 82.7463 234.335 82.7153 234.476 82.7153C234.579 82.7153 234.669 82.7313 234.746 82.7633C234.824 82.7954 234.89 82.8386 234.943 82.8931C234.998 82.9475 235.041 83.01 235.075 83.0805C235.108 83.1499 235.132 83.2241 235.147 83.3031C235.162 83.381 235.169 83.459 235.169 83.5369V84.4883H234.932ZM233.681 84.4883V82.7585H233.894V83.1846H233.918V84.4883H233.681ZM236.08 84.5363C235.949 84.5363 235.84 84.5128 235.751 84.4659C235.664 84.4189 235.598 84.3564 235.554 84.2785C235.511 84.2005 235.489 84.1156 235.489 84.0238C235.489 83.9299 235.507 83.8498 235.545 83.7836C235.583 83.7163 235.635 83.6613 235.7 83.6186C235.766 83.5759 235.843 83.5433 235.929 83.5209C236.017 83.4996 236.113 83.4809 236.219 83.4648C236.326 83.4478 236.43 83.4334 236.531 83.4216C236.634 83.4088 236.723 83.3965 236.8 83.3848L236.717 83.436C236.72 83.2652 236.687 83.1387 236.618 83.0564C236.548 82.9742 236.428 82.9331 236.256 82.9331C236.137 82.9331 236.037 82.9598 235.955 83.0132C235.874 83.0666 235.816 83.1509 235.783 83.2662L235.554 83.199C235.594 83.0442 235.673 82.924 235.793 82.8386C235.913 82.7532 236.068 82.7105 236.259 82.7105C236.417 82.7105 236.551 82.7404 236.661 82.8002C236.772 82.8589 236.851 82.9443 236.896 83.0564C236.918 83.1066 236.932 83.1627 236.938 83.2246C236.944 83.2865 236.948 83.3495 236.948 83.4136V84.4883H236.738V84.0542L236.799 84.0799C236.74 84.2283 236.649 84.3415 236.525 84.4194C236.401 84.4974 236.253 84.5363 236.08 84.5363ZM236.107 84.3329C236.217 84.3329 236.313 84.3132 236.395 84.2737C236.477 84.2342 236.544 84.1802 236.594 84.1119C236.644 84.0425 236.676 83.9646 236.691 83.8781C236.704 83.8225 236.711 83.7617 236.712 83.6955C236.713 83.6282 236.714 83.578 236.714 83.5449L236.804 83.5914C236.723 83.6021 236.636 83.6127 236.542 83.6234C236.45 83.6341 236.358 83.6464 236.267 83.6602C236.177 83.6741 236.096 83.6907 236.024 83.7099C235.974 83.7238 235.927 83.7435 235.881 83.7692C235.835 83.7937 235.797 83.8268 235.767 83.8685C235.738 83.9101 235.724 83.9619 235.724 84.0238C235.724 84.074 235.736 84.1226 235.761 84.1696C235.787 84.2165 235.827 84.2555 235.883 84.2865C235.939 84.3174 236.014 84.3329 236.107 84.3329ZM238.082 84.5363C237.908 84.5363 237.761 84.4974 237.64 84.4194C237.519 84.3415 237.428 84.2342 237.365 84.0975C237.303 83.9597 237.271 83.8017 237.269 83.6234C237.271 83.4419 237.304 83.2828 237.368 83.1461C237.432 83.0084 237.524 82.9016 237.645 82.8258C237.766 82.7489 237.912 82.7105 238.084 82.7105C238.259 82.7105 238.411 82.7532 238.54 82.8386C238.67 82.924 238.76 83.041 238.808 83.1894L238.577 83.263C238.536 83.1595 238.472 83.0794 238.383 83.0228C238.296 82.9651 238.195 82.9363 238.082 82.9363C237.955 82.9363 237.85 82.9657 237.767 83.0244C237.683 83.0821 237.621 83.1627 237.581 83.2662C237.54 83.3698 237.519 83.4889 237.518 83.6234C237.521 83.8306 237.569 83.9971 237.663 84.1231C237.756 84.248 237.896 84.3105 238.082 84.3105C238.2 84.3105 238.299 84.2838 238.382 84.2304C238.465 84.176 238.528 84.097 238.571 83.9934L238.808 84.0639C238.744 84.2176 238.65 84.3351 238.526 84.4162C238.402 84.4963 238.254 84.5363 238.082 84.5363ZM240.08 84.4883C239.983 84.5086 239.887 84.5166 239.792 84.5123C239.698 84.508 239.613 84.4877 239.539 84.4514C239.465 84.4151 239.409 84.3586 239.371 84.2817C239.34 84.2176 239.322 84.153 239.319 84.0879C239.317 84.0217 239.316 83.9464 239.316 83.862V82.2781H239.55V83.8524C239.55 83.925 239.55 83.9859 239.552 84.035C239.554 84.0831 239.565 84.1258 239.585 84.1632C239.624 84.2347 239.684 84.2774 239.768 84.2913C239.852 84.3052 239.956 84.302 240.08 84.2817V84.4883ZM238.946 82.9603V82.7585H240.08V82.9603H238.946ZM240.453 82.4302V82.1659H240.688V82.4302H240.453ZM240.453 84.4883V82.7585H240.688V84.4883H240.453ZM241.636 84.4883L241.008 82.7585H241.247L241.758 84.1808L242.266 82.7585H242.507L241.88 84.4883H241.636ZM243.464 84.5363C243.296 84.5363 243.149 84.499 243.026 84.4242C242.903 84.3495 242.807 84.2443 242.739 84.1087C242.671 83.9731 242.636 83.814 242.636 83.6314C242.636 83.4424 242.67 83.2791 242.737 83.1413C242.805 83.0036 242.899 82.8973 243.021 82.8226C243.144 82.7479 243.288 82.7105 243.455 82.7105C243.626 82.7105 243.771 82.75 243.892 82.829C244.013 82.907 244.104 83.0191 244.166 83.1653C244.228 83.3116 244.256 83.4862 244.251 83.6891H244.011V83.6058C244.006 83.3816 243.958 83.2123 243.865 83.0981C243.773 82.9838 243.639 82.9267 243.461 82.9267C243.275 82.9267 243.133 82.987 243.034 83.1077C242.935 83.2283 242.886 83.4003 242.886 83.6234C242.886 83.8412 242.935 84.0105 243.034 84.1311C243.133 84.2507 243.273 84.3105 243.455 84.3105C243.579 84.3105 243.687 84.2822 243.778 84.2256C243.871 84.168 243.944 84.0852 243.998 83.9774L244.217 84.0623C244.149 84.2128 244.048 84.3297 243.915 84.413C243.782 84.4952 243.632 84.5363 243.464 84.5363ZM242.803 83.6891V83.4921H244.124V83.6891H242.803Z" fill="#787486"/>
<circle cx="230.433" cy="94.1088" r="1.14391" fill="#BBBBBB"/>
<path d="M232.775 94.8242L233.569 92.5179H233.882L234.676 94.8242H234.431L233.677 92.6492H233.77L233.02 94.8242H232.775ZM233.129 94.2653V94.0442H234.321V94.2653H233.129ZM235.683 94.8723C235.509 94.8723 235.361 94.8333 235.241 94.7553C235.12 94.6774 235.028 94.5701 234.965 94.4334C234.903 94.2957 234.871 94.1377 234.869 93.9593C234.871 93.7778 234.904 93.6187 234.969 93.4821C235.033 93.3443 235.125 93.2376 235.246 93.1617C235.366 93.0849 235.513 93.0464 235.684 93.0464C235.86 93.0464 236.012 93.0891 236.141 93.1746C236.271 93.26 236.36 93.3769 236.408 93.5253L236.178 93.599C236.137 93.4954 236.073 93.4153 235.984 93.3587C235.896 93.3011 235.796 93.2723 235.683 93.2723C235.556 93.2723 235.451 93.3016 235.367 93.3603C235.284 93.418 235.222 93.4986 235.182 93.6022C235.141 93.7058 235.12 93.8248 235.119 93.9593C235.121 94.1665 235.169 94.3331 235.263 94.4591C235.357 94.584 235.497 94.6464 235.683 94.6464C235.8 94.6464 235.9 94.6197 235.982 94.5664C236.066 94.5119 236.129 94.4329 236.171 94.3293L236.408 94.3998C236.344 94.5535 236.25 94.671 236.127 94.7521C236.003 94.8322 235.855 94.8723 235.683 94.8723ZM237.681 94.8242C237.584 94.8445 237.487 94.8525 237.392 94.8482C237.298 94.844 237.214 94.8237 237.139 94.7874C237.066 94.7511 237.01 94.6945 236.971 94.6176C236.94 94.5535 236.923 94.4889 236.92 94.4238C236.918 94.3576 236.917 94.2823 236.917 94.198V92.614H237.151V94.1884C237.151 94.261 237.151 94.3218 237.152 94.371C237.154 94.419 237.166 94.4617 237.186 94.4991C237.224 94.5706 237.285 94.6133 237.368 94.6272C237.453 94.6411 237.557 94.6379 237.681 94.6176V94.8242ZM236.547 93.2963V93.0945H237.681V93.2963H236.547ZM238.054 92.7661V92.5019H238.289V92.7661H238.054ZM238.054 94.8242V93.0945H238.289V94.8242H238.054ZM239.237 94.8242L238.609 93.0945H238.848L239.359 94.5167L239.866 93.0945H240.108L239.48 94.8242H239.237ZM241.065 94.8723C240.896 94.8723 240.75 94.8349 240.626 94.7602C240.504 94.6854 240.408 94.5802 240.34 94.4446C240.271 94.309 240.237 94.1499 240.237 93.9674C240.237 93.7784 240.271 93.615 240.338 93.4773C240.405 93.3395 240.5 93.2333 240.622 93.1585C240.744 93.0838 240.889 93.0464 241.056 93.0464C241.226 93.0464 241.372 93.0859 241.493 93.1649C241.613 93.2429 241.705 93.355 241.767 93.5013C241.829 93.6476 241.857 93.8221 241.852 94.025H241.611V93.9417C241.607 93.7175 241.558 93.5483 241.466 93.434C241.374 93.3198 241.239 93.2626 241.062 93.2626C240.876 93.2626 240.734 93.323 240.634 93.4436C240.536 93.5643 240.487 93.7362 240.487 93.9593C240.487 94.1772 240.536 94.3464 240.634 94.4671C240.734 94.5866 240.874 94.6464 241.056 94.6464C241.179 94.6464 241.287 94.6181 241.379 94.5616C241.472 94.5039 241.545 94.4211 241.599 94.3133L241.818 94.3982C241.75 94.5487 241.649 94.6657 241.515 94.7489C241.383 94.8312 241.233 94.8723 241.065 94.8723ZM240.404 94.025V93.828H241.725V94.025H240.404Z" fill="#787486"/>
<circle cx="230.433" cy="104.453" r="1.14391" fill="#CDCDCD"/>
<path d="M233.549 105.168V103.087H232.743V102.862H234.59V103.087H233.784V105.168H233.549ZM235.312 105.216C235.14 105.216 234.994 105.177 234.872 105.099C234.75 105.021 234.657 104.913 234.592 104.776C234.526 104.638 234.494 104.48 234.494 104.301C234.494 104.12 234.527 103.961 234.593 103.824C234.659 103.688 234.753 103.581 234.875 103.505C234.998 103.429 235.144 103.39 235.312 103.39C235.485 103.39 235.633 103.429 235.754 103.507C235.877 103.584 235.971 103.691 236.035 103.829C236.1 103.966 236.132 104.123 236.132 104.301C236.132 104.483 236.1 104.643 236.035 104.78C235.969 104.917 235.876 105.024 235.753 105.101C235.63 105.178 235.483 105.216 235.312 105.216ZM235.312 104.99C235.504 104.99 235.648 104.927 235.742 104.8C235.835 104.671 235.882 104.505 235.882 104.301C235.882 104.092 235.835 103.926 235.74 103.802C235.646 103.678 235.503 103.616 235.312 103.616C235.183 103.616 235.076 103.645 234.992 103.704C234.909 103.762 234.846 103.842 234.805 103.946C234.764 104.048 234.744 104.167 234.744 104.301C234.744 104.51 234.792 104.677 234.888 104.803C234.984 104.928 235.125 104.99 235.312 104.99ZM237.427 105.168C237.33 105.188 237.234 105.196 237.139 105.192C237.045 105.188 236.961 105.167 236.886 105.131C236.812 105.095 236.756 105.038 236.718 104.961C236.687 104.897 236.67 104.833 236.667 104.768C236.664 104.701 236.663 104.626 236.663 104.542V102.958H236.897V104.532C236.897 104.605 236.898 104.666 236.899 104.715C236.901 104.763 236.912 104.805 236.932 104.843C236.971 104.914 237.032 104.957 237.115 104.971C237.199 104.985 237.304 104.982 237.427 104.961V105.168ZM236.293 103.64V103.438H237.427V103.64H236.293ZM238.263 105.216C238.133 105.216 238.023 105.193 237.935 105.146C237.847 105.099 237.782 105.036 237.738 104.958C237.694 104.88 237.672 104.795 237.672 104.704C237.672 104.61 237.691 104.529 237.728 104.463C237.767 104.396 237.818 104.341 237.883 104.298C237.95 104.256 238.026 104.223 238.113 104.201C238.2 104.179 238.297 104.161 238.402 104.145C238.509 104.127 238.613 104.113 238.715 104.101C238.817 104.088 238.907 104.076 238.984 104.064L238.901 104.116C238.904 103.945 238.871 103.818 238.801 103.736C238.732 103.654 238.611 103.613 238.439 103.613C238.321 103.613 238.22 103.639 238.138 103.693C238.057 103.746 238 103.831 237.967 103.946L237.738 103.879C237.777 103.724 237.857 103.604 237.976 103.518C238.096 103.433 238.251 103.39 238.442 103.39C238.6 103.39 238.734 103.42 238.844 103.48C238.955 103.539 239.034 103.624 239.08 103.736C239.101 103.786 239.115 103.842 239.122 103.904C239.128 103.966 239.131 104.029 239.131 104.093V105.168H238.921V104.734L238.982 104.76C238.923 104.908 238.832 105.021 238.708 105.099C238.584 105.177 238.436 105.216 238.263 105.216ZM238.29 105.013C238.4 105.013 238.496 104.993 238.579 104.953C238.661 104.914 238.727 104.86 238.777 104.792C238.827 104.722 238.86 104.644 238.875 104.558C238.888 104.502 238.895 104.441 238.896 104.375C238.897 104.308 238.897 104.258 238.897 104.225L238.987 104.271C238.907 104.282 238.82 104.292 238.726 104.303C238.633 104.314 238.541 104.326 238.45 104.34C238.361 104.354 238.28 104.37 238.207 104.39C238.158 104.403 238.11 104.423 238.064 104.449C238.019 104.473 237.981 104.507 237.951 104.548C237.922 104.59 237.908 104.642 237.908 104.704C237.908 104.754 237.92 104.802 237.944 104.849C237.97 104.896 238.011 104.935 238.066 104.966C238.123 104.997 238.197 105.013 238.29 105.013ZM239.58 105.168V102.814H239.816V105.168H239.58Z" fill="#787486"/>
<path d="M277.422 73.0703L278.065 71.0935H278.478L279.12 73.0703H278.822L278.231 71.2664H278.305L277.72 73.0703H277.422ZM277.756 72.6241V72.3551H278.788V72.6241H277.756ZM279.925 73.1101C279.823 73.1101 279.737 73.0937 279.667 73.0607C279.598 73.0278 279.541 72.9847 279.497 72.9317C279.454 72.8777 279.421 72.8191 279.398 72.7559C279.375 72.6928 279.36 72.631 279.351 72.5706C279.343 72.5102 279.339 72.4571 279.339 72.4114V71.5877H279.63V72.3166C279.63 72.3743 279.635 72.4338 279.644 72.4951C279.654 72.5555 279.672 72.6118 279.699 72.664C279.726 72.7161 279.764 72.7582 279.813 72.7903C279.862 72.8223 279.926 72.8383 280.005 72.8383C280.056 72.8383 280.105 72.8301 280.15 72.8136C280.196 72.7962 280.236 72.7688 280.27 72.7312C280.305 72.6937 280.332 72.6443 280.351 72.583C280.371 72.5216 280.381 72.4471 280.381 72.3592L280.56 72.4265C280.56 72.561 280.534 72.68 280.484 72.7834C280.434 72.8859 280.361 72.966 280.267 73.0236C280.173 73.0813 280.059 73.1101 279.925 73.1101ZM280.415 73.0703V72.642H280.381V71.5877H280.671V73.0703H280.415ZM281.667 73.7704C281.587 73.7704 281.51 73.7581 281.435 73.7334C281.361 73.7087 281.293 73.6721 281.231 73.6236C281.17 73.576 281.119 73.5169 281.079 73.4465L281.344 73.3119C281.376 73.3751 281.422 73.4213 281.481 73.4506C281.541 73.4799 281.604 73.4945 281.669 73.4945C281.751 73.4945 281.82 73.4799 281.878 73.4506C281.936 73.4222 281.979 73.3792 282.008 73.3215C282.039 73.2639 282.053 73.1925 282.052 73.1074V72.6928H282.087V71.5877H282.341V73.1101C282.341 73.1495 282.339 73.187 282.337 73.2227C282.334 73.2584 282.329 73.2941 282.321 73.3298C282.3 73.4295 282.26 73.5119 282.201 73.5769C282.142 73.6419 282.067 73.6904 281.976 73.7224C281.885 73.7544 281.782 73.7704 281.667 73.7704ZM281.645 73.1115C281.507 73.1115 281.387 73.0772 281.286 73.0085C281.187 72.9399 281.109 72.8465 281.054 72.7285C281 72.6095 280.973 72.4759 280.973 72.3276C280.973 72.1784 281.001 72.0453 281.056 71.9281C281.111 71.8101 281.188 71.7172 281.289 71.6495C281.391 71.5808 281.511 71.5465 281.65 71.5465C281.79 71.5465 281.908 71.5808 282.003 71.6495C282.099 71.7172 282.171 71.8101 282.22 71.9281C282.269 72.0462 282.294 72.1794 282.294 72.3276C282.294 72.4759 282.269 72.609 282.22 72.7271C282.17 72.8452 282.098 72.939 282.002 73.0085C281.906 73.0772 281.787 73.1115 281.645 73.1115ZM281.685 72.852C281.779 72.852 281.856 72.8296 281.915 72.7848C281.975 72.7399 282.018 72.6781 282.046 72.5994C282.073 72.5207 282.087 72.4301 282.087 72.3276C282.087 72.2251 282.073 72.1345 282.044 72.0558C282.017 71.9771 281.974 71.9158 281.915 71.8718C281.857 71.8279 281.784 71.806 281.694 71.806C281.599 71.806 281.521 71.8293 281.459 71.876C281.398 71.9226 281.352 71.9853 281.322 72.064C281.293 72.1427 281.278 72.2306 281.278 72.3276C281.278 72.4255 281.293 72.5143 281.322 72.5939C281.352 72.6727 281.397 72.7353 281.457 72.782C281.517 72.8287 281.593 72.852 281.685 72.852ZM283.221 73.0689L283.222 72.8136L284.083 72.0421C284.153 71.9808 284.2 71.9222 284.224 71.8664C284.25 71.8105 284.263 71.7547 284.263 71.6989C284.263 71.6284 284.247 71.5653 284.216 71.5094C284.185 71.4527 284.142 71.4078 284.087 71.3749C284.032 71.3419 283.969 71.3255 283.898 71.3255C283.825 71.3255 283.759 71.3429 283.701 71.3776C283.645 71.4115 283.6 71.4568 283.568 71.5135C283.536 71.5703 283.521 71.6316 283.522 71.6975H283.228C283.228 71.5694 283.257 71.4573 283.314 71.3612C283.373 71.2641 283.453 71.1886 283.555 71.1346C283.656 71.0797 283.772 71.0523 283.903 71.0523C284.028 71.0523 284.139 71.0806 284.238 71.1374C284.337 71.1932 284.415 71.2701 284.472 71.368C284.529 71.466 284.558 71.5776 284.558 71.703C284.558 71.7936 284.546 71.8705 284.522 71.9336C284.499 71.9968 284.463 72.0553 284.415 72.1093C284.368 72.1633 284.308 72.2219 284.237 72.2851L283.572 72.8781L283.541 72.7958H284.558V73.0689H283.221ZM285.473 73.1115C285.372 73.1115 285.277 73.0909 285.189 73.0497C285.102 73.0076 285.028 72.95 284.966 72.8767C284.903 72.8026 284.859 72.7175 284.832 72.6214L285.108 72.5473C285.124 72.6058 285.15 72.6566 285.188 72.6997C285.226 72.7427 285.271 72.7761 285.322 72.7999C285.374 72.8227 285.427 72.8342 285.482 72.8342C285.554 72.8342 285.619 72.8168 285.678 72.782C285.738 72.7472 285.784 72.7006 285.818 72.642C285.853 72.5834 285.87 72.5189 285.87 72.4484C285.87 72.3761 285.852 72.3107 285.817 72.2521C285.782 72.1935 285.735 72.1473 285.675 72.1135C285.617 72.0787 285.552 72.0613 285.482 72.0613C285.401 72.0613 285.333 72.0773 285.277 72.1093C285.221 72.1414 285.178 72.1784 285.147 72.2205L284.897 72.1327L284.957 71.0935H286.024V71.3639H285.104L285.221 71.2555L285.173 72.0338L285.117 71.9611C285.169 71.9089 285.231 71.8691 285.303 71.8416C285.376 71.8142 285.447 71.8005 285.519 71.8005C285.641 71.8005 285.751 71.8288 285.847 71.8856C285.944 71.9423 286.02 72.0197 286.076 72.1176C286.132 72.2146 286.16 72.3249 286.16 72.4484C286.16 72.5711 286.128 72.6827 286.065 72.7834C286.002 72.8832 285.918 72.9628 285.814 73.0223C285.71 73.0818 285.596 73.1115 285.473 73.1115ZM286.461 72.3194V72.0888H287.284V72.3194H286.461ZM288.358 73.1115C288.216 73.1115 288.088 73.0872 287.973 73.0387C287.86 72.9893 287.766 72.9193 287.692 72.8287C287.619 72.7372 287.571 72.6287 287.549 72.5033L287.848 72.458C287.878 72.5788 287.942 72.6731 288.038 72.7408C288.134 72.8076 288.246 72.8411 288.374 72.8411C288.454 72.8411 288.527 72.8287 288.594 72.804C288.661 72.7784 288.714 72.7422 288.754 72.6955C288.796 72.6479 288.816 72.5912 288.816 72.5253C288.816 72.4896 288.81 72.458 288.797 72.4306C288.785 72.4031 288.768 72.3793 288.746 72.3592C288.725 72.3381 288.699 72.3203 288.668 72.3057C288.638 72.2901 288.604 72.2768 288.568 72.2658L288.061 72.1162C288.012 72.1016 287.961 72.0828 287.91 72.0599C287.859 72.0361 287.812 72.0055 287.769 71.9679C287.727 71.9295 287.692 71.8824 287.666 71.8265C287.639 71.7698 287.626 71.7012 287.626 71.6206C287.626 71.4989 287.657 71.3959 287.719 71.3117C287.782 71.2266 287.867 71.1626 287.975 71.1195C288.082 71.0756 288.202 71.0537 288.334 71.0537C288.468 71.0555 288.587 71.0793 288.693 71.125C288.799 71.1708 288.887 71.2367 288.956 71.3227C289.027 71.4078 289.075 71.5113 289.102 71.633L288.794 71.6851C288.78 71.611 288.751 71.5474 288.706 71.4943C288.661 71.4403 288.607 71.3991 288.542 71.3708C288.477 71.3415 288.406 71.3264 288.33 71.3255C288.257 71.3236 288.19 71.3346 288.128 71.3584C288.068 71.3822 288.019 71.4156 287.983 71.4586C287.947 71.5016 287.929 71.5511 287.929 71.6069C287.929 71.6618 287.945 71.7062 287.977 71.7401C288.009 71.7739 288.049 71.8009 288.095 71.8211C288.143 71.8403 288.19 71.8563 288.237 71.8691L288.602 71.9721C288.648 71.9849 288.699 72.0023 288.757 72.0242C288.816 72.0453 288.872 72.075 288.926 72.1135C288.981 72.1519 289.026 72.2032 289.062 72.2672C289.098 72.3304 289.115 72.41 289.115 72.5061C289.115 72.6058 289.095 72.6937 289.055 72.7697C289.015 72.8447 288.959 72.9079 288.889 72.9591C288.819 73.0095 288.739 73.0474 288.647 73.0731C288.556 73.0987 288.459 73.1115 288.358 73.1115ZM290.066 73.1115C289.918 73.1115 289.789 73.0795 289.677 73.0154C289.566 72.9504 289.48 72.8603 289.418 72.745C289.356 72.6287 289.326 72.4942 289.326 72.3413C289.326 72.1794 289.356 72.0389 289.416 71.9199C289.477 71.8009 289.563 71.7089 289.672 71.644C289.78 71.579 289.907 71.5465 290.052 71.5465C290.203 71.5465 290.331 71.5817 290.438 71.6522C290.544 71.7218 290.623 71.8211 290.675 71.9501C290.728 72.0791 290.749 72.2324 290.738 72.41H290.451V72.3057C290.449 72.1336 290.416 72.0064 290.352 71.924C290.289 71.8416 290.193 71.8005 290.063 71.8005C289.919 71.8005 289.811 71.8458 289.739 71.9364C289.666 72.027 289.63 72.1578 289.63 72.329C289.63 72.4919 289.666 72.6182 289.739 72.7079C289.811 72.7967 289.915 72.8411 290.052 72.8411C290.141 72.8411 290.219 72.8209 290.284 72.7806C290.35 72.7395 290.401 72.6809 290.438 72.6049L290.719 72.6942C290.661 72.8269 290.574 72.9298 290.457 73.003C290.34 73.0753 290.209 73.1115 290.066 73.1115ZM289.537 72.41V72.1862H290.595V72.41H289.537ZM291.702 73.1115C291.56 73.1115 291.441 73.0772 291.345 73.0085C291.249 72.939 291.176 72.8452 291.127 72.7271C291.077 72.609 291.053 72.4759 291.053 72.3276C291.053 72.1794 291.077 72.0462 291.125 71.9281C291.175 71.8101 291.247 71.7172 291.342 71.6495C291.438 71.5808 291.556 71.5465 291.696 71.5465C291.836 71.5465 291.955 71.5808 292.056 71.6495C292.158 71.7172 292.236 71.8101 292.291 71.9281C292.346 72.0453 292.373 72.1784 292.373 72.3276C292.373 72.4759 292.346 72.6095 292.291 72.7285C292.237 72.8465 292.16 72.9399 292.059 73.0085C291.959 73.0772 291.84 73.1115 291.702 73.1115ZM291.005 73.7293V71.5877H291.26V72.6544H291.293V73.7293H291.005ZM291.662 72.852C291.754 72.852 291.829 72.8287 291.889 72.782C291.949 72.7353 291.994 72.6727 292.023 72.5939C292.053 72.5143 292.069 72.4255 292.069 72.3276C292.069 72.2306 292.053 72.1427 292.023 72.064C291.994 71.9853 291.949 71.9226 291.887 71.876C291.826 71.8293 291.748 71.806 291.653 71.806C291.563 71.806 291.489 71.8279 291.43 71.8718C291.373 71.9158 291.329 71.9771 291.301 72.0558C291.274 72.1345 291.26 72.2251 291.26 72.3276C291.26 72.4301 291.274 72.5207 291.301 72.5994C291.329 72.6781 291.372 72.7399 291.432 72.7848C291.491 72.8296 291.568 72.852 291.662 72.852ZM293.525 73.0703C293.431 73.0886 293.34 73.0964 293.25 73.0937C293.161 73.0909 293.08 73.0735 293.01 73.0415C292.94 73.0095 292.886 72.9591 292.851 72.8905C292.819 72.8292 292.801 72.7669 292.799 72.7038C292.797 72.6397 292.796 72.5674 292.796 72.4869V71.1758H293.084V72.4731C293.084 72.5326 293.085 72.5843 293.086 72.6283C293.087 72.6722 293.097 72.7093 293.114 72.7395C293.147 72.7962 293.199 72.8287 293.271 72.8369C293.343 72.8443 293.428 72.8411 293.525 72.8273V73.0703ZM292.512 71.8183V71.5877H293.525V71.8183H292.512ZM294.332 73.0689L294.334 72.8136L295.194 72.0421C295.264 71.9808 295.311 71.9222 295.336 71.8664C295.361 71.8105 295.374 71.7547 295.374 71.6989C295.374 71.6284 295.359 71.5653 295.327 71.5094C295.296 71.4527 295.253 71.4078 295.198 71.3749C295.143 71.3419 295.08 71.3255 295.009 71.3255C294.936 71.3255 294.87 71.3429 294.813 71.3776C294.756 71.4115 294.711 71.4568 294.679 71.5135C294.647 71.5703 294.632 71.6316 294.633 71.6975H294.339C294.339 71.5694 294.368 71.4573 294.425 71.3612C294.484 71.2641 294.564 71.1886 294.666 71.1346C294.767 71.0797 294.884 71.0523 295.014 71.0523C295.139 71.0523 295.251 71.0806 295.349 71.1374C295.448 71.1932 295.526 71.2701 295.583 71.368C295.64 71.466 295.669 71.5776 295.669 71.703C295.669 71.7936 295.657 71.8705 295.634 71.9336C295.61 71.9968 295.574 72.0553 295.526 72.1093C295.479 72.1633 295.419 72.2219 295.348 72.2851L294.684 72.8781L294.652 72.7958H295.669V73.0689H294.332ZM296.585 73.1115C296.483 73.1115 296.388 73.0909 296.301 73.0497C296.214 73.0076 296.139 72.95 296.077 72.8767C296.015 72.8026 295.97 72.7175 295.944 72.6214L296.22 72.5473C296.235 72.6058 296.262 72.6566 296.299 72.6997C296.338 72.7427 296.382 72.7761 296.434 72.7999C296.485 72.8227 296.538 72.8342 296.593 72.8342C296.665 72.8342 296.731 72.8168 296.789 72.782C296.849 72.7472 296.895 72.7006 296.929 72.642C296.964 72.5834 296.981 72.5189 296.981 72.4484C296.981 72.3761 296.964 72.3107 296.928 72.2521C296.893 72.1935 296.846 72.1473 296.786 72.1135C296.728 72.0787 296.663 72.0613 296.593 72.0613C296.512 72.0613 296.444 72.0773 296.388 72.1093C296.333 72.1414 296.289 72.1784 296.258 72.2205L296.008 72.1327L296.069 71.0935H297.135V71.3639H296.215L296.332 71.2555L296.284 72.0338L296.228 71.9611C296.28 71.9089 296.342 71.8691 296.414 71.8416C296.487 71.8142 296.559 71.8005 296.63 71.8005C296.753 71.8005 296.862 71.8288 296.958 71.8856C297.055 71.9423 297.132 72.0197 297.187 72.1176C297.243 72.2146 297.271 72.3249 297.271 72.4484C297.271 72.5711 297.24 72.6827 297.176 72.7834C297.113 72.8832 297.029 72.9628 296.925 73.0223C296.821 73.0818 296.707 73.1115 296.585 73.1115Z" fill="#787486"/>
<g clip-path="url(#clip3_2707_595)">
<path d="M300.435 72.2231L301.096 71.5625L301.285 71.7512L300.435 72.6005L299.586 71.7512L299.775 71.5625L300.435 72.2231Z" fill="#787486"/>
</g>
<rect x="10" y="114.34" width="42.3763" height="42.3763" rx="4.81549" fill="#6666F2"/>
<mask id="mask0_2707_595" style="mask-type:alpha" maskUnits="userSpaceOnUse" x="19" y="123" width="24" height="25">
<rect x="19.6328" y="123.973" width="23.1143" height="23.1143" fill="#D9D9D9"/>
</mask>
<g mask="url(#mask0_2707_595)">
<path d="M21.5391 144.199V142.273H40.801V144.199H21.5391ZM22.5022 141.31V134.568H25.3914V141.31H22.5022ZM27.3176 141.31V129.753H30.2069V141.31H27.3176ZM32.1331 141.31V132.642H35.0224V141.31H32.1331ZM36.9486 141.31V126.863H39.8379V141.31H36.9486Z" fill="white"/>
</g>
<defs>
<filter id="filter0_d_2707_595" x="0.275035" y="0.351587" width="366.911" height="276.278" filterUnits="userSpaceOnUse" color-interpolation-filters="sRGB">
<feFlood flood-opacity="0" result="BackgroundImageFix"/>
<feColorMatrix in="SourceAlpha" type="matrix" values="0 0 0 0 0 0 0 0 0 0 0 0 0 0 0 0 0 0 127 0" result="hardAlpha"/>
<feMorphology radius="7.45936" operator="dilate" in="SourceAlpha" result="effect1_dropShadow_2707_595"/>
<feOffset dy="7.45936"/>
<feGaussianBlur stdDeviation="9.32421"/>
<feComposite in2="hardAlpha" operator="out"/>
<feColorMatrix type="matrix" values="0 0 0 0 0.958851 0 0 0 0 0.958851 0 0 0 0 0.958851 0 0 0 0.4 0"/>
<feBlend mode="normal" in2="BackgroundImageFix" result="effect1_dropShadow_2707_595"/>
<feBlend mode="normal" in="SourceGraphic" in2="effect1_dropShadow_2707_595" result="shape"/>
</filter>
<linearGradient id="paint0_linear_2707_595" x1="271.204" y1="115.585" x2="269.187" y2="89.4844" gradientUnits="userSpaceOnUse">
<stop stop-color="#FFF9F7" stop-opacity="0"/>
<stop offset="1" stop-color="#DDDDDD"/>
</linearGradient>
<linearGradient id="paint1_linear_2707_595" x1="261.584" y1="92.7264" x2="265.13" y2="128.419" gradientUnits="userSpaceOnUse">
<stop stop-color="#FFF8EF" stop-opacity="0"/>
<stop offset="1" stop-color="#EAEAEA"/>
</linearGradient>
<clipPath id="clip0_2707_595">
<rect width="5.11518" height="5.11518" fill="white" transform="translate(301.438 36.6992)"/>
</clipPath>
<clipPath id="clip1_2707_595">
<rect width="5.11518" height="5.11518" fill="white" transform="translate(328.734 36.6914)"/>
</clipPath>
<clipPath id="clip2_2707_595">
<rect width="5.11518" height="5.11518" fill="white" transform="translate(287.812 36.6992)"/>
</clipPath>
<clipPath id="clip3_2707_595">
<rect width="3.20295" height="3.20295" fill="white" transform="translate(298.828 70.4688)"/>
</clipPath>
</defs>
</svg>
