<svg width="60" height="60" viewBox="0 0 60 60" fill="none" xmlns="http://www.w3.org/2000/svg">
<rect width="60" height="60" rx="30" fill="url(#paint0_linear_6339_5439)"/>
<mask id="mask0_6339_5439" style="mask-type:alpha" maskUnits="userSpaceOnUse" x="16" y="16" width="28" height="28">
<rect x="16.3154" y="16.3164" width="27.3684" height="27.3684" fill="#D9D9D9"/>
</mask>
<g mask="url(#mask0_6339_5439)">
<path d="M29.9975 39.124C30.9668 39.124 31.8981 38.9767 32.7913 38.6821C33.6846 38.3875 34.5209 37.9646 35.3001 37.4134C34.5209 36.8623 33.6846 36.4394 32.7913 36.1448C31.8981 35.8502 30.9668 35.7029 29.9975 35.7029C29.0282 35.7029 28.0969 35.8502 27.2036 36.1448C26.3103 36.4394 25.4741 36.8623 24.6949 37.4134C25.4741 37.9646 26.3103 38.3875 27.2036 38.6821C28.0969 38.9767 29.0282 39.124 29.9975 39.124ZM33.0194 29.7731L31.3944 28.1481C31.4894 27.996 31.5655 27.8345 31.6225 27.6634C31.6795 27.4924 31.708 27.3213 31.708 27.1503C31.708 26.6751 31.5417 26.2713 31.2091 25.9387C30.8765 25.6061 30.4726 25.4398 29.9975 25.4398C29.8264 25.4398 29.6554 25.4683 29.4843 25.5253C29.3133 25.5823 29.1517 25.6583 28.9997 25.7534L27.3747 24.1284C27.7358 23.8053 28.1397 23.5629 28.5863 23.4014C29.0329 23.2398 29.5033 23.1591 29.9975 23.1591C31.0998 23.1591 32.0406 23.5487 32.8199 24.3279C33.5991 25.1072 33.9887 26.0479 33.9887 27.1503C33.9887 27.6444 33.9079 28.1148 33.7464 28.5615C33.5848 29.0081 33.3425 29.412 33.0194 29.7731ZM39.5194 36.2731L37.8659 34.6196C38.284 33.9164 38.5976 33.1751 38.8067 32.3959C39.0158 31.6167 39.1203 30.8184 39.1203 30.0012C39.1203 27.4544 38.2365 25.2972 36.469 23.5297C34.7014 21.7621 32.5443 20.8784 29.9975 20.8784C29.1802 20.8784 28.382 20.9829 27.6027 21.192C26.8235 21.401 26.0823 21.7146 25.3791 22.1327L23.7256 20.4792C24.6568 19.871 25.6546 19.4054 26.719 19.0823C27.7833 18.7592 28.8761 18.5977 29.9975 18.5977C31.575 18.5977 33.0574 18.897 34.4449 19.4957C35.8323 20.0944 37.0391 20.9069 38.0655 21.9332C39.0918 22.9595 39.9043 24.1664 40.503 25.5538C41.1017 26.9412 41.401 28.4237 41.401 30.0012C41.401 31.1225 41.2394 32.2153 40.9163 33.2797C40.5932 34.344 40.1276 35.3418 39.5194 36.2731ZM29.9975 41.4047C28.42 41.4047 26.9375 41.1053 25.5501 40.5066C24.1627 39.908 22.9558 39.0955 21.9295 38.0691C20.9032 37.0428 20.0907 35.836 19.492 34.4485C18.8933 33.0611 18.594 31.5787 18.594 30.0012C18.594 28.8798 18.7508 27.787 19.0644 26.7227C19.378 25.6583 19.8389 24.651 20.447 23.7007L17.083 20.3082L18.708 18.6832L41.287 41.2621L39.662 42.8871L22.1291 25.3827C21.7109 26.086 21.3973 26.8272 21.1883 27.6064C20.9792 28.3857 20.8747 29.1839 20.8747 30.0012C20.8747 31.0845 21.0552 32.1203 21.4163 33.1086C21.7775 34.0969 22.3001 34.9997 22.9843 35.817C24.0106 35.0377 25.1177 34.4438 26.3056 34.0352C27.4935 33.6265 28.7241 33.4222 29.9975 33.4222C30.7197 33.4222 31.4419 33.4982 32.1641 33.6503C32.8864 33.8023 33.5896 34.0114 34.2738 34.2775L38.0655 38.0691C36.9821 39.1525 35.7468 39.9792 34.3593 40.5494C32.9719 41.1196 31.518 41.4047 29.9975 41.4047Z" fill="white"/>
</g>
<defs>
<linearGradient id="paint0_linear_6339_5439" x1="30" y1="0" x2="30" y2="60" gradientUnits="userSpaceOnUse">
<stop stop-color="#F9A071"/>
<stop offset="1" stop-color="#FF6200"/>
</linearGradient>
</defs>
</svg>
