<svg width="22" height="22" viewBox="0 0 22 22" fill="none" xmlns="http://www.w3.org/2000/svg">
<mask id="mask0_421_442" style="mask-type:alpha" maskUnits="userSpaceOnUse" x="0" y="0" width="22" height="22">
<rect width="22" height="22" fill="white"/>
</mask>
<g mask="url(#mask0_421_442)">
<path d="M11.0002 11.1753C12.1789 11.1753 13.3963 11.064 14.6526 10.8414C15.9089 10.6187 17.0183 10.3187 17.9808 9.94147V18.3324C17.0877 18.7214 16.0077 19.036 14.7409 19.2763C13.474 19.5167 12.2271 19.6368 11.0002 19.6368C9.77322 19.6368 8.52632 19.5167 7.25949 19.2763C5.99266 19.036 4.91267 18.7214 4.01953 18.3324V9.94147C4.98203 10.3187 6.09143 10.6187 7.34772 10.8414C8.60401 11.064 9.8215 11.1753 11.0002 11.1753ZM16.6061 17.3099V11.8275C15.8597 12.0414 14.9641 12.2153 13.9193 12.3493C12.8746 12.4833 11.9016 12.5503 11.0002 12.5503C10.0988 12.5503 9.12575 12.4833 8.08105 12.3493C7.0362 12.2153 6.14062 12.0414 5.3943 11.8275V17.3099C6.12305 17.5849 7.01039 17.8123 8.0563 17.9921C9.10222 18.1719 10.0835 18.2618 11.0002 18.2618C11.9168 18.2618 12.8981 18.1719 13.9441 17.9921C14.99 17.8123 15.8773 17.5849 16.6061 17.3099ZM11.0002 2.36133C11.9115 2.36133 12.6917 2.68583 13.3407 3.33483C13.9897 3.98383 14.3142 4.76399 14.3142 5.67531C14.3142 6.58678 13.9897 7.36702 13.3407 8.01602C12.6917 8.66502 11.9115 8.98952 11.0002 8.98952C10.0889 8.98952 9.3087 8.66502 8.6597 8.01602C8.0107 7.36702 7.6862 6.58678 7.6862 5.67531C7.6862 4.76399 8.0107 3.98383 8.6597 3.33483C9.3087 2.68583 10.0889 2.36133 11.0002 2.36133ZM11.0004 7.61452C11.5338 7.61452 11.9903 7.42461 12.3699 7.04481C12.7496 6.665 12.9394 6.20843 12.9394 5.67508C12.9394 5.14173 12.7495 4.68523 12.3697 4.30558C11.9899 3.92608 11.5333 3.73633 10.9999 3.73633C10.4666 3.73633 10.0101 3.92623 9.63045 4.30604C9.2508 4.68584 9.06097 5.14242 9.06097 5.67577C9.06097 6.20911 9.25087 6.66554 9.63068 7.04504C10.0105 7.42469 10.4671 7.61452 11.0004 7.61452Z" fill="#1C1B1F"/>
</g>
</svg>
