<svg height="512" viewBox="0 0 512 512" width="512" xmlns="http://www.w3.org/2000/svg" xmlns:xlink="http://www.w3.org/1999/xlink"><clipPath id="clip-path"><path d="m52.49 122.14a77.23 77.23 0 0 1 49 46.14c-20 27.17-48.39 79.95-64.36 152a262.13 262.13 0 0 0 -5.59 72.56 41 41 0 0 0 40.87 38.47h240.77a47.45 47.45 0 0 0 47.47-49.75c-1.74-34.16-9.74-81.6-36-128.27-49.29-87.67-150.65-98.62-150.65-98.62a256.47 256.47 0 0 1 48-73.95c-29.48 13.76-50.47 13-64.7 9.24-14.49-3.86-23.89-11.41-37.32-7.53-11.51 3.33-13.66 11.5-27 21.91-7.98 6.15-20.7 13.77-40.49 17.8z"/></clipPath><g id="Rupee"><rect fill="#efbd42" height="37.4" rx="8.1" width="165.28" x="307.27" y="393.88"/><rect fill="#d7981a" height="37.4" rx="8.1" width="152.01" x="296.42" y="356.45"/><rect fill="#efbd42" height="37.4" rx="8.1" width="152.01" x="296.42" y="247.65"/><rect fill="#efbd42" height="37.4" rx="8.1" width="165.28" x="315.72" y="319.35"/><rect fill="#d7981a" height="37.4" rx="8.1" width="165.28" x="307.27" y="281.95"/><circle cx="372.42" cy="164.43" fill="#d7981a" r="83.71"/><circle cx="357.8" cy="164.43" fill="#efbd42" r="83.71"/><path d="m357.8 236.08a71.65 71.65 0 1 1 71.64-71.65 71.73 71.73 0 0 1 -71.64 71.65z" fill="#d7981a"/><g fill="#efbd42"><rect height="12.21" rx="1.75" width="63.15" x="326.22" y="116.88"/><rect height="12.21" rx="1.75" width="63.15" x="326.22" y="136.05"/><path d="m372.87 213.31-1.15.08c-6.72 0-30.22-22.6-34.48-27.13a48.39 48.39 0 0 0 18.76-7.68c19-13.27 23.17-37.66 15.37-52.22-5.68-10-17.27-12.18-27.21-6.21a40.55 40.55 0 0 0 -10.38 8.94h8.22a30.46 30.46 0 0 1 9.14-5.51c16.2 6.68 12.45 48.4-21.35 56.3v17.54c4.5 5.1 5.18 6.34 13.51 15.24a76.63 76.63 0 0 0 10.62 9.72c3.6 2.7 6.95 4.09 10.06 4.09a10.46 10.46 0 0 0 7.1-2.45c3.6-3.19 4.09-6.13 4.09-7.52-.01-2.12-.74-3.19-2.3-3.19z"/><rect height="17.84" rx="1.9" width="11.46" x="326.22" y="179.88"/></g><g clip-path="url(#clip-path)"><path d="m52.49 122.14a77.23 77.23 0 0 1 49 46.14c-20 27.17-48.39 79.95-64.36 152-13.7 61.73 0 111 0 111h321.8s15.07-90.38-34.23-178-150.7-98.61-150.7-98.61a256.47 256.47 0 0 1 48-73.95c-29.48 13.76-50.47 13-64.7 9.24-14.49-3.86-23.89-11.41-37.32-7.53-11.51 3.33-13.66 11.5-27 21.91-7.98 6.15-20.7 13.77-40.49 17.8z" fill="#917eec"/><path d="m52.49 122.14s27.17-9.76 48.08 11.15 39.81 15.28 43.83 19.31-29.55 26.54-55.49 114-11.91 121.85 9.7 139.4 120.59 25.28 120.59 25.28l-79.62 19.91-108.58-3.02-25.94-89.27 29.56-81.44 33.18-73-13.88-39.8z" fill="#6d5fde"/></g><rect fill="#efbd42" height="11.46" rx="4.75" transform="matrix(.97 -.245 .245 .97 -34.8 39.8)" width="106.35" x="89.51" y="154.14"/><rect fill="#d7981a" height="11.46" rx="4.75" transform="matrix(.979 -.204 .204 .979 -26.95 31.48)" width="106.35" x="85.89" y="140.57"/><rect fill="#efbd42" height="15.75" rx="1.75" width="81.49" x="166.91" y="233.73"/><rect fill="#efbd42" height="15.75" rx="1.75" width="81.49" x="166.91" y="258.47"/><path d="m227.11 358.17-1.48.1c-8.67 0-39-29.17-44.49-35a62.61 62.61 0 0 0 24.25-9.91c24.48-17.13 29.89-48.6 19.83-67.39a25.83 25.83 0 0 0 -8.75-9.07c-8.19-5-18.42-3.71-26.37 1.06a52.27 52.27 0 0 0 -13.4 11.53h10.56a39.21 39.21 0 0 1 11.8-7.1c20.88 8.61 16.11 62.43-27.56 72.61v22.64c5.82 6.57 6.69 8.17 17.44 19.65a99.37 99.37 0 0 0 13.7 12.55c4.65 3.48 9 5.28 13 5.28a13.46 13.46 0 0 0 9.17-3.17c4.64-4.11 5.27-7.91 5.27-9.7-.02-2.71-.96-4.08-2.97-4.08z" fill="#efbd42"/><rect fill="#efbd42" height="23.02" rx="1.9" width="14.79" x="166.91" y="315.03"/><path d="m216.59 179.88s89.66 32.3 105.61 124.56a298.52 298.52 0 0 0 -105.61-124.56z" fill="#fff"/><path d="m329.42 338.05s6.84 56.74 0 69.85-81 11.4-81 11.4 54.75-9.69 67.31-21.09 13.69-60.16 13.69-60.16z" fill="#fff"/><path d="m384.37 92.78s88.43 34.45 32 122.21c4.62-8 14.17-27 12.18-51.84-3.46-43.72-39.55-67.46-44.18-70.37z" fill="#fff"/><rect fill="#d7981a" height="33.81" rx="3.55" width="9.21" x="337.68" y="248.14"/><rect fill="#d7981a" height="33.81" rx="3.55" width="9.21" x="389.15" y="248.14"/><rect fill="#efbd42" height="33.81" rx="3.55" width="9.21" x="398.36" y="283.75"/><rect fill="#efbd42" height="33.81" rx="3.55" width="9.21" x="393.75" y="358.24"/><rect fill="#d7981a" height="37.4" rx="3.55" width="9.21" x="367.81" y="319.35"/><rect fill="#d7981a" height="37.4" rx="3.55" width="9.21" x="430.6" y="319.35"/><rect fill="#d7981a" height="37.4" rx="3.55" width="9.21" x="443.82" y="393.88"/><rect fill="#d7981a" height="37.4" rx="3.55" width="9.21" x="382.85" y="393.88"/></g></svg>