<svg id="Layer_1" enable-background="new 0 0 468 468" height="512" viewBox="0 0 468 468" width="512" xmlns="http://www.w3.org/2000/svg"><g id="XMLID_688_"><g id="XMLID_694_"><path id="XMLID_700_" d="m419.927 109.353c4.079 225.808-140.181 319.242-177.288 339.511-5.449 2.976-11.958 3.261-17.631.742-37.966-16.859-182.495-97.126-176.872-340.253l.006-.001c46.555-7.623 80.542-46.44 80.352-91.772l-.007-1.604h211.087l-.007 1.61c-.186 45.332 33.804 84.147 80.36 91.767z" fill="#fff"/><path id="XMLID_701_" d="m305.014 369.727c-37.965-16.858-182.494-97.125-176.871-340.252l.344-13.499.007 1.604c.19 45.332-33.796 84.149-80.352 91.773l-.006.001c-5.623 243.126 138.906 323.393 176.871 340.251 5.673 2.519 12.183 2.235 17.631-.742 19.05-10.405 66.339-40.104 107.302-97.088-11.394 8.093-20.924 13.73-27.295 17.209-5.448 2.977-11.957 3.262-17.631.743-37.964-16.859 5.674 2.519 0 0z" fill="#e6e7e8"/><path id="XMLID_702_" d="m218.504 464.203c-135.672-63.452-189.632-213.964-186.365-355.219.168-7.3 5.273-13.556 12.399-15.198 38.264-8.824 68.242-36.342 67.948-77.743-.037-8.734 7.253-16.043 16.002-16.043h211.087c8.747 0 16.036 7.306 16.001 16.039-.847 38.95 29.093 71.355 66.939 77.549 7.628 1.248 13.271 7.762 13.41 15.477 2.518 139.437-58.87 284.587-185.607 353.814-5.335 2.914-15.074 9.152-31.814 1.324zm13.006-29.195c1.106.49 2.363.433 3.45-.16 39.816-21.749 167.672-107.726 169.04-312.731-41.371-11.918-73.701-47.181-79.494-90.165h-180.949c-5.798 43.016-38.169 78.295-79.579 90.19-.224 122.584 47.445 259.539 167.532 312.866 1.106.491-16.902-7.505 0 0z" fill="#3e4d6c"/></g><g id="XMLID_705_"><ellipse id="XMLID_706_" cx="233.994" cy="219.568" fill="#0795fe" rx="99.009" ry="99.289"/><path id="XMLID_707_" d="m205.635 259.048-28.862-33.626 24.301-20.791 17.488 20.375 49.746-50.803 22.884 22.336-61.965 63.281c-3.015 3.08-12.734 8.938-23.592-.772z" fill="#fff"/></g></g></svg>