<svg id="Icon" viewBox="0 0 24 24" xmlns="http://www.w3.org/2000/svg"><path d="m17.755 3.865-3.901-1.116c-1.214-.346-2.496-.347-3.709 0l-3.901 1.114c-1.174.336-1.995 1.423-1.995 2.645v5.783c0 3.807 2.115 7.229 5.521 8.932.689.345 1.46.526 2.229.526s1.541-.182 2.229-.526c3.405-1.702 5.52-5.125 5.52-8.932v-5.783c0-1.222-.82-2.309-1.995-2.644zm.495 8.427c0 3.235-1.797 6.144-4.691 7.59-.964.482-2.154.482-3.118 0-2.894-1.446-4.691-4.354-4.691-7.59v-5.783c0-.556.373-1.05.907-1.202l3.901-1.115c.472-.134.957-.201 1.442-.201s.971.067 1.442.201l3.901 1.116c.534.151.907.646.907 1.201z" fill="#112d55"/><path d="m15.6 9.55c-.249-.331-.717-.398-1.05-.149l-3.479 2.609-1.54-1.54c-.293-.293-.768-.293-1.061 0s-.293.768 0 1.061l2 2c.146.146.337.22.53.22.158 0 .316-.05.45-.15l4-3c.331-.248.398-.718.15-1.05z" fill="#549bff"/></svg>