<svg width="146" height="145" viewBox="0 0 146 145" fill="none" xmlns="http://www.w3.org/2000/svg">
<rect x="0.5" width="145" height="145" rx="72.5" fill="white"/>
<path d="M59.6645 47.9526V43.4067H76.6361V47.9526H82.3943V43.4067C82.3943 40.2316 79.8111 37.6484 76.6361 37.6484H59.6645C56.4895 37.6484 53.9062 40.2316 53.9062 43.4067V47.9526H59.6645Z" fill="#CACACA"/>
<path d="M61.4831 73.4046H74.818V75.5745C71.2539 79.1386 69.0597 84.0482 69.0597 89.467C69.0597 91.4673 69.3628 93.3948 69.9204 95.2253H47.5421C43.0325 95.2253 39.3594 91.5521 39.3594 87.0425V65.5977L45.4813 71.7196C46.5481 72.7864 48.0392 73.4046 49.5545 73.4046H52.9973V77.3444C52.9973 79.6841 54.9005 81.5874 57.2402 81.5874C59.5799 81.5874 61.4831 79.6841 61.4831 77.3444V73.4046Z" fill="#CACACA"/>
<path d="M96.9436 65.5977V71.5498C95.5253 70.8952 94.0099 70.4103 92.4219 70.1194L96.9436 65.5977Z" fill="#CACACA"/>
<path d="M81.4818 70.0769V71.1679C79.7241 71.871 78.0996 72.8166 76.6328 73.9682V70.0769C76.6328 68.7434 77.7238 67.6523 79.0573 67.6523C79.7241 67.6523 80.3302 67.919 80.7666 68.3676C81.2153 68.804 81.4818 69.4101 81.4818 70.0769Z" fill="#CACACA"/>
<path d="M59.6615 70.0769C59.6615 68.7378 58.576 67.6523 57.237 67.6523C55.898 67.6523 54.8125 68.7378 54.8125 70.0769V77.3504C54.8125 78.6894 55.898 79.7749 57.237 79.7749C58.576 79.7749 59.6615 78.6894 59.6615 77.3504V70.0769Z" fill="#CACACA"/>
<path d="M88.7589 49.7734H47.5421C43.0325 49.7734 39.3594 53.4466 39.3594 57.9562V63.0356L46.7663 70.4425C47.4936 71.1698 48.5119 71.5941 49.5545 71.5941H52.9973V70.0788C52.9973 67.7391 54.9005 65.8359 57.2402 65.8359C59.5799 65.8359 61.4831 67.7391 61.4831 70.0788V71.5941H74.818V70.0788C74.818 67.7391 76.7212 65.8359 79.0609 65.8359C81.4005 65.8359 83.3038 67.7391 83.3038 70.0788V70.5516C85.0373 70.0424 86.8678 69.7757 88.7589 69.7757C89.2317 69.7757 89.6924 69.7878 90.153 69.8242L96.9417 63.0356V57.9562C96.9417 53.4466 93.2685 49.7734 88.7589 49.7734ZM75.4241 58.8654H60.877C60.3799 58.8654 59.9678 58.4532 59.9678 57.9562C59.9678 57.4592 60.3799 57.047 60.877 57.047H75.4241C75.9211 57.047 76.3333 57.4592 76.3333 57.9562C76.3333 58.4532 75.9211 58.8654 75.4241 58.8654Z" fill="#CACACA"/>
<path d="M84.078 83.8685C83.7826 83.5737 83.3949 83.4258 83.0066 83.4258C82.619 83.4258 82.2307 83.5738 81.9352 83.8685C81.3445 84.4592 81.3445 85.4216 81.9352 86.0125L87.0785 91.1551C87.6515 91.7282 88.6482 91.7282 89.2213 91.1551C89.812 90.5644 89.812 89.6031 89.2213 89.0124L84.078 83.8685Z" fill="#6666F2"/>
<path d="M94.2979 88.5664H91.1016C91.589 89.5183 91.589 90.6452 91.1016 91.5971H94.2979C95.1338 91.5971 95.8132 90.9176 95.8132 90.0817C95.8132 89.2459 95.1338 88.5664 94.2979 88.5664Z" fill="#6666F2"/>
<path d="M88.7558 71.5938C78.8962 71.5938 70.875 79.6155 70.875 89.4746C70.875 99.3336 78.8962 107.355 88.7558 107.355C98.6155 107.355 106.637 99.3336 106.637 89.4746C106.637 79.6155 98.6155 71.5938 88.7558 71.5938ZM94.2974 93.4144H88.1497C87.2588 93.4144 86.4219 93.0676 85.7927 92.4377L80.6494 87.2951C79.3495 85.9951 79.3495 83.8796 80.6494 82.5798C81.9494 81.2801 84.0637 81.2799 85.3636 82.5798L89.5302 86.747H94.2974C96.1353 86.747 97.6311 88.2422 97.6311 90.0807C97.6311 91.9192 96.1353 93.4144 94.2974 93.4144Z" fill="#6666F2"/>
</svg>
