<svg width="203" height="203" viewBox="0 0 203 203" fill="none" xmlns="http://www.w3.org/2000/svg">
<g opacity="0.3">
<rect x="1.02525" y="1.02525" width="200.949" height="200.949" rx="100.475" stroke="url(#paint0_linear_1633_5271)" stroke-width="2.05051"/>
<circle cx="101.502" cy="101.498" r="84.0707" stroke="url(#paint1_linear_1633_5271)" stroke-width="2.05051"/>
<circle cx="101.504" cy="101.5" r="41.5289" stroke="url(#paint2_linear_1633_5271)" stroke-width="1.0129"/>
</g>
<path d="M56.768 141.162C46.5318 141.162 38.2036 132.836 38.2036 122.598C38.2036 112.359 46.5318 104.033 56.768 104.033C67.0043 104.033 75.3325 112.359 75.3325 122.598C75.3325 132.836 67.0043 141.162 56.768 141.162ZM64.9829 144.271C59.6914 146.315 53.8447 146.315 48.5532 144.271C47.2071 143.759 45.6752 143.945 44.4696 144.688C37.6461 149.008 33.5625 156.336 33.5625 164.368V182.932C33.5625 185.484 35.6519 187.573 38.2036 187.573H61.4091V164.368C61.4091 157.175 63.3127 150.168 66.746 144.04C66.1432 143.945 65.5404 144.04 64.9829 144.271ZM149.59 141.162C159.826 141.162 168.155 132.836 168.155 122.598C168.155 112.359 159.826 104.033 149.59 104.033C139.354 104.033 131.026 112.359 131.026 122.598C131.026 132.836 139.354 141.162 149.59 141.162ZM161.889 144.688C160.683 143.945 159.151 143.759 157.805 144.271C152.514 146.315 146.667 146.315 141.375 144.271C140.818 144.04 140.215 143.945 139.612 144.04C143.046 150.168 144.949 157.175 144.949 164.368V187.573H168.155C170.706 187.573 172.796 185.484 172.796 182.932V164.368C172.796 156.336 168.712 149.008 161.889 144.688ZM103.179 131.88C90.3843 131.88 79.9736 121.469 79.9736 108.674C79.9736 95.8795 90.3843 85.4688 103.179 85.4688C115.974 85.4688 126.385 95.8795 126.385 108.674C126.385 121.469 115.974 131.88 103.179 131.88ZM135.667 164.368C135.667 154.016 130.702 144.271 122.346 138.193C120.955 137.169 119.099 137.033 117.567 137.772C114.458 139.354 111.163 140.328 107.82 140.79V164.368C107.82 166.919 105.731 169.009 103.179 169.009C100.627 169.009 98.538 166.919 98.538 164.368V140.79C95.1954 140.328 91.9004 139.354 88.7912 137.772C87.2593 137.033 85.4033 137.169 84.0119 138.193C75.6565 144.271 70.6914 154.016 70.6914 164.368V187.573H135.667V164.368Z" fill="white"/>
<defs>
<linearGradient id="paint0_linear_1633_5271" x1="101.5" y1="0" x2="101.5" y2="203" gradientUnits="userSpaceOnUse">
<stop stop-color="white"/>
<stop offset="1" stop-color="#9595FF" stop-opacity="0.5"/>
</linearGradient>
<linearGradient id="paint1_linear_1633_5271" x1="186.598" y1="125.079" x2="28.1967" y2="64.5892" gradientUnits="userSpaceOnUse">
<stop stop-color="white"/>
<stop offset="1" stop-color="#8484F9"/>
</linearGradient>
<linearGradient id="paint2_linear_1633_5271" x1="143.539" y1="113.149" x2="65.2929" y2="83.268" gradientUnits="userSpaceOnUse">
<stop stop-color="white"/>
<stop offset="1" stop-color="#8484F9"/>
</linearGradient>
</defs>
</svg>
