<svg width="146" height="146" viewBox="0 0 146 146" fill="none" xmlns="http://www.w3.org/2000/svg">
<g opacity="0.3">
<rect x="0.737374" y="0.737374" width="144.525" height="144.525" rx="72.2626" stroke="url(#paint0_linear_1633_5742)" stroke-width="1.47475"/>
<circle cx="73.0067" cy="72.9989" r="60.4646" stroke="url(#paint1_linear_1633_5742)" stroke-width="1.47475"/>
<circle cx="72.9979" cy="73.0019" r="29.8681" stroke="url(#paint2_linear_1633_5742)" stroke-width="0.72849"/>
</g>
<path d="M73.9614 44.1914C68.2643 44.1914 62.6951 45.8808 57.9581 49.046C53.2212 52.2111 49.5291 56.7099 47.3489 61.9733C45.1687 67.2368 44.5983 73.0285 45.7097 78.6162C46.8212 84.2039 49.5646 89.3365 53.5931 93.3649C57.6216 97.3934 62.7542 100.137 68.3418 101.248C73.9295 102.36 79.7213 101.789 84.9847 99.6091C90.2482 97.4289 94.7469 93.7369 97.9121 88.9999C101.077 84.2629 102.767 78.6937 102.767 72.9966C102.758 65.3597 99.7199 58.0383 94.3198 52.6382C88.9198 47.2381 81.5983 44.2004 73.9614 44.1914ZM83.6688 82.7039C83.1777 83.1949 82.5118 83.4706 81.8174 83.4706C81.123 83.4706 80.4571 83.1949 79.966 82.7039L72.1101 74.848C71.6189 74.357 71.3429 73.691 71.3428 72.9966V57.2847C71.3428 56.5902 71.6187 55.9241 72.1098 55.433C72.6009 54.9419 73.2669 54.666 73.9614 54.666C74.656 54.666 75.322 54.9419 75.8131 55.433C76.3042 55.9241 76.5801 56.5902 76.5801 57.2847V71.9125L83.6688 79.0012C84.1597 79.4922 84.4355 80.1582 84.4355 80.8526C84.4355 81.5469 84.1597 82.2129 83.6688 82.7039Z" fill="white"/>
<defs>
<linearGradient id="paint0_linear_1633_5742" x1="73" y1="0" x2="73" y2="146" gradientUnits="userSpaceOnUse">
<stop stop-color="white"/>
<stop offset="1" stop-color="#9595FF" stop-opacity="0.5"/>
</linearGradient>
<linearGradient id="paint1_linear_1633_5742" x1="134.209" y1="89.9585" x2="20.2845" y2="46.4534" gradientUnits="userSpaceOnUse">
<stop stop-color="white"/>
<stop offset="1" stop-color="#8484F9"/>
</linearGradient>
<linearGradient id="paint2_linear_1633_5742" x1="103.23" y1="81.3795" x2="46.9544" y2="59.889" gradientUnits="userSpaceOnUse">
<stop stop-color="white"/>
<stop offset="1" stop-color="#8484F9"/>
</linearGradient>
</defs>
</svg>
