<svg width="219" height="235" viewBox="0 0 219 235" fill="none" xmlns="http://www.w3.org/2000/svg">
<g opacity="0.3">
<rect x="1.10329" y="1.10329" width="216.244" height="216.244" rx="108.122" stroke="url(#paint0_linear_1811_441)" stroke-width="2.20657"/>
<circle cx="109.229" cy="109.225" r="90.4694" stroke="url(#paint1_linear_1811_441)" stroke-width="2.20657"/>
<circle cx="109.227" cy="109.227" r="44.6897" stroke="url(#paint2_linear_1811_441)" stroke-width="1.08999"/>
</g>
<path d="M93.6644 133.54C90.1274 130.021 87.7143 125.531 86.7308 120.64C85.7474 115.749 86.2378 110.675 88.14 106.063C90.0422 101.451 93.2705 97.5066 97.4161 94.7305C101.562 91.9544 106.438 90.4712 111.427 90.4688C116.416 90.4663 121.294 91.9447 125.442 94.7167C129.591 97.4887 132.823 101.43 134.73 106.04C136.636 110.651 137.132 115.723 136.153 120.616C135.175 125.508 132.766 130 129.232 133.522C129.022 133.731 128.773 133.897 128.499 134.01C128.225 134.123 127.931 134.181 127.634 134.18C127.338 134.18 127.044 134.121 126.77 134.007C126.497 133.893 126.248 133.726 126.039 133.516C125.829 133.306 125.663 133.056 125.55 132.782C125.437 132.508 125.38 132.214 125.38 131.918C125.381 131.621 125.44 131.328 125.554 131.054C125.668 130.78 125.835 130.531 126.045 130.322C128.944 127.431 130.921 123.744 131.724 119.729C132.526 115.713 132.119 111.55 130.554 107.766C128.989 103.982 126.336 100.748 122.931 98.4733C119.527 96.1984 115.523 94.9851 111.428 94.9872C107.334 94.9893 103.332 96.2065 99.9292 98.4849C96.5268 100.763 93.877 104 92.3157 107.785C90.7543 111.571 90.3515 115.735 91.1583 119.749C91.9651 123.764 93.9452 127.448 96.8478 130.337C97.0599 130.545 97.2287 130.794 97.3445 131.068C97.4602 131.342 97.5207 131.637 97.5223 131.934C97.524 132.232 97.4668 132.527 97.3541 132.802C97.2414 133.077 97.0753 133.328 96.8655 133.539C96.6557 133.75 96.4062 133.917 96.1315 134.032C95.8567 134.146 95.5621 134.205 95.2645 134.205C94.967 134.205 94.6723 134.146 94.3975 134.032C94.1227 133.918 93.8732 133.75 93.6633 133.54H93.6644ZM162.737 155.533C161.261 154.677 159.586 154.223 157.879 154.217C156.173 154.211 154.494 154.653 153.012 155.499C152.888 155.571 152.769 155.649 152.648 155.725C152.246 149.703 147.412 146.551 142.627 146.548H142.619C139.768 146.548 136.9 147.668 134.96 149.846C133.025 147.462 130.023 146.234 127.041 146.233H127.032C125.078 146.227 123.16 146.758 121.488 147.769L121.503 115.682C121.503 113.02 120.447 110.466 118.566 108.581C116.686 106.696 114.134 105.633 111.472 105.626H111.452C108.794 105.636 106.247 106.696 104.367 108.576C102.487 110.455 101.426 113.002 101.415 115.661L101.38 168.678L95.7993 161.332C92.6527 157.181 87.7991 154.966 83.1352 155.553C79.6402 155.993 76.8402 157.95 75.6462 160.788C74.858 162.661 74.1258 166.581 78.0778 171.791C86.3315 182.668 89.1137 190.585 91.5682 197.571C93.5673 203.26 95.2943 208.174 99.5004 212.983C103.223 217.248 105.012 222.051 104.969 227.668L104.928 232.725C104.926 233.022 104.982 233.316 105.093 233.591C105.205 233.866 105.369 234.116 105.577 234.327C105.785 234.539 106.033 234.707 106.306 234.823C106.579 234.939 106.873 234.999 107.169 235.002H150.614C151.213 234.997 151.786 234.754 152.206 234.327C152.626 233.901 152.859 233.324 152.855 232.725L152.815 227.662C152.771 222.032 154.562 217.224 158.289 212.964C164.296 206.102 167.603 197.29 167.594 188.17L167.618 164.694C167.624 160.671 165.845 157.332 162.737 155.533Z" fill="white"/>
<defs>
<linearGradient id="paint0_linear_1811_441" x1="109.225" y1="0" x2="109.225" y2="218.451" gradientUnits="userSpaceOnUse">
<stop stop-color="white"/>
<stop offset="1" stop-color="#9595FF" stop-opacity="0.5"/>
</linearGradient>
<linearGradient id="paint1_linear_1811_441" x1="200.802" y1="134.601" x2="30.344" y2="69.5068" gradientUnits="userSpaceOnUse">
<stop stop-color="white"/>
<stop offset="1" stop-color="#8484F9"/>
</linearGradient>
<linearGradient id="paint2_linear_1811_441" x1="154.462" y1="121.762" x2="70.2596" y2="89.607" gradientUnits="userSpaceOnUse">
<stop stop-color="white"/>
<stop offset="1" stop-color="#8484F9"/>
</linearGradient>
</defs>
</svg>
