<svg clip-rule="evenodd" fill-rule="evenodd" height="512" stroke-linejoin="round" stroke-miterlimit="2" viewBox="0 0 64 64" width="512" xmlns="http://www.w3.org/2000/svg"><g id="Exp-1.-O"><path d="m32.576 30.098c-.6 1.855-1.409 3.638-2.415 5.314l-.492.82c-.155.259-.149.584.016.838.165.253.46.39.759.352h.002c3.105-.388 5.976-1.704 8.27-3.719 1.599.517 3.305.797 5.075.797 9.107 0 16.5-7.393 16.5-16.5s-7.393-16.5-16.5-16.5c-9.106 0-16.5 7.393-16.5 16.5 0 4.778 2.036 9.085 5.285 12.098zm-1.823 6.271.265-.442c1.102-1.836 1.977-3.796 2.609-5.836.058-.187.001-.39-.145-.521-3.184-2.839-5.191-6.972-5.191-11.57 0-8.555 6.946-15.5 15.5-15.5 8.555 0 15.5 6.945 15.5 15.5s-6.945 15.5-15.5 15.5c-1.76 0-3.453-.294-5.03-.836-.173-.059-.364-.019-.499.104-2.074 1.893-4.678 3.161-7.509 3.601z" fill="#738bab"/><path d="m31.853 61.741-12.563-41.885c-.063-.211-.258-.356-.478-.356h-2.002c-.221 0-.416.145-.479.356l-12.601 42c-.08.265.071.544.335.623s.543-.071.623-.335l12.494-41.644h1.257s12.456 41.528 12.456 41.528c.079.264.358.414.623.335.264-.079.414-.358.335-.622z" fill="#738bab"/><path d="m7.897 59.749 21.232-5.264c.22-.054.376-.249.38-.475.005-.226-.143-.427-.36-.49l-20.6-6c-.265-.077-.543.075-.62.34s.075.543.34.62l18.819 5.481s-19.432 4.818-19.432 4.818c-.268.066-.431.338-.365.606.067.267.338.431.606.364z" fill="#738bab"/><path d="m11.792 47.543 14.057-4.063c.209-.06.355-.249.361-.466.006-.218-.13-.414-.335-.486l-14.301-5c-.26-.091-.545.046-.637.307-.091.26.047.546.307.637l12.822 4.483s-12.552 3.627-12.552 3.627c-.265.077-.418.354-.341.619.076.265.354.418.619.342z" fill="#738bab"/><path d="m14.814 37.355 8.36-2.882c.194-.068.328-.247.336-.453.008-.207-.111-.396-.3-.479l-9.201-4c-.253-.11-.548.007-.658.26s.006.548.259.658l8.023 3.487s-7.145 2.464-7.145 2.464c-.261.09-.4.374-.31.635s.375.4.636.31z" fill="#738bab"/><path d="m16.344 29.089 4.521-2.658c.149-.088.242-.247.246-.421.004-.173-.083-.336-.229-.43l-4.692-3.029c-.232-.15-.542-.083-.691.149-.15.231-.083.541.148.691l4.012 2.589s-3.821 2.247-3.821 2.247c-.238.14-.318.447-.178.685s.447.317.684.177z" fill="#738bab"/><g fill="#2d74ff"><circle cx="17.791" cy="17.245" r="3.5"/><path d="m35.306 15.953c3.305-3.304 8.064-4.277 12.225-2.918.524.171 1.089-.116 1.261-.64.171-.525-.116-1.09-.641-1.261-4.853-1.585-10.404-.45-14.259 3.405-.39.39-.39 1.024 0 1.414.39.391 1.024.391 1.414 0z"/><path d="m50.342 14.382c.685.447 1.334.97 1.935 1.571.39.391 1.024.391 1.414 0 .39-.39.39-1.024 0-1.414-.701-.701-1.458-1.311-2.256-1.832-.463-.302-1.083-.171-1.384.291-.302.462-.171 1.082.291 1.384z"/><path d="m38.649 19.296c1.748-1.749 4.169-2.419 6.434-2.014.543.098 1.063-.264 1.16-.808.098-.543-.264-1.063-.808-1.16-2.886-.518-5.972.339-8.201 2.568-.39.39-.39 1.024 0 1.414.391.39 1.024.39 1.415 0z"/><path d="m47.895 18.433c.366.251.714.538 1.039.863.39.39 1.024.39 1.414 0s.39-1.024 0-1.414c-.414-.414-.857-.78-1.323-1.099-.455-.312-1.078-.195-1.39.26s-.195 1.078.26 1.39z"/><path d="m41.991 22.639c.202-.202.429-.362.671-.482.494-.245.697-.845.452-1.34-.244-.495-.845-.697-1.339-.453-.433.214-.838.501-1.198.861-.39.39-.39 1.023 0 1.414.39.39 1.024.39 1.414 0z"/><path d="m45.265 22.363c.115.081.224.173.326.276.39.39 1.024.39 1.414 0 .391-.391.391-1.024 0-1.414-.182-.183-.376-.347-.58-.492-.449-.32-1.074-.214-1.394.235-.321.45-.215 1.075.234 1.395z"/><circle cx="43.791" cy="25.353" r="1.5"/><path d="m48.788 8.625-10.849 17.705c-.289.471-.141 1.087.33 1.376.47.288 1.087.14 1.375-.331l10.85-17.705c.288-.471.14-1.087-.331-1.376-.47-.288-1.086-.14-1.375.331z"/></g></g></svg>