<svg width="78" height="77" viewBox="0 0 78 77" fill="none" xmlns="http://www.w3.org/2000/svg">
<path fill-rule="evenodd" clip-rule="evenodd" d="M32.4913 60.2133C31.6019 59.296 31.0542 58.0454 31.0542 56.668C31.0542 53.8562 33.337 51.5733 36.1488 51.5733H45.2007C42.3889 51.5733 40.106 53.8562 40.106 56.668C40.106 58.0653 40.6698 59.3321 41.5822 60.2529C41.6555 60.327 41.7313 60.399 41.8092 60.4685H42.8584V61.1927C43.5599 61.5569 44.3564 61.7627 45.2007 61.7627H43.5499L42.8584 62.0271V73.7677C42.8584 73.9436 42.7567 74.1035 42.5974 74.1781C42.4382 74.2525 42.2503 74.2282 42.1153 74.1156L38.3323 70.9598L34.5495 74.1156C34.4145 74.2282 34.2266 74.2525 34.0673 74.1781C33.9081 74.1035 33.8064 73.9436 33.8064 73.7677V61.1927C33.3161 60.9382 32.8724 60.6063 32.4913 60.2133ZM58.3857 23.8716C59.0499 24.043 59.0499 24.9964 58.3857 25.1785L38.0106 30.5883C37.6999 30.6739 37.4107 30.6739 37.0893 30.5883L16.7249 25.1785C16.05 24.9964 16.05 24.043 16.7249 23.8716L37.0893 18.4617C37.4107 18.3761 37.6999 18.3761 38.0106 18.4617L58.3857 23.8716ZM58.3854 36.3311L60.6135 37.6165C60.9028 37.7772 61.0635 38.0665 61.0635 38.3985V43.819C61.0635 44.1833 60.635 44.3975 60.335 44.1726L58.3854 42.7049L56.4249 44.1726C56.1358 44.3975 55.7073 44.1833 55.7073 43.819V38.3985C55.7073 38.0665 55.8679 37.7772 56.1572 37.6165L58.3854 36.3311ZM65.4514 51.5733C68.2633 51.5733 70.5461 53.8562 70.5461 56.668C70.5461 59.4799 68.2633 61.7627 65.4514 61.7627C62.6396 61.7627 60.3567 59.4799 60.3567 56.668C60.3567 53.8562 62.6396 51.5733 65.4514 51.5733Z" fill="#F3A73D"/>
<path fill-rule="evenodd" clip-rule="evenodd" d="M32.9553 63.3541H12.3497C8.84521 63.3541 6 60.6011 6 57.2103C6 53.8195 8.84521 51.0665 12.3497 51.0665H65.1145V51.0882C65.2912 51.0739 65.4698 51.0665 65.6503 51.0665C69.1548 51.0665 72 53.8195 72 57.2103C72 60.6011 69.1548 63.3541 65.6503 63.3541C65.4698 63.3541 65.2912 63.3469 65.1145 63.3324V63.3541H44.5088V74.8227C44.5088 75.2797 44.2355 75.6953 43.8077 75.8892C43.38 76.0828 42.875 76.0196 42.5124 75.7268L38.7321 72.6754L34.9518 75.7268C34.5891 76.0196 34.0841 76.0828 33.6564 75.8892C33.2287 75.6953 32.9553 75.2797 32.9553 74.8227V63.3541ZM31.1314 53.4214H12.3497C10.1885 53.4214 8.43375 55.1192 8.43375 57.2103C8.43375 59.3015 10.1885 60.9992 12.3497 60.9992H31.1314C30.2843 59.9552 29.779 58.6394 29.779 57.2103C29.779 55.7812 30.2843 54.4656 31.1314 53.4214ZM40.2509 53.4214H36.1286C33.9673 53.4214 32.2127 55.1192 32.2127 57.2103C32.2127 59.3015 33.9673 60.9992 36.1286 60.9992H40.2509C39.4038 59.9552 38.8985 58.6394 38.8985 57.2103C38.8985 55.7812 39.4038 54.4656 40.2509 53.4214ZM60.6531 53.4214H45.2482C43.087 53.4214 41.3323 55.1192 41.3323 57.2103C41.3323 59.3015 43.087 60.9992 45.2482 60.9992H60.6531C59.806 59.9552 59.3007 58.6394 59.3007 57.2103C59.3007 55.7812 59.806 54.4656 60.6531 53.4214ZM35.3891 63.3541V72.3072L37.9526 70.238C38.404 69.8736 39.0601 69.8736 39.5115 70.238L42.075 72.3072V63.3541H35.3891ZM65.6503 53.4214C63.489 53.4214 61.7344 55.1192 61.7344 57.2103C61.7344 59.3015 63.489 60.9992 65.6503 60.9992C67.8115 60.9992 69.5662 59.3015 69.5662 57.2103C69.5662 55.1192 67.8115 53.4214 65.6503 53.4214ZM20.9191 28.6478L14.7067 27.05C13.5348 26.7485 13.5349 25.0752 14.7071 24.774L37.1996 18.9941C37.4042 18.9414 37.6196 18.9414 37.8243 18.9941L60.3169 24.774C60.8501 24.9111 61.2214 25.3781 61.2214 25.9119C61.2215 26.4457 60.8504 26.9128 60.3171 27.05L59.8577 27.1682V36.4674L61.8345 37.5749C62.2102 37.7856 62.4416 38.1738 62.4416 38.5938V46.2223C62.4416 46.6686 62.1807 47.0764 61.7681 47.2757C61.3555 47.4751 60.8618 47.4315 60.4932 47.1632L58.6408 45.8152L56.7884 47.1632C56.4199 47.4315 55.9261 47.4751 55.5136 47.2757C55.1009 47.0764 54.8401 46.6686 54.8401 46.2223V38.5938C54.8401 38.1738 55.0714 37.7856 55.4471 37.5749L57.424 36.4674V27.7941L54.1048 28.6478V39.6303C54.1048 40.1988 53.685 40.6861 53.1069 40.7884C34.4938 44.0827 40.5301 44.0827 21.917 40.7884C21.339 40.6861 20.9191 40.1988 20.9191 39.6303V28.6478ZM51.671 29.2738L37.8245 32.8352C37.6198 32.8879 37.4042 32.8879 37.1993 32.8352L23.3528 29.2738V38.6498C39.9084 41.6145 35.1156 41.6145 51.671 38.6498V29.2738ZM37.5119 21.3503L19.758 25.9126L37.5119 30.4791L55.2658 25.9126L37.5119 21.3503ZM58.6408 38.5069L57.2738 39.2726V43.8634L57.9093 43.4009C58.3425 43.0857 58.9391 43.0857 59.3723 43.4009L60.0078 43.8634V39.2726L58.6408 38.5069Z" fill="#2C426B"/>
<path fill-rule="evenodd" clip-rule="evenodd" d="M12 53C9.79086 53 8 54.7909 8 57C8 59.2091 9.79086 61 12 61H34.1765C31.9673 61 30.1765 59.2091 30.1765 57C30.1765 54.7909 31.9673 53 34.1765 53H12Z" fill="#EAEAEA"/>
</svg>
