<svg width="32" height="32" viewBox="0 0 32 32" fill="none" xmlns="http://www.w3.org/2000/svg">
<circle cx="15.9521" cy="15.5224" r="14.7948" fill="#4660F6" stroke="#4660F6" stroke-width="1.45522"/>
<path d="M12.8548 19.7843L9.30064 16.0722C9.2077 15.9739 9.09701 15.8959 8.975 15.8427C8.85298 15.7895 8.72205 15.762 8.58982 15.762C8.45758 15.762 8.32665 15.7895 8.20463 15.8427C8.08262 15.8959 7.97193 15.9739 7.87899 16.0722C7.78492 16.1693 7.71023 16.2849 7.65926 16.4123C7.60828 16.5398 7.58203 16.6765 7.58203 16.8146C7.58203 16.9527 7.60828 17.0895 7.65926 17.2169C7.71023 17.3444 7.78492 17.46 7.87899 17.5571L12.1338 22.001C12.5298 22.4147 13.1695 22.4147 13.5656 22.001L24.3295 10.7691C24.4235 10.6721 24.4982 10.5565 24.5492 10.429C24.6002 10.3016 24.6264 10.1648 24.6264 10.0267C24.6264 9.8886 24.6002 9.75185 24.5492 9.62441C24.4982 9.49696 24.4235 9.38136 24.3295 9.28429C24.2365 9.18603 24.1258 9.10802 24.0038 9.05478C23.8818 9.00154 23.7509 8.97412 23.6186 8.97412C23.4864 8.97412 23.3555 9.00154 23.2335 9.05478C23.1114 9.10802 23.0008 9.18603 22.9078 9.28429L12.8548 19.7843Z" fill="white"/>
</svg>
