<svg id="Layer_1_1_" enable-background="new 0 0 64 64" height="512" viewBox="0 0 64 64" width="512" xmlns="http://www.w3.org/2000/svg"><g><ellipse cx="32" cy="57" fill="#6f93c2" rx="15" ry="5"/></g><g><ellipse cx="32" cy="55" fill="#759acc" rx="9" ry="3"/></g><g><path d="m32.01 8c-8.84 0-15.99 7.16-16.01 16 0 5.77 1.99 10.98 4.79 15.86 2.25 3.91 5.01 7.63 7.7 11.28 1.21 1.63 2.4 3.25 3.52 4.86 1.06-1.58 2.21-3.21 3.4-4.87 2.59-3.6 5.34-7.37 7.61-11.31 2.87-5.01 4.98-10.3 4.98-15.82 0-8.84-7.15-16-15.99-16z" fill="#ff8088"/></g><g><circle cx="32" cy="24" fill="#e5e5e5" r="12"/></g><g><path d="m26 18h12v12h-12z" fill="#fcc84d" transform="matrix(-1 0 0 -1 64 48)"/></g><g><path d="m32 21-.927 1.975-2.073.317 1.5 1.537-.354 2.171 1.854-1.025 1.854 1.025-.354-2.171 1.5-1.537-2.073-.317z" fill="#5b6d80"/></g><g fill="#858e99"><path d="m60 9v-7h-2v7h-3l4 6 4-6z"/><path d="m50 9v-7h-2v7h-3l4 6 4-6z"/><path d="m17 9v-7h-2v7h-3l4 6 4-6z"/><path d="m7 9v-7h-2v7h-3l4 6 4-6z"/></g></svg>