<svg width="151" height="151" viewBox="0 0 151 151" fill="none" xmlns="http://www.w3.org/2000/svg">
<g opacity="0.3">
<rect x="0.762626" y="0.762626" width="149.475" height="149.475" rx="74.7374" stroke="url(#paint0_linear_1973_137)" stroke-width="1.52525"/>
<circle cx="75.5011" cy="75.5011" r="62.5354" stroke="url(#paint1_linear_1973_137)" stroke-width="1.52525"/>
<circle cx="75.4942" cy="75.4981" r="30.891" stroke="url(#paint2_linear_1973_137)" stroke-width="0.753438"/>
</g>
<path d="M92.4533 54.4526C90.0816 52.2914 87.3023 50.6253 84.2783 49.5522C81.2543 48.4791 78.0465 48.0204 74.8429 48.2032C71.6394 48.386 68.5046 49.2065 65.6223 50.6166C62.7399 52.0267 60.1681 53.998 58.0576 56.415C55.9471 58.832 54.3404 61.6461 53.3316 64.6921C52.3229 67.7382 51.9324 70.955 52.183 74.154C52.4337 77.3529 53.3205 80.4697 54.7914 83.3214C56.2623 86.1732 58.2878 88.7026 60.749 90.7614C66.3758 95.4395 71.0772 101.13 74.6103 107.538C74.7831 107.857 75.039 108.123 75.351 108.308C75.663 108.494 76.0193 108.591 76.3822 108.59C76.7448 108.59 77.1006 108.492 77.4118 108.306C77.723 108.12 77.9781 107.853 78.15 107.534L78.3147 107.224C81.8732 100.894 86.5649 95.2712 92.156 90.6368C94.747 88.3977 96.8307 85.6317 98.2681 82.5235C99.7055 79.4154 100.464 76.0364 100.492 72.612C100.52 69.1876 99.8174 65.7966 98.4313 62.6652C97.0452 59.5339 95.0072 56.7341 92.4533 54.4526ZM76.3822 82.4747C74.3956 82.4747 72.4536 81.8856 70.8018 80.7819C69.15 79.6782 67.8625 78.1095 67.1023 76.2741C66.3421 74.4387 66.1431 72.4191 66.5307 70.4706C66.9183 68.5222 67.8749 66.7325 69.2797 65.3277C70.6844 63.923 72.4742 62.9663 74.4226 62.5788C76.371 62.1912 78.3906 62.3901 80.226 63.1503C82.0614 63.9106 83.6301 65.198 84.7338 66.8498C85.8375 68.5016 86.4266 70.4436 86.4266 72.4302C86.4235 75.0932 85.3642 77.6462 83.4812 79.5292C81.5982 81.4122 79.0452 82.4715 76.3822 82.4747Z" fill="white"/>
<defs>
<linearGradient id="paint0_linear_1973_137" x1="75.5" y1="0" x2="75.5" y2="151" gradientUnits="userSpaceOnUse">
<stop stop-color="white"/>
<stop offset="1" stop-color="#9595FF" stop-opacity="0.5"/>
</linearGradient>
<linearGradient id="paint1_linear_1973_137" x1="138.799" y1="93.0415" x2="20.9733" y2="48.0466" gradientUnits="userSpaceOnUse">
<stop stop-color="white"/>
<stop offset="1" stop-color="#8484F9"/>
</linearGradient>
<linearGradient id="paint2_linear_1973_137" x1="106.762" y1="84.1627" x2="48.5588" y2="61.9363" gradientUnits="userSpaceOnUse">
<stop stop-color="white"/>
<stop offset="1" stop-color="#8484F9"/>
</linearGradient>
</defs>
</svg>
