<svg width="200" height="169" viewBox="0 0 200 169" fill="none" xmlns="http://www.w3.org/2000/svg">
<path d="M0.761807 3.27251C0.761807 1.96355 1.82292 0.902432 3.13188 0.902432H197.212C198.521 0.902432 199.582 1.96355 199.582 3.2725V166.352C199.582 167.661 198.521 168.723 197.212 168.723H3.13188C1.82293 168.723 0.761807 167.661 0.761807 166.352V3.27251Z" fill="url(#paint0_linear_1680_2440)"/>
<path d="M0.761807 3.27251C0.761807 1.96355 1.82292 0.902432 3.13188 0.902432H197.212C198.521 0.902432 199.582 1.96355 199.582 3.2725V166.352C199.582 167.661 198.521 168.723 197.212 168.723H3.13188C1.82293 168.723 0.761807 167.661 0.761807 166.352V3.27251Z" stroke="url(#paint1_linear_1680_2440)" stroke-width="0.179865"/>
<g filter="url(#filter0_d_1680_2440)">
<rect x="33.6719" y="30.8125" width="125" height="89" rx="2.22222" fill="white"/>
</g>
<rect x="41.6719" y="37.8125" width="23" height="21" rx="4" fill="#D4DFF9" fill-opacity="0.4"/>
<rect x="70.6719" y="41.8125" width="41" height="4" rx="2" fill="#D4DFF9" fill-opacity="0.4"/>
<rect x="70.6719" y="50.8125" width="51" height="4" rx="2" fill="#D4DFF9" fill-opacity="0.4"/>
<g filter="url(#filter1_d_1680_2440)">
<rect x="58.6719" y="65.8125" width="73" height="73" rx="3.86243" fill="white" shape-rendering="crispEdges"/>
<path d="M72.2515 83.9998C72.9441 83.9998 73.5048 83.3361 73.5048 82.5163V77.967H77.3483C78.0408 77.967 78.6016 77.3033 78.6016 76.4835C78.6016 75.6637 78.0408 75 77.3483 75H72.2515C71.559 75 70.9982 75.6637 70.9982 76.4835V82.5163C70.9982 83.3361 71.559 83.9998 72.2515 83.9998Z" fill="#6FC4EE"/>
<path d="M118.741 82.9998C118.048 82.9998 117.487 82.3361 117.487 81.5163V76.967H113.644C112.951 76.967 112.391 76.3033 112.391 75.4835C112.391 74.6637 112.951 74 113.644 74H118.741C119.433 74 119.994 74.6637 119.994 75.4835V81.5163C119.994 82.3361 119.433 82.9998 118.741 82.9998Z" fill="#6FC4EE"/>
<path d="M72.2515 123C72.9441 123 73.5048 123.664 73.5048 124.484V129.033H77.3483C78.0408 129.033 78.6016 129.697 78.6016 130.517C78.6016 131.336 78.0408 132 77.3483 132H72.2515C71.559 132 70.9982 131.336 70.9982 130.517V124.484C70.9982 123.664 71.559 123 72.2515 123Z" fill="#6FC4EE"/>
<path d="M118.741 124C118.048 124 117.487 124.664 117.487 125.484V130.033H113.644C112.951 130.033 112.391 130.697 112.391 131.517C112.391 132.336 112.951 133 113.644 133H118.741C119.433 133 119.994 132.336 119.994 131.517V125.484C119.994 124.664 119.433 124 118.741 124Z" fill="#6FC4EE"/>
<g clip-path="url(#clip0_1680_2440)">
<path d="M102.055 103.169H88.899C86.819 103.169 85.1328 101.483 85.1328 99.4028V87.3442C85.1328 81.6312 89.7641 77 95.477 77C101.19 77 105.821 81.6312 105.821 87.3442V99.4028C105.821 101.483 104.135 103.169 102.055 103.169Z" fill="#C59191"/>
<path d="M95.4781 77C94.9761 77 94.4829 77.0365 94 77.1055C99.0127 77.8229 102.866 82.1332 102.866 87.3442V99.4028C102.866 101.483 101.18 103.169 99.0998 103.169H102.056C104.136 103.169 105.822 101.483 105.822 99.4028V87.3442C105.822 81.6312 101.191 77 95.4781 77Z" fill="#B98080"/>
<path d="M103.899 92.3216H102.875V88.3867H103.899C104.985 88.3867 105.866 89.2676 105.866 90.3541C105.866 91.4407 104.985 92.3216 103.899 92.3216Z" fill="#FFCEBF"/>
<path d="M87.069 92.3216H88.0928V88.3867H87.069C85.9823 88.3867 85.1016 89.2676 85.1016 90.3541C85.1016 91.4407 85.9824 92.3216 87.069 92.3216Z" fill="#FFB09E"/>
<path d="M77.9453 125.728V111.627C77.9453 109.074 79.5829 106.81 82.0067 106.011L90.0426 103.362C90.8506 103.096 91.3964 102.341 91.3964 101.49V95.3281H99.5754V101.49C99.5754 102.341 100.121 103.096 100.929 103.362L108.965 106.011C111.389 106.81 113.027 109.075 113.027 111.627V120.922L105.636 118.267V125.975C105.636 126.383 105.305 126.714 104.897 126.714H78.9307C78.3864 126.714 77.9453 126.273 77.9453 125.728Z" fill="#6666F2"/>
<path d="M108.955 106.011L100.919 103.362C100.111 103.096 99.5657 102.341 99.5657 101.49V95.3281L96.6094 96.8063V102.969C96.6094 103.819 97.1553 104.574 97.9631 104.84L105.999 107.49C108.423 108.289 110.06 110.553 110.06 113.105V119.86L113.017 120.922V111.627C113.017 109.074 111.379 106.81 108.955 106.011Z" fill="#3E33F2"/>
<path d="M91.3984 92.3711H99.5775H91.3984Z" fill="white"/>
<path d="M91.3984 92.3711H99.5775" stroke="black" stroke-width="1.45649" stroke-miterlimit="10" stroke-linecap="round" stroke-linejoin="round"/>
<path d="M89.0938 103.675C90.3457 105.913 92.7378 107.427 95.4847 107.427C98.2318 107.427 100.624 105.913 101.876 103.675L100.928 103.362C100.12 103.096 99.5743 102.341 99.5743 101.49V95.3281H91.3952V101.49C91.3952 102.341 90.8493 103.096 90.0414 103.362L89.0938 103.675Z" fill="#FFCEBF"/>
<path d="M97.8888 84.9471C97.7376 84.8094 97.5167 84.7813 97.3352 84.8754C96.7741 85.1665 96.1602 85.447 95.4927 85.7013C93.1995 86.575 89.8171 86.7893 88.5824 86.8397C88.3181 86.8504 88.1094 87.0675 88.1094 87.332V93.542C88.1094 97.6236 91.4171 100.932 95.4973 100.932C99.5775 100.932 102.885 97.6236 102.885 93.542V87.3362C102.885 87.0756 102.683 86.8583 102.422 86.8445C101.844 86.8138 101.095 86.7056 100.273 86.4008C99.1746 85.9938 98.3855 85.3996 97.8888 84.9471Z" fill="#FFCEBF"/>
<path d="M99.9166 93.5396C99.9397 93.9974 100.015 96.3948 98.2262 98.2446C96.5405 99.9876 93.8666 100.555 91.3984 99.6974C92.1811 100.198 93.3134 100.746 94.7352 100.892C94.9959 100.919 95.2463 100.93 95.485 100.93C99.5652 100.93 102.873 97.6212 102.873 93.5396V87.3339C102.873 87.0732 102.67 86.8559 102.41 86.8421C101.832 86.8115 101.083 86.7032 100.26 86.3984C100.152 86.3584 100.047 86.3166 99.9456 86.2734L99.9166 93.5396Z" fill="#FFB09E"/>
<path d="M91.9109 93.1427C91.5027 93.1427 91.1719 92.8119 91.1719 92.4036V90.9773C91.1719 90.5691 91.5028 90.2383 91.9109 90.2383C92.3191 90.2383 92.6499 90.5691 92.6499 90.9773V92.4036C92.6499 92.8118 92.3191 93.1427 91.9109 93.1427Z" fill="#554E56"/>
<path d="M99.0437 93.1427C98.6355 93.1427 98.3047 92.8119 98.3047 92.4036V90.9773C98.3047 90.5691 98.6356 90.2383 99.0437 90.2383C99.4518 90.2383 99.7828 90.5691 99.7828 90.9773V92.4036C99.7828 92.8118 99.4519 93.1427 99.0437 93.1427Z" fill="#554E56"/>
<path d="M95.4857 97.6881C95.4727 97.6881 95.4597 97.688 95.4466 97.6879C94.8397 97.6816 94.2371 97.5235 93.7039 97.2309C93.3461 97.0345 93.2152 96.5852 93.4116 96.2274C93.6081 95.8696 94.0573 95.7386 94.4152 95.9351C94.6386 96.0578 95.0016 96.205 95.462 96.2098C95.9446 96.2161 96.3221 96.0633 96.5555 95.9351C96.9135 95.7388 97.3626 95.8696 97.559 96.2274C97.7554 96.5853 97.6245 97.0345 97.2667 97.2309C96.8847 97.4405 96.2679 97.6881 95.4857 97.6881Z" fill="#FFB09E"/>
<path d="M85.3484 126.72C84.9402 126.72 84.6094 126.389 84.6094 125.981V119.751C84.6094 119.343 84.9403 119.012 85.3484 119.012C85.7566 119.012 86.0874 119.343 86.0874 119.751V125.981C86.0874 126.389 85.7565 126.72 85.3484 126.72Z" fill="#3E33F2"/>
<path d="M104.895 126.718C104.487 126.718 104.156 126.387 104.156 125.978V118.27C104.156 117.862 104.487 117.531 104.895 117.531C105.304 117.531 105.634 117.862 105.634 118.27V125.978C105.634 126.387 105.303 126.718 104.895 126.718Z" fill="#6FC4EE"/>
<path d="M103.121 114.145H96.3214C95.7772 114.145 95.3359 113.703 95.3359 113.159V101.235C95.3359 100.691 95.7772 100.25 96.3214 100.25H103.121C103.665 100.25 104.106 100.691 104.106 101.235V113.159C104.106 113.703 103.665 114.145 103.121 114.145Z" fill="#355F7F"/>
<path d="M103.12 100.25H100.164C100.708 100.25 101.15 100.691 101.15 101.235V113.159C101.15 113.703 100.708 114.145 100.164 114.145H103.12C103.665 114.145 104.106 113.703 104.106 113.159V101.235C104.106 100.691 103.665 100.25 103.12 100.25Z" fill="#305972"/>
<path d="M101.153 103.947C101.561 103.947 101.892 103.616 101.892 103.208C101.892 102.8 101.561 102.469 101.153 102.469C100.745 102.469 100.414 102.8 100.414 103.208C100.414 103.616 100.745 103.947 101.153 103.947Z" fill="white"/>
<path d="M100.675 108.883C99.6183 109.733 99.3991 111.255 100.173 112.368L107.618 123.083C108.352 124.139 109.68 124.606 110.914 124.242C112.939 123.643 113.718 121.188 112.409 119.531L104.319 109.294C103.43 108.168 101.793 107.983 100.675 108.883Z" fill="#3E33F2"/>
<path d="M112.413 119.53L104.324 109.293C103.471 108.214 101.931 108 100.82 108.777C101.022 108.918 101.207 109.09 101.368 109.293L109.457 119.53C110.619 121.001 110.135 123.098 108.597 123.971C109.287 124.364 110.122 124.477 110.918 124.241C112.943 123.642 113.722 121.187 112.413 119.53Z" fill="#2D22E2"/>
<path d="M104.319 109.294C103.43 108.168 101.793 107.983 100.675 108.883C99.6183 109.733 99.3991 111.255 100.173 112.368L101.618 114.448L101.653 114.393L105.663 110.995L104.319 109.294Z" fill="#FFCEBF"/>
<path d="M104.212 109.162C103.751 108.657 103.065 108.307 102.304 108.313C101.788 108.311 101.269 108.463 100.82 108.777C101.022 108.918 101.207 109.09 101.368 109.293L103.897 112.494L105.668 110.994C105.523 110.813 104.356 109.32 104.212 109.162Z" fill="#FFB09E"/>
</g>
</g>
<defs>
<filter id="filter0_d_1680_2440" x="23.3015" y="23.4051" width="145.741" height="109.741" filterUnits="userSpaceOnUse" color-interpolation-filters="sRGB">
<feFlood flood-opacity="0" result="BackgroundImageFix"/>
<feColorMatrix in="SourceAlpha" type="matrix" values="0 0 0 0 0 0 0 0 0 0 0 0 0 0 0 0 0 0 127 0" result="hardAlpha"/>
<feMorphology radius="2.96296" operator="dilate" in="SourceAlpha" result="effect1_dropShadow_1680_2440"/>
<feOffset dy="2.96296"/>
<feGaussianBlur stdDeviation="3.7037"/>
<feComposite in2="hardAlpha" operator="out"/>
<feColorMatrix type="matrix" values="0 0 0 0 0.93263 0 0 0 0 0.951215 0 0 0 0 1 0 0 0 1 0"/>
<feBlend mode="normal" in2="BackgroundImageFix" result="effect1_dropShadow_1680_2440"/>
<feBlend mode="normal" in="SourceGraphic" in2="effect1_dropShadow_1680_2440" result="shape"/>
</filter>
<filter id="filter1_d_1680_2440" x="40.6472" y="52.9377" width="109.049" height="109.049" filterUnits="userSpaceOnUse" color-interpolation-filters="sRGB">
<feFlood flood-opacity="0" result="BackgroundImageFix"/>
<feColorMatrix in="SourceAlpha" type="matrix" values="0 0 0 0 0 0 0 0 0 0 0 0 0 0 0 0 0 0 127 0" result="hardAlpha"/>
<feMorphology radius="5.14991" operator="dilate" in="SourceAlpha" result="effect1_dropShadow_1680_2440"/>
<feOffset dy="5.14991"/>
<feGaussianBlur stdDeviation="6.43739"/>
<feComposite in2="hardAlpha" operator="out"/>
<feColorMatrix type="matrix" values="0 0 0 0 0.93263 0 0 0 0 0.951215 0 0 0 0 1 0 0 0 1 0"/>
<feBlend mode="normal" in2="BackgroundImageFix" result="effect1_dropShadow_1680_2440"/>
<feBlend mode="normal" in="SourceGraphic" in2="effect1_dropShadow_1680_2440" result="shape"/>
</filter>
<linearGradient id="paint0_linear_1680_2440" x1="100.172" y1="0.8125" x2="100.172" y2="168.812" gradientUnits="userSpaceOnUse">
<stop stop-color="white"/>
<stop offset="0.563064" stop-color="white"/>
<stop offset="1" stop-color="#E0E8FD"/>
</linearGradient>
<linearGradient id="paint1_linear_1680_2440" x1="100.172" y1="0.8125" x2="100.172" y2="168.812" gradientUnits="userSpaceOnUse">
<stop stop-color="#6666F2" stop-opacity="0.15"/>
<stop offset="1" stop-color="white"/>
</linearGradient>
<clipPath id="clip0_1680_2440">
<rect width="49.7148" height="49.7148" fill="white" transform="translate(70.6406 77)"/>
</clipPath>
</defs>
</svg>
