<svg id="Icon" viewBox="0 0 24 24" xmlns="http://www.w3.org/2000/svg"><path d="m8.93 16.7c-.162 0-.326-.053-.463-.16-1.409-1.107-2.217-2.762-2.217-4.54s.808-3.432 2.217-4.54c.325-.257.796-.2 1.053.126.256.325.2.797-.126 1.053-1.044.822-1.644 2.046-1.644 3.361s.599 2.539 1.644 3.36c.326.256.382.728.126 1.054-.148.188-.368.286-.59.286zm6.604-.16c1.409-1.107 2.217-2.762 2.217-4.54s-.808-3.432-2.217-4.54c-.325-.257-.797-.2-1.053.126-.256.325-.2.797.126 1.053 1.044.822 1.644 2.046 1.644 3.361s-.599 2.539-1.644 3.36c-.326.256-.382.728-.126 1.054.148.188.368.286.59.286.162 0 .326-.053.463-.16z" fill="#549bff"/><path d="m12 10.25c-.965 0-1.75.785-1.75 1.75s.785 1.75 1.75 1.75 1.75-.785 1.75-1.75-.785-1.75-1.75-1.75zm-.25 1.75c0-.138.112-.25.25-.25s.25.112.25.25c0 .275-.5.275-.5 0zm-5.325-6.076c-1.7 1.549-2.675 3.763-2.675 6.076s.975 4.526 2.675 6.075c.307.279.329.754.049 1.06-.148.163-.351.245-.554.245-.181 0-.361-.064-.505-.195-2.012-1.833-3.165-4.451-3.165-7.185s1.153-5.352 3.165-7.184c.305-.28.779-.258 1.059.049.279.306.257.78-.049 1.059zm15.325 6.076c0 2.733-1.153 5.352-3.165 7.185-.144.131-.324.195-.505.195-.204 0-.406-.082-.554-.245-.279-.306-.257-.78.049-1.06 1.7-1.549 2.675-3.763 2.675-6.075s-.975-4.527-2.675-6.076c-.307-.279-.329-.753-.049-1.059.28-.307.754-.328 1.059-.049 2.012 1.832 3.165 4.451 3.165 7.184z" fill="#112d55"/></svg>