<svg width="577" height="566" viewBox="0 0 577 566" fill="none" xmlns="http://www.w3.org/2000/svg">
<path opacity="0.52" d="M297.453 553.774C146.612 553.774 24.3314 431.493 24.3314 280.653C24.3314 129.812 146.612 7.53125 297.453 7.53125C448.294 7.53125 570.574 129.812 570.574 280.653C570.574 431.493 448.294 553.774 297.453 553.774Z" fill="#EDEFFF"/>
<g opacity="0.79">
<path d="M267.539 79.2858C264.285 82.5418 264.285 87.8214 267.539 91.0774C270.792 94.3334 276.068 94.3334 279.322 91.0774C282.575 87.8214 282.575 82.5418 279.322 79.2858C276.068 76.0297 270.792 76.0297 267.539 79.2858Z" fill="white"/>
<path d="M267.539 105.889C264.285 109.145 264.285 114.425 267.539 117.681C270.792 120.937 276.068 120.937 279.322 117.681C282.575 114.425 282.575 109.145 279.322 105.889C276.068 102.633 270.792 102.633 267.539 105.889Z" fill="white"/>
<path d="M267.539 132.492C264.285 135.748 264.285 141.027 267.539 144.283C270.792 147.539 276.068 147.539 279.322 144.283C282.575 141.027 282.575 135.748 279.322 132.492C276.068 129.235 270.792 129.235 267.539 132.492Z" fill="white"/>
<path d="M267.539 159.094C264.285 162.35 264.285 167.63 267.539 170.886C270.792 174.142 276.068 174.142 279.322 170.886C282.575 167.63 282.575 162.35 279.322 159.094C276.068 155.838 270.792 155.838 267.539 159.094Z" fill="white"/>
<path d="M267.539 185.7C264.285 188.956 264.285 194.235 267.539 197.491C270.792 200.747 276.068 200.747 279.322 197.491C282.575 194.235 282.575 188.956 279.322 185.7C276.068 182.444 270.792 182.444 267.539 185.7Z" fill="white"/>
<path d="M241.218 79.2858C237.965 82.5418 237.965 87.8214 241.218 91.0774C244.472 94.3334 249.748 94.3334 253.001 91.0774C256.255 87.8214 256.255 82.5418 253.001 79.2858C249.748 76.0297 244.472 76.0297 241.218 79.2858Z" fill="white"/>
<path d="M241.218 105.889C237.965 109.145 237.965 114.425 241.218 117.681C244.472 120.937 249.748 120.937 253.001 117.681C256.255 114.425 256.255 109.145 253.001 105.889C249.748 102.633 244.472 102.633 241.218 105.889Z" fill="white"/>
<path d="M241.218 132.492C237.965 135.748 237.965 141.027 241.218 144.283C244.472 147.539 249.748 147.539 253.001 144.283C256.255 141.027 256.255 135.748 253.001 132.492C249.748 129.235 244.472 129.235 241.218 132.492Z" fill="white"/>
<path d="M241.218 159.094C237.965 162.35 237.965 167.63 241.218 170.886C244.472 174.142 249.748 174.142 253.001 170.886C256.255 167.63 256.255 162.35 253.001 159.094C249.748 155.838 244.472 155.838 241.218 159.094Z" fill="white"/>
<path d="M241.218 185.7C237.965 188.956 237.965 194.235 241.218 197.491C244.472 200.747 249.748 200.747 253.001 197.491C256.255 194.235 256.255 188.956 253.001 185.7C249.748 182.444 244.472 182.444 241.218 185.7Z" fill="white"/>
<path d="M214.423 79.2858C211.17 82.5418 211.17 87.8214 214.423 91.0774C217.677 94.3334 222.953 94.3334 226.206 91.0774C229.46 87.8214 229.46 82.5418 226.206 79.2858C222.953 76.0297 217.678 76.0297 214.423 79.2858Z" fill="white"/>
<path d="M214.423 105.889C211.17 109.145 211.17 114.425 214.423 117.681C217.677 120.937 222.953 120.937 226.206 117.681C229.46 114.425 229.46 109.145 226.206 105.889C222.953 102.633 217.678 102.633 214.423 105.889Z" fill="white"/>
<path d="M214.423 132.492C211.17 135.748 211.17 141.027 214.423 144.283C217.677 147.539 222.953 147.539 226.206 144.283C229.46 141.027 229.46 135.748 226.206 132.492C222.953 129.235 217.678 129.235 214.423 132.492Z" fill="white"/>
<path d="M214.423 159.092C211.17 162.348 211.17 167.628 214.423 170.884C217.677 174.14 222.953 174.14 226.206 170.884C229.46 167.628 229.46 162.348 226.206 159.092C222.953 155.836 217.678 155.836 214.423 159.092Z" fill="white"/>
<path d="M214.423 185.698C211.17 188.954 211.17 194.233 214.423 197.49C217.677 200.746 222.953 200.746 226.206 197.49C229.46 194.233 229.46 188.954 226.206 185.698C222.953 182.442 217.678 182.442 214.423 185.698Z" fill="white"/>
<path d="M188.107 79.2858C184.853 82.5418 184.853 87.8214 188.107 91.0774C191.36 94.3334 196.636 94.3334 199.89 91.0774C203.143 87.8214 203.143 82.5418 199.89 79.2858C196.635 76.0297 191.36 76.0297 188.107 79.2858Z" fill="white"/>
<path d="M188.107 105.889C184.853 109.145 184.853 114.425 188.107 117.681C191.36 120.937 196.636 120.937 199.89 117.681C203.143 114.425 203.143 109.145 199.89 105.889C196.635 102.633 191.36 102.633 188.107 105.889Z" fill="white"/>
<path d="M188.107 132.492C184.853 135.748 184.853 141.027 188.107 144.283C191.36 147.539 196.636 147.539 199.89 144.283C203.143 141.027 203.143 135.748 199.89 132.492C196.635 129.235 191.36 129.235 188.107 132.492Z" fill="white"/>
<path d="M188.107 159.092C184.853 162.348 184.853 167.628 188.107 170.884C191.36 174.14 196.636 174.14 199.89 170.884C203.143 167.628 203.143 162.348 199.89 159.092C196.635 155.836 191.36 155.836 188.107 159.092Z" fill="white"/>
<path d="M188.107 185.698C184.853 188.954 184.853 194.233 188.107 197.49C191.36 200.746 196.636 200.746 199.89 197.49C203.143 194.233 203.143 188.954 199.89 185.698C196.635 182.442 191.36 182.442 188.107 185.698Z" fill="white"/>
<path d="M162.632 79.2858C159.379 82.5418 159.379 87.8214 162.632 91.0774C165.886 94.3334 171.162 94.3334 174.415 91.0774C177.669 87.8214 177.669 82.5418 174.415 79.2858C171.162 76.0297 165.886 76.0297 162.632 79.2858Z" fill="white"/>
<path d="M162.632 105.889C159.379 109.145 159.379 114.425 162.632 117.681C165.886 120.937 171.162 120.937 174.415 117.681C177.669 114.425 177.669 109.145 174.415 105.889C171.162 102.633 165.886 102.633 162.632 105.889Z" fill="white"/>
<path d="M162.632 132.492C159.379 135.748 159.379 141.027 162.632 144.283C165.886 147.539 171.162 147.539 174.415 144.283C177.669 141.027 177.669 135.748 174.415 132.492C171.162 129.235 165.886 129.235 162.632 132.492Z" fill="white"/>
<path d="M162.632 159.094C159.379 162.35 159.379 167.63 162.632 170.886C165.886 174.142 171.162 174.142 174.415 170.886C177.669 167.63 177.669 162.35 174.415 159.094C171.162 155.838 165.886 155.838 162.632 159.094Z" fill="white"/>
<path d="M162.632 185.7C159.379 188.956 159.379 194.235 162.632 197.491C165.886 200.747 171.162 200.747 174.415 197.491C177.669 194.235 177.669 188.956 174.415 185.7C171.162 182.444 165.886 182.444 162.632 185.7Z" fill="white"/>
</g>
<mask id="mask0_4671_5209" style="mask-type:luminance" maskUnits="userSpaceOnUse" x="0" y="342" width="141" height="140">
<path d="M49.4414 345.353C12.7257 356.929 -7.65334 396.077 3.92139 432.792C15.4973 469.508 54.6446 489.887 91.3604 478.312C128.076 466.737 148.456 427.589 136.88 390.874C125.304 354.158 86.1572 333.779 49.4414 345.353Z" fill="white"/>
</mask>
<g mask="url(#mask0_4671_5209)">
<path d="M88.9682 307.478L190.92 467.512L184.569 471.558L82.6175 311.524L88.9682 307.478Z" fill="white"/>
<path d="M69.9253 313.484L171.877 473.518L165.526 477.563L63.5745 317.53L69.9253 313.484Z" fill="white"/>
<path d="M50.8843 319.488L152.836 479.521L146.485 483.567L44.5335 323.534L50.8843 319.488Z" fill="white"/>
<path d="M31.8413 325.488L133.793 485.521L127.442 489.567L25.4905 329.534L31.8413 325.488Z" fill="white"/>
<path d="M12.7983 331.494L114.75 491.527L108.399 495.573L6.44752 335.54L12.7983 331.494Z" fill="white"/>
<path d="M-6.24269 337.496L95.709 497.529L89.3582 501.575L-12.5935 341.542L-6.24269 337.496Z" fill="white"/>
<path d="M-25.2876 343.502L76.6641 503.535L70.3133 507.581L-31.6384 347.547L-25.2876 343.502Z" fill="white"/>
<path d="M-44.3286 349.505L57.623 509.539L51.2723 513.585L-50.6794 353.551L-44.3286 349.505Z" fill="white"/>
</g>
<path d="M371.72 52.8892H359.696C358.616 52.8892 357.743 53.7642 357.743 54.8438V66.8684C357.743 67.9479 356.868 68.8217 355.788 68.8217H355.487C354.408 68.8217 353.533 67.9467 353.533 66.8684V54.8438C353.533 53.7642 352.658 52.8892 351.579 52.8892H339.555C338.475 52.8892 337.6 52.0142 337.6 50.9346V50.6339C337.6 49.5543 338.475 48.6806 339.555 48.6806H351.579C352.659 48.6806 353.533 47.8056 353.533 46.726V34.7014C353.533 33.6218 354.408 32.748 355.487 32.748H355.788C356.868 32.748 357.743 33.6231 357.743 34.7014V46.726C357.743 47.8056 358.618 48.6806 359.696 48.6806H371.72C372.8 48.6806 373.674 49.5556 373.674 50.6339V50.9346C373.674 52.0142 372.8 52.8892 371.72 52.8892Z" fill="white"/>
<path d="M337.839 74.4645H330.506C329.848 74.4645 329.314 74.9981 329.314 75.6562V82.9878C329.314 83.6459 328.781 84.1795 328.123 84.1795H327.939C327.281 84.1795 326.747 83.6459 326.747 82.9878V75.6562C326.747 74.9981 326.214 74.4645 325.555 74.4645H318.224C317.566 74.4645 317.032 73.9309 317.032 73.2728V73.0891C317.032 72.431 317.566 71.8974 318.224 71.8974H325.555C326.214 71.8974 326.747 71.3638 326.747 70.7057V63.3753C326.747 62.7172 327.281 62.1836 327.939 62.1836H328.123C328.781 62.1836 329.314 62.7172 329.314 63.3753V70.7069C329.314 71.365 329.848 71.8986 330.506 71.8986H337.839C338.497 71.8986 339.029 72.4323 339.029 73.0904V73.274C339.031 73.9321 338.497 74.4645 337.839 74.4645Z" fill="white"/>
<path d="M61.9478 218.744C54.7321 225.96 54.7321 237.659 61.9478 244.874C69.1636 252.09 80.8627 252.09 88.0784 244.874C95.2942 237.659 95.2942 225.96 88.0784 218.744C80.8627 211.528 69.1636 211.528 61.9478 218.744Z" fill="#EDEFFF"/>
<path d="M59.2584 240.395C52.3816 247.204 48.3639 256.777 48.2826 266.494C48.2358 271.345 49.0997 276.225 50.9027 280.763C52.6934 285.305 55.4035 289.496 58.8148 293.028C65.6299 300.115 75.3782 304.384 85.336 304.476C90.3039 304.517 95.2939 303.59 99.9117 301.702C104.527 299.812 108.757 296.989 112.301 293.476C115.815 289.933 118.632 285.698 120.521 281.083C122.414 276.467 123.335 271.475 123.298 266.507C123.215 256.548 118.955 246.792 111.878 239.967C108.347 236.551 104.162 233.835 99.6221 232.038C95.0844 230.23 90.2053 229.361 85.3521 229.408C75.6333 229.486 66.0625 233.513 59.2584 240.395ZM59.2584 240.395C62.6906 236.993 66.7822 234.265 71.2472 232.436C75.7134 230.607 80.5445 229.714 85.3508 229.754C94.9907 229.849 104.41 233.984 111.001 240.842C114.3 244.263 116.916 248.317 118.645 252.708C120.387 257.096 121.216 261.815 121.172 266.507C121.087 275.905 117.206 285.148 110.56 291.736C103.98 298.388 94.738 302.282 85.3385 302.361C80.6467 302.409 75.9279 301.57 71.5405 299.825C67.1507 298.09 63.1035 295.466 59.6848 292.162C52.8351 285.56 48.7139 276.133 48.6264 266.494C48.5895 261.686 49.4805 256.856 51.3094 252.389C53.1346 247.924 55.8607 243.83 59.2584 240.395Z" fill="white"/>
<mask id="mask1_4671_5209" style="mask-type:luminance" maskUnits="userSpaceOnUse" x="401" y="0" width="141" height="140">
<path d="M466.539 0.599562C428.136 3.2936 399.188 36.6079 401.881 75.012C404.575 113.415 437.891 142.363 476.292 139.669C514.695 136.975 543.643 103.66 540.949 65.2563C538.258 26.8534 504.942 -2.09447 466.539 0.599562Z" fill="white"/>
</mask>
<g mask="url(#mask1_4671_5209)">
<path d="M513.819 -27.007L575.639 152.381L568.52 154.834L506.7 -24.5538L513.819 -27.007Z" fill="white"/>
<path d="M493.899 -25.6105L555.719 153.777L548.6 156.231L486.78 -23.1573L493.899 -25.6105Z" fill="white"/>
<path d="M473.983 -24.2121L535.803 155.176L528.684 157.629L466.864 -21.7588L473.983 -24.2121Z" fill="white"/>
<path d="M454.065 -22.8117L515.885 156.576L508.766 159.029L446.946 -20.3584L454.065 -22.8117Z" fill="white"/>
<path d="M434.149 -21.4152L495.969 157.973L488.85 160.426L427.03 -18.962L434.149 -21.4152Z" fill="white"/>
<path d="M414.231 -20.0187L476.051 159.369L468.932 161.822L407.112 -17.5655L414.231 -20.0187Z" fill="white"/>
<path d="M394.313 -18.6184L456.133 160.77L449.014 163.223L387.194 -16.1651L394.313 -18.6184Z" fill="white"/>
<path d="M374.395 -17.2219L436.215 162.166L429.096 164.619L367.276 -14.7686L374.395 -17.2219Z" fill="white"/>
</g>
<path d="M508.276 174.551C483.6 174.551 463.595 154.547 463.595 129.87C463.595 105.194 483.6 85.1895 508.276 85.1895C532.953 85.1895 552.957 105.194 552.957 129.87C552.957 154.547 532.953 174.551 508.276 174.551Z" fill="#D8D7FF"/>
<path d="M497.149 169.327C475.362 163.184 462.681 140.542 468.824 118.755C474.967 96.9675 497.61 84.2857 519.397 90.4291C541.184 96.5725 553.865 119.215 547.722 141.002C541.579 162.789 518.937 175.471 497.149 169.327Z" fill="white"/>
<path d="M504.029 103.574C503.739 108.473 503.632 113.372 503.509 118.271C503.439 123.169 503.389 128.068 503.429 132.967L503.434 133.57L504.029 133.567C507.703 133.552 511.377 133.502 515.052 133.392C516.889 133.336 518.725 133.313 520.563 133.23C522.4 133.144 524.237 133.087 526.074 132.967C524.237 132.847 522.4 132.79 520.563 132.705C518.725 132.621 516.889 132.597 515.052 132.542C511.378 132.433 507.704 132.382 504.029 132.367L504.629 132.967C504.669 128.068 504.619 123.169 504.549 118.271C504.426 113.372 504.317 108.473 504.029 103.574Z" fill="#9B9BFF"/>
<path d="M59.3814 422.322C52.5157 433.667 56.1426 448.438 67.482 455.312C78.8213 462.186 93.5805 458.563 100.446 447.217C107.312 435.872 103.685 421.102 92.3457 414.227C81.0051 407.352 66.2471 410.976 59.3814 422.322Z" fill="#9B9BFF"/>
<path d="M49.581 398.863C47.7817 401.835 48.7318 405.705 51.7032 407.505C54.6745 409.306 58.5405 408.357 60.3398 405.385C62.1391 402.412 61.1877 398.542 58.2176 396.742C55.2463 394.941 51.379 395.89 49.581 398.863Z" fill="#9B9BFF"/>
<path d="M537.836 190.699C535.607 182.36 540.559 173.792 548.899 171.563C557.238 169.333 565.806 174.286 568.035 182.625C570.265 190.964 565.312 199.532 556.973 201.762C548.634 203.991 540.066 199.038 537.836 190.699Z" fill="#9B9BFF"/>
<path d="M66.1238 192.425C63.484 195.065 63.484 199.345 66.1238 201.984C68.7636 204.624 73.0424 204.624 75.6823 201.984C78.3221 199.344 78.3221 195.065 75.6823 192.425C73.0424 189.785 68.7636 189.785 66.1238 192.425Z" fill="#EDEFFF"/>
<path d="M125.595 245.448L129.229 251.394C129.298 251.508 129.393 251.604 129.505 251.675L136.011 255.784C136.556 256.128 136.547 256.927 135.994 257.258L129.108 261.389C128.984 261.463 128.88 261.568 128.807 261.692L125.49 267.332C125.163 267.886 124.367 267.904 124.017 267.363L120.314 261.638C120.256 261.548 120.181 261.469 120.094 261.406L113.883 256.92C113.368 256.548 113.416 255.767 113.973 255.46L120.818 251.695C120.972 251.61 121.096 251.481 121.175 251.324L124.082 245.511C124.386 244.903 125.241 244.868 125.595 245.448Z" fill="#9B9BFF"/>
<path d="M157.447 259.63L162.662 268.164C162.762 268.327 162.898 268.465 163.059 268.567L172.396 274.464C173.178 274.959 173.165 276.104 172.371 276.58L162.491 282.51C162.312 282.617 162.164 282.766 162.06 282.945L157.299 291.037C156.831 291.833 155.687 291.857 155.185 291.081L149.87 282.867C149.786 282.738 149.679 282.625 149.554 282.534L140.64 276.097C139.901 275.564 139.97 274.441 140.769 274.002L150.591 268.599C150.811 268.477 150.99 268.293 151.104 268.067L155.275 259.724C155.712 258.849 156.938 258.797 157.447 259.63Z" fill="white"/>
<path d="M512.605 187.729C509.497 189.751 508.617 193.909 510.639 197.018C512.661 200.126 516.819 201.006 519.927 198.985C523.035 196.962 523.915 192.804 521.894 189.696C519.872 186.588 515.714 185.708 512.605 187.729Z" fill="#9B9BFF"/>
<path d="M472.87 59.1566L476.504 65.1029C476.573 65.2163 476.668 65.3125 476.78 65.3839L483.286 69.4928C483.831 69.8366 483.822 70.6352 483.269 70.9667L476.384 75.0977C476.259 75.1717 476.156 75.2764 476.083 75.4009L472.765 81.0404C472.439 81.595 471.643 81.6122 471.292 81.0712L467.589 75.3467C467.531 75.2567 467.456 75.1778 467.369 75.115L461.157 70.629C460.642 70.2569 460.69 69.4755 461.247 69.1686L468.092 65.4037C468.246 65.3186 468.37 65.1892 468.449 65.0327L471.357 59.2194C471.661 58.6131 472.515 58.5761 472.87 59.1566Z" fill="#9B9BFF"/>
<path d="M434.33 445.58C433.503 442.301 432.681 439.036 431.969 435.749C431.271 432.46 430.608 429.168 430.078 425.852C429.519 422.542 429.089 419.211 428.702 415.872C428.511 414.202 428.355 412.527 428.22 410.847C428.053 409.17 427.962 407.488 427.821 405.801C427.684 407.488 427.654 409.179 427.616 410.872C427.628 412.564 427.679 414.256 427.756 415.95C427.923 419.335 428.325 422.706 428.862 426.053C429.428 429.395 430.129 432.716 431.052 435.976C431.961 439.24 433.02 442.46 434.33 445.58Z" fill="#9B9BFF"/>
<path d="M396.914 469.583C426.878 355.924 483.987 303.387 548.297 254.951C550.295 298.338 541.472 348.06 522.492 382.401C503.512 416.742 465.577 480.762 421.469 506.947" fill="#D8D7FF"/>
<path d="M415.235 497.159L421.577 481.42L428.186 465.795L435.008 450.263C437.328 445.106 439.736 439.991 442.096 434.853C451.719 414.389 461.969 394.218 473.014 374.487C483.971 354.708 495.713 335.368 508.121 316.463C511.216 311.732 514.416 307.071 517.559 302.371C520.757 297.708 524.045 293.108 527.278 288.469L537.229 274.729L547.467 261.197L536.989 274.548L526.788 288.115C523.498 292.718 520.168 297.294 516.918 301.927C513.726 306.599 510.475 311.234 507.33 315.938C494.743 334.757 482.992 354.13 471.937 373.887C460.968 393.693 450.687 413.882 441.24 434.455C438.928 439.621 436.569 444.765 434.298 449.947L427.633 465.559L421.298 481.307L415.235 497.159Z" fill="#9B9BFF"/>
<path d="M448.176 418.774C447.896 415.864 447.483 412.979 447.051 410.098C446.632 407.214 446.118 404.347 445.603 401.481C445.059 398.62 444.513 395.76 443.873 392.917L442.91 388.653C442.544 387.239 442.221 385.818 441.818 384.412C441.946 385.869 442.152 387.312 442.316 388.762L442.942 393.089C443.362 395.973 443.876 398.84 444.392 401.705C444.937 404.566 445.483 407.426 446.124 410.269C446.749 413.115 447.396 415.957 448.176 418.774Z" fill="#9B9BFF"/>
<path d="M471.531 373.296C471.003 370.125 470.464 366.972 470.025 363.806C469.6 360.638 469.2 357.474 468.921 354.295C468.613 351.119 468.426 347.935 468.27 344.744C468.194 343.148 468.152 341.551 468.13 339.95C468.074 338.349 468.093 336.748 468.058 335.139C467.814 336.728 467.676 338.331 467.526 339.934C467.426 341.539 467.362 343.147 467.323 344.756C467.255 347.977 467.411 351.199 467.695 354.407C468.007 357.613 468.444 360.81 469.095 363.963C469.732 367.121 470.51 370.246 471.531 373.296Z" fill="#9B9BFF"/>
<path d="M494.307 336.877C493.957 331.91 493.594 327 493.503 322.069C493.376 317.14 493.518 312.223 493.698 307.246C492.55 312.098 492.177 317.113 492.272 322.097C492.403 327.082 493 332.067 494.307 336.877Z" fill="#9B9BFF"/>
<path d="M516.517 303.151C516.453 300.205 516.297 297.347 516.331 294.473C516.329 291.598 516.511 288.75 516.662 285.807C515.552 288.548 515.13 291.523 515.098 294.467C515.104 297.415 515.495 300.38 516.517 303.151Z" fill="#9B9BFF"/>
<path d="M516.841 303.727C519.412 303.922 521.941 303.74 524.459 303.473C526.973 303.166 529.476 302.769 531.936 301.995C529.364 301.798 526.836 301.979 524.318 302.249C521.805 302.558 519.301 302.955 516.841 303.727Z" fill="#9B9BFF"/>
<path d="M494.817 337.61C497.704 338.157 500.679 338.262 503.63 338.016C506.585 337.785 509.506 337.13 512.312 336.16C515.11 335.164 517.8 333.851 520.256 332.195L522.06 330.905L523.788 329.521L525.404 328.012C525.919 327.486 526.423 326.951 526.916 326.41C526.329 326.855 525.754 327.306 525.189 327.766L523.416 329.045L521.614 330.266L519.755 331.389C517.242 332.819 514.626 334.056 511.904 334.998C509.19 335.967 506.376 336.634 503.519 337.079C500.661 337.512 497.751 337.651 494.817 337.61Z" fill="#9B9BFF"/>
<path d="M472.494 373.688C476.302 374.808 480.26 375.439 484.244 375.649C488.231 375.875 492.247 375.602 496.188 374.917C500.125 374.205 503.992 373.076 507.65 371.469L510.356 370.192L512.986 368.775L515.508 367.177C516.322 366.607 517.126 366.024 517.922 365.434C517.052 365.913 516.19 366.4 515.339 366.898L512.701 368.241L510.026 369.487L507.292 370.59C503.615 371.963 499.831 373.033 495.972 373.704C492.118 374.404 488.196 374.704 484.27 374.705C480.342 374.695 476.41 374.312 472.494 373.688Z" fill="#9B9BFF"/>
<path d="M448.667 418.669C450.294 419.468 451.978 420.211 453.827 420.508C454.748 420.661 455.697 420.627 456.6 420.573C457.51 420.523 458.421 420.482 459.329 420.396C462.966 420.112 466.579 419.494 470.125 418.616C473.665 417.72 477.153 416.595 480.501 415.142C482.17 414.405 483.828 413.646 485.44 412.798C487.042 411.932 488.621 411.026 490.143 410.031C488.484 410.777 486.858 411.572 485.176 412.245C483.526 412.98 481.839 413.629 480.147 414.251C476.76 415.487 473.318 416.552 469.826 417.426C466.34 418.325 462.794 418.962 459.227 419.494C458.335 419.634 457.438 419.732 456.541 419.839C455.641 419.961 454.769 420.004 453.885 419.956C452.117 419.855 450.386 419.234 448.667 418.669Z" fill="#9B9BFF"/>
<path d="M308.409 552.493C280.445 550.936 251.538 555.566 224.575 565.919C245.739 555.119 268.047 546.634 290.864 540.706C252.867 535.93 213.676 536.347 174.822 541.941C206.177 533.511 238.134 527.983 270.073 525.461C229.337 516.141 187.855 509.01 145.879 504.111C184.542 499.775 219.589 496.465 256.864 503.052C214.573 482.972 172.488 473.372 124.88 465.891C173.641 461.546 227.602 465.293 280.463 483.229C291.957 487.129 324.83 504.94 324.83 504.94L340.43 528.909L308.409 552.493Z" fill="#9B9BFF"/>
<path d="M305.583 471.836C306.206 468.864 306.542 465.836 306.707 462.798C306.886 459.759 306.816 456.707 306.593 453.671C306.341 450.635 305.936 447.611 305.286 444.637C304.954 443.152 304.595 441.675 304.197 440.208C303.747 438.755 303.307 437.302 302.761 435.885C302.897 436.633 303.042 437.376 303.201 438.114L303.608 440.345C303.884 441.829 304.137 443.314 304.352 444.804C304.776 447.785 305.143 450.768 305.364 453.766C305.614 456.76 305.715 459.765 305.763 462.776C305.797 465.789 305.701 468.803 305.583 471.836Z" fill="#9B9BFF"/>
<path d="M352.307 486.75C291.364 391.989 210.261 351.217 128.167 319.287C141.447 357.326 164.625 403.883 193.847 430.886C223.068 457.889 280.323 507.811 334.876 523.543" fill="#D8D7FF"/>
<path d="M339.225 513.938L328.315 500.604L317.165 487.468L305.73 474.576L294.061 461.894C278.34 445.132 261.932 429.016 245.005 413.472C228.009 398.002 210.485 383.107 192.379 368.956L178.697 358.477L164.824 348.255L150.73 338.341L136.457 328.691L150.556 338.588L164.467 348.741L178.225 359.097L191.791 369.701C209.757 383.991 227.265 398.858 244.174 414.382C261.152 429.831 277.524 445.938 293.376 462.544L305.157 475.1L316.714 487.866L328.086 500.8L339.225 513.938Z" fill="#9B9BFF"/>
<path d="M283.83 450.599C283.947 447.987 283.929 445.383 283.891 442.78C283.868 440.176 283.747 437.577 283.626 434.979C283.476 432.383 283.323 429.785 283.075 427.193L282.7 423.305C282.529 422.011 282.401 420.715 282.193 419.424C282.122 420.73 282.13 422.033 282.096 423.337L282.129 427.242C282.154 429.846 282.274 432.445 282.396 435.043C282.548 437.64 282.701 440.238 282.95 442.83C283.184 445.421 283.439 448.013 283.83 450.599Z" fill="#9B9BFF"/>
<path d="M247.072 414.551C247.397 411.664 247.448 408.75 247.338 405.843C247.243 402.933 246.913 400.033 246.446 397.159C245.951 394.289 245.315 391.441 244.453 388.66C244.016 387.271 243.555 385.893 243.059 384.527C242.513 383.178 241.981 381.828 241.347 380.52C241.718 381.926 242.136 383.308 242.484 384.711C242.86 386.105 243.216 387.501 243.537 388.905C244.175 391.713 244.769 394.526 245.231 397.363C245.723 400.195 246.079 403.048 246.397 405.909C246.701 408.775 246.888 411.654 247.072 414.551Z" fill="#9B9BFF"/>
<path d="M213.193 386.344C213.357 381.803 212.73 377.251 211.615 372.843C210.467 368.443 208.82 364.152 206.476 360.26C207.932 364.557 209.322 368.806 210.423 373.149C211.558 377.485 212.389 381.88 213.193 386.344Z" fill="#9B9BFF"/>
<path d="M180.613 360.41C180.976 357.721 180.628 354.975 179.881 352.373C179.101 349.78 177.905 347.28 176.133 345.225C177.054 347.767 177.974 350.202 178.699 352.721C179.458 355.228 180.004 357.775 180.613 360.41Z" fill="#9B9BFF"/>
<path d="M180.402 360.964C177.563 360.639 174.746 360.69 171.933 360.828C169.123 361.005 166.317 361.274 163.534 361.921C166.374 362.249 169.191 362.199 172.004 362.058C174.813 361.878 177.618 361.609 180.402 360.964Z" fill="#9B9BFF"/>
<path d="M212.824 387.072C209.621 387.572 206.416 387.908 203.208 387.985C200.001 388.046 196.797 387.922 193.622 387.523C190.444 387.152 187.302 386.51 184.203 385.685L181.89 385.016L179.605 384.246L177.331 383.42C176.589 383.106 175.839 382.805 175.079 382.512C175.777 382.923 176.482 383.326 177.195 383.717L179.379 384.805L181.632 385.749L183.928 386.591C187.019 387.646 190.231 388.338 193.474 388.744C196.722 389.121 200.006 389.216 203.258 388.925C206.509 388.652 209.733 388.067 212.824 387.072Z" fill="#9B9BFF"/>
<path d="M246.119 415.055C241.91 416.264 237.655 417.236 233.351 417.873C229.048 418.496 224.712 418.855 220.372 418.858C216.031 418.891 211.692 418.57 207.385 417.983L204.162 417.476L200.959 416.836L197.768 416.108C196.717 415.815 195.661 415.537 194.597 415.267C195.618 415.662 196.643 416.049 197.676 416.421L200.814 417.422L204.007 418.239L207.236 418.919C211.563 419.735 215.973 420.096 220.38 420.092C224.786 420.057 229.195 419.658 233.514 418.805C237.83 417.964 242.074 416.744 246.119 415.055Z" fill="#9B9BFF"/>
<path d="M283.27 450.588C281.441 451.407 279.607 452.274 277.661 452.594C276.693 452.768 275.715 452.838 274.709 452.88C273.711 452.937 272.712 452.981 271.712 453.002C267.717 453.111 263.721 453.111 259.736 452.89C255.749 452.697 251.771 452.328 247.807 451.813C245.825 451.554 243.844 451.268 241.876 450.903C239.893 450.603 237.934 450.181 235.956 449.816C237.863 450.454 239.801 450.995 241.751 451.5C243.706 451.984 245.68 452.381 247.66 452.757C251.625 453.495 255.646 453.906 259.675 454.12C263.705 454.309 267.747 454.278 271.765 453.928C272.769 453.85 273.771 453.748 274.772 453.634C275.765 453.528 276.793 453.426 277.785 453.159C279.779 452.625 281.564 451.638 283.27 450.588Z" fill="#9B9BFF"/>
<path d="M309.971 480.369C306.779 480.625 303.602 480.849 300.423 480.932C297.245 481.001 294.07 481.003 290.901 480.846C287.73 480.718 284.568 480.43 281.41 480.075C279.831 479.893 278.255 479.672 276.681 479.426L274.316 479.061C273.532 478.913 272.744 478.781 271.951 478.658C273.466 479.182 275.014 479.596 276.561 480.019C278.122 480.387 279.692 480.715 281.271 481.013C284.43 481.594 287.635 481.918 290.845 482.077C294.057 482.206 297.277 482.171 300.476 481.875C303.676 481.594 306.858 481.128 309.971 480.369Z" fill="#9B9BFF"/>
<path d="M432.674 516.728C441.959 517.685 451.244 518.643 460.528 519.602C466.56 520.224 472.933 520.795 478.442 518.257C483.951 515.72 487.96 508.874 485.245 503.45C481.916 496.8 471.198 496.266 468.612 489.293C475.543 482.627 486.141 481.916 495.756 482.121C505.37 482.325 515.649 482.901 523.873 477.916C532.097 472.931 535.925 459.772 528.428 453.751C525.395 451.314 521.345 450.639 517.853 448.927C514.36 447.214 511.139 443.459 512.372 439.77C513.183 437.347 515.614 435.897 517.919 434.794C527.443 430.236 537.886 427.991 547.794 424.346C557.703 420.7 567.517 415.249 573.095 406.285C578.673 397.32 578.581 384.201 570.577 377.316C561.449 369.463 546.828 373.007 537.543 380.673C528.258 388.34 522.2 399.191 513.798 407.815C510.921 410.769 506.7 413.64 502.975 411.866C498.157 409.57 499.288 402.555 500.56 397.371C501.832 392.186 500.513 384.499 495.182 384.751C493.435 384.833 491.889 385.89 490.597 387.069C476.847 399.624 484.675 422.905 477.75 440.188C476.22 444.007 472.825 448.036 468.814 447.114C460.865 445.288 465.322 429.358 457.46 427.185C453.995 426.227 450.561 429.098 448.92 432.297C443.273 443.309 450.76 456.593 449.304 468.882C447.378 485.141 430.992 495.131 416.247 502.249" fill="#9B9BFF"/>
<path d="M323.899 441.274C321.349 430.306 318.743 419.336 315.322 408.6C311.962 398.056 307.802 387.697 302.045 378.218C299.185 373.509 295.935 369.038 292.246 364.941C288.249 360.504 283.786 356.524 279.218 352.688C274.694 348.889 270.06 345.22 265.624 341.316C261.317 337.526 257.253 333.481 253.534 329.11C246.099 320.372 239.96 310.543 235.326 300.048C234.772 298.792 234.239 297.525 233.725 296.252C233.428 295.517 234.62 295.197 234.914 295.924C239.237 306.631 245.107 316.741 252.342 325.744C255.931 330.209 259.856 334.392 264.073 338.269C268.427 342.271 273.039 345.976 277.594 349.741C282.185 353.534 286.729 357.402 290.881 361.68C294.748 365.664 298.211 370.023 301.259 374.665C307.265 383.812 311.664 393.931 315.189 404.263C318.841 414.97 321.574 425.963 324.158 436.969C324.47 438.295 324.779 439.62 325.087 440.947C325.266 441.717 324.079 442.046 323.899 441.274Z" fill="#9B9BFF"/>
<path d="M241.962 310.904C240.936 298.837 239.251 285.359 230.572 277.543C228.861 276.002 226.834 274.72 224.657 274.596C222.481 274.472 220.181 275.784 219.595 278.053C219.216 279.515 219.575 281.106 220.031 282.573C223.723 294.473 233.295 303.014 242.387 310.835" fill="#9B9BFF"/>
<path d="M252.452 325.293C247.261 321.631 241.394 319.162 235.363 318.1C232.123 317.529 228.627 317.412 225.858 319.192C223.087 320.971 221.505 325.218 223.288 328.278C224.989 331.196 228.632 331.696 231.743 331.704C239.285 331.723 246.792 330.703 254.035 328.677" fill="#9B9BFF"/>
<path d="M264.511 338.858C259.486 328.687 258.171 321.787 259.098 310.483C259.35 307.395 259.921 304.141 261.879 301.962C263.836 299.784 267.595 299.324 269.423 301.781C270.681 303.472 270.634 305.841 270.497 307.972C269.832 318.401 268.116 331.352 266.329 341.579" fill="#9B9BFF"/>
<path d="M281.615 353.605C273.47 347.77 262.884 346.403 254.029 350.042C251.694 351.002 249.362 352.408 248.165 354.793C246.97 357.178 247.385 360.731 249.6 362.149C251.062 363.086 252.855 362.895 254.495 362.631C263.811 361.13 272.889 358.203 281.385 353.964" fill="#9B9BFF"/>
<path d="M287.849 358.484C284.128 348.128 283.334 336.64 285.608 326.026C285.836 324.964 286.168 323.8 287.041 323.288C288.917 322.187 290.838 324.933 291.516 327.204C294.615 337.579 293.021 351.864 289.754 361.922" fill="#9B9BFF"/>
<path d="M297.823 372.308C291.938 369.187 284.613 369.912 279.573 374.112C277.923 375.487 276.422 377.901 277.484 379.939C278.286 381.474 280.114 381.888 281.705 382.005C287.738 382.449 295.412 378.37 300.619 375.242" fill="#9B9BFF"/>
<mask id="mask2_4671_5209" style="mask-type:luminance" maskUnits="userSpaceOnUse" x="24" y="7" width="547" height="547">
<path d="M297.449 553.78C146.608 553.78 24.3275 431.499 24.3275 280.659C24.3275 129.818 146.608 7.53711 297.449 7.53711C448.29 7.53711 570.57 129.818 570.57 280.659C570.57 431.499 448.29 553.78 297.449 553.78Z" fill="white"/>
</mask>
<g mask="url(#mask2_4671_5209)">
<path d="M322.365 138.16C331.229 118.763 357.034 108.915 377.785 113.831C398.537 118.747 414.698 136.285 422.338 156.196C428.935 173.391 430.004 192.212 435.426 209.813C440.044 224.806 447.842 238.813 458.155 250.635C467.58 261.441 479.162 270.567 486.392 282.95C495.781 299.032 496.509 319.846 488.264 336.543C480.019 353.241 463.051 365.318 444.574 367.639C425.199 370.073 405.157 362.462 386.253 367.356C376.645 369.844 367.909 375.464 358.064 376.726C341.067 378.906 324.46 366.859 317.381 351.253C310.302 335.648 311.257 317.457 315.578 300.874C320.261 282.902 328.725 265.705 329.843 247.167C331.083 226.624 326.378 212.969 324.97 192.437C323.737 174.425 309.878 165.487 322.365 138.16Z" fill="#38303B"/>
<path d="M388.39 520.501C364.336 619.911 342.562 724.355 310.14 821.002C307.563 828.684 303.831 841.908 300.153 842.351C295.012 842.971 290.611 842.279 285.775 841.305C281.777 840.5 279.045 836.84 279.503 832.821C296.269 685.856 295.305 537.54 330.887 394.449C332.145 389.389 397.436 397.893 397.436 397.893" fill="#38303B"/>
<path d="M537.929 817.546C537.011 820.075 534.068 821.261 531.691 820.002C496.956 801.625 466.615 770.988 441.457 733.034C404.519 677.31 381.954 633.227 362.126 567.447C346.879 516.865 334.158 463.847 339.702 411.01C363.781 412.934 387.772 416.155 411.555 420.657C416.415 421.578 417.536 421.951 420.955 425.786C424.228 429.459 425.888 438.893 426.698 443.908C435.875 500.799 436.676 556.306 447.783 612.798C461.212 681.099 491.634 752.689 542.775 795.54C544.218 796.749 544.767 798.713 544.125 800.482L537.929 817.546Z" fill="#38303B"/>
<path d="M438.98 472.267L436.321 481.664C435.257 486.285 430.084 492.643 424.261 492.637C388.777 492.601 353.292 492.18 317.814 491.372C314.972 491.307 311.84 491.145 309.793 489.535C308.05 488.165 307.558 486.092 307.154 484.159C306.005 478.67 304.858 473.181 303.709 467.693" fill="#6666F2"/>
<path d="M238.871 435.189C233.644 440.584 213.912 464.319 210.569 470.906C206.953 478.03 204.365 485.934 198.923 491.82C197.863 492.965 195.359 491.871 195.176 490.224C194.84 487.197 194.983 484.229 195.601 481.424C195.955 479.818 193.53 478.343 192.087 479.261C191.01 479.947 190.116 480.959 189.414 481.925C185.018 487.971 180.606 492.148 176.208 498.193C174.352 500.747 171.534 504.638 169.005 506.653C167.816 507.601 167.036 506.279 167.342 504.817C167.607 503.554 169.694 499.033 169.269 499.514C168.316 500.588 165.901 499.626 166.467 497.372C168.858 487.832 175.022 476.344 179.314 470.692C190.11 456.48 214.153 440.152 224.909 424.965" fill="#F7B094"/>
<path d="M345.584 319.697C319.976 363.129 283.836 404.437 240.8 439.459C236.149 443.244 232.725 446.383 228.055 445.016C221.513 443.102 211.319 436.988 216.018 430.637C238.205 400.641 267.397 366.777 279.098 335.08C284.374 320.789 288.53 306.426 295.615 292.25C302.701 278.074 313.121 262.173 327.895 253.436" fill="#6666F2"/>
<path d="M426.158 484.441C433.825 484.695 439.895 477.219 441.152 469.652C442.41 462.085 434.051 445.582 435.342 437.656C437.17 426.446 449.512 327.007 428.12 272.381C423.247 259.936 414.956 247.41 402.08 243.833C395.274 241.941 388.06 242.81 380.999 242.995C366.285 243.38 350.735 240.875 337.45 247.213C314.803 258.016 310.335 287.734 308.841 312.782C307.595 333.677 306.349 354.571 305.103 375.467C303.55 401.505 294.216 425.239 301.835 446.273C304.078 452.467 295.468 470.065 299.66 475.147C304.332 480.814 316.985 478.947 324.321 479.284C354.595 480.677 384.87 482.07 415.146 483.462" fill="#9B9BFF"/>
<path d="M298.106 300.743L302.498 296.52C302.748 296.28 302.757 295.88 302.516 295.63L258.172 249.504C257.932 249.254 257.533 249.245 257.283 249.486L252.89 253.709C252.64 253.95 252.632 254.348 252.873 254.598L297.216 300.725C297.456 300.976 297.856 300.984 298.106 300.743Z" fill="#38303B"/>
<path d="M371.08 414.262C377.695 419.934 395.132 429.291 402.239 434.334C407.55 438.101 416.904 434.405 424.655 426.128C430.004 420.416 434.25 408.866 436.57 401.392C440.947 387.277 442.729 367.668 443.473 350.4C444.453 327.614 442 306.975 439.922 290.298C437.844 273.622 426.028 251.104 413.979 246.394C396.649 239.619 388.982 246.82 386.394 272.566C384.541 291.002 388.666 306.689 391.368 337.937C392.59 352.077 393.94 377.408 393.94 377.408L371.08 414.262Z" fill="#6666F2"/>
<path d="M341.428 336.639C336.12 331.347 315.943 308.034 312.422 301.541C308.613 294.519 305.776 286.712 300.237 280.937C299.159 279.813 296.763 280.926 296.65 282.56C296.444 285.563 296.701 288.505 297.416 291.279C297.825 292.866 292.005 294.544 290.562 293.649C289.484 292.981 271.467 274.104 271.033 273.633C270.062 272.58 267.747 273.558 268.388 275.788C271.099 285.219 277.566 296.54 281.974 302.095C293.062 316.065 317.142 331.989 328.23 346.926" fill="#F7B094"/>
<path d="M402.926 433.918C394.363 432.299 376.115 420.402 368.277 410.993C355.916 396.152 316.589 348.022 315.629 340.043C315.221 336.656 326.284 326.985 330.621 322.607C333.206 319.997 354.16 344.781 365.305 354.556C368.761 357.587 388.995 373.589 398.631 380.349" fill="#6666F2"/>
<path d="M409.07 381.331C399.137 379.252 390.259 374.085 382.176 368.184C374.096 362.201 366.55 355.509 359.303 348.516C351.995 341.583 344.984 334.335 337.994 327.069L335.369 324.346L334.713 323.666C334.494 323.433 334.214 323.176 333.918 322.993C333.324 322.605 332.623 322.403 331.922 322.387C331.219 322.381 330.514 322.564 329.918 322.938C329.294 323.322 328.91 323.839 328.458 324.264L325.801 326.957L315.257 337.815L326.226 327.385L328.946 324.757C329.415 324.328 329.827 323.83 330.298 323.569C330.779 323.282 331.344 323.15 331.902 323.166C332.46 323.193 333.01 323.364 333.467 323.68C333.913 323.963 334.292 324.481 334.739 324.938L337.305 327.721C344.161 335.13 351.189 342.383 358.453 349.407C365.791 356.345 373.365 363.088 381.627 368.953C385.788 371.836 390.093 374.532 394.66 376.732C399.242 378.88 404.082 380.535 409.07 381.331Z" fill="white"/>
<path d="M395.746 376.617C398.323 375.523 400.847 374.533 403.423 373.602C406 372.673 408.561 371.805 411.264 371.082C409.86 370.933 408.44 371.077 407.061 371.331C405.676 371.581 404.326 371.978 403.004 372.444C401.69 372.934 400.403 373.495 399.176 374.18C397.951 374.86 396.764 375.64 395.746 376.617Z" fill="white"/>
<path d="M385.04 240.919C382.569 230.633 378.972 215.487 377.276 208.542C376.579 205.687 375.881 202.83 375.089 200.001C374.91 199.361 374.696 198.671 374.253 198.267C373.883 197.928 373.429 197.861 373.003 197.846C368.811 197.698 365.545 201.214 361.855 203.158C357.345 205.534 352.056 205.575 347.463 207.74C346.911 208.001 346.318 208.362 346.164 209.101C346.075 209.528 346.153 210.01 346.232 210.471C347.648 218.822 348.936 241.699 349.771 252.319C350.239 258.251 360.814 261.653 371.515 258.672C384.393 255.082 386.024 245.012 385.04 240.919Z" fill="#F7B094"/>
<path d="M374.251 198.267C373.881 197.928 373.427 197.861 373.002 197.846C368.81 197.698 365.543 201.214 361.853 203.158C357.343 205.534 352.054 205.575 347.461 207.74C346.909 208.001 346.316 208.362 346.162 209.101C346.074 209.528 346.151 210.01 346.23 210.471C347.021 215.139 347.812 219.806 348.604 224.475C353.521 226.644 358.6 227.598 363.404 226.693C369.997 225.453 375.873 220.249 378.268 212.609C377.937 211.254 377.606 209.898 377.275 208.542C376.578 205.687 375.88 202.83 375.087 200.001C374.908 199.36 374.694 198.671 374.251 198.267Z" fill="#E89C82"/>
<path d="M384.696 191.127C390.808 190.356 396.445 186.987 397.521 182.401C398.597 177.815 393.939 172.495 387.706 172.172" fill="#F7B094"/>
<path d="M385.269 191.559C378.42 214.392 362.14 217.012 345.046 222.139C342.025 223.045 337.003 223.355 333.825 222.944C326.02 221.932 322.632 214.397 321.218 208.039C318.758 196.971 317.647 185.704 317.904 174.458C318.082 166.719 318.966 158.807 322.924 151.778C326.883 144.75 334.421 138.685 343.742 137.349C355.35 135.687 366.778 141.58 374.374 148.955C385.584 159.837 391.108 175.142 386.104 188.763" fill="#F7B094"/>
<path d="M317.932 174.09C317.79 181.218 317.527 180.032 316.755 184.091C316.671 184.531 315.72 187.991 313.278 189.58C311.353 190.832 310.829 193.736 312.468 195.368C313.38 196.277 314.286 196.688 315.581 196.942C317.41 197.3 319.217 196.842 320.293 195.344" fill="#F7B094"/>
<path d="M402.27 174.481C385.082 172.537 369.311 166.101 355.055 158.427C348.398 154.844 341.876 150.876 337.36 145.589C334.9 142.709 333.111 138.803 335.444 135.761C337.982 132.448 343.787 132.105 348.576 132.473C352.045 132.739 355.489 133.17 358.883 133.763C364.612 134.765 370.268 136.256 375.13 138.812C380.715 141.749 385.011 145.951 389.163 150.124C393.42 154.402 397.79 159.064 398.241 164.566" fill="#38303B"/>
<path d="M342.936 162.072C343.173 162.263 342.875 162.562 342.517 162.585C342.16 162.607 341.821 162.46 341.509 162.327C337.711 160.713 332.874 160.332 328.803 161.327C328.178 161.48 327.541 161.666 326.867 161.627C326.192 161.588 325.477 161.225 325.498 160.77C325.506 160.576 325.647 160.398 325.809 160.24C326.498 159.577 327.606 159.171 328.744 158.897C332.418 158.017 336.784 158.408 340.155 159.916C341.415 160.481 342.584 161.236 343.051 162.2" fill="#38303B"/>
<g opacity="0.54">
<path d="M360.987 191.008C361.071 196.638 356.249 201.238 350.217 201.283C344.187 201.327 339.23 196.799 339.148 191.169C339.065 185.539 343.888 180.939 349.918 180.895C355.949 180.849 360.905 185.378 360.987 191.008Z" fill="#ED825D"/>
</g>
<path d="M334.748 173.452C334.533 176.204 333.032 178.366 331.397 178.281C329.761 178.196 328.608 175.896 328.822 173.144C329.037 170.392 330.538 168.231 332.174 168.317C333.81 168.402 334.962 170.702 334.748 173.452Z" fill="#38303B"/>
<path d="M389.351 243.47C385.523 252.81 377.076 259.632 366.948 260.766C356.281 261.96 345.708 255.416 344.404 244.33C344.209 242.675 345.959 241.249 347.485 241.249C349.313 241.249 350.37 242.67 350.566 244.33C351.484 252.126 360.26 255.633 367.154 254.568C374.222 253.476 380.686 248.475 383.408 241.832C384.039 240.294 385.455 239.201 387.198 239.68C388.656 240.08 389.986 241.921 389.351 243.47Z" fill="#F4F6F9"/>
</g>
<path d="M267.196 224.596H81.9636C77.0608 224.596 73.0859 220.621 73.0859 215.719V169.176C73.0859 164.274 77.0602 160.299 81.9636 160.299H267.196C272.099 160.299 276.074 164.273 276.074 169.176V215.719C276.074 220.621 272.099 224.596 267.196 224.596Z" stroke="#FF95FB" stroke-width="0.635978" stroke-miterlimit="10"/>
<path d="M261.751 219.149H76.5182C71.6155 219.149 67.6406 215.174 67.6406 210.271V163.729C67.6406 158.826 71.6155 154.852 76.5182 154.852H261.751C266.654 154.852 270.629 158.826 270.629 163.729V210.271C270.628 215.175 266.653 219.149 261.751 219.149Z" fill="#656AEA" stroke="#303030" stroke-width="0.635978" stroke-miterlimit="10"/>
<path d="M87.3459 199.14C85.4462 199.14 83.7926 198.863 82.3833 198.31C81.9636 198.146 81.5534 197.952 81.1533 197.728C79.6251 196.876 79.3872 194.763 80.6248 193.526L80.7412 193.41C81.6068 192.544 82.9621 192.354 84.0012 193.002C84.3173 193.199 84.6398 193.372 84.9666 193.52C85.864 193.927 86.8243 194.131 87.8476 194.131C88.703 194.131 89.3498 194 89.7886 193.74C90.2268 193.479 90.4462 193.119 90.4462 192.659C90.4462 192.201 90.258 191.82 89.8828 191.516C89.5069 191.214 89.0108 190.943 88.3952 190.702C87.7796 190.462 87.101 190.217 86.3601 189.966C85.6192 189.716 84.8833 189.414 84.1526 189.058C83.4219 188.704 82.7484 188.271 82.1334 187.759C81.5171 187.248 81.0217 186.611 80.6458 185.849C80.2706 185.087 80.0823 184.154 80.0823 183.047C80.0823 181.606 80.427 180.365 81.1158 179.321C81.8046 178.278 82.7751 177.479 84.0273 176.926C85.2796 176.373 86.7512 176.096 88.4416 176.096C90.1117 176.096 91.6616 176.362 93.0913 176.894C93.2217 176.942 93.3501 176.993 93.4767 177.045C95.2542 177.781 95.721 180.08 94.355 181.435C93.4741 182.309 92.1322 182.426 91.0555 181.81C90.915 181.729 90.7738 181.656 90.6332 181.59C89.9445 181.267 89.1934 181.105 88.3793 181.105C87.7319 181.105 87.2155 181.21 86.8294 181.418C86.4434 181.627 86.2507 181.94 86.2507 182.357C86.2507 182.795 86.4383 183.155 86.8142 183.437C87.1894 183.719 87.6855 183.975 88.3011 184.204C88.9167 184.435 89.5953 184.674 90.3362 184.924C91.0771 185.175 91.813 185.473 92.5437 185.817C93.2744 186.162 93.9473 186.6 94.5636 187.132C95.1792 187.664 95.6753 188.327 96.0505 189.12C96.4263 189.914 96.614 190.873 96.614 192C96.614 194.276 95.805 196.034 94.1877 197.276C92.5698 198.519 90.2892 199.14 87.3459 199.14Z" fill="white"/>
<path d="M109.732 199.138C107.769 199.138 106.058 198.737 104.597 197.933C103.135 197.13 101.998 196.018 101.184 194.599C100.371 193.179 99.9629 191.551 99.9629 189.714V179.602C99.9629 177.872 101.365 176.471 103.094 176.471C104.823 176.471 106.225 177.872 106.225 179.602V190.278C106.225 190.988 106.381 191.593 106.695 192.094C107.008 192.595 107.431 192.976 107.962 193.236C108.495 193.498 109.084 193.627 109.732 193.627C110.399 193.627 110.989 193.497 111.501 193.236C112.011 192.976 112.413 192.6 112.706 192.109C112.998 191.619 113.144 191.019 113.144 190.309V179.602C113.144 177.872 114.546 176.471 116.275 176.471H116.306C118.035 176.471 119.437 177.872 119.437 179.602V189.745C119.437 191.583 119.035 193.205 118.232 194.614C117.429 196.023 116.302 197.13 114.851 197.933C113.399 198.737 111.694 199.138 109.732 199.138Z" fill="white"/>
<path d="M139.63 187.773C139.258 187.432 138.832 187.142 138.362 186.889C138.675 186.705 138.965 186.5 139.223 186.27C140.35 185.268 140.913 183.975 140.913 182.388C140.913 181.24 140.631 180.222 140.067 179.335C139.504 178.449 138.716 177.749 137.704 177.238C136.692 176.726 135.507 176.471 134.151 176.471H129.642H128.578H123.506V198.762H128.578H129.642H133.775C135.319 198.762 136.671 198.486 137.83 197.933C138.988 197.38 139.891 196.608 140.538 195.616C141.185 194.625 141.509 193.482 141.509 192.188C141.509 190.393 140.883 188.921 139.63 187.773ZM132.398 180.979C133.066 180.979 133.619 181.146 134.057 181.48C134.496 181.814 134.716 182.336 134.716 183.046C134.716 183.756 134.496 184.278 134.057 184.611C133.619 184.945 133.066 185.112 132.398 185.112H129.642V180.98L132.398 180.979ZM134.59 193.612C134.109 194.04 133.473 194.254 132.68 194.254H129.642V189.432H132.68C133.222 189.432 133.686 189.526 134.073 189.714C134.459 189.902 134.762 190.178 134.981 190.543C135.2 190.909 135.31 191.341 135.31 191.842C135.31 192.595 135.07 193.185 134.59 193.612Z" fill="white"/>
<path d="M151.684 199.14C149.784 199.14 148.131 198.863 146.721 198.31C146.301 198.146 145.891 197.952 145.491 197.728C143.963 196.876 143.725 194.763 144.963 193.526L145.079 193.41C145.945 192.544 147.3 192.354 148.339 193.002C148.655 193.199 148.977 193.372 149.305 193.52C150.202 193.927 151.162 194.131 152.186 194.131C153.041 194.131 153.688 194 154.127 193.74C154.565 193.479 154.784 193.119 154.784 192.659C154.784 192.201 154.596 191.82 154.221 191.516C153.845 191.214 153.349 190.943 152.733 190.702C152.117 190.462 151.439 190.217 150.698 189.966C149.957 189.716 149.221 189.414 148.49 189.058C147.76 188.704 147.086 188.271 146.471 187.759C145.855 187.248 145.36 186.611 144.984 185.849C144.608 185.087 144.42 184.154 144.42 183.047C144.42 181.606 144.765 180.365 145.454 179.321C146.142 178.278 147.113 177.479 148.365 176.926C149.617 176.373 151.089 176.096 152.78 176.096C154.45 176.096 155.999 176.362 157.429 176.894C157.56 176.942 157.688 176.993 157.815 177.045C159.592 177.781 160.059 180.08 158.693 181.435C157.812 182.309 156.47 182.426 155.393 181.81C155.253 181.729 155.112 181.656 154.971 181.59C154.282 181.267 153.531 181.105 152.717 181.105C152.07 181.105 151.553 181.21 151.167 181.418C150.781 181.627 150.589 181.94 150.589 182.357C150.589 182.795 150.776 183.155 151.152 183.437C151.527 183.719 152.023 183.975 152.639 184.204C153.255 184.435 153.933 184.674 154.674 184.924C155.415 185.175 156.151 185.473 156.882 185.817C157.612 186.162 158.285 186.6 158.901 187.132C159.517 187.664 160.013 188.327 160.388 189.12C160.764 189.914 160.952 190.873 160.952 192C160.952 194.276 160.143 196.034 158.526 197.276C156.908 198.519 154.627 199.14 151.684 199.14Z" fill="white"/>
<path d="M175.542 199.14C173.83 199.14 172.239 198.852 170.767 198.279C169.296 197.705 168.007 196.896 166.901 195.852C165.795 194.809 164.934 193.582 164.318 192.173C163.702 190.764 163.395 189.235 163.395 187.586C163.395 185.916 163.702 184.382 164.318 182.984C164.934 181.585 165.79 180.375 166.885 179.352C167.981 178.329 169.259 177.531 170.72 176.957C172.181 176.383 173.767 176.096 175.479 176.096C177.212 176.096 178.799 176.367 180.238 176.91C180.357 176.954 180.474 177.001 180.589 177.048C182.454 177.812 182.938 180.229 181.519 181.659C180.671 182.513 179.368 182.75 178.29 182.211C178.196 182.164 178.098 182.118 177.999 182.076C177.279 181.762 176.439 181.606 175.479 181.606C174.644 181.606 173.877 181.742 173.178 182.013C172.478 182.284 171.878 182.681 171.377 183.203C170.877 183.724 170.486 184.356 170.203 185.097C169.921 185.838 169.78 186.668 169.78 187.586C169.78 188.525 169.921 189.366 170.203 190.106C170.486 190.847 170.877 191.479 171.377 192C171.878 192.522 172.478 192.924 173.178 193.206C173.877 193.488 174.644 193.629 175.479 193.629C176.418 193.629 177.258 193.483 177.999 193.19C178.147 193.132 178.292 193.068 178.432 192.999C179.491 192.476 180.774 192.756 181.609 193.591L181.619 193.602C183.04 195.022 182.57 197.438 180.715 198.212C180.609 198.256 180.502 198.299 180.394 198.341C179.017 198.874 177.399 199.14 175.542 199.14Z" fill="white"/>
<path d="M200.662 198.762C202.989 198.762 204.352 196.14 203.014 194.236L199.664 189.469C200.097 189.347 200.515 189.206 200.903 189.026C202.114 188.462 203.058 187.679 203.737 186.678C204.415 185.676 204.754 184.507 204.754 183.171C204.754 181.835 204.42 180.666 203.752 179.664C203.083 178.662 202.165 177.879 200.997 177.316C199.827 176.752 198.471 176.471 196.927 176.471H193.326H192.136H187.064V195.888C187.064 197.476 188.351 198.762 189.938 198.762H190.452C192.039 198.762 193.326 197.476 193.326 195.888V189.871H193.412L198.239 197.434C198.766 198.262 199.68 198.762 200.662 198.762ZM195.924 180.979C196.78 180.979 197.432 181.188 197.881 181.606C198.33 182.023 198.554 182.576 198.554 183.265C198.554 183.954 198.33 184.507 197.881 184.924C197.432 185.342 196.78 185.551 195.924 185.551H193.325V180.98L195.924 180.979Z" fill="white"/>
<path d="M208.541 195.632V179.602C208.541 177.872 209.943 176.471 211.672 176.471C213.401 176.471 214.803 177.872 214.803 179.602V195.632C214.803 197.361 213.401 198.763 211.672 198.763C209.943 198.762 208.541 197.361 208.541 195.632Z" fill="white"/>
<path d="M235.403 187.773C235.031 187.432 234.605 187.142 234.136 186.889C234.449 186.705 234.738 186.5 234.996 186.27C236.123 185.268 236.687 183.975 236.687 182.388C236.687 181.24 236.404 180.222 235.841 179.335C235.277 178.449 234.489 177.749 233.477 177.238C232.465 176.726 231.281 176.471 229.924 176.471H225.415H224.351H219.279V198.762H224.351H225.415H229.548C231.093 198.762 232.445 198.486 233.603 197.933C234.761 197.38 235.663 196.608 236.311 195.616C236.958 194.625 237.282 193.482 237.282 192.188C237.283 190.393 236.656 188.921 235.403 187.773ZM228.172 180.979C228.839 180.979 229.393 181.146 229.831 181.48C230.27 181.814 230.489 182.336 230.489 183.046C230.489 183.756 230.27 184.278 229.831 184.611C229.393 184.945 228.839 185.112 228.172 185.112H225.416V180.98L228.172 180.979ZM230.363 193.612C229.882 194.04 229.246 194.254 228.453 194.254H225.416V189.432H228.453C228.996 189.432 229.459 189.526 229.846 189.714C230.232 189.902 230.535 190.178 230.754 190.543C230.973 190.909 231.082 191.341 231.082 191.842C231.083 192.595 230.843 193.185 230.363 193.612Z" fill="white"/>
<path d="M246.956 193.564V189.932H254.032C255.433 189.932 256.568 188.797 256.568 187.396C256.568 185.996 255.433 184.86 254.032 184.86H246.956V181.666H255.004C256.404 181.666 257.54 180.531 257.54 179.13V179.005C257.54 177.605 256.405 176.469 255.004 176.469H246.956H245.767H240.695V198.76H245.767H246.956H255.191C256.592 198.76 257.727 197.625 257.727 196.224V196.099C257.727 194.698 256.592 193.563 255.191 193.563H246.956V193.564Z" fill="white"/>
</svg>
