<svg width="733" height="733" viewBox="0 0 733 733" fill="none" xmlns="http://www.w3.org/2000/svg">
<g clip-path="url(#clip0_4656_3095)">
<path d="M562.651 296.055C562.651 327.05 557.04 356.733 546.774 384.144C511.088 479.456 419.17 547.306 311.404 547.306C298.895 547.306 286.599 546.393 274.582 544.623C272.394 544.304 270.217 543.956 268.051 543.578C251.283 540.661 235.084 536.084 219.632 530.018C218.987 529.761 218.346 529.509 217.705 529.248C217.411 529.131 217.122 529.014 216.832 528.896C216.367 528.706 215.901 528.515 215.436 528.325C215.421 528.317 215.403 528.31 215.388 528.306C214.93 528.116 214.476 527.925 214.018 527.735C213.805 527.643 213.589 527.555 213.376 527.463C212.973 527.295 212.57 527.123 212.167 526.947C206.193 524.378 200.34 521.581 194.615 518.569C193.992 518.242 193.373 517.912 192.753 517.579C192.306 517.341 191.859 517.099 191.412 516.853C191.28 516.784 191.152 516.71 191.02 516.641C190.613 516.421 190.206 516.197 189.803 515.97C189.733 515.93 189.66 515.893 189.59 515.853C188.997 515.523 188.407 515.193 187.813 514.86C187.718 514.805 187.622 514.75 187.527 514.698C187.344 514.592 187.157 514.486 186.97 514.379C186.435 514.072 185.9 513.764 185.368 513.452L185.159 513.331C110.404 469.802 60.1572 388.794 60.1572 296.055C60.1572 290.283 60.3515 284.555 60.74 278.881C61.0808 273.794 61.5719 268.758 62.217 263.759C62.2389 263.576 62.2609 263.393 62.2866 263.21C62.3122 263.026 62.3342 262.843 62.3599 262.66C63.0416 257.511 63.8809 252.409 64.8741 247.362C64.9071 247.179 64.9437 246.996 64.9804 246.812C65.017 246.629 65.0537 246.446 65.094 246.263C88.1908 131.358 189.689 44.8086 311.404 44.8086C348.457 44.8086 383.637 52.8313 415.307 67.2311C417.235 68.107 419.148 69.0086 421.05 69.9322C498.33 107.476 553.477 183.47 561.61 273.039C562.299 280.618 562.651 288.297 562.651 296.055Z" fill="#F2F2FF"/>
<path d="M219.285 510.078C219.278 510.202 219.274 510.327 219.267 510.451C219.3 510.352 219.333 510.25 219.366 510.147C219.336 510.125 219.311 510.103 219.285 510.078ZM217.412 510.939C217.57 511.071 217.727 511.203 217.889 511.335C217.933 510.569 217.977 509.803 218.02 509.033C217.841 508.883 217.665 508.736 217.489 508.586C217.467 509.37 217.442 510.155 217.412 510.939Z" fill="#D69D9D"/>
<path d="M630.347 316.667C630.347 347.101 624.985 376.846 614.412 405.078C605.542 428.764 593.158 450.949 577.6 471.022C562.189 490.901 543.963 508.332 523.424 522.827C480.786 552.927 430.561 568.833 378.184 568.833C346.394 568.833 315.406 562.995 286.075 551.483L285.698 551.333C285.177 551.128 284.657 550.919 284.14 550.71C283.847 550.593 283.557 550.475 283.268 550.358L279.793 548.918C279.394 548.753 278.987 548.577 278.58 548.397C275.055 546.884 271.533 545.271 268.051 543.578C270.217 543.955 272.394 544.304 274.582 544.622C276.154 545.341 277.73 546.041 279.306 546.719C279.713 546.895 280.109 547.063 280.508 547.232L282.487 548.06C282.52 548.071 282.55 548.086 282.583 548.097L283.957 548.661C284.243 548.779 284.532 548.892 284.825 549.009C285.342 549.222 285.855 549.424 286.372 549.629L286.75 549.779C315.861 561.207 346.625 567.001 378.184 567.001C482.046 567.001 576.288 501.672 612.693 404.436C623.189 376.41 628.515 346.881 628.515 316.667C628.515 309.022 628.163 301.303 627.477 293.735C617.021 178.632 531.363 88.6597 421.05 69.9316C419.148 69.008 417.235 68.1064 415.307 67.2305C464.891 74.5678 511.268 96.5285 548.673 130.873C595.002 173.409 623.636 231.188 629.303 293.57C629.996 301.193 630.347 308.967 630.347 316.667Z" fill="#A9A2CD"/>
<path d="M705.007 296.814V360.369C705.007 373.5 694.364 384.144 681.232 384.144H546.774C557.04 356.733 562.651 327.05 562.651 296.055C562.651 288.296 562.299 280.618 561.61 273.039H681.232C694.364 273.039 705.007 283.686 705.007 296.814Z" fill="#E6E6E6"/>
<path d="M562.652 296.055C562.652 327.05 557.041 356.733 546.775 384.144H475.432C462.304 384.144 451.657 373.5 451.657 360.369V296.814C451.657 283.686 462.304 273.039 475.432 273.039H561.611C562.3 280.618 562.652 288.296 562.652 296.055Z" fill="#E2B5B5"/>
<path d="M673.482 375.93H467.682C454.551 375.93 443.907 365.286 443.907 352.155V288.601C443.907 275.47 454.551 264.826 467.682 264.826H673.482C686.612 264.826 697.257 275.471 697.257 288.601V352.155C697.257 365.286 686.612 375.93 673.482 375.93Z" fill="#6666F2"/>
<path d="M480.941 329.694C480.941 328.128 480.39 326.92 479.289 326.072C478.187 325.224 476.2 324.367 473.328 323.502C470.456 322.637 468.172 321.674 466.475 320.613C463.228 318.574 461.604 315.914 461.604 312.633C461.604 309.762 462.774 307.395 465.116 305.535C467.458 303.674 470.497 302.744 474.234 302.744C476.715 302.744 478.925 303.201 480.868 304.115C482.81 305.029 484.335 306.33 485.445 308.019C486.554 309.708 487.109 311.58 487.109 313.637H480.941C480.941 311.776 480.357 310.32 479.191 309.267C478.024 308.215 476.356 307.688 474.185 307.688C472.162 307.688 470.591 308.121 469.474 308.986C468.356 309.851 467.797 311.058 467.797 312.609C467.797 313.914 468.4 315.004 469.608 315.876C470.816 316.749 472.807 317.598 475.581 318.422C478.355 319.246 480.582 320.184 482.263 321.237C483.944 322.29 485.176 323.497 485.959 324.859C486.743 326.222 487.134 327.818 487.134 329.645C487.134 332.615 485.996 334.977 483.72 336.731C481.443 338.486 478.355 339.363 474.455 339.363C471.877 339.363 469.506 338.885 467.344 337.931C465.182 336.976 463.502 335.658 462.302 333.978C461.103 332.297 460.503 330.339 460.503 328.103H466.696C466.696 330.127 467.365 331.693 468.703 332.803C470.041 333.913 471.958 334.467 474.455 334.467C476.609 334.467 478.228 334.031 479.314 333.158C480.398 332.286 480.941 331.131 480.941 329.694Z" fill="white"/>
<path d="M508.036 336.278C506.29 338.334 503.81 339.363 500.595 339.363C497.723 339.363 495.549 338.522 494.072 336.842C492.595 335.161 491.856 332.729 491.856 329.547V312.389H497.805V329.474C497.805 332.836 499.2 334.516 501.991 334.516C504.879 334.516 506.829 333.48 507.841 331.407V312.389H513.789V338.873H508.184L508.036 336.278Z" fill="white"/>
<path d="M543.089 325.9C543.089 330.012 542.171 333.284 540.335 335.715C538.499 338.147 535.974 339.363 532.759 339.363C529.659 339.363 527.243 338.245 525.514 336.009L525.22 338.873H519.835V301.275H525.783V314.934C527.496 312.911 529.805 311.899 532.71 311.899C535.941 311.899 538.478 313.098 540.323 315.497C542.167 317.896 543.089 321.249 543.089 325.557L543.089 325.9ZM537.141 325.386C537.141 322.514 536.635 320.36 535.623 318.924C534.611 317.488 533.142 316.77 531.217 316.77C528.639 316.77 526.827 317.896 525.783 320.148V331.065C526.844 333.366 528.672 334.516 531.266 334.516C533.126 334.516 534.562 333.823 535.574 332.436C536.586 331.049 537.108 328.952 537.141 326.145V325.386Z" fill="white"/>
<path d="M562.917 331.676C562.917 330.616 562.48 329.808 561.607 329.253C560.734 328.698 559.286 328.209 557.263 327.784C555.239 327.36 553.55 326.822 552.196 326.169C549.226 324.733 547.741 322.653 547.741 319.927C547.741 317.643 548.704 315.733 550.63 314.199C552.555 312.666 555.003 311.898 557.973 311.898C561.139 311.898 563.696 312.682 565.647 314.248C567.596 315.815 568.571 317.847 568.571 320.343H562.623C562.623 319.201 562.198 318.251 561.35 317.492C560.502 316.733 559.375 316.353 557.972 316.353C556.666 316.353 555.601 316.655 554.778 317.259C553.954 317.863 553.542 318.671 553.542 319.682C553.542 320.596 553.925 321.306 554.692 321.812C555.459 322.318 557.009 322.828 559.343 323.342C561.676 323.856 563.508 324.468 564.838 325.177C566.168 325.887 567.155 326.74 567.8 327.735C568.444 328.731 568.767 329.938 568.767 331.358C568.767 333.741 567.779 335.67 565.805 337.147C563.83 338.624 561.244 339.362 558.046 339.362C555.875 339.362 553.941 338.97 552.244 338.187C550.547 337.404 549.226 336.326 548.279 334.956C547.333 333.585 546.859 332.108 546.859 330.525H552.636C552.718 331.929 553.248 333.01 554.227 333.769C555.206 334.527 556.504 334.907 558.119 334.907C559.686 334.907 560.877 334.609 561.693 334.013C562.509 333.418 562.917 332.639 562.917 331.676Z" fill="white"/>
<path d="M584.824 334.614C586.308 334.614 587.54 334.182 588.52 333.317C589.499 332.452 590.021 331.383 590.086 330.11H595.691C595.626 331.758 595.112 333.297 594.149 334.724C593.186 336.152 591.881 337.282 590.233 338.114C588.585 338.947 586.806 339.362 584.896 339.362C581.192 339.362 578.255 338.163 576.085 335.764C573.914 333.365 572.829 330.053 572.829 325.826V325.214C572.829 321.184 573.906 317.957 576.06 315.533C578.214 313.11 581.151 311.898 584.872 311.898C588.021 311.898 590.588 312.816 592.57 314.652C594.553 316.488 595.593 318.899 595.691 321.885H590.086C590.02 320.368 589.502 319.119 588.531 318.14C587.561 317.161 586.324 316.672 584.823 316.672C582.898 316.672 581.412 317.369 580.368 318.764C579.324 320.16 578.794 322.277 578.777 325.116V326.071C578.777 328.943 579.295 331.085 580.331 332.496C581.368 333.908 582.865 334.614 584.824 334.614Z" fill="white"/>
<path d="M614.051 317.822C613.267 317.692 612.459 317.626 611.627 317.626C608.902 317.626 607.066 318.671 606.12 320.76V338.873H600.172V312.388H605.851L605.997 315.35C607.433 313.049 609.424 311.898 611.97 311.898C612.818 311.898 613.52 312.013 614.075 312.241L614.051 317.822Z" fill="white"/>
<path d="M617.819 305.512C617.819 304.598 618.109 303.839 618.688 303.236C619.267 302.632 620.096 302.33 621.172 302.33C622.249 302.33 623.082 302.632 623.669 303.236C624.257 303.839 624.551 304.598 624.551 305.512C624.551 306.41 624.257 307.156 623.669 307.752C623.082 308.348 622.25 308.645 621.172 308.645C620.095 308.645 619.267 308.348 618.688 307.752C618.109 307.156 617.819 306.41 617.819 305.512ZM624.135 338.875H618.187V312.39H624.135V338.875Z" fill="white"/>
<path d="M653.85 325.9C653.85 330.012 652.932 333.284 651.096 335.715C649.26 338.147 646.735 339.363 643.52 339.363C640.419 339.363 638.004 338.245 636.275 336.009L635.981 338.873H630.596V301.275H636.544V314.934C638.257 312.911 640.566 311.899 643.471 311.899C646.702 311.899 649.239 313.098 651.083 315.497C652.927 317.896 653.849 321.249 653.849 325.557L653.85 325.9ZM647.901 325.386C647.901 322.514 647.395 320.36 646.384 318.924C645.372 317.488 643.903 316.77 641.978 316.77C639.399 316.77 637.588 317.896 636.544 320.148V331.065C637.605 333.366 639.432 334.516 642.027 334.516C643.887 334.516 645.323 333.823 646.335 332.436C647.347 331.049 647.869 328.952 647.901 326.145V325.386Z" fill="white"/>
<path d="M670.495 339.362C666.725 339.362 663.67 338.175 661.328 335.801C658.986 333.427 657.815 330.265 657.815 326.316V325.581C657.815 322.938 658.326 320.576 659.346 318.495C660.365 316.414 661.797 314.795 663.641 313.636C665.485 312.478 667.542 311.898 669.81 311.898C673.416 311.898 676.202 313.049 678.169 315.35C680.135 317.651 681.119 320.906 681.119 325.116V327.515H663.813C663.992 329.702 664.722 331.431 666.004 332.704C667.285 333.977 668.896 334.613 670.838 334.613C673.563 334.613 675.782 333.512 677.496 331.309L680.702 334.369C679.641 335.951 678.226 337.18 676.455 338.053C674.685 338.926 672.698 339.362 670.495 339.362ZM669.785 316.672C668.153 316.672 666.835 317.243 665.832 318.385C664.828 319.527 664.188 321.118 663.911 323.158H675.244V322.718C675.113 320.727 674.583 319.221 673.653 318.202C672.722 317.182 671.433 316.672 669.785 316.672Z" fill="white"/>
<path d="M365.671 667.012C494.577 667.012 599.075 644.898 599.075 617.619C599.075 590.339 494.577 568.225 365.671 568.225C236.766 568.225 132.268 590.339 132.268 617.619C132.268 644.898 236.766 667.012 365.671 667.012Z" fill="#F2F2FF"/>
<path d="M439.639 522.479L428.736 526.265L422.908 425.511L443.069 415.051L453.155 500.914C454.266 510.385 448.643 519.349 439.639 522.479Z" fill="#F4B1A0"/>
<path d="M422.908 425.508L428.735 526.262L414.914 531.06L284.462 519.911V449.668L271.661 413.087C262.659 387.37 281.747 360.469 308.992 360.469H393.639C418.169 360.469 438.814 378.83 441.676 403.192L443.069 415.048L422.908 425.508Z" fill="#F5E085"/>
<path d="M291.428 446.411C291.22 446.411 291.02 446.292 290.928 446.09C290.802 445.814 290.923 445.488 291.199 445.362L349.408 418.726L329.336 392.515C329.151 392.274 329.197 391.929 329.438 391.745C329.68 391.559 330.024 391.605 330.209 391.846L351.119 419.152L291.657 446.361C291.583 446.395 291.505 446.411 291.428 446.411Z" fill="#333333"/>
<path d="M460.075 388.343C460.075 388.343 472.895 401.724 468.435 411.759C463.975 421.794 444.462 426.925 444.462 426.925L387.926 496.728C377.25 509.908 357.21 510.087 346.299 497.106L300.325 442.413L350.264 419.562L367.34 441.863L425.511 398.008C425.511 398.008 426.625 377.751 443.905 384.997C443.905 384.997 475.127 357.682 480.702 358.239C486.276 358.796 460.075 388.343 460.075 388.343Z" fill="#F4B1A0"/>
<path d="M348.543 455.051C348.366 455.051 348.193 454.966 348.087 454.808C347.917 454.555 347.984 454.214 348.236 454.045L367.034 441.408C367.286 441.238 367.628 441.306 367.797 441.558C367.966 441.81 367.899 442.151 367.647 442.321L348.849 454.957C348.755 455.021 348.649 455.051 348.543 455.051Z" fill="#333333"/>
<path d="M230.634 666.345C232.863 670.805 325.408 651.476 325.408 651.476L328.028 592.484L291.213 599.818C291.213 599.818 228.402 661.885 230.634 666.345Z" fill="#F4B1A0"/>
<path d="M537.626 592.199C537.626 604.344 533.456 615.695 526.331 624.711C519.206 633.727 509.127 640.408 497.311 643.219C485.763 645.964 474.079 648.028 462.307 649.406C450.542 650.784 438.69 651.476 426.823 651.476H298.078C286.211 651.476 274.358 650.784 262.594 649.406C250.822 648.028 239.138 645.964 227.589 643.219C215.773 640.408 205.695 633.727 198.57 624.711C191.445 615.695 187.274 604.344 187.274 592.199C187.274 570.209 200.996 550.55 221.641 542.974L284.463 519.91L359.308 524.609C361.401 524.741 363.5 524.741 365.592 524.609L440.438 519.91L503.26 542.974C523.905 550.55 537.626 570.209 537.626 592.199Z" fill="#6666F2"/>
<path d="M494.266 666.345C492.037 670.805 399.493 651.476 399.493 651.476L396.872 592.484L433.687 599.818C433.687 599.818 496.498 661.885 494.266 666.345Z" fill="#F4B1A0"/>
<path d="M396.874 593.034C396.838 593.034 396.802 593.031 396.765 593.024L256.297 565.049C255.999 564.99 255.806 564.7 255.865 564.402C255.925 564.104 256.213 563.908 256.512 563.97L396.98 591.945C397.278 592.004 397.471 592.294 397.412 592.592C397.36 592.853 397.13 593.034 396.874 593.034Z" fill="#333333"/>
<path d="M364.686 586.625C364.424 586.625 364.192 586.437 364.145 586.17C364.093 585.871 364.293 585.586 364.592 585.534L466.669 567.684C466.97 567.631 467.254 567.832 467.305 568.131C467.358 568.43 467.158 568.715 466.859 568.767L364.781 586.617C364.749 586.623 364.718 586.625 364.686 586.625Z" fill="#333333"/>
<path d="M394.438 261.689C390.419 260.791 387.322 262.454 385.754 263.609C385.998 261.29 386.199 256.774 384.456 254.461C384.273 254.219 383.929 254.171 383.686 254.353C383.444 254.536 383.396 254.881 383.578 255.123C385.105 257.149 384.877 261.44 384.647 263.585C383.245 259.795 379.123 257.39 375.277 255.745C360.844 249.569 344.827 247.139 329.211 248.753C324.459 249.244 319.473 250.231 315.922 253.426C311.912 257.036 310.53 263.072 311.943 268.279C313.195 272.896 316.295 276.392 320.062 279.173C336.295 291.155 352.129 303.623 368.778 315.072C372.48 317.617 376.469 320.225 380.959 320.374C384.623 320.496 388.306 318.828 390.633 315.994C393.715 312.238 394.235 307.041 394.306 302.183C394.443 292.851 393.405 283.537 391.989 274.312C391.664 272.193 391.3 270.022 390.217 268.173C389.267 266.55 387.633 265.21 385.802 264.983C386.855 264.083 390.006 261.826 394.199 262.762C394.496 262.828 394.789 262.642 394.855 262.346C394.921 262.05 394.734 261.756 394.438 261.689Z" fill="#333333"/>
<path d="M379.792 283.535V361.134C379.792 373.605 369.683 383.714 357.212 383.714C344.742 383.714 334.632 373.605 334.632 361.134V350.018C324.26 347.306 316.611 337.869 316.611 326.646V287.808C316.611 276.827 325.513 267.926 336.494 267.926H364.183C372.807 267.926 379.792 274.915 379.792 283.535Z" fill="#F4B1A0"/>
<path d="M345.574 275.297C352.008 275.688 358.433 274.464 364.879 274.439C367.871 274.427 371.243 274.868 373.056 277.248C375.041 279.853 374.255 283.629 372.776 286.551C371.297 289.473 369.192 292.185 368.665 295.417C367.983 299.597 370.066 303.66 371.113 307.763C371.944 311.014 372.129 314.392 372.747 317.69C373.365 320.989 374.493 324.328 376.843 326.722C377.665 327.56 378.661 328.281 379.81 328.519C380.959 328.757 382.276 328.425 382.983 327.488C383.628 326.633 383.664 325.479 383.672 324.407C383.785 310.503 383.899 296.599 384.012 282.696C384.052 277.818 383.949 272.508 380.889 268.709C378.94 266.29 375.999 264.824 372.97 264.136C369.941 263.447 366.799 263.47 363.695 263.581C355.98 263.857 348.294 264.655 340.638 265.621C338.775 265.856 330.711 265.801 329.871 267.571C328.98 269.45 334.497 272.328 335.828 272.954C338.866 274.382 342.234 275.094 345.574 275.297Z" fill="#333333"/>
<path d="M388.594 321.887C393.456 317.024 393.456 309.14 388.594 304.277C383.731 299.414 375.847 299.414 370.984 304.277C366.121 309.14 366.121 317.024 370.984 321.887C375.846 326.75 383.731 326.75 388.594 321.887Z" fill="#F4B1A0"/>
<path d="M347.089 304.716C348.935 304.716 350.432 303.22 350.432 301.373C350.432 299.526 348.935 298.029 347.089 298.029C345.242 298.029 343.745 299.526 343.745 301.373C343.745 303.22 345.242 304.716 347.089 304.716Z" fill="#333333"/>
<path d="M328.132 300.633C328.132 302.479 326.636 303.976 324.789 303.976C322.942 303.976 321.445 302.479 321.445 300.633C321.445 298.786 322.942 297.289 324.789 297.289C326.635 297.289 328.132 298.786 328.132 300.633Z" fill="#333333"/>
<path d="M354.339 292.796C354.213 292.796 354.085 292.785 353.956 292.763L343.365 290.904C342.169 290.694 341.369 289.555 341.579 288.358C341.789 287.163 342.927 286.363 344.125 286.572L354.716 288.431C355.912 288.641 356.712 289.78 356.502 290.977C356.315 292.044 355.387 292.796 354.339 292.796Z" fill="#333333"/>
<path d="M319.954 291.867C318.851 291.867 317.899 291.038 317.772 289.916C317.635 288.71 318.502 287.62 319.709 287.483L327.884 286.554C329.093 286.414 330.18 287.284 330.317 288.49C330.455 289.697 329.587 290.787 328.38 290.924L320.205 291.853C320.121 291.863 320.037 291.867 319.954 291.867Z" fill="#333333"/>
<path d="M335.566 321.25C335.512 321.25 335.457 321.242 335.402 321.225L325.359 318.086L326.349 317.45C331.284 314.278 333.33 301.419 333.351 301.289C333.397 300.989 333.678 300.785 333.978 300.83C334.278 300.877 334.483 301.158 334.437 301.458C334.357 301.976 332.52 313.511 327.821 317.704L335.73 320.176C336.02 320.266 336.182 320.575 336.091 320.864C336.017 321.1 335.801 321.25 335.566 321.25Z" fill="#333333"/>
<path d="M339.859 331.104C339.733 331.104 339.656 331.101 339.635 331.1C339.332 331.089 339.095 330.835 339.106 330.532C339.116 330.228 339.376 329.995 339.675 330.002C339.713 330.003 343.569 330.113 347.105 328.19C349.646 326.808 351.404 324.729 352.328 322.012C352.426 321.724 352.738 321.57 353.026 321.668C353.313 321.766 353.467 322.079 353.369 322.366C352.353 325.353 350.422 327.638 347.63 329.156C344.284 330.976 340.775 331.104 339.859 331.104Z" fill="#333333"/>
<path d="M338.094 350.724C336.035 350.724 334.697 350.577 334.571 350.563C334.27 350.528 334.053 350.256 334.088 349.954C334.122 349.653 334.395 349.434 334.696 349.471C334.766 349.479 341.799 350.246 348.887 348.166C355.217 346.309 359.614 342.825 361.953 337.812C362.082 337.537 362.409 337.417 362.684 337.546C362.959 337.675 363.078 338.001 362.949 338.277C360.47 343.589 355.843 347.271 349.196 349.221C344.992 350.454 340.882 350.724 338.094 350.724Z" fill="#333333"/>
<path d="M306.297 580.864L288.738 539.238H446.695L428.202 580.864H306.297Z" fill="#E6E6E6"/>
<path d="M428.202 580.864H306.297L291.429 475.684H443.07L428.202 580.864Z" fill="white"/>
<path d="M378.184 528.949C376.696 533.12 372.712 536.107 368.028 536.107C362.076 536.107 357.249 531.283 357.249 525.328C357.249 521.626 359.118 518.361 361.962 516.422C361.559 517.551 361.339 518.771 361.339 520.039C361.339 525.991 366.162 530.818 372.114 530.818C374.365 530.818 376.454 530.129 378.184 528.949Z" fill="#E6E6E6"/>
</g>
<defs>
<clipPath id="clip0_4656_3095">
<rect width="733" height="733" fill="white"/>
</clipPath>
</defs>
</svg>
