<svg viewBox="0 0 512 512" xmlns="http://www.w3.org/2000/svg" xmlns:xlink="http://www.w3.org/1999/xlink"><linearGradient id="linear-gradient" gradientUnits="userSpaceOnUse" x1="282.88" x2="399.33" y1="369.07" y2="369.07"><stop offset="0" stop-color="#cacfdd"/><stop offset="1" stop-color="#eef0f1"/></linearGradient><linearGradient id="linear-gradient-2" gradientTransform="matrix(.71 -.71 .71 .71 -87.85 270.07)" gradientUnits="userSpaceOnUse" x1="233.06" x2="313.4" y1="200.03" y2="200.03"><stop offset="0" stop-color="#a9afc4"/><stop offset="1" stop-color="#d4d8e5"/></linearGradient><linearGradient id="linear-gradient-3" x1="95.19" x2="198.3" xlink:href="#linear-gradient" y1="157.89" y2="157.89"/><linearGradient id="linear-gradient-4" gradientTransform="matrix(-1 0 0 -1 494.65 541.74)" x1="239.64" x2="304.75" xlink:href="#linear-gradient" y1="253.87" y2="253.87"/><linearGradient id="linear-gradient-5" x1="189.9" x2="255.01" xlink:href="#linear-gradient-2" y1="287.87" y2="287.87"/><g isolation="isolate"><g id="Take_a_Break" data-name="Take a Break"><circle cx="246.79" cy="263.53" fill="#dee1ec" r="162.64"/><circle cx="246.79" cy="263.52" fill="#f5f5f5" r="131.47"/><path d="m246.79 263.53-93 93a131.08 131.08 0 0 1 -38.51-93z" fill="#a9afc4"/><path d="m399.33 320.06a163.05 163.05 0 0 1 -101.73 98 65.07 65.07 0 0 1 -14.72-41.29v-56.71z" fill="url(#linear-gradient)" mix-blend-mode="multiply"/><path d="m248.69 163.41h-3.79c-6.72 25-12.19 41.88-13 66.24-.08 2.16-.12 25.86-.12 28a5.85 5.85 0 0 0 5.85 5.84h18.37a5.84 5.84 0 0 0 5.85-5.84c0-2.16 0-25.87-.11-28-.86-23.99-5.94-39.65-13.05-66.24z" fill="url(#linear-gradient-2)"/><path d="m256 266.52h-18.39a8.85 8.85 0 0 1 -8.85-8.84c0-1.56 0-25.84.12-28.14.85-24.82 6.39-41.81 13.72-69.13h8.4c7.34 27.39 12.87 44.37 13.72 69.13.08 2.3.11 26.58.11 28.14a8.85 8.85 0 0 1 -8.83 8.84zm-9.18-98.6c-6.12 22.83-11.11 38.53-11.92 61.83-.07 2.07-.11 25.58-.11 27.93a2.85 2.85 0 0 0 2.85 2.84h18.36a2.85 2.85 0 0 0 2.85-2.84c0-2.35 0-25.86-.11-27.93-.83-23.28-5.82-38.97-11.95-61.83z" fill="#5e6175"/><path d="m359.41 423.17h88.63v6h-88.63z" fill="#5e6175"/><path d="m246.79 429.17c-91.33 0-165.64-74.31-165.64-165.65s74.31-165.64 165.64-165.64 165.64 74.31 165.64 165.64-74.3 165.65-165.64 165.65zm0-325.29c-88 0-159.64 71.62-159.64 159.64s71.61 159.65 159.64 159.65 159.64-71.62 159.64-159.65-71.61-159.64-159.64-159.64z" fill="#5e6175"/><path d="m370.65 426.17h-22.48a49.25 49.25 0 0 1 -49.24-49.25v-40.81h121v40.81a49.25 49.25 0 0 1 -49.28 49.25z" fill="#f5f5f5"/><path d="m463.75 364.1a28 28 0 0 1 -28 28h-18.3a48.91 48.91 0 0 0 2.42-14.59h16.13a13.36 13.36 0 0 0 0-26.71h-16.11v-14.69h15.87a28 28 0 0 1 27.99 27.99z" fill="#f5f5f5"/><path d="m370.65 429.17h-22.48a52.3 52.3 0 0 1 -52.24-52.25v-43.81h127v43.81a52.31 52.31 0 0 1 -52.28 52.25zm-68.72-90.06v37.81a46.3 46.3 0 0 0 46.24 46.25h22.48a46.31 46.31 0 0 0 46.25-46.25v-37.81z" fill="#5e6175"/><path d="m435.76 395.1h-22.43c2.61-8 3.45-10.17 3.59-20.59h19.08a10.36 10.36 0 0 0 0-20.71h-19.11v-20.69h18.87a31 31 0 0 1 0 62zm-14.33-6h14.33a25 25 0 0 0 0-50h-12.87v8.69h13.11a16.36 16.36 0 0 1 0 32.71h-13.24a52.92 52.92 0 0 1 -1.33 8.6z" fill="#5e6175"/><path d="m95.19 204.52a163 163 0 0 1 101.62-95.81c11.28 59.63-43.46 110.46-101.62 95.81z" fill="url(#linear-gradient-3)" mix-blend-mode="multiply"/><circle cx="115.32" cy="124.08" fill="#f5f5f5" r="66.88" transform="matrix(.331 -.944 .944 .331 -39.92 191.87)"/><path d="m115.32 194a69.88 69.88 0 1 1 69.88-69.88 70 70 0 0 1 -69.88 69.88zm0-133.76a63.88 63.88 0 1 0 63.88 63.88 63.85 63.85 0 0 0 -63.88-63.92z" fill="#5e6175"/><path d="m84.19 143.18 7-7a34.11 34.11 0 0 0 48.22 0q3.51 3.5 7 7a44 44 0 0 1 -62.22 0z" fill="#e1830e"/><path d="m104.9 105.21-7 7a12.19 12.19 0 0 0 -17.24 0l-7-7a22.07 22.07 0 0 1 31.24 0z" fill="#e1830e"/><path d="m157 105.21-7 7a12.19 12.19 0 0 0 -17.24 0l-7-7a22.07 22.07 0 0 1 31.24 0z" fill="#e1830e"/><g fill="#5e6175"><path d="m243.79 132.05h6v14.07h-6z"/><path d="m243.79 380.93h6v14.07h-6z"/><path d="m364.2 260.52h14.07v6h-14.07z"/><path d="m115.32 260.52h14.07v6h-14.07z"/></g><path d="m189.9 317.74 2.68 2.69c25-14.44 41.15-22.58 60.72-42.15a5.85 5.85 0 0 0 0-8.27c-.2-.2-13.52-13.52-13-13a5.85 5.85 0 0 0 -8.27 0c-19.54 19.57-27.62 35.58-42.13 60.73z" fill="url(#linear-gradient-4)" mix-blend-mode="multiply"/><path d="m189.9 317.74 2.68 2.69c25-14.44 41.15-22.58 60.72-42.15a5.85 5.85 0 0 0 0-8.27c-.2-.2-13.52-13.52-13-13a5.85 5.85 0 0 0 -8.27 0c-19.54 19.57-27.62 35.58-42.13 60.73z" fill="url(#linear-gradient-5)"/><path d="m192.09 324.17-5.94-5.93c15.12-26.24 23.69-43.24 43.78-63.34a8.85 8.85 0 0 1 12.51 0l13 13a8.85 8.85 0 0 1 0 12.51c-20.35 20.33-37.8 29.02-63.35 43.76zm42.08-65c-18.87 18.88-26.76 34.27-39.74 56.75 22.63-13.06 37.89-20.88 56.75-39.73a2.85 2.85 0 0 0 0-4l-13-13a2.86 2.86 0 0 0 -4.01-.05z" fill="#5e6175"/><path d="m192.09 324.17-5.94-5.93c15.12-26.24 23.69-43.24 43.78-63.34a8.85 8.85 0 0 1 12.51 0l13 13a8.85 8.85 0 0 1 0 12.51c-20.35 20.33-37.8 29.02-63.35 43.76zm42.08-65c-18.87 18.88-26.76 34.27-39.74 56.75 22.63-13.06 37.89-20.88 56.75-39.73a2.85 2.85 0 0 0 0-4l-13-13a2.86 2.86 0 0 0 -4.01-.05z" fill="#5e6175"/><ellipse cx="246.79" cy="263.52" fill="#e1830e" rx="15.65" ry="15.57" transform="matrix(.707 -.707 .707 .707 -114.05 251.54)"/><path d="m246.79 282.14a18.62 18.62 0 1 1 18.47-21 18.61 18.61 0 0 1 -18.47 21zm0-31.24a12.62 12.62 0 1 0 12.5 11 12.66 12.66 0 0 0 -12.48-11z" fill="#e1830e"/><path d="m459.57 314.1h17.01v6h-17.01z" fill="#5e6175" transform="matrix(.707 -.707 .707 .707 -87.12 423.92)"/><path d="m445.04 297.2h6v17.01h-6z" fill="#5e6175"/><path d="m471.44 333.11h17.01v6h-17.01z" fill="#5e6175"/><path d="m54.45 266.63h-6v-6h6zm0-16h-6v-6h6zm0-16h-6v-6h6zm0-16h-6v-6h6zm0-16h-6v-6h6zm0-16h-6v-6h6z" fill="#a9afc4"/><path d="m64.59 260.52h6v6h-6z" fill="#a9afc4"/><path d="m98.01 260.52h6v6h-6z" fill="#a9afc4"/><path d="m76.71 393.46a12.33 12.33 0 1 1 12.29-12.24 12.31 12.31 0 0 1 -12.29 12.24zm0-18.65a6.33 6.33 0 1 0 6.29 6.37 6.34 6.34 0 0 0 -6.3-6.37z" fill="#5e6175"/><path d="m136 429.17a9.58 9.58 0 1 1 9.58-9.52 9.59 9.59 0 0 1 -9.58 9.52zm0-13.17a3.58 3.58 0 1 0 3.58 3.6 3.57 3.57 0 0 0 -3.58-3.6z" fill="#5e6175"/></g></g></svg>