<svg id="Layer_1" enable-background="new 0 0 68 68" height="512" viewBox="0 0 68 68" width="512" xmlns="http://www.w3.org/2000/svg"><g><g><g><path d="m50.0099258 65.9993973c-1.1398926 0-2.1499023-.6999512-2.5498047-1.7700195l-6.9599609-18.5800781c-.1201172-.3198242-.1801758-.6499023-.1801758-.9599609 0-1.4499512 1.1699219-2.7299805 2.7399902-2.7299805 1.1401367 0 2.1601563.7099609 2.5600586 1.7700195l6.9499512 18.5800781c.6699219 1.790039-.6499023 3.6899414-2.5600586 3.6899414z" fill="#304056"/></g><g><path d="m33.6000137 42.8192215c.5300293.5200195.8500977 1.2602539.8500977 2.0600586v18.2099609c0 1.6101074-1.3000488 2.9101563-2.9099121 2.9101563-1.6101074 0-2.920166-1.3000488-2.920166-2.9101563v-18.2099609c0-1.6098633 1.3100586-2.9199219 2.920166-2.9199219.8098144 0 1.5297851.3300781 2.0598144.8598633z" fill="#304056"/></g><g><path d="m22.7501602 44.6893387c0 .3100586-.0600586.6401367-.1801758.9599609l-6.9499521 18.5800781c-.3999023 1.0700684-1.4199219 1.7700195-2.5600586 1.7700195-1.9099121 0-3.2299805-1.8999023-2.5598145-3.6899414l6.9599619-18.5800781c.3999023-1.0600586 1.4099121-1.7700195 2.5498047-1.7700195 1.5700684 0 2.7402344 1.2800293 2.7402344 2.7299805z" fill="#304056"/></g></g><g><circle cx="31.537" cy="26.73" fill="#dbdbdb" r="24.729"/></g><g><circle cx="31.537" cy="26.73" fill="#488ff7" r="18.729"/></g><g><circle cx="31.537" cy="26.73" fill="#dbdbdb" r="12.729"/></g><g><circle cx="31.537" cy="26.73" fill="#488ff7" r="6.729"/></g><g><g><path d="m31.5372696 27.2298641c-.15625 0-.3105469-.0732422-.4077148-.2099609-.1601563-.2250977-.1074219-.5375977.1171875-.6972656l28.96875-20.6040039c.2265625-.1611328.5380859-.1069336.6972656.1171875.1601563.2250977.1074219.5375977-.1171875.6972656l-28.96875 20.6040039c-.0883789.0629883-.1894532.0927734-.2895508.0927734z"/></g></g><g><path d="m57.2902451 11.4790449-2.8892517-.6793861c-.1765823-.041523-.2965164-.2055941-.2824898-.3864498l.2295113-2.959166c.0083008-.1070409.0629616-.2051101.1496353-.2684684l3.4502678-2.5221081c.2536621-.1854253.6080055.0120769.5837097.3253455l-.1807557 2.3305826c-.0140266.1808553.1059074.3449273.2824898.3864493l2.2755203.5350714c.3058662.0719223.3865128.4694929.1328506.6549177l-3.4502678 2.5221081c-.0866736.0633583-.1967086.085679-.3012198.0611038z" fill="#488ff7"/></g></g></svg>