<svg id="Layer_1" enable-background="new 0 0 68 68" height="512" viewBox="0 0 68 68" width="512" xmlns="http://www.w3.org/2000/svg"><g><g><g><path d="m59.2814293 58.7218742v1.0600586c0 3.5703125-2.9000244 6.4702187-6.4699707 6.4702187h-42.7200918c-3.5799556 0-6.4699707-2.8999062-6.4699707-6.4702187v-1.0600586c0-1.159668.9400637-2.1098633 2.1101077-2.1098633h51.4399414c1.1599108.0000001 2.1099841.9501954 2.1099841 2.1098633z" fill="#488ff7"/></g></g><g><g><g><path d="m63.4114342 27.4821281c-.7700195-.9199219-1.9099121-1.4399414-3.1199951-1.4399414h-13.5c-1.1300049 0-2.039917.9101563-2.039917 2.0400391v20.5097656c0 1.1201172.9099121 2.0400391 2.039917 2.0400391h10.75c2.0100098 0 3.7000732-1.4399414 4.0300293-3.4199219l2.7500038-16.4101563c.1999511-1.1899413-.1300049-2.3999023-.910038-3.3198242zm-5.8599854 19.0600586s0 .0097656-.0100098.0097656h-8.710083v-16.4296874l11.4700928.0097656z" fill="#b9b9b9"/></g></g></g><g><g><path d="m54.3413658 24.8419914-3.1599121 20.2099609c-1.0400391 6.6601563-6.7700195 11.5600586-13.5100098 11.5600586h-12.4399395c-6.7299805 0-12.4700937-4.8999023-13.5100107-11.5600586l-3.1500244-20.2099609c-.4000244-2.5200195 1.5499268-4.7900391 4.0999756-4.7900391h37.5700684c2.539916.0000001 4.4899892 2.2700196 4.0998525 4.7900391z" fill="#dbdbdb"/></g></g><g><g><path d="m21.3014507 20.0519524v9.3100586c0 .2700195-.2200928.5-.5.5-.2800293 0-.5-.2299805-.5-.5v-9.3100586z" fill="#304056"/></g></g><g><g><path d="m25.9589844 30.9371109v6.4719925c0 .8763695-.7033081 1.5795555-1.5798035 1.5795555h-7.1547737c-.8764935 0-1.5798035-.703186-1.5798035-1.5795555v-6.4719925c0-.8768654.70331-1.5800514 1.5798035-1.5800514h7.1547737c.8764954 0 1.5798035.703186 1.5798035 1.5800514z" fill="#488ff7"/></g></g><g><g><g><path d="m19.7217388 18.2487297c-.105957 0-.2133789-.0336914-.3041992-.1032715-.21875-.1679688-.2602539-.4816895-.0927734-.7006836.1069336-.1398926 2.59375-3.453125.480957-6.0356445-2.5991211-3.177002-.0776367-7.083252.0307617-7.2480469.1518555-.2302246.4609375-.2939453.6918945-.142334.2304688.1513672.2944336.4611816.1435547.6921387-.0917969.1401367-2.2226563 3.4614258-.0922852 6.0649414 2.6171875 3.1989746-.4306641 7.2375488-.4614258 7.2780762-.0986327.1279297-.2465819.1948242-.3964843.1948242z" fill="#b9b9b9"/></g></g><g><g><path d="m27.2593365 16.060009c-.105957 0-.2133789-.0336914-.3041992-.1032715-.21875-.1679688-.2602539-.4816895-.0922852-.7009277.1064453-.1396484 2.59375-3.4528809.480957-6.0351563-2.5996094-3.1772461-.078125-7.0837402.0302734-7.248291.1518555-.2304688.4609375-.293457.6918945-.142334.2304688.1513672.2944336.4611815.1435547.6921386-.0917969.1401367-2.2226563 3.4614258-.0917969 6.0651855 2.6171875 3.1987305-.4311523 7.2373047-.4619141 7.277832-.0986327.1279299-.2465819.1948244-.3964842.1948244z" fill="#b9b9b9"/></g></g><g><g><path d="m34.7969322 18.2487297c-.105957 0-.2133789-.0336914-.3041992-.1032715-.21875-.1679688-.2602539-.4816895-.0922852-.7009277.1064453-.1396484 2.59375-3.4528809.4804688-6.0354004-2.5986328-3.177002-.0771484-7.083252.03125-7.2480469.1523438-.2302246.4609375-.2939453.6918945-.142334.2304688.1513672.2944336.4611816.1435547.6921387-.0917969.1401367-2.2226563 3.4614258-.0922852 6.0649414 2.6171875 3.1989746-.4311523 7.2375488-.4619141 7.2780762-.0986327.1279297-.2465819.1948242-.3964843.1948242z" fill="#b9b9b9"/></g></g><g><g><path d="m42.3350182 16.060009c-.105957 0-.2133789-.0336914-.3041992-.1032715-.21875-.1679688-.2602539-.4816895-.0927734-.7006836.1069336-.1398926 2.59375-3.453125.480957-6.0354004-2.5991211-3.1772461-.0776367-7.0837402.0307617-7.248291.1523438-.2304688.4609375-.293457.6918945-.142334.2304688.1513672.2944336.4611815.1435547.6921386-.0917969.1401367-2.2226563 3.4614258-.0917969 6.0651855 2.6166992 3.1987305-.4311523 7.2373047-.4619141 7.277832-.0986328.1279299-.246582.1948244-.3964843.1948244z" fill="#b9b9b9"/></g></g></g></g></svg>