<svg width="564" height="519" viewBox="0 0 564 519" fill="none" xmlns="http://www.w3.org/2000/svg">
<path d="M40.8583 518.34C40.8583 450.334 54.2532 382.993 80.2783 320.162C106.303 257.332 144.449 200.243 192.537 152.155C240.625 104.067 297.714 65.9217 360.544 39.8966C423.374 13.8715 490.715 0.47656 558.722 0.476563V518.34H40.8583Z" fill="white"/>
<g clip-path="url(#clip0_4430_552)">
<path d="M281.878 417.354C279.912 410.412 278.591 403.346 277.875 396.15C276.573 383.837 275.394 342.741 280.845 333.162C281.726 331.617 282.979 330.363 284.757 329.949C286.472 329.549 288.546 330.03 290.01 331.007C296.374 335.245 304.982 365.719 308.73 374.352C310.023 377.371 311.488 380.309 313.129 383.147C314.789 385.987 316.605 388.723 318.578 391.336C324.777 399.537 332.157 407.393 339.219 414.863C342.203 418.009 366.414 442.079 368.923 442.491C369.461 442.578 369.978 442.662 370.516 442.749C361.559 442.888 352.46 441.049 343.446 440.833C338.22 440.698 331.603 442.127 326.604 440.651C312.921 436.611 295.939 415.539 281.878 417.354Z" fill="#F3A73D"/>
<g clip-path="url(#clip1_4430_552)">
<path d="M281.878 417.354C279.912 410.412 278.591 403.346 277.875 396.15C276.573 383.837 275.394 342.741 280.845 333.162C281.726 331.617 282.979 330.363 284.757 329.949C286.472 329.549 288.546 330.03 290.01 331.007C296.374 335.245 304.982 365.719 308.73 374.352C310.023 377.371 311.488 380.309 313.129 383.147C314.789 385.987 316.605 388.723 318.578 391.336C324.777 399.537 332.157 407.393 339.219 414.863C342.203 418.009 366.414 442.079 368.923 442.491C369.461 442.578 369.978 442.662 370.516 442.749C361.559 442.888 352.46 441.049 343.446 440.833C338.22 440.698 331.603 442.127 326.604 440.651C312.921 436.611 295.939 415.539 281.878 417.354Z" fill="white"/>
</g>
<path d="M449.761 498.536C449.365 498.536 448.999 498.313 448.814 497.953L444.543 489.641C444.322 489.211 444.408 488.684 444.754 488.35C445.1 488.016 445.622 487.956 446.033 488.203L453.385 492.621L488.027 486.609C488.087 486.598 488.147 486.593 488.207 486.593H497.011C508.737 481.727 520.896 475.17 524.361 472.872C524.728 472.629 525.116 472.377 525.521 472.115C530.362 468.976 537.677 464.233 538.619 453.706C539.077 448.587 537.615 437.717 534.608 423.883C532.09 412.296 528.87 400.586 526.953 396.038C525.639 392.921 523.927 386.809 521.944 379.732C518.169 366.258 513 347.805 507.878 341.292C506.385 339.395 504.358 337.996 502.071 336.973C501.996 337.361 501.716 337.686 501.331 337.804C492.492 340.511 487.532 350.942 484.926 359.217C481.854 368.974 481.159 378.242 481.159 379.542C481.159 380.763 482.972 385.45 484.726 389.984C487.588 397.379 491.149 406.584 491.41 411.622C491.643 416.121 494.29 420.654 496.849 425.037C498.808 428.392 500.658 431.561 501.418 434.65C501.611 435.433 502.488 436.948 506.042 438.91C506.711 438.645 507.753 438.603 509.385 438.743C511.069 438.887 513.322 439.239 515.898 439.759C519.438 440.474 523.299 441.454 526.227 442.38C531.416 444.023 531.996 444.905 532.145 445.667C532.255 446.229 532.02 446.767 531.518 447.108C530.461 447.824 527.586 447.736 522.971 446.845C518.626 446.007 513.895 444.646 509.991 443.111C508.653 442.585 507.438 442.052 506.347 441.513C505.36 442.438 503.605 443.611 501.005 445.326C497.821 447.425 493.859 450.038 491.067 452.65C487.149 456.313 468.549 462.729 451.421 468.456C447.68 469.707 444.725 470.695 443.744 471.093C443.208 471.311 442.625 471.437 442.013 471.484L443.839 487.185C443.897 487.69 443.603 488.169 443.131 488.337C442.907 488.418 437.581 490.275 432.994 488.47C428.251 486.604 422.414 478.869 420.142 473.094C419.12 470.499 415.564 466.341 411.082 462.501C406.315 458.416 401.644 455.644 398.587 455.084C394.872 454.405 393.152 453.503 392.835 452.069C392.517 450.631 393.812 449.506 394.809 448.761C386.479 453.812 377.447 457.407 367.945 459.45C367.405 459.567 366.867 459.245 366.704 458.709C366.541 458.173 366.806 457.599 367.316 457.385C370.48 456.055 372.453 452.118 371.904 448.229C371.413 444.743 369.12 441.368 365.612 438.971C363.192 437.316 360.392 436.222 357.684 435.409C357.48 435.652 357.289 435.907 357.113 436.176C360.636 438.237 363.489 441.525 365.034 445.343C366.722 449.513 366.863 454.351 365.419 458.616C365.019 459.799 364.576 460.707 364.024 461.473C362.611 463.435 360.155 464.77 357.287 465.137C354.815 465.454 352.389 465.09 350.043 464.739C349.665 464.682 349.346 464.425 349.205 464.063C349.099 463.788 349.027 463.514 348.986 463.241C346.459 464.522 343.773 465.377 341.016 465.767C340.615 465.823 340.217 465.645 339.988 465.305C339.819 465.055 339.764 464.75 339.824 464.462C339.421 464.735 338.946 464.942 338.397 464.978C337.583 465.032 336.765 464.671 336.157 464.034C336.143 465.043 336.015 465.906 335.687 466.376C335.32 466.902 334.801 466.913 333.416 466.942C332.537 466.961 331.244 466.964 329.573 466.951C326.45 466.928 321.921 466.849 316.113 466.718C303.16 466.425 286.828 465.94 275.409 465.584C247.734 464.723 215.882 463.592 214.424 463.344C212.317 462.988 210.894 460.115 210.386 457.786C210.02 457.748 209.768 457.713 209.641 457.681C206.401 456.857 206.15 451.536 205.86 445.375C205.759 443.232 205.655 441.016 205.422 438.945C204.602 431.653 204.56 399.035 204.56 392.57C204.56 392.086 204.517 391.262 204.467 390.308C204.115 383.591 203.98 376.836 206.469 374.493C207.161 373.841 208.026 373.562 208.97 373.688C213.158 374.243 227.046 374.646 230.643 374.743C231.828 370.433 235.723 362.421 237.781 358.329C235.482 359.042 232.797 359.489 229.737 359.669C229.179 359.794 228.123 359.901 225.961 359.945C223.427 359.995 220.463 359.917 217.612 359.723C211.866 359.333 204.068 358.324 199.55 355.733C199.081 355.464 198.882 354.88 199.088 354.373C199.293 353.867 199.839 353.595 200.359 353.741C200.56 353.797 215.588 357.943 228.285 357.551C227.046 353.852 227.074 350.579 228.373 347.806C230.33 343.628 229.158 335.771 228.124 328.84L228.067 328.459C227.424 324.144 228.508 321.053 229.557 318.064C230.322 315.881 231.045 313.819 231.045 311.359C231.045 306.022 224.217 302.372 224.148 302.335C223.701 302.1 223.475 301.578 223.607 301.085L224.76 296.787C224.236 295.992 223.01 294.12 221.496 291.733L208.189 297.589C207.853 297.737 207.467 297.7 207.165 297.492C206.862 297.283 206.686 296.932 206.697 296.561L207.765 260.298C207.777 259.887 208.016 259.518 208.383 259.345L209.749 258.701C195.946 259.863 183.798 264.128 165.498 279.678C162.183 282.494 160.464 286.081 160.389 290.337C160.32 294.212 161.574 298.366 163.525 302.446C165.409 303.367 167.465 304.794 169.536 306.984C172.418 306.819 185.944 306.472 189.1 314.186C192.188 321.733 197.996 348.528 196.863 357.745C196.29 362.403 197.183 367.73 198.046 372.882C198.751 377.092 199.417 381.068 199.219 384.384C198.814 391.171 199.799 401.752 201.909 406.686C204.112 411.837 205.124 421.316 203.121 424.625C202.782 425.185 202.385 425.792 201.965 426.433C200.56 428.581 198.438 431.826 198.943 433.239C199.814 435.675 198.536 439.21 197.024 442.666L196.993 442.737C196.615 443.602 195.345 444.754 188.677 447.302C185.111 448.665 181.204 449.953 179.457 450.499C179.163 450.591 178.849 450.549 178.593 450.392C178.454 450.755 178.321 451.136 178.181 451.535C177.727 452.829 177.213 454.296 176.263 455.883C174.8 458.326 171.489 459.399 166.424 459.071C162.864 458.841 159.731 457.995 159.6 457.959C159.196 457.849 158.892 457.509 158.823 457.09C158.799 456.942 158.805 456.795 158.838 456.655L158.226 456.936C157.802 457.129 157.304 457.023 156.993 456.671L156.964 456.638C157.609 457.439 158.068 458.144 158.3 458.716C159.483 461.627 159.392 464.017 158.058 465.111C157.413 465.639 156.582 465.773 155.697 465.522C155.706 465.58 155.713 465.637 155.718 465.692C155.848 467.144 155.174 468.363 153.869 469.037C152.123 469.938 149.026 469.793 145.851 467.651C142.83 469.128 135.885 470.524 133.659 468.654C133.122 468.203 131.764 467.315 130.096 466.269C130.007 466.822 129.698 467.479 128.895 468.095C126.849 469.667 122.194 470.314 119.48 468.763C118.497 468.201 117.758 467.581 117.106 467.034C115.616 465.787 114.541 464.884 111.194 464.945C108.616 464.992 104.301 465.07 100.64 464.448C96.4255 463.732 93.9362 462.215 93.2196 459.934C91.8009 459.939 88.8777 459.922 85.9148 459.731C84.7795 459.658 83.7762 459.57 82.89 459.468C82.8251 460.279 82.8146 460.757 82.8143 460.773C82.8043 461.32 82.3958 461.774 81.8608 461.832C80.8309 461.945 79.8054 461.997 78.7916 461.997C71.9072 461.998 65.5071 459.593 61.1199 457.413C55.4927 454.616 50.3778 450.703 48.3922 447.675C45.6175 443.444 37.2907 438.002 34.8734 436.476C32.6413 438.672 30.0134 443.321 27.8757 448.905C25.5123 455.079 24.7829 459.654 25.2812 460.998C25.4212 461.221 26.9973 462.97 42.4623 464.646C43.9267 464.805 45.3853 464.949 46.7946 465.079C51.4363 465.106 55.7742 465.353 58.8876 465.985C59.4366 466.097 59.8077 466.62 59.7383 467.185C59.6688 467.749 59.183 468.17 58.6232 468.134C58.557 468.131 53.2052 467.845 46.7761 467.257C36.147 467.205 23.7293 468.308 21.3713 468.527C16.0441 474.355 15.7946 482.396 15.8905 485.221C27.4519 483.851 84.8401 462.561 85.4377 462.339C85.9794 462.137 86.5806 462.41 86.7955 462.954C87.0104 463.498 86.7616 464.117 86.2333 464.353L25.3608 491.495C25.2255 491.556 25.0794 491.587 24.9318 491.587H-19.7089C-20.2987 491.587 -20.7769 491.101 -20.7769 490.501C-20.7769 489.902 -20.2987 489.415 -19.7089 489.415H24.7079L58.4593 474.366C40.6388 480.609 19.9308 487.461 14.8927 487.461C14.3501 487.461 13.8939 487.048 13.8317 486.5C13.777 486.018 12.5787 474.606 20.1071 466.728C20.2834 466.543 20.5183 466.428 20.7702 466.404C21.2406 466.357 26.2394 465.872 32.6676 465.501C31.7291 465.336 30.8634 465.168 30.0723 464.997C24.7375 463.843 23.6527 462.732 23.2951 461.798C22.3197 459.248 23.9935 453.059 25.8851 448.118C28.3666 441.635 31.4322 436.464 34.0854 434.285C34.4331 434 34.9191 433.965 35.3033 434.197C35.7654 434.477 46.658 441.116 50.1692 446.471C51.6137 448.673 55.9503 452.427 62.0577 455.462C68.4703 458.648 75.0575 460.158 80.7246 459.755C80.7361 459.579 80.7503 459.381 80.7681 459.164C77.3087 458.547 76.4231 457.661 76.1 456.825C75.3359 454.848 76.3735 447.65 79.6789 441.307C82.0771 436.704 85.2016 433.509 88.8113 431.932C86.8585 430.779 83.7927 428.924 80.7063 426.882C71.1798 420.578 69.6679 418.003 69.3595 416.614C69.0369 415.162 68.1889 414.769 66.7181 414.199C65.0775 413.563 62.8306 412.693 62.6419 409.049C62.5204 406.703 63.8298 404.168 65.4873 400.959C68.1079 395.886 71.3694 389.572 70.3383 381.186C68.9912 370.23 69.6574 358.364 70.0152 351.989C70.1115 350.273 70.1875 348.918 70.1875 348.189C70.1875 347.546 70.2513 346.448 70.3321 345.059C70.6697 339.244 71.4603 325.627 68.306 321.107C66.2897 318.217 63.5991 316.917 60.9971 315.66C58.8562 314.626 56.8196 313.642 55.3639 311.868C55.1716 312.32 54.9896 312.781 54.8171 313.253C51.5033 322.332 51.9563 335.333 56.2018 352.998C58.1486 361.098 58.3608 370.01 56.8325 379.487C55.5657 387.341 53.1444 395.431 49.6356 403.532C43.8013 417.003 35.7371 428.241 32.4244 429.289C31.3551 429.628 30.6072 429.062 30.341 428.351C29.4774 426.046 29.6814 422.304 29.9175 417.97C30.1749 413.246 30.4667 407.892 29.2579 404.205C27.7597 399.636 29.0401 389.186 29.9368 383.364C31.2495 374.839 33.3003 365.992 35.04 361.349C38.3995 352.383 38.3745 348.007 37.5406 340.8C36.7695 334.137 42.3417 322.04 45.0197 316.226C45.4277 315.34 45.7498 314.641 45.9521 314.169C46.9622 311.813 49.7025 307.98 52.7565 307.723C53.3437 307.673 54.0759 307.746 54.8257 308.159C58.4243 301.921 64.2872 297.803 72.4965 295.545C90.501 290.592 107.261 287.946 107.428 287.92C107.662 287.883 107.895 287.927 108.094 288.035C108.061 287.564 108.052 287.095 108.067 286.628C108.35 277.511 108.636 273.436 108.801 271.703C108.207 271.593 107.455 271.383 106.676 270.983C105.106 270.175 103.112 268.426 102.526 264.683C102.09 261.895 101.959 258.293 102.184 255.282C102.619 249.464 104.098 248.563 104.584 248.268C105.077 247.968 106.092 247.612 107.36 248.592C108.404 249.399 109.138 250.219 109.65 250.994C110.284 248.651 111.075 245.816 111.545 244.462C111.831 243.639 112.356 242.818 112.964 241.867C114.362 239.683 116.276 236.691 116.468 231.608C116.561 229.17 117.952 227.312 120.492 226.235C125.249 224.218 133.486 225.393 135.273 226.877C135.846 227.065 138.127 226.834 139.967 226.648C143.223 226.317 147.275 225.906 150.859 226.36C155.342 226.929 158.109 228.792 159.081 231.9C159.408 232.945 159.717 234.006 160.006 235.069C159.259 231.007 158.432 227.34 157.684 225.211C156.518 221.894 150.34 221.129 144.366 220.39C140.797 219.949 137.106 219.492 134.017 218.498C130.914 217.499 126.784 218.492 122.685 221.224C117.948 224.38 114.253 229.177 113.899 232.631C113.166 239.782 108.631 246.336 108.438 246.611C108.151 247.021 107.625 247.177 107.166 246.988C106.707 246.799 106.437 246.314 106.512 245.817C106.518 245.78 107.085 241.956 107.784 232.007C108.136 227.001 111.545 221.649 117.138 217.322C122.401 213.251 128.768 210.733 134.168 210.586C145.149 210.29 153.6 214.868 158.756 218.763C164.445 223.059 166.179 231.686 166.307 236.106C166.394 239.105 165.158 244.421 164.108 248.345C164.325 250.432 164.457 252.235 164.473 253.541C165.207 253.686 166.156 254.029 166.887 254.83C167.7 255.719 168.03 256.923 167.867 258.407C167.44 262.321 166.13 268.588 164.934 271.323C163.978 273.509 162.476 276.232 160.744 276.788C160.623 276.827 160.504 276.855 160.385 276.873C159.926 278.979 158.72 283.932 156.791 287.739C155.079 291.116 152.48 293.046 150.391 294.597C149.384 295.345 148.514 295.991 147.962 296.639C145.91 299.045 135.905 305.321 128.735 301.676C122.96 298.74 115.735 292.353 112.896 287.981C112.412 289.145 111.817 290.72 111.346 292.423C115.677 302.733 130.754 310.734 130.933 310.828C131.243 310.989 131.455 311.294 131.503 311.645C131.55 311.995 131.427 312.347 131.172 312.588L130.839 312.903C130.945 312.927 131.051 312.95 131.157 312.973C133.394 313.452 136.404 313.707 138.036 312.205C144.247 306.493 148.15 302.428 149.728 298.552C149.908 298.111 150.35 297.841 150.818 297.887C151.286 297.933 151.669 298.285 151.762 298.753C151.91 299.502 155.336 317.205 149.947 327.421C149.773 327.752 149.442 327.968 149.074 327.991C148.705 328.016 148.35 327.844 148.136 327.538L141.269 317.74L139.915 322.163C139.778 322.612 139.373 322.92 138.911 322.926L128.943 323.071C128.675 323.08 128.411 322.975 128.211 322.791L128.139 322.724C128.123 323.749 127.993 325.003 127.697 326.537C126.501 332.751 109.094 421.883 106.974 432.74C116.054 434.487 125.734 436.12 127.849 436.12C127.854 436.12 127.859 436.12 127.864 436.12C128.542 435.161 129.953 433.671 130.692 432.911C131.179 426.522 137.285 346.197 137.828 327.166C137.837 326.859 137.973 326.57 138.203 326.371C138.432 326.172 138.735 326.081 139.034 326.121C139.142 326.135 141.723 326.491 144.857 328.046C149.022 330.114 152.202 333.346 154.053 337.392C154.183 337.674 154.294 337.87 154.381 338.004C154.943 337.016 155.766 333.799 156.129 327.816C156.713 318.162 155.729 306.255 152.754 303.207C152.5 302.947 152.392 302.574 152.468 302.216C152.543 301.857 152.791 301.562 153.127 301.429C153.215 301.395 155.329 300.581 158.463 300.935C159.128 301.011 159.872 301.144 160.678 301.365C159.005 297.359 158.192 293.663 158.252 290.298C158.34 285.384 160.316 281.25 164.127 278.012C173.523 270.028 181.587 264.741 189.505 261.375C196.561 258.376 203.655 256.821 212.506 256.335C212.933 256.311 213.327 256.549 213.515 256.926L213.676 256.85C212.994 254.849 211.564 250.369 211.346 247.362C210.492 247.603 209.425 247.736 208.433 247.383C207.487 247.046 206.768 246.319 206.353 245.281C205.835 243.984 204.898 240.516 204.44 236.867C203.852 232.194 204.21 228.864 205.504 226.971C206.198 225.954 207.166 225.349 208.33 225.196C208.458 224.916 208.633 224.559 208.86 224.141C208.419 224.101 208.041 223.785 207.925 223.34C206.46 217.758 207.167 212.007 209.968 206.711C212.47 201.979 216.476 197.819 221.553 194.68C226.438 191.66 231.948 189.878 237.07 189.663C242.721 189.427 247.608 191.058 251.201 194.384C258.825 201.441 261.298 208.767 262.031 213.671C262.831 219.031 261.804 222.698 261.759 222.852C261.687 223.103 261.53 223.315 261.322 223.454C262.035 223.336 262.898 223.368 263.692 223.867C264.945 224.655 265.541 226.31 265.465 228.788L265.459 228.979C265.128 239.801 264.347 246.682 261.483 247.542C260.542 247.824 259.709 247.417 259.055 246.858C258.412 248.94 257.233 252.753 255.542 258.181C254.006 263.113 251.007 267.603 247.098 270.823C242.948 274.241 238.072 276.065 232.995 276.097C232.969 276.097 232.942 276.097 232.915 276.097C225.006 276.097 220.513 268.739 216.913 262.7C216.541 263.208 216.127 263.802 215.71 264.445L223.099 289.989C223.131 290.1 223.145 290.212 223.142 290.322C225.213 293.591 226.78 295.949 226.804 295.984C226.978 296.246 227.031 296.573 226.949 296.878L225.886 300.843C227.903 302.081 233.181 305.849 233.181 311.359C233.181 314.195 232.361 316.532 231.568 318.793C230.565 321.655 229.616 324.358 230.179 328.133L230.236 328.514C231.316 335.754 232.54 343.96 230.301 348.74C229.187 351.118 229.258 354.041 230.511 357.431C233.899 357.167 237.034 356.524 239.565 355.323C239.981 355.126 240.474 355.221 240.79 355.559C241.107 355.898 241.175 356.403 240.96 356.816C240.886 356.958 233.543 371.07 232.518 376.071C232.413 376.585 231.967 376.946 231.447 376.936C230.721 376.918 213.606 376.492 208.694 375.841C208.378 375.8 208.147 375.872 207.92 376.085C205.958 377.934 206.408 386.524 206.6 390.192C206.654 391.218 206.696 392.028 206.696 392.57C206.696 399.014 206.737 431.523 207.544 438.698C207.784 440.84 207.891 443.092 207.993 445.271C208.201 449.668 208.459 455.142 210.159 455.574C210.165 455.575 210.171 455.576 210.177 455.578C210.251 454.113 210.817 453.056 211.808 452.598C212.358 452.344 213.503 451.815 274.581 453.723C301.402 454.561 328.304 455.515 334.017 455.72V396.261C334.017 394.895 334.099 393.545 334.178 392.24C334.417 388.33 334.622 384.954 332.613 382.807C330.762 380.829 327.022 379.905 321.193 379.976C303.86 380.193 235.552 378.473 234.863 378.455C234.298 378.441 233.841 377.981 233.823 377.406C233.804 376.831 234.23 376.341 234.793 376.289L261.906 373.783C261.469 369.852 259.788 356.353 256.823 351.21C256.31 350.321 255.555 349.763 254.514 349.504C250.708 348.555 244.247 351.936 242.079 353.318C241.667 353.581 241.132 353.527 240.778 353.188C240.424 352.848 240.341 352.309 240.576 351.875C240.733 351.585 244.018 345.575 250.547 337.937C249.782 338.194 249.35 338.143 248.951 337.901C248.549 337.658 248.317 337.217 248.331 336.722C248.337 336.518 248.344 336.241 248.526 335.748C248.461 335.732 248.396 335.712 248.332 335.688C248.296 335.674 248.262 335.66 248.229 335.645C248.196 335.648 248.163 335.651 248.13 335.653C248.096 335.655 248.063 335.656 248.029 335.656C246.568 335.656 245.82 333.908 245.571 333.325C241.567 323.963 254.019 307.481 254.551 306.784C254.729 306.551 254.993 306.402 255.281 306.37C270.976 304.665 284.574 306.727 289.193 307.577C288.792 306.534 288.131 305.685 287.196 305.005C283.081 302.014 275.326 303.493 275.248 303.508C274.719 303.612 274.195 303.298 274.029 302.776C273.863 302.255 274.105 301.689 274.595 301.457L289.823 294.253L280.338 274.692C277.606 269.056 273.992 265.692 269.599 264.693C266.168 263.913 262.728 264.675 259.937 265.786C260.38 267.073 260.847 268.528 261.3 270.108C263.586 278.085 264.346 285.068 263.558 290.864C263.513 291.194 263.321 291.485 263.038 291.653C262.755 291.821 262.411 291.848 262.106 291.725L255.274 288.973L235.406 312.985C235.053 313.412 234.438 313.497 233.985 313.181C233.532 312.865 233.389 312.251 233.654 311.761C238.919 302.054 252.486 275.357 252.036 268.493C252.012 268.138 252.162 267.793 252.436 267.572C252.597 267.441 254.439 265.971 257.233 264.602C256.366 262.26 255.715 260.82 255.693 260.772C255.563 260.488 255.56 260.161 255.685 259.874L258.96 252.346C259.144 251.922 259.575 251.664 260.028 251.704C272.604 252.8 281.74 255.148 287.183 258.683C291.479 261.472 291.881 264.048 291.913 264.333C291.922 264.422 291.922 264.511 291.91 264.6C290.063 278.579 301.448 296.03 301.563 296.205C301.754 296.493 301.797 296.857 301.679 297.183C301.562 297.509 301.298 297.758 300.97 297.853C296.66 299.105 295.132 307.301 294.907 310.353C294.873 310.81 294.56 311.197 294.126 311.319C281.158 314.959 270.666 321.839 262.884 328.557C272.506 323.15 284.731 317.324 292.225 320.112C293.505 320.587 294.608 321.293 295.531 322.224C295.499 321.555 295.476 320.849 295.469 320.131C295.403 313.549 296.724 312.023 297.724 311.448C298.03 311.272 298.423 311.132 298.904 311.132C298.91 311.132 298.916 311.132 298.923 311.132C298.689 310.227 298.467 309.111 298.37 307.885C298.039 303.683 299.333 300.211 302.114 297.845C302.411 297.592 302.819 297.522 303.182 297.664C310.649 300.576 318.914 300.039 326.454 296.151C333.776 292.376 339.434 285.314 341.59 277.261C341.69 276.885 341.981 276.594 342.35 276.495C343.005 272.168 343.832 267.868 344.828 263.62C344.922 263.223 345.01 262.824 345.098 262.425C345.182 262.042 345.267 261.657 345.356 261.273C343.038 258.08 341.874 254.967 341.894 252.007C341.902 250.912 341.953 249.806 342.003 248.738C342.114 246.355 342.22 244.104 341.885 241.871C341.224 237.448 338.683 233.265 335.09 230.682C331.497 228.099 326.77 227.058 322.448 227.899C322.23 227.941 322.005 227.914 321.803 227.82C317.511 225.826 311.797 226.963 308.773 227.818C302.182 229.682 296.942 235.524 295.732 242.355C295.553 243.367 295.445 244.449 295.341 245.496C295.057 248.356 294.763 251.314 293.022 253.757C292.758 254.128 292.293 254.291 291.86 254.163C291.427 254.036 291.119 253.645 291.091 253.188C290.621 245.533 291.11 238.75 292.545 233.03C293.938 227.479 295.804 223.447 298.418 220.341C302.904 215.01 310.409 211.93 318.5 212.102C326.673 212.276 334.364 215.536 339.439 217.973C341.508 218.966 343.667 220.089 345.315 221.906C346.904 223.657 347.834 225.88 348.534 227.825C351.709 236.642 352.589 246.198 351.079 255.46C351.027 255.782 350.834 256.063 350.555 256.225C349.627 256.764 348.989 257.548 348.515 258.487C348.628 258.453 348.743 258.424 348.86 258.401C350.243 258.123 351.739 258.637 352.673 259.709C353.592 260.764 353.971 262.31 353.715 263.953C353.505 265.294 352.925 266.512 352.412 267.586L348.936 274.876C348.419 275.959 347.776 277.308 346.579 278.187C345.87 278.708 344.985 279.066 344.129 279.129C343.465 283.991 343.021 288.883 342.801 293.774C342.742 295.096 342.453 298.401 341.05 300.537C339.923 302.255 338.483 303.67 337.09 305.039L332.732 309.324C333.108 309.875 333.393 310.476 333.606 311.109C335.591 310.987 337.408 310.695 338.732 309.487C340.157 308.187 340.663 306.121 341.2 303.933C341.792 301.519 342.404 299.023 344.324 297.279C344.589 297.038 344.956 296.947 345.301 297.037C345.646 297.127 345.924 297.386 346.042 297.728C347.414 301.681 349.006 307.544 347.001 312.804C346.111 315.14 344.632 317.087 343.202 318.97L333.271 332.044C333.047 332.339 332.692 332.496 332.326 332.462C331.962 332.427 331.64 332.205 331.474 331.874C329.746 328.428 330.527 324.435 331.215 320.912C331.263 320.667 331.311 320.423 331.358 320.18C331.694 318.432 332.216 315.715 331.926 313.36C329.994 313.441 328.174 313.555 326.635 314.309C324.114 315.544 322.703 318.433 321.963 320.64C321.588 321.757 321.283 322.939 320.988 324.083C320.541 325.815 320.079 327.606 319.35 329.312C318.184 332.036 316.43 334.076 314.376 335.158C312.808 347.813 311.813 360.621 311.409 373.337C314.024 374.185 316.805 373.26 318.971 370.779C321.029 368.422 322.145 364.9 322.114 360.86C322.089 357.537 321.351 354.167 320.636 350.908C320.555 350.535 320.473 350.163 320.392 349.79C319.776 346.943 319.424 343.99 321.011 341.681C323.032 338.739 326.747 338.627 330.024 338.528C330.523 338.513 330.994 338.499 331.457 338.475C338.218 338.132 344.709 334.335 348.397 328.565C352.085 322.795 352.862 315.222 350.425 308.803C350.217 308.255 350.474 307.639 351.006 307.411C351.538 307.184 352.152 307.426 352.392 307.96C354.756 313.21 361.064 315.542 366.629 317.6C366.909 317.704 367.188 317.807 367.464 317.91C368.584 318.326 369.745 318.731 370.867 319.124C375.871 320.872 381.046 322.68 385.174 326.25C385.603 326.62 386.015 327.006 386.411 327.404C389.122 327.901 391.704 329.135 393.759 330.998C397.154 334.077 398.922 338.574 400.083 342.147C402.915 350.861 404.211 360.262 403.856 369.452C410.703 365.897 416.273 358.768 418.284 350.83C418.411 350.331 418.53 349.808 418.644 349.302C419.15 347.073 419.673 344.769 421.139 342.874C422.419 341.221 424.177 340.201 425.877 339.215C427.427 338.315 428.892 337.466 429.917 336.202C431.968 333.673 432.144 329.767 430.454 324.258C430.326 323.842 430.195 323.423 430.063 323.002C429.763 322.05 429.462 321.09 429.192 320.126C429.157 321.152 429.23 322.204 429.306 323.297C429.373 324.251 429.441 325.237 429.434 326.226C429.383 333.354 425.112 340.237 418.806 343.354C418.375 343.567 417.856 343.462 417.538 343.096C414.815 339.96 412.91 336.074 411.715 331.218C410.786 327.442 410.31 323.218 410.216 317.922C410.005 305.977 410.583 293.902 411.935 282.035C412.706 275.267 413.771 268.063 416.324 261.236C419.111 253.785 423.394 247.807 428.708 243.951C431.671 241.801 435.083 240.288 438.577 239.575C442.266 238.823 445.971 238.99 449.289 240.06C451.478 240.765 453.502 241.84 455.46 242.88L459.916 245.247C462.211 246.465 464.584 247.726 466.701 249.404C474.731 255.77 477.417 266.549 478.986 276.253C481.918 294.391 482.633 312.875 481.112 331.192C481.07 331.69 480.699 332.095 480.213 332.173C478.025 332.523 475.885 331.371 474.491 329.09C474.193 328.604 473.922 328.102 473.66 327.616C472.996 326.387 472.369 325.226 471.415 324.459C470.774 323.943 469.972 323.599 469.124 323.235C468.232 322.851 467.31 322.455 466.475 321.821C466.389 321.756 466.305 321.688 466.222 321.619C465.978 322.029 465.699 322.408 465.386 322.751C464.293 323.948 462.861 324.66 461.598 325.287L451.287 330.413C447.33 332.38 443.238 334.415 438.858 335.62C433.566 337.076 429.882 342.851 426.688 348.875C424.64 352.739 423.259 357.039 421.923 361.198C421.475 362.594 421.011 364.038 420.527 365.451C417.549 374.144 413.506 382.53 409.596 390.639L409.242 391.373C407.387 395.223 405.283 399.586 404.737 404.097C404.181 408.693 405.193 413.772 407.665 418.784C410.043 423.607 413.491 427.87 416.55 431.405C418.787 433.989 420.416 436.828 421.99 439.573C422.606 440.646 423.233 441.74 423.901 442.824C424.396 432.441 425.08 421.808 427.61 411.549C430.824 398.511 436.92 386.436 442.814 374.759C446.81 366.843 450.522 358.205 454.112 349.85C457.715 341.465 461.441 332.795 465.467 324.819C465.671 324.415 466.1 324.182 466.544 324.237C466.708 324.257 470.623 324.803 475.258 331.34C475.485 331.661 475.523 332.083 475.356 332.44C475.3 332.561 473.956 335.425 472.044 338.587C470.364 341.365 468.795 343.462 467.353 344.861L470.116 345.23C470.449 345.275 470.741 345.476 470.906 345.772C471.072 346.069 471.09 346.428 470.956 346.74C470.792 347.123 454.418 385.231 444.221 399.918C434.225 414.315 428.79 445.207 428.736 445.517C428.725 445.58 428.709 445.642 428.687 445.702L426.551 451.637C426.449 451.921 426.236 452.148 425.963 452.265C425.689 452.382 425.38 452.378 425.11 452.255C424.982 452.196 421.948 450.766 418.402 445.509C416.559 442.777 413.742 441.489 412.227 440.964C409.912 440.162 408.063 440.209 407.543 440.494C406.67 440.972 406.17 441.752 406.222 442.058C406.247 442.207 406.63 442.495 407.548 442.651C409.96 442.721 412.302 443.035 412.735 443.095C413.271 443.17 413.668 443.641 413.658 444.191C413.648 444.741 413.234 445.196 412.696 445.251C412.537 445.267 411.044 445.391 407.355 444.818C405.689 444.772 404.186 444.85 403.477 445.165C402.667 445.526 402.147 446.014 402.007 446.26C402.259 446.464 403.442 447.138 408.033 447.138C410.616 447.138 412.527 447.197 413.715 447.313C414.641 447.404 415.909 447.528 416.032 448.623C416.09 449.146 415.879 449.836 414.539 450.151C414.436 450.175 414.33 450.183 414.225 450.176C414.185 450.173 410.131 449.891 405.865 449.783C397.915 449.58 396.587 450.153 396.401 450.27C395.324 451.052 395.019 451.43 394.942 451.603C395.088 451.769 395.814 452.369 398.966 452.946C403.879 453.845 410.039 458.765 412.459 460.839C417.263 464.954 420.966 469.341 422.126 472.287C424.459 478.217 430.007 484.965 433.766 486.444C436.658 487.582 440.079 486.927 441.612 486.526L439.915 471.93C439.716 471.752 439.446 471.509 439.127 471.214C436.15 470.512 433.108 468.651 431.596 466.935C430.251 465.409 430.382 464.299 430.729 463.638C430.732 463.631 431.118 462.645 428.912 458.27C427.712 455.892 426.371 453.752 426.357 453.731C426.053 453.247 426.172 452.606 426.629 452.268C427.085 451.931 427.722 452.012 428.081 452.455C428.279 452.699 432.932 458.458 433.838 461.679C434.302 463.333 437.507 466.74 440.134 469.208C441.195 469.403 442.182 469.389 442.952 469.076C443.994 468.652 446.83 467.704 450.755 466.392C462.103 462.598 485.716 454.703 489.621 451.05C492.547 448.314 496.593 445.647 499.844 443.503C501.532 442.39 503.26 441.25 504.317 440.416C501.453 438.719 499.787 436.965 499.347 435.176C498.663 432.394 496.89 429.359 495.014 426.145C492.322 421.535 489.538 416.768 489.278 411.735C489.035 407.049 485.544 398.027 482.739 390.777C480.366 384.644 479.024 381.098 479.024 379.541C479.024 377.311 479.976 367.816 482.893 358.554C484.65 352.972 486.841 348.284 489.404 344.62C491.736 341.286 494.383 338.795 497.305 337.177C492.368 336.289 483.536 334.809 479.473 334.809C479.465 334.809 479.46 334.81 479.451 334.809C478.892 334.809 478.427 334.37 478.386 333.803C478.345 333.235 478.743 332.731 479.298 332.649C479.52 332.616 484.825 331.848 491.196 332.318C499.902 332.96 506.076 335.523 509.547 339.935C514.938 346.789 519.962 364.725 524 379.136C525.962 386.142 527.657 392.191 528.918 395.182C530.912 399.913 534.11 411.523 536.695 423.414C538.488 431.666 541.4 446.601 540.747 453.902C540.289 459.024 538.474 463.33 535.198 467.066C532.454 470.195 529.247 472.274 526.671 473.945C526.272 474.203 525.89 474.451 525.529 474.69C522.111 476.957 512.593 482.114 502.523 486.592H554.848C555.438 486.592 555.916 487.078 555.916 487.678C555.916 488.278 555.438 488.764 554.848 488.764H497.453C493.193 490.515 488.997 492.039 485.285 493.068C471.25 496.96 450.05 498.517 449.837 498.532C449.811 498.535 449.786 498.536 449.761 498.536ZM448.171 492.01L450.382 496.313C454.146 496.01 472.315 494.414 484.722 490.974C486.838 490.387 489.118 489.633 491.48 488.764H488.297L453.358 494.829C453.109 494.872 452.853 494.824 452.635 494.693L448.171 492.01ZM111.481 462.771C115.377 462.771 116.945 464.086 118.464 465.359C119.076 465.872 119.709 466.403 120.527 466.87C122.388 467.934 126.154 467.479 127.607 466.363C127.678 466.309 128.026 466.03 127.984 465.85C127.926 465.608 127.451 464.95 126.179 463.849C125.93 463.697 125.681 463.545 125.436 463.395C117.886 458.775 117.641 458.536 117.458 457.885C117.347 457.491 117.453 457.068 117.733 456.782C117.909 456.603 118.297 456.329 118.925 456.509C119.854 456.774 122.656 458.523 124.719 459.991C125.845 460.792 126.73 461.483 127.426 462.078C130.87 464.187 133.986 466.112 135.019 466.979C135.491 467.376 137.636 467.633 140.925 466.962C142.148 466.713 143.152 466.414 143.936 466.118C139.344 462.055 133.778 458.03 133.721 457.989C133.273 457.666 133.139 457.05 133.411 456.565C133.684 456.081 134.273 455.885 134.775 456.112C134.806 456.127 137.986 457.573 141.142 459.273C147.159 462.513 148.054 463.912 148.126 464.941C148.158 465.403 148.018 465.843 147.71 466.258C149.826 467.469 151.822 467.658 152.902 467.101C153.585 466.748 153.623 466.24 153.591 465.888C153.574 465.694 153.301 464.531 149.621 460.666C147.394 458.326 144.869 455.981 143.361 454.579C142.987 454.232 142.686 453.952 142.48 453.756C142.365 453.647 142.277 453.562 142.219 453.502C141.481 452.747 142.014 452.038 142.078 451.959C142.23 451.771 142.799 451.207 143.706 451.886C144.56 452.526 146.447 454.4 148.631 456.571C151.26 459.182 154.239 462.142 155.547 463.063C156.141 463.481 156.57 463.541 156.717 463.42C157.007 463.183 157.292 461.923 156.326 459.545C155.563 457.668 150.468 452.707 144.099 448.315C136.612 443.151 129.79 440.347 125.386 440.622C115.084 441.266 101.003 436.897 98.9507 436.238C92.4998 437.155 87.8312 441.491 85.0716 449.13C83.9793 452.154 83.4138 455.124 83.122 457.308C84.025 457.412 85.0881 457.506 86.3381 457.582C90.2597 457.821 94.0306 457.756 94.068 457.755C94.0744 457.755 94.081 457.755 94.0874 457.755C94.6386 457.755 95.1007 458.182 95.1507 458.742C95.5366 463.058 106.884 462.852 111.156 462.774C111.266 462.772 111.375 462.771 111.481 462.771ZM432.637 464.613C432.675 464.902 433.263 465.821 434.892 466.943C434.094 466.042 433.349 465.12 432.779 464.258C432.738 464.39 432.69 464.507 432.637 464.613ZM145.004 464.186C145.23 464.384 145.455 464.583 145.677 464.782C145.71 464.811 145.742 464.84 145.775 464.869C145.626 464.708 145.387 464.485 145.004 464.186ZM212.634 457.964C213.141 459.673 214.112 461.09 214.774 461.202C216.153 461.406 245.088 462.464 274.307 463.377C307.67 464.42 330.048 464.934 333.99 464.758C334.05 464.111 334.007 462.923 333.878 461.673C327.31 461.944 297.992 461.172 271.362 460.309C251.191 459.657 222.085 458.592 212.634 457.964ZM334.524 464.714H334.524H334.524ZM346.573 456.498L342.91 463.192C345.232 462.622 347.468 461.684 349.539 460.447C349.993 459.591 350.654 458.845 351.325 458.294C351.855 457.86 352.415 457.485 352.957 457.123C353.826 456.541 354.648 455.992 355.243 455.268C356.071 454.26 356.466 452.914 356.884 451.49C357.017 451.039 357.154 450.574 357.306 450.116C358.233 447.329 359.825 445.543 361.791 445.084C362.096 445.014 362.413 445.082 362.661 445.267C361.087 441.972 358.401 439.204 355.174 437.583C354.65 437.321 354.432 436.68 354.682 436.144C354.911 435.654 355.171 435.205 355.456 434.789C355.16 434.712 354.867 434.638 354.577 434.566C351.21 433.729 346.836 435.303 343.838 436.56C340.438 437.985 337.995 440.852 337.612 443.863C337.518 444.601 337.697 445.445 338.037 445.869C338.212 446.087 338.369 446.125 338.487 446.134C339.063 446.178 339.706 445.326 340.138 444.682L344.015 438.905C344.348 438.41 345.012 438.282 345.499 438.62C345.986 438.958 346.112 439.633 345.78 440.129C345.78 440.129 345.78 440.129 345.78 440.129L345.774 440.138C342.003 445.766 337.314 452.768 337.193 460.359C337.183 461.003 337.207 461.669 337.454 462.18C337.634 462.551 337.986 462.829 338.259 462.81C338.648 462.784 339.094 462.275 339.481 461.8L344.802 455.267L352.21 441.725C352.445 441.296 352.933 441.08 353.402 441.199C353.871 441.318 354.203 441.742 354.211 442.233C354.289 446.65 351.632 450.286 348.665 453.928L346.573 456.498ZM351.086 462.699C353.06 462.988 355.078 463.231 357.02 462.982C359.308 462.69 361.233 461.672 362.3 460.189C362.722 459.604 363.071 458.88 363.399 457.909C364.666 454.165 364.553 449.923 363.092 446.253C363.086 446.319 363.073 446.384 363.054 446.449C361.634 451.361 358.766 455.812 354.761 459.323C353.632 460.312 352.443 461.2 351.206 461.981C351.127 462.222 351.084 462.464 351.086 462.699ZM212.307 455.776C219.523 456.271 243.418 457.233 271.598 458.144C306.825 459.284 332.17 459.806 334.664 459.443C334.807 459.423 334.951 459.432 335.088 459.468C335.117 458.949 335.164 458.432 335.229 457.92C335.169 457.928 335.108 457.931 335.047 457.929C287.867 456.229 216.692 453.955 212.641 454.606C212.465 454.743 212.324 455.156 212.307 455.776ZM78.08 456.01C78.1434 456.087 78.619 456.562 81.0027 456.999C81.3101 454.701 81.9075 451.59 83.0663 448.382C86.1123 439.95 91.5918 434.995 98.9126 434.053C99.0684 434.033 99.2263 434.048 99.3754 434.097C99.5281 434.147 114.763 439.111 125.254 438.455C131.918 438.038 140.672 443.328 145.298 446.518C147.24 447.857 149.11 449.276 150.8 450.674L145.463 445.435C145.26 445.236 145.144 444.964 145.137 444.68L144.548 445.019C144.2 445.22 143.772 445.206 143.437 444.983L138.501 441.702C138.047 441.4 137.889 440.802 138.128 440.312C137.889 440.485 137.7 440.599 137.561 440.652C137.109 440.824 136.168 441.183 132.265 437.325C132.049 437.111 131.931 436.815 131.942 436.508C131.969 435.715 132.098 434.993 132.312 434.333C131.07 435.608 129.677 437.164 129.477 437.57C129.087 438.363 128.13 438.311 127.362 438.268C126.716 438.233 125.8 438.137 124.64 437.983C122.717 437.729 120.072 437.31 116.779 436.739C111.185 435.77 105.571 434.68 105.515 434.669C105.236 434.615 104.989 434.449 104.83 434.209C104.671 433.969 104.613 433.675 104.668 433.391C104.865 432.385 124.334 332.702 125.601 326.12C126.31 322.435 125.932 320.978 125.687 320.47L125.22 320.04C124.862 319.711 124.766 319.178 124.986 318.74C125.206 318.303 125.688 318.07 126.16 318.174C126.442 318.235 126.96 318.439 127.396 319.113L129.332 320.894L138.105 320.767L139.869 315.004C139.989 314.61 140.319 314.319 140.72 314.254C141.121 314.189 141.523 314.36 141.759 314.696L148.815 324.765C151.667 317.652 150.832 307.405 150.156 302.307C147.997 305.661 144.441 309.242 139.469 313.815C137.623 315.514 134.678 315.945 130.716 315.098C130.153 314.978 129.573 314.83 128.98 314.659L116.006 326.92C115.798 327.116 115.523 327.221 115.238 327.209C114.955 327.198 114.687 327.073 114.494 326.861C109.724 321.607 106.337 316.33 104.428 311.178C102.881 307.004 102.294 302.9 102.683 298.981C103.061 295.165 104.286 292.285 105.302 290.477C100.017 291.394 86.9062 293.83 73.0537 297.641C65.0494 299.843 59.677 303.706 56.4278 309.666C56.4799 309.741 56.5318 309.818 56.583 309.898C57.7172 311.672 59.6617 312.612 61.9131 313.699C64.6298 315.011 67.7089 316.499 70.0475 319.85C73.6362 324.993 72.8735 338.13 72.4636 345.187C72.385 346.541 72.3228 347.61 72.3228 348.189C72.3228 348.98 72.249 350.294 72.1471 352.113C71.7931 358.419 71.1341 370.157 72.4571 380.917C73.5714 389.979 69.9917 396.909 67.3778 401.969C65.9322 404.768 64.6838 407.185 64.7743 408.935C64.8899 411.168 65.9195 411.567 67.4781 412.17C68.9811 412.753 70.8518 413.477 71.4424 416.136C71.5661 416.694 72.6839 418.984 81.8709 425.063C86.9141 428.4 91.8983 431.227 91.948 431.255C92.3347 431.474 92.5485 431.913 92.4854 432.358C92.4223 432.804 92.0955 433.164 91.6636 433.263C86.6164 434.421 83.3866 438.829 81.5657 442.323C78.3372 448.52 77.7082 454.936 78.08 456.01ZM162.536 456.397C166.553 457.146 172.73 457.606 174.438 454.754C175.274 453.357 175.729 452.06 176.168 450.806C176.783 449.052 177.378 447.354 178.937 445.934C179.649 442.32 180.181 436.383 177.309 432.277C175.106 429.127 171.196 427.53 165.687 427.53C165.654 427.53 165.622 427.528 165.589 427.525C162.41 427.229 153.521 426.733 150.61 427.991C149.544 428.452 147.944 428.752 146.092 429.1C141.25 430.009 134.674 431.244 134.112 436.116C135.237 437.191 136.429 438.172 136.987 438.485C137.742 437.905 139.683 436.044 141.273 434.427C141.648 434.047 142.24 434.003 142.665 434.323C143.09 434.644 143.22 435.232 142.97 435.707L140.488 440.428L144.062 442.804L159.255 434.057C159.751 433.772 160.38 433.933 160.684 434.423C160.988 434.913 160.86 435.56 160.393 435.892L147.88 444.788L151.906 448.74L162.43 443.299C162.925 443.044 163.532 443.217 163.823 443.698C164.115 444.179 163.994 444.808 163.546 445.142L155.192 451.382L158.06 454.63L167.886 450.13C168.392 449.899 168.988 450.099 169.258 450.592C169.528 451.084 169.382 451.705 168.922 452.02L162.536 456.397ZM359.475 433.698C361.979 434.522 364.524 435.61 366.803 437.168C370.812 439.908 373.442 443.827 374.019 447.92C374.441 450.92 373.631 453.954 371.993 456.232C380.017 454.045 387.658 450.697 394.761 446.25C397.553 444.502 401.312 441.74 401.714 437.945C401.979 435.44 400.792 433.058 399.535 430.537C399.056 429.575 398.56 428.581 398.148 427.572C394.226 417.99 396.069 407.324 397.852 397.008C398.671 392.264 399.519 387.359 399.768 382.692C400.55 368.046 397.808 353.248 391.837 339.895C390.374 336.624 388.362 332.623 385.378 329.435C383.976 329.252 382.546 329.299 381.163 329.596C377.549 330.373 373.734 333.171 371.207 336.9C366.305 344.13 364.111 353.274 365.185 361.987C365.374 363.521 365.667 365.086 365.95 366.599C366.423 369.132 366.913 371.751 366.965 374.414C367.063 379.47 365.589 384.334 364.164 389.038C363.645 390.753 363.108 392.525 362.661 394.266C361.211 399.923 359.018 408.471 363.523 412.669C365.746 414.741 367.137 417.683 367.339 420.741C367.542 423.8 366.552 426.905 364.623 429.26C363.466 430.673 362.115 431.689 360.809 432.671C360.353 433.014 359.905 433.351 359.475 433.698ZM78.0729 456L78.0731 456L78.0729 456ZM151.219 451.022C152.889 452.424 154.369 453.796 155.549 455.037L152.816 451.942C152.614 451.714 152.517 451.41 152.548 451.105C152.559 451.001 152.584 450.901 152.622 450.806L152.196 451.026C151.883 451.188 151.519 451.181 151.219 451.022ZM336.153 446.921V453.661C336.717 451.809 337.466 450.019 338.318 448.299C337.557 448.239 336.888 447.873 336.381 447.241C336.299 447.138 336.223 447.031 336.153 446.921ZM408.757 438.146C412.053 438.146 417.291 440.024 420.162 444.281C422.157 447.239 423.943 448.845 424.997 449.632L426.648 445.045C426.814 444.113 428.18 436.588 430.641 427.558C434.17 414.613 438.152 404.893 442.475 398.666C451.476 385.702 465.44 354.051 468.425 347.195L464.426 346.66C463.952 346.596 463.578 346.222 463.508 345.742C463.439 345.262 463.69 344.793 464.125 344.594C467.262 343.154 471.457 335.568 473.148 332.091C470.396 328.378 468.071 327.062 466.964 326.612C463.121 334.307 459.538 342.647 456.068 350.72C452.465 359.105 448.74 367.775 444.714 375.751C438.874 387.319 432.836 399.282 429.681 412.078C426.936 423.208 426.4 434.898 425.882 446.203C425.861 446.663 425.556 447.059 425.123 447.192C424.689 447.325 424.22 447.165 423.953 446.793C422.5 444.774 421.303 442.687 420.144 440.667C418.551 437.89 417.046 435.266 414.945 432.84C411.796 429.201 408.242 424.802 405.755 419.758C403.094 414.362 402.008 408.855 402.616 403.832C403.207 398.959 405.394 394.422 407.324 390.418L407.677 389.685C411.559 381.633 415.573 373.306 418.509 364.738C418.986 363.345 419.446 361.911 419.892 360.524C421.257 356.275 422.668 351.881 424.807 347.846C428.227 341.395 432.228 335.195 438.299 333.524C442.482 332.374 446.481 330.386 450.348 328.463L460.659 323.337C461.808 322.766 462.996 322.175 463.82 321.274C464.183 320.876 464.483 320.403 464.715 319.873C464.021 318.769 463.548 317.434 463.337 315.948C463.035 313.813 463.282 311.712 463.52 309.68C463.579 309.185 463.961 308.794 464.447 308.731C464.932 308.669 465.399 308.951 465.577 309.415C466.36 311.465 467.171 313.585 467.378 315.896C467.491 317.159 467.393 318.378 467.103 319.486C467.296 319.699 467.512 319.899 467.752 320.082C468.38 320.559 469.144 320.887 469.954 321.235C470.896 321.64 471.87 322.058 472.738 322.756C474.032 323.796 474.794 325.207 475.531 326.571C475.791 327.053 476.037 327.508 476.303 327.944C476.68 328.561 477.628 329.847 479.06 330.04C480.463 312.22 479.729 294.247 476.877 276.606C475.375 267.316 472.835 257.022 465.386 251.117C463.422 249.559 461.137 248.346 458.926 247.172L454.469 244.805C452.593 243.809 450.653 242.778 448.643 242.13C442.77 240.238 435.607 241.613 429.948 245.719C424.978 249.326 420.957 254.959 418.32 262.008C415.85 268.613 414.81 275.657 414.055 282.285C412.714 294.057 412.141 306.034 412.351 317.884C412.471 324.657 413.26 334.319 418.603 341.015C423.791 338.097 427.253 332.253 427.297 326.211C427.304 325.306 427.241 324.404 427.174 323.45C427.059 321.786 426.939 320.066 427.216 318.334C427.379 317.322 427.729 316.265 428.258 315.31C428.154 313.967 428.214 312.621 428.526 311.28C425.051 309.235 422.465 305.434 421.838 301.358C421.813 301.196 421.79 301.032 421.767 300.867C421.634 299.912 421.508 299.01 421 298.571C420.785 298.385 420.448 298.24 420.092 298.087C419.475 297.822 418.708 297.491 418.191 296.751C417.496 295.756 417.51 294.324 418.229 292.922C418.393 292.603 418.573 292.307 418.747 292.021C419.042 291.538 419.32 291.081 419.442 290.627C419.664 289.801 419.417 288.843 419.155 287.828C419.001 287.227 418.841 286.606 418.76 285.958C418.55 284.278 418.901 282.673 419.24 281.122C419.274 280.968 419.308 280.813 419.341 280.66C420.089 277.175 420.511 273.604 420.593 270.045C420.648 267.649 421.482 264.835 422.217 262.352C422.527 261.308 422.819 260.322 423.04 259.424C424.124 255.014 428.024 251.324 433.74 249.3C434.383 249.072 435.043 248.822 435.681 248.581C438.158 247.644 440.718 246.675 443.435 246.501C447.073 246.267 450.833 246.914 454.31 248.372C457.787 249.83 460.903 252.067 463.32 254.841C465.737 257.614 467.547 261.027 468.552 264.712C469.466 268.063 469.698 271.569 469.231 274.917C470.163 275.406 470.935 276.513 471.535 278.227C472.024 279.622 471.944 281.073 471.811 282.561L471.804 282.631C471.694 283.853 471.59 285.007 471.893 286.03C472.085 286.678 472.452 287.303 472.84 287.965C473.291 288.733 473.757 289.526 474.02 290.464C474.479 292.097 474.202 293.918 473.279 295.333C472.177 297.024 470.39 297.918 468.829 298.604C467.265 306.142 461.795 312.929 454.755 316.003C451.216 317.549 447.243 318.18 443.264 317.83C439.426 317.493 435.747 316.256 432.598 314.249C431.724 314.44 431.005 315.029 430.461 315.801C430.721 317.96 431.415 320.172 432.097 322.342C432.23 322.767 432.363 323.191 432.492 323.611C434.414 329.875 434.11 334.445 431.564 337.584C430.29 339.155 428.584 340.144 426.935 341.101C425.343 342.025 423.84 342.897 422.818 344.218C421.646 345.731 421.199 347.703 420.725 349.79C420.608 350.31 420.486 350.846 420.352 351.373C419.219 355.845 417.041 360.142 414.054 363.797C410.994 367.543 407.21 370.447 403.112 372.197C402.772 372.343 402.381 372.299 402.079 372.081C401.99 372.017 401.913 371.94 401.849 371.854C402.077 375.499 402.096 379.16 401.901 382.81C401.645 387.607 400.786 392.577 399.956 397.384C398.226 407.392 396.438 417.742 400.12 426.738C400.502 427.672 400.979 428.63 401.441 429.556C402.783 432.249 404.171 435.033 403.838 438.178C403.335 442.921 399.056 446.112 395.881 448.1C395.834 448.129 395.786 448.159 395.738 448.189C396.349 447.957 397.569 447.704 400.309 447.609C400.089 447.343 399.947 447.044 399.879 446.711C399.557 445.145 401.154 443.829 402.62 443.177C403.039 442.99 403.583 442.861 404.201 442.776C404.163 442.657 404.135 442.54 404.116 442.428C403.847 440.841 405.178 439.322 406.529 438.583C407.053 438.295 407.828 438.146 408.757 438.146ZM180.886 447.115C180.831 447.362 180.776 447.595 180.722 447.814C182.614 447.19 185.214 446.299 187.673 445.365C193.994 442.967 194.939 441.977 195.054 441.825L195.072 441.783C195.772 440.182 197.632 435.929 196.935 433.981C196.061 431.537 198.253 428.187 200.186 425.231C200.595 424.605 200.982 424.015 201.301 423.487C202.737 421.114 201.992 412.327 199.95 407.552C197.645 402.162 196.669 391.261 197.086 384.253C197.269 381.186 196.623 377.33 195.94 373.247C195.051 367.939 194.131 362.451 194.743 357.475C195.758 349.225 190.39 322.993 187.128 315.02C184.256 308.001 169.343 309.171 169.192 309.184C168.865 309.211 168.543 309.084 168.32 308.839C167.418 307.847 166.49 306.98 165.539 306.239C172.215 317.721 183.026 327.693 183.184 327.838C183.395 328.031 183.522 328.301 183.537 328.589C183.551 328.877 183.453 329.159 183.263 329.373C173.056 340.871 167.63 375.372 167.576 375.719C167.531 376.013 167.369 376.276 167.127 376.445C166.886 376.614 166.587 376.674 166.3 376.613C166.239 376.6 160.042 375.329 156.64 378.494C154.757 380.245 154.03 383.109 154.481 387.005C155.003 391.518 154.804 394.657 153.852 396.881C152.937 399.022 151.454 400.135 149.884 401.314C148.219 402.563 146.332 403.979 144.674 407.053C141.197 413.498 147.341 419.649 149.95 421.859L162.607 388.427C162.877 385.852 163.84 383.307 165.501 380.868C165.809 380.416 166.4 380.269 166.878 380.526C167.356 380.783 167.57 381.363 167.376 381.876L164.694 388.959C164.428 392.258 165.507 395.6 167.928 398.858C168.002 398.957 168.061 399.037 168.102 399.096C169.052 400.448 170.32 406.392 168.365 411.283C167.016 414.66 167.118 419.971 167.232 422.194C173.017 422.041 177.538 423.697 180.686 427.12C186.692 433.65 185.437 444.156 185.38 444.6C185.325 445.037 185.014 445.398 184.594 445.511C182.91 445.963 181.739 446.492 180.886 447.115ZM510.742 441.078C513.994 442.359 517.826 443.515 521.671 444.36C524.667 445.019 526.836 445.302 528.265 445.387C526.393 444.646 523.191 443.64 518.721 442.595C515.399 441.818 512.719 441.338 510.742 441.078ZM165.735 425.359C171.954 425.369 176.435 427.275 179.054 431.025C181.884 435.076 181.916 440.403 181.38 444.354C181.953 444.089 182.596 443.844 183.323 443.62C183.479 441.256 183.61 433.471 179.119 428.595C176.237 425.467 171.925 424.058 166.302 424.408C165.727 424.444 165.226 424.008 165.173 423.424C165.143 423.095 164.459 415.288 166.386 410.466C168.097 406.183 166.859 401.062 166.364 400.358C166.331 400.311 166.283 400.247 166.224 400.167C164.614 398 163.528 395.764 162.97 393.512L151.427 424.004C151.309 424.315 151.058 424.553 150.745 424.652C150.432 424.75 150.092 424.697 149.823 424.507C149.699 424.42 146.765 422.339 144.408 419.082C141.163 414.597 140.607 410.076 142.801 406.009C144.685 402.516 146.864 400.88 148.615 399.566C151.479 397.417 153.371 395.997 152.36 387.259C151.824 382.624 152.781 379.133 155.206 376.884C158.482 373.845 163.447 374.043 165.642 374.312C166.091 371.656 167.396 364.388 169.512 356.271C172.915 343.216 176.774 333.96 180.991 328.73C179.198 327.01 174.533 322.373 169.946 316.489C166.523 312.1 163.845 307.955 161.92 304.077C160.754 303.581 159.561 303.257 158.345 303.108C157.132 302.959 156.101 303.018 155.336 303.126C157.675 307.205 158.259 315.04 158.39 319.71C158.606 327.412 157.868 335.048 156.595 338.279C156.392 338.793 155.775 340.359 154.441 340.396C153.091 340.427 152.357 338.833 152.117 338.308C148.983 331.459 142.555 329.182 139.921 328.518C139.16 349.77 133.245 427.531 132.815 433.161C135.092 428.958 141.313 427.789 145.704 426.964C147.432 426.64 148.925 426.36 149.775 425.992C153.685 424.303 164.785 425.272 165.735 425.359ZM321.825 377.8C327.995 377.8 331.924 378.921 334.16 381.31C336.812 384.143 336.568 388.141 336.31 392.375C336.233 393.647 336.153 394.963 336.153 396.262V441.122C337.313 438.315 339.782 435.912 343.024 434.552C346.575 433.064 351.156 431.48 355.085 432.456C355.72 432.614 356.371 432.782 357.033 432.965C357.827 432.212 358.69 431.563 359.539 430.925C360.799 429.978 361.989 429.083 362.982 427.871C364.563 425.94 365.375 423.395 365.208 420.888C365.042 418.381 363.902 415.969 362.08 414.27C356.627 409.188 359.015 399.879 360.595 393.719C361.053 391.932 361.597 390.136 362.123 388.399C363.562 383.65 364.92 379.164 364.829 374.457C364.781 371.977 364.33 369.562 363.851 367.005C363.562 365.458 363.263 363.859 363.066 362.257C361.927 353.023 364.253 343.331 369.448 335.668C372.316 331.436 376.53 328.372 380.721 327.472C381.44 327.317 382.17 327.221 382.903 327.18C379.216 324.338 374.624 322.733 370.172 321.177C369.04 320.782 367.87 320.373 366.73 319.949C366.455 319.847 366.177 319.744 365.898 319.641C361.677 318.08 357.058 316.372 353.75 313.349C354.492 319.012 353.256 324.947 350.187 329.748C346.132 336.092 338.996 340.267 331.563 340.644C331.078 340.669 330.574 340.684 330.087 340.699C327.177 340.786 324.168 340.877 322.761 342.924C321.59 344.628 322.001 347.121 322.478 349.324C322.558 349.694 322.639 350.065 322.721 350.436C323.459 353.805 324.223 357.29 324.25 360.844C324.285 365.421 322.977 369.462 320.568 372.221C317.572 375.653 313.58 376.718 309.888 375.071C309.49 374.893 309.237 374.487 309.25 374.044C309.629 361.344 310.596 348.549 312.132 335.898C311.96 335.889 311.791 335.838 311.64 335.747C309.541 334.481 308.485 331.743 309.011 328.935C309.103 328.444 309.214 327.951 309.322 327.475C309.69 325.846 310.037 324.308 309.638 322.92C309.26 321.606 308.234 320.523 307.148 319.377C305.865 318.022 304.538 316.622 304.089 314.654C304.002 314.274 304.122 313.876 304.403 313.612C304.685 313.347 305.084 313.256 305.45 313.373C307.438 314.01 309.147 314.774 310.829 315.775C312.289 316.645 314.22 318.186 315.128 320.586C316.037 322.988 315.67 325.576 315.345 327.86C315.136 329.335 314.934 330.814 314.74 332.295C316.152 331.037 317.008 329.341 317.391 328.446C318.055 326.893 318.476 325.261 318.921 323.532C319.226 322.351 319.541 321.13 319.94 319.939C321.191 316.212 323.185 313.589 325.707 312.353C327.478 311.486 329.424 311.304 331.345 311.213C331.133 310.763 330.863 310.354 330.521 310.003C330.321 309.797 330.21 309.517 330.214 309.228C330.217 308.938 330.334 308.661 330.539 308.459L335.605 303.479C336.917 302.19 338.273 300.856 339.273 299.332C340.176 297.958 340.585 295.509 340.667 293.676C340.816 290.355 341.067 287.033 341.419 283.721C338.383 289.837 333.423 294.993 327.419 298.088C319.54 302.151 310.906 302.796 303.032 299.924C298.246 304.622 301.603 312.488 301.638 312.569C301.838 313.025 301.706 313.56 301.319 313.867C300.932 314.173 300.389 314.172 300.003 313.864C299.449 313.422 298.979 313.221 298.776 313.338C298.649 313.41 297.545 314.217 297.604 320.109C297.637 323.361 298.016 326.452 298.02 326.483C298.088 327.032 297.738 327.546 297.209 327.674C296.679 327.803 296.138 327.506 295.955 326.984C295.089 324.527 293.629 322.946 291.491 322.151C287.935 320.828 282.459 321.715 275.214 324.784C268.898 327.46 262.398 331.29 257.652 334.088C257.1 334.413 256.587 334.715 256.108 334.995C255.865 335.248 255.627 335.5 255.393 335.749C250.234 341.251 246.597 346.347 244.518 349.535C247.498 348.119 251.763 346.583 255.022 347.395C256.631 347.795 257.857 348.71 258.666 350.112C262.373 356.541 264.076 373.922 264.147 374.659C264.174 374.946 264.088 375.234 263.907 375.457C263.725 375.679 263.464 375.819 263.181 375.846L253.603 376.731C275.308 377.229 309.614 377.947 321.167 377.804C321.389 377.802 321.609 377.8 321.825 377.8ZM53.0954 309.879C53.029 309.879 52.974 309.883 52.9327 309.887C51.1859 310.034 48.9253 312.668 47.9102 315.037C47.6964 315.535 47.3687 316.246 46.9539 317.147C44.5625 322.339 38.9617 334.498 39.6616 340.546C40.57 348.396 40.4059 353.129 37.0359 362.122C33.453 371.684 29.1424 396.986 31.2842 403.518C32.6221 407.598 32.3182 413.172 32.0503 418.09C31.8561 421.653 31.6717 425.036 32.1687 427.028C33.3059 426.289 36.1314 423.422 40.0546 417.2C50.3377 400.892 59.4343 375.598 54.1269 353.514C49.43 333.97 49.2433 319.759 53.8209 310.079C53.5238 309.911 53.2698 309.879 53.0954 309.879ZM389.008 330.458C391.089 333.29 392.607 336.369 393.782 338.997C398.133 348.727 400.809 359.207 401.702 369.846C402.111 360.762 400.856 351.449 398.055 342.828C396.91 339.306 395.336 335.339 392.337 332.619C391.349 331.724 390.22 330.998 389.008 330.458ZM253.035 332.597C252.117 333.807 251.526 334.681 251.145 335.308C252.119 334.807 253.428 334.057 254.783 333.266C259.646 328.212 264.89 323.778 270.386 320.073C277.496 315.28 285.051 311.701 292.85 309.428C293.141 306.886 294.415 298.864 299.09 296.302C298.047 294.59 296.005 291.038 294.063 286.524C290.444 278.107 288.999 270.702 289.767 264.508C289.479 263.568 286.424 256.32 260.603 253.936L257.83 260.31C258.095 260.919 258.595 262.108 259.2 263.732C262.293 262.51 266.137 261.682 270.065 262.575C275.12 263.724 279.221 267.478 282.254 273.732L292.222 294.29C292.349 294.552 292.367 294.855 292.271 295.13C292.176 295.406 291.975 295.631 291.714 295.754L280.672 300.978C283.262 301.085 286.219 301.627 288.438 303.239C290.274 304.573 291.369 306.451 291.694 308.82C291.743 309.173 291.618 309.527 291.36 309.769C291.103 310.01 290.745 310.107 290.403 310.03C290.247 309.995 274.697 306.529 255.967 308.481C255.152 309.597 252.643 313.139 250.482 317.37C247.328 323.544 246.238 328.532 247.307 331.861C248.024 326.865 251.663 320.16 254.566 315.447C255.863 312.181 257.16 310.061 258.776 309.398C259.218 309.217 259.726 309.355 260.019 309.737C260.312 310.12 260.32 310.653 260.039 311.045C259.998 311.101 258.4 313.339 256.45 316.497C255.508 318.894 254.624 321.766 253.766 324.551C253.005 327.022 252.358 329.088 251.748 330.742C252.56 329.692 253.566 328.451 254.813 326.981C255.204 326.478 255.602 325.964 256.005 325.443C260.083 320.173 264.299 314.724 267.141 313.592C267.609 313.405 268.143 313.577 268.421 314.005C268.699 314.432 268.645 314.998 268.292 315.364C268.247 315.41 263.763 320.058 259.319 325.073C258.224 326.308 257.264 327.416 256.423 328.409C255.084 330.123 253.975 331.509 253.035 332.597ZM307.379 316.419C307.773 316.906 308.224 317.383 308.686 317.87C309.904 319.155 311.162 320.484 311.688 322.31C312.244 324.242 311.817 326.133 311.404 327.961C311.296 328.439 311.194 328.89 311.109 329.341C310.834 330.809 311.14 332.64 312.391 333.643C312.398 333.641 312.406 333.639 312.413 333.637C312.671 331.603 312.944 329.574 313.231 327.55C313.532 325.43 313.843 323.239 313.134 321.365C312.448 319.552 310.914 318.343 309.748 317.648C308.976 317.189 308.196 316.783 307.379 316.419ZM334.062 313.255C334.354 315.911 333.811 318.734 333.453 320.597C333.406 320.842 333.358 321.088 333.31 321.336C332.789 324.001 332.254 326.738 332.772 329.147L341.511 317.643C342.848 315.883 344.23 314.063 345.009 312.02C346.475 308.173 345.678 303.789 344.64 300.335C343.994 301.513 343.64 302.957 343.272 304.458C342.681 306.868 342.07 309.359 340.158 311.104C338.421 312.689 336.263 313.097 334.062 313.255ZM108.322 289.795C107.882 290.343 105.312 293.757 104.795 299.336C104.068 307.19 107.712 315.901 115.344 324.581L126.657 313.89C119.242 311.147 110.855 305.444 109.156 301.582C108.023 299.009 108.354 295.615 109.106 292.567C108.758 291.638 108.497 290.713 108.322 289.795ZM432.836 312.029C433.042 312.029 433.245 312.09 433.419 312.205C439.355 316.145 447.399 316.853 453.912 314.008C460.493 311.134 465.567 304.708 466.84 297.635C466.904 297.276 467.142 296.974 467.473 296.831C468.878 296.225 470.626 295.471 471.498 294.133C472.081 293.24 472.256 292.091 471.966 291.06C471.78 290.396 471.404 289.755 471.006 289.077C470.568 288.332 470.115 287.561 469.847 286.656C469.425 285.229 469.559 283.744 469.677 282.433L469.683 282.363C469.799 281.079 469.866 279.936 469.523 278.956C468.965 277.363 468.383 276.8 468.051 276.8C468.049 276.8 468.047 276.8 468.044 276.8C467.728 276.808 467.415 276.667 467.207 276.417C466.999 276.168 466.912 275.837 466.971 275.516C468.202 268.779 466.191 261.409 461.721 256.28C457.251 251.152 450.296 248.236 443.57 248.667C441.168 248.822 438.757 249.734 436.426 250.616C435.777 250.861 435.106 251.115 434.443 251.35C429.419 253.129 426.018 256.264 425.112 259.95C424.879 260.898 424.579 261.909 424.263 262.978C423.566 265.329 422.777 267.993 422.728 270.096C422.643 273.793 422.205 277.503 421.427 281.123C421.394 281.279 421.359 281.436 421.325 281.593C421.012 283.026 420.716 284.379 420.879 285.683C420.942 286.192 421.078 286.719 421.222 287.277C421.528 288.466 421.875 289.813 421.502 291.199C421.298 291.957 420.908 292.598 420.563 293.164C420.402 293.428 420.25 293.678 420.123 293.926C419.852 294.454 419.688 295.144 419.932 295.493C420.099 295.732 420.481 295.896 420.925 296.087C421.391 296.288 421.919 296.515 422.384 296.917C423.509 297.89 423.716 299.371 423.882 300.561C423.904 300.717 423.925 300.871 423.948 301.022C424.508 304.664 427.041 308.173 430.251 309.754C430.731 309.991 430.966 310.551 430.801 311.067C430.613 311.657 430.49 312.259 430.422 312.868C431.096 312.418 431.869 312.117 432.735 312.033C432.769 312.03 432.802 312.029 432.836 312.029ZM110.653 295.798C110.434 297.589 110.501 299.322 111.106 300.696C112.409 303.657 120.72 309.694 128.42 312.224L128.634 312.022C126.673 310.889 122.818 308.503 118.945 305.219C115.742 302.503 113.203 299.736 111.396 296.996C111.133 296.596 110.885 296.197 110.653 295.798ZM254.179 268.959C254.097 273.025 251.019 281.469 245.02 294.084C243.376 297.539 241.717 300.875 240.255 303.751L254.134 286.977C254.43 286.619 254.918 286.494 255.345 286.666L261.595 289.184C262.286 281.247 259.909 272.357 257.967 266.67C256.171 267.567 254.82 268.491 254.179 268.959ZM112.836 284.418C112.867 284.418 112.899 284.42 112.931 284.422C113.363 284.461 113.73 284.763 113.857 285.185C114.83 288.398 122.989 296.327 129.69 299.734C135.751 302.815 144.82 297.009 146.348 295.216C147.058 294.383 148.019 293.67 149.131 292.844C151.138 291.354 153.412 289.665 154.892 286.744C157.216 282.159 158.482 275.522 158.495 275.456C158.561 275.107 158.789 274.814 159.108 274.669C159.423 274.525 159.787 274.546 160.085 274.723C160.443 274.666 161.627 273.542 162.982 270.441C164.067 267.961 165.335 261.916 165.745 258.167C165.835 257.344 165.695 256.72 165.329 256.314C164.784 255.71 163.767 255.6 163.422 255.609C163.124 255.616 162.832 255.496 162.624 255.278C162.416 255.059 162.305 254.763 162.322 254.46C162.334 254.26 162.34 254.034 162.34 253.784C162.09 253.984 161.756 254.068 161.425 253.985C160.879 253.849 160.53 253.305 160.628 252.742C161.016 250.507 159.785 241.316 157.045 232.558C155.39 227.265 146.236 228.194 140.179 228.808C136.336 229.198 134.743 229.325 133.902 228.541C133.044 227.801 125.593 226.324 121.181 228.298C119.504 229.047 118.661 230.157 118.603 231.692C118.388 237.373 116.202 240.79 114.755 243.051C114.221 243.885 113.76 244.606 113.559 245.185C112.729 247.577 110.756 255.159 110.736 255.235C110.586 255.812 110.001 256.178 109.433 256.03C108.867 255.881 108.519 255.319 108.656 254.743C108.683 254.557 108.905 252.514 106.067 250.321C105.852 250.155 105.724 250.124 105.695 250.123C105.496 250.186 104.672 251.221 104.34 255.12C104.094 258.004 104.21 261.624 104.635 264.342C105.467 269.657 109.784 269.657 109.967 269.652C110.291 269.649 110.6 269.791 110.806 270.043C111.013 270.295 111.099 270.629 111.036 270.951C111.021 271.036 110.614 273.42 110.202 286.697C110.181 287.371 110.218 288.041 110.307 288.704C111.077 286.625 111.807 285.165 111.887 285.007C112.071 284.644 112.439 284.418 112.836 284.418ZM209.88 261.033L208.882 294.918L220.329 289.881C219.54 288.619 218.708 287.27 217.88 285.896C211.359 275.08 210.691 272.165 210.756 270.913C210.868 268.752 212.113 266.193 213.385 264.106L212.182 259.948L209.88 261.033ZM214.221 266.995C213.496 268.411 212.95 269.848 212.889 271.027C212.863 271.535 213.244 273.921 219.042 283.661L214.221 266.995ZM347.287 262.423C347.251 262.581 347.216 262.741 347.181 262.901C347.091 263.309 347.001 263.718 346.905 264.125C345.919 268.328 345.101 272.583 344.454 276.865C344.751 276.772 345.063 276.622 345.327 276.428C346.088 275.869 346.579 274.838 347.013 273.929L350.49 266.639C350.959 265.655 351.445 264.637 351.604 263.613C351.758 262.629 351.56 261.708 351.073 261.15C350.639 260.651 349.916 260.403 349.273 260.532C348.63 260.661 348.053 261.17 347.838 261.799C347.742 262.077 347.542 262.3 347.287 262.423ZM217.026 259.711C217.052 259.711 217.079 259.712 217.106 259.714C217.449 259.74 217.758 259.933 217.937 260.231C218.152 260.588 218.369 260.952 218.589 261.321C222.109 267.23 226.099 273.926 232.917 273.926C232.939 273.926 232.96 273.926 232.982 273.925C242.076 273.868 250.516 267.125 253.506 257.526C256.18 248.942 257.573 244.401 257.587 244.356C257.709 243.96 258.042 243.669 258.445 243.606C258.849 243.543 259.252 243.72 259.485 244.061C260.408 245.417 260.871 245.459 260.879 245.459C260.888 245.457 261.958 245.034 262.672 239.24C263.119 235.617 263.247 231.419 263.324 228.911L263.33 228.721C263.379 227.145 263.101 226.049 262.569 225.715C262.006 225.361 261.041 225.754 260.814 225.879C260.506 226.047 260.136 226.052 259.824 225.891C259.512 225.731 259.298 225.425 259.249 225.073C259.097 223.959 258.938 222.905 258.773 221.908C254.343 216.958 251.024 216.091 244.364 214.351L244.022 214.262C242.135 213.769 241.068 212.912 240.469 212.057C238.707 212.501 237.254 212.722 237.182 212.733C237.123 212.742 237.064 212.745 237.004 212.744C228.072 212.559 220.584 214.901 215.346 219.511C211.393 222.99 210.068 226.58 210.055 226.616C209.897 227.055 209.478 227.342 209.021 227.331C208.232 227.308 207.689 227.579 207.258 228.21C205.051 231.441 207.214 241.664 208.332 244.464C208.575 245.072 208.909 245.252 209.139 245.333C210.074 245.667 211.515 245.04 211.947 244.794C212.317 244.583 212.776 244.615 213.114 244.875C213.452 245.136 213.607 245.576 213.507 245.996C213.079 247.8 214.816 253.731 216.011 257.045C216.203 257.576 215.962 258.167 215.458 258.404L214.142 259.024L214.936 261.771C215.627 260.808 216.142 260.178 216.208 260.099C216.411 259.852 216.711 259.711 217.026 259.711ZM325.437 225.444C329.296 225.444 333.19 226.657 336.322 228.909C340.38 231.826 343.249 236.55 343.996 241.545C344.362 243.992 344.247 246.457 344.136 248.841C344.087 249.888 344.037 250.971 344.029 252.023C344.015 254.087 344.722 256.286 346.133 258.582C346.718 257.026 347.577 255.626 349.047 254.622C350.39 245.881 349.521 236.884 346.527 228.573C345.899 226.829 345.078 224.849 343.744 223.379C342.356 221.848 340.405 220.839 338.526 219.937C333.628 217.585 326.219 214.439 318.454 214.274C311 214.115 304.115 216.911 300.04 221.753C297.647 224.597 295.923 228.351 294.614 233.567C293.637 237.462 293.117 241.887 293.058 246.775C293.115 246.283 293.165 245.783 293.215 245.278C293.323 244.19 293.435 243.065 293.629 241.971C294.981 234.337 300.836 227.809 308.2 225.727C312.146 224.61 317.77 223.719 322.377 225.706C323.385 225.53 324.41 225.444 325.437 225.444ZM131.423 215.937C132.557 215.937 133.642 216.099 134.661 216.427C137.561 217.361 141.152 217.805 144.624 218.235C151.547 219.091 158.086 219.9 159.695 224.481C160.957 228.072 162.393 235.588 163.359 242.352C163.86 239.978 164.217 237.701 164.172 236.17C164.021 230.944 161.863 223.814 157.483 220.506C152.597 216.816 144.598 212.476 134.225 212.757C129.256 212.892 123.352 215.245 118.432 219.051C113.327 222.999 110.223 227.778 109.915 232.162C109.653 235.887 109.411 238.75 109.209 240.886C110.325 238.533 111.458 235.498 111.774 232.406C112.196 228.293 116.201 222.948 121.514 219.408C124.948 217.119 128.363 215.937 131.423 215.937ZM135.237 226.864L135.238 226.864C135.237 226.864 135.237 226.864 135.237 226.864ZM218.493 205.658C218.142 205.658 217.856 205.748 217.629 205.843C215.751 206.633 213.781 209.934 212.084 215.14C211.213 217.809 210.607 220.383 210.283 221.893C211.153 220.686 212.318 219.319 213.845 217.96C216.364 215.719 219.357 213.956 222.742 212.719C226.916 211.195 231.696 210.473 236.956 210.571C237.869 210.431 238.815 210.239 239.726 210.014C239.722 209.965 239.719 209.919 239.717 209.876C239.62 207.768 241.126 205.473 243.075 204.761C244.444 204.261 245.776 204.659 246.638 205.827C247.242 206.646 247.388 207.56 247.048 208.4C246.577 209.565 245.176 210.543 242.778 211.376C243.296 211.757 243.955 212.002 244.554 212.159L244.896 212.248C250.501 213.712 254.148 214.665 258.068 218.157C255.734 207.207 252.39 204.519 248.324 201.25C241.048 195.401 234.199 199.962 228.695 203.627C225.168 205.976 222.382 207.831 220.185 206.286C219.505 205.807 218.945 205.658 218.493 205.658ZM241.022 196.271C244.077 196.271 246.924 197.356 249.649 199.547C252.062 201.486 254.556 203.492 256.598 207.222C258.072 209.913 259.247 213.378 260.195 217.882C260.204 216.722 260.13 215.373 259.902 213.885C259.205 209.358 256.881 202.578 249.763 195.99C243.581 190.268 232.437 190.493 222.663 196.536C215.929 200.699 209.562 207.948 209.303 216.944C209.527 216.147 209.778 215.308 210.056 214.457C212.007 208.474 214.281 204.901 216.813 203.836C217.854 203.399 219.495 203.159 221.401 204.5C222.414 205.213 224.897 203.56 227.525 201.81C230.271 199.981 233.688 197.706 237.404 196.75C238.644 196.431 239.849 196.271 241.022 196.271ZM244.225 206.719C244.101 206.719 243.96 206.745 243.797 206.805C242.925 207.123 241.996 208.247 241.864 209.396C243.549 208.829 244.831 208.172 245.072 207.574C245.093 207.522 245.137 207.413 244.928 207.13C244.772 206.918 244.568 206.719 244.225 206.719Z" fill="black"/>
<rect x="9.31006" y="491.141" width="540.913" height="13.1683" fill="black"/>
<ellipse cx="519.349" cy="443.085" rx="9.37688" ry="1.22224" transform="rotate(13.173 519.349 443.085)" fill="#F3A73D"/>
<path d="M129 315L125.5 318L129.5 321L138.5 320.5L139.5 314.5V313.5L138.5 314.5L136 315.5L134 316L129 315Z" fill="#F3A73D" stroke="#F3A73D"/>
<path d="M254.5 269L240.5 304L254.5 287L261.5 289V276.5L258 266.5L254.5 269Z" fill="#6666F2" stroke="#6666F2"/>
</g>
<defs>
<clipPath id="clip0_4430_552">
<rect width="541" height="408" fill="white" transform="translate(0 90)"/>
</clipPath>
<clipPath id="clip1_4430_552">
<rect width="116" height="68" fill="white" transform="translate(267 378)"/>
</clipPath>
</defs>
</svg>
