<svg width="20" height="20" viewBox="0 0 20 20" fill="none" xmlns="http://www.w3.org/2000/svg">
<mask id="mask0_8325_6694" style="mask-type:alpha" maskUnits="userSpaceOnUse" x="0" y="0" width="20" height="20">
<rect width="20" height="20" fill="#D9D9D9"/>
</mask>
<g mask="url(#mask0_8325_6694)">
<path d="M8.79166 16.5478C9.41138 15.3747 10.2153 14.5804 11.2035 14.1647C12.1917 13.7491 13.0406 13.5413 13.75 13.5413C14.0535 13.5413 14.346 13.5651 14.6275 13.6126C14.9089 13.6602 15.1848 13.723 15.4552 13.8009C15.8045 13.3 16.0937 12.7238 16.3229 12.0726C16.5521 11.4215 16.6667 10.7305 16.6667 9.99967C16.6667 8.13856 16.0208 6.56217 14.7292 5.27051C13.4375 3.97884 11.8611 3.33301 9.99999 3.33301C8.13888 3.33301 6.56249 3.97884 5.27083 5.27051C3.97916 6.56217 3.33333 8.13856 3.33333 9.99967C3.33333 10.6727 3.42652 11.3113 3.61291 11.9155C3.79944 12.5197 4.06312 13.0755 4.40395 13.583C4.95201 13.2893 5.51152 13.07 6.08249 12.9251C6.65361 12.7804 7.24097 12.708 7.84458 12.708C8.24097 12.708 8.62395 12.7409 8.99354 12.8065C9.36326 12.8722 9.70138 12.9515 10.0079 13.0445C9.76861 13.1792 9.54534 13.3283 9.33812 13.4918C9.1309 13.6551 8.93166 13.8324 8.74041 14.0236C8.60583 13.9959 8.46076 13.978 8.3052 13.9701C8.14979 13.962 7.99624 13.958 7.84458 13.958C7.38388 13.958 6.9268 14.012 6.47333 14.1199C6.01999 14.2278 5.59194 14.3897 5.18916 14.6055C5.67097 15.1194 6.21958 15.5403 6.83499 15.8682C7.45041 16.1963 8.10263 16.4228 8.79166 16.5478ZM10.0015 17.9163C8.90645 17.9163 7.87722 17.7086 6.91374 17.293C5.95027 16.8775 5.11222 16.3135 4.39958 15.6011C3.68694 14.8888 3.1227 14.0511 2.70687 13.088C2.29118 12.125 2.08333 11.096 2.08333 10.0011C2.08333 8.90613 2.29111 7.8769 2.70666 6.91342C3.12222 5.94995 3.68618 5.1119 4.39854 4.39926C5.1109 3.68662 5.94861 3.12238 6.91166 2.70655C7.87472 2.29085 8.90368 2.08301 9.99854 2.08301C11.0935 2.08301 12.1228 2.29079 13.0862 2.70634C14.0497 3.1219 14.8878 3.68586 15.6004 4.39822C16.3131 5.11058 16.8773 5.94829 17.2931 6.91134C17.7088 7.8744 17.9167 8.90335 17.9167 9.99822C17.9167 11.0932 17.7089 12.1225 17.2933 13.0859C16.8778 14.0494 16.3138 14.8875 15.6015 15.6001C14.8891 16.3127 14.0514 16.877 13.0883 17.2928C12.1253 17.7085 11.0963 17.9163 10.0015 17.9163ZM7.91666 11.0413C7.16458 11.0413 6.52513 10.778 5.99833 10.2513C5.47166 9.72454 5.20833 9.08509 5.20833 8.33301C5.20833 7.58092 5.47166 6.94148 5.99833 6.41467C6.52513 5.88801 7.16458 5.62467 7.91666 5.62467C8.66874 5.62467 9.30819 5.88801 9.83499 6.41467C10.3617 6.94148 10.625 7.58092 10.625 8.33301C10.625 9.08509 10.3617 9.72454 9.83499 10.2513C9.30819 10.778 8.66874 11.0413 7.91666 11.0413ZM7.91666 9.79134C8.31736 9.79134 8.66055 9.64842 8.94625 9.36259C9.23208 9.0769 9.37499 8.7337 9.37499 8.33301C9.37499 7.93231 9.23208 7.58912 8.94625 7.30342C8.66055 7.01759 8.31736 6.87467 7.91666 6.87467C7.51597 6.87467 7.17277 7.01759 6.88708 7.30342C6.60124 7.58912 6.45833 7.93231 6.45833 8.33301C6.45833 8.7337 6.60124 9.0769 6.88708 9.36259C7.17277 9.64842 7.51597 9.79134 7.91666 9.79134ZM13.75 12.0349C13.1801 12.0349 12.6985 11.8381 12.305 11.4447C11.9115 11.0512 11.7148 10.5695 11.7148 9.99967C11.7148 9.42981 11.9115 8.94815 12.305 8.55467C12.6985 8.1612 13.1801 7.96447 13.75 7.96447C14.3199 7.96447 14.8015 8.1612 15.195 8.55467C15.5885 8.94815 15.7852 9.42981 15.7852 9.99967C15.7852 10.5695 15.5885 11.0512 15.195 11.4447C14.8015 11.8381 14.3199 12.0349 13.75 12.0349Z" fill="#6666F2"/>
</g>
<mask id="mask1_8325_6694" style="mask-type:alpha" maskUnits="userSpaceOnUse" x="5" y="5" width="6" height="7">
<rect x="5" y="5" width="6" height="7" fill="#C4C0FF"/>
</mask>
<g mask="url(#mask1_8325_6694)">
<path d="M7.91666 11.0417C7.16458 11.0417 6.52513 10.7783 5.99833 10.2517C5.47166 9.72486 5.20833 9.08542 5.20833 8.33333C5.20833 7.58125 5.47166 6.94181 5.99833 6.415C6.52513 5.88833 7.16458 5.625 7.91666 5.625C8.66874 5.625 9.30819 5.88833 9.83499 6.415C10.3617 6.94181 10.625 7.58125 10.625 8.33333C10.625 9.08542 10.3617 9.72486 9.83499 10.2517C9.30819 10.7783 8.66874 11.0417 7.91666 11.0417ZM7.91666 9.79167C8.31736 9.79167 8.66055 9.64875 8.94625 9.36292C9.23208 9.07722 9.37499 8.73403 9.37499 8.33333C9.37499 7.93264 9.57883 10.0774 9.293 9.79167C9.0073 9.50583 8.90071 10 8.50002 10C8.09932 10 7.61222 9.96583 7.32652 10.2517C7.04069 10.5374 6.6519 9.39097 6.6519 9.79167C6.6519 10.1924 6.60124 9.07722 6.88708 9.36292C7.17277 9.64875 7.51597 9.79167 7.91666 9.79167Z" fill="#C4C0FF"/>
</g>
</svg>
