<svg width="20" height="21" viewBox="0 0 20 21" fill="none" xmlns="http://www.w3.org/2000/svg">
<mask id="mask0_8297_2048" style="mask-type:alpha" maskUnits="userSpaceOnUse" x="0" y="0" width="20" height="21">
<rect y="0.491211" width="20" height="20" fill="#D9D9D9"/>
</mask>
<g mask="url(#mask0_8297_2048)">
<path d="M8.79167 17.039C9.41139 15.866 10.2153 15.0716 11.2035 14.6559C12.1917 14.2403 13.0406 14.0326 13.75 14.0326C14.0535 14.0326 14.346 14.0563 14.6275 14.1038C14.9089 14.1514 15.1848 14.2142 15.4552 14.2921C15.8045 13.7912 16.0937 13.2151 16.3229 12.5638C16.5521 11.9127 16.6667 11.2217 16.6667 10.4909C16.6667 8.62977 16.0208 7.05339 14.7292 5.76172C13.4375 4.47005 11.8611 3.82422 10 3.82422C8.13889 3.82422 6.5625 4.47005 5.27083 5.76172C3.97917 7.05339 3.33333 8.62977 3.33333 10.4909C3.33333 11.1639 3.42653 11.8026 3.61292 12.4067C3.79944 13.0109 4.06312 13.5667 4.40396 14.0742C4.95201 13.7805 5.51153 13.5612 6.0825 13.4163C6.65361 13.2716 7.24097 13.1992 7.84458 13.1992C8.24097 13.1992 8.62396 13.2321 8.99354 13.2978C9.36326 13.3635 9.70139 13.4428 10.0079 13.5357C9.76861 13.6704 9.54535 13.8195 9.33812 13.983C9.1309 14.1463 8.93167 14.3236 8.74042 14.5148C8.60583 14.4871 8.46076 14.4692 8.30521 14.4613C8.14979 14.4532 7.99625 14.4492 7.84458 14.4492C7.38389 14.4492 6.9268 14.5032 6.47333 14.6111C6.02 14.719 5.59194 14.8809 5.18917 15.0967C5.67097 15.6106 6.21958 16.0315 6.835 16.3594C7.45042 16.6875 8.10264 16.914 8.79167 17.039ZM10.0015 18.4076C8.90646 18.4076 7.87722 18.1998 6.91375 17.7842C5.95028 17.3687 5.11222 16.8047 4.39958 16.0923C3.68694 15.38 3.12271 14.5423 2.70687 13.5792C2.29118 12.6162 2.08333 11.5872 2.08333 10.4923C2.08333 9.39734 2.29111 8.36811 2.70667 7.40463C3.12222 6.44116 3.68618 5.60311 4.39854 4.89047C5.1109 4.17783 5.94861 3.61359 6.91167 3.19776C7.87472 2.78207 8.90368 2.57422 9.99854 2.57422C11.0935 2.57422 12.1228 2.782 13.0862 3.19755C14.0497 3.61311 14.8878 4.17707 15.6004 4.88943C16.3131 5.60179 16.8773 6.4395 17.2931 7.40255C17.7088 8.36561 17.9167 9.39457 17.9167 10.4894C17.9167 11.5844 17.7089 12.6137 17.2933 13.5771C16.8778 14.5406 16.3138 15.3787 15.6015 16.0913C14.8891 16.8039 14.0514 17.3682 13.0883 17.784C12.1253 18.1997 11.0963 18.4076 10.0015 18.4076ZM7.91667 11.5326C7.16458 11.5326 6.52514 11.2692 5.99833 10.7426C5.47167 10.2157 5.20833 9.5763 5.20833 8.82422C5.20833 8.07214 5.47167 7.43269 5.99833 6.90588C6.52514 6.37922 7.16458 6.11589 7.91667 6.11589C8.66875 6.11589 9.30819 6.37922 9.835 6.90588C10.3617 7.43269 10.625 8.07214 10.625 8.82422C10.625 9.5763 10.3617 10.2157 9.835 10.7426C9.30819 11.2692 8.66875 11.5326 7.91667 11.5326ZM7.91667 10.2826C8.31736 10.2826 8.66055 10.1396 8.94625 9.8538C9.23208 9.56811 9.375 9.22491 9.375 8.82422C9.375 8.42352 9.23208 8.08033 8.94625 7.79464C8.66055 7.5088 8.31736 7.36589 7.91667 7.36589C7.51597 7.36589 7.17278 7.5088 6.88708 7.79464C6.60125 8.08033 6.45833 8.42352 6.45833 8.82422C6.45833 9.22491 6.60125 9.56811 6.88708 9.8538C7.17278 10.1396 7.51597 10.2826 7.91667 10.2826ZM13.75 12.5261C13.1801 12.5261 12.6985 12.3294 12.305 11.9359C11.9115 11.5424 11.7148 11.0607 11.7148 10.4909C11.7148 9.92102 11.9115 9.43936 12.305 9.04589C12.6985 8.65241 13.1801 8.45568 13.75 8.45568C14.3199 8.45568 14.8015 8.65241 15.195 9.04589C15.5885 9.43936 15.7852 9.92102 15.7852 10.4909C15.7852 11.0607 15.5885 11.5424 15.195 11.9359C14.8015 12.3294 14.3199 12.5261 13.75 12.5261Z" fill="#1A1A1A"/>
</g>
</svg>
