<svg width="564" height="519" viewBox="0 0 564 519" fill="none" xmlns="http://www.w3.org/2000/svg">
<path d="M40.8583 518.34C40.8583 450.334 54.2532 382.993 80.2783 320.162C106.303 257.332 144.449 200.243 192.537 152.155C240.625 104.067 297.714 65.9217 360.544 39.8966C423.374 13.8715 490.715 0.47656 558.722 0.476563V518.34H40.8583Z" fill="white"/>
<g clip-path="url(#clip0_4444_287)">
<g clip-path="url(#clip1_4444_287)">
<path d="M240.691 172.879C244.074 171.994 247.427 171.227 250.418 169.33C255.351 166.201 258.699 161.14 262.424 156.774C275.248 141.747 289.994 133.038 310.023 131.616C317.521 131.083 326.426 131.645 333.056 135.552C335.108 136.762 336.962 138.31 338.646 139.99C348.778 141.756 354.76 144.03 360.967 152.775C371.389 167.459 372.643 189.253 369.628 206.533C368.747 211.582 367.491 221.144 364.795 225.446C365.953 231.695 367.033 238.025 368.592 244.188C369.043 244.197 369.494 244.208 369.945 244.23C377.578 244.586 381.507 249.665 386.726 254.385C391.308 258.528 396.675 263.263 402.407 265.665C413.706 270.398 425.213 274.71 436.702 278.954C448.281 283.231 459.807 287.526 470.998 292.76C474.769 294.525 478.947 296.344 482.293 298.834C482.791 299.204 483.289 299.594 483.707 300.054C497.382 315.096 494.881 368.543 493.435 388.41C491.875 409.848 489.246 431.107 486.061 452.359C484.871 460.294 484.275 469.004 481.512 476.566C480.276 479.951 478.048 482.933 475.332 485.281C468.351 491.315 458.848 492.743 449.922 492.041C441.408 491.369 433.06 489.255 424.665 487.785C409.337 485.103 394.061 482.243 378.844 478.987C370.552 477.213 361.139 475.482 353.282 472.344C351.697 471.711 350.75 470.212 349.346 469.512C348.235 468.958 347.154 469.919 345.991 468.654C344.339 466.86 344.007 463.042 343.771 460.68C341.853 460.235 339.818 459.807 338.017 458.986C336.827 457.261 336.238 455.618 335.707 453.605C326.43 455.571 314.57 456.697 306.196 451.247C303.388 449.42 300.979 446.962 298.325 444.919C293.645 441.317 287.446 439.454 281.854 437.77C279.474 441.06 276.997 444.306 274.1 447.163C270.234 450.976 265.529 452.45 263.496 457.894C277.06 458.936 290.608 460.374 304.165 461.532L319.28 462.895C322.561 463.17 325.975 463.234 329.211 463.811C330.276 464.002 332.07 464.398 332.731 465.349C333.112 465.897 332.995 466.149 332.837 466.728C332.179 467.466 331.433 467.924 330.507 468.273C327.115 469.55 323.545 470.547 320.106 471.724L291.904 481.432L258.012 493.315C254.258 494.599 248.225 497.241 244.489 497.558C240.233 497.918 235.435 496.909 231.173 496.46L204.676 493.668L139.669 486.949L122.816 485.203C119.202 484.837 115.453 484.609 111.893 483.872C109.03 478.444 107.088 471.081 105.01 465.237L91.4381 426.99L78.9325 391.951C77.3251 387.347 75.3888 382.701 74.1054 378.007C73.6227 376.241 73.5794 374.453 74.0844 372.685C74.5919 370.91 75.8209 369.64 77.4146 368.745C78.6586 368.047 80.1519 368.074 81.5341 368.051C107.628 367.593 133.784 368.051 159.886 368.045L187.319 368.055C191.217 368.058 201.641 367.527 204.635 368.513C207.292 369.386 208.992 370.868 210.263 373.391C212.092 377.021 214.209 384.744 215.097 388.821C217.176 382.241 218.687 375.236 219.608 368.398C220.369 362.746 220.583 356.998 221.15 351.32C222.478 338.007 224.577 324.368 228.919 311.669C230 308.508 231.193 304.761 233.322 302.155C234.332 300.917 236.02 299.965 237.423 299.229C249.446 292.924 262.165 288.172 274.652 282.892L285.843 278.075C288.124 277.071 290.47 275.851 292.848 275.11C284.571 266.487 279.035 255.965 274.649 244.94C274.229 244.204 273.97 243.339 273.672 242.546C271.182 243.153 268.732 243.399 266.294 242.372C261.727 240.448 258.763 234.374 257.06 230.049C259.783 228.316 262.09 226.073 264.959 224.508C263.4 218.208 262.933 217.679 258.942 212.872C252.889 205.825 248.947 197.661 249.278 188.266C244.806 183.887 241.935 179.041 240.691 172.879Z" fill="#020007"/>
<path d="M345.842 461.555C347.361 461.939 348.839 462.493 350.318 463.004L349.914 467.011C349.177 467.14 348.305 467.399 347.635 466.951C346.251 466.028 346.113 463.101 345.842 461.555Z" fill="#FEFEFE"/>
<path d="M264.164 433.576C264.874 433.257 265.611 432.678 266.292 432.281C268.839 430.795 271.785 429.07 274.638 428.305C269.534 433.425 268.401 440.75 261.142 443.821C261.993 440.834 262.679 436.16 264.164 433.576Z" fill="#FEFEFE"/>
<path d="M250.894 189.75C253.51 191.32 256.217 192.653 258.97 193.958C258.667 199.184 259.351 204.178 260.561 209.257C260.849 210.26 261.136 211.252 261.35 212.273L261.17 212.448L260.925 212.318C260.028 210.392 258.368 208.479 257.144 206.711C253.322 201.185 251.709 196.376 250.894 189.75Z" fill="#FEFEFE"/>
<path d="M303.394 286.367C310.734 289.486 313.694 289.418 321.12 286.577C323.037 287.303 324.894 288.048 326.748 288.924C323.776 290.719 321.318 293.503 319.02 296.066C316.24 299.247 313.356 302.677 311.338 306.408C306.302 301.518 303.638 293.259 303.394 286.367Z" fill="#FEFEFE"/>
<path d="M331.844 291.038L332.439 290.922C335.381 291.931 338.706 294.836 341.031 296.904C339.213 301.067 336.861 305.022 334.87 309.112C333.311 309 331.729 309.007 330.164 308.967C328.982 308.95 327.83 309.029 326.654 309.128C325.126 304.919 322.952 300.823 321.273 296.649L326.9 291.054C327.187 291.089 327.473 291.118 327.761 291.149C329.127 291.297 330.48 291.145 331.844 291.038Z" fill="#FEFEFE"/>
<path d="M230.23 413.403C231.237 413.352 232.335 413.241 233.318 413.505C237.57 414.649 243.026 419.357 246.511 422.149C241.724 427.212 241.536 436.796 241.51 443.375C241.499 445.881 241.725 448.738 241.183 451.18C239.178 451.246 237.534 450.812 235.65 450.207C233.812 446.501 232.676 442.228 231.371 438.297L224.295 416.582C226.215 415.276 227.95 414.009 230.23 413.403Z" fill="#FEFEFE"/>
<path d="M333.736 422.81C338.04 422.44 347.726 425.007 352.284 425.978C353.843 429.203 354.993 432.43 355.764 435.931C357.67 444.59 357.925 458.346 354.979 466.606C354.513 467.913 354.03 469.339 352.71 469.963C350.26 467.681 354.024 464.53 352.741 461.965C350.875 460.312 343.101 458.419 340.494 457.591C342.043 456.188 342.788 454.529 343.341 452.549C345.07 446.351 345.115 431.917 339.875 427.209C338.283 425.779 334.605 424.364 333.736 422.81Z" fill="#FEFEFE"/>
<path d="M369.209 247C369.969 247.32 370.702 247.686 371.423 248.087C375.322 250.257 378.186 253.961 379.395 258.256C380.012 260.45 380.206 262.725 380.274 264.995C380.49 272.122 378.549 275.141 375.207 281.151C372.348 286.292 359.306 306.949 354.32 308.366C352.187 306.207 350.674 303.514 348.646 301.246L348.36 300.928C344.808 296.78 338.269 291.712 333.435 289.12C344.628 283.224 358.438 271.008 366.912 261.514C368.818 259.377 371.404 256.718 372.409 254.015C372.629 253.423 372.791 253.061 372.507 252.492C371.907 252.39 371.35 252.39 370.745 252.402C369.941 251.256 369.615 248.433 369.209 247Z" fill="#FEFEFE"/>
<path d="M238.074 457.977C241.621 458.567 245.365 458.659 248.952 458.951L269.448 460.626L330.771 466.097C323.24 468.099 315.827 470.875 308.47 473.436L270.769 486.644C263.227 489.23 255.266 491.478 247.945 494.606C248.178 493.134 248.308 491.752 248.081 490.272C247.58 487.007 246.255 483.846 245.247 480.708C243.716 475.94 242.279 471.142 240.658 466.402C239.737 463.709 238.504 460.795 238.074 457.977Z" fill="#FEFEFE"/>
<path d="M327.092 310.882C329.426 310.873 331.774 310.799 334.094 311.089C335.392 317.079 335.631 327.924 335.834 334.281C336.607 358.517 335.616 382.908 333.542 407.063C333.016 413.195 332.162 419.29 331.568 425.413C328.859 424.401 326.173 423.344 323.493 422.257C319.643 420.749 315.809 419.219 312.003 417.598C312.358 413.637 312.073 409.5 312.129 405.515C312.203 400.328 312.57 395.082 312.932 389.908C314.782 363.47 319.354 336.236 327.092 310.882Z" fill="#FEFEFE"/>
<path d="M261.01 194.543C276.641 196.39 290.313 191.104 303.922 184.125C313.38 195.313 328.004 193.46 335.164 208.406C327.049 212.84 319.286 217.925 311.164 222.344C306.503 220.155 300.214 220.963 295.493 222.656C294.236 223.106 292.702 223.65 291.631 224.442C290.787 225.066 289.951 226.265 289.008 226.68C287.749 227.237 285.755 226.434 284.328 227.066C282.034 227.406 280.219 228.311 278.19 229.374C277.912 229.148 277.639 228.92 277.332 228.733C275.093 227.369 271.138 227.366 268.643 228.059C266.889 222.501 265.162 216.727 263.252 211.235C261.884 205.686 260.875 200.293 261.01 194.543Z" fill="#FEFEFE"/>
<path d="M294.599 277.32C296.066 278.695 297.295 280.538 298.635 282.061C297.133 285.103 296.422 288.825 295.807 292.151C293.158 306.455 293.358 320.737 293.363 335.205C293.365 341.253 293.176 347.365 293.507 353.403C294.591 373.217 296.81 392.868 299.13 412.566C295.98 411.024 292.757 409.619 289.522 408.264C288.427 404.913 287.481 401.518 286.519 398.128C283.855 390.305 281.955 382.055 280.04 374.018C275.262 353.948 271.788 334.001 269.568 313.499C273.474 310.744 282.179 305.527 285.133 302.528C282.589 299.918 279.662 297.633 277.019 295.106C283.146 289.464 288.433 282.973 294.599 277.32Z" fill="#FEFEFE"/>
<path d="M238.181 300.977L238.464 301.016C238.688 301.466 238.575 301.474 238.43 301.923C237.775 303.975 237.237 305.888 236.967 308.031C236.146 314.516 236.634 321.472 237.194 327.966C238.832 347.004 242.716 365.73 246.946 384.334C243.488 381.159 240.613 377.303 238.255 373.259C237.181 371.415 233.897 364.094 232.993 363.302C232.73 363.072 232.561 363.175 232.243 363.203L231.909 363.642C231.657 366.079 233.874 369.68 234.989 371.77C237.156 375.828 241.667 383.086 245.329 385.604C245.905 386.001 246.679 386.186 247.344 386.385C249.543 393.657 250.817 401.358 252.575 408.757L254.416 417.376C252.187 418.177 249.728 419.181 247.894 420.709C244.709 417.957 237.469 412.117 233.499 411.359C229.893 410.67 226.36 412.304 223.48 414.319C221.578 406.818 218.623 399.532 216.477 392.089C217.694 388.838 218.4 385.252 219.12 381.864C220.063 377.427 221.044 372.966 221.641 368.469C222.368 362.989 222.64 357.434 223.217 351.935C224.249 342.078 225.669 332.057 228.043 322.433C229.4 316.93 231.745 306.995 235.531 302.875C236.261 302.081 237.266 301.531 238.181 300.977Z" fill="#FEFEFE"/>
<path d="M300.375 283.281C300.841 283.647 301.173 283.865 301.274 284.484C301.511 285.942 301.478 287.506 301.665 288.987C302.126 292.645 303.156 296.401 304.465 299.845C305.86 303.518 308.125 307.131 311.822 308.796C313.574 307.195 314.812 304.812 316.169 302.863C317.342 301.179 318.596 299.599 319.905 298.021C321.316 302.337 323.235 306.344 325.026 310.5C316.616 338.534 312.452 367.665 310.337 396.785C310.122 403.54 310.003 410.274 310.083 417.034C307.15 415.841 304.286 414.402 301.4 413.09C297.718 386.639 295.29 359.766 295.243 333.052C295.223 321.603 295.476 310.194 296.855 298.816C297.41 294.229 298.078 287.216 300.375 283.281Z" fill="#FEFEFE"/>
<path d="M285.392 410.379C286.622 410.306 287.971 410.14 289.168 410.48C293.103 411.598 297.9 414.107 301.853 415.733C314.234 420.828 326.256 426.172 339.26 429.542C342.406 434.388 342.792 444.653 341.908 450.314C341.765 451.23 341.615 452.036 340.837 452.615C339.396 452.756 337.183 451.68 335.827 451.191C326.562 453.787 315.132 454.726 306.75 449.078C303.568 446.934 300.978 444.036 297.736 441.935C292.748 438.703 286.812 436.75 281.002 435.684C278.697 438.868 276.144 442.274 273.341 445.034C269.076 449.235 262.819 451.37 261.315 457.778C253.23 457.489 245.101 456.428 237.025 455.852L235.869 452.307C238.143 453.308 239.503 453.478 241.915 452.829C242.737 453.078 243.641 453.439 244.483 453.576C245.223 453.697 245.293 453.538 245.885 453.117C246.142 453.333 246.312 453.522 246.521 453.793C246.595 453.89 246.666 453.989 246.739 454.087C248.881 454.796 251.188 455.454 253.421 454.726C256.922 453.584 258.604 449.587 260.146 446.557C269.288 442.53 268.147 440.139 273.599 432.816C274.39 431.753 275.452 430.429 276.541 429.669C278.518 428.294 284.433 426.917 285.247 425.032L284.905 424.724C282.406 424.575 280.408 426.159 278.067 426.277C277.935 426.284 277.802 426.285 277.668 426.289C277.169 426.685 277.528 426.432 276.989 426.737C276.607 426.953 276.427 427.134 276.153 427.465L276.408 427.419C275.839 427.809 275.278 428.053 274.638 428.307C271.786 429.072 268.839 430.797 266.293 432.283C265.611 432.681 264.875 433.26 264.165 433.578C263.981 433.14 263.964 432.871 263.989 432.398C264.314 431.989 264.597 431.63 264.81 431.149C264.863 431.028 264.913 430.907 264.966 430.785C264.055 431.252 263.265 431.684 262.652 432.527C261.323 434.354 260.923 436.804 260.305 438.94C259.253 442.58 257.228 450.17 253.897 452.183C251.636 453.551 249.206 452.745 246.869 452.106C253.052 444.876 250.769 434.06 254.351 429.615C258.968 423.887 273.435 418.761 280.016 414.857C282.05 413.65 283.563 411.851 285.392 410.379Z" fill="#FEFEFE"/>
<path d="M264.966 430.779C266.499 429.174 274.633 425.833 276.88 425.828C277.353 425.827 277.347 425.97 277.668 426.282C277.169 426.678 277.527 426.426 276.989 426.731C276.607 426.947 276.427 427.128 276.153 427.459L276.408 427.413C275.838 427.802 275.277 428.046 274.638 428.301C271.785 429.066 268.839 430.791 266.292 432.277C265.611 432.674 264.874 433.253 264.164 433.572C263.98 433.133 263.963 432.865 263.989 432.392C264.313 431.983 264.597 431.623 264.81 431.143C264.862 431.022 264.913 430.901 264.966 430.779Z" fill="url(#paint0_linear_4444_287)"/>
<path d="M379.84 276.789C380.278 280.339 377.712 293.936 377.004 298.448C372.822 325.138 367.798 351.792 361.935 378.165L354.557 410.411C353.519 414.798 352.225 419.118 351.286 423.53C345.587 422.471 339.866 421.3 334.109 420.611C334.527 417.48 334.905 414.361 335.189 411.216C336.126 404.42 336.375 397.354 336.822 390.509C337.892 374.158 338.592 357.64 338.181 341.254C338.024 335.044 337.726 328.738 337.321 322.541C337.072 318.747 336.214 314.363 336.718 310.596C337.085 307.858 341.351 301.205 342.747 298.301C345.066 300.273 347.144 302.333 348.898 304.834C350.002 306.41 351.069 308.493 352.437 309.822C352.938 310.308 353.684 310.583 354.316 310.857C360.749 308.17 371.463 291.762 375.147 285.527C376.834 282.673 378.189 279.655 379.84 276.789Z" fill="#FEFEFE"/>
<path d="M374.543 247.312C378.444 248.295 381.91 252.761 384.808 255.392C386.614 257.031 388.514 258.585 390.395 260.139C392.926 262.23 395.593 264.081 398.296 265.938C398.302 265.966 398.31 265.993 398.316 266.021C399.062 269.411 400.492 272.717 401.614 276.007C403.854 282.578 406.118 289.139 408.021 295.817C402.92 298.263 397.414 300.19 392.482 302.925C394.58 304.294 397.032 305.061 399.173 306.374C402.301 308.292 405.125 310.733 408.222 312.726C406.129 320.161 403.305 327.448 400.585 334.674C398.202 341 395.903 347.347 393.456 353.648C386.715 371.01 380.067 388.383 372.872 405.564L364.725 426.073L353.235 423.955C354.412 419.017 355.86 414.144 357.021 409.199C363.718 380.683 369.801 352.004 374.986 323.174C377.639 308.429 380.463 293.474 381.881 278.556C382.62 270.771 383.876 260.092 379.542 253.186C378.218 251.077 376.293 249.49 374.757 247.582L374.543 247.312Z" fill="#FEFEFE"/>
<path d="M290.342 278.305C290.252 278.636 275.661 293.604 274.214 295.019C276.701 297.695 279.278 300.233 282.191 302.45C277.405 305.895 272.344 309.05 267.426 312.31C269.2 334.219 273.292 356.197 278.725 377.479C280.321 383.725 281.968 389.966 283.735 396.166C284.816 399.957 286.203 403.824 286.963 407.685C286.376 408.581 284.83 408.442 283.936 408.912C281.828 410.023 280.286 412.357 278.102 413.577C271.348 417.351 264.069 419.95 257.579 424.25C255.763 425.452 253.687 426.844 252.36 428.604C250.072 431.639 249.579 439.538 248.74 443.504C248.002 446.994 246.99 449.412 243.904 451.397C243.17 444.804 243.234 437.628 244.694 431.133C245.417 428.139 246.319 425.338 248.534 423.086C249.51 422.094 250.665 421.309 251.905 420.685C255.406 418.923 274.483 411.87 277.886 411.966C278.389 411.981 278.824 411.959 279.325 411.915C279.809 411.586 279.812 411.63 279.93 411.062C279.64 410.525 279.439 410.24 278.848 410.005C276.502 409.074 259.475 415.355 256.244 416.668C255.111 409.807 253.244 402.898 251.748 396.093C246.395 371.737 240.333 347.487 239.022 322.482C238.679 315.957 238.162 309.012 240.321 302.726C240.818 301.279 241.498 300.014 242.752 299.09C246.69 296.184 256.965 292.476 261.898 290.488C271.403 286.657 281.148 282.825 290.342 278.305Z" fill="#FEFEFE"/>
<path d="M343.992 205.765C344.049 207.302 343.951 208.406 345.048 209.611L345.49 209.609C347.388 206.914 344.804 202.554 350.155 197.364C351.378 196.178 352.855 195.171 354.573 194.915C356.198 194.673 357.897 195.235 359.173 196.24C361.486 198.061 362.255 201.297 362.5 204.097C362.942 209.171 361.819 218.891 358.573 222.929C358.208 223.382 357.703 223.778 357.096 223.799C355.75 223.843 354.92 222.325 353.656 222.378C353.191 222.864 353.166 223.019 353.001 223.68C353.185 224.438 353.455 224.836 354.111 225.239C355.071 225.831 356.597 226.209 357.707 225.902C359.336 225.451 360.575 224.06 361.566 222.762C363.047 225.605 363.392 229.016 363.979 232.142C365.253 238.923 366.615 248.832 369.534 254.865C358.916 268.564 345.414 279.815 330.419 288.459C328.253 287.083 325.858 286.047 323.404 285.303C331.862 279.255 338.761 272.018 345.305 263.993C347.516 261.282 349.861 258.485 351.441 255.346C353.028 252.195 353.858 248.568 354.419 245.109C354.723 243.238 355.737 237.465 355.083 235.883C354.475 235.737 354.423 235.734 353.84 235.955C352.602 238.031 352.617 242.687 352.215 245.182C351.86 247.379 351.384 249.644 350.636 251.743C347.693 260.009 334.146 274.323 327.137 279.865C323.613 282.652 319.712 285.329 315.302 286.469C311.827 287.366 308.655 286.717 305.635 284.877C298.182 280.337 287.575 266.168 283.302 258.448C280.755 253.847 278.824 249.002 276.54 244.284L275.838 243.751C275.375 244.102 275.025 244.504 274.648 244.94C274.229 244.204 273.97 243.339 273.671 242.546C271.181 243.153 268.732 243.399 266.293 242.373C261.726 240.448 258.763 234.374 257.06 230.049C259.783 228.316 262.089 226.073 264.959 224.508C263.399 218.208 262.933 217.679 258.942 212.873C259.497 213.194 259.936 213.466 260.59 213.544L260.97 213.136L260.925 212.324L261.17 212.453L261.35 212.279C261.136 211.258 260.849 210.265 260.561 209.263C261.062 209.775 261.596 210.246 262.109 210.735C262.21 210.833 262.329 210.91 262.44 210.997L262.553 210.396L262.708 211.32L262.972 211.417L263.252 211.25C265.161 216.743 266.888 222.516 268.643 228.074C271.138 227.382 275.092 227.384 277.332 228.749C277.639 228.936 277.912 229.164 278.189 229.39C280.218 228.327 282.034 227.421 284.327 227.081C284.234 227.185 284.144 227.292 284.048 227.393C283.173 228.308 279.614 228.981 279.405 230.337C281.043 230.093 282.388 228.725 284.107 229.19C285.662 228.98 287.212 228.739 288.761 228.49C289.085 232.2 289.941 235.542 292.965 238.049C295.672 240.293 298.899 240.732 302.269 240.324C305.87 239.89 310.302 238.554 312.542 235.504C314.112 233.366 314.306 230.564 313.836 228.028C313.576 226.627 313.147 225.309 312.659 223.974C320.572 219.811 328.211 214.877 335.96 210.395C336.756 212.236 340.079 221.527 340.659 222.163C340.797 222.315 341.021 222.36 341.202 222.457L341.847 222.328C342.279 221.673 342.156 221.081 341.988 220.318C341.175 216.621 339.366 212.648 337.866 209.174C339.933 208.08 341.929 206.86 343.992 205.765Z" fill="#FEFEFE"/>
<path d="M309.242 265.359C309.983 265.366 309.979 265.316 310.515 265.814C310.488 266.224 310.546 266.275 310.265 266.615C308.378 268.894 300.15 269.566 297.183 269.774C296.262 269.651 295.792 269.536 295.182 268.77L295.271 268.45C296.35 267.612 299.034 267.669 300.42 267.473C303.462 267.043 306.326 266.298 309.242 265.359Z" fill="#020007"/>
<path d="M355.4 198.172C355.785 198.191 356.153 198.262 356.533 198.326C357.316 199.528 353.88 202.519 353.267 204.123C351.773 208.034 353.63 211.343 353.594 215.164C353.593 215.228 353.59 215.292 353.587 215.356C352.87 215.297 352.404 215.394 351.872 214.839C350.227 213.119 350.496 208.225 350.826 206.007C351.307 202.771 352.738 200.125 355.4 198.172Z" fill="#020007"/>
<path d="M260.561 209.258C261.062 209.77 261.596 210.241 262.109 210.73C262.21 210.828 262.329 210.905 262.44 210.992L262.553 210.391L262.708 211.315L262.972 211.412L263.252 211.245C265.161 216.738 266.888 222.511 268.643 228.069C271.138 227.377 275.092 227.379 277.332 228.744C277.639 228.931 277.912 229.159 278.189 229.385C280.218 228.322 282.034 227.416 284.327 227.076C284.234 227.18 284.144 227.287 284.048 227.388C283.173 228.303 279.614 228.976 279.405 230.332C281.043 230.088 282.388 228.72 284.107 229.185C282.393 229.761 280.778 230.423 279.146 231.2C279.966 232.874 281.321 234.903 281.759 236.697C282.764 240.808 282.716 250.898 284.738 253.902C285.347 254.807 286.39 255.374 287.391 255.734C289.07 256.337 294.131 256.602 294.939 257.205C294.851 257.796 294.862 257.956 294.34 258.33C293.067 259.243 288.719 258.553 287.244 258.094C285.277 257.483 283.572 256.202 282.662 254.332C280.734 250.376 280.83 243.209 280.052 238.676C278.753 240.207 277.412 241.11 275.656 242.034C275.959 242.777 276.286 243.517 276.54 244.279L275.838 243.746C275.375 244.097 275.025 244.499 274.648 244.935C274.229 244.2 273.97 243.334 273.671 242.541C271.181 243.149 268.732 243.394 266.293 242.368C261.726 240.443 258.763 234.369 257.06 230.044C259.783 228.311 262.089 226.069 264.959 224.504C263.399 218.203 262.933 217.674 258.942 212.868C259.497 213.19 259.936 213.461 260.59 213.54L260.97 213.132L260.925 212.319L261.17 212.449L261.35 212.274C261.136 211.253 260.849 210.26 260.561 209.258Z" fill="url(#paint1_linear_4444_287)"/>
<path d="M269.632 229.811C272.02 229.773 274.135 229.902 276.447 230.533C277.326 231.936 278.501 233.642 278.609 235.331C278.707 236.852 277.993 237.702 277.05 238.812L275.14 240.512C274.08 236.464 271.109 233.603 269.632 229.811Z" fill="#FEFEFE"/>
<path d="M265.311 226.625L265.808 226.79C266.113 229.446 271.579 237.583 273.095 240.804C271.314 241.011 269.533 241.025 267.751 240.831C263.812 238.713 261.271 234.743 259.494 230.758L265.311 226.625Z" fill="#FEFEFE"/>
<path d="M308.302 133.843C311.673 133.249 316.093 133.525 319.511 133.826C326.767 134.463 333.149 136.736 337.93 142.393L338.163 142.388C338.292 142.386 338.421 142.387 338.55 142.385C342.997 142.301 347.742 143.749 351.46 146.177C360.762 152.251 365.322 163.952 367.414 174.432C369.992 187.337 368.722 200.957 366.182 213.754C365.681 216.276 365.265 219.831 363.84 221.979L363.358 222.024C363.216 221.931 362.402 221.46 362.364 221.367C362.146 220.836 364.559 211.521 364.728 209.798C365.089 206.131 364.83 201.921 363.369 198.492C362.391 196.198 360.697 194.128 358.31 193.232C356.189 192.435 353.804 192.673 351.766 193.604C347.894 195.372 345.945 199.019 344.513 202.806C341.973 204.248 339.436 205.678 336.98 207.259C335.59 204.603 333.974 202.271 332.036 199.985C325.998 194.13 317.689 192.011 310.85 187.402C308.351 185.719 306.284 183.698 304.251 181.49C299.884 184.468 292.802 187.351 287.75 189.138C278.332 192.467 265.883 195.053 256.467 190.5C249.519 187.14 245.552 181.674 243.1 174.51C253.856 172.08 258.134 164.897 264.869 157.081C276.017 144.145 291.014 135.103 308.302 133.843Z" fill="#FEFEFE"/>
<path d="M113.637 370.109L170.914 370.15L190.549 370.151C194.092 370.152 197.675 370.037 201.212 370.204C202.536 370.267 204.387 370.378 205.587 370.966C206.671 371.497 207.704 372.749 208.17 373.845C209.876 377.861 210.968 382.335 212.322 386.494L221.56 415.051L235.468 457.678C238.94 468.17 242.701 478.653 245.815 489.257C246.396 491.236 246.235 493.306 245.275 495.127C242.824 496.106 216.634 492.805 212.442 492.352L148.278 485.752L127.977 483.588C123.11 483.1 118.139 482.788 113.32 481.969C110.792 476.291 109 470.05 106.914 464.181L95.3532 431.703L80.3067 389.216C79.0579 385.634 77.5669 382.129 76.396 378.522C75.9808 377.243 75.5435 375.845 75.7519 374.49C76.0361 372.643 77.3857 371.331 78.8173 370.268C83.3476 370.029 87.9218 370.147 92.4589 370.148L113.637 370.109Z" fill="#FEFEFE"/>
<path d="M400.857 267.125C410.388 271.225 420.049 274.912 429.735 278.626C439.708 282.452 478.068 295.696 483.406 303.16C488.172 309.827 489.918 320.739 490.895 328.862C492.843 345.036 492.698 361.424 491.895 377.672C490.672 402.394 487.652 426.86 484.011 451.327C483.277 456.259 482.72 461.24 481.864 466.151C480.542 473.727 478.992 480.351 472.326 484.978C467.447 488.364 461.606 489.919 455.718 490.124C447.218 490.419 438.228 488.071 429.873 486.571C412.251 483.409 394.651 480.203 377.141 476.456C372.667 475.498 368.245 474.371 363.823 473.195C361.206 472.5 358.541 471.639 355.873 471.181L355.616 471.14C355.929 470.327 356.212 469.501 356.493 468.676C360.545 456.832 360.294 437.689 354.765 426.446C371.637 429.997 390.948 432.784 408.072 433.022C412.616 433.085 417.171 433.06 421.711 432.829C429.757 432.421 436.811 431.642 444.872 433.193C454.358 435.02 463.57 439.567 468.181 448.497C469.309 450.684 469.858 453.885 471.279 455.804C471.611 456.253 471.767 456.193 472.292 456.255C472.668 455.969 472.74 455.929 472.806 455.43C473.153 452.767 469.414 446.141 467.816 443.97C461.34 435.173 451.495 432.135 441.172 430.55C445.848 430.395 450.575 430.888 455.131 431.972C456.399 432.273 463.468 434.772 463.752 434.754C464.329 434.715 464.461 434.545 464.869 434.182L464.826 433.74C464.633 433.52 464.461 433.321 464.214 433.157C457.616 428.798 443.552 427.793 436.02 429.137C438.227 427.53 440.261 425.661 442.431 423.996C446.591 420.803 451.089 418.241 455.869 416.104C459.099 414.622 462.745 413.882 465.86 412.203C466.174 411.745 466.159 411.74 466.112 411.183C465.596 410.84 465.269 410.803 464.647 410.848C462.759 410.982 460.652 411.899 458.885 412.559C450.045 415.857 441.808 420.565 435.372 427.567C436.521 420.51 437.843 413.485 439.185 406.462C439.917 402.638 440.325 398.244 441.884 394.664C444.838 387.883 453.862 377.936 459.193 372.733C460.886 371.08 462.651 369.454 464.503 367.984C466.303 366.557 468.288 365.246 469.878 363.585C470.048 363.043 470.034 362.998 469.866 362.454C469.578 362.283 469.514 362.157 469.159 362.234C467.092 362.682 464.358 365.248 462.784 366.626C454.355 374.012 447.096 382.373 440.951 391.739C440.935 369.389 447.139 348.048 455.716 327.555C458.573 320.727 461.92 314.019 465.887 307.766C466.955 306.083 471.218 301.403 471.162 299.878C471.149 299.532 470.927 299.467 470.687 299.261C470.257 299.27 470.001 299.361 469.661 299.613C467.69 301.07 466.175 303.663 464.804 305.682C458.603 314.81 454.491 324.736 450.613 335.012C446.58 345.699 443.057 356.45 440.942 367.699C439.792 373.819 439.121 379.887 438.94 386.111C438.835 389.688 439.11 393.344 438.707 396.9C438.224 401.158 437.275 405.395 436.461 409.601C435.151 416.371 433.825 423.136 432.617 429.926C410.606 432.821 388.512 430.038 366.765 426.492C369.745 420.325 371.964 413.62 374.504 407.25C378.419 397.434 382.545 387.706 386.406 377.861C391.768 364.183 397.032 350.475 402.113 336.689C405.095 328.598 408.274 320.459 410.676 312.174C407.052 309.153 401.552 304.903 397.28 303.023C401.597 301.083 406.092 299.264 410.193 296.903C409.817 293.2 408.404 289.467 407.215 285.956C405.098 279.705 402.612 273.48 400.857 267.125Z" fill="#FEFEFE"/>
<path d="M338.494 219.29C337.886 216.551 334.944 209.273 333.549 205.977L268.122 225.757L268.502 228.039L270.784 231.843L271.926 234.126L274.969 239.451L275.729 242.114L286.761 262.275L304.639 279.773L324.039 273.687C329.618 258.724 340.777 227.963 340.777 224.616C340.777 220.431 339.255 222.714 338.494 219.29Z" fill="white" stroke="white" stroke-width="0.760786"/>
<path d="M265.078 226.895L263.556 222.711L254.807 229.558L260.513 241.35L269.262 244.393L273.066 242.872L265.078 226.895Z" fill="white" stroke="white" stroke-width="0.760786"/>
<path d="M331 425L311.5 418C312.194 389.891 313.532 375.125 318 350.5C320.547 334.67 322.551 326.093 327.5 311H334C336.063 329.138 336.287 339.323 336 357.5L333.5 406L331 425Z" fill="#F3A73D" stroke="#F3A73D"/>
</g>
<rect x="9.31006" y="491.141" width="540.913" height="13.1683" fill="black"/>
</g>
<defs>
<linearGradient id="paint0_linear_4444_287" x1="270.806" y1="429.779" x2="269.413" y2="427.912" gradientUnits="userSpaceOnUse">
<stop stop-color="#030012"/>
<stop offset="1" stop-color="#080327"/>
</linearGradient>
<linearGradient id="paint1_linear_4444_287" x1="268.891" y1="244.328" x2="283.01" y2="227.054" gradientUnits="userSpaceOnUse">
<stop stop-color="#000005"/>
<stop offset="1" stop-color="#0C0423"/>
</linearGradient>
<clipPath id="clip0_4444_287">
<rect width="541" height="408" fill="white" transform="translate(0 90)"/>
</clipPath>
<clipPath id="clip1_4444_287">
<rect width="435.17" height="394.848" fill="white" transform="translate(68.7959 120)"/>
</clipPath>
</defs>
</svg>
