<svg width="57" height="59" viewBox="0 0 57 59" fill="none" xmlns="http://www.w3.org/2000/svg">
<g clip-path="url(#clip0_28_759)">
<path d="M6.30859 -6.10352e-05H47.423V31.6507H6.30859V-6.10352e-05Z" fill="#64E1DC"/>
<path d="M26.918 -6.10352e-05H47.4226V31.6507H26.918V-6.10352e-05Z" fill="#00C8C8"/>
<path d="M41.1144 19.0325V47.8022L28.4962 53.8378H0V6.41423H28.4962L31.6507 15.8779L41.1144 19.0325Z" fill="#E0F4FF"/>
<path d="M41.115 19.0325V47.8022L28.4967 53.8378H20.6104V6.41423H28.4967L31.6513 15.8779L41.115 19.0325Z" fill="#BBDCFF"/>
<path d="M30.7265 6.41423H28.4961V19.0325H41.1143V16.8161L30.7265 6.41423Z" fill="#9ABADB"/>
<path d="M42.6917 38.1175V47.4235H39.5371V38.1175C40.0731 38.0543 40.5784 37.9598 41.1144 37.9598C41.6504 37.9598 42.1556 38.0543 42.6917 38.1175Z" fill="#BBDCFF"/>
<path d="M42.6915 38.1175V47.4235H41.1143V37.9598C41.6503 37.9598 42.1555 38.0543 42.6915 38.1175Z" fill="#9ABADB"/>
<path d="M6.30957 22.187H31.6512V25.3416H6.30957V22.187Z" fill="#BBDCFF"/>
<path d="M6.30957 28.4961H28.4966V31.6507H6.30957V28.4961Z" fill="#BBDCFF"/>
<path d="M6.30957 34.8053H28.4966V37.9598H6.30957V34.8053Z" fill="#BBDCFF"/>
<path d="M6.30957 41.1144H25.3421V44.2689H6.30957V41.1144Z" fill="#BBDCFF"/>
<path d="M12.6182 15.8779H22.187V19.0325H12.6182V15.8779Z" fill="#BBDCFF"/>
<path d="M20.6104 15.8779H22.1876V19.0325H20.6104V15.8779Z" fill="#9ABADB"/>
<path d="M20.6104 41.1143H25.3422V44.2689H20.6104V41.1143Z" fill="#9ABADB"/>
<path d="M20.6104 28.4961H28.4967V31.6507H20.6104V28.4961Z" fill="#9ABADB"/>
<path d="M20.6104 34.8052H28.4967V37.9598H20.6104V34.8052Z" fill="#9ABADB"/>
<path d="M20.6104 22.187H31.6513V25.3415H20.6104V22.187Z" fill="#9ABADB"/>
<path d="M39.0618 54.423C46.1143 54.423 51.8315 48.7057 51.8315 41.6532C51.8315 34.6007 46.1143 28.8834 39.0618 28.8834C32.0092 28.8834 26.292 34.6007 26.292 41.6532C26.292 48.7057 32.0092 54.423 39.0618 54.423Z" fill="#FAB400"/>
<path d="M31.2032 40.1796C29.1826 40.1796 27.3997 41.1963 26.3379 42.7464C26.6586 46.5267 28.6256 49.8375 31.5195 51.9588C34.6274 51.7942 37.0969 49.2221 37.0969 46.0734C37.0969 42.8186 34.458 40.1796 31.2032 40.1796Z" fill="#DC9600"/>
<path d="M44.9554 33.3037C44.9554 31.9865 44.5232 30.7704 43.7929 29.7886C42.3298 29.2046 40.7331 28.8834 39.0617 28.8834C37.3903 28.8834 35.7936 29.2046 34.3305 29.7886C33.6002 30.7704 33.168 31.9865 33.168 33.3037C33.168 36.5585 35.8069 39.1974 39.0617 39.1974C42.3165 39.1974 44.9554 36.5585 44.9554 33.3037Z" fill="#DC9600"/>
<path d="M51.7854 42.7464C50.7235 41.1963 48.9407 40.1796 46.9201 40.1796C43.6653 40.1796 41.0264 42.8186 41.0264 46.0734C41.0264 49.2221 43.4958 51.7942 46.6038 51.9588C49.4976 49.837 51.4647 46.5262 51.7854 42.7464Z" fill="#DC9600"/>
<path d="M31.2033 51.4761C34.4583 51.4761 37.097 48.8374 37.097 45.5824C37.097 42.3273 34.4583 39.6886 31.2033 39.6886C27.9483 39.6886 25.3096 42.3273 25.3096 45.5824C25.3096 48.8374 27.9483 51.4761 31.2033 51.4761Z" fill="#C80A50"/>
<path d="M35.1327 49.0205C35.1327 48.2067 34.4731 47.5471 33.6593 47.5471H28.7478C27.934 47.5471 27.2744 48.2067 27.2744 49.0205V49.9748C28.3171 50.9085 29.6938 51.4763 31.2036 51.4763C32.7133 51.4763 34.09 50.9085 35.1327 49.9748V49.0205Z" fill="#F0F0F0"/>
<path d="M29.2383 47.5471C29.2383 48.6321 30.1179 49.5117 31.2029 49.5117C32.2878 49.5117 33.1674 48.6321 33.1674 47.5471H29.2383Z" fill="#D2D2D2"/>
<path d="M31.204 48.5293C30.6613 48.5293 30.2217 48.0898 30.2217 47.547V46.0736H32.1863V47.547C32.1863 48.0898 31.7467 48.5293 31.204 48.5293Z" fill="#D2AA82"/>
<path d="M31.694 46.5647H30.7117C29.8979 46.5647 29.2383 45.9051 29.2383 45.0913V43.6179C29.2383 43.0752 29.6779 42.6356 30.2206 42.6356H32.1851C32.7279 42.6356 33.1674 43.0752 33.1674 43.6179V45.0913C33.1674 45.9051 32.5078 46.5647 31.694 46.5647Z" fill="#F0C8A0"/>
<path d="M32.1851 42.6357H30.2206C29.6779 42.6357 29.2383 43.0753 29.2383 43.618V42.6357C29.2383 42.093 29.6779 41.6534 30.2206 41.6534H32.1851C32.7279 41.6534 33.1674 42.093 33.1674 42.6357V43.618C33.1674 43.0753 32.7279 42.6357 32.1851 42.6357Z" fill="#0A5078"/>
<path d="M46.9201 51.4761C50.1751 51.4761 52.8138 48.8374 52.8138 45.5824C52.8138 42.3273 50.1751 39.6886 46.9201 39.6886C43.6651 39.6886 41.0264 42.3273 41.0264 45.5824C41.0264 48.8374 43.6651 51.4761 46.9201 51.4761Z" fill="#0A5078"/>
<path d="M50.8495 49.0205C50.8495 48.2067 50.1899 47.5471 49.3761 47.5471H44.4646C43.6508 47.5471 42.9912 48.2067 42.9912 49.0205V49.9748C44.0339 50.9085 45.4106 51.4763 46.9204 51.4763C48.4301 51.4763 49.8068 50.9085 50.8495 49.9748V49.0205Z" fill="#00A0C8"/>
<path d="M44.9551 47.5471C44.9551 48.6321 45.8347 49.5117 46.9197 49.5117C48.0046 49.5117 48.8842 48.6321 48.8842 47.5471H44.9551Z" fill="#0082AA"/>
<path d="M46.9208 48.5293C46.3781 48.5293 45.9385 48.0897 45.9385 47.547V46.0736H47.9031V47.547C47.9031 48.0897 47.4635 48.5293 46.9208 48.5293Z" fill="#D2AA82"/>
<path d="M47.4108 46.5647H46.4285C45.6147 46.5647 44.9551 45.9051 44.9551 45.0913V43.6179C44.9551 43.0752 45.3947 42.6356 45.9374 42.6356H47.9019C48.4447 42.6356 48.8842 43.0752 48.8842 43.6179V45.0913C48.8842 45.9051 48.2246 46.5647 47.4108 46.5647Z" fill="#F0C8A0"/>
<path d="M47.9019 42.6357H45.9374C45.3947 42.6357 44.9551 43.0753 44.9551 43.618V42.6357C44.9551 42.093 45.3947 41.6534 45.9374 41.6534H47.9019C48.4447 41.6534 48.8842 42.093 48.8842 42.6357V43.618C48.8842 43.0753 48.4447 42.6357 47.9019 42.6357Z" fill="#DC9600"/>
<path d="M39.0607 38.7064C42.3157 38.7064 44.9545 36.0677 44.9545 32.8127C44.9545 29.5577 42.3157 26.9189 39.0607 26.9189C35.8057 26.9189 33.167 29.5577 33.167 32.8127C33.167 36.0677 35.8057 38.7064 39.0607 38.7064Z" fill="#00A0C8"/>
<path d="M39.5523 27.9014H38.57C37.2139 27.9014 36.1143 29.001 36.1143 30.3571V35.2685C36.1143 35.5396 36.3343 35.7597 36.6054 35.7597H41.5168C41.788 35.7597 42.008 35.5396 42.008 35.2685V30.3571C42.008 29.001 40.9083 27.9014 39.5523 27.9014Z" fill="#0A5078"/>
<path d="M41.0265 34.7774H37.0974C36.0125 34.7774 35.1328 35.657 35.1328 36.742V37.2051C36.1755 38.1388 37.5522 38.7065 39.062 38.7065C40.5717 38.7065 41.9484 38.1388 42.9911 37.2051V36.742C42.9911 35.657 42.1115 34.7774 41.0265 34.7774Z" fill="#C80A50"/>
<path d="M37.0977 34.7774C37.0977 35.8623 37.9773 36.742 39.0622 36.742C40.1472 36.742 41.0268 35.8623 41.0268 34.7774H37.0977Z" fill="#A00028"/>
<path d="M39.0614 35.7597C38.5187 35.7597 38.0791 35.3201 38.0791 34.7774V33.3039H40.0437V34.7774C40.0437 35.3201 39.6041 35.7597 39.0614 35.7597Z" fill="#D2AA82"/>
<path d="M39.5534 33.7951H38.5711C37.7573 33.7951 37.0977 33.1355 37.0977 32.3216V30.8482C37.0977 30.3055 37.5372 29.8659 38.0799 29.8659H38.5711C38.5711 30.4086 39.0107 30.8482 39.5534 30.8482H41.0268V32.3216C41.0268 33.1355 40.3672 33.7951 39.5534 33.7951Z" fill="#F0C8A0"/>
</g>
<defs>
<clipPath id="clip0_28_759">
<rect width="56.0323" height="58.9583" fill="white"/>
</clipPath>
</defs>
</svg>
