<svg width="43" height="43" viewBox="0 0 43 43" fill="none" xmlns="http://www.w3.org/2000/svg">
<circle cx="21.82" cy="21.7429" r="20.8445" fill="#C6C6FF"/>
<mask id="mask0_619_140" style="mask-type:alpha" maskUnits="userSpaceOnUse" x="12" y="12" width="20" height="20">
<rect x="12.2002" y="12.1211" width="19.2388" height="19.2388" fill="#D9D9D9"/>
</mask>
<g mask="url(#mask0_619_140)">
<path d="M17.8119 25.748H23.4233V24.1448H17.8119V25.748ZM17.8119 22.5416H25.8281V20.9383H17.8119V22.5416ZM17.8119 19.3351H25.8281V17.7319H17.8119V19.3351ZM16.2087 28.9545C15.7678 28.9545 15.3904 28.7975 15.0764 28.4835C14.7625 28.1696 14.6055 27.7921 14.6055 27.3513V16.1286C14.6055 15.6877 14.7625 15.3103 15.0764 14.9963C15.3904 14.6824 15.7678 14.5254 16.2087 14.5254H27.4313C27.8722 14.5254 28.2497 14.6824 28.5636 14.9963C28.8776 15.3103 29.0346 15.6877 29.0346 16.1286V27.3513C29.0346 27.7921 28.8776 28.1696 28.5636 28.4835C28.2497 28.7975 27.8722 28.9545 27.4313 28.9545H16.2087ZM16.2087 27.3513H27.4313V16.1286H16.2087V27.3513Z" fill="#1C1B1F"/>
</g>
</svg>
