<svg width="45" height="69" viewBox="0 0 45 69" fill="none" xmlns="http://www.w3.org/2000/svg">
<g clip-path="url(#clip0_6083_5508)">
<path d="M16.0998 31.8138C15.7231 36.5834 16.3513 41.379 17.9439 45.8906C18.7533 48.2696 19.7809 50.5852 20.4003 53.0275C20.7091 54.1936 20.8862 55.3905 20.9282 56.596C20.933 57.8986 20.8032 59.1982 20.5411 60.4742C20.0695 62.9095 19.4009 65.2955 19.0489 67.7589C18.7173 69.9997 18.5924 72.2662 18.6759 74.5299C18.7546 76.8401 19.1331 79.1304 19.802 81.3431C20.4948 83.4802 21.4776 85.5122 22.723 87.382C23.4637 88.4543 24.1001 89.595 24.6234 90.7886C25.1274 92.111 25.3665 93.5196 25.3272 94.9342C25.3272 97.7496 24.7008 100.488 25.0457 103.282C25.0879 103.599 25.6791 103.563 25.6369 103.218C25.3272 100.685 25.8199 98.1649 25.9114 95.6381C25.9765 94.459 25.8914 93.2764 25.658 92.1189C25.3941 91.0142 24.9646 89.9559 24.3841 88.9797C23.2438 86.9738 21.8925 85.1438 21.0127 82.9971C20.1513 80.8318 19.6061 78.5538 19.3938 76.2332C19.1756 73.9286 19.1968 71.6076 19.4572 69.3074C19.7514 66.9589 20.1838 64.6299 20.7522 62.3323C21.4196 59.9102 21.632 57.3853 21.3787 54.8857C20.9259 52.5033 20.218 50.1766 19.2671 47.9458C17.3527 42.8148 16.121 37.3882 16.6559 31.8631C16.6559 31.5463 16.0998 31.4548 16.0717 31.7786L16.0998 31.8138Z" fill="#E0E0E0"/>
<path d="M15.4101 33.0185C15.5032 33.5609 15.381 34.1181 15.0694 34.5716C14.7579 35.0252 14.2816 35.3392 13.742 35.4468C13.3267 35.4961 12.3906 35.3342 12.4047 34.743C12.4047 34.3629 12.9537 34.4262 13.2 34.4825C13.3485 34.5212 13.4876 34.5899 13.6086 34.6843C13.7297 34.7787 13.8301 34.8969 13.9038 35.0315C14.0288 35.2354 14.1089 35.4635 14.1387 35.7008C14.1685 35.938 14.1475 36.1789 14.0769 36.4074C14.0063 36.6358 13.8878 36.8466 13.7293 37.0256C13.5708 37.2047 13.376 37.3479 13.1578 37.4457C12.9416 37.5202 12.71 37.5386 12.4847 37.4992C12.2594 37.4599 12.0478 37.3639 11.8697 37.2205C11.7089 37.0855 11.6056 36.8941 11.5812 36.6856C11.5389 36.2632 11.9824 36.3055 12.2428 36.4955C12.469 36.6552 12.6336 36.8877 12.7092 37.1541C12.7848 37.4205 12.7667 37.7048 12.658 37.9595C12.528 38.2106 12.3216 38.414 12.0687 38.5404C11.8158 38.6669 11.5293 38.7099 11.2504 38.6634C11.0392 38.6634 11.0885 38.9378 11.2504 38.9871C11.5692 39.078 11.9089 39.0642 12.2193 38.9476C12.5297 38.8311 12.7946 38.6179 12.9748 38.3396C13.1455 38.0353 13.2105 37.683 13.1596 37.3378C13.1086 36.9927 12.9446 36.6741 12.6932 36.4322C12.465 36.1728 12.144 36.0135 11.7994 35.9888C11.7181 35.9878 11.6374 36.0032 11.5622 36.0341C11.487 36.065 11.4188 36.1106 11.3617 36.1685C11.3045 36.2263 11.2596 36.295 11.2296 36.3705C11.1996 36.4461 11.1851 36.5269 11.187 36.6081C11.187 37.312 11.8909 37.8047 12.5173 37.9102C12.8524 37.9734 13.1986 37.9385 13.5144 37.81C13.8302 37.6814 14.1023 37.4645 14.298 37.1853C14.4919 36.8785 14.6035 36.5269 14.622 36.1645C14.6405 35.802 14.5653 35.4409 14.4036 35.116C14.2328 34.7774 13.9606 34.5005 13.625 34.3239C13.2894 34.1473 12.9071 34.0797 12.5313 34.1306C12.4491 34.1401 12.3695 34.166 12.2974 34.2068C12.2254 34.2476 12.1622 34.3024 12.1117 34.368C12.0611 34.4337 12.0243 34.5087 12.0033 34.5888C11.9823 34.669 11.9775 34.7525 11.9894 34.8345C12.0254 35.0046 12.1009 35.1639 12.2097 35.2996C12.3185 35.4353 12.4576 35.5435 12.6158 35.6157C12.9812 35.8175 13.3982 35.9065 13.8141 35.8714C14.23 35.8363 14.6261 35.6788 14.9526 35.4186C15.2886 35.1351 15.5343 34.7595 15.6593 34.338C15.7844 33.9165 15.7834 33.4676 15.6564 33.0467C15.6564 32.92 15.4101 32.8567 15.4312 33.0467L15.4101 33.0185Z" fill="#E0E0E0"/>
<path d="M18.6266 32.5324C18.4577 31.6315 16.135 29.527 15.8113 29.5974C15.4875 29.6678 14.2417 32.4128 14.4036 33.3348C14.4542 33.519 14.5534 33.6861 14.6909 33.8186C14.8284 33.9511 14.999 34.0442 15.1849 34.0879C15.6929 34.2371 16.2292 34.2632 16.7494 34.1641C17.2695 34.0649 17.7586 33.8434 18.1762 33.5178C18.334 33.4099 18.4598 33.2614 18.5404 33.088C18.6209 32.9146 18.6531 32.7227 18.6337 32.5324H18.6266Z" fill="#BA68C8"/>
<path opacity="0.3" d="M18.6266 32.5324C18.4577 31.6315 16.135 29.527 15.8113 29.5974C15.4875 29.6678 14.2417 32.4128 14.4036 33.3348C14.4542 33.519 14.5534 33.6861 14.6909 33.8186C14.8284 33.9511 14.999 34.0442 15.1849 34.0879C15.6929 34.2371 16.2292 34.2632 16.7494 34.1641C17.2695 34.0649 17.7586 33.8434 18.1762 33.5178C18.334 33.4099 18.4598 33.2614 18.5404 33.088C18.6209 32.9146 18.6531 32.7227 18.6337 32.5324H18.6266Z" fill="white"/>
<path d="M25.1231 11.1424C26.4322 17.9978 22.7089 27.6826 15.9731 30.6669C8.51947 30.0405 1.59368 22.7417 0.284537 15.8863C-1.02461 9.03086 2.17083 1.80946 10.1383 0.261006C18.1058 -1.28744 23.8139 4.2729 25.1231 11.1424Z" fill="#BA68C8"/>
<path opacity="0.5" d="M25.1231 11.1424C26.4322 17.9978 22.7089 27.6826 15.9731 30.6669C8.51947 30.0405 1.59368 22.7417 0.284537 15.8863C-1.02461 9.03086 2.17083 1.80946 10.1383 0.261006C18.1058 -1.28744 23.8139 4.2729 25.1231 11.1424Z" fill="#FDBAA4"/>
<path opacity="0.05" d="M1.50919 19.3495C1.50919 19.3495 4.61312 25.5785 12.8621 24.5509C20.8015 23.5584 25.5313 13.7258 24.2151 8.06689C24.6242 9.05769 24.9285 10.0886 25.123 11.1427C26.4322 17.9981 22.7089 27.6829 15.9731 30.6672C9.80043 30.1464 4.00782 25.0365 1.43176 19.4058L1.50919 19.3495Z" fill="black"/>
<path d="M31.8799 46.3906C33.8225 53.4783 28.7126 59.8621 28.1214 66.7386C28.0092 68.4402 28.1563 70.149 28.5578 71.8063C28.9995 73.5535 29.2357 75.3464 29.2616 77.1484C29.1842 80.7239 28.1707 84.2854 27.1501 87.706C26.5194 89.6306 25.9931 91.5878 25.5735 93.569C25.2145 95.4835 25.7635 97.4261 25.3694 99.3335C25.299 99.6573 25.8973 99.7347 25.9677 99.4039C26.3196 97.7076 25.8621 95.9973 26.0662 94.287C26.3737 92.3986 26.8447 90.5405 27.4739 88.7337C28.5015 85.3271 29.5854 81.8149 29.8106 78.2464C29.9321 76.5087 29.8089 74.7626 29.4446 73.0591C28.9892 71.344 28.7318 69.5822 28.6774 67.8085C28.7408 64.2893 30.0851 60.9742 31.2253 57.6872C32.443 54.0906 33.4917 50.128 32.1967 46.4258C32.1403 46.2569 31.8447 46.1935 31.9081 46.4258L31.8799 46.3906Z" fill="#E0E0E0"/>
<path d="M30.3668 47.3692C30.5545 47.8344 30.5704 48.3512 30.4118 48.8271C30.2532 49.303 29.9303 49.7068 29.501 49.9663C29.2879 50.0861 29.0502 50.1553 28.8062 50.1687C28.5621 50.1821 28.3183 50.1394 28.0933 50.0438C27.9244 49.9663 27.6922 49.8045 27.7625 49.5722C27.7938 49.5096 27.8394 49.4553 27.8957 49.4137C27.952 49.3721 28.0173 49.3444 28.0863 49.3329C28.2662 49.2787 28.4562 49.2663 28.6416 49.2968C28.8271 49.3273 29.0031 49.3998 29.1561 49.5088C29.3565 49.6648 29.5185 49.8645 29.63 50.0925C29.7415 50.3206 29.7994 50.5712 29.7994 50.825C29.7994 51.0789 29.7415 51.3294 29.63 51.5575C29.5185 51.7856 29.3565 51.9852 29.1561 52.1412C28.9652 52.2627 28.7478 52.3364 28.5224 52.356C28.2969 52.3756 28.0701 52.3405 27.8611 52.2538C27.7576 52.2085 27.6644 52.1428 27.5869 52.0606C27.5095 51.9783 27.4496 51.8812 27.4106 51.7752C27.298 51.3811 27.7062 51.3318 27.9878 51.4303C28.2584 51.5364 28.4801 51.739 28.6101 51.999C28.74 52.259 28.7691 52.5579 28.6916 52.838C28.5965 53.0978 28.4269 53.3238 28.2041 53.4878C27.9813 53.6518 27.7151 53.7465 27.4388 53.76C27.2347 53.76 27.3684 54.0838 27.5162 54.0979C27.8834 54.1186 28.2457 54.0062 28.5366 53.7812C28.8276 53.5562 29.0275 53.2338 29.0998 52.8732C29.1475 52.5191 29.0802 52.1591 28.9079 51.8461C28.7356 51.5332 28.4673 51.2838 28.1426 51.1347C27.5795 50.8813 26.7912 51.0855 26.9954 51.8386C27.13 52.1542 27.3652 52.4164 27.6643 52.5844C27.9635 52.7525 28.3098 52.8169 28.6494 52.7676C30.2964 52.6269 30.7609 50.5998 29.7122 49.4877C29.4272 49.1762 29.0403 48.9765 28.6212 48.9247C28.4297 48.891 28.2332 48.8973 28.0442 48.9434C27.8552 48.9894 27.6778 49.0741 27.5232 49.1921C26.9602 49.7904 27.8611 50.4238 28.3819 50.5294C28.7751 50.6078 29.1824 50.5727 29.5563 50.4281C29.9303 50.2835 30.2553 50.0355 30.4934 49.713C30.729 49.358 30.8628 48.9453 30.8801 48.5196C30.8975 48.094 30.7979 47.6717 30.592 47.2988C30.5216 47.1721 30.3316 47.2073 30.3879 47.3692H30.3668Z" fill="#E0E0E0"/>
<path d="M33.9633 47.5586C33.9633 46.6506 32.1615 44.0957 31.8026 44.0816C31.4436 44.0675 29.691 46.4747 29.6488 47.446C29.6609 47.6363 29.7233 47.82 29.8297 47.9783C29.936 48.1365 30.0825 48.2638 30.2541 48.3469C30.7197 48.5994 31.2383 48.7386 31.7678 48.7533C32.2973 48.768 32.8228 48.6577 33.3017 48.4313C33.4784 48.3559 33.6323 48.2357 33.7483 48.0827C33.8643 47.9296 33.9384 47.749 33.9633 47.5586Z" fill="#BA68C8"/>
<path opacity="0.3" d="M33.9633 47.5586C33.9633 46.6506 32.1615 44.0957 31.8026 44.0816C31.4436 44.0675 29.691 46.4747 29.6488 47.446C29.6609 47.6363 29.7233 47.82 29.8297 47.9783C29.936 48.1365 30.0825 48.2638 30.2541 48.3469C30.7197 48.5994 31.2383 48.7386 31.7678 48.7533C32.2973 48.768 32.8228 48.6577 33.3017 48.4313C33.4784 48.3559 33.6323 48.2357 33.7483 48.0827C33.8643 47.9296 33.9384 47.749 33.9633 47.5586Z" fill="black"/>
<path d="M44.8799 28.0349C44.6969 35.017 38.9817 43.6813 31.7743 45.1594C24.6233 42.9564 19.4219 34.3695 19.612 27.3663C19.802 20.3631 24.4685 13.9933 32.6119 14.2115C40.7554 14.4297 45.0699 21.0669 44.8799 28.0349Z" fill="#FDBAA4"/>
<path opacity="0.1" d="M20.0554 31.0267C20.0554 31.0267 21.7587 37.7695 30.0288 38.5296C38.0034 39.2335 44.7321 30.6677 44.6476 24.854C44.8348 25.9059 44.9127 26.9744 44.8799 28.0424C44.6969 35.0245 38.9817 43.6888 31.7744 45.1668C25.8551 43.3369 21.266 37.1079 19.9709 31.0548L20.0554 31.0267Z" fill="black"/>
</g>
<defs>
<clipPath id="clip0_6083_5508">
<rect width="45" height="69" fill="white"/>
</clipPath>
</defs>
</svg>
