<svg height="512" viewBox="0 0 68 68" width="512" xmlns="http://www.w3.org/2000/svg"><path d="M58.87 13.215v41.56a7.66 7.66 0 0 1-7.66 7.66H9.65c-4.22 0-7.65-3.43-7.65-7.66v-41.56c0-4.22 3.43-7.65 7.65-7.65h41.56c4.23 0 7.66 3.43 7.66 7.65z" fill="#dbdbdb"/><path d="M54.42 16.825v32.43c0 .98-.79 1.78-1.77 1.78H8.22c-.98 0-1.78-.8-1.78-1.78v-32.43c0-.98.8-1.78 1.78-1.78h44.43c.98 0 1.77.8 1.77 1.78z" fill="#fff"/><circle cx="8.393" cy="10.531" fill="#488ff7" r="2.073"/><path d="M28.09 9.254H14.835a.5.5 0 1 1 0-1H28.09a.5.5 0 1 1 0 1zM22.092 12.4h-7.257a.5.5 0 1 1 0-1h7.257a.5.5 0 1 1 0 1z"/><circle cx="9.948" cy="55.699" fill="#488ff7" r="2.444"/><circle cx="17.797" cy="55.699" fill="#304056" r="2.444"/><circle cx="25.646" cy="55.699" fill="#b9b9b9" r="2.444"/><path d="M44.64 48.785v2.25H16.22v-2.25c0-4.99 3.96-9.05 8.92-9.19.09-.01.19-.01.28-.01.43 0 .84-.18 1.12-.46.29-.29.47-.69.47-1.13v-1.85h6.85v1.85c0 .88.71 1.59 1.59 1.59h.01c.09 0 .18 0 .27.01 4.94.14 8.91 4.2 8.91 9.19z" fill="#488ff7"/><path d="M35.726 39.595a6.292 6.292 0 0 1-5.3 2.875 6.279 6.279 0 0 1-5.29-2.875c.09-.007.187-.007.277-.007.435 0 .84-.18 1.126-.466s.465-.69.465-1.126v-1.853h6.853v1.853c0 .879.713 1.592 1.591 1.592h.008c.09 0 .18 0 .27.007z" fill="#b9b9b9"/><path d="M23.092 26.299v-2.861c0-1.908 1.23-3.68 3.083-4.131 1.504-.367 2.893.152 4.213 1.21.807.647 1.712 1.177 2.72 1.414 1.232.29 2.794.337 3.843-.78.297-.316.824-.119.824.315v4.833z" fill="#304056"/><circle cx="23.092" cy="28.41" fill="#b9b9b9" r="2.111"/><circle cx="37.775" cy="28.41" fill="#b9b9b9" r="2.111"/><g><path d="M21.64 48.665v2.37h-1v-2.37c0-.28.22-.5.5-.5s.5.22.5.5zM40.23 48.665v2.37h-1v-2.37c0-.28.22-.5.5-.5.27 0 .5.22.5.5z" fill="#3275c6"/></g><g><path d="M37.77 26.295v3.92c0 4.06-3.28 7.34-7.34 7.34-4.05 0-7.34-3.28-7.34-7.34v-3.92z" fill="#dbdbdb"/></g><g><circle cx="55.973" cy="52.406" fill="#488ff7" r="10.027"/></g><g><path d="M60.412 51.729c-.24.228-.54.348-.852.348-.312 0-.612-.12-.852-.348l-1.535-1.547v7.342c0 .66-.54 1.2-1.2 1.2-.672 0-1.2-.54-1.2-1.2v-7.342l-1.548 1.547a1.195 1.195 0 0 1-1.692 0 1.21 1.21 0 0 1 0-1.704l3.588-3.587a1.195 1.195 0 0 1 1.692 0l3.599 3.587a1.21 1.21 0 0 1 0 1.704z" fill="#fff"/></g></svg>