<svg id="Layer_1" enable-background="new 0 0 68 68" height="512" viewBox="0 0 68 68" width="512" xmlns="http://www.w3.org/2000/svg"><g><g><g><g><g><g><g><path d="m57.0244942 14.5956478-10.07481-.7451982c-.6365242-.0465212-.9779968-.7606421-.6209831-1.2883921l1.6610374-2.4372187c-10.7578545-6.333662-24.6048927-4.6415462-33.5620499 4.3155155-9.2210312 9.2210321-10.7267771 23.6269951-3.7101669 34.5090637.2018147.3259354.1242151.760643-.2018147.9934387l-2.0645733 1.3971634c-.341568.2328911-.8072577.1397552-1.0401502-.2018127-8.0567598-12.4499702-6.3335667-28.9360447 4.2224727-39.4920845 10.307704-10.307704 26.2503929-12.2170782 38.5916862-4.7967443l1.8006973-2.6390338c.3571091-.5278447 1.1488266-.4656894 1.4282417.1086769l4.3776703 9.0968151c.2794162.5743671-.1708325 1.2263322-.8072575 1.179811z" fill="#dbdbdb"/></g></g></g></g></g><g><g><g><g><g><g><path d="m56.3569908 56.3696556c-6.1163101 6.1163101-14.2196846 9.2676506-22.3850288 9.2676506-5.573019 0-11.1614838-1.4592285-16.1756763-4.4708099l-1.8006973 2.6390343c-.3570127.5277519-1.1487322.4656868-1.4281454-.1086769l-4.3932104-9.0969124c-.263875-.5743675.1707373-1.2263298.8072586-1.1797142l10.0748118.7451019c.6364269.0465202.9934387.760643.6364269 1.2884865l-1.6610394 2.4372177c10.7424107 6.3180275 24.5739117 4.6260109 33.5310669-4.315609 9.2210312-9.2210312 10.7423172-23.6268978 3.7411499-34.5089684-.2173538-.3260288-.1396599-.7761803.2018127-.9935341l2.0491295-1.3971634c.3414726-.2327957.8227005-.1551971 1.0400543.2018147 8.0567609 12.4499703 6.3181287 28.951582-4.237913 39.4920826z" fill="#304056"/></g></g></g></g></g></g></g><g><g><g><g><path d="m53.5205688 24.557478-4.3691101 20.5576267c-.2413635 1.0460663-.8656616 1.9928398-1.7716331 2.576828l-11.1346436 7.2890587c-1.3690338.9054794-3.1411591.9054794-4.510191 0l-11.1144886-7.2890587c-.9059715-.5839882-1.5302696-1.5307617-1.7716331-2.576828l-4.3696012-20.5576267c-.4025993-1.8728981.5436811-3.7861023 2.2754965-4.591301l15.4835968-7.2487507c1.1070251-.5033722 2.3959312-.5033722 3.5034485 0l15.5037537 7.2487507c1.7313231.8051987 2.6780929 2.7184028 2.2750052 4.591301z" fill="#488ff7"/></g></g></g><g><g><g><path d="m33.9905281 51.45681c-.0943375 0-.2369461-.0200577-.3811188-.1154976l-10.6149387-6.9613914c-.1592178-.1026459-.2751846-.2877197-.3231373-.4966164l-4.1572151-19.5598145c-.071146-.3317566.0912056-.666647.3848801-.8031406l14.7809334-6.9197083c.0717697-.0324383.1902428-.0575123.3105965-.0575123.1200409 0 .2391434.0252304.3435097.0727139l14.7608719 6.9015293c.299633.1394711.4622955.4738922.3924026.7981262l-4.1703758 19.622345c-.0363579.1546707-.1516953.3392754-.289917.4284439l-10.6425209 6.9667206c-.1570245.1037445-.2996293.1238022-.3939706.1238022z" fill="#dbdbdb"/></g></g></g></g><g><g><g><path d="m36.6443443 41.0843048h-5.2879505c-.829031 0-1.4371986-.7737045-1.2435474-1.5842934l1.4369736-5.8135719c-.838253-.7089272-1.3726482-1.7592754-1.3726482-2.9382744 0-2.1191368 1.7136173-3.832531 3.8230839-3.832531 2.1096916 0 3.8233109 1.7133942 3.8233109 3.832531 0 1.1789989-.5343971 2.2293472-1.3726501 2.9382744l1.4371986 5.8135719c.1934279.8105889-.4147417 1.5842934-1.2437708 1.5842934z" fill="#304056"/></g></g></g></g></svg>