<svg width="157" height="146" viewBox="0 0 157 146" fill="none" xmlns="http://www.w3.org/2000/svg">
<path d="M109.04 145.764C135.4 145.764 156.768 124.409 156.768 98.0656C156.768 71.7226 135.4 50.3674 109.04 50.3674C82.681 50.3674 61.3125 71.7226 61.3125 98.0656C61.3125 124.409 82.681 145.764 109.04 145.764Z" fill="#FFDDC0"/>
<mask id="mask0_3566_3544" style="mask-type:alpha" maskUnits="userSpaceOnUse" x="61" y="50" width="96" height="96">
<path d="M109.244 145.98C135.603 145.98 156.971 124.625 156.971 98.2817C156.971 71.9388 135.603 50.5836 109.244 50.5836C82.8841 50.5836 61.5156 71.9388 61.5156 98.2817C61.5156 124.625 82.8841 145.98 109.244 145.98Z" fill="#F6EFE9"/>
</mask>
<g mask="url(#mask0_3566_3544)">
<path d="M88.6942 131.347C88.6942 131.347 83.1275 126.667 86.4207 119.026C89.7139 111.385 99.3348 110.256 108.598 110.254C122.729 110.249 139.609 115.11 128.348 131.347C128.348 131.347 114.327 140.614 88.6942 131.347Z" fill="#FF9A40"/>
<path d="M102.648 122.196C102.469 122.196 102.303 122.082 102.246 121.903C101.213 118.707 98.3622 116.697 98.3337 116.677C98.1424 116.543 98.0948 116.28 98.2277 116.089C98.3605 115.897 98.6235 115.849 98.8154 115.982C98.9417 116.07 101.927 118.168 103.05 121.643C103.122 121.865 103 122.103 102.778 122.175C102.735 122.19 102.691 122.196 102.648 122.196Z" fill="#E96D17"/>
<path d="M108.651 127.876C108.512 127.876 108.375 127.808 108.295 127.682C104.61 121.946 93.6439 120.284 93.5334 120.268C93.3027 120.234 93.1425 120.02 93.1764 119.789C93.2103 119.558 93.4241 119.398 93.6554 119.432C94.1212 119.5 105.112 121.165 109.006 127.226C109.133 127.422 109.076 127.684 108.879 127.81C108.808 127.855 108.729 127.876 108.651 127.876Z" fill="#E96D17"/>
<path d="M146.661 145.939H71.6445C71.6445 145.939 72.398 136.587 76.9274 134.776C78.7574 134.044 82.9511 131.959 87.3023 129.732C93.3824 126.621 99.7664 123.235 100.419 122.889C100.455 122.869 100.474 122.859 100.474 122.859L101.047 122.989C101.764 123.149 102.484 123.287 103.207 123.401C103.921 123.516 104.639 123.609 105.355 123.68C109.315 124.068 113.322 123.797 117.21 122.863C117.215 122.862 117.222 122.861 117.228 122.859C117.228 122.859 122.135 125.386 127.606 128.139C128.307 128.491 129.016 128.848 129.727 129.203C134.563 131.622 139.406 133.987 141.379 134.777C145.906 136.587 146.661 145.939 146.661 145.939Z" fill="#FF9A40"/>
<path d="M112.647 134.035C108.52 134.035 105.095 132.949 102.665 131.833C98.8172 130.067 96.6252 127.905 96.5339 127.814C96.3797 127.66 96.3791 127.411 96.5333 127.256C96.687 127.102 96.9369 127.101 97.0916 127.255C97.1135 127.277 99.2951 129.423 103.023 131.129C106.451 132.697 111.932 134.204 118.574 132.475C118.786 132.42 119.001 132.546 119.056 132.757C119.11 132.968 118.984 133.183 118.773 133.239C116.602 133.804 114.549 134.035 112.647 134.035Z" fill="#E96D17"/>
<path d="M110.713 137.837C109.382 137.837 107.921 137.704 106.342 137.374C106.128 137.33 105.991 137.121 106.036 136.908C106.081 136.694 106.29 136.558 106.503 136.602C114.301 138.229 119.177 134.812 119.225 134.777C119.402 134.65 119.649 134.69 119.776 134.867C119.903 135.044 119.863 135.291 119.686 135.418C119.517 135.539 116.237 137.837 110.713 137.837Z" fill="#E96D17"/>
<path d="M117.628 124.769C117.628 124.769 116.157 129.39 109.397 129.39C101.512 129.39 99.6562 125.189 99.6562 125.189C100.341 123.374 100.812 121.693 101.13 120.191H101.132C101.716 117.439 101.798 115.278 101.762 113.952L115.615 113.404C115.743 114.576 115.951 115.956 116.187 117.345C116.813 121.032 117.628 124.769 117.628 124.769Z" fill="#FFB8A1"/>
<path d="M116.133 117.344C113.987 118.836 109.295 121.056 101.078 120.191C101.663 117.439 101.745 115.277 101.709 113.952L115.561 113.404C115.689 114.576 115.898 115.956 116.133 117.344Z" fill="#3F2037"/>
<path d="M96.4729 95.8985C96.4729 95.8985 92.1857 90.067 88.8515 93.5183C85.5173 96.9695 91.9479 108.99 97.783 106.371L96.4729 95.8985Z" fill="#FFB8A1"/>
<path d="M94.4046 102.789C94.2592 102.789 94.1323 102.682 94.1115 102.534C93.5478 98.4823 90.3252 95.9955 90.2929 95.971C90.1628 95.872 90.1371 95.6863 90.236 95.5562C90.335 95.4262 90.5209 95.4005 90.651 95.4994C90.7916 95.6059 94.1011 98.161 94.6977 102.452C94.7201 102.614 94.6074 102.764 94.445 102.786C94.4319 102.789 94.4183 102.789 94.4046 102.789Z" fill="#FF8A8A"/>
<path d="M93.5598 99.8796C93.4646 99.8796 93.3717 99.8337 93.3143 99.7496C92.8839 99.1135 91.5969 99.049 91.1392 99.0775C90.9746 99.0889 90.8352 98.9638 90.8248 98.8004C90.8144 98.637 90.9386 98.4966 91.102 98.4862C91.1835 98.4813 93.0983 98.3742 93.8047 99.4179C93.8966 99.5534 93.861 99.737 93.7254 99.8288C93.6746 99.8632 93.6166 99.8796 93.5598 99.8796Z" fill="#FF8A8A"/>
<path d="M122.572 95.8982C122.572 95.8982 126.859 90.0668 130.193 93.518C133.527 96.9692 127.097 108.99 121.262 106.371L122.572 95.8982Z" fill="#FFB8A1"/>
<path d="M124.605 102.789C124.591 102.789 124.578 102.788 124.564 102.787C124.402 102.764 124.289 102.615 124.311 102.453C124.908 98.1612 128.218 95.6061 128.358 95.4996C128.489 95.4006 128.674 95.4258 128.773 95.5564C128.872 95.6864 128.847 95.8722 128.717 95.9711C128.684 95.9957 125.461 98.4912 124.898 102.534C124.877 102.682 124.75 102.789 124.605 102.789Z" fill="#FF8A8A"/>
<path d="M125.499 99.8799C125.442 99.8799 125.384 99.8635 125.333 99.829C125.198 99.7372 125.162 99.5536 125.254 99.4181C125.961 98.3744 127.875 98.4815 127.957 98.4865C128.12 98.4968 128.244 98.6367 128.233 98.8001C128.224 98.9635 128.081 99.0886 127.92 99.0777C127.46 99.0504 126.173 99.1165 125.745 99.7504C125.687 99.834 125.594 99.8799 125.499 99.8799Z" fill="#FF8A8A"/>
<path d="M113.095 78.8988C101.103 75.9749 90.2482 86.8089 92.9531 98.8455C94.8624 107.341 99.0506 118.055 109.343 118.297C120.069 118.55 124.374 106.877 125.906 98.0215C127.308 89.9164 122.579 81.9369 114.758 79.3747C114.216 79.1966 113.661 79.037 113.095 78.8988Z" fill="#FFB8A1"/>
<path d="M110.235 106.173C109.726 106.173 109.166 106.04 108.551 105.773C108.379 105.699 108.276 105.518 108.3 105.331L109.158 98.7497C109.188 98.5185 109.401 98.3552 109.631 98.3852C109.862 98.4153 110.026 98.6273 109.996 98.8584L109.181 105.116C110.022 105.424 110.671 105.396 111.207 105.035C111.401 104.905 111.663 104.956 111.794 105.149C111.924 105.343 111.873 105.605 111.679 105.736C111.247 106.028 110.768 106.173 110.235 106.173Z" fill="#FF8A8A"/>
<path d="M109.459 110.512C107.038 110.512 105.201 109.514 105.17 109.496C104.966 109.382 104.893 109.125 105.007 108.921C105.121 108.717 105.378 108.645 105.582 108.758C105.787 108.872 110.466 111.391 114.515 107.648C114.686 107.489 114.954 107.499 115.112 107.671C115.271 107.842 115.26 108.109 115.089 108.268C113.211 110.004 111.186 110.512 109.459 110.512Z" fill="#FF8A8A"/>
<path d="M110.131 112.927C109.175 112.927 108.409 112.694 108.355 112.677C108.133 112.608 108.008 112.37 108.078 112.148C108.148 111.926 108.384 111.802 108.607 111.87C108.626 111.876 110.5 112.441 111.819 111.697C112.021 111.582 112.279 111.653 112.394 111.856C112.509 112.059 112.437 112.317 112.235 112.432C111.559 112.814 110.799 112.927 110.131 112.927Z" fill="#FF8A8A"/>
<path d="M101.21 94.1607C102.12 93.6722 103.448 93.0689 104.74 92.8804C105.434 92.7793 105.871 92.0821 105.634 91.422L105.586 91.2887C105.416 90.8122 104.942 90.5128 104.438 90.5663C103.285 90.6887 101.243 91.092 99.9113 92.4187C99.6226 92.7061 99.5226 93.1329 99.645 93.5214C99.8512 94.1782 100.604 94.4864 101.21 94.1607Z" fill="#3F2037"/>
<path d="M118.707 94.1607C117.797 93.6722 116.469 93.0689 115.177 92.8804C114.483 92.7793 114.047 92.0821 114.284 91.422L114.331 91.2887C114.502 90.8122 114.976 90.5128 115.479 90.5663C116.632 90.6887 118.674 91.092 120.006 92.4187C120.295 92.7061 120.395 93.1329 120.272 93.5214C120.066 94.1782 119.313 94.4864 118.707 94.1607Z" fill="#3F2037"/>
<g opacity="0.5">
<path d="M104.31 101.755C104.31 102.791 102.396 103.631 100.036 103.631C97.6754 103.631 95.7617 102.791 95.7617 101.755C95.7617 100.719 97.6754 99.8797 100.036 99.8797C102.396 99.8797 104.31 100.72 104.31 101.755Z" fill="#FF8A8A"/>
</g>
<g opacity="0.5">
<path d="M124.419 101.755C124.419 102.791 122.506 103.631 120.145 103.631C117.785 103.631 115.871 102.791 115.871 101.755C115.871 100.719 117.785 99.8797 120.145 99.8797C122.506 99.8797 124.419 100.72 124.419 101.755Z" fill="#FF8A8A"/>
</g>
<path d="M93.4168 100.695C93.4168 100.695 91.1641 88.2935 91.8601 85.4575C92.5561 82.6215 94.0106 83.1407 94.0106 83.1407C94.0106 83.1407 81.8619 73.1908 87.9037 67.5506C92.2773 63.4677 97.3086 72.2039 97.3086 72.2039C97.3086 72.2039 94.8187 63.6152 98.3595 62.4355C102.774 60.965 104.771 71.2586 104.771 71.2586C104.771 71.2586 104.407 63.5797 107.994 63.731C112.969 63.9409 110.166 69.6833 115.561 71.9236C120.956 74.1645 129.107 75.3022 126.169 84.3357C126.169 84.3357 130.127 84.163 125.203 100.283C123.931 98.516 123.294 96.3718 123.399 94.1987C123.48 92.5315 123.471 90.5988 123.129 89.4114C123.129 89.4114 120.046 87.2591 120.186 84.1084C120.186 84.1084 109.326 90.5507 99.3065 84.8089C99.3065 84.8089 99.937 88.5202 96.7843 89.0803C96.7843 89.0803 95.7542 91.4944 95.4141 94.9293C95.2173 96.9204 94.5814 98.8433 93.5168 100.538L93.4168 100.695Z" fill="#3F2037"/>
<path d="M125.155 78.6689C125.155 78.6689 126.871 72.815 129.642 74.3133C131.62 75.3821 127.012 79.836 127.012 79.836C127.012 79.836 130.889 77.7411 132.801 79.2175C134.714 80.6934 129.638 82.4376 126.713 81.9382C123.788 81.4393 125.155 78.6689 125.155 78.6689Z" fill="#3F2037"/>
<path d="M104.607 97.3863C104.627 98.5305 104.205 99.4659 103.664 99.4752C103.124 99.4845 102.669 98.5649 102.649 97.4201C102.629 96.2759 103.052 95.3404 103.592 95.3311C104.132 95.3224 104.587 96.2426 104.607 97.3863Z" fill="#3F2037"/>
<path d="M114.825 97.3864C114.805 98.5306 115.227 99.4661 115.768 99.4754C116.308 99.4846 116.763 98.565 116.783 97.4203C116.803 96.276 116.38 95.3406 115.84 95.3313C115.299 95.3225 114.845 96.2427 114.825 97.3864Z" fill="#3F2037"/>
<path d="M98.193 134.181V145.939H97.3477V134.181C97.3477 134.086 97.3788 134.001 97.4308 133.93C97.5084 133.826 97.632 133.759 97.7703 133.759C97.9748 133.759 98.1448 133.903 98.1842 134.096C98.1902 134.123 98.193 134.151 98.193 134.181Z" fill="white"/>
<path d="M121.681 134.181V145.939H120.836V134.181C120.836 133.949 121.025 133.759 121.259 133.759C121.444 133.759 121.604 133.881 121.659 134.049C121.674 134.089 121.681 134.135 121.681 134.181Z" fill="white"/>
</g>
<g opacity="0.5">
<path d="M21.125 145.235C31.9571 145.235 40.7383 136.459 40.7383 125.634C40.7383 114.809 31.9571 106.033 21.125 106.033C10.2929 106.033 1.51172 114.809 1.51172 125.634C1.51172 136.459 10.2929 145.235 21.125 145.235Z" fill="#FFDDC0"/>
<mask id="mask1_3566_3544" style="mask-type:alpha" maskUnits="userSpaceOnUse" x="0" y="102" width="44" height="44">
<path d="M21.548 145.324C33.4486 145.324 43.0959 135.683 43.0959 123.79C43.0959 111.896 33.4486 102.255 21.548 102.255C9.64735 102.255 0 111.896 0 123.79C0 135.683 9.64735 145.324 21.548 145.324Z" fill="#F6EFE9"/>
</mask>
<g mask="url(#mask1_3566_3544)">
<path d="M16.1614 114.849C16.1614 114.849 12.6675 117.874 12.5232 122.86C12.379 127.847 15.092 129.989 12.5741 132.132C10.0562 134.275 4.45764 136.596 7.8524 142.37H21.6859V115.883L16.1614 114.849Z" fill="#3F2037"/>
<path d="M27.0873 114.849C27.0873 114.849 30.5812 117.874 30.7254 122.86C30.8697 127.847 28.1567 129.989 30.6746 132.132C33.1925 134.275 38.7913 136.596 35.3963 142.37H21.5625V115.883L27.0873 114.849Z" fill="#3F2037"/>
<path d="M37.4082 144.859H5.69141C5.69141 144.859 6.00996 140.904 7.92499 140.139C8.32098 139.981 8.97982 139.672 9.77552 139.282C9.88579 139.228 9.99883 139.173 10.1137 139.116C10.1144 139.115 10.1156 139.115 10.116 139.114C11.7731 138.295 13.904 137.19 15.5146 136.347C16.8864 135.629 17.8804 135.101 17.8804 135.101L18.1229 135.155C20.3777 135.66 22.7179 135.641 24.964 135.101C24.964 135.101 25.7823 135.522 26.9645 136.124C27.6638 136.481 28.4909 136.9 29.3516 137.333C31.6649 138.497 34.2175 139.757 35.1748 140.14C37.0896 140.904 37.4082 144.859 37.4082 144.859Z" fill="#FF4F4E"/>
<path d="M12.8963 144.859H12.05C11.3941 143.416 10.2984 140.925 9.78125 139.282C9.89152 139.228 10.0046 139.172 10.1195 139.115C10.5002 140.088 11.7467 143.167 12.8963 144.859Z" fill="#C42C31"/>
<path d="M29.6484 144.859H30.4948C31.1506 143.416 32.355 140.713 32.8719 139.07C32.7616 139.016 32.6793 138.978 32.5644 138.921C32.1839 139.893 30.7981 143.167 29.6484 144.859Z" fill="#C42C31"/>
<path d="M19.8813 144.859H12.9538C11.7876 143.124 10.7061 140.609 10.1111 139.114C9.80966 138.357 9.63281 137.862 9.63281 137.862C11.4195 136.449 15.5097 136.347 15.5097 136.347C16.9653 138.297 18.8434 142.442 19.8813 144.859Z" fill="#FF4F4E"/>
<path d="M22.7031 144.859H29.6306C30.7969 143.124 31.8786 140.609 32.4734 139.114C32.7748 138.357 32.9517 137.862 32.9517 137.862C31.1649 136.449 26.9645 136.124 26.9645 136.124C25.5089 138.074 23.7411 142.442 22.7031 144.859Z" fill="#FF4F4E"/>
<path d="M26.9656 136.124C26.8809 136.871 26.7018 138.165 26.3664 139.545C25.8441 141.692 24.9416 144.045 23.424 144.859H20.9225C18.8332 143.992 17.4043 141.503 16.5288 139.383C15.9879 138.072 15.6592 136.904 15.5156 136.347C16.8874 135.628 17.8814 135.101 17.8814 135.101L18.1239 135.155C20.3788 135.659 22.7189 135.641 24.965 135.101C24.965 135.101 25.7833 135.522 26.9656 136.124Z" fill="#FFB8A1"/>
<path d="M26.3766 139.545C25.8544 141.692 24.9519 144.045 23.4342 144.859H20.9327C18.8434 143.992 17.4145 141.503 16.5391 139.383C17.6355 139.835 19.2692 140.247 21.5807 140.247C23.6111 140.247 25.199 139.929 26.3766 139.545Z" fill="#FFF7F1"/>
<path d="M25.126 135.908C25.126 135.908 24.5039 137.862 21.6457 137.862C18.3119 137.862 17.5273 136.085 17.5273 136.085C17.817 135.318 18.016 134.607 18.1504 133.972H18.1513C18.3984 132.809 18.4331 131.895 18.4178 131.335L24.2745 131.103C24.3289 131.598 24.4167 132.182 24.5164 132.769C24.781 134.328 25.126 135.908 25.126 135.908Z" fill="#FFB8A1"/>
<path d="M21.6859 138.766C19.9373 138.766 18.7935 137.87 18.142 137.119C17.4391 136.308 17.1515 135.508 17.1395 135.474C17.1182 135.414 17.1496 135.348 17.21 135.327C17.2701 135.305 17.3362 135.337 17.3575 135.397C17.3602 135.405 17.6453 136.195 18.3221 136.973C19.223 138.009 20.3548 138.535 21.6859 138.535C23.0133 138.535 24.079 138.012 24.8532 136.981C25.4353 136.205 25.6258 135.417 25.6276 135.409C25.6422 135.347 25.7046 135.309 25.7666 135.323C25.8287 135.338 25.8673 135.4 25.8528 135.462C25.8449 135.496 25.6519 136.299 25.0434 137.112C24.4792 137.866 23.4389 138.766 21.6859 138.766Z" fill="#FFF7F1"/>
<path d="M24.5174 132.769C23.6101 133.399 21.6264 134.338 18.1523 133.972C18.3995 132.809 18.4341 131.895 18.4189 131.334L24.2756 131.103C24.3299 131.598 24.4178 132.182 24.5174 132.769Z" fill="#3F2037"/>
<path d="M16.1947 123.702C16.1947 123.702 14.3821 121.236 12.9724 122.695C11.5627 124.154 14.2815 129.237 16.7486 128.129L16.1947 123.702Z" fill="#FFB8A1"/>
<path d="M15.4403 126.615C15.3788 126.615 15.3252 126.57 15.3164 126.507C15.078 124.794 13.7155 123.743 13.7019 123.732C13.6468 123.69 13.636 123.612 13.6778 123.557C13.7197 123.502 13.798 123.491 13.8533 123.533C13.9127 123.578 15.312 124.658 15.5644 126.472C15.5739 126.541 15.5263 126.604 15.4576 126.614C15.4518 126.615 15.4461 126.615 15.4403 126.615Z" fill="#FF8A8A"/>
<path d="M15.0509 125.385C15.0109 125.385 14.9714 125.365 14.9471 125.33C14.7651 125.061 14.221 125.034 14.0275 125.046C13.9579 125.05 13.8989 124.998 13.8948 124.928C13.8904 124.859 13.9429 124.8 14.012 124.796C14.0464 124.794 14.856 124.748 15.1547 125.19C15.1935 125.247 15.1785 125.324 15.1212 125.363C15.0994 125.378 15.0751 125.385 15.0509 125.385Z" fill="#FF8A8A"/>
<path d="M15.6327 128.241C15.5976 128.236 15.5631 128.224 15.5261 128.215C15.3606 128.283 15.1669 128.272 15.0316 128.177C14.6137 127.883 14.9775 127.175 14.9824 127.166C15.0166 127.101 14.9919 127.02 14.9267 126.986C14.8617 126.952 14.7811 126.976 14.7466 127.042C14.7267 127.079 14.2679 127.966 14.8784 128.395C15.0018 128.481 15.1544 128.525 15.3097 128.525C15.4621 128.525 15.6172 128.483 15.7504 128.4C15.8038 128.366 15.85 128.326 15.8916 128.283C15.8035 128.27 15.7205 128.254 15.6327 128.241Z" fill="#FFF7F1"/>
<path d="M27.2258 123.702C27.2258 123.702 29.0384 121.236 30.4481 122.695C31.858 124.154 29.1389 129.237 26.6719 128.129L27.2258 123.702Z" fill="#FFB8A1"/>
<path d="M27.9417 126.615C27.936 126.615 27.9302 126.615 27.9244 126.614C27.856 126.604 27.8081 126.541 27.8176 126.473C28.0698 124.658 29.4691 123.578 29.5285 123.533C29.5838 123.491 29.6621 123.502 29.704 123.557C29.7458 123.612 29.7352 123.69 29.6802 123.732C29.6663 123.743 28.3033 124.798 28.0656 126.507C28.0571 126.57 28.0032 126.615 27.9417 126.615Z" fill="#FF8A8A"/>
<path d="M28.3439 125.385C28.3196 125.385 28.2953 125.378 28.2739 125.363C28.2165 125.325 28.2015 125.247 28.2403 125.19C28.539 124.748 29.3486 124.794 29.383 124.796C29.4519 124.8 29.5044 124.859 29.5 124.928C29.4958 124.997 29.4357 125.05 29.3675 125.046C29.1729 125.034 28.6289 125.062 28.4477 125.33C28.4236 125.365 28.3841 125.385 28.3439 125.385Z" fill="#FF8A8A"/>
<path d="M27.7902 128.241C27.8253 128.236 27.86 128.224 27.8967 128.215C28.0622 128.283 28.256 128.272 28.3912 128.177C28.8092 127.883 28.4453 127.175 28.4404 127.166C28.4062 127.101 28.4312 127.02 28.4962 126.986C28.5613 126.952 28.642 126.976 28.6762 127.042C28.6961 127.079 29.155 127.966 28.5445 128.395C28.421 128.481 28.2685 128.525 28.1131 128.525C27.9608 128.525 27.8056 128.483 27.6725 128.4C27.6191 128.366 27.5729 128.326 27.5312 128.283C27.6193 128.27 27.7023 128.254 27.7902 128.241Z" fill="#FFF7F1"/>
<path d="M22.5253 116.31C17.17 116.154 14.6618 119.018 15.0703 124.93C15.3241 128.603 17.3008 133.069 21.6524 133.172C26.1875 133.278 28.2514 128.136 28.3502 124.338C28.454 120.344 27.505 117.672 24.1981 116.589C23.969 116.514 22.7718 116.318 22.5253 116.31Z" fill="#FFB8A1"/>
<path d="M17.7966 126.077C17.7966 126.163 17.7268 126.233 17.6405 126.233C17.5542 126.233 17.4844 126.163 17.4844 126.077C17.4844 125.991 17.5542 125.922 17.6405 125.922C17.7268 125.922 17.7966 125.992 17.7966 126.077Z" fill="#FF8A8A"/>
<path d="M18.5544 126.454C18.5544 126.54 18.4846 126.609 18.3983 126.609C18.312 126.609 18.2422 126.54 18.2422 126.454C18.2422 126.368 18.312 126.298 18.3983 126.298C18.4846 126.298 18.5544 126.368 18.5544 126.454Z" fill="#FF8A8A"/>
<path d="M17.7966 126.996C17.7966 127.082 17.7268 127.151 17.6405 127.151C17.5542 127.151 17.4844 127.082 17.4844 126.996C17.4844 126.91 17.5542 126.84 17.6405 126.84C17.7268 126.84 17.7966 126.91 17.7966 126.996Z" fill="#FF8A8A"/>
<path d="M18.9958 127.152C18.9958 127.238 18.926 127.307 18.8397 127.307C18.7534 127.307 18.6836 127.238 18.6836 127.152C18.6836 127.066 18.7534 126.996 18.8397 126.996C18.926 126.996 18.9958 127.066 18.9958 127.152Z" fill="#FF8A8A"/>
<path d="M19.7966 126.996C19.7966 127.082 19.7268 127.151 19.6405 127.151C19.5542 127.151 19.4844 127.082 19.4844 126.996C19.4844 126.91 19.5542 126.84 19.6405 126.84C19.7268 126.84 19.7966 126.91 19.7966 126.996Z" fill="#FF8A8A"/>
<path d="M19.4333 126.233C19.4333 126.319 19.3635 126.389 19.2772 126.389C19.1909 126.389 19.1211 126.319 19.1211 126.233C19.1211 126.147 19.1909 126.078 19.2772 126.078C19.3635 126.078 19.4333 126.147 19.4333 126.233Z" fill="#FF8A8A"/>
<path d="M25.7539 126.077C25.7539 126.163 25.8238 126.233 25.91 126.233C25.9963 126.233 26.0662 126.163 26.0662 126.077C26.0662 125.992 25.9963 125.922 25.91 125.922C25.8238 125.922 25.7539 125.992 25.7539 126.077Z" fill="#FF8A8A"/>
<path d="M24.9844 126.454C24.9844 126.54 25.0542 126.609 25.1405 126.609C25.2268 126.609 25.2966 126.54 25.2966 126.454C25.2966 126.368 25.2268 126.298 25.1405 126.298C25.0545 126.298 24.9844 126.368 24.9844 126.454Z" fill="#FF8A8A"/>
<path d="M25.7539 126.996C25.7539 127.082 25.8238 127.151 25.91 127.151C25.9963 127.151 26.0662 127.082 26.0662 126.996C26.0662 126.91 25.9963 126.84 25.91 126.84C25.8238 126.84 25.7539 126.91 25.7539 126.996Z" fill="#FF8A8A"/>
<path d="M24.5547 127.152C24.5547 127.238 24.6245 127.307 24.7108 127.307C24.7971 127.307 24.8669 127.238 24.8669 127.152C24.8669 127.066 24.7971 126.996 24.7108 126.996C24.6245 126.996 24.5547 127.066 24.5547 127.152Z" fill="#FF8A8A"/>
<path d="M23.7539 126.996C23.7539 127.082 23.8238 127.151 23.91 127.151C23.9963 127.151 24.0662 127.082 24.0662 126.996C24.0662 126.91 23.9963 126.84 23.91 126.84C23.8238 126.84 23.7539 126.91 23.7539 126.996Z" fill="#FF8A8A"/>
<path d="M24.1133 126.233C24.1133 126.319 24.1831 126.389 24.2694 126.389C24.3557 126.389 24.4255 126.319 24.4255 126.233C24.4255 126.147 24.3557 126.078 24.2694 126.078C24.1831 126.078 24.1133 126.148 24.1133 126.233Z" fill="#FF8A8A"/>
<path d="M15.2961 125.981C15.2961 125.981 16.3683 123.72 16.0109 122.053L14.8396 121.712C14.8396 121.712 14.6609 124.573 15.2961 125.981Z" fill="#3F2037"/>
<path d="M28.1315 125.981C28.1315 125.981 27.0593 123.72 27.4167 122.053L28.588 121.712C28.588 121.712 28.7667 124.573 28.1315 125.981Z" fill="#3F2037"/>
<path d="M16.1729 114.848C14.8742 116.13 13.8621 118.231 13.7939 119.513C13.7248 120.812 14.0581 122.103 15.0325 122.598C18.0784 124.147 24.3809 118.323 24.3809 118.323C24.3809 118.323 26.6038 122.839 28.3552 122.626C30.1068 122.413 30.8523 117.321 26.6824 114.472C22.5197 111.627 18.1635 112.884 16.1729 114.848Z" fill="#3F2037"/>
<path d="M17.2617 123.283C17.2617 123.283 17.5516 122.566 18.5343 121.954C19.7759 121.18 20.6708 122.511 20.6708 122.511C20.6708 122.511 19.6966 122.172 18.9486 122.41C18.2167 122.643 17.2617 123.283 17.2617 123.283Z" fill="#3F2037"/>
<path d="M26.4169 123.283C26.4169 123.283 26.127 122.566 25.1443 121.954C23.9027 121.18 23.0078 122.511 23.0078 122.511C23.0078 122.511 23.982 122.172 24.73 122.41C25.4619 122.643 26.4169 123.283 26.4169 123.283Z" fill="#3F2037"/>
<path d="M22.0171 128.04C21.8024 128.04 21.5668 127.984 21.3074 127.872C21.2365 127.841 21.1946 127.767 21.2046 127.69L21.5671 124.908C21.5795 124.813 21.6669 124.746 21.7615 124.758C21.8565 124.77 21.9233 124.857 21.911 124.952L21.5659 127.602C21.9251 127.734 22.2025 127.723 22.4314 127.569C22.5109 127.515 22.6187 127.536 22.6721 127.615C22.7257 127.695 22.7046 127.803 22.6251 127.856C22.443 127.979 22.2414 128.04 22.0171 128.04Z" fill="#FF8A8A"/>
<path d="M21.6723 129.88C21.5197 129.88 21.3762 129.871 21.2437 129.855C20.4513 129.764 19.8971 129.459 19.874 129.446C19.7903 129.399 19.7605 129.294 19.8072 129.21C19.8539 129.127 19.9593 129.097 20.043 129.143C20.1265 129.19 22.1097 130.26 23.8264 128.673C23.8966 128.608 24.0065 128.612 24.0714 128.682C24.1364 128.753 24.1322 128.862 24.0619 128.927C23.2452 129.682 22.3677 129.88 21.6723 129.88Z" fill="#FF8A8A"/>
<path d="M21.9686 130.896C21.5652 130.896 21.2418 130.798 21.2194 130.791C21.1281 130.762 21.077 130.665 21.1056 130.574C21.1341 130.482 21.2314 130.431 21.3227 130.46C21.3345 130.463 22.1265 130.701 22.6845 130.386C22.7678 130.339 22.8736 130.368 22.9208 130.451C22.9679 130.535 22.9386 130.64 22.8551 130.687C22.5708 130.848 22.2502 130.896 21.9686 130.896Z" fill="#FF8A8A"/>
<path d="M19.6328 124.331C19.6411 124.814 19.4627 125.21 19.2343 125.214C19.0056 125.218 18.8135 124.829 18.805 124.345C18.7966 123.861 18.9751 123.466 19.2035 123.462C19.4324 123.458 19.6245 123.847 19.6328 124.331Z" fill="#3F2037"/>
<path d="M23.9768 124.331C23.9685 124.814 24.147 125.21 24.3754 125.214C24.604 125.218 24.7961 124.829 24.8047 124.345C24.813 123.861 24.6345 123.466 24.4061 123.462C24.1775 123.458 23.9854 123.847 23.9768 124.331Z" fill="#3F2037"/>
</g>
</g>
<g opacity="0.7">
<path d="M71.1328 42.6843C82.9271 42.6843 92.4882 33.1291 92.4882 21.3421C92.4882 9.5552 82.9271 0 71.1328 0C59.3385 0 49.7773 9.5552 49.7773 21.3421C49.7773 33.1291 59.3385 42.6843 71.1328 42.6843Z" fill="#FFDDC0"/>
<mask id="mask2_3566_3544" style="mask-type:alpha" maskUnits="userSpaceOnUse" x="49" y="0" width="44" height="43">
<path d="M71.1328 42.6843C82.9271 42.6843 92.4882 33.1291 92.4882 21.3421C92.4882 9.5552 82.9271 0 71.1328 0C59.3385 0 49.7773 9.5552 49.7773 21.3421C49.7773 33.1291 59.3385 42.6843 71.1328 42.6843Z" fill="#FFF8F2"/>
</mask>
<g mask="url(#mask2_3566_3544)">
<path d="M88.4014 42.8272H54.8477C54.8477 42.8272 54.876 42.4741 54.966 41.9525C55.0115 41.6917 55.0719 41.3889 55.1519 41.0672C55.2678 40.6024 55.4248 40.0982 55.6351 39.6252C55.7518 39.3627 55.8846 39.1095 56.0372 38.8778C56.3453 38.4073 56.7303 38.0266 57.2104 37.8344C57.6293 37.667 58.3263 37.3403 59.1681 36.9277C59.2847 36.8705 59.4043 36.8118 59.5259 36.7515C59.5266 36.7507 59.5278 36.7507 59.5283 36.7503C59.7597 36.6356 59.9991 36.5161 60.2454 36.3927C60.5271 36.2517 60.8169 36.105 61.1111 35.9557C62.5117 35.2447 64.0172 34.4626 65.2395 33.823C65.4322 33.7223 65.6176 33.6245 65.7947 33.5314H65.7954C65.9121 33.4703 66.0241 33.4112 66.1332 33.3544C66.1339 33.3537 66.1344 33.3537 66.1344 33.3537C67.1028 32.8436 67.7424 32.5042 67.7424 32.5042L67.9989 32.5613C70.3844 33.0954 72.86 33.0758 75.2362 32.5042C75.2362 32.5042 75.8977 32.8449 76.9002 33.3562C77.0445 33.4297 77.1956 33.5067 77.3526 33.5866C77.4194 33.6206 77.4869 33.6546 77.5556 33.6893C77.5556 33.69 77.5563 33.69 77.5563 33.69C78.2506 34.0439 79.0496 34.4489 79.8782 34.8656C80.6124 35.2352 81.369 35.6138 82.0961 35.9733C82.4035 36.1258 82.7053 36.2744 82.9983 36.4171C84.3228 37.0658 85.4581 37.6023 86.0384 37.8347C86.5148 38.0256 86.8978 38.4027 87.2052 38.8681C87.3603 39.1029 87.4963 39.3605 87.6149 39.6282C87.8259 40.1023 87.9822 40.608 88.0981 41.0734C88.1769 41.3889 88.2361 41.6861 88.2808 41.943C88.3725 42.4697 88.4014 42.8272 88.4014 42.8272Z" fill="#3F2037"/>
<path d="M66.8541 33.9524C66.8541 34.2875 66.5827 34.5588 66.2474 34.5588C65.9121 34.5588 65.6406 34.2875 65.6406 33.9524C65.6406 33.7886 65.7054 33.64 65.8108 33.531H65.8116C65.9282 33.4699 66.0402 33.4108 66.1493 33.3541C66.15 33.3533 66.1505 33.3533 66.1505 33.3533C66.1821 33.3482 66.2149 33.3457 66.2476 33.3457C66.5824 33.346 66.8541 33.6173 66.8541 33.9524Z" fill="#734669"/>
<path d="M69.5451 33.9524C69.5451 34.2872 69.2733 34.5585 68.9385 34.5585C68.6035 34.5585 68.332 34.287 68.332 33.9524C68.332 33.6178 68.6037 33.3462 68.9385 33.3462C69.2733 33.346 69.5451 33.6175 69.5451 33.9524Z" fill="#734669"/>
<path d="M72.2443 33.9524C72.2443 34.2872 71.9728 34.5585 71.6378 34.5585C71.3027 34.5585 71.0312 34.287 71.0312 33.9524C71.0312 33.6178 71.303 33.3462 71.6378 33.3462C71.9726 33.3462 72.2443 33.6175 72.2443 33.9524Z" fill="#734669"/>
<path d="M74.9396 33.9524C74.9396 34.2872 74.6679 34.5585 74.3331 34.5585C73.998 34.5585 73.7266 34.287 73.7266 33.9524C73.7266 33.6178 73.9983 33.3462 74.3331 33.3462C74.6681 33.346 74.9396 33.6175 74.9396 33.9524Z" fill="#734669"/>
<path d="M77.6237 33.9517C77.6237 34.2865 77.3522 34.5576 77.0169 34.5576C76.6816 34.5576 76.4102 34.2865 76.4102 33.9517C76.4102 33.6541 76.6251 33.4062 76.9086 33.3559C77.0529 33.4294 77.204 33.5063 77.361 33.5862C77.4278 33.6201 77.4953 33.654 77.564 33.6887C77.564 33.6895 77.5647 33.6895 77.5647 33.6895C77.6021 33.7686 77.6237 33.858 77.6237 33.9517Z" fill="#734669"/>
<path d="M61.4596 36.4983C61.4596 36.8331 61.1874 37.1042 60.8528 37.1042C60.5176 37.1042 60.2461 36.8328 60.2461 36.4983C60.2461 36.4619 60.2493 36.4265 60.2556 36.3921C60.5374 36.2511 60.8272 36.1046 61.1214 35.9554C61.3217 36.0546 61.4596 36.2604 61.4596 36.4983Z" fill="#734669"/>
<path d="M64.1583 36.499C64.1583 36.8339 63.8866 37.1052 63.5518 37.1052C63.2168 37.1052 62.9453 36.8336 62.9453 36.499C62.9453 36.1645 63.217 35.8929 63.5518 35.8929C63.8866 35.8929 64.1583 36.1642 64.1583 36.499Z" fill="#734669"/>
<path d="M66.8497 36.499C66.8497 36.8339 66.578 37.1052 66.2432 37.1052C65.9082 37.1052 65.6367 36.8336 65.6367 36.499C65.6367 36.1645 65.9082 35.8929 66.2432 35.8929C66.578 35.8929 66.8497 36.1642 66.8497 36.499Z" fill="#734669"/>
<path d="M69.5411 36.499C69.5411 36.8339 69.2694 37.1052 68.9346 37.1052C68.5996 37.1052 68.3281 36.8336 68.3281 36.499C68.3281 36.1645 68.5998 35.8929 68.9346 35.8929C69.2694 35.8929 69.5411 36.1642 69.5411 36.499Z" fill="#734669"/>
<path d="M72.2365 36.499C72.2365 36.8339 71.965 37.1052 71.6299 37.1052C71.2949 37.1052 71.0234 36.8336 71.0234 36.499C71.0234 36.1645 71.2951 35.8929 71.6299 35.8929C71.9648 35.8929 72.2365 36.1642 72.2365 36.499Z" fill="#734669"/>
<path d="M74.9318 36.499C74.9318 36.8339 74.6601 37.1052 74.3253 37.1052C73.9902 37.1052 73.7188 36.8336 73.7188 36.499C73.7188 36.1645 73.9905 35.8929 74.3253 35.8929C74.6603 35.8929 74.9318 36.1642 74.9318 36.499Z" fill="#734669"/>
<path d="M77.6232 36.499C77.6232 36.8339 77.3517 37.1052 77.0167 37.1052C76.6816 37.1052 76.4102 36.8336 76.4102 36.499C76.4102 36.1645 76.6819 35.8929 77.0167 35.8929C77.3517 35.8929 77.6232 36.1642 77.6232 36.499Z" fill="#734669"/>
<path d="M80.3146 36.499C80.3146 36.8339 80.0429 37.1052 79.7081 37.1052C79.373 37.1052 79.1016 36.8336 79.1016 36.499C79.1016 36.1645 79.3733 35.8929 79.7081 35.8929C80.0431 35.8929 80.3146 36.1642 80.3146 36.499Z" fill="#734669"/>
<path d="M83.0104 36.4984C83.0104 36.8332 82.7389 37.1043 82.4036 37.1043C82.0683 37.1043 81.7969 36.833 81.7969 36.4984C81.7969 36.2737 81.9196 36.0774 82.1026 35.9731C82.41 36.1255 82.7118 36.274 83.0048 36.4166C83.0084 36.4437 83.0104 36.4708 83.0104 36.4984Z" fill="#734669"/>
<path d="M56.0581 39.046C56.0581 39.3178 55.8791 39.5473 55.6328 39.6247C55.7495 39.3625 55.8823 39.1095 56.0349 38.878C56.0498 38.9314 56.0581 38.9874 56.0581 39.046Z" fill="#734669"/>
<path d="M58.7599 39.0458C58.7599 39.3807 58.4882 39.6519 58.1534 39.6519C57.8183 39.6519 57.5469 39.3807 57.5469 39.0458C57.5469 38.711 57.8183 38.4397 58.1534 38.4397C58.4882 38.4397 58.7599 38.711 58.7599 39.0458Z" fill="#734669"/>
<path d="M61.4513 39.0458C61.4513 39.3807 61.1796 39.6519 60.8448 39.6519C60.51 39.6519 60.2383 39.3807 60.2383 39.0458C60.2383 38.711 60.51 38.4397 60.8448 38.4397C61.1796 38.4397 61.4513 38.711 61.4513 39.0458Z" fill="#734669"/>
<path d="M64.1544 39.0459C64.1544 39.3808 63.8827 39.6521 63.5479 39.6521C63.2129 39.6521 62.9414 39.3808 62.9414 39.0459C62.9414 38.7111 63.2131 38.4398 63.5479 38.4398C63.8827 38.4398 64.1544 38.7111 64.1544 39.0459Z" fill="#734669"/>
<path d="M66.8458 39.0458C66.8458 39.3807 66.5741 39.6519 66.2393 39.6519C65.9043 39.6519 65.6328 39.3807 65.6328 39.0458C65.6328 38.711 65.9043 38.4397 66.2393 38.4397C66.5741 38.4397 66.8458 38.711 66.8458 39.0458Z" fill="#734669"/>
<path d="M69.5411 39.0458C69.5411 39.3807 69.2694 39.6519 68.9346 39.6519C68.5996 39.6519 68.3281 39.3807 68.3281 39.0458C68.3281 38.711 68.5998 38.4397 68.9346 38.4397C69.2694 38.4397 69.5411 38.711 69.5411 39.0458Z" fill="#734669"/>
<path d="M72.2326 39.0458C72.2326 39.3807 71.9611 39.6519 71.626 39.6519C71.291 39.6519 71.0195 39.3807 71.0195 39.0458C71.0195 38.711 71.2912 38.4397 71.626 38.4397C71.9608 38.4397 72.2326 38.711 72.2326 39.0458Z" fill="#734669"/>
<path d="M74.9279 39.0458C74.9279 39.3807 74.6562 39.6519 74.3214 39.6519C73.9863 39.6519 73.7148 39.3807 73.7148 39.0458C73.7148 38.711 73.9866 38.4397 74.3214 38.4397C74.6564 38.4397 74.9279 38.711 74.9279 39.0458Z" fill="#734669"/>
<path d="M77.6154 39.0458C77.6154 39.3807 77.3439 39.6519 77.0089 39.6519C76.6738 39.6519 76.4023 39.3807 76.4023 39.0458C76.4023 38.711 76.674 38.4397 77.0089 38.4397C77.3439 38.4397 77.6154 38.711 77.6154 39.0458Z" fill="#734669"/>
<path d="M80.3107 39.0458C80.3107 39.3807 80.039 39.6519 79.7042 39.6519C79.3691 39.6519 79.0977 39.3807 79.0977 39.0458C79.0977 38.711 79.3694 38.4397 79.7042 38.4397C80.0392 38.4397 80.3107 38.711 80.3107 39.0458Z" fill="#734669"/>
<path d="M83.006 39.0458C83.006 39.3807 82.7343 39.6519 82.3995 39.6519C82.0647 39.6519 81.793 39.3807 81.793 39.0458C81.793 38.711 82.0647 38.4397 82.3995 38.4397C82.7343 38.4397 83.006 38.711 83.006 39.0458Z" fill="#734669"/>
<path d="M85.7013 39.0458C85.7013 39.3807 85.4296 39.6519 85.0948 39.6519C84.7597 39.6519 84.4883 39.3807 84.4883 39.0458C84.4883 38.711 84.76 38.4397 85.0948 38.4397C85.4298 38.4397 85.7013 38.711 85.7013 39.0458Z" fill="#734669"/>
<path d="M87.6157 39.6272C87.3636 39.5536 87.1797 39.3214 87.1797 39.0457C87.1797 38.9834 87.1892 38.9236 87.2061 38.8677C87.3612 39.1024 87.4974 39.3597 87.6157 39.6272Z" fill="#734669"/>
<path d="M56.0673 41.5926C56.0673 41.9277 55.7958 42.1989 55.461 42.1989C55.2607 42.1989 55.0837 42.1019 54.9727 41.9528C55.0181 41.692 55.0786 41.3892 55.1585 41.0676C55.2473 41.0165 55.3507 40.9869 55.461 40.9869C55.7956 40.9867 56.0673 41.2582 56.0673 41.5926Z" fill="#734669"/>
<path d="M58.7638 41.5928C58.7638 41.9277 58.4921 42.1989 58.1573 42.1989C57.8222 42.1989 57.5508 41.9274 57.5508 41.5928C57.5508 41.2582 57.8222 40.9867 58.1573 40.9867C58.4921 40.9864 58.7638 41.258 58.7638 41.5928Z" fill="#734669"/>
<path d="M61.4591 41.5928C61.4591 41.9277 61.1874 42.1989 60.8526 42.1989C60.5178 42.1989 60.2461 41.9274 60.2461 41.5928C60.2461 41.2582 60.5178 40.9867 60.8526 40.9867C61.1874 40.9867 61.4591 41.258 61.4591 41.5928Z" fill="#734669"/>
<path d="M64.1505 41.5928C64.1505 41.9277 63.8788 42.1989 63.544 42.1989C63.209 42.1989 62.9375 41.9274 62.9375 41.5928C62.9375 41.2582 63.2092 40.9867 63.544 40.9867C63.8788 40.9864 64.1505 41.258 64.1505 41.5928Z" fill="#734669"/>
<path d="M66.8497 41.5928C66.8497 41.9277 66.578 42.1989 66.2432 42.1989C65.9082 42.1989 65.6367 41.9274 65.6367 41.5928C65.6367 41.2582 65.9082 40.9867 66.2432 40.9867C66.578 40.9864 66.8497 41.258 66.8497 41.5928Z" fill="#734669"/>
<path d="M69.5411 41.5928C69.5411 41.9277 69.2694 42.1989 68.9346 42.1989C68.5996 42.1989 68.3281 41.9274 68.3281 41.5928C68.3281 41.2582 68.5998 40.9867 68.9346 40.9867C69.2694 40.9864 69.5411 41.258 69.5411 41.5928Z" fill="#734669"/>
<path d="M72.2365 41.5928C72.2365 41.9277 71.965 42.1989 71.6299 42.1989C71.2949 42.1989 71.0234 41.9274 71.0234 41.5928C71.0234 41.2582 71.2951 40.9867 71.6299 40.9867C71.9648 40.9867 72.2365 41.258 72.2365 41.5928Z" fill="#734669"/>
<path d="M74.9279 41.5928C74.9279 41.9277 74.6562 42.1989 74.3214 42.1989C73.9863 42.1989 73.7148 41.9274 73.7148 41.5928C73.7148 41.2582 73.9866 40.9867 74.3214 40.9867C74.6564 40.9864 74.9279 41.258 74.9279 41.5928Z" fill="#734669"/>
<path d="M77.6154 41.5928C77.6154 41.9277 77.3439 42.1989 77.0089 42.1989C76.6738 42.1989 76.4023 41.9274 76.4023 41.5928C76.4023 41.2582 76.674 40.9867 77.0089 40.9867C77.3439 40.9864 77.6154 41.258 77.6154 41.5928Z" fill="#734669"/>
<path d="M80.3146 41.5928C80.3146 41.9277 80.0429 42.1989 79.7081 42.1989C79.373 42.1989 79.1016 41.9274 79.1016 41.5928C79.1016 41.2582 79.3733 40.9867 79.7081 40.9867C80.0431 40.9864 80.3146 41.258 80.3146 41.5928Z" fill="#734669"/>
<path d="M83.0177 41.5928C83.0177 41.9277 82.746 42.1989 82.4112 42.1989C82.0764 42.1989 81.8047 41.9274 81.8047 41.5928C81.8047 41.2582 82.0764 40.9867 82.4112 40.9867C82.746 40.9867 83.0177 41.258 83.0177 41.5928Z" fill="#734669"/>
<path d="M85.7091 41.5928C85.7091 41.9277 85.4374 42.1989 85.1026 42.1989C84.7676 42.1989 84.4961 41.9274 84.4961 41.5928C84.4961 41.2582 84.7678 40.9867 85.1026 40.9867C85.4377 40.9864 85.7091 41.258 85.7091 41.5928Z" fill="#734669"/>
<path d="M88.2817 41.9426C88.1721 42.0975 87.9911 42.1989 87.7864 42.1989C87.4511 42.1989 87.1797 41.9276 87.1797 41.5926C87.1797 41.2582 87.4511 40.9869 87.7864 40.9869C87.9004 40.9869 88.0075 41.0185 88.099 41.0732C88.1777 41.3885 88.2369 41.6857 88.2817 41.9426Z" fill="#734669"/>
<path d="M76.8327 33.3144C76.2279 34.7004 75.6217 36.0862 75.0142 37.4718C74.2316 39.2581 73.4458 41.044 72.6556 42.8275H71.3003C70.267 41.0487 69.2091 39.284 68.1667 37.5104C67.7451 36.793 67.3262 36.074 66.9129 35.3525C66.5607 34.7373 66.2198 34.1158 65.8984 33.4842C67.0056 32.9023 67.7554 32.5044 67.7554 32.5044L68.0119 32.5616C70.3974 33.0956 72.8731 33.0761 75.2492 32.5044C75.2492 32.5039 75.8755 32.8263 76.8327 33.3144Z" fill="#FFB8A1"/>
<path d="M75.0076 37.4715C74.225 39.2579 73.4392 41.0438 72.6491 42.8272H71.2937C70.2604 41.0484 69.2025 39.2838 68.1602 37.5101C69.7388 37.9496 72.1974 38.2939 75.0076 37.4715Z" fill="#FFF7F1"/>
<path d="M75.4176 33.3576C75.4176 33.3576 74.7595 35.4248 71.7358 35.4248C68.2089 35.4248 67.3789 33.5455 67.3789 33.5455C67.6853 32.7336 67.8959 31.982 68.038 31.3101H68.039C68.3004 30.0793 68.3371 29.1124 68.321 28.5195L74.5169 28.2744C74.5744 28.7986 74.6673 29.416 74.7727 30.037C75.0527 31.686 75.4176 33.3576 75.4176 33.3576Z" fill="#FFB8A1"/>
<path d="M71.7777 36.3808C69.9279 36.3808 68.7178 35.4332 68.0286 34.6384C67.2849 33.7808 66.9807 32.9344 66.968 32.899C66.9455 32.8354 66.9787 32.7655 67.0426 32.743C67.1061 32.7206 67.1761 32.7538 67.1986 32.8173C67.2015 32.8257 67.5033 33.6618 68.2191 34.4849C69.1722 35.5809 70.3696 36.1366 71.7777 36.1366C75.1339 36.1366 75.9399 32.8635 75.9477 32.8305C75.9632 32.7648 76.0292 32.724 76.0947 32.7394C76.1605 32.7548 76.2014 32.8205 76.186 32.8863C76.1776 32.9219 75.9734 33.771 75.3297 34.6318C74.7328 35.4296 73.632 36.3808 71.7777 36.3808Z" fill="#FFF7F1"/>
<path d="M74.7689 30.0371C73.809 30.7044 71.7104 31.6974 68.0352 31.3103C68.2966 30.0794 68.3333 29.1125 68.3171 28.5196L74.5131 28.2745C74.5706 28.7987 74.6635 29.4161 74.7689 30.0371Z" fill="#3F2037"/>
<path d="M65.9428 20.4444C65.9428 20.4444 64.0252 17.836 62.5338 19.3797C61.0425 20.9234 63.9188 26.2999 66.5287 25.1287L65.9428 20.4444Z" fill="#FFB8A1"/>
<path d="M64.3305 24.2975C64.6252 24.2975 64.8641 24.0589 64.8641 23.7646C64.8641 23.4703 64.6252 23.2318 64.3305 23.2318C64.0358 23.2318 63.7969 23.4703 63.7969 23.7646C63.7969 24.0589 64.0358 24.2975 64.3305 24.2975Z" fill="#FFF7F1"/>
<path d="M65.161 23.5268C65.096 23.5268 65.0392 23.4789 65.0299 23.4126C64.7778 21.6004 63.3363 20.4881 63.3219 20.4771C63.2637 20.4328 63.2522 20.3497 63.2965 20.2915C63.3407 20.2334 63.4237 20.2219 63.4821 20.2661C63.545 20.3138 65.0253 21.4566 65.2921 23.376C65.3021 23.4486 65.2517 23.5153 65.1791 23.5253C65.1735 23.5263 65.1671 23.5268 65.161 23.5268Z" fill="#FF8A8A"/>
<path d="M64.7507 22.2244C64.7081 22.2244 64.6663 22.2039 64.6409 22.1663C64.4484 21.8821 63.8727 21.8533 63.668 21.866C63.5944 21.8711 63.532 21.8152 63.5276 21.7421C63.523 21.6691 63.5785 21.6064 63.6516 21.602C63.688 21.5995 64.5445 21.5519 64.8602 22.0183C64.9013 22.0789 64.8854 22.161 64.8248 22.202C64.802 22.2171 64.7763 22.2244 64.7507 22.2244Z" fill="#FF8A8A"/>
<path d="M77.6367 20.4444C77.6367 20.4444 79.5543 17.836 81.0457 19.3797C82.5373 20.9234 79.6607 26.2999 77.0508 25.1287L77.6367 20.4444Z" fill="#FFB8A1"/>
<path d="M79.1 24.2975C79.3948 24.2975 79.6337 24.0589 79.6337 23.7646C79.6337 23.4703 79.3948 23.2318 79.1 23.2318C78.8053 23.2318 78.5664 23.4703 78.5664 23.7646C78.5664 24.0589 78.8053 24.2975 79.1 24.2975Z" fill="#FFF7F1"/>
<path d="M78.4217 23.5269C78.4155 23.5269 78.4094 23.5264 78.4033 23.5256C78.3307 23.5156 78.2803 23.4486 78.2903 23.3763C78.5571 21.4567 80.0375 20.3139 80.1003 20.2662C80.1588 20.222 80.2417 20.2332 80.286 20.2916C80.3302 20.3498 80.319 20.4329 80.2608 20.4771C80.2461 20.4881 78.8044 21.6043 78.5527 23.4127C78.5437 23.4789 78.4867 23.5269 78.4217 23.5269Z" fill="#FF8A8A"/>
<path d="M78.8004 22.2246C78.7747 22.2246 78.749 22.2173 78.7263 22.2019C78.6656 22.1608 78.6497 22.0788 78.6908 22.0182C79.0068 21.552 79.8632 21.5997 79.8997 21.6019C79.9725 21.6065 80.0281 21.669 80.0234 21.742C80.019 21.8151 79.9554 21.871 79.8833 21.8661C79.6774 21.8539 79.1019 21.8834 78.9102 22.1667C78.8845 22.2043 78.8429 22.2246 78.8004 22.2246Z" fill="#FF8A8A"/>
<path d="M72.6471 12.6249C66.9816 12.4597 64.3281 15.4889 64.7603 21.744C65.0288 25.6294 67.12 30.3545 71.7236 30.4628C76.5214 30.5757 78.7049 25.1359 78.8093 21.1176C78.9189 16.892 77.9149 14.0655 74.4167 12.9194C74.1741 12.84 72.9078 12.6325 72.6471 12.6249Z" fill="#FFB8A1"/>
<path d="M76.2515 10.5935C76.2194 10.6729 76.184 10.7529 76.1463 10.8328C75.7946 11.5738 75.1981 12.3454 74.2996 13.1224H69.8763C69.8763 13.1224 68.2891 12.2464 67.4612 10.8259C67.4177 10.7509 67.3756 10.6734 67.3365 10.5955C66.7601 9.44503 66.7202 7.97589 68.327 6.34495C71.5067 3.11632 78.0133 6.27432 76.2515 10.5935Z" fill="#FF4F4E"/>
<path d="M76.146 10.8327C75.7943 11.5738 75.1979 12.3454 74.2993 13.1223H69.876C69.876 13.1223 68.2888 12.2464 67.4609 10.8259C67.9782 10.5118 69.8332 9.87758 71.6747 10.319C71.6747 10.319 74.09 9.71064 76.146 10.8327Z" fill="#C42C31"/>
<path d="M65.7549 18.7005C65.7549 18.7005 71.7784 17.1427 71.7784 14.0013C71.7784 14.0013 73.1636 18.3398 77.8267 18.7005L78.8296 19.4553C78.8296 19.4553 79.3652 19.0234 79.7751 18.9068C79.7751 18.9068 80.9818 9.35901 71.7633 10.636C71.7633 10.636 68.9007 9.99472 66.5424 11.6261C63.1288 13.9876 64.491 19.171 64.491 19.171L65.7549 18.7005Z" fill="#FF4F4E"/>
<path d="M67.6661 22.9581C67.6661 23.049 67.5922 23.1226 67.501 23.1226C67.4098 23.1226 67.3359 23.049 67.3359 22.9581C67.3359 22.8671 67.4098 22.7935 67.501 22.7935C67.5922 22.7935 67.6661 22.8671 67.6661 22.9581Z" fill="#FF8A8A"/>
<path d="M68.4786 23.3563C68.4786 23.4472 68.4047 23.5208 68.3135 23.5208C68.2223 23.5208 68.1484 23.4472 68.1484 23.3563C68.1484 23.2653 68.2223 23.1917 68.3135 23.1917C68.4047 23.1917 68.4786 23.2653 68.4786 23.3563Z" fill="#FF8A8A"/>
<path d="M67.6661 23.9296C67.6661 24.0205 67.5922 24.0942 67.501 24.0942C67.4098 24.0942 67.3359 24.0205 67.3359 23.9296C67.3359 23.8387 67.4098 23.765 67.501 23.765C67.5922 23.765 67.6661 23.8387 67.6661 23.9296Z" fill="#FF8A8A"/>
<path d="M68.9356 24.0946C68.9356 24.1855 68.8618 24.2591 68.7705 24.2591C68.6793 24.2591 68.6055 24.1855 68.6055 24.0946C68.6055 24.0036 68.6793 23.93 68.7705 23.93C68.8618 23.93 68.9356 24.0036 68.9356 24.0946Z" fill="#FF8A8A"/>
<path d="M69.7794 23.9296C69.7794 24.0205 69.7055 24.0942 69.6143 24.0942C69.5231 24.0942 69.4492 24.0205 69.4492 23.9296C69.4492 23.8387 69.5231 23.765 69.6143 23.765C69.7055 23.765 69.7794 23.8387 69.7794 23.9296Z" fill="#FF8A8A"/>
<path d="M69.3927 23.1229C69.3927 23.2139 69.3188 23.2875 69.2276 23.2875C69.1364 23.2875 69.0625 23.2139 69.0625 23.1229C69.0625 23.032 69.1364 22.9584 69.2276 22.9584C69.3186 22.9584 69.3927 23.032 69.3927 23.1229Z" fill="#FF8A8A"/>
<path d="M76.0664 22.9581C76.0664 23.049 76.1403 23.1226 76.2315 23.1226C76.3227 23.1226 76.3966 23.049 76.3966 22.9581C76.3966 22.8671 76.3227 22.7935 76.2315 22.7935C76.1403 22.7935 76.0664 22.8671 76.0664 22.9581Z" fill="#FF8A8A"/>
<path d="M75.2461 23.3563C75.2461 23.4472 75.32 23.5208 75.4112 23.5208C75.5024 23.5208 75.5763 23.4472 75.5763 23.3563C75.5763 23.2653 75.5024 23.1917 75.4112 23.1917C75.32 23.1917 75.2461 23.2653 75.2461 23.3563Z" fill="#FF8A8A"/>
<path d="M76.0664 23.9296C76.0664 24.0205 76.1403 24.0942 76.2315 24.0942C76.3227 24.0942 76.3966 24.0205 76.3966 23.9296C76.3966 23.8387 76.3227 23.765 76.2315 23.765C76.1403 23.765 76.0664 23.8387 76.0664 23.9296Z" fill="#FF8A8A"/>
<path d="M74.7969 24.0946C74.7969 24.1855 74.8707 24.2591 74.962 24.2591C75.0532 24.2591 75.127 24.1855 75.127 24.0946C75.127 24.0036 75.0532 23.93 74.962 23.93C74.8707 23.93 74.7969 24.0036 74.7969 24.0946Z" fill="#FF8A8A"/>
<path d="M73.9492 23.9296C73.9492 24.0205 74.0231 24.0942 74.1143 24.0942C74.2055 24.0942 74.2794 24.0205 74.2794 23.9296C74.2794 23.8387 74.2055 23.765 74.1143 23.765C74.0231 23.765 73.9492 23.8387 73.9492 23.9296Z" fill="#FF8A8A"/>
<path d="M74.3359 23.1229C74.3359 23.2139 74.4098 23.2875 74.501 23.2875C74.5922 23.2875 74.6661 23.2139 74.6661 23.1229C74.6661 23.032 74.5922 22.9584 74.501 22.9584C74.4098 22.9584 74.3359 23.032 74.3359 23.1229Z" fill="#FF8A8A"/>
<path d="M65.0061 22.8566C65.0061 22.8566 66.1404 20.4639 65.7623 18.7007L64.2734 17.7548C64.2734 17.7548 64.5045 21.3775 65.0061 22.8566Z" fill="#FF4F4E"/>
<path d="M78.5872 22.8566C78.5872 22.8566 77.453 20.4638 77.8311 18.7007L79.0703 18.3399C79.0703 18.3399 79.2593 21.3662 78.5872 22.8566Z" fill="#FF4F4E"/>
<path d="M67.0898 20.0019C67.0898 20.0019 67.3965 19.2435 68.4361 18.5955C69.7497 17.777 70.6964 19.1851 70.6964 19.1851C70.6964 19.1851 69.6658 18.8265 68.8744 19.0782C68.1001 19.3246 67.0898 20.0019 67.0898 20.0019Z" fill="#FF4F4E"/>
<path d="M76.7706 20.0019C76.7706 20.0019 76.4639 19.2435 75.4243 18.5955C74.1108 17.777 73.1641 19.1851 73.1641 19.1851C73.1641 19.1851 74.1946 18.8265 74.986 19.0782C75.7603 19.3246 76.7706 20.0019 76.7706 20.0019Z" fill="#FF4F4E"/>
<path d="M72.119 25.0345C71.8918 25.0345 71.6426 24.9751 71.3682 24.8561C71.2931 24.8236 71.2488 24.7453 71.2593 24.6642L71.6431 21.7203C71.6563 21.6198 71.7485 21.549 71.8487 21.5622C71.9493 21.5751 72.0199 21.6673 72.007 21.7675L71.6418 24.5706C72.0219 24.7106 72.3154 24.6989 72.5575 24.5356C72.6416 24.4789 72.7556 24.5012 72.8121 24.5853C72.8688 24.6691 72.8465 24.7832 72.7627 24.8397C72.5697 24.9697 72.3564 25.0345 72.119 25.0345Z" fill="#FF8A8A"/>
<path d="M71.7504 26.9807C71.589 26.9807 71.4371 26.9707 71.297 26.9545C70.4586 26.858 69.8724 26.5351 69.8479 26.5214C69.7594 26.4721 69.7278 26.3604 69.7772 26.2719C69.8267 26.1837 69.9382 26.1519 70.0267 26.201C70.115 26.2501 72.2131 27.3822 74.0292 25.7034C74.1035 25.6347 74.2194 25.6391 74.2884 25.7134C74.3571 25.7877 74.3527 25.9038 74.2784 25.9725C73.4144 26.7712 72.486 26.9807 71.7504 26.9807Z" fill="#FF8A8A"/>
<path d="M72.0778 28.0556C71.651 28.0556 71.3089 27.9515 71.2851 27.9439C71.1885 27.9138 71.1345 27.8109 71.1646 27.7144C71.1947 27.6178 71.2976 27.5638 71.3942 27.5939C71.4067 27.5976 72.2446 27.8493 72.8349 27.5157C72.923 27.4658 73.035 27.4969 73.0849 27.5851C73.1348 27.6733 73.1037 27.785 73.0154 27.8349C72.7146 28.0047 72.3756 28.0556 72.0778 28.0556Z" fill="#FF8A8A"/>
<path d="M69.5909 21.11C69.5997 21.6218 69.4109 22.0402 69.1693 22.0443C68.9274 22.0485 68.7242 21.6372 68.7151 21.1251C68.7063 20.6133 68.8951 20.1949 69.1368 20.1908C69.3789 20.1866 69.5821 20.5982 69.5909 21.11Z" fill="#3F2037"/>
<path d="M74.1917 21.11C74.1829 21.6218 74.3717 22.0402 74.6133 22.0443C74.8552 22.0485 75.0584 21.6372 75.0675 21.1251C75.0763 20.6133 74.8875 20.1949 74.6458 20.1908C74.404 20.1866 74.2008 20.5982 74.1917 21.11Z" fill="#3F2037"/>
<path d="M68.6946 24.6997C67.1355 24.6997 65.8672 23.4322 65.8672 21.8741C65.8672 20.3162 67.1355 19.0487 68.6946 19.0487C70.2536 19.0487 71.5219 20.3162 71.5219 21.8741C71.5219 23.4322 70.2536 24.6997 68.6946 24.6997ZM68.6946 19.2931C67.2705 19.2931 66.1117 20.4509 66.1117 21.8741C66.1117 23.2973 67.2705 24.4553 68.6946 24.4553C70.1186 24.4553 71.2774 23.2973 71.2774 21.8741C71.2774 20.4509 70.1186 19.2931 68.6946 19.2931Z" fill="white"/>
<path d="M75.0539 24.6997C73.4949 24.6997 72.2266 23.4322 72.2266 21.8741C72.2266 20.3162 73.4949 19.0487 75.0539 19.0487C76.613 19.0487 77.8813 20.3162 77.8813 21.8741C77.8813 23.4322 76.613 24.6997 75.0539 24.6997ZM75.0539 19.2931C73.6299 19.2931 72.4711 20.4509 72.4711 21.8741C72.4711 23.2973 73.6299 24.4553 75.0539 24.4553C76.478 24.4553 77.6367 23.2973 77.6367 21.8741C77.6367 20.4509 76.4783 19.2931 75.0539 19.2931Z" fill="white"/>
<path d="M66.3098 20.7202C66.2687 20.7202 66.2286 20.6994 66.2054 20.6618C66.1975 20.6491 65.4147 19.3909 64.2234 18.9395C64.1603 18.9155 64.1286 18.8451 64.1525 18.7818C64.1765 18.7188 64.2469 18.6867 64.3103 18.7109C65.5812 19.1924 66.3805 20.4795 66.414 20.534C66.4492 20.5914 66.4311 20.6667 66.3736 20.7019C66.3538 20.7143 66.3316 20.7202 66.3098 20.7202Z" fill="white"/>
<path d="M77.6572 20.7204C77.6342 20.7204 77.6112 20.7141 77.5907 20.7006C77.5342 20.6637 77.5181 20.5882 77.555 20.5315C77.5922 20.4746 78.4772 19.1325 79.7465 18.6515C79.8096 18.6276 79.8803 18.6593 79.9043 18.7224C79.9282 18.7854 79.8964 18.8561 79.8333 18.88C78.6401 19.3322 77.7687 20.6515 77.7602 20.6649C77.7362 20.7009 77.6971 20.7204 77.6572 20.7204Z" fill="white"/>
<path d="M72.3471 21.6114C72.2853 21.6114 72.2322 21.5647 72.2256 21.502C72.2214 21.4656 72.175 21.1408 71.8485 21.1408C71.5264 21.1408 71.4931 21.4612 71.4904 21.4978C71.4853 21.5647 71.4273 21.6163 71.3598 21.6109C71.2928 21.6062 71.242 21.5486 71.2464 21.4817C71.2593 21.2795 71.4019 20.8968 71.8485 20.8968C72.2914 20.8968 72.4479 21.2763 72.4687 21.4768C72.4755 21.544 72.4269 21.6038 72.3596 21.6109C72.3557 21.6114 72.3513 21.6114 72.3471 21.6114Z" fill="white"/>
</g>
</g>
</svg>
