<svg width="78" height="78" viewBox="0 0 78 78" fill="none" xmlns="http://www.w3.org/2000/svg">
<g clip-path="url(#clip0_28_287)">
<g clip-path="url(#clip1_28_287)">
<path d="M7.38281 -2.00005H55.4941V35.0371H7.38281V-2.00005Z" fill="#64E1DC"/>
<path d="M31.5005 -2.00005H55.4946V35.0371H31.5005V-2.00005Z" fill="#00C8C8"/>
<path d="M48.1113 20.2714V53.9373L33.3457 61H0V5.50582H33.3457L37.0371 16.58L48.1113 20.2714Z" fill="#E0F4FF"/>
<path d="M48.1118 20.2714V53.9373L33.3462 61H24.1177V5.50582H33.3462L37.0376 16.58L48.1118 20.2714Z" fill="#BBDCFF"/>
<path d="M35.9552 5.50582H33.3452V20.2714H48.1108V17.6778L35.9552 5.50582Z" fill="#9ABADB"/>
<path d="M48.1118 23.9628C43.0179 23.9628 38.8833 28.0974 38.8833 33.1913C38.8833 38.2853 43.0179 42.4198 48.1118 42.4198C53.2058 42.4198 57.3403 38.2853 57.3403 33.1913C57.3403 28.0974 53.2058 23.9628 48.1118 23.9628Z" fill="#FFCEBF"/>
<path d="M57.3394 33.1913C57.3394 38.2853 53.2048 42.4198 48.1108 42.4198V23.9628C53.2048 23.9628 57.3394 28.0974 57.3394 33.1913Z" fill="#FFB99C"/>
<path d="M62.9995 57.1855V60.9999H33.3452V57.1855C33.3452 49.6916 38.9934 43.5273 46.2651 42.6044L48.1108 46.1112L49.9565 42.6044C57.2283 43.5273 62.9995 49.6916 62.9995 57.1855Z" fill="#575F64"/>
<path d="M62.9995 57.1855V60.9999H48.1108V46.1112L49.9565 42.6044C57.2283 43.5273 62.9995 49.6916 62.9995 57.1855Z" fill="#32393F"/>
<path d="M49.9575 42.6044V53.4941H46.2661V42.6044C46.8934 42.5304 47.4846 42.4199 48.1118 42.4199C48.7391 42.4199 49.3303 42.5304 49.9575 42.6044Z" fill="#BBDCFF"/>
<path d="M49.9565 42.6044V53.4941H48.1108V42.4199C48.7381 42.4199 49.3293 42.5304 49.9565 42.6044Z" fill="#9ABADB"/>
<path d="M7.38281 23.9629H37.0371V27.6543H7.38281V23.9629Z" fill="#BBDCFF"/>
<path d="M7.38281 31.3456H33.3457V35.0371H7.38281V31.3456Z" fill="#BBDCFF"/>
<path d="M7.38281 38.7285H33.3457V42.4199H7.38281V38.7285Z" fill="#BBDCFF"/>
<path d="M7.38281 46.1113H29.6543V49.8027H7.38281V46.1113Z" fill="#BBDCFF"/>
<path d="M14.7656 16.5801H25.9629V20.2715H14.7656V16.5801Z" fill="#BBDCFF"/>
<path d="M24.1177 16.58H25.9634V20.2714H24.1177V16.58Z" fill="#9ABADB"/>
<path d="M24.1177 46.1112H29.6548V49.8026H24.1177V46.1112Z" fill="#9ABADB"/>
<path d="M24.1177 31.3457H33.3462V35.0371H24.1177V31.3457Z" fill="#9ABADB"/>
<path d="M24.1177 38.7284H33.3462V42.4198H24.1177V38.7284Z" fill="#9ABADB"/>
<path d="M24.1177 23.9628H37.0376V27.6542H24.1177V23.9628Z" fill="#9ABADB"/>
</g>
</g>
<defs>
<clipPath id="clip0_28_287">
<rect width="77.7083" height="77.7083" fill="white"/>
</clipPath>
<clipPath id="clip1_28_287">
<rect width="63" height="63" fill="white" transform="translate(0 -2)"/>
</clipPath>
</defs>
</svg>
