<svg width="353" height="405" viewBox="0 0 353 405" fill="none" xmlns="http://www.w3.org/2000/svg">
<ellipse cx="140.318" cy="337.762" rx="66.7971" ry="69.7992" transform="rotate(90 140.318 337.762)" fill="white" fill-opacity="0.1"/>
<ellipse cx="282.117" cy="202.349" rx="67.1691" ry="70.1879" transform="rotate(90 282.117 202.349)" fill="white" fill-opacity="0.1"/>
<path opacity="0.1" d="M70.5391 68.0106C70.5391 76.8313 72.3545 85.5657 75.8818 93.7151C79.4091 101.864 84.5791 109.269 91.0966 115.506C97.6142 121.744 105.352 126.691 113.867 130.067C122.383 133.442 131.51 135.18 140.727 135.18C149.944 135.18 159.071 133.442 167.587 130.067C176.102 126.691 183.84 121.744 190.357 115.506C196.875 109.269 202.045 101.864 205.572 93.7151C209.099 85.5657 210.915 76.8313 210.915 68.0105L140.727 68.0106L70.5391 68.0106Z" fill="white"/>
<path opacity="0.1" d="M-0.000979084 269.641C9.25221 269.641 18.4148 267.896 26.9636 264.508C35.5125 261.119 43.2801 256.152 49.8231 249.89C56.3661 243.629 61.5563 236.195 65.0973 228.014C68.6384 219.833 70.4609 211.065 70.4609 202.209C70.4609 193.354 68.6384 184.586 65.0973 176.404C61.5563 168.223 56.3661 160.79 49.8231 154.528C43.2801 148.267 35.5124 143.3 26.9636 139.911C18.4148 136.522 9.25218 134.778 -0.00101078 134.778L-0.000985244 202.209L-0.000979084 269.641Z" fill="white"/>
<rect opacity="0.2" x="211.406" y="134.816" width="134.817" height="140.878" transform="rotate(90 211.406 134.816)" fill="white"/>
<path d="M352.289 269.641L277.238 339.498L211.412 404.458L211.412 269.641L352.289 269.641Z" fill="white" fill-opacity="0.15"/>
<path d="M211.406 134.816L286.458 64.9587L352.283 -0.00103919L352.283 134.816L211.406 134.816Z" fill="white" fill-opacity="0.15"/>
</svg>
