<svg width="204" height="202" viewBox="0 0 204 202" fill="none" xmlns="http://www.w3.org/2000/svg">
<circle cx="81.1607" cy="161.8" r="40.1831" transform="rotate(90 81.1607 161.8)" fill="white" fill-opacity="0.1"/>
<circle cx="162.781" cy="80.3366" r="40.4069" transform="rotate(90 162.781 80.3366)" fill="white" fill-opacity="0.1"/>
<path opacity="0.1" d="M40.9687 -0.477192C40.9687 4.82912 42.0139 10.0835 44.0445 14.9859C46.0752 19.8882 49.0515 24.3427 52.8037 28.0948C56.5558 31.8469 61.0102 34.8233 65.9126 36.8539C70.815 38.8845 76.0693 39.9297 81.3756 39.9297C86.682 39.9297 91.9363 38.8845 96.8387 36.8539C101.741 34.8233 106.196 31.8469 109.948 28.0948C113.7 24.3427 116.676 19.8882 118.707 14.9858C120.737 10.0834 121.783 4.8291 121.783 -0.477207L81.3756 -0.477194L40.9687 -0.477192Z" fill="white"/>
<path opacity="0.1" d="M0.365074 120.816C5.69209 120.816 10.967 119.767 15.8885 117.729C20.81 115.69 25.2818 112.702 29.0486 108.935C32.8154 105.169 35.8033 100.697 37.8419 95.7752C39.8805 90.8537 40.9297 85.5788 40.9297 80.2518C40.9297 74.9248 39.8804 69.6499 37.8419 64.7284C35.8033 59.8069 32.8153 55.335 29.0486 51.5683C25.2818 47.8015 20.81 44.8135 15.8885 42.775C10.9669 40.7364 5.69208 39.6872 0.365056 39.6872L0.365071 80.2518L0.365074 120.816Z" fill="white"/>
<rect opacity="0.2" x="122.07" y="39.7227" width="81.102" height="81.1031" transform="rotate(90 122.07 39.7227)" fill="white"/>
<path d="M203.188 120.816L159.981 162.841L122.085 201.918L122.085 120.816L203.188 120.816Z" fill="white" fill-opacity="0.15"/>
<path d="M122.07 39.7227L165.277 -2.30162L203.172 -41.3794L203.172 39.7227L122.07 39.7227Z" fill="white" fill-opacity="0.15"/>
</svg>
