<svg width="412" height="209" viewBox="0 0 412 209" fill="none" xmlns="http://www.w3.org/2000/svg">
<path d="M353 27C353 21.4772 357.477 17 363 17H389C394.523 17 399 21.4772 399 27V175H353V27Z" fill="url(#paint0_linear_6073_1498)"/>
<line y1="176" x2="412" y2="176" stroke="#F7F7F7" stroke-width="2"/>
<line x1="28" y1="43.5937" x2="28" y2="174.594" stroke="#F7F7F7" stroke-width="2"/>
<line x1="28" y1="163.594" x2="28" y2="174.594" stroke="#6666F2" stroke-width="2"/>
<line x1="96" y1="43.5937" x2="96" y2="174.594" stroke="#F7F7F7" stroke-width="2"/>
<line x1="96" y1="163.594" x2="96" y2="174.594" stroke="#6666F2" stroke-width="2"/>
<line x1="164" y1="43.5937" x2="164" y2="174.594" stroke="#F7F7F7" stroke-width="2"/>
<line x1="164" y1="163.594" x2="164" y2="174.594" stroke="#6666F2" stroke-width="2"/>
<line x1="232" y1="43.5937" x2="232" y2="174.594" stroke="#F7F7F7" stroke-width="2"/>
<line x1="232" y1="163.594" x2="232" y2="174.594" stroke="#6666F2" stroke-width="2"/>
<line x1="300" y1="43.5937" x2="300" y2="174.594" stroke="#F7F7F7" stroke-width="2"/>
<line x1="300" y1="163.594" x2="300" y2="174.594" stroke="#6666F2" stroke-width="2"/>
<line x1="376.25" y1="44.5937" x2="376.25" y2="174.594" stroke="#6666F2" stroke-width="0.5" stroke-dasharray="2 2"/>
<circle cx="376" cy="86.5938" r="9" fill="#CFD4F9"/>
<circle cx="376" cy="86.5938" r="5.25" fill="white" stroke="#6666F2" stroke-width="1.5"/>
<path d="M374 87.5548C366.411 90.4338 354.682 94.6172 344.71 122.872C342.458 129.254 336.604 134.957 330.073 133.182C326.76 132.281 322.873 130.39 317.332 126.615C314.544 124.715 311.191 123.325 307.993 124.402C300.859 126.804 291.064 135.659 266.425 164.46C264.64 166.547 262.364 168.227 259.723 168.98C254.439 170.487 248.707 170.748 242.528 164.903C238.698 160.475 229.014 140.818 221.455 124.724C217.816 116.975 208.715 113.413 200.831 116.752L195.173 119.148C188.901 121.804 181.633 120.133 177.15 115.004L162.485 98.2255C154.985 89.6446 141.139 91.6078 136.32 101.936L121.503 133.69C118.093 140.999 109.717 144.557 102.088 141.936L90.957 138.112C83.5704 135.574 75.4596 138.872 70.7101 145.072C61.7858 156.723 46.9463 170.714 28 175" stroke="#6666F2" stroke-width="2" stroke-linecap="round"/>
<path d="M22.408 196.696V205H21.316V198.808L18.556 205H17.788L15.016 198.796V205H13.924V196.696H15.1L18.172 203.56L21.244 196.696H22.408ZM28.0519 205.084C27.2759 205.084 26.5679 204.904 25.9279 204.544C25.2879 204.176 24.7799 203.668 24.4039 203.02C24.0359 202.364 23.8519 201.628 23.8519 200.812C23.8519 199.996 24.0359 199.264 24.4039 198.616C24.7799 197.96 25.2879 197.452 25.9279 197.092C26.5679 196.724 27.2759 196.54 28.0519 196.54C28.8359 196.54 29.5479 196.724 30.1879 197.092C30.8279 197.452 31.3319 197.956 31.6999 198.604C32.0679 199.252 32.2519 199.988 32.2519 200.812C32.2519 201.636 32.0679 202.372 31.6999 203.02C31.3319 203.668 30.8279 204.176 30.1879 204.544C29.5479 204.904 28.8359 205.084 28.0519 205.084ZM28.0519 204.136C28.6359 204.136 29.1599 204 29.6239 203.728C30.0959 203.456 30.4639 203.068 30.7279 202.564C30.9999 202.06 31.1359 201.476 31.1359 200.812C31.1359 200.14 30.9999 199.556 30.7279 199.06C30.4639 198.556 30.0999 198.168 29.6359 197.896C29.1719 197.624 28.6439 197.488 28.0519 197.488C27.4599 197.488 26.9319 197.624 26.4679 197.896C26.0039 198.168 25.6359 198.556 25.3639 199.06C25.0999 199.556 24.9679 200.14 24.9679 200.812C24.9679 201.476 25.0999 202.06 25.3639 202.564C25.6359 203.068 26.0039 203.456 26.4679 203.728C26.9399 204 27.4679 204.136 28.0519 204.136ZM40.2695 205H39.1775L34.7855 198.34V205H33.6935V196.624H34.7855L39.1775 203.272V196.624H40.2695V205Z" fill="#676767"/>
<path d="M91.072 196.636V197.524H88.792V205H87.7V197.524H85.408V196.636H91.072ZM93.4842 196.636V201.928C93.4842 202.672 93.6642 203.224 94.0242 203.584C94.3922 203.944 94.9002 204.124 95.5482 204.124C96.1882 204.124 96.6882 203.944 97.0482 203.584C97.4162 203.224 97.6002 202.672 97.6002 201.928V196.636H98.6922V201.916C98.6922 202.612 98.5522 203.2 98.2722 203.68C97.9922 204.152 97.6122 204.504 97.1322 204.736C96.6602 204.968 96.1282 205.084 95.5362 205.084C94.9442 205.084 94.4082 204.968 93.9282 204.736C93.4562 204.504 93.0802 204.152 92.8002 203.68C92.5282 203.2 92.3922 202.612 92.3922 201.916V196.636H93.4842ZM101.606 197.524V200.32H104.654V201.22H101.606V204.1H105.014V205H100.514V196.624H105.014V197.524H101.606Z" fill="#676767"/>
<path d="M162.436 196.636L160.012 205H158.788L156.844 198.268L154.828 205L153.616 205.012L151.276 196.636H152.44L154.264 203.728L156.28 196.636H157.504L159.424 203.704L161.26 196.636H162.436ZM164.723 197.524V200.32H167.771V201.22H164.723V204.1H168.131V205H163.631V196.624H168.131V197.524H164.723ZM172.387 196.636C173.299 196.636 174.087 196.808 174.751 197.152C175.423 197.488 175.935 197.972 176.287 198.604C176.647 199.236 176.827 199.98 176.827 200.836C176.827 201.692 176.647 202.436 176.287 203.068C175.935 203.692 175.423 204.172 174.751 204.508C174.087 204.836 173.299 205 172.387 205H169.783V196.636H172.387ZM172.387 204.1C173.467 204.1 174.291 203.816 174.859 203.248C175.427 202.672 175.711 201.868 175.711 200.836C175.711 199.796 175.423 198.984 174.847 198.4C174.279 197.816 173.459 197.524 172.387 197.524H170.875V204.1H172.387Z" fill="#676767"/>
<path d="M227.072 196.636V197.524H224.792V205H223.7V197.524H221.408V196.636H227.072ZM234.86 196.636V205H233.768V201.208H229.508V205H228.416V196.636H229.508V200.308H233.768V196.636H234.86ZM237.793 196.636V201.928C237.793 202.672 237.973 203.224 238.333 203.584C238.701 203.944 239.209 204.124 239.857 204.124C240.497 204.124 240.997 203.944 241.357 203.584C241.725 203.224 241.909 202.672 241.909 201.928V196.636H243.001V201.916C243.001 202.612 242.861 203.2 242.581 203.68C242.301 204.152 241.921 204.504 241.441 204.736C240.969 204.968 240.437 205.084 239.845 205.084C239.253 205.084 238.717 204.968 238.237 204.736C237.765 204.504 237.389 204.152 237.109 203.68C236.837 203.2 236.701 202.612 236.701 201.916V196.636H237.793Z" fill="#676767"/>
<path d="M298.652 196.636V197.524H295.016V200.344H297.968V201.232H295.016V205H293.924V196.636H298.652ZM304.375 205L302.383 201.58H301.063V205H299.971V196.636H302.671C303.303 196.636 303.835 196.744 304.267 196.96C304.707 197.176 305.035 197.468 305.251 197.836C305.467 198.204 305.575 198.624 305.575 199.096C305.575 199.672 305.407 200.18 305.071 200.62C304.743 201.06 304.247 201.352 303.583 201.496L305.683 205H304.375ZM301.063 200.704H302.671C303.263 200.704 303.707 200.56 304.003 200.272C304.299 199.976 304.447 199.584 304.447 199.096C304.447 198.6 304.299 198.216 304.003 197.944C303.715 197.672 303.271 197.536 302.671 197.536H301.063V200.704ZM308.364 196.636V205H307.272V196.636H308.364Z" fill="#676767"/>
<path d="M368.576 205.084C368.024 205.084 367.528 204.988 367.088 204.796C366.656 204.596 366.316 204.324 366.068 203.98C365.82 203.628 365.692 203.224 365.684 202.768H366.848C366.888 203.16 367.048 203.492 367.328 203.764C367.616 204.028 368.032 204.16 368.576 204.16C369.096 204.16 369.504 204.032 369.8 203.776C370.104 203.512 370.256 203.176 370.256 202.768C370.256 202.448 370.168 202.188 369.992 201.988C369.816 201.788 369.596 201.636 369.332 201.532C369.068 201.428 368.712 201.316 368.264 201.196C367.712 201.052 367.268 200.908 366.932 200.764C366.604 200.62 366.32 200.396 366.08 200.092C365.848 199.78 365.732 199.364 365.732 198.844C365.732 198.388 365.848 197.984 366.08 197.632C366.312 197.28 366.636 197.008 367.052 196.816C367.476 196.624 367.96 196.528 368.504 196.528C369.288 196.528 369.928 196.724 370.424 197.116C370.928 197.508 371.212 198.028 371.276 198.676H370.076C370.036 198.356 369.868 198.076 369.572 197.836C369.276 197.588 368.884 197.464 368.396 197.464C367.94 197.464 367.568 197.584 367.28 197.824C366.992 198.056 366.848 198.384 366.848 198.808C366.848 199.112 366.932 199.36 367.1 199.552C367.276 199.744 367.488 199.892 367.736 199.996C367.992 200.092 368.348 200.204 368.804 200.332C369.356 200.484 369.8 200.636 370.136 200.788C370.472 200.932 370.76 201.16 371 201.472C371.24 201.776 371.36 202.192 371.36 202.72C371.36 203.128 371.252 203.512 371.036 203.872C370.82 204.232 370.5 204.524 370.076 204.748C369.652 204.972 369.152 205.084 368.576 205.084ZM377.911 203.14H374.263L373.591 205H372.439L375.463 196.684H376.723L379.735 205H378.583L377.911 203.14ZM377.599 202.252L376.087 198.028L374.575 202.252H377.599ZM386.201 196.636V197.524H383.921V205H382.829V197.524H380.537V196.636H386.201Z" fill="#676767"/>
<g filter="url(#filter0_d_6073_1498)">
<path d="M276 23.8203C276 18.949 279.949 15 284.82 15H341.18C346.051 15 350 18.949 350 23.8203V52.1797C350 57.051 346.051 61 341.18 61H284.82C279.949 61 276 57.051 276 52.1797V23.8203Z" fill="white"/>
<path d="M295.146 25.8177V33.1738H293.939V25.8177H295.146ZM299.672 27.2466C300.131 27.2466 300.54 27.3418 300.9 27.5323C301.267 27.7229 301.553 28.0051 301.757 28.3791C301.962 28.7531 302.064 29.2047 302.064 29.7339V33.1738H300.868V29.9138C300.868 29.3917 300.738 28.993 300.477 28.7178C300.216 28.4355 299.859 28.2944 299.408 28.2944C298.956 28.2944 298.596 28.4355 298.328 28.7178C298.067 28.993 297.936 29.3917 297.936 29.9138V33.1738H296.73V27.3418H297.936V28.0086C298.134 27.7687 298.385 27.5817 298.688 27.4477C298.998 27.3136 299.327 27.2466 299.672 27.2466ZM311.105 25.8177V26.802H309.147V33.1738H307.941V26.802H305.972V25.8177H311.105ZM312.941 26.5692C312.723 26.5692 312.539 26.4951 312.391 26.3469C312.243 26.1987 312.169 26.0152 312.169 25.7965C312.169 25.5778 312.243 25.3943 312.391 25.2461C312.539 25.0979 312.723 25.0238 312.941 25.0238C313.153 25.0238 313.333 25.0979 313.481 25.2461C313.629 25.3943 313.703 25.5778 313.703 25.7965C313.703 26.0152 313.629 26.1987 313.481 26.3469C313.333 26.4951 313.153 26.5692 312.941 26.5692ZM313.534 27.3418V33.1738H312.327V27.3418H313.534ZM322.178 27.2466C322.637 27.2466 323.046 27.3418 323.406 27.5323C323.773 27.7229 324.058 28.0051 324.263 28.3791C324.475 28.7531 324.581 29.2047 324.581 29.7339V33.1738H323.385V29.9138C323.385 29.3917 323.254 28.993 322.993 28.7178C322.732 28.4355 322.376 28.2944 321.924 28.2944C321.472 28.2944 321.112 28.4355 320.844 28.7178C320.583 28.993 320.453 29.3917 320.453 29.9138V33.1738H319.257V29.9138C319.257 29.3917 319.126 28.993 318.865 28.7178C318.604 28.4355 318.248 28.2944 317.796 28.2944C317.344 28.2944 316.985 28.4355 316.716 28.7178C316.455 28.993 316.325 29.3917 316.325 29.9138V33.1738H315.118V27.3418H316.325V28.0086C316.522 27.7687 316.773 27.5817 317.076 27.4477C317.38 27.3136 317.704 27.2466 318.05 27.2466C318.516 27.2466 318.932 27.3453 319.299 27.5429C319.666 27.7405 319.948 28.0263 320.146 28.4003C320.322 28.0474 320.597 27.7687 320.971 27.5641C321.345 27.3524 321.748 27.2466 322.178 27.2466ZM331.461 30.1149C331.461 30.3337 331.447 30.5313 331.419 30.7077H326.963C326.998 31.1734 327.171 31.5474 327.481 31.8296C327.792 32.1119 328.173 32.253 328.625 32.253C329.274 32.253 329.732 31.9813 330.001 31.438H331.302C331.126 31.9743 330.805 32.4153 330.339 32.761C329.881 33.0997 329.309 33.2691 328.625 33.2691C328.067 33.2691 327.566 33.1456 327.122 32.8986C326.684 32.6446 326.338 32.2918 326.084 31.8402C325.837 31.3815 325.714 30.8523 325.714 30.2525C325.714 29.6527 325.834 29.1271 326.074 28.6755C326.321 28.2168 326.663 27.864 327.1 27.617C327.545 27.37 328.053 27.2466 328.625 27.2466C329.175 27.2466 329.665 27.3665 330.096 27.6064C330.526 27.8463 330.861 28.185 331.101 28.6225C331.341 29.053 331.461 29.5504 331.461 30.1149ZM330.202 29.7339C330.195 29.2894 330.036 28.933 329.725 28.6649C329.415 28.3967 329.03 28.2627 328.572 28.2627C328.155 28.2627 327.799 28.3967 327.503 28.6649C327.206 28.926 327.03 29.2823 326.973 29.7339H330.202Z" fill="#444444"/>
<path d="M290.381 44.8232V43.4578H292.932V51.1738H291.408V44.8232H290.381ZM294.396 47.2153C294.396 45.9945 294.614 45.0384 295.052 44.3469C295.497 43.6554 296.23 43.3096 297.254 43.3096C298.277 43.3096 299.007 43.6554 299.445 44.3469C299.889 45.0384 300.111 45.9945 300.111 47.2153C300.111 48.4431 299.889 49.4062 299.445 50.1048C299.007 50.8034 298.277 51.1527 297.254 51.1527C296.23 51.1527 295.497 50.8034 295.052 50.1048C294.614 49.4062 294.396 48.4431 294.396 47.2153ZM298.651 47.2153C298.651 46.6931 298.615 46.2556 298.545 45.9028C298.481 45.5429 298.347 45.2501 298.143 45.0243C297.945 44.7985 297.649 44.6856 297.254 44.6856C296.858 44.6856 296.559 44.7985 296.354 45.0243C296.156 45.2501 296.022 45.5429 295.952 45.9028C295.888 46.2556 295.856 46.6931 295.856 47.2153C295.856 47.7515 295.888 48.2031 295.952 48.5701C296.015 48.9299 296.149 49.2228 296.354 49.4486C296.559 49.6673 296.858 49.7767 297.254 49.7767C297.649 49.7767 297.949 49.6673 298.153 49.4486C298.358 49.2228 298.492 48.9299 298.555 48.5701C298.619 48.2031 298.651 47.7515 298.651 47.2153ZM302.064 51.2479C301.796 51.2479 301.574 51.1668 301.397 51.0045C301.228 50.8351 301.143 50.627 301.143 50.38C301.143 50.133 301.228 49.9284 301.397 49.7661C301.574 49.5968 301.796 49.5121 302.064 49.5121C302.325 49.5121 302.54 49.5968 302.71 49.7661C302.879 49.9284 302.964 50.133 302.964 50.38C302.964 50.627 302.879 50.8351 302.71 51.0045C302.54 51.1668 302.325 51.2479 302.064 51.2479ZM302.064 46.866C301.796 46.866 301.574 46.7848 301.397 46.6225C301.228 46.4532 301.143 46.245 301.143 45.9981C301.143 45.7511 301.228 45.5465 301.397 45.3842C301.574 45.2148 301.796 45.1301 302.064 45.1301C302.325 45.1301 302.54 45.2148 302.71 45.3842C302.879 45.5465 302.964 45.7511 302.964 45.9981C302.964 46.245 302.879 46.4532 302.71 46.6225C302.54 46.7848 302.325 46.866 302.064 46.866ZM303.839 44.8232V43.4578H306.39V51.1738H304.866V44.8232H303.839ZM312.765 44.5797L309.949 51.1738H308.446L311.283 44.7491H307.663V43.479H312.765V44.5797ZM318.352 49.7661H315.409L314.922 51.1738H313.367L316.023 43.7753H317.749L320.405 51.1738H318.839L318.352 49.7661ZM317.95 48.5806L316.881 45.49L315.812 48.5806H317.95ZM329.453 43.7859V51.1738H327.971V46.3685L325.992 51.1738H324.87L322.88 46.3685V51.1738H321.398V43.7859H323.081L325.431 49.2792L327.781 43.7859H329.453Z" fill="#4660F6"/>
</g>
<path d="M361 38.5L344.5 28.5407V48.4593L361 38.5Z" fill="white"/>
<defs>
<filter id="filter0_d_6073_1498" x="258.359" y="0.887459" width="109.281" height="81.2814" filterUnits="userSpaceOnUse" color-interpolation-filters="sRGB">
<feFlood flood-opacity="0" result="BackgroundImageFix"/>
<feColorMatrix in="SourceAlpha" type="matrix" values="0 0 0 0 0 0 0 0 0 0 0 0 0 0 0 0 0 0 127 0" result="hardAlpha"/>
<feOffset dy="3.52814"/>
<feGaussianBlur stdDeviation="8.82034"/>
<feComposite in2="hardAlpha" operator="out"/>
<feColorMatrix type="matrix" values="0 0 0 0 0.823529 0 0 0 0 0.823529 0 0 0 0 0.94902 0 0 0 0.7 0"/>
<feBlend mode="normal" in2="BackgroundImageFix" result="effect1_dropShadow_6073_1498"/>
<feBlend mode="normal" in="SourceGraphic" in2="effect1_dropShadow_6073_1498" result="shape"/>
</filter>
<linearGradient id="paint0_linear_6073_1498" x1="376" y1="17" x2="376" y2="175" gradientUnits="userSpaceOnUse">
<stop stop-color="#DEDFF4"/>
<stop offset="1" stop-color="#FBFBFB"/>
</linearGradient>
</defs>
</svg>
