<svg width="527" height="474" viewBox="0 0 527 474" fill="none" xmlns="http://www.w3.org/2000/svg">
<ellipse cx="253.759" cy="419.548" rx="253.759" ry="54.1353" fill="#CCCCCC"/>
<path d="M91.3535 0L409.416 45.5056L412.782 409.551L91.3535 450V0Z" fill="#1A36E1"/>
<path d="M216.541 290.977L411.854 279.5L414.474 409.398L91.3535 450L216.541 290.977Z" fill="#1329B4"/>
<path d="M216.541 155.639C187.859 76.6945 153.947 32.1429 93.0449 0L165.789 10.1504C232.106 52.9704 254.906 89.162 284.21 159.023L216.541 155.639Z" fill="#298DEC"/>
<path d="M216.542 155.639C240.226 197.932 282.519 174.248 284.211 159.022L216.542 155.639Z" fill="#20719E"/>
<path d="M284.21 159.022C307.895 201.316 346.804 177.631 348.496 162.406L284.21 159.022Z" fill="#CCCCCC" stroke="#CCCCCC" stroke-width="0.25"/>
<path d="M348.496 162.406C368.628 204.337 404.577 179.193 406.015 164.098L348.496 162.406Z" fill="#20719E"/>
<path d="M406.015 164.098C429.699 209.774 473.684 187.782 473.684 169.173L406.015 164.098Z" fill="#CCCCCC"/>
<path d="M473.684 169.173C492.293 211.466 526.128 189.474 526.128 170.865L473.684 169.173Z" fill="#20719E"/>
<path d="M284.211 159.023C253.759 77.8196 218.233 40.6015 165.79 10.1504L238.534 20.3008C304.85 63.1208 319.192 92.5454 348.496 162.406L284.211 159.023Z" fill="#F5F5F6"/>
<path d="M348.496 162.406C318.045 81.203 287.594 50.7519 238.534 20.3008L290.977 27.0677C357.294 69.8878 370.489 91.3534 406.015 164.098L348.496 162.406Z" fill="#298DEC" stroke="#298DEC" stroke-width="0.25"/>
<path d="M406.015 164.098C368.797 81.2032 336.654 55.8273 290.978 27.0679L360.338 37.2182C426.655 80.0383 438.158 96.4288 473.684 169.173L406.015 164.098Z" fill="#F5F5F6"/>
<path d="M473.684 169.173C436.466 86.2784 406.015 65.9777 360.338 37.2183L409.399 43.9852C460.15 81.2032 475.376 94.7371 526.128 170.865L473.684 169.173Z" fill="#298DEC" stroke="#298DEC" stroke-width="0.25"/>
</svg>
