<svg width="123" height="123" viewBox="0 0 123 123" fill="none" xmlns="http://www.w3.org/2000/svg">
<path d="M53.0262 26.731C49.3141 23.3901 44.3027 21.9052 39.2914 22.462C30.9391 23.5757 24.4429 30.2575 24.4429 38.2385V38.6098C24.6285 41.7651 26.2989 51.9734 38.3633 54.0151C39.477 54.2007 40.405 54.3863 41.5186 54.3863C45.602 54.3863 49.4997 52.9014 52.655 50.3029C56.3671 47.3332 58.4088 42.8787 58.4088 38.4241C58.4088 33.784 56.5527 29.7007 53.0262 26.731ZM50.2421 47.3332C47.0868 49.9317 43.0035 51.0454 38.9201 50.3029C29.8254 48.8181 28.3406 41.3938 28.155 38.2385C28.155 38.2385 28.155 38.2385 28.155 38.0529C28.155 31.9279 33.1664 26.731 39.6626 25.9885C43.5603 25.4317 47.6436 26.731 50.6133 29.3294C53.2118 31.7423 54.6967 34.8976 54.6967 38.2385C54.6967 41.7651 53.0262 45.106 50.2421 47.3332Z" fill="#6666F2"/>
<path d="M65.2763 67.3783L72.5149 60.5109C73.2574 59.9541 73.2574 58.8404 72.7005 58.098L67.5036 50.8594C68.246 49.3745 68.9884 47.8897 69.3596 46.4048L78.6399 44.7344C79.568 44.5488 80.1248 43.8063 80.1248 42.8783V33.2268C80.1248 32.2988 79.3824 31.5563 78.6399 31.3707L69.174 29.7003C68.6172 28.2154 68.0604 26.7306 67.1324 25.2457L72.3293 18.0071C72.8861 17.2647 72.7005 16.151 72.1437 15.5942C71.9581 15.4086 65.2763 9.28362 64.7195 8.91241C64.1627 8.54119 63.6058 8.35559 62.8634 8.54119C62.6778 8.54119 62.3066 8.7268 62.121 8.91241L55.068 13.367C54.8824 13.5526 54.6967 13.5526 54.5111 13.7382C53.0263 12.9957 51.5414 12.4389 50.0566 12.0677L48.2005 3.34422C48.0149 2.41619 47.2725 1.85938 46.3445 1.85938H36.1361C35.2081 1.85938 34.4657 2.6018 34.2801 3.52983L32.424 12.0677C30.7536 12.6245 29.0831 13.1813 27.5983 13.9238C23.5149 11.3253 21.2877 10.026 19.9884 9.28362C19.8028 9.09801 19.8028 9.09801 19.6172 8.91241V9.09801C18.5036 8.54119 18.318 8.7268 17.7611 8.91241C17.7611 9.09801 17.3899 9.28362 17.3899 9.46922L10.3369 15.9654C9.59448 16.7079 9.59448 17.8215 10.3369 18.5639C10.8937 19.3063 12.5642 21.5336 13.8634 23.3897L15.3483 25.8026C14.6058 27.2874 13.8634 28.7723 13.4922 30.2571L4.2119 31.9276C3.28387 32.1132 2.72705 32.8556 2.72705 33.7836V43.4351C2.72705 44.1776 3.09826 44.7344 3.65508 45.1056C4.02629 45.2912 4.2119 45.4768 4.58311 45.2912L13.6778 46.776C14.049 47.8897 14.6058 49.3745 15.7195 51.2306C13.121 54.9427 11.6361 56.9844 10.8937 58.2836C10.7081 58.4692 10.7081 58.4692 10.5225 58.6548C9.96569 59.7685 9.96569 59.9541 10.3369 60.5109C10.5225 60.8821 10.7081 61.0677 11.0793 61.2533C12.3786 62.367 17.7611 67.3783 18.1324 67.7495C18.6892 68.1207 19.246 68.3064 19.9884 68.1207C20.174 68.1207 20.5452 67.9351 20.7308 67.7495L28.3407 62.7382C29.8255 63.4806 31.3104 64.0374 32.7952 64.4086L34.6513 73.1321C34.8369 74.0601 35.5793 74.617 36.5074 74.617H46.7157C47.6437 74.617 48.3861 74.0601 48.5717 73.1321L50.4278 64.4086C52.0983 63.8518 53.7687 63.295 55.2536 62.5526L63.2346 67.5639C63.6058 68.1207 64.5339 67.9351 65.2763 67.3783ZM54.3255 58.8404C52.4695 59.9541 50.4278 60.6965 48.2005 61.2533C47.4581 61.4389 46.9013 61.9957 46.9013 62.7382L45.0452 70.9048H37.8066L36.1361 62.5526C35.9505 61.8101 35.3937 61.2533 34.8369 61.0677C32.7952 60.5109 30.7536 59.7685 29.0831 58.8404C28.5263 58.4692 27.7839 58.4692 27.2271 58.8404L19.6172 63.6662C18.5036 63.1094 16.8331 61.6245 14.4202 59.3973C16.0907 56.9844 19.246 52.5298 19.246 52.3442C19.6172 51.7874 19.6172 50.8594 19.246 50.3026C17.9467 48.0753 17.3899 46.776 16.8331 45.2912L16.6475 44.5488C16.4619 43.992 15.9051 43.4351 15.1627 43.4351L6.25357 41.9503C6.25357 40.651 6.25357 38.4238 6.25357 35.4541L15.1627 33.7836C15.9051 33.598 16.4619 33.0412 16.6475 32.4844C17.0187 31.1851 17.7611 29.1435 18.8748 27.2874C19.6172 26.7306 19.8028 26.1738 18.8748 24.8745C18.8748 24.6889 18.6892 24.6889 18.6892 24.5033C18.318 23.7609 17.5755 23.0185 16.8331 21.7192L14.049 17.6359C14.9771 16.7079 16.4619 15.4086 18.5036 13.367L19.0604 12.9957C21.4733 14.4806 26.4846 17.6359 26.6702 17.8215C27.2271 18.1927 27.9695 18.1927 28.5263 17.8215C30.3824 16.8935 32.424 15.9654 34.6513 15.4086C35.3937 15.223 35.9505 14.6662 35.9505 13.9238L37.8066 5.5715H45.0452L46.7157 13.9238C46.9013 14.6662 47.4581 15.223 48.0149 15.4086C50.0566 15.9654 51.7271 16.5223 53.5831 17.4503C54.1399 17.8215 55.068 18.0071 55.6248 17.4503L63.2346 12.6245C64.1627 13.5526 65.8331 15.0374 68.246 17.2647L63.2346 24.3177C62.8634 24.8745 62.8634 25.8026 63.2346 26.3594C64.3483 28.2154 65.2763 30.0715 65.8331 31.9276C66.0187 32.67 66.5755 33.0412 67.318 33.2268L76.227 34.7117V41.2079L67.318 42.8783C66.5755 43.0639 66.0187 43.4351 65.8331 44.1776C65.6475 46.4048 64.7195 48.2609 63.6058 49.9313C63.2346 50.4882 63.2346 51.4162 63.6058 51.973L68.6172 58.8404L63.6058 63.4806L56.1816 58.8404C55.6248 58.6548 54.8824 58.4692 54.3255 58.8404Z" fill="#6666F2"/>
<path d="M104.996 87.9821C103.697 81.4859 97.7576 76.6602 91.2613 76.6602C83.4659 76.6602 77.1553 82.9708 77.1553 90.7662V90.9518C77.1553 95.2208 79.0113 98.9329 82.3522 101.717C84.9507 103.759 88.106 104.872 91.2613 104.872C93.8598 104.872 96.2727 104.13 98.6856 102.831C103.697 99.8609 106.11 93.9215 104.996 87.9821ZM96.6439 99.6753C93.6742 101.531 88.8485 102.274 84.7651 98.9329C82.3522 96.8912 81.053 94.1071 81.053 90.9518C81.053 90.9518 81.053 90.9518 81.053 90.7662C81.053 85.0124 85.6932 80.3723 91.4469 80.3723C96.2727 80.3723 100.542 83.8988 101.655 88.5389C102.398 94.1071 99.6136 97.8193 96.6439 99.6753Z" fill="#6666F2"/>
<path d="M120.772 86.6821C120.772 85.754 120.215 85.0116 119.287 84.826L112.42 83.5268C112.049 82.4131 111.678 81.2995 111.121 80.3714L114.833 74.6177C115.39 73.8752 115.204 72.9472 114.647 72.2048C111.863 69.6063 110.378 67.9358 109.45 67.1934C109.45 67.0078 109.265 66.8222 109.079 66.8222C108.151 66.0798 107.965 66.0798 107.409 66.2654C107.037 66.2654 106.852 66.451 106.666 66.6366C105.738 67.1934 103.14 69.0495 101.469 70.1631L101.284 70.3487C100.356 69.7919 99.4276 69.4207 98.314 69.2351L97.0147 62.3677C96.8291 61.4396 96.0867 60.8828 95.1587 60.8828H87.3632C86.4352 60.8828 85.6928 61.6252 85.5071 62.5533L84.2079 69.2351C83.0943 69.6063 81.9806 69.9775 81.0526 70.5343C79.3821 69.4207 75.67 67.0078 75.2988 66.6366C74.3708 66.0798 73.2571 66.2654 72.7003 67.0078L69.545 70.5343C69.3594 70.7199 69.3594 70.7199 69.1738 70.9055L68.8026 71.2768L68.617 71.4624L68.4314 71.648L67.3178 72.7616C66.7609 73.3184 66.5753 74.4321 67.1321 75.1745C67.1321 75.3601 69.7306 79.0722 71.0299 80.9283C70.4731 82.0419 70.1018 83.1555 69.7306 84.2692L63.0488 85.3828C62.1208 85.5684 61.564 86.3108 61.564 87.2389V94.6631V95.0343C61.7496 96.148 61.9352 96.3336 62.492 96.7048C62.6776 96.8904 63.0488 96.8904 63.42 96.8904L69.9162 98.004C70.2875 98.9321 70.6587 99.8601 71.2155 101.159C70.2874 102.459 68.8026 104.686 68.0602 105.985L67.5034 106.913C66.9465 107.841 67.1321 108.955 68.0602 109.512L73.4427 114.709C73.9996 115.08 74.5564 115.265 75.2988 115.265C75.4844 115.265 75.8556 115.08 76.0412 114.894L81.6094 110.996C82.5374 111.368 83.4655 111.924 84.5791 112.11L85.8784 118.978C86.064 119.906 86.8064 120.462 87.7344 120.462H95.1587C96.0867 120.462 96.8291 119.906 97.0147 118.978L98.314 112.11C99.4276 111.739 100.541 111.368 101.469 110.811L107.223 114.709C107.965 115.265 108.894 115.08 109.636 114.523L115.019 108.955C115.575 108.398 115.761 107.284 115.204 106.542L111.306 100.788C111.863 99.6745 112.234 98.7465 112.606 97.4472L119.287 96.148C120.215 95.9624 120.772 95.2199 120.772 94.2919V86.6821ZM110.75 94.2919C110.007 94.4775 109.45 95.0343 109.265 95.5911C108.894 97.2616 108.151 98.7465 107.409 100.046C107.037 100.603 107.037 101.345 107.409 102.087L111.121 107.47L107.78 110.811L102.397 107.099C101.84 106.728 101.098 106.728 100.356 107.099C99.0564 107.841 97.3859 108.584 95.9011 108.955C95.1587 109.14 94.7875 109.697 94.6018 110.44L93.4882 116.936H88.8481L87.5488 110.625C87.3632 109.883 86.8064 109.326 86.2496 109.14C84.7647 108.769 83.2799 108.212 81.9806 107.47C81.4238 107.099 80.6814 107.099 79.939 107.656L74.5564 111.368C73.814 110.625 72.7003 109.512 71.2155 108.027C72.5147 106.171 74.742 102.83 74.742 102.644C75.1132 102.087 75.1132 101.345 74.742 100.603C73.814 98.9321 73.4427 97.8184 73.0715 96.7048L72.8859 96.148C72.8859 95.2199 72.3291 94.6631 71.5867 94.6631L65.2761 93.5495C65.2761 92.2502 65.2761 90.2086 65.2761 88.9093L71.5867 87.6101C72.3291 87.4245 72.8859 86.8677 73.0715 86.1252C73.2571 85.1972 73.9996 83.3411 74.742 81.8563C74.742 81.6707 74.9276 81.6707 74.9276 81.4851C75.1132 80.9283 75.2988 80.7427 74.742 79.629C74.742 79.4434 74.5564 79.4434 74.3708 79.2578C73.814 78.3298 72.8859 76.8449 71.0299 74.2465C71.0299 74.2465 71.0299 74.2465 71.2155 74.0608L71.4011 73.8752L74.5564 70.7199C75.67 71.648 77.5261 72.7616 79.939 74.4321C80.4958 74.8033 81.2382 74.8033 81.9806 74.4321C83.2799 73.6896 84.7647 72.9472 86.4352 72.576C87.1776 72.3904 87.5488 71.8336 87.7344 71.0911L89.0337 64.7805H93.6738L94.9731 71.0911C95.1587 71.8336 95.5299 72.3904 96.2723 72.576C97.7571 72.9472 98.8708 73.504 100.17 74.0608C100.912 74.8033 101.655 74.6177 102.397 74.0608C103.14 73.504 102.583 73.8752 102.583 73.8752C102.954 73.6896 103.14 73.504 103.511 73.3184C104.625 72.576 106.481 71.2768 107.594 70.3487L110.935 73.6896L107.409 79.0722C107.037 79.629 107.037 80.3715 107.409 81.1139C108.151 82.5987 108.894 84.0836 109.265 85.5684C109.45 86.3108 110.007 86.6821 110.75 86.8677L117.06 87.9813V92.6215L110.75 94.2919Z" fill="#6666F2"/>
<path d="M52.4696 109.14C35.765 108.769 21.8446 96.3334 19.2461 80.1857L22.2158 83.1554C22.9582 83.8978 24.0719 83.8978 24.8143 83.1554C25.5567 82.413 25.5567 81.2994 24.8143 80.5569L18.1325 74.0607C17.39 73.3183 16.2764 73.3183 15.534 74.0607L9.03778 80.7425C8.29535 81.485 8.29535 82.5986 9.03778 83.341C9.7802 84.0835 10.8938 84.0835 11.6363 83.341L15.3484 79.6289C17.7613 98.0039 33.1666 112.481 52.4696 113.038C53.5832 113.038 54.3257 112.11 54.3257 111.182C54.3257 109.883 53.5832 109.14 52.4696 109.14Z" fill="#6666F2"/>
<path d="M119.288 50.1178C118.545 49.3754 117.432 49.3754 116.689 50.1178L113.163 53.6443C113.719 35.0837 100.727 18.5648 82.352 14.8526C81.424 14.667 80.3104 15.4095 80.3104 16.5231C80.1248 17.4511 80.8672 18.3792 81.7952 18.5648C98.3142 21.9057 110.007 36.7542 109.636 53.4587L106.11 50.1178C105.367 49.3754 104.254 49.3754 103.511 50.1178C102.769 50.8602 102.769 51.9739 103.511 52.7163L110.007 59.2125C110.379 59.5837 110.75 59.7693 111.307 59.7693C111.863 59.7693 112.235 59.5837 112.606 59.2125L119.102 52.7163C120.03 51.9739 120.03 50.8602 119.288 50.1178Z" fill="#6666F2"/>
</svg>
