<svg width="142" height="142" viewBox="0 0 142 142" fill="none" xmlns="http://www.w3.org/2000/svg">
<path d="M71 12.78C63.3544 12.78 55.7837 14.2859 48.7202 17.2117C41.6566 20.1376 35.2385 24.426 29.8322 29.8322C24.426 35.2385 20.1376 41.6566 17.2117 48.7202C14.2859 55.7837 12.78 63.3544 12.78 71C12.78 78.6456 14.2859 86.2163 17.2117 93.2798C20.1376 100.343 24.426 106.762 29.8322 112.168C35.2385 117.574 41.6566 121.862 48.7202 124.788C55.7838 127.714 63.3544 129.22 71 129.22" stroke="#47539F" stroke-width="25.56"/>
<path d="M71 129.22C78.6456 129.22 86.2163 127.714 93.2798 124.788C100.343 121.862 106.762 117.574 112.168 112.168C117.574 106.762 121.862 100.343 124.788 93.2798C127.714 86.2163 129.22 78.6456 129.22 71" stroke="#3C887C" stroke-width="25.56"/>
<path d="M129.22 71C129.22 61.8123 127.046 52.755 122.874 44.5687C118.703 36.3824 112.654 29.2994 105.221 23.899" stroke="#CA365F" stroke-width="25.56"/>
<path d="M71 12.78C83.5975 12.78 95.8551 16.866 105.933 24.4247" stroke="#F3A73D" stroke-width="25.56"/>
</svg>
