<svg width="173" height="124" viewBox="0 0 173 124" fill="none" xmlns="http://www.w3.org/2000/svg">
<rect y="7" width="129" height="117" rx="14" fill="#F5F5F5"/>
<path d="M0 21C0 13.268 6.26801 7 14 7H31V124H14C6.26801 124 0 117.732 0 110V21Z" fill="#E5E5FF"/>
<circle cx="15.5" cy="29.5" r="5.5" fill="#F3F3F3"/>
<circle cx="15.5" cy="53.5" r="5.5" fill="#F3F3F3"/>
<circle cx="15.5" cy="77.5" r="5.5" fill="#F3F3F3"/>
<circle cx="15.5" cy="101.5" r="5.5" fill="#F3F3F3"/>
<rect x="47" y="36" width="67" height="6" rx="3" fill="url(#paint0_linear_9027_4897)" fill-opacity="0.2"/>
<rect x="47" y="47" width="51" height="6" rx="3" fill="url(#paint1_linear_9027_4897)" fill-opacity="0.2"/>
<g opacity="0.4">
<rect x="47" y="79" width="67" height="6" rx="3" fill="url(#paint2_linear_9027_4897)" fill-opacity="0.2"/>
<rect x="47" y="90" width="51" height="6" rx="3" fill="url(#paint3_linear_9027_4897)" fill-opacity="0.2"/>
</g>
<rect width="37" height="110" transform="translate(110)" fill="#BEBEEF"/>
<g clip-path="url(#clip0_9027_4897)">
<path fill-rule="evenodd" clip-rule="evenodd" d="M117.698 77.7202V99.5H139.476V77.7193L117.698 77.7202ZM117.698 65.8898H139.476V44.11H117.698V65.8898ZM136.138 52.5572L127.996 60.6984C127.564 61.1301 126.979 61.3726 126.368 61.3726C125.758 61.3726 125.172 61.1301 124.741 60.6984L121.035 56.9935C120.819 56.7804 120.646 56.5265 120.528 56.2466C120.41 55.9666 120.349 55.6661 120.348 55.3623C120.347 55.0584 120.406 54.7574 120.521 54.4765C120.637 54.1955 120.807 53.9403 121.022 53.7254C121.237 53.5106 121.492 53.3404 121.773 53.2247C122.054 53.1089 122.355 53.0499 122.658 53.0511C122.962 53.0523 123.263 53.1136 123.543 53.2316C123.823 53.3495 124.077 53.5217 124.29 53.7382L126.37 55.8156L132.883 49.3014C133.315 48.8707 133.9 48.629 134.51 48.6295C135.12 48.63 135.705 48.8725 136.136 49.3039C136.568 49.7352 136.81 50.3201 136.81 50.9301C136.811 51.54 136.569 52.1252 136.138 52.557L136.138 52.5572ZM126.37 22.2056L132.884 15.6914C133.316 15.265 133.9 15.0271 134.508 15.0294C135.115 15.0317 135.697 15.2741 136.127 15.7037C136.556 16.1333 136.799 16.7153 136.801 17.3228C136.803 17.9303 136.565 18.5141 136.138 18.9468L127.996 27.0884C127.782 27.3022 127.529 27.4718 127.249 27.5875C126.97 27.7031 126.671 27.7627 126.368 27.7627C126.066 27.7627 125.767 27.7031 125.487 27.5875C125.208 27.4718 124.954 27.3022 124.741 27.0884L121.036 23.3833C120.604 22.9517 120.361 22.3663 120.361 21.7559C120.361 21.1455 120.604 20.5601 121.035 20.1284C121.467 19.6968 122.052 19.4542 122.663 19.4542C123.273 19.4541 123.859 19.6966 124.29 20.1282L126.37 22.2056ZM117.698 32.2807H139.476V10.5H117.698V32.2807Z" fill="white"/>
<rect x="119" y="79" width="19" height="19" fill="#BEBEEF"/>
</g>
<defs>
<linearGradient id="paint0_linear_9027_4897" x1="47" y1="39" x2="114" y2="39" gradientUnits="userSpaceOnUse">
<stop stop-color="#D9D9D9"/>
<stop offset="1" stop-color="#737373"/>
</linearGradient>
<linearGradient id="paint1_linear_9027_4897" x1="47" y1="50" x2="98" y2="50" gradientUnits="userSpaceOnUse">
<stop stop-color="#D9D9D9"/>
<stop offset="1" stop-color="#737373"/>
</linearGradient>
<linearGradient id="paint2_linear_9027_4897" x1="47" y1="82" x2="114" y2="82" gradientUnits="userSpaceOnUse">
<stop stop-color="#D9D9D9"/>
<stop offset="1" stop-color="#737373"/>
</linearGradient>
<linearGradient id="paint3_linear_9027_4897" x1="47" y1="93" x2="98" y2="93" gradientUnits="userSpaceOnUse">
<stop stop-color="#D9D9D9"/>
<stop offset="1" stop-color="#737373"/>
</linearGradient>
<clipPath id="clip0_9027_4897">
<rect width="89" height="89" fill="white" transform="translate(84 10.5)"/>
</clipPath>
</defs>
</svg>
