<svg width="340" height="212" viewBox="0 0 340 212" fill="none" xmlns="http://www.w3.org/2000/svg">
<path d="M0.0429077 162.962C0.0429077 141.56 4.2583 120.368 12.4484 100.595C20.6385 80.8227 32.6429 62.8569 47.7762 47.7235C62.9095 32.5902 80.8754 20.5858 100.648 12.3957C120.421 4.20562 141.613 -0.00976656 163.015 -0.00976562V162.962H0.0429077Z" fill="#F5F6FF"/>
<path d="M339.957 211.276C339.957 189.875 335.742 168.682 327.552 148.91C319.362 129.137 307.357 111.171 292.224 96.038C277.09 80.9047 259.125 68.9003 239.352 60.7102C219.579 52.5201 198.387 48.3047 176.985 48.3047V211.276H339.957Z" fill="#F5F6FF"/>
<path d="M70.5312 147.69L73.0976 155.18L73.1633 155.372L73.3517 155.448L80.3903 158.26L73.3517 161.073L73.1633 161.149L73.0976 161.34L70.5312 168.831L67.9648 161.34L67.899 161.149L67.7106 161.073L60.672 158.26L67.7106 155.448L67.899 155.372L67.9648 155.18L70.5312 147.69Z" stroke="#6666F2" stroke-width="0.884017"/>
<g clip-path="url(#clip0_10092_6744)">
<path d="M218.251 22.2266C227.887 22.2266 236.708 26.1621 243.086 32.4047C249.329 38.783 253.264 47.604 253.264 57.2393C253.264 62.9391 251.907 68.2317 249.6 72.9815C245.122 81.9383 222.187 97.6804 218.251 114.78C211.737 98.2233 191.381 81.9383 186.903 72.9815C184.46 68.2317 183.103 62.9391 183.103 57.2393C183.103 37.833 198.845 22.2266 218.251 22.2266Z" fill="white"/>
<path d="M218.254 33C222.517 33 226.662 33.829 230.333 35.3685C234.241 37.0264 237.794 39.3949 240.636 42.3556H240.755C243.597 45.3162 245.965 48.7505 247.623 52.6585C249.163 56.3297 249.992 60.4745 249.992 64.7378C249.992 67.2248 249.637 69.7117 249.163 72.0802C248.571 74.4487 247.742 76.8172 246.676 78.9488C245.136 82.0278 241.465 85.8174 237.202 90.0807C230.096 97.3046 221.451 106.068 219.32 115.187C219.201 115.779 218.609 116.134 218.017 116.016C217.543 115.897 217.307 115.66 217.188 115.305C213.754 106.779 206.056 98.252 199.543 91.1466C195.28 86.4096 191.49 82.2647 189.832 78.9488C188.766 76.8172 187.937 74.4487 187.345 72.0802C186.753 69.7117 186.516 67.2248 186.516 64.7378C186.516 55.9744 190.069 48.0399 195.753 42.3556C201.556 36.5527 209.491 33 218.254 33ZM229.504 37.5001C226.07 36.079 222.28 35.2501 218.254 35.2501C210.083 35.2501 202.74 38.566 197.411 43.8951C192.082 49.2242 188.766 56.5665 188.766 64.7378C188.766 67.1063 189.003 69.3564 189.595 71.488C190.069 73.7381 190.898 75.8698 191.845 77.883C193.385 80.8436 197.056 84.9885 201.319 89.607C207.122 96.1204 214.109 103.7 218.017 111.634C221.215 103.107 229.031 95.0546 235.544 88.5412C239.689 84.2779 243.242 80.6068 244.544 77.883C245.61 75.8698 246.321 73.7381 246.913 71.488C247.386 69.3564 247.623 67.1063 247.623 64.7378C247.623 60.7114 246.913 56.9218 245.492 53.4875C243.952 49.9347 241.82 46.7373 239.097 44.0135V43.8951C236.373 41.1713 233.057 39.0397 229.504 37.5001Z" fill="#F3A73D"/>
<path d="M218.25 48.1484C222.75 48.1484 226.777 49.9248 229.738 52.8854C232.698 55.846 234.593 59.8725 234.593 64.3726C234.593 68.8728 232.698 73.0176 229.738 75.9783C226.777 78.9389 222.75 80.7152 218.25 80.7152C213.75 80.7152 209.605 78.9389 206.645 75.9783C203.684 73.0176 201.908 68.8728 201.908 64.3726C201.908 59.8725 203.684 55.846 206.645 52.8854C206.763 52.8854 206.763 52.8854 206.763 52.767C209.724 49.9248 213.75 48.1484 218.25 48.1484ZM228.08 54.5434C225.593 51.938 222.04 50.3985 218.25 50.3985C214.342 50.3985 210.908 51.938 208.421 54.4249L208.303 54.5434C205.816 57.0303 204.158 60.583 204.158 64.3726C204.158 68.2806 205.816 71.8334 208.303 74.3203C210.908 76.8072 214.342 78.4652 218.25 78.4652C222.04 78.4652 225.593 76.8072 228.08 74.3203C230.685 71.8334 232.224 68.2806 232.224 64.3726C232.224 60.583 230.685 57.0303 228.08 54.5434Z" fill="#F3A73D"/>
<path d="M176.685 127.999L176.684 128.002C175.194 130.981 172.157 134.562 168.294 138.657C166.463 140.597 164.458 142.642 162.358 144.783L162.031 145.116C159.815 147.376 157.5 149.741 155.189 152.192C146.347 161.57 137.48 172.294 134.279 183.513C129.651 172.633 120.858 161.923 112.432 152.457C110.589 150.385 108.765 148.377 107.005 146.438C104.558 143.741 102.232 141.178 100.142 138.768C96.5493 134.624 93.7129 130.993 92.2175 128.002L92.2155 127.999C88.9955 121.693 87.249 114.443 87.249 106.92C87.249 80.7318 108.332 59.6504 134.383 59.6504C147.544 59.6504 159.225 64.8867 167.821 73.4819C176.415 82.0766 181.652 93.893 181.652 106.92C181.652 114.443 179.906 121.693 176.685 127.999Z" fill="white" stroke="#9C9C9C"/>
<path d="M134.385 57.7852C141.035 57.7852 147.413 59.1422 153.249 61.585C159.22 64.0277 164.648 67.6919 169.127 72.1702C173.605 76.6486 177.269 82.077 179.712 88.1838C182.155 93.8836 183.512 100.262 183.512 106.912C183.512 110.711 182.969 114.511 182.155 118.175C181.34 121.84 179.983 125.368 178.355 128.761C175.912 133.51 170.212 139.346 163.698 145.996C152.57 157.259 139.135 171.102 135.742 185.351C135.607 186.03 134.792 186.572 134.114 186.301C133.707 186.301 133.3 185.894 133.164 185.487C127.871 172.187 115.793 158.888 105.751 147.76C98.9654 140.296 93.1299 133.782 90.5515 128.761C88.9229 125.368 87.5659 121.84 86.7516 118.175C85.8017 114.511 85.3945 110.711 85.3945 106.912C85.3945 93.3407 90.8229 81.127 99.7796 72.1702C108.601 63.3492 120.95 57.7852 134.385 57.7852ZM152.163 64.0277C146.735 61.7207 140.764 60.4993 134.385 60.4993C121.629 60.4993 109.958 65.6562 101.68 74.0702C93.2656 82.4841 87.973 94.0193 87.973 106.912C87.973 110.576 88.5158 114.104 89.3301 117.497C90.1443 121.025 91.3657 124.418 92.8585 127.675C95.3012 132.289 101.001 138.667 107.651 145.996C117.15 156.309 128.278 168.523 134.25 181.144C138.864 167.573 151.349 154.817 161.798 144.231C168.177 137.582 173.741 131.882 175.912 127.675C177.541 124.418 178.762 121.025 179.576 117.497C180.39 114.104 180.798 110.576 180.798 106.912C180.798 100.533 179.576 94.5621 177.269 89.1338C174.962 83.434 171.569 78.2771 167.227 74.0702C163.02 69.7275 157.863 66.3348 152.163 64.0277Z" fill="black"/>
<path d="M134.385 82.7637C147.549 82.7637 158.134 93.3489 158.134 106.377C158.134 119.405 147.549 129.99 134.385 129.99C121.357 129.99 110.772 119.405 110.772 106.377C110.772 93.3489 121.357 82.7637 134.385 82.7637Z" fill="#F3A73D"/>
<path d="M134.385 81.4297C141.306 81.4297 147.549 84.1439 152.163 88.7579C156.641 93.2363 159.355 99.4789 159.355 106.4C159.355 113.321 156.641 119.564 152.163 124.042C147.549 128.52 141.306 131.37 134.385 131.37C127.599 131.37 121.357 128.52 116.743 124.042C112.264 119.564 109.415 113.321 109.415 106.4C109.415 99.4789 112.264 93.2363 116.743 88.7579C121.357 84.1439 127.599 81.4297 134.385 81.4297ZM150.263 90.5221C146.192 86.5866 140.627 84.0081 134.385 84.0081C128.278 84.0081 122.714 86.5866 118.643 90.5221C114.571 94.5934 112.129 100.157 112.129 106.4C112.129 112.507 114.571 118.071 118.643 122.142C122.714 126.213 128.278 128.656 134.385 128.656C140.627 128.656 146.192 126.213 150.263 122.142C154.198 118.071 156.777 112.507 156.777 106.4C156.777 100.157 154.198 94.5934 150.263 90.5221Z" fill="#F3A73D"/>
<path d="M147.687 189.191C147.008 189.055 146.465 188.377 146.601 187.698C146.737 186.884 147.415 186.477 148.094 186.612H148.23H148.501H148.637H148.908L149.044 186.748H149.315H149.451H149.587H149.858L149.994 186.884H150.265H150.401H150.672C151.351 187.02 151.894 187.698 151.894 188.377C151.758 189.055 151.079 189.598 150.401 189.598V189.462H150.129H149.858H149.722H149.451H149.315L149.044 189.327H148.908H148.637H148.501L148.23 189.191H148.094H147.822H147.687ZM217.169 117.401C217.441 116.723 218.119 116.316 218.798 116.587C219.476 116.858 219.884 117.673 219.612 118.351V118.487L219.476 118.623V118.758C219.205 119.437 218.526 119.708 217.712 119.437C217.034 119.301 216.762 118.487 217.034 117.808V117.673V117.537H217.169V117.401ZM213.641 124.594C214.048 124.051 214.862 123.915 215.405 124.322C216.084 124.594 216.219 125.408 215.812 126.087V126.222L215.677 126.358V126.494H215.541V126.629H215.405V126.765V126.901H215.269V127.037L215.134 127.172L214.998 127.308V127.444H214.862V127.579L214.727 127.715V127.851H214.591V127.986H214.455V128.122L214.319 128.258V128.394C213.777 128.936 212.962 129.072 212.42 128.529C211.877 128.122 211.741 127.308 212.148 126.765V126.629H212.284V126.494H212.42V126.358L212.555 126.222L212.691 126.087V125.951H212.827V125.815H212.962V125.679V125.544H213.098V125.408L213.234 125.272L213.37 125.137V125.001H213.505V124.865V124.729H213.641V124.594ZM206.72 131.786C207.398 131.379 208.213 131.651 208.62 132.193C208.891 132.872 208.755 133.686 208.213 134.093H208.077H207.941V134.229H207.805L207.67 134.365H207.534L207.398 134.5H207.263V134.636H207.127H206.991V134.772H206.856V134.908H206.72H206.584V135.043H206.448H206.313V135.179H206.177H206.041V135.315H205.906H205.77V135.45C205.091 135.722 204.277 135.45 204.006 134.772C203.599 134.093 203.87 133.279 204.548 133.008H204.684V132.872H204.82H204.956L205.091 132.736H205.227V132.601H205.363H205.498V132.465H205.634L205.77 132.329H205.906L206.041 132.193H206.177V132.058H206.313H206.448V131.922H206.584L206.72 131.786ZM197.356 135.586C198.034 135.315 198.713 135.722 198.984 136.536C199.12 137.215 198.713 137.893 198.034 138.029L197.899 138.165H197.763H197.627H197.492V138.3H197.356H197.22H197.085H196.949V138.436H196.813H196.677H196.542H196.406V138.572H196.27H196.135H195.999H195.863V138.707H195.727H195.592H195.456C194.777 138.979 193.963 138.436 193.828 137.757C193.692 137.079 194.099 136.4 194.777 136.129H194.913H195.049H195.185L195.32 135.993H195.456H195.592H195.727L195.863 135.858H195.999H196.135H196.27L196.406 135.722H196.542H196.677H196.813L196.949 135.586H197.085H197.22H197.356ZM187.042 139.793C187.585 139.25 188.399 139.25 188.942 139.793C189.485 140.336 189.349 141.15 188.942 141.693H188.806L188.671 141.829V141.964H188.535L188.399 142.1V142.236H188.263V142.372H188.128V142.507L187.992 142.643V142.779H187.856V142.914L187.721 143.05V143.186H187.585V143.322V143.457C187.178 144 186.364 144.271 185.821 144C185.142 143.593 184.871 142.779 185.142 142.236L185.278 142.1V141.964L185.414 141.829V141.693L185.549 141.557L185.685 141.422V141.286L185.821 141.15L185.956 141.014L186.092 140.879V140.743H186.228V140.607L186.364 140.472V140.336H186.499V140.2H186.635L186.771 140.065L186.906 139.929L187.042 139.793ZM185.414 151.057C185.006 150.378 185.278 149.564 185.956 149.293C186.499 148.886 187.314 149.157 187.721 149.836V149.971H187.856V150.107V150.243H187.992V150.378L188.128 150.514V150.65H188.263V150.785L188.399 150.921V151.057H188.535V151.193L188.671 151.328L188.806 151.464L188.942 151.6V151.735C189.485 152.278 189.485 153.093 188.942 153.635C188.399 154.042 187.585 154.042 187.042 153.5L186.906 153.364L186.771 153.228L186.635 153.093V152.957L186.499 152.821L186.364 152.685L186.228 152.55V152.414L186.092 152.278L185.956 152.143V152.007L185.821 151.871L185.685 151.735V151.6L185.549 151.464V151.328L185.414 151.193V151.057ZM194.777 157.299C193.963 157.164 193.556 156.485 193.692 155.807C193.828 155.128 194.506 154.585 195.185 154.721H195.32H195.456V154.857H195.592H195.727H195.863H195.999H196.135H196.27L196.406 154.992H196.542H196.677H196.813H196.949H197.085H197.22L197.356 155.128H197.492H197.627H197.763C198.442 155.264 198.984 155.807 198.849 156.621C198.849 157.299 198.17 157.842 197.356 157.707H197.22H197.085H196.949H196.813H196.677V157.571H196.542H196.406H196.27H196.135H195.999H195.863H195.727L195.592 157.435H195.456H195.32H195.185H195.049H194.913L194.777 157.299ZM205.363 158.521C204.684 158.385 204.141 157.842 204.141 157.028C204.141 156.35 204.82 155.807 205.498 155.807H205.634H205.77H205.906H206.041L206.177 155.942H206.313H206.448H206.584H206.72H206.856H206.991H207.127H207.263H207.398H207.534H207.67H207.805H207.941H208.077L208.213 156.078C208.891 156.078 209.434 156.621 209.434 157.435C209.434 158.114 208.755 158.657 208.077 158.657H207.941H207.805H207.67H207.534H207.398H207.263H207.127L206.991 158.521H206.856H206.72H206.584H206.448H206.313H206.177H206.041H205.906H205.77H205.634H205.498H205.363ZM215.948 159.064C215.134 159.064 214.591 158.385 214.727 157.707C214.727 157.028 215.405 156.485 216.084 156.485H216.355H216.627L217.034 156.621H217.441H217.712H218.119L218.526 156.757H218.798C219.476 156.892 220.019 157.435 220.019 158.249C219.884 158.928 219.205 159.471 218.526 159.335H218.255H217.848L217.576 159.199H217.169H216.762H216.491H216.084L215.948 159.064ZM226.126 160.828C225.312 160.692 224.905 159.878 225.176 159.199C225.312 158.521 226.126 158.114 226.805 158.385H227.212L227.483 158.521L227.755 158.657H228.026L228.297 158.792L228.569 158.928H228.84L229.112 159.064L229.383 159.199C230.062 159.471 230.469 160.285 230.197 160.964C229.926 161.642 229.112 161.914 228.433 161.642L228.162 161.506H227.89L227.755 161.371H227.483L227.212 161.235L226.94 161.099H226.669L226.398 160.964L226.126 160.828ZM235.083 165.171C234.54 164.763 234.404 163.949 234.811 163.406C235.354 162.728 236.169 162.728 236.711 163.135L236.847 163.271L236.983 163.406L237.254 163.542L237.39 163.678L237.526 163.813L237.661 163.949L237.797 164.085L238.068 164.221L238.204 164.356L238.34 164.628L238.476 164.763L238.611 164.899L238.747 165.035L238.883 165.171C239.29 165.713 239.29 166.528 238.747 166.935C238.204 167.478 237.39 167.478 236.847 166.935V166.799L236.711 166.663L236.576 166.528L236.44 166.392L236.304 166.256L236.169 166.121H236.033L235.897 165.985L235.761 165.849L235.626 165.713L235.49 165.578L235.354 165.442L235.219 165.306L235.083 165.171ZM239.154 173.042C239.29 172.363 239.833 171.82 240.647 171.956C241.325 171.956 241.868 172.635 241.733 173.449V173.584V173.72L241.597 173.992V174.127V174.263V174.399L241.461 174.67V174.806L241.325 174.942V175.213V175.349L241.19 175.484V175.62L241.054 175.892V176.027L240.918 176.163V176.299C240.511 176.977 239.697 177.249 239.018 176.977C238.476 176.57 238.204 175.756 238.476 175.077L238.611 174.942V174.806L238.747 174.67V174.534V174.399L238.883 174.263V174.127V173.992L239.018 173.856V173.72V173.584V173.449L239.154 173.313V173.177V173.042ZM233.454 180.098C234.133 179.827 234.947 179.963 235.219 180.641C235.626 181.184 235.49 181.998 234.811 182.406L234.54 182.541L234.269 182.677L234.133 182.813L233.861 182.948L233.59 183.084L233.454 183.22L233.183 183.355L232.912 183.491L232.64 183.627L232.369 183.763C231.69 184.034 230.876 183.763 230.604 183.084C230.333 182.406 230.604 181.591 231.283 181.32L231.554 181.184L231.69 181.048L231.962 180.913H232.233L232.369 180.777L232.64 180.641L232.776 180.506L233.047 180.37L233.183 180.234H233.454V180.098ZM223.955 183.763C224.769 183.627 225.448 184.034 225.583 184.713C225.719 185.527 225.312 186.205 224.633 186.341L224.362 186.477H224.09L223.683 186.612H223.412L223.005 186.748H222.598L222.326 186.884H221.919C221.241 187.02 220.562 186.612 220.426 185.934C220.291 185.12 220.833 184.441 221.512 184.305H221.783L222.191 184.17H222.462L222.869 184.034H223.141L223.412 183.898H223.819L223.955 183.763ZM213.777 185.391C214.455 185.255 215.134 185.798 215.134 186.612C215.269 187.291 214.727 187.97 214.048 187.97H213.777H213.505L213.234 188.105H213.098H212.827H212.555H212.284H212.012L211.741 188.241H211.605H211.334C210.655 188.241 209.977 187.698 209.977 187.02C209.841 186.341 210.384 185.663 211.062 185.527H211.334H211.605H211.877H212.012H212.284H212.555L212.827 185.391H213.098H213.234H213.505H213.777ZM203.191 186.205C204.006 186.205 204.548 186.748 204.684 187.427C204.684 188.241 204.141 188.784 203.463 188.92H203.191H202.92H202.649H202.377H202.106L201.834 189.055H201.563H201.291H201.02H200.749C200.07 189.191 199.392 188.512 199.392 187.834C199.392 187.155 199.934 186.477 200.613 186.477H200.884L201.156 186.341H201.427H201.699H201.97H202.241H202.513H202.784L203.056 186.205H203.191ZM192.742 187.02C193.42 186.884 194.099 187.427 194.099 188.241C194.099 188.92 193.556 189.598 192.878 189.598H192.606H192.335H192.063H191.792L191.385 189.734H191.113H190.842H190.571H190.299H190.163C189.485 189.734 188.806 189.191 188.806 188.512C188.806 187.698 189.349 187.155 190.028 187.155H190.163L190.435 187.02H190.706H190.978H191.249H191.52H191.928H192.199H192.47H192.742ZM182.157 187.427C182.835 187.427 183.514 187.97 183.514 188.784C183.514 189.462 182.971 190.141 182.292 190.141H182.157H181.885H181.614H181.342H181.071H180.8H180.528H180.121H179.85H179.578C178.9 190.277 178.221 189.598 178.221 188.92C178.221 188.241 178.764 187.562 179.578 187.562H179.85H180.121H180.392H180.664H180.935H181.207H181.478L181.749 187.427H182.157ZM171.571 187.698C172.386 187.698 172.928 188.377 172.928 189.055C172.928 189.734 172.386 190.412 171.707 190.412H171.3H171.029H170.757H170.486H170.214H169.943H169.671H169.4H169.129H168.993C168.314 190.412 167.636 189.869 167.636 189.055C167.636 188.377 168.314 187.698 168.993 187.698H169.129H169.4H169.671H169.943H170.214H170.486H170.757H171.029H171.3H171.571ZM161.122 187.698C161.8 187.698 162.343 188.241 162.343 189.055C162.343 189.734 161.8 190.277 160.986 190.277H160.85H160.579H160.443H160.172H159.9H159.629H159.358L159.086 190.141H158.95H158.679H158.408C157.593 190.141 157.051 189.462 157.051 188.784C157.186 188.105 157.729 187.427 158.543 187.562H158.815H158.95H159.222H159.493H159.765H160.036H160.172H160.443H160.715L160.986 187.698H161.122Z" fill="#BDBDBD"/>
</g>
<defs>
<clipPath id="clip0_10092_6744">
<rect width="169.241" height="169.5" fill="white" transform="translate(85.3794 20.877)"/>
</clipPath>
</defs>
</svg>
