<svg width="40" height="40" viewBox="0 0 40 40" fill="none" xmlns="http://www.w3.org/2000/svg">
<rect x="0.636475" y="0.5" width="39" height="39" rx="19.5" fill="#F5F5F7"/>
<mask id="mask0_9150_3323" style="mask-type:alpha" maskUnits="userSpaceOnUse" x="8" y="8" width="24" height="24">
<rect x="8.7218" y="8.58594" width="22.8293" height="22.8293" fill="#D9D9D9"/>
</mask>
<g mask="url(#mask0_9150_3323)">
<path d="M14.9047 27.6121C13.462 27.6121 12.2294 27.1127 11.2068 26.1139C10.1843 25.1151 9.67297 23.8944 9.67297 22.4517C9.67297 21.2151 10.0455 20.1133 10.7907 19.1462C11.5358 18.1792 12.5108 17.5609 13.7157 17.2914C14.112 15.8328 14.9047 14.6517 16.0937 13.7481C17.2827 12.8444 18.6303 12.3926 20.1364 12.3926C21.9913 12.3926 23.5647 13.0386 24.8568 14.3307C26.1489 15.6228 26.7949 17.1962 26.7949 19.0511C27.8888 19.1779 28.7964 19.6496 29.5178 20.4661C30.2391 21.2825 30.5998 22.2377 30.5998 23.3316C30.5998 24.5206 30.1836 25.5313 29.3513 26.3636C28.519 27.1959 27.5083 27.6121 26.3193 27.6121H21.0876C20.5644 27.6121 20.1166 27.4258 19.744 27.0532C19.3714 26.6807 19.1852 26.2328 19.1852 25.7097V20.8109L17.6632 22.2853L16.3315 20.9536L20.1364 17.1487L23.9413 20.9536L22.6096 22.2853L21.0876 20.8109V25.7097H26.3193C26.9852 25.7097 27.548 25.4798 28.0077 25.02C28.4675 24.5603 28.6974 23.9975 28.6974 23.3316C28.6974 22.6657 28.4675 22.1029 28.0077 21.6432C27.548 21.1834 26.9852 20.9536 26.3193 20.9536H24.8925V19.0511C24.8925 17.7353 24.4288 16.6136 23.5013 15.6862C22.5739 14.7587 21.4522 14.295 20.1364 14.295C18.8205 14.295 17.6989 14.7587 16.7714 15.6862C15.844 16.6136 15.3803 17.7353 15.3803 19.0511H14.9047C13.9852 19.0511 13.2004 19.3761 12.5504 20.0261C11.9004 20.6761 11.5754 21.4609 11.5754 22.3804C11.5754 23.2999 11.9004 24.0847 12.5504 24.7347C13.2004 25.3847 13.9852 25.7097 14.9047 25.7097H17.2827V27.6121H14.9047Z" fill="#1C1B1F"/>
</g>
</svg>
