<svg width="414" height="226" viewBox="0 0 414 226" fill="none" xmlns="http://www.w3.org/2000/svg">
<rect width="414" height="225" transform="translate(0 0.640625)" fill="#F9FAFC"/>
<g clip-path="url(#clip0_10717_6653)">
<path d="M23.9329 19.7031V15.0289H23.8727L22.4926 16.0292V15.3147L23.9366 14.2768H24.6097V19.7031H23.9329Z" fill="#929292"/>
<path d="M24.4217 54.4833C23.2221 54.4833 22.5077 53.389 22.5077 51.6442V51.6367C22.5077 49.8918 23.2221 48.8013 24.4217 48.8013C25.6213 48.8013 26.3433 49.8918 26.3433 51.6367V51.6442C26.3433 53.389 25.6213 54.4833 24.4217 54.4833ZM24.4217 53.8929C25.2001 53.8929 25.6627 53.028 25.6627 51.6442V51.6367C25.6627 50.2528 25.2001 49.3954 24.4217 49.3954C23.6433 49.3954 23.1883 50.2528 23.1883 51.6367V51.6442C23.1883 53.028 23.6433 53.8929 24.4217 53.8929ZM28.3351 54.3931C28.0681 54.3931 27.8462 54.1712 27.8462 53.9042C27.8462 53.6335 28.0681 53.4154 28.3351 53.4154C28.6058 53.4154 28.824 53.6335 28.824 53.9042C28.824 54.1712 28.6058 54.3931 28.3351 54.3931ZM32.1996 48.8013C33.1923 48.8013 34.2415 49.5007 34.2415 51.5427V51.5502C34.2415 53.4003 33.4706 54.4833 32.1545 54.4833C31.2444 54.4833 30.5675 53.9493 30.3833 53.1484L30.372 53.0995H31.0526L31.0677 53.1408C31.2331 53.5959 31.613 53.8779 32.162 53.8779C33.1472 53.8779 33.5496 52.9152 33.5909 51.7833C33.5947 51.742 33.5947 51.6968 33.5947 51.6555H33.5233C33.324 52.0992 32.8125 52.494 32.0792 52.494C31.0602 52.494 30.3006 51.7194 30.3006 50.6778V50.6702C30.3006 49.5872 31.1053 48.8013 32.1996 48.8013ZM32.1958 51.9037C32.899 51.9037 33.433 51.3885 33.433 50.6815V50.6778C33.433 49.9633 32.8953 49.3992 32.2071 49.3992C31.5265 49.3992 30.9812 49.952 30.9812 50.6552V50.6627C30.9812 51.3847 31.4926 51.9037 32.1958 51.9037Z" fill="#929292"/>
<path d="M24.4217 89.1396C23.2221 89.1396 22.5077 88.0453 22.5077 86.3004V86.2929C22.5077 84.5481 23.2221 83.4575 24.4217 83.4575C25.6213 83.4575 26.3433 84.5481 26.3433 86.2929V86.3004C26.3433 88.0453 25.6213 89.1396 24.4217 89.1396ZM24.4217 88.5492C25.2001 88.5492 25.6627 87.6843 25.6627 86.3004V86.2929C25.6627 84.9091 25.2001 84.0517 24.4217 84.0517C23.6433 84.0517 23.1883 84.9091 23.1883 86.2929V86.3004C23.1883 87.6843 23.6433 88.5492 24.4217 88.5492ZM28.3351 89.0493C28.0681 89.0493 27.8462 88.8275 27.8462 88.5605C27.8462 88.2897 28.0681 88.0716 28.3351 88.0716C28.6058 88.0716 28.824 88.2897 28.824 88.5605C28.824 88.8275 28.6058 89.0493 28.3351 89.0493ZM32.3162 89.102C31.1655 89.102 30.3457 88.4552 30.3457 87.5451V87.5376C30.3457 86.8683 30.8157 86.3117 31.5114 86.15V86.135C30.9173 85.9507 30.5412 85.4995 30.5412 84.9279V84.9204C30.5412 84.1006 31.2896 83.4951 32.3162 83.4951C33.3428 83.4951 34.0911 84.1006 34.0911 84.9204V84.9279C34.0911 85.4995 33.715 85.9507 33.1209 86.135V86.15C33.8166 86.3117 34.2866 86.8683 34.2866 87.5376V87.5451C34.2866 88.4552 33.4669 89.102 32.3162 89.102ZM32.3162 85.883C32.9705 85.883 33.418 85.5107 33.418 84.9843V84.9768C33.418 84.4503 32.9705 84.078 32.3162 84.078C31.6618 84.078 31.2143 84.4503 31.2143 84.9768V84.9843C31.2143 85.5107 31.6618 85.883 32.3162 85.883ZM32.3162 88.5116C33.0645 88.5116 33.5985 88.0904 33.5985 87.5038V87.4963C33.5985 86.9021 33.0682 86.4772 32.3162 86.4772C31.5641 86.4772 31.0338 86.9021 31.0338 87.4963V87.5038C31.0338 88.0904 31.5678 88.5116 32.3162 88.5116Z" fill="#929292"/>
<path d="M24.4217 123.8C23.2221 123.8 22.5077 122.705 22.5077 120.961V120.953C22.5077 119.208 23.2221 118.118 24.4217 118.118C25.6213 118.118 26.3433 119.208 26.3433 120.953V120.961C26.3433 122.705 25.6213 123.8 24.4217 123.8ZM24.4217 123.209C25.2001 123.209 25.6627 122.344 25.6627 120.961V120.953C25.6627 119.569 25.2001 118.712 24.4217 118.712C23.6433 118.712 23.1883 119.569 23.1883 120.953V120.961C23.1883 122.344 23.6433 123.209 24.4217 123.209ZM28.3351 123.709C28.0681 123.709 27.8462 123.488 27.8462 123.221C27.8462 122.95 28.0681 122.732 28.3351 122.732C28.6058 122.732 28.824 122.95 28.824 123.221C28.824 123.488 28.6058 123.709 28.3351 123.709ZM30.6879 123.672L33.1247 118.904V118.851H30.2216V118.246H33.8128V118.874L31.3986 123.672H30.6879Z" fill="#929292"/>
<path d="M24.4217 158.456C23.2221 158.456 22.5077 157.362 22.5077 155.617V155.609C22.5077 153.864 23.2221 152.774 24.4217 152.774C25.6213 152.774 26.3433 153.864 26.3433 155.609V155.617C26.3433 157.362 25.6213 158.456 24.4217 158.456ZM24.4217 157.866C25.2001 157.866 25.6627 157.001 25.6627 155.617V155.609C25.6627 154.225 25.2001 153.368 24.4217 153.368C23.6433 153.368 23.1883 154.225 23.1883 155.609V155.617C23.1883 157.001 23.6433 157.866 24.4217 157.866ZM28.3351 158.366C28.0681 158.366 27.8462 158.144 27.8462 157.877C27.8462 157.606 28.0681 157.388 28.3351 157.388C28.6058 157.388 28.824 157.606 28.824 157.877C28.824 158.144 28.6058 158.366 28.3351 158.366ZM32.3425 158.456C31.3497 158.456 30.3006 157.757 30.3006 155.715V155.707C30.3006 153.857 31.0714 152.774 32.3876 152.774C33.2976 152.774 33.9745 153.308 34.1588 154.109L34.1701 154.158H33.4894L33.4744 154.116C33.3089 153.661 32.9291 153.379 32.3801 153.379C31.3948 153.379 30.9925 154.342 30.9511 155.474C30.9474 155.515 30.9474 155.56 30.9474 155.602H31.0188C31.2181 155.158 31.7295 154.763 32.4628 154.763C33.4819 154.763 34.2415 155.538 34.2415 156.58V156.587C34.2415 157.67 33.4368 158.456 32.3425 158.456ZM31.1091 156.58C31.1091 157.294 31.6468 157.858 32.335 157.858C33.0156 157.858 33.5609 157.305 33.5609 156.602V156.595C33.5609 155.873 33.0494 155.354 32.3462 155.354C31.643 155.354 31.1091 155.869 31.1091 156.576V156.58Z" fill="#929292"/>
<path d="M24.4217 193.108C23.2221 193.108 22.5077 192.014 22.5077 190.269V190.262C22.5077 188.517 23.2221 187.426 24.4217 187.426C25.6213 187.426 26.3433 188.517 26.3433 190.262V190.269C26.3433 192.014 25.6213 193.108 24.4217 193.108ZM24.4217 192.518C25.2001 192.518 25.6627 191.653 25.6627 190.269V190.262C25.6627 188.878 25.2001 188.02 24.4217 188.02C23.6433 188.02 23.1883 188.878 23.1883 190.262V190.269C23.1883 191.653 23.6433 192.518 24.4217 192.518ZM28.3351 193.018C28.0681 193.018 27.8462 192.796 27.8462 192.529C27.8462 192.258 28.0681 192.04 28.3351 192.04C28.6058 192.04 28.824 192.258 28.824 192.529C28.824 192.796 28.6058 193.018 28.3351 193.018ZM32.2597 193.108C31.2482 193.108 30.5262 192.458 30.4472 191.589L30.4435 191.548H31.094L31.0978 191.578C31.1617 192.097 31.6318 192.51 32.2673 192.51C32.9893 192.51 33.4857 191.995 33.4857 191.262V191.254C33.4857 190.532 32.9818 190.017 32.2786 190.017C31.9175 190.017 31.6092 190.126 31.376 190.348C31.282 190.438 31.1955 190.544 31.1279 190.672H30.5412L30.827 187.554H33.8467V188.16H31.361L31.1767 189.995H31.2369C31.4776 189.63 31.9025 189.431 32.3951 189.431C33.4142 189.431 34.1475 190.194 34.1475 191.243V191.251C34.1475 192.345 33.3616 193.108 32.2597 193.108Z" fill="#929292"/>
</g>
<path d="M54.375 17.1998H391.998" stroke="#F0F0F0" stroke-width="0.641783"/>
<path d="M54.375 52.1725H391.998" stroke="#F0F0F0" stroke-width="0.641783"/>
<path d="M54.375 86.8287H391.998" stroke="#F0F0F0" stroke-width="0.641783"/>
<path d="M54.375 121.485H391.998" stroke="#F0F0F0" stroke-width="0.641783"/>
<path d="M54.375 156.141H391.998" stroke="#F0F0F0" stroke-width="0.641783"/>
<path d="M54.375 190.797H391.998" stroke="#F0F0F0" stroke-width="0.641783"/>
<path d="M71.0245 191.117V199.46" stroke="#F0F0F0" stroke-width="0.641783"/>
<path d="M165.374 191.117V199.46" stroke="#F0F0F0" stroke-width="0.641783"/>
<path d="M259.724 191.117V199.46" stroke="#F0F0F0" stroke-width="0.641783"/>
<path d="M354.074 191.117V199.46" stroke="#F0F0F0" stroke-width="0.641783"/>
<path fill-rule="evenodd" clip-rule="evenodd" d="M54.5137 190.476V157.356L56.1541 157.951L57.1003 156.288L58.1287 160.269L60.6404 157.097L61.2445 160.494L63.0986 162.869L64.6557 165V141.992L66.9968 140.436V135.36L67.5296 133.889V138.782V141.599L68.7992 145.441L70.1747 152.748H72.1392V143.742L73.5646 140.436L75.1203 137.279V133.618L77.2673 136.476V124.637L79.1408 125.603V119.825L80.4142 118.288L80.7067 124.012L81.3678 121.691L83.0906 119.575V125.823L84.3054 128.678L86.2018 135.36V130.499L87.582 125.823L88.7743 123.12L90.1346 128.678L91.9858 131.417V125.823V123.12L94.8502 125.823V121.691L96.9003 114.365L98.1648 108.589V101.571L99.8985 105.417V110.287L103.012 99.8273L104.748 95.3471L106.285 98.6785L108.894 99.8273V105.417L110.581 108.589L111.777 121.691L113.464 117.997L115.085 120.574L117.783 115.534L119.403 112.646L120.874 117.997L122.436 121.691V125.823L123.7 128.775L125.531 124.289L126.852 128.678V131.417L128.449 133.618V140.168L131.189 133.618V125.823L134.658 121.691L136.712 117.084V120.574L138.186 124.289L139.803 126.792L141.058 121.691L142.68 117.997L143.875 120.574V130.499L146.607 132.707V126.792L148.458 119.575L149.684 117.084V127.804L151.402 129.646L153.306 132.707L155.139 128.678L156.864 125.823L158.768 132.707V137.279L161.408 140.168L163.471 135.36L165.375 132.707V137.279L168.521 140.168L170.372 143.742L175.132 138.782V142.705L176.086 141.992L178.458 143.742L179.8 150.13L182.33 143.742L184.442 145.441L188.205 151.006L190.361 141.992L191.717 139.638L194.07 140.168L197.645 135.36L200.526 134.263L201.826 132.482L201.909 127.804L204.499 124.289V120.574L205.942 117.084V112.646L206.843 109.23L208.752 112.646L217.406 105.417L219.261 110.361L221.588 105.417V94.237L223.564 86.612L225.315 78.7199L226.866 82.5551L228.135 93.4048L229.061 110.361L231.375 93.4048L233.349 90.7713V105.417L236.251 102.842L238.102 98.3301V93.4048L240.039 90.7713L241.48 94.237V99.5969L242.74 114.76L244.31 106.276L246.002 102.842L247.684 105.417V107.799L249.797 111.305L251.205 94.237L252.729 84.5867L254.351 82.5551L255.971 78.7199V89.5077V93.4048L258.135 90.7713L260.203 84.5867V89.5077H263.586V96.6894L265.799 105.417L267.418 90.7713L270.465 102.842V109.13L273.491 107.799L275.952 114.76L277.353 105.417L279.709 102.842L280.977 110.361L281.903 98.3301L283.102 99.5969L286.303 96.6894L287.228 104.319L289.921 102.842L292.519 106.276L294.74 100.826L295.979 96.6894L298.725 90.7713L300.248 98.3301L301.578 79.7612L303.901 84.5867L310.253 50.8971L307.205 79.7612L309.907 85.6443L315.574 55.1857L314.642 79.7612V84.5867L316.686 90.7713L318.956 78.7199L320.254 89.5077L323.206 92.0668L324.858 96.6894L326.523 81.623L328.374 54.3934L332.639 42.832L329.591 78.7199L331.85 82.5551L337.007 56.3813L331.648 116.001L333.639 109.853L335.753 114.545V103.189L339.283 93.6195L341.128 103.189L342.054 107.767L343.332 109.853L345.756 114.545L347.464 105.121L349.353 109.853L351.537 103.189L354.397 106.922L355.029 93.6195L357.408 81.7404L358.985 95.0567L362.886 76.1089L363.415 75.6895L364.005 77.9589L366.441 80.6092V89.5077L369.562 98.6785L372.429 104.074L376.825 95.3471L377.762 94.237L379.05 99.8273L380.54 104.074L382.888 103.189L384.311 107.799L386.817 112.039L388.008 113.947L392 103.681V190.476H191.717H54.5137Z" fill="url(#paint0_linear_10717_6653)"/>
<path d="M55.3013 157.614L58.1286 152.736V160.269L61.0374 154.149L62.198 160.269L63.6767 162.204V141.992L66.0639 140.168V135.36L68.5306 128.678V138.365V141.992L69.816 145.441L71.1393 152.736V143.742L72.6912 140.168L74.1809 137.279V130.499L76.286 133.618V123.12L78.2095 124.289V119.575L79.606 117.997L81.3677 114.365V121.691L83.0905 119.575V125.823L84.3053 128.678L86.2017 135.36V130.499L87.582 125.823L88.7742 123.12L90.1345 128.678L91.9857 131.417V125.823V123.12L94.8501 125.823V121.691L96.9002 114.365L98.1647 108.589V101.571L99.8984 105.417V110.287L103.012 99.8273L104.748 95.3471L106.285 98.6785L108.894 99.8273V105.417L110.581 108.589L111.776 121.691L113.464 117.997L115.085 120.574L117.783 115.534L119.403 112.646L120.874 117.997L122.436 121.691V125.823L123.7 128.775L125.531 124.289L126.852 128.678V131.417L128.449 133.618V140.168L131.189 133.618V125.823L134.658 121.691L136.712 117.084V120.574L138.186 124.289L139.803 126.792L141.058 121.691L142.68 117.997L143.875 120.574V130.499L146.607 132.707V126.792L148.458 119.575L149.684 117.084V127.804L151.402 129.646L153.306 132.707L155.139 128.678L156.863 125.823L158.768 132.707V137.279L161.408 140.168L163.471 135.36L165.374 132.707L166.764 137.279L168.521 140.168L170.372 143.742L172.768 140.168L176.086 136.412V141.992L178.458 143.742L180.008 147.88L182.33 143.742L184.442 145.441L187.683 149.246L189.535 141.992L191.112 138.365L194.069 140.168L197.645 135.36L200.984 132.707V127.804L203.574 124.289V120.574L205.016 117.084V112.646L206.843 108.589L208.752 112.646L217.406 105.417L219.261 110.361L221.588 105.417V94.237L223.563 86.612L225.315 78.7199L226.866 82.5551L228.135 93.4048L229.061 110.361L231.375 93.4048L233.349 90.7713V105.417L236.25 102.842L238.102 98.3301V93.4048L240.039 90.7713L241.48 94.237V99.5969L242.74 114.76L244.31 106.276L246.002 102.842L247.684 105.417V107.799L249.797 111.305L251.204 94.237L252.729 84.5867L254.351 82.5551L255.971 78.7199V89.5077V93.4048L258.135 90.7713L260.203 84.5867V89.5077H263.586V96.6894L265.799 105.417L267.418 90.7713L270.465 102.842V109.13L273.491 107.799L275.952 114.76L277.353 105.417L279.709 102.842L280.977 110.361L281.902 98.3301L283.102 99.5969L286.303 96.6894L287.228 104.319L289.921 102.842L292.519 106.276L294.739 100.826L295.979 96.6894L298.725 90.7713L300.248 98.3301L301.578 79.7612L303.9 84.5867L310.253 50.8971L307.205 79.7612L309.907 85.6443L315.574 55.1857L314.642 79.7612V84.5867L316.686 90.7713L318.956 78.7199L320.254 89.5077L323.206 92.0668L324.858 96.6894L326.523 81.623L328.374 54.3934L332.639 42.832L329.591 78.7199L331.85 82.5551L337.007 56.3813L331.648 116.001L333.639 109.853L335.753 114.545V103.189L339.283 93.6195L341.128 103.189L342.054 107.767L343.332 109.853L345.756 114.545L347.463 105.121L349.353 109.853L351.537 103.189L354.397 106.922L355.029 93.6195L357.408 81.7404L359.03 90.3487L362.04 76.0178L363.65 73.3856L364.976 77.691L367.374 80.4667V89.3472L370.447 98.3913L372.43 102.188L376.01 94.925L378.337 92.7205L379.95 99.8273L381.199 103.189L383.509 102.188L385.338 107.767L388.008 112.046L390.352 105.121L392 99.8273" stroke="#6359E8" stroke-width="1.28357"/>
<g clip-path="url(#clip1_10717_6653)">
<path d="M65.563 211.725C64.5101 211.725 63.8821 211.09 63.8445 210.161L63.8408 210.12H64.7884L64.7922 210.146C64.8185 210.563 65.0742 210.875 65.5555 210.875C66.0782 210.875 66.3565 210.559 66.3565 209.973V206.164H67.3267V209.98C67.3267 211.078 66.6761 211.725 65.563 211.725ZM70.2924 211.658C69.5103 211.658 68.9424 211.176 68.9424 210.428V210.42C68.9424 209.687 69.5027 209.258 70.503 209.198L71.5597 209.134V208.781C71.5597 208.371 71.2927 208.145 70.7888 208.145C70.3601 208.145 70.0818 208.299 69.9878 208.57L69.9841 208.585H69.1004L69.1041 208.551C69.1944 207.859 69.8562 207.401 70.8339 207.401C71.8906 207.401 72.4848 207.912 72.4848 208.781V211.59H71.5597V211.026H71.4958C71.2701 211.424 70.8339 211.658 70.2924 211.658ZM69.8675 210.383C69.8675 210.732 70.1646 210.939 70.5782 210.939C71.1423 210.939 71.5597 210.571 71.5597 210.082V209.751L70.6346 209.811C70.1119 209.845 69.8675 210.037 69.8675 210.375V210.383ZM74.2509 211.59V207.48H75.1873V208.108H75.2512C75.4467 207.668 75.8416 207.401 76.4357 207.401C77.3533 207.401 77.8534 207.953 77.8534 208.931V211.59H76.9171V209.149C76.9171 208.51 76.6576 208.187 76.0898 208.187C75.5332 208.187 75.1873 208.578 75.1873 209.194V211.59H74.2509Z" fill="#33323A"/>
<path d="M158.348 211.59V206.164H161.807V206.98H159.318V208.585H161.593V209.375H159.318V211.59H158.348ZM165.187 211.673C163.965 211.673 163.224 210.853 163.224 209.544V209.54C163.224 208.247 163.972 207.401 165.142 207.401C166.311 207.401 167.033 208.22 167.033 209.461V209.77H164.16C164.171 210.507 164.57 210.936 165.206 210.936C165.713 210.936 166.003 210.68 166.093 210.492L166.104 210.465H166.996L166.984 210.499C166.853 211.03 166.304 211.673 165.187 211.673ZM165.153 208.134C164.63 208.134 164.239 208.487 164.168 209.142H166.119C166.055 208.469 165.676 208.134 165.153 208.134ZM170.898 211.658C170.322 211.658 169.875 211.394 169.649 210.947H169.585V211.59H168.649V205.889H169.585V208.134H169.649C169.864 207.69 170.334 207.412 170.898 207.412C171.939 207.412 172.586 208.224 172.586 209.533V209.54C172.586 210.842 171.928 211.658 170.898 211.658ZM170.604 210.868C171.244 210.868 171.631 210.368 171.631 209.54V209.533C171.631 208.706 171.244 208.202 170.604 208.202C169.969 208.202 169.574 208.709 169.574 209.533V209.54C169.574 210.364 169.969 210.868 170.604 210.868Z" fill="#33323A"/>
<path d="M252.426 211.59V206.164H253.539L255.171 210.338H255.235L256.864 206.164H257.977V211.59H257.104V207.732H257.036L255.532 211.59H254.87L253.366 207.732H253.302V211.59H252.426ZM260.98 211.658C260.198 211.658 259.63 211.176 259.63 210.428V210.42C259.63 209.687 260.19 209.258 261.191 209.198L262.247 209.134V208.781C262.247 208.371 261.98 208.145 261.476 208.145C261.048 208.145 260.769 208.299 260.675 208.57L260.672 208.585H259.788L259.792 208.551C259.882 207.859 260.544 207.401 261.521 207.401C262.578 207.401 263.172 207.912 263.172 208.781V211.59H262.247V211.026H262.183C261.958 211.424 261.521 211.658 260.98 211.658ZM260.555 210.383C260.555 210.732 260.852 210.939 261.266 210.939C261.83 210.939 262.247 210.571 262.247 210.082V209.751L261.322 209.811C260.799 209.845 260.555 210.037 260.555 210.375V210.383ZM264.938 211.59V207.48H265.875V208.111H265.939C266.078 207.671 266.454 207.412 266.995 207.412C267.138 207.412 267.285 207.431 267.375 207.457V208.296C267.225 208.266 267.071 208.243 266.909 208.243C266.285 208.243 265.875 208.615 265.875 209.202V211.59H264.938Z" fill="#33323A"/>
<path d="M346.717 211.59L348.643 206.164H349.737L351.662 211.59H350.647L350.192 210.187H348.184L347.733 211.59H346.717ZM349.158 207.171L348.428 209.439H349.951L349.222 207.171H349.158ZM353.139 212.955V207.48H354.075V208.123H354.139C354.365 207.675 354.812 207.412 355.388 207.412C356.418 207.412 357.076 208.232 357.076 209.533V209.54C357.076 210.849 356.429 211.658 355.388 211.658C354.824 211.658 354.354 211.379 354.139 210.936H354.075V212.955H353.139ZM355.094 210.868C355.734 210.868 356.121 210.364 356.121 209.54V209.533C356.121 208.706 355.734 208.202 355.094 208.202C354.459 208.202 354.064 208.706 354.064 209.529V209.537C354.064 210.36 354.459 210.868 355.094 210.868ZM358.662 211.59V207.48H359.598V208.111H359.662C359.801 207.671 360.177 207.412 360.719 207.412C360.862 207.412 361.008 207.431 361.099 207.457V208.296C360.948 208.266 360.794 208.243 360.632 208.243C360.008 208.243 359.598 208.615 359.598 209.202V211.59H358.662Z" fill="#33323A"/>
</g>
<defs>
<linearGradient id="paint0_linear_10717_6653" x1="55.1636" y1="42.832" x2="55.1636" y2="189.907" gradientUnits="userSpaceOnUse">
<stop stop-color="#867DF9"/>
<stop offset="1" stop-color="#6359E8" stop-opacity="0.01"/>
</linearGradient>
<clipPath id="clip0_10717_6653">
<rect width="19.4249" height="182.266" fill="white" transform="translate(22 12.7031)"/>
</clipPath>
<clipPath id="clip1_10717_6653">
<rect width="315.424" height="8.98496" fill="white" transform="translate(54.375 204.59)"/>
</clipPath>
</defs>
</svg>
