<svg width="481" height="477" viewBox="0 0 481 477" fill="none" xmlns="http://www.w3.org/2000/svg">
<path d="M0.778015 476.832C0.778015 414.318 13.0911 352.417 37.014 294.661C60.9371 236.906 96.0016 184.428 140.206 140.224C184.41 96.0204 236.887 60.9559 294.643 37.0329C352.398 13.1099 414.3 0.796872 476.813 0.796875L476.813 476.832H0.778015Z" fill="white"/>
<g clip-path="url(#clip0_9524_24046)">
<path d="M-52.2209 517.83C-52.2209 517.83 -29.0208 492.241 24.5445 513.736C78.1097 535.23 108.588 523.819 116.17 515.479C123.752 507.14 120.113 481.968 127.24 481.968C134.367 481.968 141.493 495.463 190.926 495.615C240.36 495.767 289.641 474.083 291.764 468.927C293.887 463.772 283.424 434.809 282.969 434.354C282.514 433.9 252.945 458.161 196.84 461.801C140.735 465.44 135.125 453.612 131.334 454.522C127.543 455.432 121.629 476.812 126.33 476.206C131.03 475.599 133.002 433.596 138.915 430.715C144.829 427.834 157.112 425.256 157.415 422.83C157.718 420.404 145.436 386.438 149.53 383.102C153.624 379.766 179.25 373.094 181.98 375.368C184.709 377.643 189.865 407.364 189.41 409.335C188.955 411.306 163.025 420.859 163.783 418.888C164.542 416.917 233.081 384.618 243.695 381.131C254.31 377.643 268.715 381.721 282.817 374.906C296.919 368.09 307.666 364.015 318.186 365.778C328.706 367.54 325.123 359.352 311.647 358.385C298.17 357.419 269.909 361.513 262.915 362.536C255.921 363.56 254.556 364.47 255.75 365.379C256.944 366.289 282.817 364.413 285.547 355.428C288.276 346.444 278.041 185.066 279.405 183.246C280.77 181.427 409.963 171.646 411.556 174.148C413.148 176.65 417.545 231.997 416.635 233.286C415.726 234.575 407.082 238.214 408.523 241.019C409.963 243.825 418.038 240.944 422.019 240.944C425.999 240.944 430.889 243.066 430.965 240.072C431.041 237.077 420.123 232.907 419.403 234.537C418.682 236.167 433.543 240.944 435.476 244.431C437.41 247.919 432.102 252.771 430.548 253.264C428.994 253.757 428.804 248.26 423.611 250.193C418.417 252.127 415.043 255.804 413.678 254.325C412.314 252.847 415.422 243.446 417.204 244.735C418.986 246.024 420.938 252.847 416.673 257.737C412.409 262.627 415.081 264.39 419.118 263.139C423.156 261.888 424.634 258.363 428.046 261.604C431.458 264.845 430.662 268.371 434.301 266.039C437.94 263.708 438.168 259.102 435.154 256.998C432.14 254.894 434.566 257.927 433.808 263.5C433.05 269.072 428.349 282.037 424.293 283.629C420.237 285.221 427.743 274.038 425.506 271.688C423.269 269.337 417.204 276.805 415.081 271.991C412.958 267.177 420.199 263.765 420.502 266.57C420.805 269.375 426.795 344.738 424.066 347.013C421.336 349.287 293.129 356.566 291.915 356.111C290.702 355.656 283.727 188.554 284.485 187.796C285.243 187.038 403.671 176.878 406.4 179.001C409.13 181.124 411.783 228.358 410.494 230.481C409.205 232.604 402.533 235.561 403.974 256.411C405.415 277.26 418.076 283.705 417.394 291.969C416.711 300.233 401.7 280.369 398.439 282.189C395.179 284.008 403.115 298.133 396.228 299.752C383.411 302.765 352.248 306.46 346.33 303.905C339.472 300.944 366.042 294.599 365.545 291.4C365.048 288.201 340.241 296.783 337.548 294.09C334.855 291.396 337.154 289.626 336.789 288.103C336.424 286.579 333.215 289.144 328.667 285.038C324.118 280.932 324.637 273.543 325.868 272.273C327.098 271.003 334.775 270.236 334.929 272.097C335.083 273.958 340.507 282.91 343.171 275.648C345.835 268.387 333.09 267.049 328.865 254.951C324.641 242.853 337.374 239.243 337.866 238.623C338.357 238.002 337.998 234.912 338.73 234.2C339.461 233.489 343.779 233.989 344.083 234.455C344.388 234.921 344.79 238.381 344.964 238.8C345.138 239.218 348.05 238.942 351.306 241.633C354.563 244.323 355.518 252.542 354.568 253.53C353.618 254.517 346.011 254.274 345.423 253.528C344.835 252.782 345.466 251.205 344.54 248.62C343.613 246.034 339.106 246.057 338.299 250.973C337.493 255.89 347.764 261.273 352.681 271.787C357.599 282.302 343.393 288.337 342.149 289.484C340.904 290.63 343.292 300.938 341.472 302.527C339.653 304.117 313.034 300.885 307.97 277.798C302.907 254.711 312.561 227.352 340.689 222.016C368.818 216.68 396.673 259.597 374.337 289.814C352.001 320.031 315.373 316.193 303.97 282.757C292.568 249.321 315.529 219.422 342.476 216.854C369.423 214.286 390.932 232.831 391.594 266.012C392.119 292.34 353.157 336.33 311.544 314.106C300.331 308.118 297.602 312.895 301.696 326.201C305.79 339.507 300.71 353.078 293.735 353.533C286.76 353.988 286.911 347.922 274.78 348.605C262.65 349.287 265.303 351.588 251.277 349.907C237.251 348.226 233.991 353.305 229.896 359.143C225.802 364.981 189.865 376.885 169.849 381.13C149.833 385.376 116.018 384.163 112.227 387.196C108.436 390.228 121.932 391.593 122.69 383.102C123.448 374.61 108.891 306.526 105.101 309.104C101.31 311.681 117.99 350.5 110.256 357.779C102.523 365.057 72.3472 362.479 79.6257 371.729C86.9042 380.979 106.01 376.43 100.4 387.802C94.7891 399.175 81.4452 404.179 86.904 427.228C92.3629 450.276 135.882 437.387 131.333 433.445C126.784 429.502 87.6622 447.244 77.6543 411.154C67.6463 375.065 65.0685 283.326 76.2896 266.949C87.5106 250.572 115.108 243.294 117.686 243.749C120.264 244.204 172.275 280.748 185.619 278.928C198.963 277.109 245.818 239.2 245.515 236.319C245.212 233.438 233.119 231.808 231.754 234.651C230.389 237.494 233.971 246.08 229.707 245.569C225.442 245.057 223.85 231.41 221.462 234.651C219.073 237.892 220.552 245.91 215.662 244.09C210.771 242.27 217.765 226.349 213.899 225.325C210.032 224.302 205.824 238.176 204.118 232.376C202.412 226.576 201.995 219.26 212.307 209.479C222.618 199.699 226.181 183.36 227.091 166.984C228.001 150.607 230.617 129.226 223.679 122.971C216.742 116.716 215.036 112.963 216.401 112.622C217.765 112.281 223.907 117.74 209.805 123.426C195.703 129.113 157.604 139.348 151.122 145.717C144.639 152.085 151.008 129.909 152.714 132.411C154.42 134.913 143.73 163.003 146.345 183.588C148.961 204.172 178.075 228.623 191.722 225.439C205.369 222.255 216.401 205.935 220.268 207.527C224.134 209.119 219.472 231.068 223.111 230.329C226.75 229.59 230.674 219.98 231.811 223.165C232.948 226.349 234.654 232.661 231.583 230.329C228.513 227.998 235.81 197.197 235.052 163.382C234.294 129.567 233.384 102.728 206.848 88.1711C180.312 73.6141 143.616 84.2286 128.604 126.232C113.592 168.234 108.891 204.02 118.899 221.61C128.907 239.2 170.228 240.337 168.863 236.584C167.498 232.831 152.714 229.533 159.651 229.306C166.589 229.078 169.318 231.353 167.612 229.306C165.906 227.259 155.557 225.894 149.075 214.749C142.592 203.603 146.004 185.521 143.616 186.658C141.228 187.795 138.953 204.741 147.142 219.639C155.33 234.537 130.196 198.258 126.216 201.215C122.235 204.172 146.573 228.055 139.977 227.145C133.381 226.235 124.055 211.109 124.51 216.91C124.965 222.71 136.11 228.358 133.381 235.409C130.651 242.46 116.322 243.446 116.17 247.54C116.018 251.634 175.611 287.268 190.471 285.297C205.331 283.326 253.703 241.323 253.855 237.38C254.006 233.438 247.183 232.528 247.789 234.954C248.396 237.38 272.127 235.333 275.766 254.212C279.405 273.09 280.887 335.106 280.846 342.009C280.805 348.911 312.993 348.681 336.496 346.254C360 343.828 361.819 351.41 358.787 356.262C355.754 361.115 332.554 398.114 315.419 401.753C298.284 405.392 280.315 380.6 282.59 378.325C284.864 376.051 291.764 374.534 290.475 377.036C289.186 379.538 272.203 386.21 269.473 386.438C266.744 386.665 268.412 380.069 269.322 381.889C270.232 383.709 274.629 416.386 282.817 452.551C291.006 488.716 301.923 495.54 301.014 517.148C300.104 538.756 269.625 531.477 276.449 523.289C283.272 515.101 344.685 553.085 403.822 518.058C462.96 483.03 483.431 536.254 522.553 520.787" stroke="#161616" stroke-width="2.03444" stroke-miterlimit="10"/>
<path d="M182.5 379.001C182.5 380.601 160.833 383.334 150 384.501C148 384.102 154.833 410.334 158.5 423.5L163 418L188.5 405.001C186.5 395.668 182.5 377.401 182.5 379.001Z" fill="#6666F2" stroke="#6666F2"/>
<path d="M93 436C90.8932 434.131 89 430 89 430C89 430 96.0914 433.522 101 434.5C106.937 435.682 116.5 434.5 116.5 434.5C116.5 434.5 121.662 433.339 125 433.5C127.373 433.614 129.169 432.222 130 434C130.942 436.017 127.767 436.579 125.5 437.5C122.164 438.855 120.067 439.008 116.5 439.5C110.504 440.328 101 439.5 101 439.5C101 439.5 95.5512 438.263 93 436Z" fill="#F3A73D" stroke="#F3A73D"/>
</g>
<defs>
<clipPath id="clip0_9524_24046">
<rect width="390.294" height="395" fill="white" transform="translate(55.7059 82)"/>
</clipPath>
</defs>
</svg>
