<svg width="129" height="135" viewBox="0 0 129 135" fill="none" xmlns="http://www.w3.org/2000/svg">
<rect y="18" width="129" height="117" rx="14" fill="white"/>
<path d="M0 32C0 24.268 6.26801 18 14 18H31V135H14C6.26801 135 0 128.732 0 121V32Z" fill="#E5E5FF"/>
<circle cx="15.5" cy="40.5" r="5.5" fill="white"/>
<circle cx="15.5" cy="64.5" r="5.5" fill="white"/>
<circle cx="15.5" cy="88.5" r="5.5" fill="white"/>
<circle cx="15.5" cy="112.5" r="5.5" fill="white"/>
<rect x="45" width="60" height="60" rx="4" fill="#BEBEEF"/>
<path d="M68.6347 23.1457C68.6347 22.8552 68.7209 22.5712 68.8822 22.3297C69.0436 22.0882 69.273 21.8999 69.5414 21.7887C69.8098 21.6776 70.1051 21.6485 70.39 21.7051C70.6749 21.7618 70.9366 21.9017 71.142 22.1071C71.3474 22.3125 71.4873 22.5742 71.544 22.8591C71.6007 23.144 71.5716 23.4394 71.4604 23.7077C71.3492 23.9761 71.161 24.2055 70.9195 24.3669C70.6779 24.5283 70.394 24.6144 70.1035 24.6144C69.7155 24.6094 69.3449 24.453 69.0705 24.1786C68.7962 23.9043 68.6398 23.5336 68.6347 23.1457ZM79.8951 33.4269C79.6046 33.4269 79.3207 33.5131 79.0791 33.6745C78.8376 33.8358 78.6493 34.0652 78.5382 34.3336C78.427 34.602 78.3979 34.8973 78.4546 35.1822C78.5113 35.4671 78.6512 35.7288 78.8566 35.9342C79.062 36.1396 79.3237 36.2795 79.6086 36.3362C79.8935 36.3929 80.1888 36.3638 80.4572 36.2526C80.7256 36.1415 80.955 35.9532 81.1164 35.7117C81.2777 35.4701 81.3639 35.1862 81.3639 34.8957C81.3588 34.5077 81.2024 34.1371 80.9281 33.8627C80.6537 33.5884 80.2831 33.432 79.8951 33.4269ZM90.1764 13.4128V46.3323C90.175 46.7176 90.0834 47.0973 89.909 47.4408C89.7345 47.7844 89.4821 48.0823 89.1718 48.3107C88.8615 48.5392 88.502 48.6917 88.1222 48.7563C87.7423 48.8208 87.3526 48.7955 86.9843 48.6823L82.8326 47.3507L79.993 48.7803C79.6518 48.9479 79.2766 49.0351 78.8964 49.0351C78.5161 49.0351 78.141 48.9479 77.7997 48.7803L74.9993 47.3703L72.1793 48.7803C71.8372 48.9451 71.4624 49.0307 71.0826 49.0307C70.7029 49.0307 70.328 48.9451 69.986 48.7803L67.166 47.3507L63.0339 48.6823C62.6656 48.7955 62.2759 48.8208 61.896 48.7563C61.5161 48.6917 61.1567 48.5392 60.8464 48.3107C60.5361 48.0823 60.2836 47.7844 60.1092 47.4408C59.9347 47.0973 59.8432 46.7176 59.8418 46.3323V13.4128C59.8418 12.7669 60.097 12.1472 60.5518 11.6887C61.0067 11.2302 61.6243 10.97 62.2701 10.9648H87.7285C88.3777 10.9648 89.0003 11.2227 89.4594 11.6818C89.9185 12.1409 90.1764 12.7635 90.1764 13.4128ZM65.6972 23.2044C65.7088 24.0733 65.977 24.9194 66.4682 25.6362C66.9593 26.353 67.6515 26.9086 68.4576 27.2331C69.2637 27.5577 70.1477 27.6366 70.9985 27.46C71.8493 27.2834 72.629 26.8592 73.2393 26.2407C73.8497 25.6222 74.2635 24.837 74.4289 23.9839C74.5942 23.1308 74.5035 22.2479 74.1684 21.4462C73.8332 20.6445 73.2685 19.9597 72.5452 19.4781C71.822 18.9965 70.9724 18.7395 70.1035 18.7394C68.9349 18.7394 67.8141 19.2037 66.9878 20.03C66.1614 20.8563 65.6972 21.9771 65.6972 23.1457V23.2044ZM83.9293 21.2461C84.0581 21.1022 84.1572 20.9343 84.221 20.752C84.2848 20.5697 84.312 20.3766 84.3011 20.1838C84.2901 19.991 84.2413 19.8022 84.1574 19.6283C84.0734 19.4544 83.956 19.2987 83.8118 19.1703C83.5189 18.9151 83.1378 18.7845 82.75 18.8064C82.3621 18.8284 81.9982 19.0011 81.736 19.2878L66.0693 36.9128C65.9405 37.0567 65.8414 37.2246 65.7776 37.4069C65.7138 37.5892 65.6866 37.7822 65.6975 37.975C65.7084 38.1679 65.7573 38.3566 65.8412 38.5305C65.9252 38.7045 66.0426 38.8601 66.1868 38.9886C66.3307 39.1174 66.4986 39.2165 66.6809 39.2803C66.8632 39.3441 67.0563 39.3713 67.2491 39.3604C67.4419 39.3494 67.6307 39.3006 67.8046 39.2167C67.9785 39.1327 68.1342 39.0153 68.2626 38.8711L83.9293 21.2461ZM84.3014 34.9544C84.3014 34.083 84.043 33.2311 83.5588 32.5064C83.0746 31.7818 82.3865 31.2171 81.5813 30.8836C80.7762 30.5501 79.8902 30.4628 79.0355 30.6328C78.1808 30.8029 77.3957 31.2225 76.7794 31.8387C76.1632 32.455 75.7436 33.2401 75.5735 34.0948C75.4035 34.9495 75.4908 35.8355 75.8243 36.6406C76.1578 37.4458 76.7225 38.1339 77.4471 38.6181C78.1718 39.1023 79.0237 39.3607 79.8951 39.3607C80.4787 39.3607 81.0566 39.2448 81.595 39.0197C82.1335 38.7946 82.6218 38.4648 83.0318 38.0494C83.4417 37.634 83.765 37.1413 83.983 36.5999C84.2009 36.0585 84.3092 35.4792 84.3014 34.8957V34.9544Z" fill="white"/>
<rect x="45" y="77" width="67" height="6" rx="3" fill="url(#paint0_linear_9037_5039)" fill-opacity="0.2"/>
<rect x="45" y="88" width="51" height="6" rx="3" fill="url(#paint1_linear_9037_5039)" fill-opacity="0.2"/>
<g opacity="0.4">
<rect x="45" y="110" width="67" height="6" rx="3" fill="url(#paint2_linear_9037_5039)" fill-opacity="0.2"/>
<rect x="45" y="121" width="51" height="6" rx="3" fill="url(#paint3_linear_9037_5039)" fill-opacity="0.2"/>
</g>
<defs>
<linearGradient id="paint0_linear_9037_5039" x1="45" y1="80" x2="112" y2="80" gradientUnits="userSpaceOnUse">
<stop stop-color="#D9D9D9"/>
<stop offset="1" stop-color="#737373"/>
</linearGradient>
<linearGradient id="paint1_linear_9037_5039" x1="45" y1="91" x2="96" y2="91" gradientUnits="userSpaceOnUse">
<stop stop-color="#D9D9D9"/>
<stop offset="1" stop-color="#737373"/>
</linearGradient>
<linearGradient id="paint2_linear_9037_5039" x1="45" y1="113" x2="112" y2="113" gradientUnits="userSpaceOnUse">
<stop stop-color="#D9D9D9"/>
<stop offset="1" stop-color="#737373"/>
</linearGradient>
<linearGradient id="paint3_linear_9037_5039" x1="45" y1="124" x2="96" y2="124" gradientUnits="userSpaceOnUse">
<stop stop-color="#D9D9D9"/>
<stop offset="1" stop-color="#737373"/>
</linearGradient>
</defs>
</svg>
