<svg height="512" viewBox="0 0 110 110" width="512" xmlns="http://www.w3.org/2000/svg"><g id="_24._unboxing" data-name="24. unboxing"><circle cx="55" cy="55" fill="#e7efff" r="50"/><path d="m72 31h-7v25a2 2 0 0 1 -2 2h-16a2 2 0 0 1 -2-2v-25h-7a2 2 0 0 1 -1.63-3.16l17-24a2 2 0 0 1 3.26 0l17 24a2 2 0 0 1 -1.63 3.16z" fill="#00c99f"/><path d="m24 56v12a2 2 0 0 1 -2 2h-9a2 2 0 0 1 -1.6-3.2l9-12a2 2 0 0 1 3.6 1.2z" fill="#323fd4"/><path d="m86 56v12a2 2 0 0 0 2 2h9a2 2 0 0 0 1.6-3.2l-9-12a2 2 0 0 0 -3.6 1.2z" fill="#323fd4"/><circle cx="14" cy="4" fill="#00c99f" r="3"/><circle cx="106" cy="10" fill="#ffa100" r="3"/><circle cx="97" cy="106" fill="#00c99f" r="3"/><circle cx="4" cy="98" fill="#ff4d69" r="3"/><path d="m88 54v38.55a50 50 0 0 1 -66 0v-38.55z" fill="#4e6aff"/><path d="m89.73 57-7 12a2 2 0 0 1 -1.73 1h-52a2 2 0 0 1 -1.73-1l-7-12a2 2 0 0 1 1.73-3h66a2 2 0 0 1 1.73 3z" fill="#8fa2ff"/><path d="m46 94v6a2 2 0 0 1 -2 2h-6.08a49.56 49.56 0 0 1 -9.92-4.92v-3.08a2 2 0 0 1 2-2h14a2 2 0 0 1 2 2z" fill="#8fa2ff"/><path d="m63 94h-12a1 1 0 0 1 0-2h12a1 1 0 0 1 0 2z" fill="#fff"/><path d="m63 98h-12a1 1 0 0 1 0-2h12a1 1 0 0 1 0 2z" fill="#fff"/><g fill="#ffa100"><path d="m32 50a2 2 0 0 1 -1.41-.59l-6-6a2 2 0 0 1 2.82-2.82l6 6a2 2 0 0 1 -1.41 3.41z"/><path d="m78 50a2 2 0 0 1 -1.41-3.41l6-6a2 2 0 0 1 2.82 2.82l-6 6a2 2 0 0 1 -1.41.59z"/></g></g></svg>