<svg version="1.1" id="Capa_1" xmlns="http://www.w3.org/2000/svg" xmlns:xlink="http://www.w3.org/1999/xlink" x="0px" y="0px" viewBox="0 0 512.003 512.003" style="enable-background:new 0 0 512.003 512.003;" xml:space="preserve">
<g>
	<path style="fill:none;stroke:#000000;stroke-width:15;stroke-linecap:round;stroke-linejoin:round;stroke-miterlimit:10;" d="&#10;&#9;&#9;M145.245,244.006c-1.953-1.953-1.953-5.118,0-7.071l15.233-15.234c1.953-1.953,1.953-5.118,0-7.071l-18.42-18.42&#10;&#9;&#9;c-1.953-1.953-5.118-1.953-7.071,0l-15.233,15.233c-1.953,1.953-5.118,1.953-7.071,0L97.45,196.21&#10;&#9;&#9;c-1.953-1.953-5.118-1.953-7.071,0l-18.42,18.42c-1.953,1.953-1.953,5.118,0,7.071l15.233,15.234c1.953,1.953,1.953,5.118,0,7.071&#10;&#9;&#9;l-15.233,15.234c-1.953,1.953-1.953,5.118,0,7.071l18.42,18.42c1.953,1.953,5.118,1.953,7.071,0l15.234-15.233&#10;&#9;&#9;c1.953-1.953,5.118-1.953,7.071,0l15.233,15.234c1.953,1.953,5.118,1.953,7.071,0l18.42-18.42c1.953-1.953,1.953-5.118,0-7.071&#10;&#9;&#9;L145.245,244.006z"/>
	<path style="fill:none;stroke:#000000;stroke-width:15;stroke-linecap:round;stroke-linejoin:round;stroke-miterlimit:10;" d="&#10;&#9;&#9;M424.808,244.006c-1.953-1.953-1.953-5.118,0-7.071l15.233-15.234c1.953-1.953,1.953-5.118,0-7.071l-18.42-18.42&#10;&#9;&#9;c-1.953-1.953-5.118-1.953-7.071,0l-15.233,15.233c-1.953,1.953-5.118,1.953-7.071,0l-15.234-15.233&#10;&#9;&#9;c-1.953-1.953-5.118-1.953-7.071,0l-18.42,18.42c-1.953,1.953-1.953,5.118,0,7.071l15.233,15.234c1.953,1.953,1.953,5.118,0,7.071&#10;&#9;&#9;l-15.233,15.234c-1.953,1.953-1.953,5.118,0,7.071l18.42,18.42c1.953,1.953,5.118,1.953,7.071,0l15.234-15.233&#10;&#9;&#9;c1.953-1.953,5.118-1.953,7.071,0l15.233,15.234c1.953,1.953,5.118,1.953,7.071,0l18.42-18.42c1.953-1.953,1.953-5.118,0-7.071&#10;&#9;&#9;L424.808,244.006z"/>
	<path style="fill:none;stroke:#000000;stroke-width:15;stroke-linecap:round;stroke-linejoin:round;stroke-miterlimit:10;" d="&#10;&#9;&#9;M145.245,383.787c-1.953-1.953-1.953-5.118,0-7.071l15.233-15.234c1.953-1.953,1.953-5.118,0-7.071l-18.42-18.42&#10;&#9;&#9;c-1.953-1.953-5.118-1.953-7.071,0l-15.233,15.233c-1.953,1.953-5.118,1.953-7.071,0L97.45,335.991&#10;&#9;&#9;c-1.953-1.953-5.118-1.953-7.071,0l-18.42,18.42c-1.953,1.953-1.953,5.118,0,7.071l15.233,15.234c1.953,1.953,1.953,5.118,0,7.071&#10;&#9;&#9;L71.959,399.02c-1.953,1.953-1.953,5.118,0,7.071l18.42,18.42c1.953,1.953,5.118,1.953,7.071,0l15.234-15.233&#10;&#9;&#9;c1.953-1.953,5.118-1.953,7.071,0l15.233,15.234c1.953,1.953,5.118,1.953,7.071,0l18.42-18.42c1.953-1.953,1.953-5.118,0-7.071&#10;&#9;&#9;L145.245,383.787z"/>
	<path style="fill:none;stroke:#000000;stroke-width:15;stroke-linecap:round;stroke-linejoin:round;stroke-miterlimit:10;" d="&#10;&#9;&#9;M285.027,383.787c-1.953-1.953-1.953-5.118,0-7.071l15.233-15.234c1.953-1.953,1.953-5.118,0-7.071l-18.42-18.42&#10;&#9;&#9;c-1.953-1.953-5.118-1.953-7.071,0l-15.233,15.233c-1.953,1.953-5.118,1.953-7.071,0l-15.234-15.233&#10;&#9;&#9;c-1.953-1.953-5.118-1.953-7.071,0l-18.42,18.42c-1.953,1.953-1.953,5.118,0,7.071l15.233,15.234c1.953,1.953,1.953,5.118,0,7.071&#10;&#9;&#9;L211.74,399.02c-1.953,1.953-1.953,5.118,0,7.071l18.42,18.42c1.953,1.953,5.118,1.953,7.071,0l15.234-15.233&#10;&#9;&#9;c1.953-1.953,5.118-1.953,7.071,0l15.233,15.234c1.953,1.953,5.118,1.953,7.071,0l18.42-18.42c1.953-1.953,1.953-5.118,0-7.071&#10;&#9;&#9;L285.027,383.787z"/>
	<path style="fill:none;stroke:#000000;stroke-width:15;stroke-linecap:round;stroke-linejoin:round;stroke-miterlimit:10;" d="&#10;&#9;&#9;M7.503,131.755v-42.66c0-19.33,15.67-35,35-35h26.12"/>
	
		<line style="fill:none;stroke:#000000;stroke-width:15;stroke-linecap:round;stroke-linejoin:round;stroke-miterlimit:10;" x1="286.062" y1="54.095" x2="225.932" y2="54.095"/>
	<path style="fill:none;stroke:#000000;stroke-width:15;stroke-linecap:round;stroke-linejoin:round;stroke-miterlimit:10;" d="&#10;&#9;&#9;M443.372,54.095h26.13c19.33,0,35,15.67,35,35v42.66"/>
	
		<line style="fill:none;stroke:#000000;stroke-width:15;stroke-linecap:round;stroke-linejoin:round;stroke-miterlimit:10;" x1="394.783" y1="54.095" x2="334.652" y2="54.095"/>
	
		<line style="fill:none;stroke:#000000;stroke-width:15;stroke-linecap:round;stroke-linejoin:round;stroke-miterlimit:10;" x1="177.342" y1="54.095" x2="117.223" y2="54.095"/>
	
		<polyline style="fill:none;stroke:#000000;stroke-width:15;stroke-linecap:round;stroke-linejoin:round;stroke-miterlimit:10;" points="&#10;&#9;&#9;504.5,266.533 504.5,131.751 81.676,131.751 &#9;"/>
	<path style="fill:none;stroke:#000000;stroke-width:15;stroke-linecap:round;stroke-linejoin:round;stroke-miterlimit:10;" d="&#10;&#9;&#9;M46.676,131.751H7.5V453.97c0,19.33,15.67,35,35,35h427c19.33,0,35-15.67,35-35V301.533"/>
	<path style="fill:none;stroke:#000000;stroke-width:15;stroke-linecap:round;stroke-linejoin:round;stroke-miterlimit:10;" d="&#10;&#9;&#9;M106.219,100.689H79.625c-5.523,0-10-4.477-10-10V33.033c0-5.523,4.477-10,10-10h26.594c5.523,0,10,4.477,10,10v57.656&#10;&#9;&#9;C116.219,96.212,111.742,100.689,106.219,100.689z"/>
	<path style="fill:none;stroke:#000000;stroke-width:15;stroke-linecap:round;stroke-linejoin:round;stroke-miterlimit:10;" d="&#10;&#9;&#9;M214.938,100.689h-26.594c-5.523,0-10-4.477-10-10V33.033c0-5.523,4.477-10,10-10h26.594c5.523,0,10,4.477,10,10v57.656&#10;&#9;&#9;C224.938,96.212,220.46,100.689,214.938,100.689z"/>
	<path style="fill:none;stroke:#000000;stroke-width:15;stroke-linecap:round;stroke-linejoin:round;stroke-miterlimit:10;" d="&#10;&#9;&#9;M323.656,100.689h-26.594c-5.523,0-10-4.477-10-10l0-57.656c0-5.523,4.477-10,10-10h26.594c5.523,0,10,4.477,10,10v57.656&#10;&#9;&#9;C333.656,96.212,329.179,100.689,323.656,100.689z"/>
	<path style="fill:none;stroke:#000000;stroke-width:15;stroke-linecap:round;stroke-linejoin:round;stroke-miterlimit:10;" d="&#10;&#9;&#9;M432.375,100.689h-26.594c-5.523,0-10-4.477-10-10V33.033c0-5.523,4.477-10,10-10h26.594c5.523,0,10,4.477,10,10v57.656&#10;&#9;&#9;C442.375,96.212,437.898,100.689,432.375,100.689z"/>
	<path style="fill:none;stroke:#000000;stroke-width:15;stroke-linecap:round;stroke-linejoin:round;stroke-miterlimit:10;" d="&#10;&#9;&#9;M306.154,220.739l-17.84-17.84c-1.953-1.953-5.118-1.953-7.071,0l-27.6,27.6c-1.953,1.953-5.118,1.953-7.071,0l-15.68-15.68&#10;&#9;&#9;c-1.953-1.953-5.118-1.953-7.071,0l-17.84,17.84c-1.953,1.953-1.953,5.118,0,7.071l37.055,37.055&#10;&#9;&#9;c3.905,3.905,10.237,3.905,14.142,0l48.975-48.975C308.106,225.857,308.106,222.691,306.154,220.739z"/>
	<path style="fill:none;stroke:#000000;stroke-width:15;stroke-linecap:round;stroke-linejoin:round;stroke-miterlimit:10;" d="&#10;&#9;&#9;M445.868,360.416l-17.84-17.84c-1.953-1.953-5.118-1.953-7.071,0l-27.6,27.6c-1.953,1.953-5.118,1.953-7.071,0l-15.68-15.68&#10;&#9;&#9;c-1.953-1.953-5.118-1.953-7.071,0l-17.84,17.84c-1.953,1.953-1.953,5.118,0,7.071l37.055,37.055&#10;&#9;&#9;c3.905,3.905,10.237,3.905,14.142,0l48.975-48.975C447.82,365.534,447.82,362.368,445.868,360.416z"/>
</g>
<g>
</g>
<g>
</g>
<g>
</g>
<g>
</g>
<g>
</g>
<g>
</g>
<g>
</g>
<g>
</g>
<g>
</g>
<g>
</g>
<g>
</g>
<g>
</g>
<g>
</g>
<g>
</g>
<g>
</g>
</svg>