<svg id="Capa_1" enable-background="new 0 0 512 512" height="512" viewBox="0 0 512 512" width="512" xmlns="http://www.w3.org/2000/svg"><g><g id="Page-1_16_"><g id="_x30_17---Complete-Schedule"><path id="Shape_126_" d="m42.667 512h426.667c23.552-.028 42.638-19.114 42.667-42.667v-392.533c-.028-23.552-19.114-42.638-42.667-42.667h-17.067v-8.533c0-14.138-11.462-25.6-25.6-25.6s-25.6 11.462-25.6 25.6v8.533h-34.133v-8.533c0-14.138-11.462-25.6-25.6-25.6s-25.6 11.462-25.6 25.6v8.533h-34.134v-8.533c0-14.138-11.461-25.6-25.6-25.6-14.138 0-25.6 11.462-25.6 25.6v8.533h-34.133v-8.533c0-14.138-11.462-25.6-25.6-25.6s-25.6 11.462-25.6 25.6v8.533h-34.133v-8.533c0-14.138-11.462-25.6-25.6-25.6s-25.6 11.462-25.6 25.6v8.533h-17.067c-23.553.029-42.639 19.115-42.667 42.667v392.533c.028 23.553 19.114 42.639 42.667 42.667zm426.666-17.067h-426.666c-14.138 0-25.6-11.462-25.6-25.6v-349.866h477.867v349.867c-.001 14.138-11.462 25.599-25.601 25.599zm-51.2-469.333c0-4.713 3.82-8.533 8.533-8.533s8.533 3.821 8.533 8.533v34.133c0 4.713-3.82 8.533-8.533 8.533s-8.533-3.821-8.533-8.533zm-85.333 0c0-4.713 3.82-8.533 8.533-8.533s8.533 3.821 8.533 8.533v34.133c0 4.713-3.821 8.533-8.533 8.533s-8.533-3.821-8.533-8.533zm-85.333 0c0-4.713 3.821-8.533 8.533-8.533 4.713 0 8.533 3.821 8.533 8.533v34.133c0 4.713-3.821 8.533-8.533 8.533-4.713 0-8.533-3.821-8.533-8.533zm-85.334 0c0-4.713 3.821-8.533 8.533-8.533 4.713 0 8.533 3.821 8.533 8.533v34.133c0 4.713-3.821 8.533-8.533 8.533-4.713 0-8.533-3.821-8.533-8.533zm-85.333 0c0-4.713 3.821-8.533 8.533-8.533s8.533 3.821 8.533 8.533v34.133c0 4.713-3.821 8.533-8.533 8.533s-8.533-3.82-8.533-8.533zm-34.133 25.6h17.067v8.533c0 14.138 11.462 25.6 25.6 25.6s25.6-11.462 25.6-25.6v-8.533h34.133v8.533c0 14.138 11.462 25.6 25.6 25.6 14.139 0 25.6-11.462 25.6-25.6v-8.533h34.133v8.533c0 14.138 11.462 25.6 25.6 25.6 14.139 0 25.6-11.462 25.6-25.6v-8.533h34.133v8.533c0 14.138 11.462 25.6 25.6 25.6s25.6-11.462 25.6-25.6v-8.533h34.133v8.533c0 14.138 11.462 25.6 25.6 25.6s25.6-11.462 25.6-25.6v-8.533h17.067c14.138 0 25.6 11.462 25.6 25.6v25.6h-477.866v-25.6c0-14.138 11.461-25.6 25.6-25.6z"/><path id="Shape_125_" d="m213.333 153.6h-34.133c-14.139 0-25.6 11.462-25.6 25.6v34.133c0 14.138 11.462 25.6 25.6 25.6h34.133c14.138 0 25.6-11.462 25.6-25.6v-34.133c0-14.138-11.461-25.6-25.6-25.6zm8.534 59.733c0 4.713-3.821 8.533-8.533 8.533h-34.134c-4.713 0-8.533-3.821-8.533-8.533v-34.133c0-4.713 3.821-8.533 8.533-8.533h34.133c4.713 0 8.533 3.821 8.533 8.533v34.133z"/><path id="Shape_124_" d="m332.8 153.6h-34.133c-14.138 0-25.6 11.462-25.6 25.6v34.133c0 14.138 11.462 25.6 25.6 25.6h34.133c14.138 0 25.6-11.462 25.6-25.6v-34.133c0-14.138-11.461-25.6-25.6-25.6zm8.533 59.733c0 4.713-3.82 8.533-8.533 8.533h-34.133c-4.713 0-8.533-3.821-8.533-8.533v-34.133c0-4.713 3.82-8.533 8.533-8.533h34.133c4.713 0 8.533 3.821 8.533 8.533z"/><path id="Shape_123_" d="m452.267 153.6h-34.133c-14.138 0-25.6 11.462-25.6 25.6v34.133c0 14.138 11.462 25.6 25.6 25.6h34.133c14.138 0 25.6-11.462 25.6-25.6v-34.133c0-14.138-11.462-25.6-25.6-25.6zm8.533 59.733c0 4.713-3.82 8.533-8.533 8.533h-34.133c-4.713 0-8.533-3.821-8.533-8.533v-34.133c0-4.713 3.82-8.533 8.533-8.533h34.133c4.713 0 8.533 3.821 8.533 8.533z"/><path id="Shape_122_" d="m93.867 264.533h-34.134c-14.138 0-25.6 11.462-25.6 25.6v34.133c0 14.138 11.462 25.6 25.6 25.6h34.133c14.138 0 25.6-11.462 25.6-25.6v-34.133c.001-14.138-11.461-25.6-25.599-25.6zm8.533 59.734c0 4.713-3.821 8.533-8.533 8.533h-34.134c-4.713 0-8.533-3.82-8.533-8.533v-34.133c0-4.713 3.821-8.533 8.533-8.533h34.133c4.713 0 8.533 3.821 8.533 8.533v34.133z"/><path id="Shape_121_" d="m230.4 315.733c-4.713 0-8.533 3.821-8.533 8.533s-3.821 8.533-8.533 8.533h-34.134c-4.713 0-8.533-3.82-8.533-8.533v-34.133c0-4.713 3.821-8.533 8.533-8.533s8.533-3.82 8.533-8.533-3.82-8.533-8.533-8.533c-14.139 0-25.6 11.462-25.6 25.6v34.133c0 14.138 11.462 25.6 25.6 25.6h34.133c14.138 0 25.6-11.462 25.6-25.6 0-4.713-3.82-8.534-8.533-8.534z"/><path id="Shape_120_" d="m93.867 375.467h-34.134c-14.138 0-25.6 11.462-25.6 25.6v34.133c0 14.138 11.462 25.6 25.6 25.6h34.133c14.138 0 25.6-11.462 25.6-25.6v-34.133c.001-14.139-11.461-25.6-25.599-25.6zm8.533 59.733c0 4.713-3.821 8.533-8.533 8.533h-34.134c-4.713 0-8.533-3.821-8.533-8.533v-34.133c0-4.713 3.821-8.533 8.533-8.533h34.133c4.713 0 8.533 3.82 8.533 8.533v34.133z"/><path id="Shape_119_" d="m213.333 375.467h-34.133c-14.139 0-25.6 11.462-25.6 25.6v34.133c0 14.138 11.462 25.6 25.6 25.6h34.133c14.138 0 25.6-11.462 25.6-25.6v-34.133c0-14.139-11.461-25.6-25.6-25.6zm8.534 59.733c0 4.713-3.821 8.533-8.533 8.533h-34.134c-4.713 0-8.533-3.821-8.533-8.533v-34.133c0-4.713 3.821-8.533 8.533-8.533h34.133c4.713 0 8.533 3.82 8.533 8.533v34.133z"/><path id="Shape_118_" d="m332.8 375.467h-34.133c-14.138 0-25.6 11.462-25.6 25.6v34.133c0 14.138 11.462 25.6 25.6 25.6h34.133c14.138 0 25.6-11.462 25.6-25.6v-34.133c0-14.139-11.461-25.6-25.6-25.6zm8.533 59.733c0 4.713-3.82 8.533-8.533 8.533h-34.133c-4.713 0-8.533-3.821-8.533-8.533v-34.133c0-4.713 3.82-8.533 8.533-8.533h34.133c4.713 0 8.533 3.82 8.533 8.533z"/><path id="Shape_117_" d="m198.767 313.233c1.6 1.6 3.77 2.5 6.033 2.5h.606c2.471-.181 4.741-1.426 6.221-3.413l25.6-34.133c1.829-2.439 2.218-5.668 1.021-8.472-1.198-2.804-3.8-4.755-6.827-5.12s-6.018.913-7.847 3.352l-19.695 26.266-1.579-1.579c-3.348-3.234-8.671-3.188-11.962.104-3.292 3.292-3.338 8.614-.104 11.962z"/><path id="Shape_116_" d="m349.867 315.733c-4.713 0-8.533 3.821-8.533 8.533s-3.82 8.533-8.533 8.533h-34.133c-4.713 0-8.533-3.82-8.533-8.533v-34.133c0-4.713 3.82-8.533 8.533-8.533s8.533-3.82 8.533-8.533-3.82-8.533-8.533-8.533c-14.138 0-25.6 11.462-25.6 25.6v34.133c0 14.138 11.462 25.6 25.6 25.6h34.132c14.138 0 25.6-11.462 25.6-25.6 0-4.713-3.821-8.534-8.533-8.534z"/><path id="Shape_115_" d="m318.234 313.233c1.6 1.6 3.77 2.5 6.033 2.5h.606c2.471-.181 4.741-1.426 6.221-3.413l25.6-34.133c2.828-3.77 2.064-9.119-1.707-11.947-3.77-2.828-9.119-2.064-11.947 1.707l-19.695 26.266-1.579-1.579c-3.348-3.234-8.671-3.188-11.962.104-3.292 3.292-3.338 8.614-.104 11.962z"/><path id="Shape_114_" d="m469.333 315.733c-4.713 0-8.533 3.821-8.533 8.533s-3.82 8.533-8.533 8.533h-34.133c-4.713 0-8.533-3.82-8.533-8.533v-34.133c0-4.713 3.82-8.533 8.533-8.533s8.533-3.82 8.533-8.533-3.82-8.533-8.533-8.533c-14.138 0-25.6 11.462-25.6 25.6v34.133c0 14.138 11.462 25.6 25.6 25.6h34.133c14.138 0 25.6-11.462 25.6-25.6 0-4.713-3.821-8.534-8.534-8.534z"/><path id="Shape_113_" d="m437.7 313.233c1.6 1.6 3.77 2.5 6.033 2.5h.606c2.471-.181 4.741-1.426 6.221-3.413l25.6-34.133c1.829-2.439 2.218-5.668 1.021-8.472-1.198-2.804-3.8-4.755-6.827-5.12s-6.018.913-7.847 3.352l-19.695 26.266-1.579-1.579c-3.348-3.234-8.671-3.188-11.962.104-3.292 3.292-3.338 8.614-.104 11.962z"/></g></g></g></svg>