<svg clip-rule="evenodd" fill-rule="evenodd" height="512" image-rendering="optimizeQuality" shape-rendering="geometricPrecision" text-rendering="geometricPrecision" viewBox="0 0 180.622 180.622" width="512" xmlns="http://www.w3.org/2000/svg"><g id="Layer_x0020_1"><g id="_497751848"><g><g><path id="_497752208" d="m115.944 152.104h-24.408c-1.7533 0-3.1749-1.4216-3.1749-3.1748v-106.963c0-3.0374-2.2083-6.8155-4.6318-7.9232l-61.1596-27.9782c-1.3581-.6208-2.099-2.106-1.7814-3.563.3174-1.4605 1.6086-2.4976 3.1008-2.4976h92.0514c7.133 0 12.9395 5.8031 12.9395 12.9396v47.9447c0 1.7533-1.4217 3.1749-3.1748 3.1749-1.7532 0-3.1749-1.4217-3.1749-3.1749v-47.9446c0-3.6336-2.9562-6.5898-6.5898-6.5898h-77.4786l47.906 21.914c4.6778 2.1378 8.3395 8.156 8.3395 13.6981v103.788h21.2331c3.6336 0 6.5898-2.9562 6.5898-6.5898v-47.4192c0-1.7533 1.4217-3.1749 3.1749-3.1749 1.7531 0 3.1748 1.4217 3.1748 3.1749v47.4192c.0037 7.1366-5.8029 12.9395-12.936 12.9395z"/></g><g><path id="_497751968" d="m87.3314 180.618c-1.1783 0-2.4024-.2751-3.6053-.8219l-61.1596-27.978c-1.1288-.5151-1.8556-1.6439-1.8556-2.8857l.0001-145.754c0-1.0795.5503-2.0883 1.4605-2.6705.9101-.5821 2.053-.6668 3.0373-.2151l61.1595 27.978c4.6778 2.1378 8.3395 8.1561 8.3395 13.6981v130.062c0 3.2984-1.3087 6.0323-3.5913 7.4963-1.1253.7232-2.4235 1.0901-3.7851 1.0901zm-60.2635-33.7283 59.3039 27.1279c.5751.2646 1.0689.3246 1.3194.1658.3352-.2151.6703-.963.6703-2.1553v-130.062c0-3.0374-2.2083-6.8155-4.6318-7.9232l-56.6618-25.9215v138.769z"/></g><g><path id="_497752064" d="m144.882 93.8724c-.7021 0-1.4075-.2329-1.9967-.7056-1.3617-1.1041-1.5733-3.1008-.4692-4.466l7.6691-9.4718-43.5562-.0001c-1.7533 0-3.1749-1.4217-3.1749-3.1749s1.4217-3.1749 3.1749-3.1749h43.5563l-7.6691-9.4718c-1.1041-1.3617-.8925-3.3619.4692-4.466s3.3619-.8925 4.466.4692l11.8177 14.5976c.4093.4832.6526 1.0688.7232 1.6721v.007.0035c.0035.0248.0035.0494.007.0741v.007.0035c.0635.7302-.127 1.4852-.5785 2.1166-.0423.06-.0883.1164-.1341.1729l-11.8389 14.6258c-.6208.7796-1.538 1.1818-2.4658 1.1818z"/></g></g></g></g></svg>