<?xml version="1.0" encoding="UTF-8"?>
<svg xmlns="http://www.w3.org/2000/svg" id="Icons" viewBox="0 0 60 60" width="512" height="512"><path d="M13,15H9a2,2,0,0,0-2,2v4a2,2,0,0,0,2,2h4a2,2,0,0,0,2-2V17A2,2,0,0,0,13,15ZM9,21V17h4l0,4Z"/><path d="M23,15H19a2,2,0,0,0-2,2v4a2,2,0,0,0,2,2h4a2,2,0,0,0,2-2V17A2,2,0,0,0,23,15Zm-4,6V17h4l0,4Z"/><path d="M29,23h4a2,2,0,0,0,2-2V17a2,2,0,0,0-2-2H29a2,2,0,0,0-2,2v4A2,2,0,0,0,29,23Zm0-6h4l0,4H29Z"/><path d="M39,23h4a2,2,0,0,0,2-2V17a2,2,0,0,0-2-2H39a2,2,0,0,0-2,2v4A2,2,0,0,0,39,23Zm0-6h4l0,4H39Z"/><path d="M13,26H9a2,2,0,0,0-2,2v4a2,2,0,0,0,2,2h4a2,2,0,0,0,2-2V28A2,2,0,0,0,13,26ZM9,32V28h4l0,4Z"/><path d="M23,26H19a2,2,0,0,0-2,2v4a2,2,0,0,0,2,2h4a2,2,0,0,0,2-2V28A2,2,0,0,0,23,26Zm-4,6V28h4l0,4Z"/><path d="M29,34h4a2,2,0,0,0,2-2V28a2,2,0,0,0-2-2H29a2,2,0,0,0-2,2v4A2,2,0,0,0,29,34Zm0-6h4l0,4H29Z"/><path d="M13,37H9a2,2,0,0,0-2,2v4a2,2,0,0,0,2,2h4a2,2,0,0,0,2-2V39A2,2,0,0,0,13,37ZM9,43V39h4l0,4Z"/><path d="M23,37H19a2,2,0,0,0-2,2v4a2,2,0,0,0,2,2h4a2,2,0,0,0,2-2V39A2,2,0,0,0,23,37Zm-4,6V39h4l0,4Z"/><path d="M52,31.743V7a4,4,0,0,0-4-4H47a3,3,0,0,0-6,0H35a3,3,0,0,0-6,0H23a3,3,0,0,0-6,0H11A3,3,0,0,0,5,3H4A4,4,0,0,0,0,7V47a4,4,0,0,0,4,4H31.261A14.995,14.995,0,1,0,52,31.743ZM43,3a1,1,0,0,1,2,0V5a1,1,0,0,1-2,0ZM31,3a1,1,0,0,1,2,0V5a1,1,0,0,1-2,0ZM19,3a1,1,0,0,1,2,0V5a1,1,0,0,1-2,0ZM7,3A1,1,0,0,1,9,3V5A1,1,0,0,1,7,5ZM4,5H5a3,3,0,0,0,6,0h6a3,3,0,0,0,6,0h6a3,3,0,0,0,6,0h6a3,3,0,0,0,6,0h1a2,2,0,0,1,2,2v3H2V7A2,2,0,0,1,4,5ZM4,49a2,2,0,0,1-2-2V12H50V30.875A14.912,14.912,0,0,0,45,30V28a2,2,0,0,0-2-2H39a2,2,0,0,0-2,2v4a1.932,1.932,0,0,0,.03.315A15.1,15.1,0,0,0,32.333,37H29a2,2,0,0,0-2,2v4a2,2,0,0,0,2,2h1a14.925,14.925,0,0,0,.558,4ZM43,30.149a14.88,14.88,0,0,0-4,1.112V28h4ZM30.149,43H29V39h2.261A14.88,14.88,0,0,0,30.149,43ZM45,58A13,13,0,1,1,58,45,13.015,13.015,0,0,1,45,58Z"/><path d="M49.219,39.375l-7.3,9.128-1.21-1.21a1,1,0,0,0-1.414,1.414l2,2A.993.993,0,0,0,42,51l.056,0a1,1,0,0,0,.725-.373l8-10a1,1,0,1,0-1.562-1.25Z"/></svg>
