<svg height="512" viewBox="0 0 25 25" width="512" xmlns="http://www.w3.org/2000/svg"><g id="Timer" fill="rgb(0,0,0)"><path d="m12.5 6.685a.5.5 0 0 1 -.5-.5v-.516a.5.5 0 0 1 1 0v.516a.5.5 0 0 1 -.5.5z"/><path d="m19.331 13h-.516a.5.5 0 0 1 0-1h.516a.5.5 0 0 1 0 1z"/><path d="m12.5 19.831a.5.5 0 0 1 -.5-.5v-.516a.5.5 0 0 1 1 0v.516a.5.5 0 0 1 -.5.5z"/><path d="m6.185 13h-.516a.5.5 0 0 1 0-1h.516a.5.5 0 0 1 0 1z"/><path d="m10.191 14.32a.5.5 0 0 1 -.248-.934l2.057-1.176v-4.1a.5.5 0 0 1 1 0v4.39a.5.5 0 0 1 -.252.434l-2.309 1.32a.493.493 0 0 1 -.248.066z"/><path d="m12.5 21.516a9.016 9.016 0 1 1 5.284-16.316.5.5 0 1 1 -.584.8 8.013 8.013 0 1 0 2.07 2.2.5.5 0 1 1 .843-.537 9.017 9.017 0 0 1 -7.613 13.853z"/><path d="m15.965 6.537a.5.5 0 0 1 -.034-1l1.311-.094-.342-1.269a.5.5 0 0 1 .965-.259l.5 1.856a.5.5 0 0 1 -.447.627l-1.918.137z"/></g></svg>