<svg id="Bahan_copy" viewBox="0 0 64 64" xmlns="http://www.w3.org/2000/svg" data-name="Bahan copy"><g fill="rgb(0,0,0)"><path d="m56 12.53h-.36v-3.95a3.64 3.64 0 0 0 -7.13-1h-13a3.62 3.62 0 0 0 -7 0h-13a3.63 3.63 0 0 0 -7.13 1v3.95h-.38a4 4 0 0 0 -4 4v38.54a4 4 0 0 0 4 4h48a4 4 0 0 0 4-4v-38.54a4 4 0 0 0 -4-4zm-4-5.6a1.64 1.64 0 0 1 1.64 1.65v3.95h-3.28v-3.93a1.65 1.65 0 0 1 1.64-1.67zm-16.36 5.6v-2.95h12.72v2.95zm-3.64-5.6a1.65 1.65 0 0 1 1.64 1.67v3.93h-3.28v-3.93a1.65 1.65 0 0 1 1.64-1.67zm-16.36 5.6v-2.95h12.72v2.95zm-5.28-3.95a1.64 1.64 0 0 1 3.28 0s0 3.93 0 4h-3.28zm-2.36 5.95h48a2 2 0 0 1 2 2v3.26h-52v-3.26a2 2 0 0 1 2-2zm48 42.54h-48a2 2 0 0 1 -2-2v-33.28h52v33.28a2 2 0 0 1 -2 2z"/><path d="m22.23 25.43c-5.05.13-5.05 7.53 0 7.66 5.05-.09 5.05-7.53 0-7.66zm0 5.66a1.83 1.83 0 0 1 0-3.66 1.83 1.83 0 0 1 0 3.66z"/><path d="m32 25.43c-5 .13-5 7.57 0 7.66 5.05-.09 5.05-7.53 0-7.66zm0 5.66a1.83 1.83 0 0 1 0-3.66 1.83 1.83 0 0 1 0 3.66z"/><path d="m41.77 25.43c-5.05.13-5.05 7.53 0 7.66 5.05-.09 5.05-7.53 0-7.66zm0 5.66a1.83 1.83 0 0 1 0-3.66 1.83 1.83 0 0 1 0 3.66z"/><path d="m51.54 25.43c-5 .13-5 7.53 0 7.66 5.05-.09 5.05-7.53 0-7.66zm0 5.66a1.83 1.83 0 0 1 0-3.66 1.83 1.83 0 0 1 0 3.66z"/><path d="m12.46 35.6c-5.05.13-5.05 7.53 0 7.66 5.05-.13 5.05-7.53 0-7.66zm0 5.66a1.83 1.83 0 0 1 0-3.66 1.83 1.83 0 0 1 0 3.66z"/><path d="m22.23 35.6c-5.05.13-5.05 7.53 0 7.66 5.05-.13 5.05-7.53 0-7.66zm0 5.66a1.83 1.83 0 0 1 0-3.66 1.83 1.83 0 0 1 0 3.66z"/><path d="m32 35.6c-5.05.13-5.05 7.53 0 7.66 5.05-.13 5.05-7.53 0-7.66zm0 5.66a1.83 1.83 0 0 1 0-3.66 1.83 1.83 0 0 1 0 3.66z"/><path d="m41.77 35.6c-5.05.13-5.05 7.53 0 7.66 5.05-.13 5.05-7.53 0-7.66zm0 5.66a1.83 1.83 0 0 1 0-3.66 1.83 1.83 0 0 1 0 3.66z"/><path d="m51.54 35.6c-5 .13-5 7.53 0 7.66 5.05-.13 5.05-7.53 0-7.66zm0 5.66a1.83 1.83 0 0 1 0-3.66 1.83 1.83 0 0 1 0 3.66z"/><path d="m12.46 45.77c-5.05.13-5.05 7.53 0 7.66 5.05-.13 5.05-7.53 0-7.66zm0 5.66a1.83 1.83 0 0 1 0-3.66 1.83 1.83 0 0 1 0 3.66z"/><path d="m22.23 45.77c-5.05.13-5.05 7.53 0 7.66 5.05-.13 5.05-7.53 0-7.66zm0 5.66a1.83 1.83 0 0 1 0-3.66 1.83 1.83 0 0 1 0 3.66z"/><path d="m32 45.77c-5 .13-5 7.53 0 7.66 5.05-.13 5.05-7.53 0-7.66zm0 5.66a1.83 1.83 0 0 1 0-3.66 1.83 1.83 0 0 1 0 3.66z"/><path d="m41.77 45.77c-5.05.13-5.05 7.53 0 7.66 5.05-.13 5.05-7.53 0-7.66zm0 5.66a1.83 1.83 0 0 1 0-3.66 1.83 1.83 0 0 1 0 3.66z"/></g></svg>