<svg width="20" height="20" viewBox="0 0 20 20" fill="none" xmlns="http://www.w3.org/2000/svg">
<mask id="mask0_8325_6746" style="mask-type:alpha" maskUnits="userSpaceOnUse" x="0" y="0" width="20" height="20">
<rect width="20" height="20" fill="#D9D9D9"/>
</mask>
<g mask="url(#mask0_8325_6746)">
<path d="M5.99353 8.84581L9.99999 2.27539L14.0065 8.84581H5.99353ZM14.5833 18.0125C13.6271 18.0125 12.8165 17.68 12.1515 17.015C11.4865 16.35 11.154 15.5393 11.154 14.5831C11.154 13.6268 11.4865 12.8162 12.1515 12.1512C12.8165 11.4862 13.6271 11.1537 14.5833 11.1537C15.5396 11.1537 16.3502 11.4862 17.0152 12.1512C17.6802 12.8162 18.0127 13.6268 18.0127 14.5831C18.0127 15.5393 17.6802 16.35 17.0152 17.015C16.3502 17.68 15.5396 18.0125 14.5833 18.0125ZM2.82062 17.5958V11.5704H8.84603V17.5958H2.82062ZM14.5831 16.7627C15.1933 16.7627 15.7091 16.552 16.1306 16.1306C16.5521 15.7092 16.7629 15.1934 16.7629 14.5833C16.7629 13.9732 16.5522 13.4573 16.1308 13.0358C15.7094 12.6143 15.1937 12.4035 14.5835 12.4035C13.9734 12.4035 13.4576 12.6142 13.036 13.0356C12.6145 13.457 12.4037 13.9728 12.4037 14.5829C12.4037 15.193 12.6144 15.7089 13.0358 16.1304C13.4572 16.5519 13.973 16.7627 14.5831 16.7627ZM4.07041 16.346H7.59624L7.99994 16.5088L4.07041 17.015V16.346ZM8.19874 7.59602H11.8012L10.4999 8.00879L8.19874 7.59602Z" fill="#6666F2"/>
</g>
<g clip-path="url(#clip0_8325_6746)">
<mask id="mask1_8325_6746" style="mask-type:alpha" maskUnits="userSpaceOnUse" x="0" y="0" width="20" height="20">
<rect width="20" height="20" fill="#D9D9D9"/>
</mask>
<g mask="url(#mask1_8325_6746)">
<path d="M5.99353 8.84581L9.99999 2.27539L14.0065 8.84581H5.99353ZM14.5833 18.0125C13.6271 18.0125 12.8165 17.68 12.1515 17.015C11.4865 16.35 11.154 15.5393 11.154 14.5831C11.154 13.6268 11.4865 12.8162 12.1515 12.1512C12.8165 11.4862 13.6271 11.1537 14.5833 11.1537C15.5396 11.1537 16.3502 11.4862 17.0152 12.1512C17.6802 12.8162 18.0127 13.6268 18.0127 14.5831C18.0127 15.5393 17.6802 16.35 17.0152 17.015C16.3502 17.68 15.5396 18.0125 14.5833 18.0125ZM2.82062 17.5958V11.5704H8.84603V17.5958H2.82062ZM14.5831 16.7627C15.1933 16.7627 15.7091 16.552 16.1306 16.1306C16.5521 15.7092 16.7629 15.1934 16.7629 14.5833C16.7629 13.9732 17.7816 16.5519 17.3602 16.1304C16.9388 15.7089 15.6101 17.5088 14.9999 17.5088C14.3898 17.5088 13.9215 16.5936 13.4999 17.015C13.0784 17.4364 12.8822 15.7359 12.8822 16.346C12.8822 16.9562 12.6144 15.7089 13.0358 16.1304C13.4572 16.5519 13.973 16.7627 14.5831 16.7627ZM4.07041 16.346H7.59624V12.8202H4.07041V16.346ZM8.19874 7.59602H11.8012L9.99999 4.69852L8.19874 7.59602Z" fill="#C4C0FF"/>
</g>
</g>
<defs>
<clipPath id="clip0_8325_6746">
<rect width="7" height="8" fill="white" transform="translate(11 10.5088)"/>
</clipPath>
</defs>
</svg>
