<svg width="20" height="21" viewBox="0 0 20 21" fill="none" xmlns="http://www.w3.org/2000/svg">
<mask id="mask0_8297_2072" style="mask-type:alpha" maskUnits="userSpaceOnUse" x="0" y="0" width="20" height="21">
<rect y="0.491211" width="20" height="20" fill="#D9D9D9"/>
</mask>
<g mask="url(#mask0_8297_2072)">
<path d="M5.99354 9.33702L10 2.7666L14.0065 9.33702H5.99354ZM14.5833 18.5037C13.6271 18.5037 12.8165 18.1712 12.1515 17.5062C11.4865 16.8412 11.154 16.0306 11.154 15.0743C11.154 14.1181 11.4865 13.3074 12.1515 12.6424C12.8165 11.9774 13.6271 11.6449 14.5833 11.6449C15.5396 11.6449 16.3502 11.9774 17.0152 12.6424C17.6802 13.3074 18.0127 14.1181 18.0127 15.0743C18.0127 16.0306 17.6802 16.8412 17.0152 17.5062C16.3502 18.1712 15.5396 18.5037 14.5833 18.5037ZM2.82063 18.087V12.0616H8.84604V18.087H2.82063ZM14.5831 17.2539C15.1933 17.2539 15.7091 17.0432 16.1306 16.6218C16.5522 16.2004 16.7629 15.6847 16.7629 15.0745C16.7629 14.4644 16.5522 13.9485 16.1308 13.527C15.7094 13.1055 15.1937 12.8947 14.5835 12.8947C13.9734 12.8947 13.4576 13.1054 13.036 13.5268C12.6145 13.9482 12.4038 14.464 12.4038 15.0741C12.4038 15.6842 12.6144 16.2001 13.0358 16.6216C13.4572 17.0431 13.973 17.2539 14.5831 17.2539ZM4.07042 16.8372H7.59625V13.3114H4.07042V16.8372ZM8.19875 8.08723H11.8013L10 5.18973L8.19875 8.08723Z" fill="#1A1A1A"/>
</g>
</svg>
