<svg width="20" height="20" viewBox="0 0 20 20" fill="none" xmlns="http://www.w3.org/2000/svg">
<circle cx="10" cy="10" r="5" fill="#C4C0FF"/>
<mask id="mask0_8325_6795" style="mask-type:alpha" maskUnits="userSpaceOnUse" x="0" y="0" width="20" height="20">
<rect width="20" height="20" fill="#D9D9D9"/>
</mask>
<g mask="url(#mask0_8325_6795)">
<path d="M3.31728 7.69262V3.46178H4.56728V5.43616C5.24353 4.6381 6.0534 4.01873 6.99687 3.57803C7.9402 3.13734 8.9359 2.91699 9.98395 2.91699C11.9498 2.91699 13.6218 3.60609 15 4.98428C16.3782 6.36248 17.0673 8.03449 17.0673 10.0003V10.1126H15.8173V10.0003C15.8173 8.37533 15.2513 6.99685 14.1194 5.86491C12.9874 4.73296 11.609 4.16699 9.98395 4.16699C9.07367 4.16699 8.22062 4.36921 7.42478 4.77366C6.62881 5.17796 5.9434 5.73428 5.36853 6.44262H7.54812V7.69262H3.31728ZM2.95041 10.8337H4.22603C4.40867 12.136 4.9559 13.2391 5.8677 14.143C6.77965 15.0468 7.87131 15.5879 9.1427 15.7664L9.90228 17.0837C8.12451 17.057 6.57215 16.4509 5.2452 15.2655C3.91826 14.0801 3.15333 12.6028 2.95041 10.8337ZM11.3654 12.236L9.38312 10.2535V5.83366H10.6329V9.7472L12.024 11.1382L11.3654 12.236ZM15.3798 19.792L15.1779 18.6622C14.9632 18.6035 14.7602 18.5225 14.569 18.4193C14.3777 18.3162 14.1977 18.1851 14.029 18.026L12.9408 18.3689L12.3477 17.3689L13.2179 16.6397C13.1528 16.4165 13.1202 16.1879 13.1202 15.9539C13.1202 15.7198 13.1528 15.4859 13.2179 15.252L12.3319 14.5068L12.9408 13.4907L14.0369 13.8578C14.2056 13.7039 14.383 13.5768 14.569 13.4764C14.7548 13.376 14.9578 13.2937 15.1779 13.2295L15.3798 12.0997H16.5656L16.7677 13.2295C16.9931 13.2937 17.2035 13.3829 17.399 13.4972C17.5945 13.6115 17.7698 13.7482 17.9248 13.9074L19.0369 13.5068L19.6298 14.5645L18.7356 15.3097C18.7953 15.5436 18.8252 15.7679 18.8252 15.9826C18.8252 16.1975 18.7953 16.4085 18.7356 16.6157L19.6458 17.3689L19.0529 18.3689L17.9248 18.0099C17.7613 18.1691 17.584 18.3029 17.3927 18.4114C17.2015 18.5198 16.9931 18.6035 16.7677 18.6622L16.5656 19.792H15.3798ZM15.9727 17.6766C16.4471 17.6766 16.8542 17.5067 17.194 17.167C17.5337 16.8273 17.7035 16.4203 17.7035 15.946C17.7035 15.4715 17.5337 15.0644 17.194 14.7247C16.8542 14.385 16.4471 14.2151 15.9727 14.2151C15.4984 14.2151 15.0914 14.385 14.7517 14.7247C14.4119 15.0644 14.2421 15.4715 14.2421 15.946C14.2421 16.4203 14.4119 16.8273 14.7517 17.167C15.0914 17.5067 15.4984 17.6766 15.9727 17.6766Z" fill="#6666F2"/>
</g>
</svg>
