<svg width="20" height="21" viewBox="0 0 20 21" fill="none" xmlns="http://www.w3.org/2000/svg">
<mask id="mask0_8297_2114" style="mask-type:alpha" maskUnits="userSpaceOnUse" x="0" y="0" width="20" height="21">
<rect y="0.492188" width="20" height="20" fill="#D9D9D9"/>
</mask>
<g mask="url(#mask0_8297_2114)">
<path d="M3.31729 8.18383V3.953H4.56729V5.92737C5.24354 5.12931 6.0534 4.50994 6.99688 4.06924C7.94021 3.62855 8.9359 3.4082 9.98396 3.4082C11.9498 3.4082 13.6218 4.0973 15 5.47549C16.3782 6.85369 17.0673 8.5257 17.0673 10.4915V10.6038H15.8173V10.4915C15.8173 8.86654 15.2513 7.48806 14.1194 6.35612C12.9874 5.22418 11.609 4.6582 9.98396 4.6582C9.07368 4.6582 8.22063 4.86043 7.42479 5.26487C6.62882 5.66918 5.9434 6.22549 5.36854 6.93383H7.54813V8.18383H3.31729ZM2.95042 11.3249H4.22604C4.40868 12.6272 4.9559 13.7304 5.86771 14.6342C6.77965 15.538 7.87132 16.0791 9.14271 16.2576L9.90229 17.5749C8.12451 17.5482 6.57215 16.9422 5.24521 15.7567C3.91826 14.5713 3.15333 13.094 2.95042 11.3249ZM11.3654 12.7272L9.38313 10.7447V6.32487H10.6329V10.2384L12.024 11.6295L11.3654 12.7272ZM15.3798 20.2832L15.1779 19.1534C14.9632 19.0947 14.7602 19.0137 14.569 18.9105C14.3777 18.8074 14.1977 18.6763 14.029 18.5172L12.9408 18.8601L12.3477 17.8601L13.2179 17.1309C13.1528 16.9077 13.1202 16.6791 13.1202 16.4451C13.1202 16.2111 13.1528 15.9771 13.2179 15.7432L12.3319 14.998L12.9408 13.982L14.0369 14.349C14.2056 14.1951 14.383 14.068 14.569 13.9676C14.7548 13.8672 14.9578 13.7849 15.1779 13.7207L15.3798 12.5909H16.5656L16.7677 13.7207C16.9931 13.7849 17.2035 13.8741 17.399 13.9884C17.5945 14.1027 17.7698 14.2395 17.9248 14.3986L19.0369 13.998L19.6298 15.0557L18.7356 15.8009C18.7953 16.0348 18.8252 16.2591 18.8252 16.4738C18.8252 16.6887 18.7953 16.8997 18.7356 17.107L19.6458 17.8601L19.0529 18.8601L17.9248 18.5011C17.7613 18.6603 17.584 18.7941 17.3927 18.9026C17.2015 19.0111 16.9931 19.0947 16.7677 19.1534L16.5656 20.2832H15.3798ZM15.9727 18.1678C16.4472 18.1678 16.8542 17.9979 17.194 17.6582C17.5337 17.3185 17.7035 16.9115 17.7035 16.4372C17.7035 15.9627 17.5337 15.5556 17.194 15.2159C16.8542 14.8762 16.4472 14.7063 15.9727 14.7063C15.4984 14.7063 15.0914 14.8762 14.7517 15.2159C14.4119 15.5556 14.2421 15.9627 14.2421 16.4372C14.2421 16.9115 14.4119 17.3185 14.7517 17.6582C15.0914 17.9979 15.4984 18.1678 15.9727 18.1678Z" fill="#1A1A1A"/>
</g>
</svg>
