<svg width="20" height="21" viewBox="0 0 20 21" fill="none" xmlns="http://www.w3.org/2000/svg">
<mask id="mask0_8297_2054" style="mask-type:alpha" maskUnits="userSpaceOnUse" x="0" y="0" width="20" height="21">
<rect y="0.491211" width="20" height="20" fill="#D9D9D9"/>
</mask>
<g mask="url(#mask0_8297_2054)">
<path d="M14.625 10.1947L11.9631 7.53283L12.8542 6.66262L14.625 8.43345L18.1667 4.89178L19.0448 5.78283L14.625 10.1947ZM7.5 10.2347C6.69792 10.2347 6.01132 9.94914 5.44021 9.37803C4.86896 8.80678 4.58333 8.12012 4.58333 7.31803C4.58333 6.51595 4.86896 5.82935 5.44021 5.25824C6.01132 4.68699 6.69792 4.40137 7.5 4.40137C8.30208 4.40137 8.98868 4.68699 9.55979 5.25824C10.131 5.82935 10.4167 6.51595 10.4167 7.31803C10.4167 8.12012 10.131 8.80678 9.55979 9.37803C8.98868 9.94914 8.30208 10.2347 7.5 10.2347ZM1.25 16.581V14.7282C1.25 14.3202 1.36083 13.9423 1.5825 13.5945C1.80417 13.2467 2.10042 12.9794 2.47125 12.7924C3.29486 12.3887 4.12576 12.0858 4.96396 11.8839C5.80215 11.6819 6.6475 11.581 7.5 11.581C8.3525 11.581 9.19785 11.6819 10.036 11.8839C10.8742 12.0858 11.7051 12.3887 12.5288 12.7924C12.8996 12.9794 13.1958 13.2467 13.4175 13.5945C13.6392 13.9423 13.75 14.3202 13.75 14.7282V16.581H1.25ZM2.5 15.331H12.5V14.7282C12.5 14.5595 12.4511 14.4032 12.3533 14.2595C12.2556 14.1159 12.1228 13.9987 11.9552 13.9078C11.2372 13.5542 10.5051 13.2863 9.75896 13.1041C9.01271 12.922 8.25972 12.831 7.5 12.831C6.74028 12.831 5.98729 12.922 5.24104 13.1041C4.49493 13.2863 3.76285 13.5542 3.04479 13.9078C2.87715 13.9987 2.74444 14.1159 2.64667 14.2595C2.54889 14.4032 2.5 14.5595 2.5 14.7282V15.331ZM7.5 8.9847C7.95833 8.9847 8.3507 8.82151 8.67708 8.49512C9.00347 8.16873 9.16667 7.77637 9.16667 7.31803C9.16667 6.8597 9.00347 6.46734 8.67708 6.14095C8.3507 5.81456 7.95833 5.65137 7.5 5.65137C7.04167 5.65137 6.64931 5.81456 6.32292 6.14095C5.99653 6.46734 5.83333 6.8597 5.83333 7.31803C5.83333 7.77637 5.99653 8.16873 6.32292 8.49512C6.64931 8.82151 7.04167 8.9847 7.5 8.9847Z" fill="#1A1A1A"/>
</g>
</svg>
