<svg width="20" height="21" viewBox="0 0 20 21" fill="none" xmlns="http://www.w3.org/2000/svg">
<mask id="mask0_8297_2162" style="mask-type:alpha" maskUnits="userSpaceOnUse" x="0" y="0" width="20" height="21">
<rect y="0.492188" width="20" height="20" fill="#D9D9D9"/>
</mask>
<g mask="url(#mask0_8297_2162)">
<path d="M12.4037 17.7685H17.2756V17.137C16.9551 16.8016 16.5835 16.5452 16.161 16.3678C15.7385 16.1905 15.2981 16.1018 14.8398 16.1018C14.3815 16.1018 13.941 16.1905 13.5183 16.3678C13.0958 16.5452 12.7243 16.8016 12.4037 17.137V17.7685ZM14.8398 15.3326C15.1602 15.3326 15.4326 15.2204 15.6571 14.996C15.8814 14.7717 15.9935 14.4992 15.9935 14.1787C15.9935 13.8583 15.8814 13.5858 15.6571 13.3614C15.4326 13.1371 15.1602 13.0249 14.8398 13.0249C14.5192 13.0249 14.2468 13.1371 14.0225 13.3614C13.7981 13.5858 13.6858 13.8583 13.6858 14.1787C13.6858 14.4992 13.7981 14.7717 14.0225 14.996C14.2468 15.2204 14.5192 15.3326 14.8398 15.3326ZM10.0096 7.99284C9.31625 7.99284 8.72625 8.23617 8.23958 8.72284C7.75291 9.20951 7.50958 9.79951 7.50958 10.4928C7.50958 11.0527 7.66368 11.5426 7.97187 11.9624C8.28021 12.3823 8.68382 12.6814 9.18271 12.8597C9.18798 12.6258 9.19812 12.4004 9.21312 12.1835C9.22812 11.9667 9.27778 11.7696 9.36208 11.5922C9.15708 11.4864 9.00541 11.3336 8.90708 11.1339C8.80875 10.934 8.75958 10.7203 8.75958 10.4928C8.75958 10.1456 8.88111 9.85048 9.12417 9.60742C9.36722 9.36437 9.66236 9.24284 10.0096 9.24284C10.2286 9.24284 10.4332 9.29756 10.6233 9.40701C10.8136 9.51659 10.9685 9.6643 11.0881 9.85013C11.2142 9.7861 11.3459 9.7402 11.4831 9.71242C11.6205 9.68464 11.7591 9.67075 11.899 9.67075H12.3606C12.196 9.18034 11.9003 8.77812 11.4735 8.46409C11.0467 8.14992 10.5587 7.99284 10.0096 7.99284ZM8.07687 18.4095L7.75958 15.871C7.53639 15.7962 7.3075 15.6916 7.07291 15.557C6.83847 15.4223 6.62882 15.278 6.44396 15.1243L4.09291 16.1178L2.17 12.7845L4.20354 11.2476C4.18437 11.1237 4.17076 10.9993 4.16271 10.8743C4.15465 10.7493 4.15062 10.6248 4.15062 10.5008C4.15062 10.3823 4.15465 10.2619 4.16271 10.1395C4.17076 10.0171 4.18437 9.88333 4.20354 9.73805L2.17 8.20117L4.09291 4.88388L6.43583 5.86951C6.6368 5.71034 6.85132 5.56478 7.07937 5.43284C7.30743 5.30089 7.53153 5.19485 7.75166 5.11471L8.07687 2.57617H11.9231L12.2404 5.12263C12.4904 5.21346 12.7166 5.31951 12.919 5.44076C13.1215 5.56201 13.3258 5.70492 13.5321 5.86951L15.9071 4.88388L17.83 8.20117L15.9952 9.59534C16.0005 9.60603 16.0031 9.61673 16.0031 9.62742C16.0031 9.63812 16.0058 9.64881 16.0112 9.65951H14.4679C14.454 9.59006 14.4415 9.52117 14.4302 9.45284C14.4191 9.38437 14.3996 9.31541 14.3719 9.24596L16.1954 7.86784L15.375 6.45117L13.2804 7.33409C13.0015 7.03603 12.6674 6.7727 12.2781 6.54409C11.8887 6.31548 11.4947 6.1536 11.0962 6.05846L10.8333 3.82617H9.17958L8.90375 6.05055C8.47861 6.15096 8.08604 6.30478 7.72604 6.51201C7.3659 6.71937 7.02236 6.98645 6.69541 7.31326L4.625 6.45117L3.80458 7.86784L5.60416 9.20909C5.53472 9.40687 5.48611 9.61256 5.45833 9.82617C5.43055 10.0398 5.41666 10.2646 5.41666 10.5008C5.41666 10.7177 5.43055 10.9303 5.45833 11.1387C5.48611 11.347 5.53208 11.5527 5.59625 11.7558L3.80458 13.1178L4.625 14.5345L6.6875 13.6595C7.02083 14.0015 7.39715 14.2865 7.81646 14.5145C8.23576 14.7426 8.68583 14.8994 9.16666 14.9849V18.4095H8.07687ZM12.1475 19.1787C11.8269 19.1787 11.5545 19.0665 11.3302 18.8422C11.1058 18.6178 10.9935 18.3453 10.9935 18.0249V12.6403C10.9935 12.3198 11.1058 12.0474 11.3302 11.823C11.5545 11.5986 11.8269 11.4864 12.1475 11.4864H17.5321C17.8525 11.4864 18.1249 11.5986 18.3494 11.823C18.5737 12.0474 18.6858 12.3198 18.6858 12.6403V18.0249C18.6858 18.3453 18.5737 18.6178 18.3494 18.8422C18.1249 19.0665 17.8525 19.1787 17.5321 19.1787H12.1475Z" fill="#1A1A1A"/>
</g>
</svg>
