<svg width="142" height="125" viewBox="0 0 142 125" fill="none" xmlns="http://www.w3.org/2000/svg">
<rect x="13" y="8" width="129" height="117" rx="14" fill="white"/>
<path d="M13 22C13 14.268 19.268 8 27 8H44V125H27C19.268 125 13 118.732 13 111V22Z" fill="#E5E5FF"/>
<circle cx="28.5" cy="30.5" r="5.5" fill="white"/>
<circle cx="28.5" cy="54.5" r="5.5" fill="white"/>
<circle cx="28.5" cy="78.5" r="5.5" fill="white"/>
<circle cx="28.5" cy="102.5" r="5.5" fill="white"/>
<rect x="56" y="46" width="67" height="6" rx="3" fill="url(#paint0_linear_9027_4761)" fill-opacity="0.2"/>
<rect x="56" y="57" width="51" height="6" rx="3" fill="url(#paint1_linear_9027_4761)" fill-opacity="0.2"/>
<g opacity="0.4">
<rect x="56" y="79" width="67" height="6" rx="3" fill="url(#paint2_linear_9027_4761)" fill-opacity="0.2"/>
<rect x="56" y="90" width="51" height="6" rx="3" fill="url(#paint3_linear_9027_4761)" fill-opacity="0.2"/>
</g>
<g clip-path="url(#clip0_9027_4761)">
<path d="M22 44C34.1503 44 44 34.1503 44 22C44 9.84974 34.1503 0 22 0C9.84974 0 0 9.84974 0 22C0 34.1503 9.84974 44 22 44Z" fill="#BEBEEF"/>
<path d="M35.6421 31.0981C35.7236 31.4287 35.7262 31.7738 35.6496 32.1055C35.573 32.4372 35.4194 32.7463 35.2013 33.0077C33.5882 34.9426 31.5696 36.4992 29.2883 37.5675C27.0069 38.6358 24.5186 39.1895 21.9996 39.1895C19.4805 39.1895 16.9922 38.6358 14.7109 37.5675C12.4295 36.4992 10.4109 34.9426 8.79784 33.0077C8.57971 32.7463 8.42615 32.4372 8.34956 32.1055C8.27298 31.7738 8.27552 31.4287 8.35698 31.0981C9.10564 28.0603 10.8464 25.359 13.3035 23.4222C13.6701 23.1349 14.1207 22.9756 14.5864 22.969C15.0521 22.9623 15.5071 23.1085 15.8817 23.3852C17.5145 24.5995 19.6552 25.3352 21.9961 25.3352C24.3371 25.3352 26.4769 24.5995 28.1106 23.3852C28.4852 23.1085 28.9402 22.9623 29.4059 22.969C29.8716 22.9756 30.3222 23.1349 30.6887 23.4222C33.1484 25.358 34.8917 28.0593 35.6421 31.0981Z" fill="white"/>
<path d="M21.9998 22.4967C26.3611 22.4967 29.8966 18.9612 29.8966 14.5999C29.8966 10.2386 26.3611 6.70312 21.9998 6.70312C17.6385 6.70312 14.103 10.2386 14.103 14.5999C14.103 18.9612 17.6385 22.4967 21.9998 22.4967Z" fill="white"/>
</g>
<path d="M58.7017 30V24.416H62.2777V25.216H59.6057V26.768H62.0297V27.568H59.6057V29.2H62.2777V30H58.7017ZM63.567 30V24.416H65.967C66.4844 24.416 66.8844 24.568 67.167 24.872C67.4497 25.176 67.591 25.584 67.591 26.096C67.591 26.608 67.4497 27.016 67.167 27.32C66.8844 27.624 66.4844 27.776 65.967 27.776H64.471V30H63.567ZM64.471 26.984H65.911C66.1404 26.984 66.319 26.9253 66.447 26.808C66.575 26.6853 66.639 26.512 66.639 26.288V25.904C66.639 25.68 66.575 25.5093 66.447 25.392C66.319 25.2693 66.1404 25.208 65.911 25.208H64.471V26.984ZM68.7058 30V24.416H72.1938V25.216H69.6098V26.768H71.9058V27.568H69.6098V30H68.7058ZM73.1525 28.888C73.3498 28.888 73.4965 28.9387 73.5925 29.04C73.6885 29.1413 73.7365 29.272 73.7365 29.432V29.56C73.7365 29.8213 73.6645 30.0933 73.5205 30.376C73.3818 30.664 73.1925 30.9067 72.9525 31.104H72.3045C72.4751 30.9333 72.6165 30.768 72.7285 30.608C72.8405 30.448 72.9258 30.2693 72.9845 30.072C72.8458 30.0453 72.7418 29.9867 72.6725 29.896C72.6031 29.8 72.5685 29.688 72.5685 29.56V29.432C72.5685 29.272 72.6165 29.1413 72.7125 29.04C72.8085 28.9387 72.9551 28.888 73.1525 28.888ZM77.1376 30V24.416H80.7136V25.216H78.0416V26.768H80.4656V27.568H78.0416V29.2H80.7136V30H77.1376ZM83.6749 30.096C83.2056 30.096 82.8056 30.0107 82.4749 29.84C82.1496 29.6693 81.8696 29.44 81.6349 29.152L82.2589 28.568C82.4563 28.808 82.6723 28.9893 82.9069 29.112C83.1469 29.2347 83.4189 29.296 83.7229 29.296C84.0803 29.296 84.3496 29.216 84.5309 29.056C84.7123 28.896 84.8029 28.68 84.8029 28.408C84.8029 28.1893 84.7389 28.016 84.6109 27.888C84.4829 27.76 84.2563 27.664 83.9309 27.6L83.4349 27.512C82.8909 27.4107 82.4829 27.232 82.2109 26.976C81.9389 26.72 81.8029 26.368 81.8029 25.92C81.8029 25.6747 81.8483 25.4533 81.9389 25.256C82.0349 25.0533 82.1656 24.8853 82.3309 24.752C82.5016 24.6133 82.7069 24.5067 82.9469 24.432C83.1869 24.3573 83.4563 24.32 83.7549 24.32C84.1763 24.32 84.5416 24.3947 84.8509 24.544C85.1603 24.688 85.4243 24.8987 85.6429 25.176L85.0109 25.736C84.8669 25.5493 84.6909 25.4 84.4829 25.288C84.2749 25.176 84.0163 25.12 83.7069 25.12C83.3869 25.12 83.1389 25.184 82.9629 25.312C82.7869 25.44 82.6989 25.6267 82.6989 25.872C82.6989 26.1067 82.7709 26.2827 82.9149 26.4C83.0589 26.512 83.2829 26.5973 83.5869 26.656L84.0829 26.76C84.6429 26.8667 85.0509 27.048 85.3069 27.304C85.5683 27.56 85.6989 27.912 85.6989 28.36C85.6989 28.6213 85.6536 28.8587 85.5629 29.072C85.4723 29.2853 85.3389 29.4693 85.1629 29.624C84.9923 29.7733 84.7816 29.8907 84.5309 29.976C84.2803 30.056 83.9949 30.096 83.6749 30.096ZM86.6673 30V29.264H87.4273V25.152H86.6673V24.416H89.0993V25.152H88.3313V29.264H89.0993V30H86.6673ZM90.8306 28.888C91.0279 28.888 91.1746 28.9387 91.2706 29.04C91.3666 29.1413 91.4146 29.272 91.4146 29.432V29.56C91.4146 29.8213 91.3426 30.0933 91.1986 30.376C91.0599 30.664 90.8706 30.9067 90.6306 31.104H89.9826C90.1532 30.9333 90.2946 30.768 90.4066 30.608C90.5186 30.448 90.6039 30.2693 90.6626 30.072C90.5239 30.0453 90.4199 29.9867 90.3506 29.896C90.2812 29.8 90.2466 29.688 90.2466 29.56V29.432C90.2466 29.272 90.2946 29.1413 90.3906 29.04C90.4866 28.9387 90.6332 28.888 90.8306 28.888ZM94.8157 30V24.416H97.2157C97.7331 24.416 98.1331 24.568 98.4157 24.872C98.6984 25.176 98.8397 25.584 98.8397 26.096C98.8397 26.608 98.6984 27.016 98.4157 27.32C98.1331 27.624 97.7331 27.776 97.2157 27.776H95.7197V30H94.8157ZM95.7197 26.984H97.1597C97.3891 26.984 97.5677 26.9253 97.6957 26.808C97.8237 26.6853 97.8877 26.512 97.8877 26.288V25.904C97.8877 25.68 97.8237 25.5093 97.6957 25.392C97.5677 25.2693 97.3891 25.208 97.1597 25.208H95.7197V26.984ZM102.026 25.216V30H101.122V25.216H99.4585V24.416H103.69V25.216H102.026ZM109.933 29.432C109.863 29.5013 109.778 29.576 109.677 29.656C109.581 29.7307 109.466 29.8027 109.333 29.872C109.205 29.936 109.055 29.9893 108.885 30.032C108.719 30.0747 108.53 30.096 108.317 30.096C108.029 30.096 107.773 30.056 107.549 29.976C107.325 29.896 107.135 29.7867 106.981 29.648C106.831 29.5093 106.717 29.3467 106.637 29.16C106.562 28.968 106.525 28.7627 106.525 28.544C106.525 28.3467 106.554 28.1707 106.613 28.016C106.677 27.856 106.759 27.7147 106.861 27.592C106.967 27.464 107.087 27.352 107.221 27.256C107.359 27.1547 107.506 27.0613 107.661 26.976C107.485 26.7893 107.335 26.5867 107.213 26.368C107.09 26.1493 107.029 25.9147 107.029 25.664C107.029 25.4773 107.063 25.3013 107.133 25.136C107.207 24.9707 107.311 24.8293 107.445 24.712C107.578 24.5893 107.738 24.4933 107.925 24.424C108.117 24.3547 108.327 24.32 108.557 24.32C108.77 24.32 108.967 24.3493 109.149 24.408C109.33 24.4667 109.487 24.5493 109.621 24.656C109.754 24.7627 109.855 24.8933 109.925 25.048C109.999 25.1973 110.037 25.3653 110.037 25.552C110.037 25.7333 110.005 25.8987 109.941 26.048C109.877 26.192 109.789 26.3253 109.677 26.448C109.565 26.5653 109.434 26.6773 109.285 26.784C109.141 26.8853 108.986 26.984 108.821 27.08L109.909 28.256C109.983 28.064 110.042 27.8613 110.085 27.648C110.127 27.4347 110.154 27.2187 110.165 27H111.357V27.736H110.813C110.733 28.1413 110.61 28.5013 110.445 28.816L111.541 30H110.453L109.933 29.432ZM108.557 25.016C108.365 25.016 108.202 25.0747 108.069 25.192C107.935 25.304 107.869 25.4533 107.869 25.64V25.704C107.869 25.8427 107.911 25.9813 107.997 26.12C108.087 26.2587 108.215 26.4187 108.381 26.6C108.605 26.4773 108.797 26.3413 108.957 26.192C109.117 26.0373 109.197 25.8613 109.197 25.664V25.6C109.197 25.4133 109.138 25.2693 109.021 25.168C108.903 25.0667 108.749 25.016 108.557 25.016ZM108.421 29.352C108.645 29.352 108.842 29.3147 109.013 29.24C109.183 29.1653 109.333 29.0613 109.461 28.928L108.101 27.464C107.898 27.576 107.733 27.7013 107.605 27.84C107.482 27.9787 107.421 28.168 107.421 28.408V28.512C107.421 28.768 107.509 28.9733 107.685 29.128C107.861 29.2773 108.106 29.352 108.421 29.352ZM114.502 30V24.416H115.406V29.2H117.678V30H114.502ZM119.292 30L117.972 24.416H118.892L119.46 27.104L119.852 28.96H119.876L120.324 27.104L120.988 24.416H121.996L122.652 27.104L123.092 28.952H123.116L123.524 27.104L124.108 24.416H124.996L123.62 30H122.604L121.892 27.112L121.476 25.416H121.46L121.036 27.112L120.308 30H119.292ZM125.998 30V24.416H129.486V25.216H126.902V26.768H129.198V27.568H126.902V30H125.998Z" fill="#444444"/>
<defs>
<linearGradient id="paint0_linear_9027_4761" x1="56" y1="49" x2="123" y2="49" gradientUnits="userSpaceOnUse">
<stop stop-color="#D9D9D9"/>
<stop offset="1" stop-color="#737373"/>
</linearGradient>
<linearGradient id="paint1_linear_9027_4761" x1="56" y1="60" x2="107" y2="60" gradientUnits="userSpaceOnUse">
<stop stop-color="#D9D9D9"/>
<stop offset="1" stop-color="#737373"/>
</linearGradient>
<linearGradient id="paint2_linear_9027_4761" x1="56" y1="82" x2="123" y2="82" gradientUnits="userSpaceOnUse">
<stop stop-color="#D9D9D9"/>
<stop offset="1" stop-color="#737373"/>
</linearGradient>
<linearGradient id="paint3_linear_9027_4761" x1="56" y1="93" x2="107" y2="93" gradientUnits="userSpaceOnUse">
<stop stop-color="#D9D9D9"/>
<stop offset="1" stop-color="#737373"/>
</linearGradient>
<clipPath id="clip0_9027_4761">
<rect width="44" height="44" fill="white"/>
</clipPath>
</defs>
</svg>
