<svg width="20" height="20" viewBox="0 0 20 20" fill="none" xmlns="http://www.w3.org/2000/svg">
<mask id="mask0_8325_6669" style="mask-type:alpha" maskUnits="userSpaceOnUse" x="0" y="0" width="20" height="20">
<rect width="20" height="20" fill="#D9D9D9"/>
</mask>
<g mask="url(#mask0_8325_6669)">
<rect width="6.4" height="6.4" transform="translate(2 2)" fill="#C4C0FF"/>
<path d="M2 2H8.66667V8.66667H2V2ZM10.8889 2H17.5556V8.66667H10.8889V2ZM2 10.8889H8.66667V17.5556H2V10.8889ZM13.5556 10.8889H14.8889V13.5556H17.5556V14.8889H14.8889V17.5556H13.5556V14.8889H10.8889V13.5556H13.5556V10.8889ZM12.2222 3.33333V7.33333H16.2222V3.33333H12.2222ZM3.33333 3.33333V7.33333H7.33333V3.33333H3.33333ZM3.33333 12.2222V16.2222H7.33333V12.2222H3.33333Z" fill="#C4C0FF"/>
<g clip-path="url(#clip0_8325_6669)">
<path d="M2.00002 2H8.66668V8.66667H2.00002V2ZM10.8889 2H17.5556V8.66667H10.8889V2ZM2.00002 10.8889H8.66668V17.5556H2.00002V10.8889ZM13.5556 10.8889H14.8889V13.5556H17.5556V14.8889H14.8889V17.5556H13.5556V14.8889H10.8889V13.5556H13.5556V10.8889ZM12.2222 3.33333L16.4 3.06667L16.2222 7.33333V3.33333H12.2222ZM3.33335 3.33333V7.33333H7.33335V3.33333H3.33335ZM3.33335 12.2222V16.2222H7.33335L2.53335 16.9333L3.33335 12.2222Z" fill="#6666F2"/>
</g>
<g clip-path="url(#clip1_8325_6669)">
<path d="M2 2H8.66667V8.66667H2V2ZM10.8889 2H17.5556V8.66667H10.8889V2ZM2 10.8889H8.66667V17.5556H2V10.8889ZM13.5556 10.8889H14.8889V13.5556H17.5556V14.8889H14.8889V17.5556H13.5556V14.8889H10.8889V13.5556H13.5556V10.8889ZM12.2222 3.33333L16.4 3.06667L16.2222 7.33333V3.33333H12.2222ZM3.33333 3.33333V7.33333H7.33333V3.33333H3.33333ZM3.33333 12.2222V16.2222H7.33333L2.53333 16.9333L3.33333 12.2222Z" fill="#6666F2"/>
</g>
</g>
<defs>
<clipPath id="clip0_8325_6669">
<rect width="7.46667" height="16" fill="white" transform="translate(10.5333 2)"/>
</clipPath>
<clipPath id="clip1_8325_6669">
<rect width="7.46667" height="7.46667" fill="white" transform="translate(2 10.5332)"/>
</clipPath>
</defs>
</svg>
