<svg width="20" height="20" viewBox="0 0 20 20" fill="none" xmlns="http://www.w3.org/2000/svg">
<mask id="mask0_8435_1145" style="mask-type:alpha" maskUnits="userSpaceOnUse" x="0" y="0" width="20" height="20">
<rect width="20" height="20" fill="#D9D9D9"/>
</mask>
<g mask="url(#mask0_8435_1145)">
<path d="M1.49854 16.0897V14.237C1.49854 13.8076 1.60937 13.4243 1.83104 13.0872C2.0527 12.7502 2.34874 12.4879 2.71916 12.3006C3.5111 11.9132 4.30742 11.6145 5.10812 11.4045C5.90895 11.1947 6.78902 11.0897 7.74833 11.0897C8.70777 11.0897 9.58784 11.1947 10.3885 11.4045C11.1894 11.6145 11.9858 11.9132 12.7777 12.3006C13.1481 12.4879 13.4442 12.7502 13.6658 13.0872C13.8875 13.4243 13.9983 13.8076 13.9983 14.237V16.0897H1.49854ZM15.665 16.0897V14.1345C15.665 13.5876 15.5311 13.0663 15.2633 12.5706C14.9954 12.075 14.6154 11.6498 14.1233 11.2949C14.6821 11.3783 15.2126 11.5072 15.7148 11.6818C16.2169 11.8565 16.696 12.063 17.1523 12.3012C17.5828 12.5309 17.9153 12.8017 18.1498 13.1135C18.3842 13.4252 18.5015 13.7655 18.5015 14.1345V16.0897H15.665ZM7.74833 9.74349C6.94624 9.74349 6.25965 9.45793 5.68854 8.88682C5.11742 8.31557 4.83187 7.62891 4.83187 6.82682C4.83187 6.02474 5.11742 5.33814 5.68854 4.76703C6.25965 4.19578 6.94624 3.91016 7.74833 3.91016C8.55041 3.91016 9.23708 4.19578 9.80833 4.76703C10.3794 5.33814 10.665 6.02474 10.665 6.82682C10.665 7.62891 10.3794 8.31557 9.80833 8.88682C9.23708 9.45793 8.55041 9.74349 7.74833 9.74349ZM14.9437 6.82682C14.9437 7.62891 14.6582 8.31557 14.0871 8.88682C13.516 9.45793 12.8294 9.74349 12.0273 9.74349C11.9333 9.74349 11.8136 9.73279 11.6683 9.71141C11.5229 9.69002 11.4033 9.66654 11.3094 9.64099C11.638 9.24585 11.8906 8.80752 12.0671 8.32599C12.2435 7.84446 12.3317 7.34446 12.3317 6.82599C12.3317 6.30738 12.2417 5.80925 12.0617 5.33161C11.8817 4.85411 11.6309 4.41453 11.3094 4.01286C11.429 3.97009 11.5486 3.94231 11.6683 3.92953C11.7879 3.91661 11.9076 3.91016 12.0273 3.91016C12.8294 3.91016 13.516 4.19578 14.0871 4.76703C14.6582 5.33814 14.9437 6.02474 14.9437 6.82682ZM2.74833 14.8397H12.7483V14.237C12.7483 14.063 12.7048 13.9081 12.6177 13.7724C12.5308 13.6368 12.3927 13.5181 12.2035 13.4166C11.5177 13.063 10.8115 12.7951 10.085 12.6129C9.35847 12.4308 8.57958 12.3397 7.74833 12.3397C6.91722 12.3397 6.1384 12.4308 5.41187 12.6129C4.68534 12.7951 3.97916 13.063 3.29333 13.4166C3.10416 13.5181 2.96604 13.6368 2.87895 13.7724C2.79187 13.9081 2.74833 14.063 2.74833 14.237V14.8397ZM7.74833 8.49349C8.20666 8.49349 8.59902 8.3303 8.92541 8.00391C9.2518 7.67752 9.41499 7.28516 9.41499 6.82682C9.41499 6.36849 9.2518 5.97613 8.92541 5.64974C8.59902 5.32335 8.20666 5.16016 7.74833 5.16016C7.28999 5.16016 6.89763 5.32335 6.57124 5.64974C6.24486 5.97613 6.08166 6.36849 6.08166 6.82682C6.08166 7.28516 6.24486 7.67752 6.57124 8.00391C6.89763 8.3303 7.28999 8.49349 7.74833 8.49349Z" fill="#1A1A1A"/>
</g>
<mask id="mask1_8435_1145" style="mask-type:alpha" maskUnits="userSpaceOnUse" x="1" y="11" width="14" height="6">
<rect x="1" y="11" width="14" height="6" fill="#6666F2"/>
</mask>
<g mask="url(#mask1_8435_1145)">
<path d="M1.49854 16.0898V14.2371C1.49854 13.8077 1.60937 13.4244 1.83104 13.0873C2.0527 12.7503 2.34874 12.488 2.71916 12.3007C3.5111 11.9133 4.30742 11.6146 5.10812 11.4046C5.90895 11.1948 6.78902 11.0898 7.74833 11.0898C8.70777 11.0898 9.58784 11.1948 10.3885 11.4046C11.1894 11.6146 11.9858 11.9133 12.7777 12.3007C13.1481 12.488 13.4442 12.7503 13.6658 13.0873C13.8875 13.4244 13.9983 13.8077 13.9983 14.2371V16.0898H1.49854ZM2.74833 14.8398H12.7483V14.2371C12.7483 14.0631 12.7048 13.9082 12.6177 13.7726C13.5877 14.2371 13.1892 15.6015 13 15.5C12.3142 15.1464 12.2265 15.6822 11.5 15.5C10.7735 15.3179 8.83125 14.8398 8 14.8398C7.16889 14.8398 6.22653 14.8179 5.5 15C4.77347 15.1822 4.18583 15.1464 3.5 15.5C3.31083 15.6015 3.08708 14.8643 3 15C3 16.8439 2.71916 14.8924 2.71916 15.0664L2.74833 14.8398Z" fill="#6666F2"/>
</g>
<mask id="mask2_8435_1145" style="mask-type:alpha" maskUnits="userSpaceOnUse" x="4" y="3" width="7" height="7">
<rect x="4" y="3" width="7" height="7" fill="#D9D9D9"/>
</mask>
<g mask="url(#mask2_8435_1145)">
<path d="M7.74834 9.74349C6.94625 9.74349 6.25966 9.45793 5.68855 8.88682C5.11743 8.31557 4.83188 7.62891 4.83188 6.82682C4.83188 6.02474 5.11743 5.33814 5.68855 4.76703C6.25966 4.19578 6.94625 3.91016 7.74834 3.91016C8.55042 3.91016 9.23709 4.19578 9.80834 4.76703C10.3794 5.33814 10.665 6.02474 10.665 6.82682C10.665 7.62891 10.3794 8.31557 9.80834 8.88682C9.23709 9.45793 8.55042 9.74349 7.74834 9.74349ZM7.74834 8.49349C8.20667 8.49349 8.59903 8.3303 8.92542 8.00391C9.25181 7.67752 9.415 7.28516 9.415 6.82682C9.415 6.36849 10.1347 8.40987 9.80834 8.08348C9.48195 7.75709 8.92216 8.88682 8.46383 8.88682C8.00549 8.88682 7.32642 8.67361 7.00003 9C6.67364 9.32639 6.08167 6.36849 6.08167 6.82682C7.00003 7 6.24487 7.67752 6.57125 8.00391C6.89764 8.3303 7.29 8.49349 7.74834 8.49349Z" fill="#C4C0FF"/>
</g>
<g clip-path="url(#clip0_8435_1145)">
<mask id="mask3_8435_1145" style="mask-type:alpha" maskUnits="userSpaceOnUse" x="0" y="0" width="20" height="20">
<rect width="20" height="20" fill="#D9D9D9"/>
</mask>
<g mask="url(#mask3_8435_1145)">
<path d="M15.665 16.0897V14.1345C15.665 13.5876 15.5311 13.0663 15.2634 12.5706C14.9954 12.075 14.6154 11.6498 14.1234 11.2949C14.6821 11.3783 15.2126 11.5072 15.7148 11.6818C16.2169 11.8565 16.6961 12.063 17.1523 12.3012C17.5829 12.5309 17.9154 12.8017 18.1498 13.1135C18.3843 13.4252 18.5015 13.7655 18.5015 14.1345V16.0897H15.665ZM14.9438 6.82682C14.9438 7.62891 14.6582 8.31557 14.0871 8.88682C13.516 9.45793 12.8294 9.74349 12.0273 9.74349C11.9333 9.74349 11.8136 9.73279 11.6684 9.71141C11.5229 9.69002 11.4033 9.66654 11.3094 9.64099C11.638 9.24585 11.8906 8.80752 12.0671 8.32599C12.2435 7.84446 12.3317 7.34446 12.3317 6.82599C12.3317 6.30738 12.2417 5.80925 12.0617 5.33161C11.8817 4.85411 11.6309 4.41453 11.3094 4.01286C11.429 3.97009 11.5486 3.94231 11.6684 3.92953C11.7879 3.91661 11.9076 3.91016 12.0273 3.91016C12.8294 3.91016 13.516 4.19578 14.0871 4.76703C14.6582 5.33814 14.9438 6.02474 14.9438 6.82682Z" fill="#6666F2"/>
</g>
</g>
<defs>
<clipPath id="clip0_8435_1145">
<rect width="8" height="14" fill="white" transform="translate(11 3)"/>
</clipPath>
</defs>
</svg>
