<svg width="20" height="21" viewBox="0 0 20 21" fill="none" xmlns="http://www.w3.org/2000/svg">
<mask id="mask0_8297_2042" style="mask-type:alpha" maskUnits="userSpaceOnUse" x="0" y="0" width="20" height="21">
<rect y="0.491211" width="20" height="20" fill="#D9D9D9"/>
</mask>
<g mask="url(#mask0_8297_2042)">
<path d="M1.49854 16.581V14.7282C1.49854 14.2988 1.60938 13.9155 1.83104 13.5785C2.05271 13.2414 2.34875 12.9791 2.71917 12.7918C3.51111 12.4044 4.30743 12.1057 5.10813 11.8957C5.90896 11.6859 6.78903 11.581 7.74834 11.581C8.70778 11.581 9.58785 11.6859 10.3885 11.8957C11.1894 12.1057 11.9858 12.4044 12.7777 12.7918C13.1481 12.9791 13.4442 13.2414 13.6658 13.5785C13.8875 13.9155 13.9983 14.2988 13.9983 14.7282V16.581H1.49854ZM15.665 16.581V14.6257C15.665 14.0788 15.5311 13.5575 15.2633 13.0618C14.9954 12.5662 14.6154 12.141 14.1233 11.7862C14.6821 11.8695 15.2126 11.9985 15.7148 12.173C16.2169 12.3478 16.696 12.5542 17.1523 12.7924C17.5829 13.0221 17.9154 13.2929 18.1498 13.6047C18.3842 13.9164 18.5015 14.2567 18.5015 14.6257V16.581H15.665ZM7.74834 10.2347C6.94625 10.2347 6.25965 9.94914 5.68854 9.37803C5.11743 8.80678 4.83188 8.12012 4.83188 7.31803C4.83188 6.51595 5.11743 5.82935 5.68854 5.25824C6.25965 4.68699 6.94625 4.40137 7.74834 4.40137C8.55042 4.40137 9.23709 4.68699 9.80834 5.25824C10.3794 5.82935 10.665 6.51595 10.665 7.31803C10.665 8.12012 10.3794 8.80678 9.80834 9.37803C9.23709 9.94914 8.55042 10.2347 7.74834 10.2347ZM14.9438 7.31803C14.9438 8.12012 14.6582 8.80678 14.0871 9.37803C13.516 9.94914 12.8294 10.2347 12.0273 10.2347C11.9333 10.2347 11.8136 10.224 11.6683 10.2026C11.5229 10.1812 11.4033 10.1578 11.3094 10.1322C11.638 9.73706 11.8906 9.29873 12.0671 8.8172C12.2435 8.33567 12.3317 7.83567 12.3317 7.3172C12.3317 6.79859 12.2417 6.30046 12.0617 5.82283C11.8817 5.34533 11.6309 4.90574 11.3094 4.50408C11.429 4.4613 11.5486 4.43352 11.6683 4.42074C11.7879 4.40783 11.9076 4.40137 12.0273 4.40137C12.8294 4.40137 13.516 4.68699 14.0871 5.25824C14.6582 5.82935 14.9438 6.51595 14.9438 7.31803ZM2.74833 15.331H12.7483V14.7282C12.7483 14.5542 12.7048 14.3994 12.6177 14.2637C12.5308 14.128 12.3927 14.0094 12.2035 13.9078C11.5177 13.5542 10.8115 13.2863 10.085 13.1041C9.35847 12.922 8.57959 12.831 7.74834 12.831C6.91722 12.831 6.1384 12.922 5.41188 13.1041C4.68535 13.2863 3.97917 13.5542 3.29333 13.9078C3.10417 14.0094 2.96604 14.128 2.87896 14.2637C2.79188 14.3994 2.74833 14.5542 2.74833 14.7282V15.331ZM7.74834 8.9847C8.20667 8.9847 8.59903 8.82151 8.92542 8.49512C9.25181 8.16873 9.415 7.77637 9.415 7.31803C9.415 6.8597 9.25181 6.46734 8.92542 6.14095C8.59903 5.81456 8.20667 5.65137 7.74834 5.65137C7.29 5.65137 6.89764 5.81456 6.57125 6.14095C6.24486 6.46734 6.08167 6.8597 6.08167 7.31803C6.08167 7.77637 6.24486 8.16873 6.57125 8.49512C6.89764 8.82151 7.29 8.9847 7.74834 8.9847Z" fill="#1A1A1A"/>
</g>
</svg>
