<svg width="20" height="20" viewBox="0 0 20 20" fill="none" xmlns="http://www.w3.org/2000/svg">
<path d="M6.5 5L5 6.5V10.5L6.5 12H15L17 10.5V6.5L15 5H6.5Z" fill="#C4C0FF" stroke="#C4C0FF" stroke-width="0.5"/>
<mask id="mask0_8325_6792" style="mask-type:alpha" maskUnits="userSpaceOnUse" x="0" y="0" width="20" height="20">
<rect width="20" height="20" fill="#D9D9D9"/>
</mask>
<g mask="url(#mask0_8325_6792)">
<path d="M11.4583 10.5933C10.8761 10.5933 10.3833 10.3917 9.98 9.98835C9.57667 9.58501 9.375 9.09224 9.375 8.51001C9.375 7.92779 9.57667 7.43501 9.98 7.03168C10.3833 6.62835 10.8761 6.42668 11.4583 6.42668C12.0406 6.42668 12.5333 6.62835 12.9367 7.03168C13.34 7.43501 13.5417 7.92779 13.5417 8.51001C13.5417 9.09224 13.34 9.58501 12.9367 9.98835C12.5333 10.3917 12.0406 10.5933 11.4583 10.5933ZM5.96146 13.1736C5.54729 13.1736 5.19271 13.0261 4.89771 12.7311C4.60271 12.4361 4.45521 12.0814 4.45521 11.6671V5.35293C4.45521 4.93876 4.60271 4.58418 4.89771 4.28918C5.19271 3.99418 5.54729 3.84668 5.96146 3.84668H16.955C17.3693 3.84668 17.724 3.99418 18.019 4.28918C18.314 4.58418 18.4615 4.93876 18.4615 5.35293V11.6671C18.4615 12.0814 18.314 12.4361 18.019 12.7311C17.724 13.0261 17.3693 13.1736 16.955 13.1736H5.96146ZM7.21146 11.9236H15.7052C15.7052 11.508 15.8527 11.153 16.1477 10.8586C16.4427 10.5642 16.7973 10.4171 17.2115 10.4171V6.60293C16.7959 6.60293 16.441 6.45543 16.1467 6.16043C15.8524 5.86543 15.7052 5.51085 15.7052 5.09668H7.21146C7.21146 5.51224 7.06396 5.86717 6.76896 6.16147C6.47396 6.45578 6.11938 6.60293 5.70521 6.60293V10.4171C6.12077 10.4171 6.4757 10.5646 6.77 10.8596C7.06431 11.1546 7.21146 11.5092 7.21146 11.9236ZM15.9775 16.0902H3.045C2.6307 16.0902 2.27604 15.9427 1.98104 15.6477C1.68604 15.3527 1.53854 14.9981 1.53854 14.5838V6.33064H2.78854V14.5838C2.78854 14.6478 2.81521 14.7065 2.86854 14.76C2.92202 14.8135 2.98084 14.8402 3.045 14.8402H15.9775V16.0902ZM5.96146 11.9236H5.70521V5.09668H5.96146C5.89202 5.09668 5.83195 5.12203 5.78125 5.17272C5.73056 5.22342 5.70521 5.28349 5.70521 5.35293V11.6671C5.70521 11.7365 5.73056 11.7966 5.78125 11.8473C5.83195 11.8981 5.89202 11.9236 5.96146 11.9236Z" fill="#6666F2"/>
</g>
</svg>
