<svg width="20" height="21" viewBox="0 0 20 21" fill="none" xmlns="http://www.w3.org/2000/svg">
<mask id="mask0_8297_2096" style="mask-type:alpha" maskUnits="userSpaceOnUse" x="0" y="0" width="20" height="21">
<rect y="0.491211" width="20" height="20" fill="#D9D9D9"/>
</mask>
<g mask="url(#mask0_8297_2096)">
<path d="M11.4583 11.0846C10.8761 11.0846 10.3833 10.8829 9.98 10.4796C9.57666 10.0762 9.375 9.58345 9.375 9.00122C9.375 8.419 9.57666 7.92622 9.98 7.52289C10.3833 7.11956 10.8761 6.91789 11.4583 6.91789C12.0406 6.91789 12.5333 7.11956 12.9367 7.52289C13.34 7.92622 13.5417 8.419 13.5417 9.00122C13.5417 9.58345 13.34 10.0762 12.9367 10.4796C12.5333 10.8829 12.0406 11.0846 11.4583 11.0846ZM5.96146 13.6648C5.54729 13.6648 5.19271 13.5173 4.89771 13.2223C4.60271 12.9273 4.45521 12.5726 4.45521 12.1583V5.84414C4.45521 5.42997 4.60271 5.07539 4.89771 4.78039C5.19271 4.48539 5.54729 4.33789 5.96146 4.33789H16.955C17.3693 4.33789 17.724 4.48539 18.019 4.78039C18.314 5.07539 18.4615 5.42997 18.4615 5.84414V12.1583C18.4615 12.5726 18.314 12.9273 18.019 13.2223C17.724 13.5173 17.3693 13.6648 16.955 13.6648H5.96146ZM7.21146 12.4148H15.7052C15.7052 11.9992 15.8527 11.6442 16.1477 11.3498C16.4427 11.0555 16.7973 10.9083 17.2115 10.9083V7.09414C16.7959 7.09414 16.441 6.94664 16.1467 6.65164C15.8524 6.35664 15.7052 6.00206 15.7052 5.58789H7.21146C7.21146 6.00345 7.06396 6.35838 6.76896 6.65268C6.47396 6.94699 6.11937 7.09414 5.70521 7.09414V10.9083C6.12076 10.9083 6.47569 11.0558 6.77 11.3508C7.0643 11.6458 7.21146 12.0005 7.21146 12.4148ZM15.9775 16.5814H3.045C2.63069 16.5814 2.27604 16.4339 1.98104 16.1389C1.68604 15.8439 1.53854 15.4893 1.53854 15.075V6.82185H2.78854V15.075C2.78854 15.139 2.81521 15.1978 2.86854 15.2512C2.92201 15.3047 2.98083 15.3314 3.045 15.3314H15.9775V16.5814ZM5.96146 12.4148H5.70521V5.58789H5.96146C5.89201 5.58789 5.83194 5.61324 5.78125 5.66393C5.73055 5.71463 5.70521 5.7747 5.70521 5.84414V12.1583C5.70521 12.2278 5.73055 12.2878 5.78125 12.3385C5.83194 12.3893 5.89201 12.4148 5.96146 12.4148Z" fill="#1A1A1A"/>
</g>
</svg>
