<svg width="133" height="76" viewBox="0 0 133 76" fill="none" xmlns="http://www.w3.org/2000/svg">
<path d="M89.5808 19.6323C90.426 17.8105 89.6377 15.6379 87.7693 14.9017C84.8127 13.7368 81.7703 12.8024 78.6694 12.107C76.7099 11.6675 74.838 13.0232 74.5149 15.0052C74.1919 16.9873 75.5406 18.8438 77.4966 19.2987C79.9472 19.8687 82.3552 20.6082 84.7033 21.512C86.5775 22.2334 88.7357 21.454 89.5808 19.6323Z" fill="#5ECED8"/>
<path d="M119.679 52.462C121.567 51.7779 122.553 49.6876 121.758 47.8431C120.225 44.2818 118.358 40.8733 116.184 37.6629C115.057 36.0002 112.765 35.7052 111.172 36.9276C109.578 38.15 109.289 40.4263 110.402 42.0978C112.138 44.7054 113.646 47.4584 114.908 50.3259C115.717 52.164 117.79 53.146 119.679 52.462Z" fill="#EE7C6D"/>
<path d="M123.078 74.9694C125.084 75.0653 126.799 73.516 126.777 71.5079C126.715 66.0332 125.923 60.591 124.423 55.3255C123.873 53.3942 121.787 52.3977 119.892 53.061C117.996 53.7243 117.01 55.7962 117.545 57.7318C118.755 62.1088 119.411 66.6204 119.498 71.1607C119.537 73.1685 121.072 74.8736 123.078 74.9694Z" fill="#86448D"/>
<path d="M110.259 35.7687C111.821 34.5062 112.071 32.2085 110.718 30.724C106.476 26.0674 101.544 22.0891 96.0947 18.9283C94.3576 17.9207 92.165 18.6516 91.2616 20.4452C90.3582 22.2387 91.0872 24.4145 92.8163 25.4359C97.3519 28.115 101.474 31.4398 105.052 35.3056C106.417 36.7794 108.697 37.0312 110.259 35.7687Z" fill="#4496AC"/>
<path d="M72.4737 14.7097C72.7261 12.7174 71.3155 10.8865 69.3118 10.7522C63.6555 10.3729 57.9737 10.7765 52.4278 11.9514C50.4632 12.3676 49.3256 14.3795 49.857 16.3161C50.3884 18.2527 52.3875 19.3792 54.3554 18.9785C58.9727 18.0385 63.6929 17.7032 68.3968 17.9812C70.4015 18.0997 72.2214 16.702 72.4737 14.7097Z" fill="#3C887C"/>
<path d="M48.7236 16.8194C48.1322 14.9002 46.0923 13.8135 44.2114 14.5171C38.2011 16.7653 32.5789 19.9391 27.5487 23.9233C25.9744 25.1702 25.8508 27.4782 27.1884 28.9761C28.5261 30.474 30.8176 30.5933 32.4016 29.3589C36.6385 26.0572 41.3418 23.4021 46.3577 21.4806C48.2331 20.7622 49.3149 18.7386 48.7236 16.8194Z" fill="#327DD1"/>
<path d="M25.7683 30.2871C24.3815 28.8346 22.0711 28.7743 20.7029 30.2444C18.1901 32.9445 15.9249 35.865 13.9346 38.9705C12.8511 40.6613 13.4842 42.8841 15.236 43.866C16.9878 44.8479 19.1937 44.2161 20.2906 42.5339C21.9108 40.0493 23.7318 37.7015 25.7354 35.5142C27.0918 34.0334 27.1551 31.7396 25.7683 30.2871Z" fill="#47539F"/>
<path d="M14.6426 44.9515C12.8703 44.0072 10.6574 44.6746 9.81932 46.4995C6.23235 54.3102 4.3198 62.7861 4.20511 71.3803C4.17831 73.3883 5.8902 74.9413 7.89632 74.8495C9.90244 74.7578 11.4416 73.0559 11.4843 71.0482C11.6392 63.759 13.2603 56.5747 16.2505 49.9253C17.0742 48.0938 16.415 45.8958 14.6426 44.9515Z" fill="#CA365F"/>
<path d="M56.1379 66L73.0084 41.6702H77.6094L60.7389 66H56.1379ZM57.9155 55.0551C55.8706 55.0551 54.3137 54.4741 53.2448 53.3122C52.1758 52.1504 51.6414 50.4308 51.6414 48.1535C51.6414 45.8762 52.1758 44.1566 53.2448 42.9947C54.3137 41.8329 55.8706 41.2519 57.9155 41.2519C59.9605 41.2519 61.5174 41.8329 62.5863 42.9947C63.6552 44.1566 64.1897 45.8762 64.1897 48.1535C64.1897 50.4308 63.6552 52.1504 62.5863 53.3122C61.5174 54.4741 59.9605 55.0551 57.9155 55.0551ZM57.9155 52.0574C58.5197 52.0574 58.9729 51.825 59.2749 51.3603C59.577 50.8723 59.7281 50.1055 59.7281 49.0598V47.2472C59.7281 46.2015 59.577 45.4463 59.2749 44.9816C58.9729 44.4936 58.5197 44.2496 57.9155 44.2496C57.3114 44.2496 56.8582 44.4936 56.5561 44.9816C56.2541 45.4463 56.103 46.2015 56.103 47.2472V49.0598C56.103 50.1055 56.2541 50.8723 56.5561 51.3603C56.8582 51.825 57.3114 52.0574 57.9155 52.0574ZM75.8318 66.4183C73.7869 66.4183 72.2299 65.8373 71.161 64.6755C70.0921 63.5136 69.5576 61.794 69.5576 59.5167C69.5576 57.2394 70.0921 55.5198 71.161 54.3579C72.2299 53.1961 73.7869 52.6151 75.8318 52.6151C77.8767 52.6151 79.4336 53.1961 80.5025 54.3579C81.5715 55.5198 82.1059 57.2394 82.1059 59.5167C82.1059 61.794 81.5715 63.5136 80.5025 64.6755C79.4336 65.8373 77.8767 66.4183 75.8318 66.4183ZM75.8318 63.4206C76.4359 63.4206 76.8891 63.1882 77.1912 62.7235C77.4933 62.2355 77.6443 61.4687 77.6443 60.423V58.6104C77.6443 57.5647 77.4933 56.8095 77.1912 56.3448C76.8891 55.8568 76.4359 55.6128 75.8318 55.6128C75.2276 55.6128 74.7745 55.8568 74.4724 56.3448C74.1703 56.8095 74.0192 57.5647 74.0192 58.6104V60.423C74.0192 61.4687 74.1703 62.2355 74.4724 62.7235C74.7745 63.1882 75.2276 63.4206 75.8318 63.4206Z" fill="#242424"/>
</svg>
