<svg width="20" height="21" viewBox="0 0 20 21" fill="none" xmlns="http://www.w3.org/2000/svg">
<mask id="mask0_8297_2066" style="mask-type:alpha" maskUnits="userSpaceOnUse" x="0" y="0" width="20" height="21">
<rect y="0.491211" width="20" height="20" fill="#D9D9D9"/>
</mask>
<g mask="url(#mask0_8297_2066)">
<path d="M11.2227 14.9861H12.7579L12.766 14.9236L9.43271 11.3644L9.45354 11.3034H9.66187C10.444 11.3034 11.0869 11.0849 11.5906 10.648C12.0942 10.211 12.391 9.66561 12.4808 9.01172H13.2981V8.18484H12.4587C12.4179 7.93373 12.336 7.70109 12.2131 7.48693C12.0902 7.27262 11.9364 7.07519 11.7517 6.89464H13.2981V6.06776H6.70187V7.02297H9.65542C10.1074 7.02297 10.4786 7.12929 10.7692 7.34193C11.0599 7.55443 11.2469 7.8354 11.3302 8.18484H6.70187V9.01172H11.351C11.2784 9.39102 11.0933 9.70005 10.7956 9.9388C10.4981 10.1776 10.1052 10.2969 9.61687 10.2969H7.88625V11.3659L11.2227 14.9861ZM10.0015 18.4076C8.90646 18.4076 7.87722 18.1998 6.91375 17.7842C5.95028 17.3687 5.11222 16.8047 4.39958 16.0923C3.68694 15.38 3.12271 14.5423 2.70687 13.5792C2.29118 12.6162 2.08333 11.5872 2.08333 10.4923C2.08333 9.39734 2.29111 8.36811 2.70667 7.40463C3.12222 6.44116 3.68618 5.60311 4.39854 4.89047C5.1109 4.17783 5.94861 3.61359 6.91167 3.19776C7.87472 2.78207 8.90368 2.57422 9.99854 2.57422C11.0935 2.57422 12.1228 2.782 13.0862 3.19755C14.0497 3.61311 14.8878 4.17707 15.6004 4.88943C16.3131 5.60179 16.8773 6.4395 17.2931 7.40255C17.7088 8.36561 17.9167 9.39457 17.9167 10.4894C17.9167 11.5844 17.7089 12.6137 17.2933 13.5771C16.8778 14.5406 16.3138 15.3787 15.6015 16.0913C14.8891 16.8039 14.0514 17.3682 13.0883 17.784C12.1253 18.1997 11.0963 18.4076 10.0015 18.4076ZM10 17.1576C11.8611 17.1576 13.4375 16.5117 14.7292 15.2201C16.0208 13.9284 16.6667 12.352 16.6667 10.4909C16.6667 8.62977 16.0208 7.05339 14.7292 5.76172C13.4375 4.47005 11.8611 3.82422 10 3.82422C8.13889 3.82422 6.5625 4.47005 5.27083 5.76172C3.97917 7.05339 3.33333 8.62977 3.33333 10.4909C3.33333 12.352 3.97917 13.9284 5.27083 15.2201C6.5625 16.5117 8.13889 17.1576 10 17.1576Z" fill="#1A1A1A"/>
</g>
</svg>
