<svg width="409" height="199" viewBox="0 0 409 199" fill="none" xmlns="http://www.w3.org/2000/svg">
<path opacity="0.5" d="M20.6177 8.15059H20.5577L19.8977 9.50659L18.0617 12.8546L16.2257 9.50659L15.5657 8.15059H15.5057V14.5586H14.2097V6.18259H15.8177L18.0617 10.4426H18.1337L20.3777 6.18259H21.9137V14.5586H20.6177V8.15059ZM26.3352 14.7026C25.9032 14.7026 25.5072 14.6266 25.1472 14.4746C24.7952 14.3226 24.4952 14.1066 24.2472 13.8266C23.9992 13.5386 23.8072 13.1946 23.6712 12.7946C23.5352 12.3866 23.4672 11.9346 23.4672 11.4386C23.4672 10.9426 23.5352 10.4946 23.6712 10.0946C23.8072 9.68659 23.9992 9.34259 24.2472 9.06259C24.4952 8.77459 24.7952 8.55459 25.1472 8.40259C25.5072 8.25059 25.9032 8.17459 26.3352 8.17459C26.7672 8.17459 27.1592 8.25059 27.5112 8.40259C27.8712 8.55459 28.1752 8.77459 28.4232 9.06259C28.6712 9.34259 28.8632 9.68659 28.9992 10.0946C29.1352 10.4946 29.2032 10.9426 29.2032 11.4386C29.2032 11.9346 29.1352 12.3866 28.9992 12.7946C28.8632 13.1946 28.6712 13.5386 28.4232 13.8266C28.1752 14.1066 27.8712 14.3226 27.5112 14.4746C27.1592 14.6266 26.7672 14.7026 26.3352 14.7026ZM26.3352 13.6226C26.7832 13.6226 27.1432 13.4866 27.4152 13.2146C27.6872 12.9346 27.8232 12.5186 27.8232 11.9666V10.9106C27.8232 10.3586 27.6872 9.94659 27.4152 9.67459C27.1432 9.39459 26.7832 9.25459 26.3352 9.25459C25.8872 9.25459 25.5272 9.39459 25.2552 9.67459C24.9832 9.94659 24.8472 10.3586 24.8472 10.9106V11.9666C24.8472 12.5186 24.9832 12.9346 25.2552 13.2146C25.5272 13.4866 25.8872 13.6226 26.3352 13.6226ZM30.6606 14.5586V8.31859H31.9686V9.35059H32.0286C32.1646 9.01459 32.3686 8.73459 32.6406 8.51059C32.9206 8.28659 33.3006 8.17459 33.7806 8.17459C34.4206 8.17459 34.9166 8.38659 35.2686 8.81059C35.6286 9.22659 35.8086 9.82259 35.8086 10.5986V14.5586H34.5006V10.7666C34.5006 9.79059 34.1086 9.30259 33.3246 9.30259C33.1566 9.30259 32.9886 9.32659 32.8206 9.37459C32.6606 9.41459 32.5166 9.47859 32.3886 9.56659C32.2606 9.65459 32.1566 9.76659 32.0766 9.90259C32.0046 10.0386 31.9686 10.1986 31.9686 10.3826V14.5586H30.6606Z" fill="black"/>
<path opacity="0.7" d="M19.3431 36.6309V35.5029H21.6951V29.2389H21.5991L19.6551 31.3149L18.8271 30.5709L20.9631 28.2549H23.0271V35.5029H25.0671V36.6309H19.3431ZM29.0824 36.7749C28.5624 36.7749 28.1104 36.6789 27.7264 36.4869C27.3424 36.2869 27.0264 36.0029 26.7784 35.6349C26.5304 35.2669 26.3464 34.8149 26.2264 34.2789C26.1064 33.7429 26.0464 33.1309 26.0464 32.4429C26.0464 31.7629 26.1064 31.1549 26.2264 30.6189C26.3464 30.0749 26.5304 29.6189 26.7784 29.2509C27.0264 28.8829 27.3424 28.6029 27.7264 28.4109C28.1104 28.2109 28.5624 28.1109 29.0824 28.1109C30.1224 28.1109 30.8864 28.4909 31.3744 29.2509C31.8704 30.0109 32.1184 31.0749 32.1184 32.4429C32.1184 33.8109 31.8704 34.8749 31.3744 35.6349C30.8864 36.3949 30.1224 36.7749 29.0824 36.7749ZM29.0824 35.6229C29.3704 35.6229 29.6144 35.5669 29.8144 35.4549C30.0224 35.3349 30.1904 35.1669 30.3184 34.9509C30.4464 34.7349 30.5384 34.4789 30.5944 34.1829C30.6504 33.8789 30.6784 33.5429 30.6784 33.1749V31.7109C30.6784 31.3429 30.6504 31.0109 30.5944 30.7149C30.5384 30.4109 30.4464 30.1509 30.3184 29.9349C30.1904 29.7189 30.0224 29.5549 29.8144 29.4429C29.6144 29.3229 29.3704 29.2629 29.0824 29.2629C28.7944 29.2629 28.5464 29.3229 28.3384 29.4429C28.1384 29.5549 27.9744 29.7189 27.8464 29.9349C27.7184 30.1509 27.6264 30.4109 27.5704 30.7149C27.5144 31.0109 27.4864 31.3429 27.4864 31.7109V33.1749C27.4864 33.5429 27.5144 33.8789 27.5704 34.1829C27.6264 34.4789 27.7184 34.7349 27.8464 34.9509C27.9744 35.1669 28.1384 35.3349 28.3384 35.4549C28.5464 35.5669 28.7944 35.6229 29.0824 35.6229Z" fill="black"/>
<path opacity="0.5" d="M93.7735 7.38259V14.5586H92.4175V7.38259H89.9215V6.18259H96.2695V7.38259H93.7735ZM100.701 13.5266H100.653C100.597 13.6786 100.521 13.8266 100.425 13.9706C100.337 14.1146 100.221 14.2426 100.077 14.3546C99.9411 14.4586 99.7731 14.5426 99.5731 14.6066C99.3811 14.6706 99.1571 14.7026 98.9011 14.7026C98.2531 14.7026 97.7491 14.4946 97.3891 14.0786C97.0371 13.6626 96.8611 13.0666 96.8611 12.2906V8.31859H98.1691V12.1226C98.1691 13.0906 98.5691 13.5746 99.3691 13.5746C99.5371 13.5746 99.7011 13.5546 99.8611 13.5146C100.021 13.4666 100.161 13.3986 100.281 13.3106C100.409 13.2226 100.509 13.1106 100.581 12.9746C100.661 12.8386 100.701 12.6786 100.701 12.4946V8.31859H102.009V14.5586H100.701V13.5266ZM106.33 14.7026C105.882 14.7026 105.482 14.6266 105.13 14.4746C104.778 14.3226 104.478 14.1066 104.23 13.8266C103.982 13.5386 103.79 13.1946 103.654 12.7946C103.526 12.3866 103.462 11.9346 103.462 11.4386C103.462 10.9426 103.526 10.4946 103.654 10.0946C103.79 9.68659 103.982 9.34259 104.23 9.06259C104.478 8.77459 104.778 8.55459 105.13 8.40259C105.482 8.25059 105.882 8.17459 106.33 8.17459C106.786 8.17459 107.186 8.25459 107.53 8.41459C107.882 8.57459 108.174 8.79859 108.406 9.08659C108.638 9.36659 108.81 9.69459 108.922 10.0706C109.042 10.4466 109.102 10.8506 109.102 11.2826V11.7746H104.818V11.9786C104.818 12.4586 104.958 12.8546 105.238 13.1666C105.526 13.4706 105.934 13.6226 106.462 13.6226C106.846 13.6226 107.17 13.5386 107.434 13.3706C107.698 13.2026 107.922 12.9746 108.106 12.6866L108.874 13.4426C108.642 13.8266 108.306 14.1346 107.866 14.3666C107.426 14.5906 106.914 14.7026 106.33 14.7026ZM106.33 9.19459C106.106 9.19459 105.898 9.23459 105.706 9.31459C105.522 9.39459 105.362 9.50659 105.226 9.65059C105.098 9.79459 104.998 9.96659 104.926 10.1666C104.854 10.3666 104.818 10.5866 104.818 10.8266V10.9106H107.722V10.7906C107.722 10.3106 107.598 9.92659 107.35 9.63859C107.102 9.34259 106.762 9.19459 106.33 9.19459ZM112.53 14.7026C111.938 14.7026 111.442 14.5986 111.042 14.3906C110.642 14.1826 110.294 13.8946 109.998 13.5266L110.838 12.7586C111.07 13.0386 111.326 13.2586 111.606 13.4186C111.894 13.5706 112.226 13.6466 112.602 13.6466C112.986 13.6466 113.27 13.5746 113.454 13.4306C113.646 13.2786 113.742 13.0706 113.742 12.8066C113.742 12.6066 113.674 12.4386 113.538 12.3026C113.41 12.1586 113.182 12.0666 112.854 12.0266L112.278 11.9546C111.638 11.8746 111.134 11.6906 110.766 11.4026C110.406 11.1066 110.226 10.6706 110.226 10.0946C110.226 9.79059 110.282 9.52259 110.394 9.29059C110.506 9.05059 110.662 8.85059 110.862 8.69059C111.07 8.52259 111.314 8.39459 111.594 8.30659C111.882 8.21859 112.198 8.17459 112.542 8.17459C113.102 8.17459 113.558 8.26259 113.91 8.43859C114.27 8.61459 114.59 8.85859 114.87 9.17059L114.066 9.93859C113.906 9.74659 113.694 9.58259 113.43 9.44659C113.174 9.30259 112.878 9.23059 112.542 9.23059C112.182 9.23059 111.914 9.30259 111.738 9.44659C111.57 9.59059 111.486 9.77859 111.486 10.0106C111.486 10.2506 111.562 10.4306 111.714 10.5506C111.866 10.6706 112.11 10.7586 112.446 10.8146L113.022 10.8866C113.71 10.9906 114.21 11.1946 114.522 11.4986C114.842 11.7946 115.002 12.1946 115.002 12.6986C115.002 13.0026 114.942 13.2786 114.822 13.5266C114.71 13.7666 114.546 13.9746 114.33 14.1506C114.114 14.3266 113.854 14.4626 113.55 14.5586C113.246 14.6546 112.906 14.7026 112.53 14.7026Z" fill="black"/>
<path opacity="0.7" d="M96.4942 36.6309V35.5029H98.8462V29.2389H98.7502L96.8062 31.3149L95.9782 30.5709L98.1142 28.2549H100.178V35.5029H102.218V36.6309H96.4942ZM103.69 36.6309V35.5029H106.042V29.2389H105.946L104.002 31.3149L103.174 30.5709L105.31 28.2549H107.374V35.5029H109.414V36.6309H103.69Z" fill="black"/>
<path opacity="0.5" d="M160.711 14.5586L158.731 6.18259H160.111L160.963 10.2146L161.551 12.9986H161.587L162.259 10.2146L163.255 6.18259H164.767L165.751 10.2146L166.411 12.9866H166.447L167.059 10.2146L167.935 6.18259H169.267L167.203 14.5586H165.679L164.611 10.2266L163.987 7.68259H163.963L163.327 10.2266L162.235 14.5586H160.711ZM172.713 14.7026C172.265 14.7026 171.865 14.6266 171.513 14.4746C171.161 14.3226 170.861 14.1066 170.613 13.8266C170.365 13.5386 170.173 13.1946 170.037 12.7946C169.909 12.3866 169.845 11.9346 169.845 11.4386C169.845 10.9426 169.909 10.4946 170.037 10.0946C170.173 9.68659 170.365 9.34259 170.613 9.06259C170.861 8.77459 171.161 8.55459 171.513 8.40259C171.865 8.25059 172.265 8.17459 172.713 8.17459C173.169 8.17459 173.569 8.25459 173.913 8.41459C174.265 8.57459 174.557 8.79859 174.789 9.08659C175.021 9.36659 175.193 9.69459 175.305 10.0706C175.425 10.4466 175.485 10.8506 175.485 11.2826V11.7746H171.201V11.9786C171.201 12.4586 171.341 12.8546 171.621 13.1666C171.909 13.4706 172.317 13.6226 172.845 13.6226C173.229 13.6226 173.553 13.5386 173.817 13.3706C174.081 13.2026 174.305 12.9746 174.489 12.6866L175.257 13.4426C175.025 13.8266 174.689 14.1346 174.249 14.3666C173.809 14.5906 173.297 14.7026 172.713 14.7026ZM172.713 9.19459C172.489 9.19459 172.281 9.23459 172.089 9.31459C171.905 9.39459 171.745 9.50659 171.609 9.65059C171.481 9.79459 171.381 9.96659 171.309 10.1666C171.237 10.3666 171.201 10.5866 171.201 10.8266V10.9106H174.105V10.7906C174.105 10.3106 173.981 9.92659 173.733 9.63859C173.485 9.34259 173.145 9.19459 172.713 9.19459ZM180.857 13.5266H180.797C180.661 13.8946 180.437 14.1826 180.125 14.3906C179.821 14.5986 179.461 14.7026 179.045 14.7026C178.253 14.7026 177.641 14.4186 177.209 13.8506C176.777 13.2746 176.561 12.4706 176.561 11.4386C176.561 10.4066 176.777 9.60659 177.209 9.03859C177.641 8.46259 178.253 8.17459 179.045 8.17459C179.461 8.17459 179.821 8.27859 180.125 8.48659C180.437 8.68659 180.661 8.97459 180.797 9.35059H180.857V5.67859H182.165V14.5586H180.857V13.5266ZM179.441 13.5746C179.841 13.5746 180.177 13.4786 180.449 13.2866C180.721 13.0866 180.857 12.8266 180.857 12.5066V10.3706C180.857 10.0506 180.721 9.79459 180.449 9.60259C180.177 9.40259 179.841 9.30259 179.441 9.30259C178.985 9.30259 178.621 9.45059 178.349 9.74659C178.077 10.0346 177.941 10.4186 177.941 10.8986V11.9786C177.941 12.4586 178.077 12.8466 178.349 13.1426C178.621 13.4306 178.985 13.5746 179.441 13.5746ZM186.015 14.7026C185.423 14.7026 184.927 14.5986 184.527 14.3906C184.127 14.1826 183.779 13.8946 183.483 13.5266L184.323 12.7586C184.555 13.0386 184.811 13.2586 185.091 13.4186C185.379 13.5706 185.711 13.6466 186.087 13.6466C186.471 13.6466 186.755 13.5746 186.939 13.4306C187.131 13.2786 187.227 13.0706 187.227 12.8066C187.227 12.6066 187.159 12.4386 187.023 12.3026C186.895 12.1586 186.667 12.0666 186.339 12.0266L185.763 11.9546C185.123 11.8746 184.619 11.6906 184.251 11.4026C183.891 11.1066 183.711 10.6706 183.711 10.0946C183.711 9.79059 183.767 9.52259 183.879 9.29059C183.991 9.05059 184.147 8.85059 184.347 8.69059C184.555 8.52259 184.799 8.39459 185.079 8.30659C185.367 8.21859 185.683 8.17459 186.027 8.17459C186.587 8.17459 187.043 8.26259 187.395 8.43859C187.755 8.61459 188.075 8.85859 188.355 9.17059L187.551 9.93859C187.391 9.74659 187.179 9.58259 186.915 9.44659C186.659 9.30259 186.363 9.23059 186.027 9.23059C185.667 9.23059 185.399 9.30259 185.223 9.44659C185.055 9.59059 184.971 9.77859 184.971 10.0106C184.971 10.2506 185.047 10.4306 185.199 10.5506C185.351 10.6706 185.595 10.7586 185.931 10.8146L186.507 10.8866C187.195 10.9906 187.695 11.1946 188.007 11.4986C188.327 11.7946 188.487 12.1946 188.487 12.6986C188.487 13.0026 188.427 13.2786 188.307 13.5266C188.195 13.7666 188.031 13.9746 187.815 14.1506C187.599 14.3266 187.339 14.4626 187.035 14.5586C186.731 14.6546 186.391 14.7026 186.015 14.7026Z" fill="black"/>
<path opacity="0.7" d="M168.108 36.6309V35.5029H170.46V29.2389H170.364L168.42 31.3149L167.592 30.5709L169.728 28.2549H171.792V35.5029H173.832V36.6309H168.108ZM180.739 36.6309H175.051V35.3349L177.727 32.9469C178.151 32.5629 178.475 32.1989 178.699 31.8549C178.931 31.5029 179.047 31.1349 179.047 30.7509V30.5949C179.047 30.1869 178.923 29.8669 178.675 29.6349C178.435 29.4029 178.107 29.2869 177.691 29.2869C177.459 29.2869 177.255 29.3229 177.079 29.3949C176.911 29.4589 176.763 29.5509 176.635 29.6709C176.507 29.7909 176.399 29.9309 176.311 30.0909C176.231 30.2509 176.167 30.4229 176.119 30.6069L174.931 30.1509C175.019 29.8869 175.139 29.6349 175.291 29.3949C175.443 29.1469 175.635 28.9269 175.867 28.7349C176.099 28.5429 176.371 28.3909 176.683 28.2789C177.003 28.1669 177.375 28.1109 177.799 28.1109C178.223 28.1109 178.603 28.1749 178.939 28.3029C179.275 28.4229 179.555 28.5949 179.779 28.8189C180.011 29.0349 180.187 29.2949 180.307 29.5989C180.427 29.9029 180.487 30.2349 180.487 30.5949C180.487 30.9309 180.435 31.2429 180.331 31.5309C180.227 31.8189 180.083 32.0909 179.899 32.3469C179.715 32.6029 179.499 32.8469 179.251 33.0789C179.011 33.3109 178.755 33.5469 178.483 33.7869L176.515 35.4789H180.739V36.6309Z" fill="black"/>
<path opacity="0.5" d="M241.075 7.38259V14.5586H239.719V7.38259H237.223V6.18259H243.571V7.38259H241.075ZM244.797 5.67859H246.105V9.35059H246.165C246.301 9.01459 246.505 8.73459 246.777 8.51059C247.057 8.28659 247.437 8.17459 247.917 8.17459C248.557 8.17459 249.053 8.38659 249.405 8.81059C249.765 9.22659 249.945 9.82259 249.945 10.5986V14.5586H248.637V10.7546C248.637 9.78659 248.245 9.30259 247.461 9.30259C247.293 9.30259 247.125 9.32659 246.957 9.37459C246.797 9.41459 246.653 9.47859 246.525 9.56659C246.397 9.65459 246.293 9.76659 246.213 9.90259C246.141 10.0386 246.105 10.1946 246.105 10.3706V14.5586H244.797V5.67859ZM255.538 13.5266H255.49C255.434 13.6786 255.358 13.8266 255.262 13.9706C255.174 14.1146 255.058 14.2426 254.914 14.3546C254.778 14.4586 254.61 14.5426 254.41 14.6066C254.218 14.6706 253.994 14.7026 253.738 14.7026C253.09 14.7026 252.586 14.4946 252.226 14.0786C251.874 13.6626 251.698 13.0666 251.698 12.2906V8.31859H253.006V12.1226C253.006 13.0906 253.406 13.5746 254.206 13.5746C254.374 13.5746 254.538 13.5546 254.698 13.5146C254.858 13.4666 254.998 13.3986 255.118 13.3106C255.246 13.2226 255.346 13.1106 255.418 12.9746C255.498 12.8386 255.538 12.6786 255.538 12.4946V8.31859H256.846V14.5586H255.538V13.5266ZM260.699 14.7026C260.107 14.7026 259.611 14.5986 259.211 14.3906C258.811 14.1826 258.463 13.8946 258.167 13.5266L259.007 12.7586C259.239 13.0386 259.495 13.2586 259.775 13.4186C260.063 13.5706 260.395 13.6466 260.771 13.6466C261.155 13.6466 261.439 13.5746 261.623 13.4306C261.815 13.2786 261.911 13.0706 261.911 12.8066C261.911 12.6066 261.843 12.4386 261.707 12.3026C261.579 12.1586 261.351 12.0666 261.023 12.0266L260.447 11.9546C259.807 11.8746 259.303 11.6906 258.935 11.4026C258.575 11.1066 258.395 10.6706 258.395 10.0946C258.395 9.79059 258.451 9.52259 258.563 9.29059C258.675 9.05059 258.831 8.85059 259.031 8.69059C259.239 8.52259 259.483 8.39459 259.763 8.30659C260.051 8.21859 260.367 8.17459 260.711 8.17459C261.271 8.17459 261.727 8.26259 262.079 8.43859C262.439 8.61459 262.759 8.85859 263.039 9.17059L262.235 9.93859C262.075 9.74659 261.863 9.58259 261.599 9.44659C261.343 9.30259 261.047 9.23059 260.711 9.23059C260.351 9.23059 260.083 9.30259 259.907 9.44659C259.739 9.59059 259.655 9.77859 259.655 10.0106C259.655 10.2506 259.731 10.4306 259.883 10.5506C260.035 10.6706 260.279 10.7586 260.615 10.8146L261.191 10.8866C261.879 10.9906 262.379 11.1946 262.691 11.4986C263.011 11.7946 263.171 12.1946 263.171 12.6986C263.171 13.0026 263.111 13.2786 262.991 13.5266C262.879 13.7666 262.715 13.9746 262.499 14.1506C262.283 14.3266 262.023 14.4626 261.719 14.5586C261.415 14.6546 261.075 14.7026 260.699 14.7026Z" fill="black"/>
<path opacity="0.7" d="M244.296 36.6309V35.5029H246.648V29.2389H246.552L244.608 31.3149L243.78 30.5709L245.916 28.2549H247.98V35.5029H250.02V36.6309H244.296ZM253.579 31.6989C254.099 31.6989 254.483 31.5909 254.731 31.3749C254.979 31.1509 255.103 30.8669 255.103 30.5229V30.4389C255.103 30.0549 254.983 29.7629 254.743 29.5629C254.503 29.3549 254.179 29.2509 253.771 29.2509C253.371 29.2509 253.031 29.3429 252.751 29.5269C252.471 29.7029 252.235 29.9509 252.043 30.2709L251.143 29.4909C251.271 29.3069 251.415 29.1309 251.575 28.9629C251.735 28.7949 251.923 28.6509 252.139 28.5309C252.355 28.4029 252.599 28.3029 252.871 28.2309C253.143 28.1509 253.455 28.1109 253.807 28.1109C254.199 28.1109 254.563 28.1589 254.899 28.2549C255.235 28.3509 255.523 28.4949 255.763 28.6869C256.003 28.8709 256.191 29.0989 256.327 29.3709C256.463 29.6349 256.531 29.9349 256.531 30.2709C256.531 30.5349 256.487 30.7749 256.399 30.9909C256.319 31.2069 256.203 31.3989 256.051 31.5669C255.907 31.7269 255.735 31.8589 255.535 31.9629C255.343 32.0669 255.139 32.1429 254.923 32.1909V32.2509C255.163 32.2989 255.387 32.3789 255.595 32.4909C255.811 32.5949 255.999 32.7349 256.159 32.9109C256.319 33.0789 256.443 33.2829 256.531 33.5229C256.627 33.7549 256.675 34.0229 256.675 34.3269C256.675 34.6949 256.603 35.0309 256.459 35.3349C256.315 35.6309 256.111 35.8869 255.847 36.1029C255.591 36.3189 255.279 36.4869 254.911 36.6069C254.543 36.7189 254.135 36.7749 253.687 36.7749C253.295 36.7749 252.951 36.7309 252.655 36.6429C252.359 36.5629 252.095 36.4549 251.863 36.3189C251.639 36.1749 251.439 36.0149 251.263 35.8389C251.095 35.6549 250.947 35.4669 250.819 35.2749L251.815 34.4949C251.919 34.6629 252.027 34.8189 252.139 34.9629C252.259 35.0989 252.391 35.2189 252.535 35.3229C252.687 35.4189 252.855 35.4949 253.039 35.5509C253.231 35.6069 253.447 35.6349 253.687 35.6349C254.199 35.6349 254.591 35.5149 254.863 35.2749C255.135 35.0269 255.271 34.6869 255.271 34.2549V34.1709C255.271 33.7389 255.127 33.4109 254.839 33.1869C254.551 32.9629 254.143 32.8509 253.615 32.8509H252.727V31.6989H253.579Z" fill="black"/>
<path d="M322.266 14.5586V6.18259H327.498V7.38259H323.622V9.71059H327.066V10.9106H323.622V14.5586H322.266ZM328.72 14.5586V8.31859H330.028V9.51859H330.088C330.176 9.19859 330.36 8.91859 330.64 8.67859C330.92 8.43859 331.308 8.31859 331.804 8.31859H332.152V9.57859H331.636C331.116 9.57859 330.716 9.66259 330.436 9.83059C330.164 9.99859 330.028 10.2466 330.028 10.5746V14.5586H328.72ZM333.974 7.20259C333.702 7.20259 333.502 7.13859 333.374 7.01059C333.254 6.88259 333.194 6.71859 333.194 6.51859V6.31459C333.194 6.11459 333.254 5.95059 333.374 5.82259C333.502 5.69459 333.702 5.63059 333.974 5.63059C334.246 5.63059 334.442 5.69459 334.562 5.82259C334.682 5.95059 334.742 6.11459 334.742 6.31459V6.51859C334.742 6.71859 334.682 6.88259 334.562 7.01059C334.442 7.13859 334.246 7.20259 333.974 7.20259ZM333.314 8.31859H334.622V14.5586H333.314V8.31859Z" fill="black"/>
<path d="M322.29 36.6309V35.5029H324.642V29.2389H324.546L322.602 31.3149L321.774 30.5709L323.91 28.2549H325.974V35.5029H328.014V36.6309H322.29ZM332.737 36.6309V34.9989H328.849V33.8349L332.245 28.2549H334.021V33.9309H335.161V34.9989H334.021V36.6309H332.737ZM330.001 33.9309H332.737V29.4909H332.653L330.001 33.9309Z" fill="black"/>
<path opacity="0.5" d="M393.232 13.144C392.528 13.144 391.928 13.016 391.432 12.76C390.944 12.504 390.524 12.16 390.172 11.728L391.108 10.852C391.404 11.212 391.728 11.484 392.08 11.668C392.44 11.852 392.848 11.944 393.304 11.944C393.84 11.944 394.244 11.824 394.516 11.584C394.788 11.344 394.924 11.02 394.924 10.612C394.924 10.284 394.828 10.024 394.636 9.832C394.444 9.64 394.104 9.496 393.616 9.4L392.872 9.268C392.056 9.116 391.444 8.848 391.036 8.464C390.628 8.08 390.424 7.552 390.424 6.88C390.424 6.512 390.492 6.18 390.628 5.884C390.772 5.58 390.968 5.328 391.216 5.128C391.472 4.92 391.78 4.76 392.14 4.648C392.5 4.536 392.904 4.48 393.352 4.48C393.984 4.48 394.532 4.592 394.996 4.816C395.46 5.032 395.856 5.348 396.184 5.764L395.236 6.604C395.02 6.324 394.756 6.1 394.444 5.932C394.132 5.764 393.744 5.68 393.28 5.68C392.8 5.68 392.428 5.776 392.164 5.968C391.9 6.16 391.768 6.44 391.768 6.808C391.768 7.16 391.876 7.424 392.092 7.6C392.308 7.768 392.644 7.896 393.1 7.984L393.844 8.14C394.684 8.3 395.296 8.572 395.68 8.956C396.072 9.34 396.268 9.868 396.268 10.54C396.268 10.932 396.2 11.288 396.064 11.608C395.928 11.928 395.728 12.204 395.464 12.436C395.208 12.66 394.892 12.836 394.516 12.964C394.14 13.084 393.712 13.144 393.232 13.144ZM402.372 13C402.028 13 401.764 12.904 401.58 12.712C401.396 12.512 401.284 12.26 401.244 11.956H401.184C401.064 12.348 400.844 12.644 400.524 12.844C400.204 13.044 399.816 13.144 399.36 13.144C398.712 13.144 398.212 12.976 397.86 12.64C397.516 12.304 397.344 11.852 397.344 11.284C397.344 10.66 397.568 10.192 398.016 9.88C398.472 9.568 399.136 9.412 400.008 9.412H401.136V8.884C401.136 8.5 401.032 8.204 400.824 7.996C400.616 7.788 400.292 7.684 399.852 7.684C399.484 7.684 399.184 7.764 398.952 7.924C398.72 8.084 398.524 8.288 398.364 8.536L397.584 7.828C397.792 7.476 398.084 7.188 398.46 6.964C398.836 6.732 399.328 6.616 399.936 6.616C400.744 6.616 401.364 6.804 401.796 7.18C402.228 7.556 402.444 8.096 402.444 8.8V11.932H403.104V13H402.372ZM399.732 12.148C400.14 12.148 400.476 12.06 400.74 11.884C401.004 11.7 401.136 11.456 401.136 11.152V10.252H400.032C399.128 10.252 398.676 10.532 398.676 11.092V11.308C398.676 11.588 398.768 11.8 398.952 11.944C399.144 12.08 399.404 12.148 399.732 12.148ZM406.079 13C405.623 13 405.279 12.884 405.047 12.652C404.815 12.412 404.699 12.076 404.699 11.644V7.828H403.727V6.76H404.255C404.471 6.76 404.619 6.712 404.699 6.616C404.787 6.52 404.831 6.364 404.831 6.148V5.056H406.007V6.76H407.315V7.828H406.007V11.932H407.219V13H406.079Z" fill="black"/>
<path opacity="0.7" d="M392.748 35.0703V33.9423H395.1V27.6783H395.004L393.06 29.7543L392.232 29.0103L394.368 26.6943H396.432V33.9423H398.472V35.0703H392.748ZM404.983 27.8703H401.263L401.047 30.8343H401.131C401.227 30.6663 401.327 30.5183 401.431 30.3903C401.535 30.2543 401.655 30.1383 401.791 30.0423C401.927 29.9463 402.083 29.8743 402.259 29.8263C402.435 29.7703 402.643 29.7423 402.883 29.7423C403.243 29.7423 403.575 29.8023 403.879 29.9223C404.191 30.0423 404.459 30.2143 404.683 30.4383C404.915 30.6623 405.095 30.9383 405.223 31.2663C405.351 31.5863 405.415 31.9503 405.415 32.3583C405.415 32.7743 405.347 33.1583 405.211 33.5103C405.083 33.8623 404.891 34.1663 404.635 34.4223C404.379 34.6703 404.063 34.8663 403.687 35.0103C403.319 35.1463 402.899 35.2143 402.427 35.2143C402.051 35.2143 401.719 35.1703 401.431 35.0823C401.143 35.0023 400.887 34.8943 400.663 34.7583C400.447 34.6143 400.255 34.4543 400.087 34.2783C399.927 34.0943 399.783 33.9063 399.655 33.7143L400.639 32.9343C400.743 33.1023 400.851 33.2543 400.963 33.3903C401.075 33.5263 401.203 33.6463 401.347 33.7503C401.491 33.8543 401.651 33.9343 401.827 33.9903C402.011 34.0463 402.219 34.0743 402.451 34.0743C402.947 34.0743 403.327 33.9383 403.591 33.6663C403.863 33.3943 403.999 33.0183 403.999 32.5383V32.3943C403.999 31.9143 403.863 31.5383 403.591 31.2663C403.327 30.9943 402.947 30.8583 402.451 30.8583C402.091 30.8583 401.803 30.9263 401.587 31.0623C401.371 31.1983 401.187 31.3503 401.035 31.5183L399.919 31.3623L400.231 26.6943H404.983V27.8703Z" fill="black"/>
<path d="M402.809 47.1035V197.277" stroke="#AFAFAF" stroke-width="0.492429" stroke-dasharray="2.95 2.95"/>
<path d="M253.021 47.1035V197.277" stroke="#AFAFAF" stroke-width="0.492429" stroke-dasharray="2.95 2.95"/>
<path d="M178.489 47.1035V197.277" stroke="#AFAFAF" stroke-width="0.492429" stroke-dasharray="2.95 2.95"/>
<path d="M103.957 47.1035V197.277" stroke="#AFAFAF" stroke-width="0.492429" stroke-dasharray="2.95 2.95"/>
<path d="M30.1482 47.1035V197.277" stroke="#AFAFAF" stroke-width="0.492429" stroke-dasharray="2.95 2.95"/>
<path d="M13.3437 104.863L1.57383 116.685C1.20632 117.054 1 117.554 1 118.074V196.309C1 197.397 1.88188 198.279 2.96972 198.279H326.59C327.677 198.279 328.559 197.397 328.559 196.309V156.658C328.559 155.578 327.682 154.708 326.606 154.615C313.866 153.515 307.684 143.004 305.137 136.062C304.708 134.893 303.353 134.319 302.251 134.9L292.606 139.979C291.846 140.38 290.913 140.241 290.302 139.636L279.238 128.683C278.569 128.021 277.526 127.925 276.747 128.453L271.927 131.723C271.097 132.286 269.975 132.135 269.323 131.372L257.175 117.141C256.35 116.175 254.84 116.23 254.089 117.254L241.851 133.925C241.394 134.548 240.615 134.846 239.858 134.687L231.159 132.86C230.705 132.765 230.232 132.833 229.823 133.053L220.322 138.154C219.545 138.571 218.585 138.421 217.973 137.786L210.139 129.667C209.557 129.065 208.658 128.896 207.898 129.246L196.545 134.472C195.905 134.766 195.157 134.697 194.582 134.289L187.859 129.522C186.62 128.644 184.856 129.444 184.423 130.899C182.536 137.248 177.358 141.397 174.158 143.102C173.692 143.351 173.138 143.369 172.654 143.156C160.486 137.802 155.818 117.948 154.742 106.295C154.616 104.927 153.196 104.05 151.933 104.592L147.651 106.43C146.853 106.773 145.925 106.553 145.366 105.888L134.854 93.3865C134.268 92.6898 133.281 92.4853 132.467 92.8917L125.981 96.1284C125.178 96.5292 124.205 96.3364 123.616 95.6597L116.018 86.9361C115.005 85.7739 113.093 86.1824 112.526 87.6151C104.598 107.62 87.679 107.058 79.0428 103.841C78.4528 103.622 77.7942 103.663 77.2543 103.987L70.852 107.827C70.1479 108.249 69.2558 108.19 68.6132 107.679L63.3116 103.464C62.3755 102.72 60.9977 102.975 60.3897 104.005L49.4 122.618C48.7638 123.695 47.2971 123.914 46.374 123.069L37.9555 115.364C37.4363 114.889 36.7031 114.727 36.032 114.939L29.8173 116.903C29.1205 117.123 28.3591 116.94 27.8393 116.426L16.124 104.851C15.3523 104.089 14.1092 104.094 13.3437 104.863Z" fill="url(#paint0_linear_8580_3632)" fill-opacity="0.55"/>
<path d="M335.064 154.707H398.05" stroke="#6666F2" stroke-width="1.96972" stroke-dasharray="3.45 3.45"/>
<path d="M328.277 47.1035V197.277" stroke="#6666F2" stroke-width="0.738643"/>
<path d="M1 117.261L13.3437 104.863C14.1092 104.094 15.3523 104.089 16.124 104.851L27.8393 116.426C28.3591 116.94 29.1205 117.123 29.8173 116.903L36.032 114.939C36.703 114.727 37.4363 114.889 37.9555 115.364L46.374 123.069C47.2971 123.914 48.7638 123.695 49.4 122.618L60.3897 104.005C60.9977 102.975 62.3755 102.72 63.3116 103.464L68.6132 107.679C69.2558 108.19 70.1479 108.249 70.852 107.827L77.2542 103.987C77.7942 103.663 78.4528 103.622 79.0428 103.841C87.679 107.058 104.598 107.62 112.526 87.6151C113.093 86.1824 115.005 85.7739 116.018 86.9361L123.616 95.6597C124.205 96.3364 125.178 96.5292 125.981 96.1284L132.467 92.8917C133.281 92.4853 134.268 92.6898 134.854 93.3865L145.366 105.888C145.925 106.553 146.853 106.773 147.651 106.43L151.933 104.592C153.196 104.05 154.616 104.927 154.742 106.295C155.818 117.948 160.486 137.802 172.654 143.156C173.138 143.369 173.692 143.351 174.158 143.102C177.358 141.397 182.536 137.248 184.423 130.899C184.856 129.444 186.62 128.644 187.859 129.522L194.582 134.289C195.157 134.697 195.905 134.766 196.545 134.472L207.898 129.246C208.658 128.896 209.557 129.065 210.139 129.667L217.973 137.786C218.585 138.421 219.545 138.571 220.322 138.154L229.823 133.053C230.232 132.833 230.705 132.765 231.159 132.86L239.858 134.687C240.614 134.846 241.394 134.548 241.851 133.925L254.089 117.254C254.84 116.23 256.35 116.175 257.174 117.141L269.323 131.372C269.975 132.135 271.097 132.286 271.927 131.723L276.747 128.453C277.526 127.925 278.569 128.021 279.238 128.683L290.302 139.636C290.913 140.241 291.845 140.38 292.606 139.979L302.251 134.9C303.353 134.319 304.709 134.893 305.14 136.061C307.836 143.352 314.626 154.587 328.695 154.723" stroke="#6666F2" stroke-width="0.867308" stroke-linecap="round"/>
<ellipse cx="328.492" cy="47.2696" rx="2.55189" ry="2.86724" fill="#6666F2"/>
<defs>
<linearGradient id="paint0_linear_8580_3632" x1="165.503" y1="84.2773" x2="165.503" y2="198.279" gradientUnits="userSpaceOnUse">
<stop stop-color="#6666F2"/>
<stop offset="0.932292" stop-color="#D9D9D9" stop-opacity="0"/>
</linearGradient>
</defs>
</svg>
