<svg width="20" height="20" viewBox="0 0 20 20" fill="none" xmlns="http://www.w3.org/2000/svg">
<circle cx="10" cy="10" r="6" fill="#C4C0FF"/>
<mask id="mask0_8325_6745" style="mask-type:alpha" maskUnits="userSpaceOnUse" x="0" y="0" width="20" height="20">
<rect width="20" height="20" fill="#D9D9D9"/>
</mask>
<g mask="url(#mask0_8325_6745)">
<path d="M11.2227 14.4949H12.7579L12.766 14.4324L9.4327 10.8732L9.45354 10.8122H9.66187C10.444 10.8122 11.0869 10.5937 11.5906 10.1568C12.0942 9.71981 12.391 9.1744 12.4808 8.52051H13.2981V7.69363H12.4587C12.4179 7.44252 12.336 7.20988 12.2131 6.99572C12.0902 6.78141 11.9364 6.58398 11.7517 6.40342H13.2981V5.57655H6.70187V6.53176H9.65541C10.1074 6.53176 10.4786 6.63808 10.7692 6.85072C11.0599 7.06322 11.2469 7.34419 11.3302 7.69363H6.70187V8.52051H11.351C11.2784 8.89981 11.0933 9.20884 10.7956 9.44759C10.4981 9.68634 10.1052 9.80572 9.61687 9.80572H7.88625V10.8747L11.2227 14.4949ZM10.0015 17.9163C8.90645 17.9163 7.87722 17.7086 6.91374 17.293C5.95027 16.8775 5.11222 16.3135 4.39958 15.6011C3.68694 14.8888 3.1227 14.0511 2.70687 13.088C2.29118 12.125 2.08333 11.096 2.08333 10.0011C2.08333 8.90613 2.29111 7.8769 2.70666 6.91342C3.12222 5.94995 3.68618 5.1119 4.39854 4.39926C5.1109 3.68662 5.94861 3.12238 6.91166 2.70655C7.87472 2.29085 8.90368 2.08301 9.99854 2.08301C11.0935 2.08301 12.1228 2.29079 13.0862 2.70634C14.0497 3.1219 14.8878 3.68586 15.6004 4.39822C16.3131 5.11058 16.8773 5.94829 17.2931 6.91134C17.7088 7.8744 17.9167 8.90335 17.9167 9.99822C17.9167 11.0932 17.7089 12.1225 17.2933 13.0859C16.8778 14.0494 16.3138 14.8875 15.6015 15.6001C14.8891 16.3127 14.0514 16.877 13.0883 17.2928C12.1253 17.7085 11.0963 17.9163 10.0015 17.9163ZM9.99999 16.6663C11.8611 16.6663 13.4375 16.0205 14.7292 14.7288C16.0208 13.4372 16.6667 11.8608 16.6667 9.99967C16.6667 8.13856 16.0208 6.56217 14.7292 5.27051C13.4375 3.97884 11.8611 3.33301 9.99999 3.33301C8.13888 3.33301 6.56249 3.97884 5.27083 5.27051C3.97916 6.56217 3.33333 8.13856 3.33333 9.99967C3.33333 11.8608 3.97916 13.4372 5.27083 14.7288C6.56249 16.0205 8.13888 16.6663 9.99999 16.6663Z" fill="#6666F2"/>
</g>
</svg>
