<svg width="20" height="21" viewBox="0 0 20 21" fill="none" xmlns="http://www.w3.org/2000/svg">
<mask id="mask0_8297_2060" style="mask-type:alpha" maskUnits="userSpaceOnUse" x="0" y="0" width="20" height="21">
<rect y="0.491211" width="20" height="20" fill="#D9D9D9"/>
</mask>
<g mask="url(#mask0_8297_2060)">
<path d="M16.5031 18.7761L14.3077 16.5806H3.75V14.7279C3.75 14.3199 3.86083 13.942 4.0825 13.5942C4.30417 13.2464 4.60042 12.979 4.97125 12.7921C5.64958 12.4567 6.33305 12.1944 7.02167 12.0052C7.71028 11.8162 8.40396 11.6917 9.10271 11.6319H9.23479C9.28021 11.6319 9.3243 11.6345 9.36708 11.6398L1.71479 3.98772L2.60583 3.09668L17.3942 17.885L16.5031 18.7761ZM5 15.3306H13.0577L10.5977 12.8706C10.4898 12.8599 10.3902 12.8506 10.299 12.8425C10.2076 12.8346 10.1079 12.8306 10 12.8306C9.23819 12.8306 8.48472 12.9217 7.73958 13.1038C6.99444 13.286 6.26285 13.5539 5.54479 13.9075C5.37715 13.9983 5.24444 14.1156 5.14667 14.2592C5.04889 14.4029 5 14.5592 5 14.7279V15.3306ZM15.2052 12.8802C15.453 12.9999 15.6495 13.1816 15.7948 13.4252C15.9401 13.6687 16.017 13.9315 16.0256 14.2136L14.3077 12.4956C14.4616 12.5555 14.6133 12.6154 14.7629 12.6752C14.9124 12.7351 15.0598 12.8034 15.2052 12.8802ZM11.6169 9.74876L10.7004 8.8323C10.9931 8.69661 11.2273 8.49175 11.4031 8.21772C11.5788 7.94355 11.6667 7.64355 11.6667 7.31772C11.6667 6.85939 11.5035 6.46703 11.1771 6.14064C10.8507 5.81425 10.4583 5.65105 10 5.65105C9.67417 5.65105 9.37424 5.73897 9.10021 5.9148C8.82618 6.0905 8.62132 6.32474 8.48562 6.61751L7.56896 5.70085C7.84562 5.28737 8.19632 4.96737 8.62104 4.74085C9.04576 4.51432 9.50542 4.40105 10 4.40105C10.8044 4.40105 11.4917 4.68605 12.0617 5.25605C12.6317 5.82605 12.9167 6.51328 12.9167 7.31772C12.9167 7.81244 12.8034 8.2721 12.5769 8.69668C12.3503 9.1214 12.0303 9.4721 11.6169 9.74876Z" fill="#1A1A1A"/>
</g>
</svg>
