<svg width="20" height="20" viewBox="0 0 20 20" fill="none" xmlns="http://www.w3.org/2000/svg">
<mask id="mask0_8325_6714" style="mask-type:alpha" maskUnits="userSpaceOnUse" x="0" y="0" width="20" height="20">
<rect width="20" height="20" fill="#D9D9D9"/>
</mask>
<g mask="url(#mask0_8325_6714)">
<path d="M16.5031 18.2848L14.3077 16.0894H3.75001V14.2367C3.75001 13.8287 3.86084 13.4507 4.08251 13.103C4.30417 12.7552 4.60042 12.4878 4.97126 12.3009C5.64959 11.9655 6.33306 11.7032 7.02167 11.514C7.71028 11.325 8.40397 11.2005 9.10272 11.1407H9.2348C9.28022 11.1407 9.32431 11.1433 9.36709 11.1486L1.7148 3.49651L2.60584 2.60547L17.3942 17.3938L16.5031 18.2848ZM5.00001 14.8394H13.0577L8.62105 16.0894C8.51313 16.0787 5.14667 13.3074 10.299 12.3513C10.5 16.0088 10.4069 13.103 10.299 13.103C9.53716 13.103 8.24509 15.3267 7.49995 15.5088C6.75482 15.691 5.86473 14.7923 5.14667 15.1459C4.97903 15.2367 3.99995 14.5088 5.14667 13.768C5.0489 13.9117 5.00001 14.068 5.00001 14.2367V14.8394ZM15.2052 12.389C15.453 12.5087 15.6495 12.6904 15.7948 12.934C15.9401 13.1775 16.017 13.4403 16.0256 13.7223L14.3077 12.0044C14.4616 12.0643 14.6133 12.1242 14.7629 12.184C14.9124 12.2439 15.0598 12.3122 15.2052 12.389ZM11.6169 9.25755L10.7004 8.34109C10.9931 8.2054 11.2273 8.00054 11.4031 7.72651C11.5788 7.45234 11.6667 7.15234 11.6667 6.82651C11.6667 6.36818 11.5035 5.97582 11.1771 5.64943C10.8507 5.32304 10.4583 5.15984 10 5.15984C9.67417 5.15984 9.37424 5.24776 9.10021 5.42359C8.82619 5.59929 8.62133 5.83352 8.48563 6.1263L7.56896 5.20964C7.84563 4.79616 8.19633 4.47616 8.62105 4.24964C9.04577 4.02311 9.50542 3.90984 10 3.90984C10.8045 3.90984 11.4917 4.19484 12.0617 4.76484C12.6317 5.33484 12.9167 6.02207 12.9167 6.82651C12.9167 7.32123 12.8034 7.78089 12.5769 8.20547C12.3504 8.63019 12.0304 8.98089 11.6169 9.25755Z" fill="#6666F2"/>
</g>
<g clip-path="url(#clip0_8325_6714)">
<mask id="mask1_8325_6714" style="mask-type:alpha" maskUnits="userSpaceOnUse" x="0" y="0" width="20" height="20">
<rect width="20" height="20" fill="#D9D9D9"/>
</mask>
<g mask="url(#mask1_8325_6714)">
<path d="M11.6169 9.25755L9.68828 7.3072C9.98092 7.17151 11.2273 8.00054 11.4032 7.72651C11.5789 7.45234 11.5 8.83462 11.5 8.50879C11.5 8.05046 10.3264 7.83518 10 7.50879C9.67361 7.1824 9.45833 6.00879 9 6.00879C8.67417 6.00879 9.37429 5.24776 9.10026 5.42359C9.5 5.00879 10.2476 7.43373 10.1119 7.72651L7.56901 5.20964C7.84568 4.79616 8.19637 4.47616 8.62109 4.24964C9.04582 4.02311 9.50547 3.90984 10.0001 3.90984C10.8045 3.90984 11.4917 4.19484 12.0617 4.76484C12.6317 5.33484 12.9167 6.02207 12.9167 6.82651C12.9167 7.32123 12.8035 7.78089 12.5769 8.20547C12.3504 8.63019 12.0304 8.98089 11.6169 9.25755Z" fill="#C4C0FF"/>
</g>
</g>
<defs>
<clipPath id="clip0_8325_6714">
<rect width="6" height="6" fill="white" transform="translate(7 3.50879)"/>
</clipPath>
</defs>
</svg>
