<svg width="20" height="21" viewBox="0 0 20 21" fill="none" xmlns="http://www.w3.org/2000/svg">
<mask id="mask0_8297_2126" style="mask-type:alpha" maskUnits="userSpaceOnUse" x="0" y="0" width="20" height="21">
<rect y="0.492188" width="20" height="20" fill="#D9D9D9"/>
</mask>
<g mask="url(#mask0_8297_2126)">
<path d="M8.33333 10.2357C7.53125 10.2357 6.84465 9.95012 6.27354 9.37901C5.70229 8.80776 5.41667 8.12109 5.41667 7.31901C5.41667 6.51693 5.70229 5.83033 6.27354 5.25922C6.84465 4.68797 7.53125 4.40234 8.33333 4.40234C9.13542 4.40234 9.82201 4.68797 10.3931 5.25922C10.9644 5.83033 11.25 6.51693 11.25 7.31901C11.25 8.12109 10.9644 8.80776 10.3931 9.37901C9.82201 9.95012 9.13542 10.2357 8.33333 10.2357ZM2.08333 16.5819V14.7292C2.08333 14.3084 2.19069 13.9273 2.40542 13.5859C2.62014 13.2445 2.91986 12.9803 3.30458 12.7934C3.9968 12.4484 4.74465 12.1602 5.54812 11.9288C6.35146 11.6976 7.27986 11.5819 8.33333 11.5819H8.57687C8.64423 11.5819 8.71687 11.5905 8.79479 11.6076C8.71048 11.8041 8.64083 12.0044 8.58583 12.2084C8.53069 12.4126 8.485 12.6204 8.44875 12.8319H8.33333C7.37389 12.8319 6.52451 12.9422 5.78521 13.1628C5.0459 13.3835 4.41021 13.6321 3.87812 13.9088C3.6891 14.0103 3.55104 14.1289 3.46396 14.2646C3.37687 14.4003 3.33333 14.5552 3.33333 14.7292V15.3319H8.58333C8.64528 15.5435 8.72569 15.7582 8.82458 15.9761C8.92333 16.194 9.03201 16.396 9.15062 16.5819H2.08333ZM13.4215 17.1988L13.2356 16.093C13.0369 16.0342 12.8499 15.9573 12.6746 15.8623C12.4994 15.7672 12.3328 15.648 12.1746 15.5048L11.1185 15.8719L10.5256 14.8638L11.3879 14.1588C11.3281 13.943 11.2981 13.7303 11.2981 13.5209C11.2981 13.3116 11.3281 13.099 11.3879 12.8832L10.5337 12.1619L11.1267 11.154L12.1746 11.529C12.3274 11.3858 12.4927 11.268 12.6706 11.1757C12.8485 11.0832 13.0369 11.0076 13.2356 10.9488L13.4215 9.84318H14.6073L14.7852 10.9488C14.984 11.0076 15.1723 11.0853 15.3502 11.1821C15.528 11.2788 15.6933 11.403 15.846 11.5546L16.8942 11.154L17.4871 12.1876L16.6329 12.9088C16.6928 13.1092 16.7227 13.318 16.7227 13.5351C16.7227 13.7521 16.6928 13.9601 16.6329 14.1588L17.4952 14.8638L16.9023 15.8719L15.846 15.5048C15.688 15.648 15.5213 15.7672 15.346 15.8623C15.1709 15.9573 14.984 16.0342 14.7852 16.093L14.6073 17.1988H13.4215ZM14.0071 15.1076C14.4436 15.1076 14.817 14.9521 15.1273 14.6413C15.4377 14.3305 15.5929 13.9568 15.5929 13.5203C15.5929 13.0837 15.4375 12.7103 15.1267 12.4001C14.8158 12.0896 14.4422 11.9344 14.0056 11.9344C13.5692 11.9344 13.1958 12.0898 12.8854 12.4007C12.575 12.7115 12.4198 13.0852 12.4198 13.5217C12.4198 13.9581 12.5752 14.3315 12.886 14.6419C13.1969 14.9523 13.5706 15.1076 14.0071 15.1076ZM8.33333 8.98568C8.79167 8.98568 9.18403 8.82248 9.51042 8.49609C9.8368 8.1697 10 7.77734 10 7.31901C10 6.86068 9.8368 6.46832 9.51042 6.14193C9.18403 5.81554 8.79167 5.65234 8.33333 5.65234C7.875 5.65234 7.48264 5.81554 7.15625 6.14193C6.82986 6.46832 6.66667 6.86068 6.66667 7.31901C6.66667 7.77734 6.82986 8.1697 7.15625 8.49609C7.48264 8.82248 7.875 8.98568 8.33333 8.98568Z" fill="#1A1A1A"/>
</g>
</svg>
