<svg width="20" height="20" viewBox="0 0 20 20" fill="none" xmlns="http://www.w3.org/2000/svg">
<mask id="mask0_8325_6796" style="mask-type:alpha" maskUnits="userSpaceOnUse" x="0" y="0" width="20" height="20">
<rect width="20" height="20" fill="#D9D9D9"/>
</mask>
<g mask="url(#mask0_8325_6796)">
<path d="M8.33333 9.74349C7.53124 9.74349 6.84465 9.45793 6.27354 8.88682C5.70229 8.31557 5.41666 7.62891 5.41666 6.82682C5.41666 6.02474 5.70229 5.33814 6.27354 4.76703C6.84465 4.19578 7.53124 3.91016 8.33333 3.91016C9.13541 3.91016 9.82201 4.19578 10.3931 4.76703C10.9644 5.33814 11.25 6.02474 11.25 6.82682C11.25 7.62891 10.9644 8.31557 10.3931 8.88682C9.82201 9.45793 9.13541 9.74349 8.33333 9.74349ZM2.08333 16.0897V14.237C2.08333 13.8162 2.19069 13.4351 2.40541 13.0937C2.62013 12.7523 2.91986 12.4881 3.30458 12.3012C3.9968 11.9562 4.74465 11.668 5.54812 11.4366C6.35145 11.2054 7.27986 11.0897 8.33333 11.0897H8.57687C8.64423 11.0897 8.71687 11.0983 8.79479 11.1154C8.71048 11.3119 8.64083 11.5122 8.58583 11.7162C8.53069 11.9204 8.61312 14.695 8.57687 14.9065L7.99995 14.999C7.04051 14.999 7.4736 15.3802 6.73429 15.6008C5.99498 15.8215 4.9041 15.1031 4.37202 15.3797C4.18299 15.4813 3.39166 15.244 3.30458 15.3797C3.21749 15.5154 3.33333 14.063 3.33333 14.237V14.8397H8.58333C8.64527 15.0513 8.72569 15.266 8.82458 15.4839C8.92333 15.7018 9.03201 15.9038 9.15062 16.0897H2.08333ZM13.4215 16.7066L13.2356 15.6008C13.0369 15.542 12.8499 15.4652 12.6746 15.3702C12.4994 15.275 12.3328 15.1559 12.1746 15.0127L11.1185 15.3797L10.5256 14.3716L11.3879 13.6666C11.328 13.4508 11.2981 13.2381 11.2981 13.0287C11.2981 12.8194 11.328 12.6068 11.3879 12.391L10.5337 11.6697L11.1267 10.6618L12.1746 11.0368C12.3274 10.8936 12.4927 10.7759 12.6706 10.6835C12.8485 10.591 13.0369 10.5154 13.2356 10.4566L13.4215 9.35099H14.6073L14.7852 10.4566C14.984 10.5154 15.1723 10.5931 15.3502 10.6899C15.528 10.7866 15.6933 10.9108 15.846 11.0624L16.8942 10.6618L17.4871 11.6954L16.6329 12.4166C16.6928 12.617 16.7227 12.8258 16.7227 13.0429C16.7227 13.2599 16.6928 13.4679 16.6329 13.6666L17.4952 14.3716L16.9023 15.3797L15.846 15.0127C15.688 15.1559 15.5213 15.275 15.346 15.3702C15.1709 15.4652 14.984 15.542 14.7852 15.6008L14.6073 16.7066H13.4215ZM14.0071 14.6154C14.4436 14.6154 14.817 14.4599 15.1273 14.1491C15.4377 13.8383 15.5929 13.4646 15.5929 13.0281C15.5929 12.5915 15.4375 12.2181 15.1267 11.9079C14.8158 11.5974 14.4421 11.4422 14.0056 11.4422C13.5692 11.4422 13.1958 11.5977 12.8854 11.9085C12.575 12.2193 12.4198 12.593 12.4198 13.0295C12.4198 13.4659 12.5752 13.8393 12.886 14.1497C13.1969 14.4602 13.5706 14.6154 14.0071 14.6154ZM8.33333 8.49349C8.79166 8.49349 9.18402 8.3303 9.51041 8.00391C9.8368 7.67752 9.99999 7.28516 9.99999 6.82682C9.99999 6.36849 10.3263 8.82541 9.99995 8.49902C9.67357 8.17263 9.95829 8.49902 9.49995 8.49902C9.04162 8.49902 8.14186 9.0246 7.81547 9.35099C7.48909 9.67738 6.49995 7.54069 6.49995 7.99902C6.49995 8.45736 6.82986 7.67752 7.15624 8.00391C7.48263 8.3303 7.87499 8.49349 8.33333 8.49349Z" fill="#6666F2"/>
</g>
<g clip-path="url(#clip0_8325_6796)">
<mask id="mask1_8325_6796" style="mask-type:alpha" maskUnits="userSpaceOnUse" x="0" y="-1" width="20" height="21">
<rect y="-0.000976562" width="20" height="20" fill="#D9D9D9"/>
</mask>
<g mask="url(#mask1_8325_6796)">
<path d="M8.33333 9.74251C7.53124 9.74251 6.84465 9.45696 6.27354 8.88585C5.70229 8.3146 5.41666 7.62793 5.41666 6.82585C5.41666 6.02376 5.70229 5.33717 6.27354 4.76605C6.84465 4.1948 7.53124 3.90918 8.33333 3.90918C9.13541 3.90918 9.82201 4.1948 10.3931 4.76605C10.9644 5.33717 11.25 6.02376 11.25 6.82585C11.25 7.62793 10.9644 8.3146 10.3931 8.88585C9.82201 9.45696 9.13541 9.74251 8.33333 9.74251ZM2.08333 16.0888V14.2361C2.08333 13.8152 2.19069 13.4341 2.40541 13.0927C2.62013 12.7513 2.91986 12.4872 3.30458 12.3002C3.9968 11.9552 4.74465 11.667 5.54812 11.4356C6.35145 11.2044 7.27986 11.0888 8.33333 11.0888H8.57687C8.64423 11.0888 8.71687 11.0973 8.79479 11.1144C8.71048 11.3109 8.64083 11.5112 8.58583 11.7152C8.53069 11.9194 8.61312 14.694 8.57687 14.9055L7.99995 14.998C7.04051 14.998 7.4736 15.3792 6.73429 15.5998C5.99498 15.8205 4.9041 15.1021 4.37202 15.3788C4.18299 15.4803 3.39166 15.2431 3.30458 15.3788C3.21749 15.5145 3.33333 14.062 3.33333 14.2361V14.8388H8.58333C8.64527 15.0503 8.72569 15.265 8.82458 15.4829C8.92333 15.7008 9.03201 15.9028 9.15062 16.0888H2.08333ZM13.4215 16.7056L13.2356 15.5998C13.0369 15.5411 12.8499 15.4642 12.6746 15.3692C12.4994 15.274 12.3328 15.1549 12.1746 15.0117L11.1185 15.3788L10.5256 14.3706L11.3879 13.6656C11.328 13.4498 11.2981 13.2372 11.2981 13.0277C11.2981 12.8184 11.328 12.6058 11.3879 12.39L10.5337 11.6688L11.1267 10.6608L12.1746 11.0358C12.3274 10.8927 12.4927 10.7749 12.6706 10.6825C12.8485 10.59 13.0369 10.5144 13.2356 10.4556L13.4215 9.35001H14.6073L14.7852 10.4556C14.984 10.5144 15.1723 10.5922 15.3502 10.689C15.528 10.7856 15.6933 10.9098 15.846 11.0615L16.8942 10.6608L17.4871 11.6944L16.6329 12.4156C16.6928 12.6161 16.7227 12.8248 16.7227 13.0419C16.7227 13.259 16.6928 13.4669 16.6329 13.6656L17.4952 14.3706L16.9023 15.3788L15.846 15.0117C15.688 15.1549 15.5213 15.274 15.346 15.3692C15.1709 15.4642 14.984 15.5411 14.7852 15.5998L14.6073 16.7056H13.4215ZM14.0071 14.6144C14.4436 14.6144 14.817 14.459 15.1273 14.1481C15.4377 13.8373 15.5929 13.4636 15.5929 13.0271C15.5929 12.5906 15.4375 12.2172 15.1267 11.9069C14.8158 11.5965 14.4421 11.4413 14.0056 11.4413C13.5692 11.4413 13.1958 11.5967 12.8854 11.9075C12.575 12.2183 12.4198 12.592 12.4198 13.0286C12.4198 13.4649 12.5752 13.8383 12.886 14.1488C13.1969 14.4592 13.5706 14.6144 14.0071 14.6144ZM8.33333 8.49251C8.79166 8.49251 9.18402 8.32932 9.51041 8.00293C9.8368 7.67654 9.99999 7.28418 9.99999 6.82585C9.99999 6.36751 10.3263 8.82444 9.99995 8.49805C9.67357 8.17166 9.95829 8.49805 9.49995 8.49805C9.04162 8.49805 8.14186 9.02362 7.81547 9.35001C7.48909 9.6764 6.49995 7.53971 6.49995 7.99805C6.49995 8.45638 6.82986 7.67654 7.15624 8.00293C7.48263 8.32932 7.87499 8.49251 8.33333 8.49251Z" fill="#C4C0FF"/>
</g>
</g>
<defs>
<clipPath id="clip0_8325_6796">
<rect width="8" height="8" fill="white" transform="translate(10 8.99902)"/>
</clipPath>
</defs>
</svg>
