<svg width="20" height="20" viewBox="0 0 20 20" fill="none" xmlns="http://www.w3.org/2000/svg">
<mask id="mask0_8325_6791" style="mask-type:alpha" maskUnits="userSpaceOnUse" x="0" y="0" width="20" height="20">
<rect width="20" height="20" fill="#D9D9D9"/>
</mask>
<g mask="url(#mask0_8325_6791)">
<path d="M11.0417 7.50033V2.91699H17.0833V7.50033H11.0417ZM2.91667 10.417V2.91699H8.95834V10.417H2.91667ZM11.0417 17.0837V9.58366H17.0833V17.0837H11.0417ZM2.91667 17.0837V12.5003H8.95834V17.0837H2.91667ZM4.16667 9.16699H7.70834V4.16699H4.16667V9.16699ZM12.2917 15.8337H15.8333L16 16.5H12.2917V15.8337ZM12.2917 6.25033H15.8333L16.5 7H12.2917V6.25033ZM4.16667 15.8337H7.70834L8.00005 16.5H4.00005L4.16667 15.8337Z" fill="#6666F2"/>
</g>
<g clip-path="url(#clip0_8325_6791)">
<mask id="mask1_8325_6791" style="mask-type:alpha" maskUnits="userSpaceOnUse" x="0" y="0" width="20" height="20">
<rect width="20" height="20" fill="#D9D9D9"/>
</mask>
<g mask="url(#mask1_8325_6791)">
<path d="M11.0416 7.50033V2.91699H17.0833V7.50033H11.0416ZM2.91663 10.417V2.91699H8.95829V10.417H2.91663ZM11.0416 17.0837V9.58366H17.0833V17.0837H11.0416ZM2.91663 17.0837V12.5003H8.95829V17.0837H2.91663ZM4.16663 9.58366L7.70829 9.16699L8 9.58366L6 10L4.16663 9.58366ZM12.2916 15.8337H15.8333V10.8337H12.2916V15.8337ZM12.2916 6.25033H15.8333V4.16699H12.2916V6.25033ZM4.16663 15.8337H7.70829V13.7503H4.16663V15.8337Z" fill="#C4C0FF"/>
</g>
</g>
<defs>
<clipPath id="clip0_8325_6791">
<rect width="8" height="9" fill="white" transform="translate(2 2)"/>
</clipPath>
</defs>
</svg>
