<svg width="150" height="118" viewBox="0 0 150 118" fill="none" xmlns="http://www.w3.org/2000/svg">
<rect x="21" y="0.5" width="129" height="117" rx="14" fill="#F5F5F5"/>
<path d="M21 14.5C21 6.76801 27.268 0.5 35 0.5H52V117.5H35C27.268 117.5 21 111.232 21 103.5V14.5Z" fill="#E5E5FF"/>
<circle cx="36.5" cy="23" r="5.5" fill="white"/>
<circle cx="36.5" cy="47" r="5.5" fill="white"/>
<circle cx="36.5" cy="71" r="5.5" fill="white"/>
<circle cx="36.5" cy="95" r="5.5" fill="white"/>
<rect y="28.5" width="60" height="60" rx="4" fill="#BEBEEF"/>
<path d="M47.8626 74.9928C47.1596 75.4695 46.3501 75.7656 45.5055 75.855C45.3207 75.8748 45.135 75.8841 44.9492 75.8828C43.5662 75.8828 42.2397 75.3334 41.2618 74.3554C40.2838 73.3774 39.7344 72.051 39.7344 70.668V65.4531C39.7344 65.2687 39.6611 65.0919 39.5307 64.9615C39.4003 64.8311 39.2235 64.7578 39.0391 64.7578H18.1797C17.9953 64.7578 17.8184 64.8311 17.688 64.9615C17.5576 65.0919 17.4844 65.2687 17.4844 65.4531V72.0586C17.4844 73.4417 18.0338 74.7681 19.0118 75.746C19.9897 76.724 21.3162 77.2734 22.6992 77.2734H43.5586C44.2087 77.2734 44.8727 77.2922 45.5263 77.2456C46.9559 77.1226 48.7734 76.5705 48.7734 74.8343V74.2085C48.5083 74.498 48.2095 74.7548 47.8834 74.9733L47.8626 74.9928Z" fill="white"/>
<path d="M48.0781 39.7266H24.4375C24.2531 39.7266 24.0762 39.7998 23.9458 39.9302C23.8154 40.0606 23.7422 40.2375 23.7422 40.4219V42.5148C24.6056 43.161 25.3065 43.9995 25.7893 44.9639C26.2721 45.9282 26.5234 46.9919 26.5234 48.0703C26.5234 49.1488 26.2721 50.2124 25.7893 51.1767C25.3065 52.1411 24.6056 52.9797 23.7422 53.6259V63.3672H39.0391C39.5918 63.3688 40.1214 63.5891 40.5122 63.98C40.9031 64.3708 41.1234 64.9004 41.125 65.4531V70.668C41.125 71.6822 41.5279 72.6549 42.2451 73.3721C42.9623 74.0893 43.935 74.4922 44.9492 74.4922C45.9635 74.4922 46.9362 74.0893 47.6534 73.3721C48.3705 72.6549 48.7734 71.6822 48.7734 70.668V40.4219C48.7734 40.2375 48.7002 40.0606 48.5698 39.9302C48.4394 39.7998 48.2625 39.7266 48.0781 39.7266ZM42.5156 59.1953H31.3906C31.2062 59.1953 31.0294 59.1221 30.899 58.9917C30.7686 58.8613 30.6953 58.6844 30.6953 58.5C30.6953 58.3156 30.7686 58.1387 30.899 58.0083C31.0294 57.8779 31.2062 57.8047 31.3906 57.8047H42.5156C42.7 57.8047 42.8769 57.8779 43.0073 58.0083C43.1377 58.1387 43.2109 58.3156 43.2109 58.5C43.2109 58.6844 43.1377 58.8613 43.0073 58.9917C42.8769 59.1221 42.7 59.1953 42.5156 59.1953ZM42.5156 55.0234H31.3906C31.2062 55.0234 31.0294 54.9502 30.899 54.8198C30.7686 54.6894 30.6953 54.5125 30.6953 54.3281C30.6953 54.1437 30.7686 53.9669 30.899 53.8365C31.0294 53.7061 31.2062 53.6328 31.3906 53.6328H42.5156C42.7 53.6328 42.8769 53.7061 43.0073 53.8365C43.1377 53.9669 43.2109 54.1437 43.2109 54.3281C43.2109 54.5125 43.1377 54.6894 43.0073 54.8198C42.8769 54.9502 42.7 55.0234 42.5156 55.0234ZM42.5156 50.8516H31.3906C31.2062 50.8516 31.0294 50.7783 30.899 50.6479C30.7686 50.5175 30.6953 50.3407 30.6953 50.1562C30.6953 49.9718 30.7686 49.795 30.899 49.6646C31.0294 49.5342 31.2062 49.4609 31.3906 49.4609H42.5156C42.7 49.4609 42.8769 49.5342 43.0073 49.6646C43.1377 49.795 43.2109 49.9718 43.2109 50.1562C43.2109 50.3407 43.1377 50.5175 43.0073 50.6479C42.8769 50.7783 42.7 50.8516 42.5156 50.8516ZM42.5156 46.6797H31.3906C31.2062 46.6797 31.0294 46.6064 30.899 46.476C30.7686 46.3456 30.6953 46.1688 30.6953 45.9844C30.6953 45.8 30.7686 45.6231 30.899 45.4927C31.0294 45.3623 31.2062 45.2891 31.3906 45.2891H42.5156C42.7 45.2891 42.8769 45.3623 43.0073 45.4927C43.1377 45.6231 43.2109 45.8 43.2109 45.9844C43.2109 46.1688 43.1377 46.3456 43.0073 46.476C42.8769 46.6064 42.7 46.6797 42.5156 46.6797Z" fill="white"/>
<path d="M23.7422 40.846C22.4754 40.1097 21.0356 39.7233 19.5703 39.7266C17.3574 39.7266 15.2351 40.6057 13.6704 42.1704C12.1056 43.7352 11.2266 45.8574 11.2266 48.0703C11.2266 50.2832 12.1056 52.4055 13.6704 53.9703C15.2351 55.535 17.3574 56.4141 19.5703 56.4141C21.0356 56.4173 22.4754 56.031 23.7422 55.2946C25.0098 54.5621 26.0624 53.5089 26.7942 52.2408C27.526 50.9727 27.9113 49.5344 27.9113 48.0703C27.9113 46.6062 27.526 45.1679 26.7942 43.8998C26.0624 42.6318 25.0098 41.5786 23.7422 40.846ZM23.7422 53.6259C22.4909 54.5624 20.9602 55.049 19.3978 55.0071C17.8355 54.9651 16.3331 54.3969 15.1339 53.3946C13.9348 52.3923 13.1091 51.0145 12.7906 49.4844C12.4721 47.9543 12.6795 46.3615 13.3791 44.9639C14.0788 43.5664 15.2297 42.4459 16.6456 41.7841C18.0614 41.1222 19.6592 40.9577 21.1802 41.3171C22.7012 41.6766 24.0563 42.539 25.0261 43.7647C25.9958 44.9903 26.5234 46.5074 26.5234 48.0703C26.5259 49.1492 26.2757 50.2137 25.7927 51.1785C25.3097 52.1432 24.6075 52.9814 23.7422 53.6259Z" fill="white"/>
<path d="M18.8752 51.5482C18.6909 51.5481 18.514 51.4748 18.3837 51.3444L16.2977 49.2585C16.1711 49.1274 16.101 48.9517 16.1026 48.7694C16.1041 48.5871 16.1773 48.4127 16.3062 48.2838C16.4351 48.1549 16.6095 48.0817 16.7918 48.0802C16.9741 48.0786 17.1498 48.1487 17.2809 48.2753L18.8412 49.8356L23.2216 44.8293C23.3432 44.6905 23.5149 44.6056 23.699 44.5933C23.8831 44.5811 24.0646 44.6425 24.2034 44.764C24.3423 44.8855 24.4272 45.0572 24.4394 45.2413C24.4517 45.4255 24.3903 45.6069 24.2688 45.7458L19.4016 51.3083C19.3387 51.3798 19.2618 51.4377 19.1758 51.4785C19.0897 51.5193 18.9962 51.542 18.901 51.5454L18.8752 51.5482Z" fill="white"/>
<rect x="68" y="29.5" width="67" height="6" rx="3" fill="url(#paint0_linear_9038_5243)" fill-opacity="0.2"/>
<rect x="68" y="40.5" width="51" height="6" rx="3" fill="url(#paint1_linear_9038_5243)" fill-opacity="0.2"/>
<g opacity="0.4">
<rect x="68" y="72.5" width="67" height="6" rx="3" fill="url(#paint2_linear_9038_5243)" fill-opacity="0.2"/>
<rect x="68" y="83.5" width="51" height="6" rx="3" fill="url(#paint3_linear_9038_5243)" fill-opacity="0.2"/>
</g>
<defs>
<linearGradient id="paint0_linear_9038_5243" x1="68" y1="32.5" x2="135" y2="32.5" gradientUnits="userSpaceOnUse">
<stop stop-color="#D9D9D9"/>
<stop offset="1" stop-color="#737373"/>
</linearGradient>
<linearGradient id="paint1_linear_9038_5243" x1="68" y1="43.5" x2="119" y2="43.5" gradientUnits="userSpaceOnUse">
<stop stop-color="#D9D9D9"/>
<stop offset="1" stop-color="#737373"/>
</linearGradient>
<linearGradient id="paint2_linear_9038_5243" x1="68" y1="75.5" x2="135" y2="75.5" gradientUnits="userSpaceOnUse">
<stop stop-color="#D9D9D9"/>
<stop offset="1" stop-color="#737373"/>
</linearGradient>
<linearGradient id="paint3_linear_9038_5243" x1="68" y1="86.5" x2="119" y2="86.5" gradientUnits="userSpaceOnUse">
<stop stop-color="#D9D9D9"/>
<stop offset="1" stop-color="#737373"/>
</linearGradient>
</defs>
</svg>
