<svg width="20" height="20" viewBox="0 0 20 20" fill="none" xmlns="http://www.w3.org/2000/svg">
<path d="M4.5 5.49902L3.5 7.49902L5.5 8.99902V10.999L3 12.499L4 14.499L7 13.499L8.5 14.499L9 16.999H11V14.499L13 13.499L15.5 13.999L16.5 12.999L14.5 10.999V8.99902L16.5 6.99902L15.5 5.49902L13 6.49902L11.5 5.49902V2.99902H10.5H9L8.5 5.49902L6.5 6.49902L4.5 5.49902Z" fill="#C4C0FF" stroke="#C4C0FF" stroke-width="0.5"/>
<mask id="mask0_8325_6797" style="mask-type:alpha" maskUnits="userSpaceOnUse" x="0" y="0" width="20" height="20">
<rect width="20" height="20" fill="#D9D9D9"/>
</mask>
<g mask="url(#mask0_8325_6797)">
<path d="M8.07687 17.9163L7.75958 15.3778C7.53639 15.3031 7.3075 15.1984 7.07292 15.0638C6.83847 14.9291 6.62882 14.7849 6.44396 14.6311L4.09292 15.6247L2.17 12.2913L4.20354 10.7545C4.18437 10.6306 4.17076 10.5061 4.16271 10.3811C4.15465 10.2561 4.15062 10.1316 4.15062 10.0076C4.15062 9.88912 4.15465 9.7687 4.16271 9.64634C4.17076 9.52398 4.18437 9.39016 4.20354 9.24488L2.17 7.70801L4.09292 4.39072L6.43583 5.37634C6.6368 5.21717 6.85132 5.07162 7.07937 4.93967C7.30743 4.80773 7.53153 4.70169 7.75166 4.62155L8.07687 2.08301H11.9231L12.2404 4.62947C12.4904 4.7203 12.7166 4.82634 12.919 4.94759C13.1215 5.06884 13.3258 5.21176 13.5321 5.37634L15.9071 4.39072L17.83 7.70801L15.7644 9.26884C15.7942 9.40342 15.8106 9.52926 15.8133 9.64634C15.816 9.76329 15.8173 9.88106 15.8173 9.99967C15.8173 10.1129 15.8146 10.228 15.8092 10.3451C15.8039 10.462 15.7847 10.5959 15.7517 10.7465L17.8013 12.2913L15.8781 15.6247L13.5321 14.623C13.3258 14.7876 13.1153 14.9331 12.9006 15.0597C12.6859 15.1863 12.4658 15.2897 12.2404 15.3699L11.9231 17.9163H8.07687ZM9.16667 16.6663H10.8046L11.1042 14.434C11.5294 14.3229 11.9181 14.1651 12.27 13.9605C12.6221 13.7558 12.9616 13.4927 13.2885 13.1711L15.359 14.0413L16.1796 12.6247L14.3719 11.2626C14.4413 11.0468 14.4885 10.8352 14.5135 10.6278C14.5387 10.4206 14.5512 10.2112 14.5512 9.99967C14.5512 9.78273 14.5387 9.57336 14.5135 9.37155C14.4885 9.16961 14.4413 8.96336 14.3719 8.7528L16.1954 7.37467L15.375 5.95801L13.2804 6.84092C13.0015 6.54287 12.6674 6.27954 12.2781 6.05093C11.8887 5.82231 11.4947 5.66044 11.0962 5.5653L10.8333 3.33301H9.17958L8.90375 5.55738C8.47861 5.6578 8.08604 5.81162 7.72604 6.01884C7.3659 6.2262 7.02236 6.49329 6.69542 6.82009L4.625 5.95801L3.80458 7.37467L5.60416 8.71592C5.53472 8.9137 5.48611 9.1194 5.45833 9.33301C5.43055 9.54662 5.41666 9.77148 5.41666 10.0076C5.41666 10.2245 5.43055 10.4372 5.45833 10.6455C5.48611 10.8538 5.53208 11.0595 5.59625 11.2626L3.80458 12.6247L4.625 14.0413L6.6875 13.1663C7.00375 13.4911 7.34187 13.7571 7.70187 13.9645C8.06201 14.1717 8.46 14.3309 8.89583 14.442L9.16667 16.6663ZM10.0096 12.4997C10.7029 12.4997 11.2929 12.2563 11.7796 11.7697C12.2662 11.283 12.5096 10.693 12.5096 9.99967C12.5096 9.30634 12.2662 8.71634 11.7796 8.22967C11.2929 7.74301 10.7029 7.49967 10.0096 7.49967C9.30764 7.49967 8.71549 7.74301 8.23312 8.22967C7.75076 8.71634 7.50958 9.30634 7.50958 9.99967C7.50958 10.693 7.75076 11.283 8.23312 11.7697C8.71549 12.2563 9.30764 12.4997 10.0096 12.4997Z" fill="#6666F2"/>
</g>
</svg>
