<svg width="20" height="21" viewBox="0 0 20 21" fill="none" xmlns="http://www.w3.org/2000/svg">
<mask id="mask0_8297_2102" style="mask-type:alpha" maskUnits="userSpaceOnUse" x="0" y="0" width="20" height="21">
<rect y="0.491211" width="20" height="20" fill="#D9D9D9"/>
</mask>
<g mask="url(#mask0_8297_2102)">
<path d="M5 18.4075C4.41778 18.4075 3.925 18.2058 3.52167 17.8025C3.11833 17.3992 2.91667 16.9076 2.91667 16.3279V14.2408H5.41667V2.73438L6.57063 3.72813L7.74042 2.73438L8.91021 3.72813L10.0802 2.73438L11.25 3.72813L12.4198 2.73438L13.5898 3.72813L14.7596 2.73438L15.9294 3.72813L17.0833 2.73438V16.3242C17.0833 16.9064 16.8817 17.3992 16.4783 17.8025C16.075 18.2058 15.5822 18.4075 15 18.4075H5ZM15 17.1575C15.2361 17.1575 15.434 17.0776 15.5938 16.9179C15.7535 16.7582 15.8333 16.5603 15.8333 16.3242V4.6575H6.66667V14.2408H14.1667V16.3242C14.1667 16.5603 14.2465 16.7582 14.4063 16.9179C14.566 17.0776 14.7639 17.1575 15 17.1575ZM7.66021 7.7825V6.5325H12.3877V7.7825H7.66021ZM7.66021 10.2825V9.0325H12.3877V10.2825H7.66021ZM14.1185 7.89458C13.9145 7.89458 13.7406 7.82278 13.5969 7.67917C13.4533 7.53542 13.3815 7.36153 13.3815 7.1575C13.3815 6.95347 13.4533 6.77958 13.5969 6.63583C13.7406 6.49222 13.9145 6.42042 14.1185 6.42042C14.3226 6.42042 14.4965 6.49222 14.6402 6.63583C14.784 6.77958 14.8558 6.95347 14.8558 7.1575C14.8558 7.36153 14.784 7.53542 14.6402 7.67917C14.4965 7.82278 14.3226 7.89458 14.1185 7.89458ZM14.1185 10.3946C13.9145 10.3946 13.7406 10.3228 13.5969 10.1792C13.4533 10.0354 13.3815 9.86153 13.3815 9.6575C13.3815 9.45347 13.4533 9.27958 13.5969 9.13583C13.7406 8.99222 13.9145 8.92042 14.1185 8.92042C14.3226 8.92042 14.4965 8.99222 14.6402 9.13583C14.784 9.27958 14.8558 9.45347 14.8558 9.6575C14.8558 9.86153 14.784 10.0354 14.6402 10.1792C14.4965 10.3228 14.3226 10.3946 14.1185 10.3946ZM5 17.1575H12.9167V15.4908H4.16667V16.3242C4.16667 16.5603 4.24653 16.7582 4.40625 16.9179C4.56597 17.0776 4.76389 17.1575 5 17.1575Z" fill="#1A1A1A"/>
</g>
</svg>
