<svg width="20" height="21" viewBox="0 0 20 21" fill="none" xmlns="http://www.w3.org/2000/svg">
<mask id="mask0_8297_2156" style="mask-type:alpha" maskUnits="userSpaceOnUse" x="0" y="0" width="20" height="21">
<rect y="0.492188" width="20" height="20" fill="#D9D9D9"/>
</mask>
<g mask="url(#mask0_8297_2156)">
<path d="M8.07687 18.4095L7.75958 15.871C7.53639 15.7962 7.3075 15.6916 7.07292 15.557C6.83847 15.4223 6.62882 15.278 6.44396 15.1243L4.09292 16.1178L2.17 12.7845L4.20354 11.2476C4.18437 11.1237 4.17076 10.9993 4.16271 10.8743C4.15465 10.7493 4.15062 10.6248 4.15062 10.5008C4.15062 10.3823 4.15465 10.2619 4.16271 10.1395C4.17076 10.0171 4.18437 9.88333 4.20354 9.73805L2.17 8.20117L4.09292 4.88388L6.43583 5.86951C6.6368 5.71034 6.85132 5.56478 7.07937 5.43284C7.30743 5.30089 7.53153 5.19485 7.75166 5.11471L8.07687 2.57617H11.9231L12.2404 5.12263C12.4904 5.21346 12.7166 5.31951 12.919 5.44076C13.1215 5.56201 13.3258 5.70492 13.5321 5.86951L15.9071 4.88388L17.83 8.20117L15.7644 9.76201C15.7942 9.89659 15.8106 10.0224 15.8133 10.1395C15.816 10.2564 15.8173 10.3742 15.8173 10.4928C15.8173 10.606 15.8146 10.7212 15.8092 10.8383C15.8039 10.9552 15.7847 11.089 15.7517 11.2397L17.8013 12.7845L15.8781 16.1178L13.5321 15.1162C13.3258 15.2808 13.1153 15.4263 12.9006 15.5528C12.6859 15.6795 12.4658 15.7829 12.2404 15.863L11.9231 18.4095H8.07687ZM9.16667 17.1595H10.8046L11.1042 14.9272C11.5294 14.8161 11.9181 14.6583 12.27 14.4537C12.6221 14.249 12.9616 13.9858 13.2885 13.6643L15.359 14.5345L16.1796 13.1178L14.3719 11.7558C14.4413 11.5399 14.4885 11.3283 14.5135 11.121C14.5387 10.9137 14.5512 10.7044 14.5512 10.4928C14.5512 10.2759 14.5387 10.0665 14.5135 9.86471C14.4885 9.66277 14.4413 9.45652 14.3719 9.24596L16.1954 7.86784L15.375 6.45117L13.2804 7.33409C13.0015 7.03603 12.6674 6.7727 12.2781 6.54409C11.8887 6.31548 11.4947 6.1536 11.0962 6.05846L10.8333 3.82617H9.17958L8.90375 6.05055C8.47861 6.15096 8.08604 6.30478 7.72604 6.512C7.3659 6.71937 7.02236 6.98645 6.69542 7.31326L4.625 6.45117L3.80458 7.86784L5.60416 9.20909C5.53472 9.40687 5.48611 9.61256 5.45833 9.82617C5.43055 10.0398 5.41666 10.2646 5.41666 10.5008C5.41666 10.7177 5.43055 10.9303 5.45833 11.1387C5.48611 11.347 5.53208 11.5527 5.59625 11.7558L3.80458 13.1178L4.625 14.5345L6.6875 13.6595C7.00375 13.9842 7.34187 14.2503 7.70187 14.4576C8.06201 14.6649 8.46 14.824 8.89583 14.9351L9.16667 17.1595ZM10.0096 12.9928C10.7029 12.9928 11.2929 12.7495 11.7796 12.2628C12.2662 11.7762 12.5096 11.1862 12.5096 10.4928C12.5096 9.79951 12.2662 9.2095 11.7796 8.72284C11.2929 8.23617 10.7029 7.99284 10.0096 7.99284C9.30764 7.99284 8.71548 8.23617 8.23312 8.72284C7.75076 9.2095 7.50958 9.79951 7.50958 10.4928C7.50958 11.1862 7.75076 11.7762 8.23312 12.2628C8.71548 12.7495 9.30764 12.9928 10.0096 12.9928Z" fill="#1A1A1A"/>
</g>
</svg>
