<svg width="20" height="20" viewBox="0 0 20 20" fill="none" xmlns="http://www.w3.org/2000/svg">
<path d="M6 4H16V14C16 14 16.2349 17 15 17C13.7651 17 14 14 14 14H6V4Z" fill="#C4C0FF"/>
<mask id="mask0_8325_6793" style="mask-type:alpha" maskUnits="userSpaceOnUse" x="0" y="0" width="20" height="20">
<rect width="20" height="20" fill="#D9D9D9"/>
</mask>
<g mask="url(#mask0_8325_6793)">
<path d="M5.00001 17.9163C4.41778 17.9163 3.925 17.7146 3.52167 17.3113C3.11834 16.908 2.91667 16.4164 2.91667 15.8367V13.7496H5.41667V2.24316L6.57063 3.23691L7.74042 2.24316L8.91021 3.23691L10.0802 2.24316L11.25 3.23691L12.4198 2.24316L13.5898 3.23691L14.7596 2.24316L15.9294 3.23691L17.0833 2.24316V15.833C17.0833 16.4152 16.8817 16.908 16.4783 17.3113C16.075 17.7146 15.5822 17.9163 15 17.9163H5.00001ZM15 16.6663C15.2361 16.6663 15.434 16.5864 15.5938 16.4267C15.7535 16.267 15.8333 16.0691 15.8333 15.833V4.16629H6.66667V13.7496H14.1667V15.833C14.1667 16.0691 14.2465 16.267 14.4063 16.4267C14.566 16.5864 14.7639 16.6663 15 16.6663ZM7.66021 7.29129V6.04129H12.3877V7.29129H7.66021ZM7.66021 9.79129V8.54129H12.3877V9.79129H7.66021ZM14.1185 7.40337C13.9145 7.40337 13.7406 7.33157 13.5969 7.18796C13.4533 7.04421 13.3815 6.87032 13.3815 6.66629C13.3815 6.46226 13.4533 6.28837 13.5969 6.14462C13.7406 6.00101 13.9145 5.92921 14.1185 5.92921C14.3226 5.92921 14.4965 6.00101 14.6402 6.14462C14.784 6.28837 14.8558 6.46226 14.8558 6.66629C14.8558 6.87032 14.784 7.04421 14.6402 7.18796C14.4965 7.33157 14.3226 7.40337 14.1185 7.40337ZM14.1185 9.90337C13.9145 9.90337 13.7406 9.83157 13.5969 9.68796C13.4533 9.54421 13.3815 9.37032 13.3815 9.16629C13.3815 8.96226 13.4533 8.78837 13.5969 8.64462C13.7406 8.50101 13.9145 8.42921 14.1185 8.42921C14.3226 8.42921 14.4965 8.50101 14.6402 8.64462C14.784 8.78837 14.8558 8.96226 14.8558 9.16629C14.8558 9.37032 14.784 9.54421 14.6402 9.68796C14.4965 9.83157 14.3226 9.90337 14.1185 9.90337ZM5.00001 16.6663H12.9167V14.8741H4.16667V15.7702C4.16667 16.0063 4.24653 16.267 4.40626 16.4267C4.56598 16.5864 4.76389 16.6663 5.00001 16.6663Z" fill="#6666F2"/>
</g>
</svg>
