<svg width="166" height="117" viewBox="0 0 166 117" fill="none" xmlns="http://www.w3.org/2000/svg">
<rect x="-0.000976562" y="26.3477" width="99.9536" height="90.6556" rx="10.8477" fill="#EAEAEA"/>
<rect x="9.29785" y="36.418" width="80.5828" height="28.6689" rx="3.09934" fill="white"/>
<rect x="9.29785" y="72.0605" width="51.9139" height="4.64901" rx="2.3245" fill="url(#paint0_linear_9038_5154)"/>
<rect x="9.29785" y="80.584" width="39.5166" height="4.64901" rx="2.3245" fill="url(#paint1_linear_9038_5154)"/>
<g opacity="0.4">
<rect x="9.29785" y="92.9805" width="51.9139" height="4.64901" rx="2.3245" fill="url(#paint2_linear_9038_5154)"/>
<rect x="9.29785" y="101.504" width="39.5166" height="4.64901" rx="2.3245" fill="url(#paint3_linear_9038_5154)"/>
</g>
<rect x="65.0859" width="99.9536" height="90.6556" rx="10.8477" fill="white"/>
<rect x="74.7715" y="12.7852" width="80.5828" height="28.6689" rx="3.09934" fill="#BEBEEF"/>
<rect x="74.7715" y="49.2031" width="17.8212" height="28.6689" rx="3.09934" fill="#BEBEEF"/>
<rect x="100.341" y="49.2031" width="55.0132" height="28.6689" rx="3.09934" fill="#BEBEEF"/>
<defs>
<linearGradient id="paint0_linear_9038_5154" x1="9.29785" y1="74.3851" x2="61.2118" y2="74.3851" gradientUnits="userSpaceOnUse">
<stop stop-color="white"/>
<stop offset="1" stop-color="#F0F0F0"/>
</linearGradient>
<linearGradient id="paint1_linear_9038_5154" x1="9.29785" y1="82.9085" x2="48.8144" y2="82.9085" gradientUnits="userSpaceOnUse">
<stop stop-color="white"/>
<stop offset="1" stop-color="#F0F0F0"/>
</linearGradient>
<linearGradient id="paint2_linear_9038_5154" x1="9.29785" y1="95.305" x2="61.2118" y2="95.305" gradientUnits="userSpaceOnUse">
<stop stop-color="white"/>
<stop offset="1" stop-color="#F0F0F0"/>
</linearGradient>
<linearGradient id="paint3_linear_9038_5154" x1="9.29785" y1="103.828" x2="48.8144" y2="103.828" gradientUnits="userSpaceOnUse">
<stop stop-color="white"/>
<stop offset="1" stop-color="#F0F0F0"/>
</linearGradient>
</defs>
</svg>
