<svg width="158" height="126" viewBox="0 0 158 126" fill="none" xmlns="http://www.w3.org/2000/svg">
<rect y="8.5" width="129" height="117" rx="14" fill="white"/>
<path d="M0 22.5C0 14.768 6.26801 8.5 14 8.5H31V125.5H14C6.26801 125.5 0 119.232 0 111.5V22.5Z" fill="#E5E5FF"/>
<circle cx="15.5" cy="31" r="5.5" fill="white"/>
<circle cx="15.5" cy="55" r="5.5" fill="white"/>
<circle cx="15.5" cy="79" r="5.5" fill="white"/>
<circle cx="15.5" cy="103" r="5.5" fill="white"/>
<rect x="47" y="37.5" width="67" height="6" rx="3" fill="url(#paint0_linear_9023_4459)" fill-opacity="0.2"/>
<rect x="47" y="48.5" width="51" height="6" rx="3" fill="url(#paint1_linear_9023_4459)" fill-opacity="0.2"/>
<g opacity="0.4">
<rect x="47" y="80.5" width="67" height="6" rx="3" fill="url(#paint2_linear_9023_4459)" fill-opacity="0.2"/>
<rect x="47" y="91.5" width="51" height="6" rx="3" fill="url(#paint3_linear_9023_4459)" fill-opacity="0.2"/>
</g>
<rect x="99" width="59" height="61" rx="4" fill="#BEBEEF"/>
<path d="M116.125 22.9746H145.164H146.5C146.992 22.9746 147.484 23.1152 147.977 23.3262V20.0918C147.977 16.9277 145.445 14.3262 142.281 14.1855V16.998V17.4199C142.281 18.1934 141.648 18.8262 140.875 18.8262C140.102 18.8262 139.469 18.123 139.469 17.4199C139.469 17.2793 139.469 17.1387 139.469 16.998C139.469 16.084 139.469 15.1699 139.469 14.1855H122.102V16.998V17.2793C122.102 18.0527 121.469 18.6855 120.695 18.6855C119.922 18.6855 119.289 17.9824 119.289 17.2793C119.289 17.209 119.289 17.0684 119.289 16.998C119.289 16.9277 119.289 16.9277 119.289 16.8574C119.289 15.9434 119.289 15.0996 119.289 14.1855C116.055 14.1855 113.383 16.8574 113.383 20.0918V24.8027C113.805 23.6777 114.859 22.9746 116.125 22.9746Z" fill="white"/>
<path d="M145.164 41.6777C144.18 43.6465 142.211 44.8418 140.102 44.8418H116.899H113.735C114.578 47.1621 116.758 48.7793 119.289 48.7793H142.071C145.305 48.7793 147.977 46.1074 147.977 42.873V34.3652C147.766 35.1387 147.485 35.9824 147.203 36.7559C146.641 38.373 145.938 40.0605 145.164 41.6777Z" fill="white"/>
<path d="M146.5 25.7871H116.125C115.984 25.7871 115.914 25.8574 115.914 25.998C115.492 29.4434 114.648 32.8184 113.523 36.0527C112.961 37.5293 112.328 39.0762 111.625 40.5527C111.344 41.1855 111.766 42.0293 112.539 42.0293H140.172C141.227 42.0293 142.211 41.3965 142.703 40.4824C143.406 39.0059 144.039 37.3887 144.602 35.8418C145.727 32.6777 146.43 29.373 146.781 26.0684C146.781 25.998 146.781 25.9277 146.711 25.8574C146.641 25.7871 146.57 25.7871 146.5 25.7871ZM135.813 31.4824C133.914 33.3809 132.016 35.2793 130.047 37.248C129.484 37.8105 128.57 37.8105 128.078 37.248C126.742 35.9121 125.406 34.5762 124.07 33.2402C122.805 31.9746 124.773 29.9355 126.039 31.2715C127.023 32.2559 128.078 33.3105 129.063 34.2949C130.68 32.6777 132.227 31.1309 133.844 29.5137C135.109 28.248 137.078 30.2168 135.813 31.4824Z" fill="white"/>
<defs>
<linearGradient id="paint0_linear_9023_4459" x1="47" y1="40.5" x2="114" y2="40.5" gradientUnits="userSpaceOnUse">
<stop stop-color="#D9D9D9"/>
<stop offset="1" stop-color="#737373"/>
</linearGradient>
<linearGradient id="paint1_linear_9023_4459" x1="47" y1="51.5" x2="98" y2="51.5" gradientUnits="userSpaceOnUse">
<stop stop-color="#D9D9D9"/>
<stop offset="1" stop-color="#737373"/>
</linearGradient>
<linearGradient id="paint2_linear_9023_4459" x1="47" y1="83.5" x2="114" y2="83.5" gradientUnits="userSpaceOnUse">
<stop stop-color="#D9D9D9"/>
<stop offset="1" stop-color="#737373"/>
</linearGradient>
<linearGradient id="paint3_linear_9023_4459" x1="47" y1="94.5" x2="98" y2="94.5" gradientUnits="userSpaceOnUse">
<stop stop-color="#D9D9D9"/>
<stop offset="1" stop-color="#737373"/>
</linearGradient>
</defs>
</svg>
