<svg width="20" height="21" viewBox="0 0 20 21" fill="none" xmlns="http://www.w3.org/2000/svg">
<mask id="mask0_8297_2084" style="mask-type:alpha" maskUnits="userSpaceOnUse" x="0" y="0" width="20" height="21">
<rect y="0.491211" width="20" height="20" fill="#D9D9D9"/>
</mask>
<g mask="url(#mask0_8297_2084)">
<path d="M12.5013 16.7412C10.7568 16.7412 9.27882 16.1359 8.06729 14.9252C6.85576 13.7145 6.25 12.2369 6.25 10.4925C6.25 8.74802 6.85535 7.27003 8.06604 6.0585C9.27674 4.84697 10.7543 4.24121 12.4987 4.24121C14.2432 4.24121 15.7212 4.84656 16.9327 6.05725C18.1442 7.26795 18.75 8.74552 18.75 10.49C18.75 12.2344 18.1447 13.7124 16.934 14.9239C15.7233 16.1354 14.2457 16.7412 12.5013 16.7412ZM5.83333 16.5168C4.46792 16.1546 3.36271 15.415 2.51771 14.2981C1.67257 13.1811 1.25 11.9122 1.25 10.4912C1.25 9.07024 1.67257 7.80128 2.51771 6.68434C3.36271 5.56739 4.46792 4.82781 5.83333 4.46559V5.78288C4.83333 6.1301 4.02778 6.73427 3.41667 7.59538C2.80556 8.45649 2.5 9.42177 2.5 10.4912C2.5 11.5607 2.80556 12.5259 3.41667 13.387C4.02778 14.2482 4.83333 14.8523 5.83333 15.1995V16.5168ZM12.5 15.4912C13.8889 15.4912 15.0694 15.0051 16.0417 14.0329C17.0139 13.0607 17.5 11.8801 17.5 10.4912C17.5 9.10232 17.0139 7.92177 16.0417 6.94954C15.0694 5.97732 13.8889 5.49121 12.5 5.49121C11.1111 5.49121 9.93056 5.97732 8.95833 6.94954C7.98611 7.92177 7.5 9.10232 7.5 10.4912C7.5 11.8801 7.98611 13.0607 8.95833 14.0329C9.93056 15.0051 11.1111 15.4912 12.5 15.4912Z" fill="#1A1A1A"/>
</g>
</svg>
