<svg width="20" height="20" viewBox="0 0 20 20" fill="none" xmlns="http://www.w3.org/2000/svg">
<mask id="mask0_8325_6748" style="mask-type:alpha" maskUnits="userSpaceOnUse" x="0" y="0" width="20" height="20">
<rect width="20" height="20" fill="#D9D9D9"/>
</mask>
<g mask="url(#mask0_8325_6748)">
<path d="M12.5013 16.25C10.7568 16.25 9.27882 15.6447 8.06729 14.434C6.85576 13.2233 6.25 11.7457 6.25 10.0012C6.25 8.25681 6.85535 6.77882 8.06604 5.56729C9.27674 4.35576 10.7543 3.75 12.4987 3.75C14.2432 3.75 15.7212 4.35535 16.9327 5.56604C18.1442 6.77674 18.75 8.25431 18.75 9.99875C18.75 11.7432 18.1447 13.2212 16.934 14.4327C15.7233 15.6442 14.2457 16.25 12.5013 16.25ZM5.83333 16.0256C4.46792 15.6634 3.36271 14.9238 2.51771 13.8069C1.67257 12.6899 1.25 11.421 1.25 10C1.25 8.57903 1.67257 7.31007 2.51771 6.19313C3.36271 5.07618 4.46792 4.3366 5.83333 3.97438V5.29167C4.83333 5.63889 4.02778 6.24306 3.41667 7.10417C2.80556 7.96528 2.5 8.93056 2.5 10C2.5 11.0694 2.80556 12.0347 3.41667 12.8958C4.02778 13.7569 4.83333 14.3611 5.83333 14.7083V16.0256ZM12.5 15C13.8889 15 15.0694 14.5139 16.0417 13.5417C17.0139 12.5694 17.5 11.3889 17.5 10C17.5 8.61111 17.0139 7.43056 16.0417 6.45833C15.0694 5.48611 13.8889 5 12.5 5C11.1111 5 9.93056 5.48611 8.95833 6.45833C7.98611 7.43056 7.5 8.61111 7.5 10C7.5 11.3889 7.98611 12.5694 8.95833 13.5417C9.93056 14.5139 11.1111 15 12.5 15Z" fill="#6666F2"/>
</g>
<g clip-path="url(#clip0_8325_6748)">
<mask id="mask1_8325_6748" style="mask-type:alpha" maskUnits="userSpaceOnUse" x="0" y="0" width="20" height="20">
<rect width="20" height="20" fill="#D9D9D9"/>
</mask>
<g mask="url(#mask1_8325_6748)">
<path d="M12.5013 16.25C10.7568 16.25 9.27882 15.6447 8.06729 14.434C6.85576 13.2233 6.25 11.7457 6.25 10.0012C6.25 8.25681 6.85535 6.77882 8.06604 5.56729C9.27674 4.35576 10.7543 3.75 12.4987 3.75C14.2432 3.75 15.7212 4.35535 16.9327 5.56604C18.1442 6.77674 18.75 8.25431 18.75 9.99875C18.75 11.7432 18.1447 13.2212 16.934 14.4327C15.7233 15.6442 14.2457 16.25 12.5013 16.25ZM5.83333 16.0256C4.46792 15.6634 3.36271 14.9238 2.51771 13.8069C1.67257 12.6899 1.25 11.421 1.25 10C1.25 8.57903 1.67257 7.31007 2.51771 6.19313C3.36271 5.07618 4.46792 4.3366 5.83333 3.97438V5.29167C4.83333 5.63889 4.02778 6.24306 3.41667 7.10417C2.80556 7.96528 2.5 8.93056 2.5 10C2.5 11.0694 2.80556 12.0347 3.41667 12.8958C4.02778 13.7569 4.83333 14.3611 5.83333 14.7083V16.0256ZM12.5 15C13.8889 15 15.0694 14.5139 16.0417 13.5417C17.0139 12.5694 17.5 11.3889 17.5 10C17.5 8.61111 17.4722 14.981 16.5 14.0088C15.5278 13.0366 15.3889 15.0088 14 15.0088C12.6111 15.0088 12.385 14.9989 11 15.0088C10.0278 15.981 10 13.3194 10 14.7083C10 16.0972 7.98611 12.5694 8.95833 13.5417C9.93056 14.5139 11.1111 15 12.5 15Z" fill="#C4C0FF"/>
</g>
</g>
<defs>
<clipPath id="clip0_8325_6748">
<rect width="13" height="13" fill="white" transform="translate(6 3.50879)"/>
</clipPath>
</defs>
</svg>
