<svg width="273" height="172" viewBox="0 0 273 172" fill="none" xmlns="http://www.w3.org/2000/svg">
<path d="M233.439 132.845L237.871 133.944L238.972 129.504L240.74 129.942L239.64 134.382L244.072 135.481L243.633 137.253L239.201 136.154L238.1 140.594L236.332 140.156L237.432 135.716L233 134.617L233.439 132.845Z" fill="#6D6DBF"/>
<path d="M253.261 166.675C256.868 170.709 263.063 171.054 267.096 167.446C271.13 163.838 271.476 157.644 267.868 153.61C264.26 149.577 258.066 149.231 254.032 152.839C249.998 156.447 249.653 162.641 253.261 166.675ZM255.89 164.323C253.581 161.742 253.802 157.777 256.384 155.468C258.965 153.159 262.93 153.38 265.239 155.962C267.548 158.544 267.327 162.508 264.745 164.817C262.163 167.126 258.199 166.905 255.89 164.323Z" fill="#E4E7FF"/>
<path d="M10.6391 35.1161C11.7985 32.7579 10.8267 29.9063 8.46849 28.7469C6.11027 27.5875 3.25868 28.5593 2.09928 30.9176C0.93988 33.2758 1.91171 36.1274 4.26993 37.2868C6.62815 38.4462 9.47975 37.4743 10.6391 35.1161Z" fill="#4E2DA3"/>
<path d="M267.985 113.182C264.768 112.375 261.505 114.329 260.698 117.547C259.89 120.764 261.844 124.027 265.062 124.834C268.28 125.642 271.543 123.687 272.35 120.47C273.157 117.252 271.203 113.989 267.985 113.182ZM267.459 115.279C269.518 115.796 270.769 117.884 270.253 119.944C269.736 122.003 267.648 123.254 265.588 122.737C263.529 122.22 262.278 120.132 262.795 118.073C263.312 116.013 265.4 114.763 267.459 115.279Z" fill="#CECDFF"/>
<path d="M204.513 67.9931L199.767 61.0374C199.185 60.1849 198.167 59.6673 197.073 59.6673H101.666C100.711 59.6673 99.8231 59.2147 99.3169 58.4698L97.2135 55.3748C96.6323 54.5195 95.6131 54 94.5164 54H52.6554C51.3548 54 50.1853 54.7282 49.7023 55.8387L48.3431 58.9638C48.0813 59.5658 47.6759 60.1058 47.1561 60.5439C46.5831 61.0269 45.898 61.5448 45.5839 61.779C45.3474 61.9553 45.1584 62.1848 45.0686 62.4523C45.0235 62.5866 45 62.7275 45 62.8704V164.877C45 168.811 48.4679 172 52.7458 172H197.522C201.652 172 205 168.921 205 165.123V69.548C205 68.9979 204.831 68.459 204.513 67.9931Z" fill="#7E58CE"/>
<path d="M197.761 162.763H46.3161C46.1839 162.763 46.0768 162.657 45 163V54.0648C46.0767 53.4608 46.4232 53 46.5553 53L197.761 53.3549C197.893 53.3549 198 53.4609 198 53.5915V162.527C198 162.657 197.893 162.763 197.761 162.763Z" fill="#A1A1FF"/>
<path d="M159.341 92.4393H103.534C102.7 92.4393 102.023 91.7631 102.023 90.9291V90.9086C102.023 90.0746 102.7 89.3984 103.534 89.3984H159.341C160.175 89.3984 160.851 90.0746 160.851 90.9086V90.9291C160.851 91.7631 160.175 92.4393 159.341 92.4393Z" fill="#F3F5FF"/>
<path d="M147.793 130H103.207C102.54 130 102 129.778 102 129.503V129.497C102 129.222 102.54 129 103.207 129H147.793C148.46 129 149 129.222 149 129.497V129.503C149 129.778 148.46 130 147.793 130Z" fill="#F3F5FF"/>
<path d="M143.669 85.8885H103.534C102.7 85.8885 102.023 85.2124 102.023 84.3783V84.3578C102.023 83.5238 102.7 82.8477 103.534 82.8477H143.669C144.503 82.8477 145.18 83.5238 145.18 84.3578V84.3783C145.18 85.2123 144.503 85.8885 143.669 85.8885Z" fill="white"/>
<path d="M134.81 124H103.19C102.533 124 102 123.555 102 123.007V122.993C102 122.445 102.533 122 103.19 122H134.81C135.467 122 136 122.445 136 122.993V123.007C136 123.555 135.467 124 134.81 124Z" fill="white"/>
<g clip-path="url(#clip0_1767_9712)">
<path d="M90.7514 67.2266H88.4453V105.431H90.7514C94.5565 105.431 97.6697 102.318 97.6697 98.5128V74.1449C97.6697 70.3398 94.5565 67.2266 90.7514 67.2266Z" fill="#A1A1FF"/>
<path d="M95.3516 74.1449V98.5127C95.3516 102.318 92.2383 105.431 88.4333 105.431H66.3714C62.5663 105.431 59.4531 102.318 59.4531 98.5128V74.1449C59.4531 70.3398 62.5663 67.2266 66.3714 67.2266H88.4332C92.2383 67.2266 95.3516 70.3398 95.3516 74.1449Z" fill="#60439D"/>
<path d="M95.9278 74.7015V97.9618C95.9278 101.594 92.8405 104.566 89.0671 104.566H67.1888C63.4154 104.566 60.3281 101.594 60.3281 97.9618V74.7015C60.3281 71.0694 63.4154 68.0977 67.1888 68.0977H89.067C92.8404 68.0977 95.9278 71.0694 95.9278 74.7015Z" fill="white"/>
<path d="M73.1014 97.0772C72.6931 97.0772 72.3019 96.9149 72.0136 96.6262L64.5277 89.1305C63.9276 88.5297 63.9284 87.5562 64.5292 86.9562C65.13 86.3562 66.1034 86.3569 66.7034 86.9577L73.1019 93.3647L90.4335 76.0248C91.0337 75.4242 92.0071 75.424 92.6077 76.0243C93.2083 76.6246 93.2085 77.598 92.6083 78.1985L74.1888 96.6267C73.9004 96.9152 73.5092 97.0772 73.1014 97.0772Z" fill="#A1A1FF"/>
</g>
<path d="M69.0212 22.8934C52.5543 25.9249 50.0968 28.3824 47.0653 44.8494C44.0338 28.3824 41.5763 25.9249 25.1094 22.8934C41.5763 19.862 44.0338 17.4044 47.0653 0.9375C50.0968 17.4044 52.5543 19.862 69.0212 22.8934Z" fill="#CECDFF"/>
<path d="M39.718 54.3121C28.7612 56.3292 27.1261 57.9644 25.109 68.9211C23.0919 57.9644 21.4567 56.3292 10.5 54.3121C21.4567 52.2951 23.0919 50.6599 25.109 39.7031C27.1261 50.6599 28.7612 52.2951 39.718 54.3121Z" fill="#E4E7FF"/>
<defs>
<clipPath id="clip0_1767_9712">
<rect width="38.2045" height="38.2045" fill="white" transform="translate(59.4531 67.2266)"/>
</clipPath>
</defs>
</svg>
