<svg width="79" height="78" viewBox="0 0 79 78" fill="none" xmlns="http://www.w3.org/2000/svg">
<path d="M11.0535 3.68808V55.3131C11.0535 57.3409 12.7038 59 14.721 59H50.3848C52.4026 59 54.0535 57.3404 54.0535 55.3119V13.581C54.0535 12.4488 53.606 11.3629 52.8097 10.5623L43.5467 1.25034C42.7503 0.449788 41.6702 0 40.5439 0H14.7221C12.7044 0 11.0535 1.65963 11.0535 3.68808Z" fill="url(#paint0_linear_23_1932)"/>
<path d="M20.8283 28.4636H44.2786C44.8631 28.4636 45.3369 27.9873 45.3369 27.3997V24.8054C45.3369 24.2179 44.8631 23.7416 44.2786 23.7416H20.8283C20.2438 23.7416 19.77 24.2179 19.77 24.8054V27.3997C19.77 27.9873 20.2438 28.4636 20.8283 28.4636Z" fill="#EBEFF0"/>
<path d="M20.8283 35.8346H44.2786C44.8631 35.8346 45.3369 35.3583 45.3369 34.7707V32.1765C45.3369 31.5889 44.8631 31.1126 44.2786 31.1126H20.8283C20.2438 31.1126 19.77 31.5889 19.77 32.1765V34.7707C19.77 35.3583 20.2438 35.8346 20.8283 35.8346Z" fill="#EBEFF0"/>
<path d="M20.8283 43.2053H44.2786C44.8631 43.2053 45.3369 42.7291 45.3369 42.1415V39.5474C45.3369 38.9598 44.8631 38.4835 44.2786 38.4835H20.8283C20.2438 38.4835 19.77 38.9598 19.77 39.5474V42.1416C19.77 42.7291 20.2438 43.2053 20.8283 43.2053Z" fill="#EBEFF0"/>
<path d="M20.5362 50.5763H32.4071C32.8302 50.5763 33.1733 50.2314 33.1733 49.8061V46.6247C33.1733 46.1993 32.8302 45.8545 32.4071 45.8545H20.5362C20.1131 45.8545 19.77 46.1993 19.77 46.6247V49.8061C19.77 50.2314 20.1131 50.5763 20.5362 50.5763Z" fill="#EBEFF0"/>
<path d="M43.5465 1.25027C43.001 0.701917 42.3223 0.318302 41.5869 0.13089V12.1532L54.0533 24.6855V13.5808C54.0533 12.4486 53.6059 11.3628 52.8095 10.5621L43.5465 1.25027Z" fill="url(#paint1_linear_23_1932)"/>
<path d="M53.9275 12.5454C53.9411 12.6046 53.9536 12.6624 53.965 12.718H42.7279C41.9322 12.718 41.2871 12.0696 41.2871 11.2696V0.0672455C41.3749 0.0829788 41.4672 0.101373 41.5624 0.122544C42.4 0.308798 43.1638 0.741812 43.7705 1.35159L52.7069 10.3352C53.3111 10.9427 53.7354 11.7084 53.9275 12.5454Z" fill="url(#paint2_linear_23_1932)"/>
<path d="M54.0535 51.735V55.3119C54.0535 57.3403 52.4026 58.9999 50.3848 58.9999H14.721C12.7038 58.9999 11.0535 57.3408 11.0535 55.313V51.735H54.0535Z" fill="url(#paint3_linear_23_1932)"/>
<defs>
<linearGradient id="paint0_linear_23_1932" x1="21.2934" y1="23.0039" x2="49.358" y2="50.9207" gradientUnits="userSpaceOnUse">
<stop stop-color="#7FAEF4"/>
<stop offset="1" stop-color="#4C8DF1"/>
</linearGradient>
<linearGradient id="paint1_linear_23_1932" x1="50.4026" y1="20.0979" x2="45.9301" y2="7.09762" gradientUnits="userSpaceOnUse">
<stop stop-color="#4C8DF1" stop-opacity="0"/>
<stop offset="1" stop-color="#4256AC"/>
</linearGradient>
<linearGradient id="paint2_linear_23_1932" x1="42.7114" y1="6.79406" x2="47.885" y2="11.9405" gradientUnits="userSpaceOnUse">
<stop stop-color="#A7C5FD"/>
<stop offset="1" stop-color="#7FAEF4"/>
</linearGradient>
<linearGradient id="paint3_linear_23_1932" x1="32.5535" y1="53.6437" x2="32.5535" y2="59.3803" gradientUnits="userSpaceOnUse">
<stop stop-color="#4C8DF1" stop-opacity="0"/>
<stop offset="1" stop-color="#4256AC"/>
</linearGradient>
</defs>
</svg>
