<svg id="Layer_1" enable-background="new 0 0 68 68" height="512" viewBox="0 0 68 68" width="512" xmlns="http://www.w3.org/2000/svg"><g><g><g><g><g><g><path d="m62.7657471 28.954792-28.7645378 21.6311913-28.7645402-21.6311913 26.6420483-26.012671c1.1803379-1.1524534 3.0646458-1.1524534 4.2449818 0z" fill="#488ff7"/></g></g></g></g><g><g><g><g><path d="m56.5673218 12.7230358v40.7402344c0 2.1601563-1.75 3.9101563-3.9100342 3.9101563h-37.3199472c-2.1500244 0-3.9000244-1.75-3.9000244-3.9101563v-40.7402344c0-2.159668 1.75-3.909668 3.9000244-3.909668h37.3199463c2.1600351 0 3.9100351 1.75 3.9100351 3.909668z" fill="#dbdbdb"/></g></g></g></g><g><g><g><g><path d="m24.440733 13.3143444h-9.0058584c-.2763672 0-.5-.223877-.5-.5s.2236328-.5.5-.5h9.0058584c.2763672 0 .5.223877.5.5s-.2236329.5-.5.5z" fill="#304056"/></g></g></g></g><g><g><g><g><path d="m19.524229 16.6273327h-4.0893545c-.2763672 0-.5-.223877-.5-.5s.2236328-.5.5-.5h4.0893545c.2763672 0 .5.223877.5.5s-.2236328.5-.5.5z" fill="#304056"/></g></g></g></g><g><g><g><g><path d="m62.7642822 28.9524918v33.0800781c0 1.199707-.5500488 2.2797852-1.3999023 2.9897461-.6800537.5698242-1.5400391.8999023-2.4899902.8999023h-49.7401133c-.8800049 0-1.6899414-.2900391-2.3399658-.7797852-.9499512-.7099609-1.5600586-1.840332-1.5600586-3.1098633v-33.080078l24.6101074 18.5097656h.0100098l4.1499023 3.1201172 4.1999512-3.1601563z" fill="#b9b9b9"/></g></g></g></g><g><g><g><g><path d="m61.3643799 65.022316c-.6800537.5698242-1.5400391.8999023-2.4899902.8999023h-49.7401133c-.8800049 0-1.6899414-.2900391-2.3399658-.7797852l23.0500488-17.6801758h.0100098l4.1499023 3.1201172 4.1999512-3.1601563h.0200195z" fill="#488ff7"/></g></g></g></g></g><g><g><g><g><path d="m45.9072876 18.6034069v14.0498028c-.2999268 2.5400391-1.6499023 4.5297852-3.6699219 6.1801758-2.0300293 1.6499023-4.7299805 2.949707-7.7399902 4.0898438-.3200684.1201172-.6700439.1201172-.9899902 0-6.0200214-2.2802734-10.8100605-5.2001953-11.4100361-10.2700195v-14.0498029c0-.7700195.6300049-1.4101563 1.4100342-1.3803711 5.1499023.1401367 8.2199707-1.8198242 9.6099873-3.0195313.5100098-.4404297 1.2600098-.4404297 1.7698975 0 1.3901367 1.199707 4.460083 3.159668 9.6201172 3.0195313.7700194-.0297851 1.3999022.6103516 1.3999022 1.3803711z" fill="#488ff7"/></g></g></g><g><g><g><circle cx="34.001" cy="28.598" fill="#fff" r="6.925"/></g></g></g></g><g><g><g><g><path d="m32.6262817 31.0377331c-.1279297 0-.2558594-.0488281-.3535156-.1464844l-1.4375019-1.4375c-.1953125-.1953125-.1953125-.5117188 0-.7070313s.5117188-.1953125.7070313 0l1.0839863 1.0839844 3.8339844-3.8339844c.1953125-.1953125.5117188-.1953125.7070313 0s.1953125.5117188 0 .7070313l-4.1875 4.1875c-.0976564.0976563-.2255861.1464844-.3535158.1464844z" fill="#304056"/></g></g></g></g></g></svg>