<svg width="199" height="168" viewBox="0 0 199 168" fill="none" xmlns="http://www.w3.org/2000/svg">
<path d="M0.0899325 2.46001C0.0899325 1.15105 1.15105 0.0899325 2.46 0.0899325H196.54C197.849 0.0899325 198.91 1.15105 198.91 2.46V165.54C198.91 166.849 197.849 167.91 196.54 167.91H2.46C1.15105 167.91 0.0899325 166.849 0.0899325 165.54V2.46001Z" fill="url(#paint0_linear_1531_2)"/>
<path d="M0.0899325 2.46001C0.0899325 1.15105 1.15105 0.0899325 2.46 0.0899325H196.54C197.849 0.0899325 198.91 1.15105 198.91 2.46V165.54C198.91 166.849 197.849 167.91 196.54 167.91H2.46C1.15105 167.91 0.0899325 166.849 0.0899325 165.54V2.46001Z" stroke="url(#paint1_linear_1531_2)" stroke-width="0.179865"/>
<g filter="url(#filter0_d_1531_2)">
<rect x="33" y="30" width="125" height="89" rx="2.22222" fill="white"/>
</g>
<rect x="41" y="37" width="23" height="21" rx="4" fill="#D4DFF9" fill-opacity="0.4"/>
<rect x="70" y="41" width="41" height="4" rx="2" fill="#D4DFF9" fill-opacity="0.4"/>
<rect x="70" y="50" width="51" height="4" rx="2" fill="#D4DFF9" fill-opacity="0.4"/>
<g clip-path="url(#clip0_1531_2)">
<path d="M87.5939 94.9863C86.1989 93.5986 85.2472 91.828 84.8594 89.899C84.4715 87.9699 84.6649 85.9691 85.4151 84.1501C86.1653 82.3311 87.4385 80.7756 89.0735 79.6808C90.7084 78.5859 92.6315 78.001 94.5992 78C96.5668 77.999 98.4905 78.5821 100.127 79.6753C101.763 80.7686 103.037 82.3228 103.789 84.1411C104.541 85.9594 104.737 87.96 104.351 89.8894C103.965 91.8188 103.015 93.5903 101.621 94.9794C101.538 95.062 101.44 95.1274 101.332 95.1719C101.224 95.2165 101.108 95.2393 100.991 95.2391C100.874 95.2388 100.758 95.2156 100.65 95.1706C100.542 95.1256 100.444 95.0598 100.362 94.977C100.279 94.8941 100.214 94.7958 100.169 94.6877C100.125 94.5795 100.102 94.4636 100.102 94.3467C100.102 94.2297 100.125 94.114 100.17 94.006C100.215 93.898 100.281 93.8 100.364 93.7174C101.508 92.5772 102.287 91.1232 102.604 89.5396C102.92 87.956 102.76 86.3141 102.143 84.8218C101.525 83.3295 100.479 82.054 99.1362 81.1569C97.7934 80.2597 96.2146 79.7812 94.5997 79.782C92.9848 79.7828 91.4064 80.2629 90.0646 81.1614C88.7227 82.0599 87.6777 83.3365 87.0619 84.8294C86.4461 86.3223 86.2873 87.9644 86.6055 89.5476C86.9237 91.1309 87.7046 92.5841 88.8493 93.7232C88.933 93.8055 88.9995 93.9035 89.0452 94.0116C89.0909 94.1198 89.1147 94.2358 89.1153 94.3532C89.116 94.4705 89.0934 94.5869 89.049 94.6955C89.0045 94.8041 88.9391 94.9029 88.8563 94.9861C88.7736 95.0693 88.6752 95.1354 88.5668 95.1804C88.4585 95.2255 88.3423 95.2487 88.2249 95.2487C88.1076 95.2488 87.9913 95.2256 87.883 95.1806C87.7746 95.1355 87.6762 95.0695 87.5934 94.9863H87.5939ZM114.835 103.66C114.253 103.323 113.592 103.144 112.919 103.141C112.246 103.139 111.584 103.313 110.999 103.647C110.95 103.675 110.904 103.706 110.856 103.736C110.697 101.361 108.791 100.118 106.904 100.117H106.901C105.776 100.117 104.645 100.558 103.88 101.417C103.117 100.477 101.933 99.993 100.757 99.9923H100.754C99.9828 99.99 99.2264 100.2 98.5668 100.598L98.573 87.9438C98.5729 86.8937 98.1563 85.8865 97.4147 85.143C96.673 84.3996 95.6668 83.9806 94.6167 83.9779H94.6091C93.5606 83.9817 92.5561 84.3998 91.8147 85.1411C91.0732 85.8824 90.6548 86.8868 90.6507 87.9352L90.6368 108.844L88.4358 105.947C87.1949 104.31 85.2807 103.436 83.4413 103.668C82.063 103.841 80.9587 104.613 80.4878 105.732C80.177 106.471 79.8882 108.017 81.4468 110.072C84.7019 114.362 85.7991 117.484 86.7671 120.239C87.5556 122.483 88.2367 124.421 89.8955 126.318C91.3638 127.999 92.0691 129.894 92.052 132.109L92.0362 134.103C92.0352 134.22 92.0573 134.336 92.1012 134.445C92.1451 134.553 92.21 134.652 92.292 134.735C92.3741 134.819 92.4718 134.885 92.5795 134.931C92.6873 134.976 92.8029 135 92.9199 135.001H110.054C110.29 134.999 110.516 134.904 110.682 134.735C110.847 134.567 110.939 134.34 110.937 134.103L110.922 132.107C110.904 129.886 111.611 127.99 113.081 126.31C115.45 123.604 116.754 120.128 116.75 116.531L116.76 107.273C116.762 105.686 116.06 104.37 114.835 103.66Z" fill="#6666F2"/>
</g>
<defs>
<filter id="filter0_d_1531_2" x="22.6296" y="22.5926" width="145.741" height="109.741" filterUnits="userSpaceOnUse" color-interpolation-filters="sRGB">
<feFlood flood-opacity="0" result="BackgroundImageFix"/>
<feColorMatrix in="SourceAlpha" type="matrix" values="0 0 0 0 0 0 0 0 0 0 0 0 0 0 0 0 0 0 127 0" result="hardAlpha"/>
<feMorphology radius="2.96296" operator="dilate" in="SourceAlpha" result="effect1_dropShadow_1531_2"/>
<feOffset dy="2.96296"/>
<feGaussianBlur stdDeviation="3.7037"/>
<feComposite in2="hardAlpha" operator="out"/>
<feColorMatrix type="matrix" values="0 0 0 0 0.93263 0 0 0 0 0.951215 0 0 0 0 1 0 0 0 1 0"/>
<feBlend mode="normal" in2="BackgroundImageFix" result="effect1_dropShadow_1531_2"/>
<feBlend mode="normal" in="SourceGraphic" in2="effect1_dropShadow_1531_2" result="shape"/>
</filter>
<linearGradient id="paint0_linear_1531_2" x1="99.5" y1="0" x2="99.5" y2="168" gradientUnits="userSpaceOnUse">
<stop stop-color="white"/>
<stop offset="0.563064" stop-color="white"/>
<stop offset="1" stop-color="#E0E8FD"/>
</linearGradient>
<linearGradient id="paint1_linear_1531_2" x1="99.5" y1="0" x2="99.5" y2="168" gradientUnits="userSpaceOnUse">
<stop stop-color="#6666F2" stop-opacity="0.15"/>
<stop offset="1" stop-color="white"/>
</linearGradient>
<clipPath id="clip0_1531_2">
<rect width="57" height="57" fill="white" transform="translate(70 78)"/>
</clipPath>
</defs>
</svg>
