<svg xmlns="http://www.w3.org/2000/svg" version="1.1" xmlns:xlink="http://www.w3.org/1999/xlink" width="512" height="512" x="0" y="0" viewBox="0 0 24 24" style="enable-background:new 0 0 512 512" xml:space="preserve" class=""><g><path d="M20 10h-2V8.5C18 7.122 16.879 6 15.5 6h-12A2.503 2.503 0 0 0 1 8.5v11C1 21.981 3.019 24 5.5 24h8a4.506 4.506 0 0 0 4.472-4H20c1.654 0 3-1.346 3-3v-4c0-1.654-1.346-3-3-3Zm-6.5 13h-8C3.57 23 2 21.43 2 19.5v-11C2 7.673 2.673 7 3.5 7h12c.827 0 1.5.673 1.5 1.5v11c0 1.93-1.57 3.5-3.5 3.5Zm8.5-6c0 1.103-.897 2-2 2h-2v-8h2c1.103 0 2 .897 2 2v4ZM9 3.5v-3a.5.5 0 0 1 1 0v3a.5.5 0 0 1-1 0Zm4 0v-3a.5.5 0 0 1 1 0v3a.5.5 0 0 1-1 0Zm-8 0v-3a.5.5 0 0 1 1 0v3a.5.5 0 0 1-1 0Z" fill="#ca8a02" opacity="1" data-original="#000000"></path></g></svg>