<svg id="Icon" viewBox="0 0 24 24" xmlns="http://www.w3.org/2000/svg"><path d="m18.75 5v7c0 .414-.336.75-.75.75s-.75-.336-.75-.75v-7c0-.689-.561-1.25-1.25-1.25h-10c-.689 0-1.25.561-1.25 1.25v13c0 .689.561 1.25 1.25 1.25h6c.414 0 .75.336.75.75s-.336.75-.75.75h-6c-1.517 0-2.75-1.233-2.75-2.75v-13c0-1.517 1.233-2.75 2.75-2.75h10c1.517 0 2.75 1.233 2.75 2.75zm-3.75.25h-8c-.414 0-.75.336-.75.75s.336.75.75.75h8c.414 0 .75-.336.75-.75s-.336-.75-.75-.75zm-3.25 3.75c0-.414-.336-.75-.75-.75h-4c-.414 0-.75.336-.75.75s.336.75.75.75h4c.414 0 .75-.336.75-.75zm-4.75 2.25c-.414 0-.75.336-.75.75s.336.75.75.75h1c.414 0 .75-.336.75-.75s-.336-.75-.75-.75z" fill="#112d55"/><path d="m15 10.25c-3.171 0-5.75 2.58-5.75 5.75s2.579 5.75 5.75 5.75 5.75-2.58 5.75-5.75-2.579-5.75-5.75-5.75zm0 10c-2.344 0-4.25-1.907-4.25-4.25s1.906-4.25 4.25-4.25 4.25 1.907 4.25 4.25-1.906 4.25-4.25 4.25zm2.705-4.25c0 .414-.336.75-.75.75h-1.955c-.414 0-.75-.336-.75-.75v-2.035c0-.414.336-.75.75-.75s.75.336.75.75v1.285h1.205c.414 0 .75.336.75.75z" fill="#549bff"/></svg>