<svg id="Layer_1" enable-background="new 0 0 68 68" height="512" viewBox="0 0 68 68" width="512" xmlns="http://www.w3.org/2000/svg"><g><g><g><path d="m53.7869492 21.4199219v38.1999511c0 1.8901367-1.5299072 3.420166-3.4199219 3.420166h-42.3900142c-1.8900146 0-3.4200439-1.5300293-3.4200439-3.420166v-38.1999511c0-1.8898926 1.5300293-3.4199219 3.4200439-3.4199219h42.3900146c1.8900142 0 3.4199215 1.5300293 3.4199215 3.4199219z" fill="#b9b9b9"/></g><g><path d="m56.1670761 13.130127v41.6599121c0 2.7099609-2.2000732 4.9099121-4.9200439 4.9099121h-44.150024c-2.7199707 0-4.9199219-2.1999512-4.9199219-4.9099121v-41.6599121c0-2.7102051 2.1999512-4.920166 4.9199219-4.920166h44.1500244c2.7199703-.0000001 4.9200435 2.2099609 4.9200435 4.920166z" fill="#dbdbdb"/></g><g><path d="m56.1670761 12.9001465v7.7897949h-53.9899897v-7.7897949c0-2.5900879 2.0999756-4.6901855 4.6899414-4.6901855h44.6099854c2.5899653-.0000001 4.6900629 2.1000976 4.6900629 4.6901855z" fill="#488ff7"/></g><g><circle cx="12.822" cy="14.451" fill="#fefefe" r="3.546"/></g><g><circle cx="28.62" cy="14.451" fill="#fefefe" r="3.546"/></g><g><circle cx="44.419" cy="14.451" fill="#fefefe" r="3.546"/></g><g><path d="m46.1670761 6.6999512v6.4899902c0 .9602051-.7800293 1.7399902-1.75 1.7399902-.9599609 0-1.7399902-.7797852-1.7399902-1.7399902v-6.4899902c0-.9599609.7800293-1.7399902 1.7399902-1.7399902.4799805 0 .9299316.1901855 1.2399902.5100098.3099366.3200683.5100098.7499999.5100098 1.2299804z" fill="#304056"/></g><g><path d="m29.8570175 5.4699707c.3200684.3200684.5100098.75.5100098 1.2299805v6.4899902c0 .9602051-.7800293 1.7399902-1.75 1.7399902-.9599609 0-1.7399902-.7797852-1.7399902-1.7399902v-6.4899902c0-.9599609.7800293-1.7399902 1.7399902-1.7399902.4899902-.0000001.9299316.1901855 1.2399902.5100097z" fill="#304056"/></g><g><path d="m14.5669785 6.6799316v6.5400391c0 .9499512-.7700195 1.7199707-1.7199707 1.7199707h-.0500488c-.9499512 0-1.7199707-.7700195-1.7199707-1.7199707v-6.5400391c0-.9499512.7700195-1.7199707 1.7199707-1.7199707h.0500488c.9499511 0 1.7199707.7700196 1.7199707 1.7199707z" fill="#304056"/></g></g><g><g><path d="m31.2658386 30.0360699h-4.1875c-.4800262 0-.8691635-.3891373-.8691635-.8691635v-3.4127331c0-.4800262.3891373-.8691635.8691635-.8691635h4.1875c.4800262 0 .8691635.3891373.8691635.8691635v3.4127331c0 .4800262-.3891372.8691635-.8691635.8691635z" fill="#b9b9b9"/></g><g><path d="m41.2808418 30.0360699h-4.1875c-.4800262 0-.8691635-.3891373-.8691635-.8691635v-3.4127331c0-.4800262.3891373-.8691635.8691635-.8691635h4.1875c.4800262 0 .8691635.3891373.8691635.8691635v3.4127331c0 .4800262-.3891372.8691635-.8691635.8691635z" fill="#488ff7"/></g><g><path d="m51.295845 30.0360699h-4.1875c-.4800262 0-.8691635-.3891373-.8691635-.8691635v-3.4127331c0-.4800262.3891373-.8691635.8691635-.8691635h4.1875c.4800262 0 .8691635.3891373.8691635.8691635v3.4127331c0 .4800262-.3891372.8691635-.8691635.8691635z" fill="#b9b9b9"/></g></g><g><g><path d="m11.2358332 38.5913467h-4.1875c-.4800262 0-.869164-.3891373-.869164-.8691635v-3.4127312c0-.4800262.3891377-.8691635.869164-.8691635h4.1875c.4800262 0 .8691635.3891373.8691635.8691635v3.4127312c0 .4800263-.3891373.8691635-.8691635.8691635z" fill="#b9b9b9"/></g><g><path d="m21.2508354 38.5913467h-4.1875c-.4800262 0-.8691635-.3891373-.8691635-.8691635v-3.4127312c0-.4800262.3891373-.8691635.8691635-.8691635h4.1875c.4800262 0 .8691654.3891373.8691654.8691635v3.4127312c0 .4800263-.3891391.8691635-.8691654.8691635z" fill="#b9b9b9"/></g><g><path d="m31.2658386 38.5913467h-4.1875c-.4800262 0-.8691635-.3891373-.8691635-.8691635v-3.4127312c0-.4800262.3891373-.8691635.8691635-.8691635h4.1875c.4800262 0 .8691635.3891373.8691635.8691635v3.4127312c0 .4800263-.3891372.8691635-.8691635.8691635z" fill="#b9b9b9"/></g><g><path d="m41.2808418 38.5913467h-4.1875c-.4800262 0-.8691635-.3891373-.8691635-.8691635v-3.4127312c0-.4800262.3891373-.8691635.8691635-.8691635h4.1875c.4800262 0 .8691635.3891373.8691635.8691635v3.4127312c0 .4800263-.3891372.8691635-.8691635.8691635z" fill="#488ff7"/></g><g><path d="m51.295845 38.5913467h-4.1875c-.4800262 0-.8691635-.3891373-.8691635-.8691635v-3.4127312c0-.4800262.3891373-.8691635.8691635-.8691635h4.1875c.4800262 0 .8691635.3891373.8691635.8691635v3.4127312c0 .4800263-.3891372.8691635-.8691635.8691635z" fill="#b9b9b9"/></g></g><g><g><path d="m11.2358332 47.1466255h-4.1875c-.4800262 0-.869164-.3891373-.869164-.8691635v-3.4127312c0-.4800262.3891377-.8691635.869164-.8691635h4.1875c.4800262 0 .8691635.3891373.8691635.8691635v3.4127312c0 .4800263-.3891373.8691635-.8691635.8691635z" fill="#b9b9b9"/></g><g><path d="m21.2508354 47.1466255h-4.1875c-.4800262 0-.8691635-.3891373-.8691635-.8691635v-3.4127312c0-.4800262.3891373-.8691635.8691635-.8691635h4.1875c.4800262 0 .8691654.3891373.8691654.8691635v3.4127312c0 .4800263-.3891391.8691635-.8691654.8691635z" fill="#b9b9b9"/></g><g><path d="m31.2658386 47.1466255h-4.1875c-.4800262 0-.8691635-.3891373-.8691635-.8691635v-3.4127312c0-.4800262.3891373-.8691635.8691635-.8691635h4.1875c.4800262 0 .8691635.3891373.8691635.8691635v3.4127312c0 .4800263-.3891372.8691635-.8691635.8691635z" fill="#b9b9b9"/></g><g><path d="m41.2808418 47.1466255h-4.1875c-.4800262 0-.8691635-.3891373-.8691635-.8691635v-3.4127312c0-.4800262.3891373-.8691635.8691635-.8691635h4.1875c.4800262 0 .8691635.3891373.8691635.8691635v3.4127312c0 .4800263-.3891372.8691635-.8691635.8691635z" fill="#488ff7"/></g></g><g><g><path d="m11.2358332 55.7019043h-4.1875c-.4800262 0-.869164-.3891373-.869164-.8691635v-3.4127312c0-.4800262.3891377-.8691635.869164-.8691635h4.1875c.4800262 0 .8691635.3891373.8691635.8691635v3.4127312c0 .4800262-.3891373.8691635-.8691635.8691635z" fill="#b9b9b9"/></g><g><path d="m21.2508354 55.7019043h-4.1875c-.4800262 0-.8691635-.3891373-.8691635-.8691635v-3.4127312c0-.4800262.3891373-.8691635.8691635-.8691635h4.1875c.4800262 0 .8691654.3891373.8691654.8691635v3.4127312c0 .4800262-.3891391.8691635-.8691654.8691635z" fill="#b9b9b9"/></g><g><path d="m31.2658386 55.7019043h-4.1875c-.4800262 0-.8691635-.3891373-.8691635-.8691635v-3.4127312c0-.4800262.3891373-.8691635.8691635-.8691635h4.1875c.4800262 0 .8691635.3891373.8691635.8691635v3.4127312c0 .4800262-.3891372.8691635-.8691635.8691635z" fill="#b9b9b9"/></g><g><path d="m41.2808418 55.7019043h-4.1875c-.4800262 0-.8691635-.3891373-.8691635-.8691635v-3.4127312c0-.4800262.3891373-.8691635.8691635-.8691635h4.1875c.4800262 0 .8691635.3891373.8691635.8691635v3.4127312c0 .4800262-.3891372.8691635-.8691635.8691635z" fill="#488ff7"/></g></g><g><circle cx="52.311" cy="49.527" fill="#304056" r="13.512"/></g><g><path d="m62.3870468 49.5300293c0 .1699219 0 .3300781-.0100098.5-.1199951 2.3898926-1.0800781 4.5700684-2.5999756 6.25-.210083.25-.4500732.4899902-.710083.7099609-1.6699219 1.5300293-3.8598633 2.4899902-6.2600098 2.6101074-.1699219.0100098-.3299561.0100098-.5.0100098-.1699219 0-.3299561 0-.5-.0100098-2.3999023-.1201171-4.5899657-1.0800781-6.2600097-2.6000976-.25-.2299805-.4899902-.4699707-.7099609-.7099609-1.5200195-1.6799316-2.4799805-3.8601074-2.5999756-6.2600098-.0100098-.1699219-.0100098-.3300781-.0100098-.5s0-.3300781.0100098-.5c.1199951-2.3999023 1.0799561-4.5800781 2.6099854-6.2600098.2099609-.2399902.4499512-.4799805.6999512-.7099609 1.6700439-1.5200195 3.8601074-2.4799805 6.2600098-2.6000977.1700439-.0100098.3300781-.0100098.5-.0100098.1700439 0 .3300781 0 .5.0100098 2.4001465.1201172 4.5900879 1.0800781 6.2600098 2.6101074.25.2199707.4899902.4599609.710083.6999512 1.5198975 1.6799316 2.4799805 3.8601074 2.5999756 6.2600098.0100096.1699219.0100096.3300781.0100096.5z" fill="#fff"/></g><g><g><path d="m52.8069687 39.4599609v1.0600586c0 .2700195-.2199707.5-.5.5-.2700195 0-.5-.2299805-.5-.5v-1.0600586c.1700439-.0100098.3300781-.0100098.5-.0100098.1700439.0000001.3300781.0000001.5.0100098z"/></g></g><g><g><path d="m52.8069687 58.5400391v1.0600586c-.1699219.0100098-.3299561.0100098-.5.0100098-.1699219 0-.3299561 0-.5-.0100098v-1.0600586c0-.2800293.2299805-.5.5-.5.2800293 0 .5.2199707.5.5z"/></g></g><g><g><path d="m43.8069687 49.5300293c0 .2700195-.2299805.5-.5.5h-1.0699463c-.0100098-.1699219-.0100098-.3300781-.0100098-.5s0-.3300781.0100098-.5h1.0699463c.2700195 0 .5.2199707.5.5z"/></g></g><g><g><path d="m62.3870468 49.5300293c0 .1699219 0 .3300781-.0100098.5h-1.0600586c-.2700195 0-.5-.2299805-.5-.5 0-.2800293.2299805-.5.5-.5h1.0600586c.0100098.1699219.0100098.3300781.0100098.5z"/></g></g><g><g><path d="m46.2969589 43.5100098c-.0998535.1000977-.2299805.1499023-.3598633.1499023-.1201172 0-.25-.0498047-.3500977-.1499023l-.7399902-.7399902c.2099609-.2399902.4499512-.4799805.6999512-.7099609l.75.7399902c.1900635.1999511.1900635.5200195 0 .7099609z"/></g></g><g><g><path d="m59.7770615 56.2800293c-.210083.25-.4500732.4899902-.710083.7099609l-.7399903-.7399902c-.1899414-.1899414-.1899414-.5100098 0-.7099609.2000732-.1899414.5100098-.1899414.7099609 0z"/></g></g><g><g><path d="m46.2969589 56.25-.75.75c-.25-.2299805-.4899902-.4699707-.7099609-.7099609l.75-.75c.1999512-.1899414.5100098-.1899414.7099609 0 .1900635.1999511.1900635.5200195 0 .7099609z"/></g></g><g><g><path d="m59.7770615 42.7700195-.7401123.7399902c-.0998535.1000977-.2299805.1499023-.3498535.1499023-.130127 0-.2600098-.0498047-.3601074-.1499023-.1899414-.1899414-.1899414-.5100098 0-.7099609l.7399902-.7299805c.25.2199708.4899902.459961.710083.6999512z"/></g></g><g><g><path d="m56.1983261 53.9143066c-.1279297 0-.2558594-.0488281-.3535156-.1464844l-3.887207-3.8867188c-.09375-.09375-.1464844-.2207031-.1464844-.3535156l.0004883-7.1279297c0-.2763672.2241211-.5.5-.5.2763672 0 .5.2241211.5.5l-.0004883 6.9208984 3.7407227 3.7402344c.1953125.1953125.1953125.5117188 0 .7070313-.0976563.0976563-.225586.1464844-.3535157.1464844z"/></g></g><g><circle cx="52.311" cy="49.527" fill="#304056" r="1.608"/></g></g></svg>