<svg id="Layer_1" enable-background="new 0 0 68 68" height="512" viewBox="0 0 68 68" width="512" xmlns="http://www.w3.org/2000/svg"><g><g><g><g><g><path d="m42.5768433 22.1052246v38.909668c0 2.75-2.2399902 4.9902344-4.9899902 4.9902344h-26.6899396c-2.75 0-4.9799809-2.2402344-4.9799809-4.9902344v-38.909668c0-2.7602539 2.2299809-4.9902344 4.9799809-4.9902344h26.6899395c2.75 0 4.9899903 2.2299805 4.9899903 4.9902344z" fill="#dbdbdb"/></g></g></g></g><g><g><g><g><path d="m42.5768433 52.6750488v8.3398438c0 2.75-2.2399902 4.9902344-4.9899902 4.9902344h-26.6899396c-2.75 0-4.9799809-2.2402344-4.9799809-4.9902344v-8.3398438z" fill="#304056"/></g></g></g></g><g><g><g><g><path d="m31.9556847 21.7540779c0 .4504948-.1886959.8641396-.4867477 1.162487-.2983475.2980518-.7121429.4867477-1.162487.4867477h-12.2750569c-.9067822 0-1.6492348-.7423038-1.6492348-1.6492348 0-.4564362.1824551-.8700829.4867477-1.1684303.2983475-.2983475.706049-.4808025 1.162487-.4808025h12.2750568c.9067822 0 1.6492349.7363606 1.6492349 1.6492329z" fill="#b9b9b9"/></g></g></g></g><g><g><g><g><path d="m28.8568745 3.8249512v19.5800781h-9.6298828v-19.5800781c0-1.0097656.8098145-1.8300781 1.8200684-1.8300781h5.9897461c1.0102538-.0000001 1.8200683.8203124 1.8200683 1.8300781z" fill="#488ff7"/></g></g></g></g><g><g><g><g><path d="m28.8568745 3.8249512v7.25h-9.6298828v-7.25c0-1.0097656.8098145-1.8300781 1.8200684-1.8300781h5.9897461c1.0102538-.0000001 1.8200683.8203124 1.8200683 1.8300781z" fill="#dbdbdb"/></g></g></g></g><g><g><g><g><circle cx="24.041" cy="6.538" fill="#304056" r="1.697"/></g></g></g></g><g><g><g><g><circle cx="24.169" cy="37.724" fill="#488ff7" r="10.012"/></g></g></g></g><g><g><g><g><g><g><path d="m11.1071186 63.4145508c-.2763672 0-.5-.223877-.5-.5v-7.1508789c0-.276123.2236328-.5.5-.5s.5.223877.5.5v7.1508789c0 .276123-.2236328.5-.5.5z" fill="#dbdbdb"/></g></g></g></g></g><g><g><g><g><g><path d="m14.8620014 63.4145508c-.2763672 0-.5-.223877-.5-.5v-7.1508789c0-.276123.2236328-.5.5-.5s.5.223877.5.5v7.1508789c0 .276123-.2236328.5-.5.5z" fill="#dbdbdb"/></g></g></g></g></g><g><g><g><g><g><path d="m18.6168842 63.4145508c-.2763672 0-.5-.223877-.5-.5v-7.1508789c0-.276123.2236328-.5.5-.5s.5.223877.5.5v7.1508789c0 .276123-.2236328.5-.5.5z" fill="#dbdbdb"/></g></g></g></g></g><g><g><g><g><g><path d="m22.371767 63.4145508c-.2763672 0-.5-.223877-.5-.5v-7.1508789c0-.276123.2236328-.5.5-.5s.5.223877.5.5v7.1508789c0 .276123-.2236328.5-.5.5z" fill="#dbdbdb"/></g></g></g></g></g><g><g><g><g><g><path d="m26.1271381 63.4145508c-.2763672 0-.5-.223877-.5-.5v-7.1508789c0-.276123.2236328-.5.5-.5s.5.223877.5.5v7.1508789c0 .276123-.2236328.5-.5.5z" fill="#dbdbdb"/></g></g></g></g></g><g><g><g><g><g><path d="m29.882021 63.4145508c-.2763672 0-.5-.223877-.5-.5v-7.1508789c0-.276123.2236328-.5.5-.5s.5.223877.5.5v7.1508789c0 .276123-.2236329.5-.5.5z" fill="#dbdbdb"/></g></g></g></g></g><g><g><g><g><g><path d="m33.6369019 63.4145508c-.2763672 0-.5-.223877-.5-.5v-7.1508789c0-.276123.2236328-.5.5-.5s.5.223877.5.5v7.1508789c0 .276123-.2236329.5-.5.5z" fill="#dbdbdb"/></g></g></g></g></g><g><g><g><g><g><path d="m37.3917847 63.4145508c-.2763672 0-.5-.223877-.5-.5v-7.1508789c0-.276123.2236328-.5.5-.5s.5.223877.5.5v7.1508789c0 .276123-.2236328.5-.5.5z" fill="#dbdbdb"/></g></g></g></g></g></g><g><g><g><g><circle cx="24.041" cy="36.712" fill="#fff" r="3.288"/></g></g></g></g><g><g><g><g><path d="m31.1394482 44.9040184c-1.8000488 1.75-4.2600098 2.8300781-6.9699707 2.8300781-2.8100586 0-5.3500977-1.1601563-7.1601563-3.0200195 1.1401367-2.7597656 3.8601074-4.7001953 7.0300293-4.7001953 3.25 0 6.0100098 2.0302734 7.1000977 4.8901367z" fill="#fff"/></g></g></g></g><g><g><g><g><path d="m62.0822105 45.6679764c-.0939903 2.9538765-1.2206039 12.7787209-11.7285919 20.0344086-.5803947.4009628-1.3571053.4009628-1.9377098 0-10.4994392-7.2556878-11.6345978-17.0805321-11.7285881-20.0344086-.0170898-.537674.2304916-1.0499229.6572952-1.3825302l5.326519-4.1488419c.2903023-.2388268.6572952-.358448 1.041378-.358448h11.3530502c.3755379 0 .7427406.1196213 1.041378.358448l5.3265152 4.1488419c.4268075.3326072.6658403.8448562.6487542 1.3825302z" fill="#488ff7"/></g></g></g></g><g><g><g><g><circle cx="49.385" cy="51.634" fill="#fff" r="6.524"/></g></g></g></g><g><g><g><g><path d="m48.2145386 54.1862793c-.1279297 0-.2558594-.0488281-.3535156-.1464844l-1.7636719-1.7636719c-.1953125-.1953125-.1953125-.5117188 0-.7070313s.5117188-.1953125.7070313 0l1.4101563 1.4101563 3.7509766-3.7509766c.1953125-.1953125.5117188-.1953125.7070313 0s.1953125.5117188 0 .7070313l-4.1044922 4.1044922c-.0976565.0976563-.2255861.1464844-.3535158.1464844z" fill="#304056"/></g></g></g></g></g></svg>