<svg width="43" height="43" viewBox="0 0 43 43" fill="none" xmlns="http://www.w3.org/2000/svg">
<circle cx="21.82" cy="21.7429" r="20.8445" fill="#C6C6FF"/>
<mask id="mask0_528_31" style="mask-type:alpha" maskUnits="userSpaceOnUse" x="12" y="12" width="20" height="20">
<rect x="12.1997" y="12.1211" width="19.2388" height="19.2388" fill="#D9D9D9"/>
</mask>
<g mask="url(#mask0_528_31)">
<path d="M15.4062 28.9555C14.9653 28.9555 14.5879 28.7985 14.2739 28.4845C13.96 28.1706 13.803 27.7931 13.803 27.3522V18.5344C13.803 18.0935 13.96 17.716 14.2739 17.4021C14.5879 17.0881 14.9653 16.9311 15.4062 16.9311H18.6127V15.3279C18.6127 14.887 18.7697 14.5095 19.0837 14.1956C19.3977 13.8816 19.7751 13.7246 20.216 13.7246H23.4225C23.8634 13.7246 24.2408 13.8816 24.5548 14.1956C24.8687 14.5095 25.0257 14.887 25.0257 15.3279V16.9311H28.2322C28.6731 16.9311 29.0506 17.0881 29.3645 17.4021C29.6785 17.716 29.8355 18.0935 29.8355 18.5344V21.9613C29.595 21.7876 29.3412 21.6373 29.0739 21.5104C28.8067 21.3835 28.5262 21.2732 28.2322 21.1797V18.5344H15.4062V27.3522H21.0777C21.1178 27.6328 21.1779 27.9067 21.2581 28.1739C21.3383 28.4411 21.4385 28.7016 21.5587 28.9555H15.4062ZM20.216 16.9311H23.4225V15.3279H20.216V16.9311ZM26.629 30.5587C25.5201 30.5587 24.5748 30.1679 23.7932 29.3864C23.0117 28.6048 22.6209 27.6595 22.6209 26.5506C22.6209 25.4417 23.0117 24.4965 23.7932 23.7149C24.5748 22.9333 25.5201 22.5425 26.629 22.5425C27.7379 22.5425 28.6831 22.9333 29.4647 23.7149C30.2463 24.4965 30.6371 25.4417 30.6371 26.5506C30.6371 27.6595 30.2463 28.6048 29.4647 29.3864C28.6831 30.1679 27.7379 30.5587 26.629 30.5587ZM27.0298 26.3903V24.1457H26.2282V26.7109L27.9517 28.4344L28.5128 27.8733L27.0298 26.3903Z" fill="#444444"/>
</g>
</svg>
